<?xml version="1.0"?>
<!-- Generated by SVGo -->
<svg width="396.714mm" height="153.827mm"
     viewBox="0.000 0.000 396.714 153.827"
     xmlns="http://www.w3.org/2000/svg" 
     xmlns:xlink="http://www.w3.org/1999/xlink">
<polygon points="386.714,5.001 387.106,5.016 387.496,5.062 387.881,5.139 388.259,5.245 388.627,5.381 388.984,5.545 389.326,5.737 389.653,5.955 389.961,6.198 390.250,6.465 390.516,6.753 390.759,7.062 390.977,7.388 391.169,7.731 391.333,8.087 391.469,8.455 391.576,8.833 391.652,9.218 391.699,9.608 391.714,10.001 391.714,143.827 391.699,144.219 391.652,144.609 391.576,144.994 391.469,145.372 391.333,145.740 391.169,146.096 390.977,146.439 390.759,146.765 390.516,147.074 390.250,147.362 389.961,147.629 389.653,147.872 389.326,148.090 388.984,148.282 388.627,148.446 388.259,148.582 387.881,148.688 387.496,148.765 387.106,148.811 386.714,148.827 10.001,148.827 9.608,148.811 9.218,148.765 8.833,148.688 8.455,148.582 8.087,148.446 7.731,148.282 7.388,148.090 7.062,147.872 6.753,147.629 6.465,147.362 6.198,147.074 5.955,146.765 5.737,146.439 5.545,146.096 5.381,145.740 5.245,145.372 5.139,144.994 5.062,144.609 5.016,144.219 5.000,143.827 5.001,10.001 5.016,9.608 5.062,9.218 5.139,8.833 5.245,8.455 5.381,8.087 5.545,7.731 5.737,7.388 5.955,7.062 6.198,6.753 6.465,6.465 6.753,6.198 7.062,5.955 7.388,5.737 7.731,5.545 8.087,5.381 8.455,5.245 8.833,5.139 9.218,5.062 9.608,5.016 10.001,5.000" style="fill:none;stroke-width:0.050000mm;stroke:black"/>
<polygon points="386.941,142.449 386.245,142.804 385.691,143.357 385.336,144.054 385.214,144.827 385.336,145.599 385.691,146.296 386.245,146.849 386.941,147.204 387.714,147.327 388.487,147.204 389.183,146.849 389.737,146.296 390.092,145.599 390.214,144.827 390.092,144.054 389.737,143.357 389.183,142.804 388.487,142.449 387.714,142.327" style="fill:none;stroke-width:0.050000mm;stroke:black"/>
<polygon points="197.585,142.449 196.888,142.804 196.335,143.357 195.980,144.054 195.857,144.827 195.980,145.599 196.335,146.296 196.888,146.849 197.585,147.204 198.357,147.327 199.130,147.204 199.827,146.849 200.380,146.296 200.735,145.599 200.857,144.827 200.735,144.054 200.380,143.357 199.827,142.804 199.130,142.449 198.357,142.327" style="fill:none;stroke-width:0.050000mm;stroke:black"/>
<polygon points="8.228,142.449 7.531,142.804 6.978,143.357 6.623,144.054 6.501,144.827 6.623,145.599 6.978,146.296 7.531,146.849 8.228,147.204 9.001,147.327 9.773,147.204 10.470,146.849 11.023,146.296 11.378,145.599 11.501,144.827 11.378,144.054 11.023,143.357 10.470,142.804 9.773,142.449 9.001,142.327" style="fill:none;stroke-width:0.050000mm;stroke:black"/>
<polygon points="138.969,122.301 138.969,123.301 138.169,123.301 138.169,126.401 138.969,126.401 138.969,127.001 99.344,127.001 99.344,123.771 92.594,123.771 92.594,127.001 91.769,127.001 91.769,129.801 92.594,129.801 92.594,136.071 94.319,136.071 94.319,137.271 97.619,137.271 97.619,136.071 99.344,136.071 99.344,131.601 138.969,131.601 138.969,132.201 138.169,132.201 138.169,135.301 138.969,135.301 138.969,136.301 152.969,136.301 152.969,135.301 153.769,135.301 153.769,132.201 152.969,132.201 152.969,131.601 192.594,131.601 192.594,136.071 194.319,136.071 194.319,137.271 197.619,137.271 197.619,136.071 199.344,136.071 199.344,129.801 200.169,129.801 200.169,127.001 199.344,127.001 199.344,123.771 192.594,123.771 192.594,127.001 152.969,127.001 152.969,126.401 153.769,126.401 153.769,123.301 152.969,123.301 152.969,122.301" style="fill:none;stroke-width:0.050000mm;stroke:black"/>
<polygon points="317.563,122.301 317.563,123.301 316.763,123.301 316.763,126.401 317.563,126.401 317.563,127.001 316.038,127.001 316.038,123.771 309.288,123.771 309.288,127.001 308.463,127.001 308.463,129.801 309.288,129.801 309.288,136.071 311.013,136.071 311.013,137.271 314.313,137.271 314.313,136.071 316.038,136.071 316.038,131.601 317.563,131.601 317.563,132.201 316.763,132.201 316.763,135.301 317.563,135.301 317.563,136.301 331.563,136.301 331.563,135.301 332.363,135.301 332.363,132.201 331.563,132.201 331.563,131.601 333.088,131.601 333.088,136.071 334.813,136.071 334.813,137.271 338.113,137.271 338.113,136.071 339.838,136.071 339.838,129.801 340.663,129.801 340.663,127.001 339.838,127.001 339.838,123.771 333.088,123.771 333.088,127.001 331.563,127.001 331.563,126.401 332.363,126.401 332.363,123.301 331.563,123.301 331.563,122.301" style="fill:none;stroke-width:0.050000mm;stroke:black"/>
<polygon points="19.907,122.301 19.907,123.301 19.107,123.301 19.107,126.401 19.907,126.401 19.907,132.201 19.107,132.201 19.107,135.301 19.907,135.301 19.907,136.301 33.907,136.301 33.907,135.301 34.707,135.301 34.707,132.201 33.907,132.201 33.907,126.401 34.707,126.401 34.707,123.301 33.907,123.301 33.907,122.301" style="fill:none;stroke-width:0.050000mm;stroke:black"/>
<polygon points="43.719,122.301 43.719,123.301 42.919,123.301 42.919,126.401 43.719,126.401 43.719,132.201 42.919,132.201 42.919,135.301 43.719,135.301 43.719,136.301 57.719,136.301 57.719,135.301 58.519,135.301 58.519,132.201 57.719,132.201 57.719,126.401 58.519,126.401 58.519,123.301 57.719,123.301 57.719,122.301" style="fill:none;stroke-width:0.050000mm;stroke:black"/>
<polygon points="67.532,122.301 67.532,123.301 66.732,123.301 66.732,126.401 67.532,126.401 67.532,132.201 66.732,132.201 66.732,135.301 67.532,135.301 67.532,136.301 81.532,136.301 81.532,135.301 82.332,135.301 82.332,132.201 81.532,132.201 81.532,126.401 82.332,126.401 82.332,123.301 81.532,123.301 81.532,122.301" style="fill:none;stroke-width:0.050000mm;stroke:black"/>
<polygon points="210.407,122.301 210.407,123.301 209.607,123.301 209.607,126.401 210.407,126.401 210.407,132.201 209.607,132.201 209.607,135.301 210.407,135.301 210.407,136.301 224.407,136.301 224.407,135.301 225.207,135.301 225.207,132.201 224.407,132.201 224.407,126.401 225.207,126.401 225.207,123.301 224.407,123.301 224.407,122.301" style="fill:none;stroke-width:0.050000mm;stroke:black"/>
<polygon points="234.219,122.301 234.219,123.301 233.419,123.301 233.419,126.401 234.219,126.401 234.219,132.201 233.419,132.201 233.419,135.301 234.219,135.301 234.219,136.301 248.219,136.301 248.219,135.301 249.019,135.301 249.019,132.201 248.219,132.201 248.219,126.401 249.019,126.401 249.019,123.301 248.219,123.301 248.219,122.301" style="fill:none;stroke-width:0.050000mm;stroke:black"/>
<polygon points="258.032,122.301 258.032,123.301 257.232,123.301 257.232,126.401 258.032,126.401 258.032,132.201 257.232,132.201 257.232,135.301 258.032,135.301 258.032,136.301 272.032,136.301 272.032,135.301 272.832,135.301 272.832,132.201 272.032,132.201 272.032,126.401 272.832,126.401 272.832,123.301 272.032,123.301 272.032,122.301" style="fill:none;stroke-width:0.050000mm;stroke:black"/>
<polygon points="281.844,122.301 281.844,123.301 281.044,123.301 281.044,126.401 281.844,126.401 281.844,132.201 281.044,132.201 281.044,135.301 281.844,135.301 281.844,136.301 295.844,136.301 295.844,135.301 296.644,135.301 296.644,132.201 295.844,132.201 295.844,126.401 296.644,126.401 296.644,123.301 295.844,123.301 295.844,122.301" style="fill:none;stroke-width:0.050000mm;stroke:black"/>
<polygon points="346.138,122.301 346.138,123.301 345.338,123.301 345.338,126.401 346.138,126.401 346.138,132.201 345.338,132.201 345.338,135.301 346.138,135.301 346.138,136.301 360.138,136.301 360.138,135.301 360.938,135.301 360.938,132.201 360.138,132.201 360.138,126.401 360.938,126.401 360.938,123.301 360.138,123.301 360.138,122.301" style="fill:none;stroke-width:0.050000mm;stroke:black"/>
<polygon points="371.688,103.676 371.688,104.501 365.418,104.501 365.418,106.226 364.218,106.226 364.218,109.526 365.418,109.526 365.418,111.251 369.888,111.251 369.888,112.776 369.288,112.776 369.288,111.976 366.188,111.976 366.188,112.776 365.188,112.776 365.188,126.776 366.188,126.776 366.188,127.576 369.288,127.576 369.288,126.776 369.888,126.776 369.888,128.301 365.418,128.301 365.418,130.026 364.218,130.026 364.218,133.326 365.418,133.326 365.418,135.051 371.688,135.051 371.688,135.876 374.488,135.876 374.488,135.051 377.718,135.051 377.718,128.301 374.488,128.301 374.488,126.776 375.088,126.776 375.088,127.576 378.188,127.576 378.188,126.776 379.188,126.776 379.188,112.776 378.188,112.776 378.188,111.976 375.088,111.976 375.088,112.776 374.488,112.776 374.488,111.251 377.718,111.251 377.718,104.501 374.488,104.501 374.488,103.676" style="fill:none;stroke-width:0.050000mm;stroke:black"/>
<polygon points="29.432,103.251 29.432,104.251 28.632,104.251 28.632,107.351 29.432,107.351 29.432,107.951 27.907,107.951 27.907,104.721 21.157,104.721 21.157,107.951 20.332,107.951 20.332,110.751 21.157,110.751 21.157,117.021 22.882,117.021 22.882,118.221 26.182,118.221 26.182,117.021 27.907,117.021 27.907,112.551 29.432,112.551 29.432,113.151 28.632,113.151 28.632,116.251 29.432,116.251 29.432,117.251 43.432,117.251 43.432,116.251 44.232,116.251 44.232,113.151 43.432,113.151 43.432,112.551 44.957,112.551 44.957,117.021 46.682,117.021 46.682,118.221 49.982,118.221 49.982,117.021 51.707,117.021 51.707,110.751 52.532,110.751 52.532,107.951 51.707,107.951 51.707,104.721 44.957,104.721 44.957,107.951 43.432,107.951 43.432,107.351 44.232,107.351 44.232,104.251 43.432,104.251 43.432,103.251" style="fill:none;stroke-width:0.050000mm;stroke:black"/>
<polygon points="267.557,103.251 267.557,104.251 266.757,104.251 266.757,107.351 267.557,107.351 267.557,107.951 266.032,107.951 266.032,104.721 259.282,104.721 259.282,107.951 258.457,107.951 258.457,110.751 259.282,110.751 259.282,117.021 261.006,117.021 261.006,118.221 264.307,118.221 264.307,117.021 266.032,117.021 266.032,112.551 267.557,112.551 267.557,113.151 266.757,113.151 266.757,116.251 267.557,116.251 267.557,117.251 281.557,117.251 281.557,116.251 282.357,116.251 282.357,113.151 281.557,113.151 281.557,112.551 283.082,112.551 283.082,117.021 284.807,117.021 284.807,118.221 288.107,118.221 288.107,117.021 289.832,117.021 289.832,110.751 290.657,110.751 290.657,107.951 289.832,107.951 289.832,104.721 283.082,104.721 283.082,107.951 281.557,107.951 281.557,107.351 282.357,107.351 282.357,104.251 281.557,104.251 281.557,103.251" style="fill:none;stroke-width:0.050000mm;stroke:black"/>
<polygon points="60.388,103.251 60.388,104.251 59.588,104.251 59.588,107.351 60.388,107.351 60.388,113.151 59.588,113.151 59.588,116.251 60.388,116.251 60.388,117.251 74.388,117.251 74.388,116.251 75.188,116.251 75.188,113.151 74.388,113.151 74.388,107.351 75.188,107.351 75.188,104.251 74.388,104.251 74.388,103.251" style="fill:none;stroke-width:0.050000mm;stroke:black"/>
<polygon points="79.438,103.251 79.438,104.251 78.638,104.251 78.638,107.351 79.438,107.351 79.438,113.151 78.638,113.151 78.638,116.251 79.438,116.251 79.438,117.251 93.438,117.251 93.438,116.251 94.238,116.251 94.238,113.151 93.438,113.151 93.438,107.351 94.238,107.351 94.238,104.251 93.438,104.251 93.438,103.251" style="fill:none;stroke-width:0.050000mm;stroke:black"/>
<polygon points="98.488,103.251 98.488,104.251 97.688,104.251 97.688,107.351 98.488,107.351 98.488,113.151 97.688,113.151 97.688,116.251 98.488,116.251 98.488,117.251 112.488,117.251 112.488,116.251 113.288,116.251 113.288,113.151 112.488,113.151 112.488,107.351 113.288,107.351 113.288,104.251 112.488,104.251 112.488,103.251" style="fill:none;stroke-width:0.050000mm;stroke:black"/>
<polygon points="117.538,103.251 117.538,104.251 116.738,104.251 116.738,107.351 117.538,107.351 117.538,113.151 116.738,113.151 116.738,116.251 117.538,116.251 117.538,117.251 131.538,117.251 131.538,116.251 132.338,116.251 132.338,113.151 131.538,113.151 131.538,107.351 132.338,107.351 132.338,104.251 131.538,104.251 131.538,103.251" style="fill:none;stroke-width:0.050000mm;stroke:black"/>
<polygon points="136.588,103.251 136.588,104.251 135.788,104.251 135.788,107.351 136.588,107.351 136.588,113.151 135.788,113.151 135.788,116.251 136.588,116.251 136.588,117.251 150.588,117.251 150.588,116.251 151.388,116.251 151.388,113.151 150.588,113.151 150.588,107.351 151.388,107.351 151.388,104.251 150.588,104.251 150.588,103.251" style="fill:none;stroke-width:0.050000mm;stroke:black"/>
<polygon points="155.638,103.251 155.638,104.251 154.838,104.251 154.838,107.351 155.638,107.351 155.638,113.151 154.838,113.151 154.838,116.251 155.638,116.251 155.638,117.251 169.638,117.251 169.638,116.251 170.438,116.251 170.438,113.151 169.638,113.151 169.638,107.351 170.438,107.351 170.438,104.251 169.638,104.251 169.638,103.251" style="fill:none;stroke-width:0.050000mm;stroke:black"/>
<polygon points="174.688,103.251 174.688,104.251 173.888,104.251 173.888,107.351 174.688,107.351 174.688,113.151 173.888,113.151 173.888,116.251 174.688,116.251 174.688,117.251 188.688,117.251 188.688,116.251 189.488,116.251 189.488,113.151 188.688,113.151 188.688,107.351 189.488,107.351 189.488,104.251 188.688,104.251 188.688,103.251" style="fill:none;stroke-width:0.050000mm;stroke:black"/>
<polygon points="193.738,103.251 193.738,104.251 192.938,104.251 192.938,107.351 193.738,107.351 193.738,113.151 192.938,113.151 192.938,116.251 193.738,116.251 193.738,117.251 207.738,117.251 207.738,116.251 208.538,116.251 208.538,113.151 207.738,113.151 207.738,107.351 208.538,107.351 208.538,104.251 207.738,104.251 207.738,103.251" style="fill:none;stroke-width:0.050000mm;stroke:black"/>
<polygon points="212.788,103.251 212.788,104.251 211.988,104.251 211.988,107.351 212.788,107.351 212.788,113.151 211.988,113.151 211.988,116.251 212.788,116.251 212.788,117.251 226.788,117.251 226.788,116.251 227.588,116.251 227.588,113.151 226.788,113.151 226.788,107.351 227.588,107.351 227.588,104.251 226.788,104.251 226.788,103.251" style="fill:none;stroke-width:0.050000mm;stroke:black"/>
<polygon points="231.838,103.251 231.838,104.251 231.038,104.251 231.038,107.351 231.838,107.351 231.838,113.151 231.038,113.151 231.038,116.251 231.838,116.251 231.838,117.251 245.838,117.251 245.838,116.251 246.638,116.251 246.638,113.151 245.838,113.151 245.838,107.351 246.638,107.351 246.638,104.251 245.838,104.251 245.838,103.251" style="fill:none;stroke-width:0.050000mm;stroke:black"/>
<polygon points="308.038,103.251 308.038,104.251 307.238,104.251 307.238,107.351 308.038,107.351 308.038,113.151 307.238,113.151 307.238,116.251 308.038,116.251 308.038,117.251 322.038,117.251 322.038,116.251 322.838,116.251 322.838,113.151 322.038,113.151 322.038,107.351 322.838,107.351 322.838,104.251 322.038,104.251 322.038,103.251" style="fill:none;stroke-width:0.050000mm;stroke:black"/>
<polygon points="327.088,103.251 327.088,104.251 326.288,104.251 326.288,107.351 327.088,107.351 327.088,113.151 326.288,113.151 326.288,116.251 327.088,116.251 327.088,117.251 341.088,117.251 341.088,116.251 341.888,116.251 341.888,113.151 341.088,113.151 341.088,107.351 341.888,107.351 341.888,104.251 341.088,104.251 341.088,103.251" style="fill:none;stroke-width:0.050000mm;stroke:black"/>
<polygon points="346.138,103.251 346.138,104.251 345.338,104.251 345.338,107.351 346.138,107.351 346.138,113.151 345.338,113.151 345.338,116.251 346.138,116.251 346.138,117.251 360.138,117.251 360.138,116.251 360.938,116.251 360.938,113.151 360.138,113.151 360.138,107.351 360.938,107.351 360.938,104.251 360.138,104.251 360.138,103.251" style="fill:none;stroke-width:0.050000mm;stroke:black"/>
<polygon points="272.319,84.201 272.319,85.201 271.519,85.201 271.519,88.301 272.319,88.301 272.319,88.901 270.794,88.901 270.794,85.671 264.044,85.671 264.044,88.901 263.219,88.901 263.219,91.701 264.044,91.701 264.044,97.971 265.769,97.971 265.769,99.171 269.069,99.171 269.069,97.971 270.794,97.971 270.794,93.501 272.319,93.501 272.319,94.101 271.519,94.101 271.519,97.201 272.319,97.201 272.319,98.201 286.319,98.201 286.319,97.201 287.119,97.201 287.119,94.101 286.319,94.101 286.319,93.501 287.844,93.501 287.844,97.971 289.569,97.971 289.569,99.171 292.869,99.171 292.869,97.971 294.594,97.971 294.594,91.701 295.419,91.701 295.419,88.901 294.594,88.901 294.594,85.671 287.844,85.671 287.844,88.901 286.319,88.901 286.319,88.301 287.119,88.301 287.119,85.201 286.319,85.201 286.319,84.201" style="fill:none;stroke-width:0.050000mm;stroke:black"/>
<polygon points="24.669,84.201 24.669,85.201 23.869,85.201 23.869,88.301 24.669,88.301 24.669,94.101 23.869,94.101 23.869,97.201 24.669,97.201 24.669,98.201 38.669,98.201 38.669,97.201 39.469,97.201 39.469,94.101 38.669,94.101 38.669,88.301 39.469,88.301 39.469,85.201 38.669,85.201 38.669,84.201" style="fill:none;stroke-width:0.050000mm;stroke:black"/>
<polygon points="50.863,84.201 50.863,85.201 50.063,85.201 50.063,88.301 50.863,88.301 50.863,94.101 50.063,94.101 50.063,97.201 50.863,97.201 50.863,98.201 64.862,98.201 64.862,97.201 65.663,97.201 65.663,94.101 64.862,94.101 64.862,88.301 65.663,88.301 65.663,85.201 64.862,85.201 64.862,84.201" style="fill:none;stroke-width:0.050000mm;stroke:black"/>
<polygon points="69.913,84.201 69.913,85.201 69.113,85.201 69.113,88.301 69.913,88.301 69.913,94.101 69.113,94.101 69.113,97.201 69.913,97.201 69.913,98.201 83.913,98.201 83.913,97.201 84.713,97.201 84.713,94.101 83.913,94.101 83.913,88.301 84.713,88.301 84.713,85.201 83.913,85.201 83.913,84.201" style="fill:none;stroke-width:0.050000mm;stroke:black"/>
<polygon points="88.963,84.201 88.963,85.201 88.163,85.201 88.163,88.301 88.963,88.301 88.963,94.101 88.163,94.101 88.163,97.201 88.963,97.201 88.963,98.201 102.963,98.201 102.963,97.201 103.763,97.201 103.763,94.101 102.963,94.101 102.963,88.301 103.763,88.301 103.763,85.201 102.963,85.201 102.963,84.201" style="fill:none;stroke-width:0.050000mm;stroke:black"/>
<polygon points="108.013,84.201 108.013,85.201 107.213,85.201 107.213,88.301 108.013,88.301 108.013,94.101 107.213,94.101 107.213,97.201 108.013,97.201 108.013,98.201 122.013,98.201 122.013,97.201 122.813,97.201 122.813,94.101 122.013,94.101 122.013,88.301 122.813,88.301 122.813,85.201 122.013,85.201 122.013,84.201" style="fill:none;stroke-width:0.050000mm;stroke:black"/>
<polygon points="127.063,84.201 127.063,85.201 126.263,85.201 126.263,88.301 127.063,88.301 127.063,94.101 126.263,94.101 126.263,97.201 127.063,97.201 127.063,98.201 141.063,98.201 141.063,97.201 141.863,97.201 141.863,94.101 141.063,94.101 141.063,88.301 141.863,88.301 141.863,85.201 141.063,85.201 141.063,84.201" style="fill:none;stroke-width:0.050000mm;stroke:black"/>
<polygon points="146.113,84.201 146.113,85.201 145.313,85.201 145.313,88.301 146.113,88.301 146.113,94.101 145.313,94.101 145.313,97.201 146.113,97.201 146.113,98.201 160.113,98.201 160.113,97.201 160.913,97.201 160.913,94.101 160.113,94.101 160.113,88.301 160.913,88.301 160.913,85.201 160.113,85.201 160.113,84.201" style="fill:none;stroke-width:0.050000mm;stroke:black"/>
<polygon points="165.163,84.201 165.163,85.201 164.363,85.201 164.363,88.301 165.163,88.301 165.163,94.101 164.363,94.101 164.363,97.201 165.163,97.201 165.163,98.201 179.163,98.201 179.163,97.201 179.963,97.201 179.963,94.101 179.163,94.101 179.163,88.301 179.963,88.301 179.963,85.201 179.163,85.201 179.163,84.201" style="fill:none;stroke-width:0.050000mm;stroke:black"/>
<polygon points="184.213,84.201 184.213,85.201 183.413,85.201 183.413,88.301 184.213,88.301 184.213,94.101 183.413,94.101 183.413,97.201 184.213,97.201 184.213,98.201 198.213,98.201 198.213,97.201 199.013,97.201 199.013,94.101 198.213,94.101 198.213,88.301 199.013,88.301 199.013,85.201 198.213,85.201 198.213,84.201" style="fill:none;stroke-width:0.050000mm;stroke:black"/>
<polygon points="203.263,84.201 203.263,85.201 202.463,85.201 202.463,88.301 203.263,88.301 203.263,94.101 202.463,94.101 202.463,97.201 203.263,97.201 203.263,98.201 217.263,98.201 217.263,97.201 218.063,97.201 218.063,94.101 217.263,94.101 217.263,88.301 218.063,88.301 218.063,85.201 217.263,85.201 217.263,84.201" style="fill:none;stroke-width:0.050000mm;stroke:black"/>
<polygon points="222.313,84.201 222.313,85.201 221.513,85.201 221.513,88.301 222.313,88.301 222.313,94.101 221.513,94.101 221.513,97.201 222.313,97.201 222.313,98.201 236.313,98.201 236.313,97.201 237.113,97.201 237.113,94.101 236.313,94.101 236.313,88.301 237.113,88.301 237.113,85.201 236.313,85.201 236.313,84.201" style="fill:none;stroke-width:0.050000mm;stroke:black"/>
<polygon points="241.363,84.201 241.363,85.201 240.563,85.201 240.563,88.301 241.363,88.301 241.363,94.101 240.563,94.101 240.563,97.201 241.363,97.201 241.363,98.201 255.363,98.201 255.363,97.201 256.162,97.201 256.162,94.101 255.363,94.101 255.363,88.301 256.162,88.301 256.162,85.201 255.363,85.201 255.363,84.201" style="fill:none;stroke-width:0.050000mm;stroke:black"/>
<polygon points="308.038,84.201 308.038,85.201 307.238,85.201 307.238,88.301 308.038,88.301 308.038,94.101 307.238,94.101 307.238,97.201 308.038,97.201 308.038,98.201 322.038,98.201 322.038,97.201 322.838,97.201 322.838,94.101 322.038,94.101 322.038,88.301 322.838,88.301 322.838,85.201 322.038,85.201 322.038,84.201" style="fill:none;stroke-width:0.050000mm;stroke:black"/>
<polygon points="327.088,84.201 327.088,85.201 326.288,85.201 326.288,88.301 327.088,88.301 327.088,94.101 326.288,94.101 326.288,97.201 327.088,97.201 327.088,98.201 341.088,98.201 341.088,97.201 341.888,97.201 341.888,94.101 341.088,94.101 341.088,88.301 341.888,88.301 341.888,85.201 341.088,85.201 341.088,84.201" style="fill:none;stroke-width:0.050000mm;stroke:black"/>
<polygon points="346.138,84.201 346.138,85.201 345.338,85.201 345.338,88.301 346.138,88.301 346.138,94.101 345.338,94.101 345.338,97.201 346.138,97.201 346.138,98.201 360.138,98.201 360.138,97.201 360.938,97.201 360.938,94.101 360.138,94.101 360.138,88.301 360.938,88.301 360.938,85.201 360.138,85.201 360.138,84.201" style="fill:none;stroke-width:0.050000mm;stroke:black"/>
<polygon points="371.688,65.576 371.688,66.401 365.418,66.401 365.418,68.126 364.218,68.126 364.218,71.426 365.418,71.426 365.418,73.151 369.888,73.151 369.888,74.676 369.288,74.676 369.288,73.876 366.188,73.876 366.188,74.676 365.188,74.676 365.188,88.676 366.188,88.676 366.188,89.476 369.288,89.476 369.288,88.676 369.888,88.676 369.888,90.201 365.418,90.201 365.418,91.926 364.218,91.926 364.218,95.226 365.418,95.226 365.418,96.951 371.688,96.951 371.688,97.776 374.488,97.776 374.488,96.951 377.718,96.951 377.718,90.201 374.488,90.201 374.488,88.676 375.088,88.676 375.088,89.476 378.188,89.476 378.188,88.676 379.188,88.676 379.188,74.676 378.188,74.676 378.188,73.876 375.088,73.876 375.088,74.676 374.488,74.676 374.488,73.151 377.718,73.151 377.718,66.401 374.488,66.401 374.488,65.576" style="fill:none;stroke-width:0.050000mm;stroke:black"/>
<polygon points="22.288,65.151 22.288,66.151 21.488,66.151 21.488,69.251 22.288,69.251 22.288,75.051 21.488,75.051 21.488,78.151 22.288,78.151 22.288,79.151 36.288,79.151 36.288,78.151 37.088,78.151 37.088,75.051 36.288,75.051 36.288,69.251 37.088,69.251 37.088,66.151 36.288,66.151 36.288,65.151" style="fill:none;stroke-width:0.050000mm;stroke:black"/>
<polygon points="46.101,65.151 46.101,66.151 45.301,66.151 45.301,69.251 46.101,69.251 46.101,75.051 45.301,75.051 45.301,78.151 46.101,78.151 46.101,79.151 60.101,79.151 60.101,78.151 60.901,78.151 60.901,75.051 60.101,75.051 60.101,69.251 60.901,69.251 60.901,66.151 60.101,66.151 60.101,65.151" style="fill:none;stroke-width:0.050000mm;stroke:black"/>
<polygon points="65.151,65.151 65.151,66.151 64.350,66.151 64.350,69.251 65.151,69.251 65.151,75.051 64.350,75.051 64.350,78.151 65.151,78.151 65.151,79.151 79.151,79.151 79.151,78.151 79.951,78.151 79.951,75.051 79.151,75.051 79.151,69.251 79.951,69.251 79.951,66.151 79.151,66.151 79.151,65.151" style="fill:none;stroke-width:0.050000mm;stroke:black"/>
<polygon points="84.201,65.151 84.201,66.151 83.401,66.151 83.401,69.251 84.201,69.251 84.201,75.051 83.401,75.051 83.401,78.151 84.201,78.151 84.201,79.151 98.201,79.151 98.201,78.151 99.001,78.151 99.001,75.051 98.201,75.051 98.201,69.251 99.001,69.251 99.001,66.151 98.201,66.151 98.201,65.151" style="fill:none;stroke-width:0.050000mm;stroke:black"/>
<polygon points="103.251,65.151 103.251,66.151 102.451,66.151 102.451,69.251 103.251,69.251 103.251,75.051 102.451,75.051 102.451,78.151 103.251,78.151 103.251,79.151 117.251,79.151 117.251,78.151 118.051,78.151 118.051,75.051 117.251,75.051 117.251,69.251 118.051,69.251 118.051,66.151 117.251,66.151 117.251,65.151" style="fill:none;stroke-width:0.050000mm;stroke:black"/>
<polygon points="122.301,65.151 122.301,66.151 121.501,66.151 121.501,69.251 122.301,69.251 122.301,75.051 121.501,75.051 121.501,78.151 122.301,78.151 122.301,79.151 136.301,79.151 136.301,78.151 137.101,78.151 137.101,75.051 136.301,75.051 136.301,69.251 137.101,69.251 137.101,66.151 136.301,66.151 136.301,65.151" style="fill:none;stroke-width:0.050000mm;stroke:black"/>
<polygon points="141.351,65.151 141.351,66.151 140.551,66.151 140.551,69.251 141.351,69.251 141.351,75.051 140.551,75.051 140.551,78.151 141.351,78.151 141.351,79.151 155.351,79.151 155.351,78.151 156.151,78.151 156.151,75.051 155.351,75.051 155.351,69.251 156.151,69.251 156.151,66.151 155.351,66.151 155.351,65.151" style="fill:none;stroke-width:0.050000mm;stroke:black"/>
<polygon points="160.401,65.151 160.401,66.151 159.601,66.151 159.601,69.251 160.401,69.251 160.401,75.051 159.601,75.051 159.601,78.151 160.401,78.151 160.401,79.151 174.401,79.151 174.401,78.151 175.201,78.151 175.201,75.051 174.401,75.051 174.401,69.251 175.201,69.251 175.201,66.151 174.401,66.151 174.401,65.151" style="fill:none;stroke-width:0.050000mm;stroke:black"/>
<polygon points="179.451,65.151 179.451,66.151 178.651,66.151 178.651,69.251 179.451,69.251 179.451,75.051 178.651,75.051 178.651,78.151 179.451,78.151 179.451,79.151 193.451,79.151 193.451,78.151 194.251,78.151 194.251,75.051 193.451,75.051 193.451,69.251 194.251,69.251 194.251,66.151 193.451,66.151 193.451,65.151" style="fill:none;stroke-width:0.050000mm;stroke:black"/>
<polygon points="198.501,65.151 198.501,66.151 197.701,66.151 197.701,69.251 198.501,69.251 198.501,75.051 197.701,75.051 197.701,78.151 198.501,78.151 198.501,79.151 212.501,79.151 212.501,78.151 213.301,78.151 213.301,75.051 212.501,75.051 212.501,69.251 213.301,69.251 213.301,66.151 212.501,66.151 212.501,65.151" style="fill:none;stroke-width:0.050000mm;stroke:black"/>
<polygon points="217.551,65.151 217.551,66.151 216.751,66.151 216.751,69.251 217.551,69.251 217.551,75.051 216.751,75.051 216.751,78.151 217.551,78.151 217.551,79.151 231.551,79.151 231.551,78.151 232.351,78.151 232.351,75.051 231.551,75.051 231.551,69.251 232.351,69.251 232.351,66.151 231.551,66.151 231.551,65.151" style="fill:none;stroke-width:0.050000mm;stroke:black"/>
<polygon points="236.601,65.151 236.601,66.151 235.801,66.151 235.801,69.251 236.601,69.251 236.601,75.051 235.801,75.051 235.801,78.151 236.601,78.151 236.601,79.151 250.601,79.151 250.601,78.151 251.401,78.151 251.401,75.051 250.601,75.051 250.601,69.251 251.401,69.251 251.401,66.151 250.601,66.151 250.601,65.151" style="fill:none;stroke-width:0.050000mm;stroke:black"/>
<polygon points="255.651,65.151 255.651,66.151 254.851,66.151 254.851,69.251 255.651,69.251 255.651,75.051 254.851,75.051 254.851,78.151 255.651,78.151 255.651,79.151 269.651,79.151 269.651,78.151 270.451,78.151 270.451,75.051 269.651,75.051 269.651,69.251 270.451,69.251 270.451,66.151 269.651,66.151 269.651,65.151" style="fill:none;stroke-width:0.050000mm;stroke:black"/>
<polygon points="279.463,65.151 279.463,66.151 278.663,66.151 278.663,69.251 279.463,69.251 279.463,75.051 278.663,75.051 278.663,78.151 279.463,78.151 279.463,79.151 293.463,79.151 293.463,78.151 294.263,78.151 294.263,75.051 293.463,75.051 293.463,69.251 294.263,69.251 294.263,66.151 293.463,66.151 293.463,65.151" style="fill:none;stroke-width:0.050000mm;stroke:black"/>
<polygon points="308.038,65.151 308.038,66.151 307.238,66.151 307.238,69.251 308.038,69.251 308.038,75.051 307.238,75.051 307.238,78.151 308.038,78.151 308.038,79.151 322.038,79.151 322.038,78.151 322.838,78.151 322.838,75.051 322.038,75.051 322.038,69.251 322.838,69.251 322.838,66.151 322.038,66.151 322.038,65.151" style="fill:none;stroke-width:0.050000mm;stroke:black"/>
<polygon points="327.088,65.151 327.088,66.151 326.288,66.151 326.288,69.251 327.088,69.251 327.088,75.051 326.288,75.051 326.288,78.151 327.088,78.151 327.088,79.151 341.088,79.151 341.088,78.151 341.888,78.151 341.888,75.051 341.088,75.051 341.088,69.251 341.888,69.251 341.888,66.151 341.088,66.151 341.088,65.151" style="fill:none;stroke-width:0.050000mm;stroke:black"/>
<polygon points="346.138,65.151 346.138,66.151 345.338,66.151 345.338,69.251 346.138,69.251 346.138,75.051 345.338,75.051 345.338,78.151 346.138,78.151 346.138,79.151 360.138,79.151 360.138,78.151 360.938,78.151 360.938,75.051 360.138,75.051 360.138,69.251 360.938,69.251 360.938,66.151 360.138,66.151 360.138,65.151" style="fill:none;stroke-width:0.050000mm;stroke:black"/>
<polygon points="274.701,46.101 274.701,47.101 273.901,47.101 273.901,50.201 274.701,50.201 274.701,50.801 273.176,50.801 273.176,47.571 266.426,47.571 266.426,50.801 265.601,50.801 265.601,53.601 266.426,53.601 266.426,59.871 268.151,59.871 268.151,61.071 271.451,61.071 271.451,59.871 273.176,59.871 273.176,55.401 274.701,55.401 274.701,56.001 273.901,56.001 273.901,59.101 274.701,59.101 274.701,60.101 288.701,60.101 288.701,59.101 289.501,59.101 289.501,56.001 288.701,56.001 288.701,55.401 290.226,55.401 290.226,59.871 291.951,59.871 291.951,61.071 295.251,61.071 295.251,59.871 296.976,59.871 296.976,53.601 297.801,53.601 297.801,50.801 296.976,50.801 296.976,47.571 290.226,47.571 290.226,50.801 288.701,50.801 288.701,50.201 289.501,50.201 289.501,47.101 288.701,47.101 288.701,46.101" style="fill:none;stroke-width:0.050000mm;stroke:black"/>
<polygon points="17.526,46.101 17.526,47.101 16.725,47.101 16.725,50.201 17.526,50.201 17.526,56.001 16.725,56.001 16.725,59.101 17.526,59.101 17.526,60.101 31.526,60.101 31.526,59.101 32.324,59.101 32.324,56.001 31.526,56.001 31.526,50.201 32.324,50.201 32.324,47.101 31.526,47.101 31.526,46.101" style="fill:none;stroke-width:0.050000mm;stroke:black"/>
<polygon points="36.576,46.101 36.576,47.101 35.776,47.101 35.776,50.201 36.576,50.201 36.576,56.001 35.776,56.001 35.776,59.101 36.576,59.101 36.576,60.101 50.576,60.101 50.576,59.101 51.376,59.101 51.376,56.001 50.576,56.001 50.576,50.201 51.376,50.201 51.376,47.101 50.576,47.101 50.576,46.101" style="fill:none;stroke-width:0.050000mm;stroke:black"/>
<polygon points="55.626,46.101 55.626,47.101 54.826,47.101 54.826,50.201 55.626,50.201 55.626,56.001 54.826,56.001 54.826,59.101 55.626,59.101 55.626,60.101 69.626,60.101 69.626,59.101 70.426,59.101 70.426,56.001 69.626,56.001 69.626,50.201 70.426,50.201 70.426,47.101 69.626,47.101 69.626,46.101" style="fill:none;stroke-width:0.050000mm;stroke:black"/>
<polygon points="74.676,46.101 74.676,47.101 73.876,47.101 73.876,50.201 74.676,50.201 74.676,56.001 73.876,56.001 73.876,59.101 74.676,59.101 74.676,60.101 88.676,60.101 88.676,59.101 89.476,59.101 89.476,56.001 88.676,56.001 88.676,50.201 89.476,50.201 89.476,47.101 88.676,47.101 88.676,46.101" style="fill:none;stroke-width:0.050000mm;stroke:black"/>
<polygon points="93.726,46.101 93.726,47.101 92.926,47.101 92.926,50.201 93.726,50.201 93.726,56.001 92.926,56.001 92.926,59.101 93.726,59.101 93.726,60.101 107.726,60.101 107.726,59.101 108.525,59.101 108.525,56.001 107.726,56.001 107.726,50.201 108.525,50.201 108.525,47.101 107.726,47.101 107.726,46.101" style="fill:none;stroke-width:0.050000mm;stroke:black"/>
<polygon points="112.775,46.101 112.775,47.101 111.976,47.101 111.976,50.201 112.775,50.201 112.775,56.001 111.976,56.001 111.976,59.101 112.775,59.101 112.775,60.101 126.775,60.101 126.775,59.101 127.575,59.101 127.575,56.001 126.775,56.001 126.775,50.201 127.575,50.201 127.575,47.101 126.775,47.101 126.775,46.101" style="fill:none;stroke-width:0.050000mm;stroke:black"/>
<polygon points="131.826,46.101 131.826,47.101 131.025,47.101 131.025,50.201 131.826,50.201 131.826,56.001 131.025,56.001 131.025,59.101 131.826,59.101 131.826,60.101 145.826,60.101 145.826,59.101 146.626,59.101 146.626,56.001 145.826,56.001 145.826,50.201 146.626,50.201 146.626,47.101 145.826,47.101 145.826,46.101" style="fill:none;stroke-width:0.050000mm;stroke:black"/>
<polygon points="150.876,46.101 150.876,47.101 150.076,47.101 150.076,50.201 150.876,50.201 150.876,56.001 150.076,56.001 150.076,59.101 150.876,59.101 150.876,60.101 164.876,60.101 164.876,59.101 165.676,59.101 165.676,56.001 164.876,56.001 164.876,50.201 165.676,50.201 165.676,47.101 164.876,47.101 164.876,46.101" style="fill:none;stroke-width:0.050000mm;stroke:black"/>
<polygon points="169.926,46.101 169.926,47.101 169.126,47.101 169.126,50.201 169.926,50.201 169.926,56.001 169.126,56.001 169.126,59.101 169.926,59.101 169.926,60.101 183.926,60.101 183.926,59.101 184.726,59.101 184.726,56.001 183.926,56.001 183.926,50.201 184.726,50.201 184.726,47.101 183.926,47.101 183.926,46.101" style="fill:none;stroke-width:0.050000mm;stroke:black"/>
<polygon points="188.976,46.101 188.976,47.101 188.176,47.101 188.176,50.201 188.976,50.201 188.976,56.001 188.176,56.001 188.176,59.101 188.976,59.101 188.976,60.101 202.976,60.101 202.976,59.101 203.776,59.101 203.776,56.001 202.976,56.001 202.976,50.201 203.776,50.201 203.776,47.101 202.976,47.101 202.976,46.101" style="fill:none;stroke-width:0.050000mm;stroke:black"/>
<polygon points="208.026,46.101 208.026,47.101 207.226,47.101 207.226,50.201 208.026,50.201 208.026,56.001 207.226,56.001 207.226,59.101 208.026,59.101 208.026,60.101 222.026,60.101 222.026,59.101 222.826,59.101 222.826,56.001 222.026,56.001 222.026,50.201 222.826,50.201 222.826,47.101 222.026,47.101 222.026,46.101" style="fill:none;stroke-width:0.050000mm;stroke:black"/>
<polygon points="227.076,46.101 227.076,47.101 226.276,47.101 226.276,50.201 227.076,50.201 227.076,56.001 226.276,56.001 226.276,59.101 227.076,59.101 227.076,60.101 241.076,60.101 241.076,59.101 241.876,59.101 241.876,56.001 241.076,56.001 241.076,50.201 241.876,50.201 241.876,47.101 241.076,47.101 241.076,46.101" style="fill:none;stroke-width:0.050000mm;stroke:black"/>
<polygon points="246.126,46.101 246.126,47.101 245.326,47.101 245.326,50.201 246.126,50.201 246.126,56.001 245.326,56.001 245.326,59.101 246.126,59.101 246.126,60.101 260.126,60.101 260.126,59.101 260.926,59.101 260.926,56.001 260.126,56.001 260.126,50.201 260.926,50.201 260.926,47.101 260.126,47.101 260.126,46.101" style="fill:none;stroke-width:0.050000mm;stroke:black"/>
<polygon points="308.038,46.101 308.038,47.101 307.238,47.101 307.238,50.201 308.038,50.201 308.038,56.001 307.238,56.001 307.238,59.101 308.038,59.101 308.038,60.101 322.038,60.101 322.038,59.101 322.838,59.101 322.838,56.001 322.038,56.001 322.038,50.201 322.838,50.201 322.838,47.101 322.038,47.101 322.038,46.101" style="fill:none;stroke-width:0.050000mm;stroke:black"/>
<polygon points="327.088,46.101 327.088,47.101 326.288,47.101 326.288,50.201 327.088,50.201 327.088,56.001 326.288,56.001 326.288,59.101 327.088,59.101 327.088,60.101 341.088,60.101 341.088,59.101 341.888,59.101 341.888,56.001 341.088,56.001 341.088,50.201 341.888,50.201 341.888,47.101 341.088,47.101 341.088,46.101" style="fill:none;stroke-width:0.050000mm;stroke:black"/>
<polygon points="346.138,46.101 346.138,47.101 345.338,47.101 345.338,50.201 346.138,50.201 346.138,56.001 345.338,56.001 345.338,59.101 346.138,59.101 346.138,60.101 360.138,60.101 360.138,59.101 360.938,59.101 360.938,56.001 360.138,56.001 360.138,50.201 360.938,50.201 360.938,47.101 360.138,47.101 360.138,46.101" style="fill:none;stroke-width:0.050000mm;stroke:black"/>
<polygon points="365.188,46.101 365.188,47.101 364.388,47.101 364.388,50.201 365.188,50.201 365.188,56.001 364.388,56.001 364.388,59.101 365.188,59.101 365.188,60.101 379.188,60.101 379.188,59.101 379.988,59.101 379.988,56.001 379.188,56.001 379.188,50.201 379.988,50.201 379.988,47.101 379.188,47.101 379.188,46.101" style="fill:none;stroke-width:0.050000mm;stroke:black"/>
<polygon points="17.526,17.526 17.526,18.526 16.725,18.526 16.725,21.626 17.526,21.626 17.526,27.425 16.725,27.425 16.725,30.526 17.526,30.526 17.526,31.526 31.526,31.526 31.526,30.526 32.324,30.526 32.324,27.425 31.526,27.425 31.526,21.626 32.324,21.626 32.324,18.526 31.526,18.526 31.526,17.526" style="fill:none;stroke-width:0.050000mm;stroke:black"/>
<polygon points="55.626,17.526 55.626,18.526 54.826,18.526 54.826,21.626 55.626,21.626 55.626,27.425 54.826,27.425 54.826,30.526 55.626,30.526 55.626,31.526 69.626,31.526 69.626,30.526 70.426,30.526 70.426,27.425 69.626,27.425 69.626,21.626 70.426,21.626 70.426,18.526 69.626,18.526 69.626,17.526" style="fill:none;stroke-width:0.050000mm;stroke:black"/>
<polygon points="74.676,17.526 74.676,18.526 73.876,18.526 73.876,21.626 74.676,21.626 74.676,27.425 73.876,27.425 73.876,30.526 74.676,30.526 74.676,31.526 88.676,31.526 88.676,30.526 89.476,30.526 89.476,27.425 88.676,27.425 88.676,21.626 89.476,21.626 89.476,18.526 88.676,18.526 88.676,17.526" style="fill:none;stroke-width:0.050000mm;stroke:black"/>
<polygon points="93.726,17.526 93.726,18.526 92.926,18.526 92.926,21.626 93.726,21.626 93.726,27.425 92.926,27.425 92.926,30.526 93.726,30.526 93.726,31.526 107.726,31.526 107.726,30.526 108.525,30.526 108.525,27.425 107.726,27.425 107.726,21.626 108.525,21.626 108.525,18.526 107.726,18.526 107.726,17.526" style="fill:none;stroke-width:0.050000mm;stroke:black"/>
<polygon points="112.775,17.526 112.775,18.526 111.976,18.526 111.976,21.626 112.775,21.626 112.775,27.425 111.976,27.425 111.976,30.526 112.775,30.526 112.775,31.526 126.775,31.526 126.775,30.526 127.575,30.526 127.575,27.425 126.775,27.425 126.775,21.626 127.575,21.626 127.575,18.526 126.775,18.526 126.775,17.526" style="fill:none;stroke-width:0.050000mm;stroke:black"/>
<polygon points="141.351,17.526 141.351,18.526 140.550,18.526 140.550,21.626 141.351,21.626 141.351,27.425 140.550,27.425 140.550,30.526 141.351,30.526 141.351,31.526 155.351,31.526 155.351,30.526 156.151,30.526 156.151,27.425 155.351,27.425 155.351,21.626 156.151,21.626 156.151,18.526 155.351,18.526 155.351,17.526" style="fill:none;stroke-width:0.050000mm;stroke:black"/>
<polygon points="160.401,17.526 160.401,18.526 159.601,18.526 159.601,21.626 160.401,21.626 160.401,27.425 159.601,27.425 159.601,30.526 160.401,30.526 160.401,31.526 174.401,31.526 174.401,30.526 175.201,30.526 175.201,27.425 174.401,27.425 174.401,21.626 175.201,21.626 175.201,18.526 174.401,18.526 174.401,17.526" style="fill:none;stroke-width:0.050000mm;stroke:black"/>
<polygon points="179.451,17.526 179.451,18.526 178.651,18.526 178.651,21.626 179.451,21.626 179.451,27.425 178.651,27.425 178.651,30.526 179.451,30.526 179.451,31.526 193.451,31.526 193.451,30.526 194.251,30.526 194.251,27.425 193.451,27.425 193.451,21.626 194.251,21.626 194.251,18.526 193.451,18.526 193.451,17.526" style="fill:none;stroke-width:0.050000mm;stroke:black"/>
<polygon points="198.501,17.526 198.501,18.526 197.701,18.526 197.701,21.626 198.501,21.626 198.501,27.425 197.701,27.425 197.701,30.526 198.501,30.526 198.501,31.526 212.501,31.526 212.501,30.526 213.301,30.526 213.301,27.425 212.501,27.425 212.501,21.626 213.301,21.626 213.301,18.526 212.501,18.526 212.501,17.526" style="fill:none;stroke-width:0.050000mm;stroke:black"/>
<polygon points="227.076,17.526 227.076,18.526 226.276,18.526 226.276,21.626 227.076,21.626 227.076,27.425 226.276,27.425 226.276,30.526 227.076,30.526 227.076,31.526 241.076,31.526 241.076,30.526 241.876,30.526 241.876,27.425 241.076,27.425 241.076,21.626 241.876,21.626 241.876,18.526 241.076,18.526 241.076,17.526" style="fill:none;stroke-width:0.050000mm;stroke:black"/>
<polygon points="246.126,17.526 246.126,18.526 245.326,18.526 245.326,21.626 246.126,21.626 246.126,27.425 245.326,27.425 245.326,30.526 246.126,30.526 246.126,31.526 260.126,31.526 260.126,30.526 260.926,30.526 260.926,27.425 260.126,27.425 260.126,21.626 260.926,21.626 260.926,18.526 260.126,18.526 260.126,17.526" style="fill:none;stroke-width:0.050000mm;stroke:black"/>
<polygon points="265.176,17.526 265.176,18.526 264.376,18.526 264.376,21.626 265.176,21.626 265.176,27.425 264.376,27.425 264.376,30.526 265.176,30.526 265.176,31.526 279.176,31.526 279.176,30.526 279.976,30.526 279.976,27.425 279.176,27.425 279.176,21.626 279.976,21.626 279.976,18.526 279.176,18.526 279.176,17.526" style="fill:none;stroke-width:0.050000mm;stroke:black"/>
<polygon points="284.226,17.526 284.226,18.526 283.426,18.526 283.426,21.626 284.226,21.626 284.226,27.425 283.426,27.425 283.426,30.526 284.226,30.526 284.226,31.526 298.226,31.526 298.226,30.526 299.026,30.526 299.026,27.425 298.226,27.425 298.226,21.626 299.026,21.626 299.026,18.526 298.226,18.526 298.226,17.526" style="fill:none;stroke-width:0.050000mm;stroke:black"/>
<polygon points="197.585,6.623 196.888,6.978 196.335,7.531 195.980,8.228 195.857,9.001 195.980,9.773 196.335,10.470 196.888,11.023 197.585,11.378 198.357,11.501 199.130,11.378 199.827,11.023 200.380,10.470 200.735,9.773 200.857,9.001 200.735,8.228 200.380,7.531 199.827,6.978 199.130,6.623 198.357,6.501" style="fill:none;stroke-width:0.050000mm;stroke:black"/>
<polygon points="386.941,6.623 386.245,6.978 385.691,7.531 385.336,8.228 385.214,9.001 385.336,9.773 385.691,10.470 386.245,11.023 386.941,11.378 387.714,11.501 388.487,11.378 389.183,11.023 389.737,10.470 390.092,9.773 390.214,9.001 390.092,8.228 389.737,7.531 389.183,6.978 388.487,6.623 387.714,6.501" style="fill:none;stroke-width:0.050000mm;stroke:black"/>
<polygon points="8.228,6.623 7.531,6.978 6.978,7.531 6.623,8.228 6.501,9.001 6.623,9.773 6.978,10.470 7.531,11.023 8.228,11.378 9.001,11.501 9.773,11.378 10.470,11.023 11.023,10.470 11.378,9.773 11.501,9.001 11.378,8.228 11.023,7.531 10.470,6.978 9.773,6.623 9.001,6.501" style="fill:none;stroke-width:0.050000mm;stroke:black"/>
</svg>
