<?xml version="1.0"?>
<!-- Generated by SVGo -->
<svg width="396.714mm" height="153.827mm"
     viewBox="0.000 0.000 396.714 153.827"
     xmlns="http://www.w3.org/2000/svg" 
     xmlns:xlink="http://www.w3.org/1999/xlink">
<polygon points="386.714,5.001 387.106,5.016 387.496,5.062 387.881,5.139 388.259,5.245 388.627,5.381 388.984,5.545 389.326,5.737 389.653,5.955 389.961,6.198 390.250,6.465 390.516,6.753 390.759,7.062 390.977,7.388 391.169,7.731 391.333,8.087 391.469,8.455 391.576,8.833 391.652,9.218 391.699,9.608 391.714,10.001 391.714,143.827 391.699,144.219 391.652,144.609 391.576,144.994 391.469,145.372 391.333,145.740 391.169,146.096 390.977,146.439 390.759,146.765 390.516,147.074 390.250,147.362 389.961,147.629 389.653,147.872 389.326,148.090 388.984,148.282 388.627,148.446 388.259,148.582 387.881,148.688 387.496,148.765 387.106,148.811 386.714,148.827 10.001,148.827 9.608,148.811 9.218,148.765 8.833,148.688 8.455,148.582 8.087,148.446 7.731,148.282 7.388,148.090 7.062,147.872 6.753,147.629 6.465,147.362 6.198,147.074 5.955,146.765 5.737,146.439 5.545,146.096 5.381,145.740 5.245,145.372 5.139,144.994 5.062,144.609 5.016,144.219 5.000,143.827 5.001,10.001 5.016,9.608 5.062,9.218 5.139,8.833 5.245,8.455 5.381,8.087 5.545,7.731 5.737,7.388 5.955,7.062 6.198,6.753 6.465,6.465 6.753,6.198 7.062,5.955 7.388,5.737 7.731,5.545 8.087,5.381 8.455,5.245 8.833,5.139 9.218,5.062 9.608,5.016 10.001,5.000" style="fill:none;stroke-width:0.050000mm;stroke:black"/>
<polygon points="386.941,142.449 386.245,142.804 385.691,143.357 385.336,144.054 385.214,144.827 385.336,145.599 385.691,146.296 386.245,146.849 386.941,147.204 387.714,147.327 388.487,147.204 389.183,146.849 389.737,146.296 390.092,145.599 390.214,144.827 390.092,144.054 389.737,143.357 389.183,142.804 388.487,142.449 387.714,142.327" style="fill:none;stroke-width:0.050000mm;stroke:black"/>
<polygon points="197.585,142.449 196.888,142.804 196.335,143.357 195.980,144.054 195.857,144.827 195.980,145.599 196.335,146.296 196.888,146.849 197.585,147.204 198.357,147.327 199.130,147.204 199.827,146.849 200.380,146.296 200.735,145.599 200.857,144.827 200.735,144.054 200.380,143.357 199.827,142.804 199.130,142.449 198.357,142.327" style="fill:none;stroke-width:0.050000mm;stroke:black"/>
<polygon points="8.228,142.449 7.531,142.804 6.978,143.357 6.623,144.054 6.501,144.827 6.623,145.599 6.978,146.296 7.531,146.849 8.228,147.204 9.001,147.327 9.773,147.204 10.470,146.849 11.023,146.296 11.378,145.599 11.501,144.827 11.378,144.054 11.023,143.357 10.470,142.804 9.773,142.449 9.001,142.327" style="fill:none;stroke-width:0.050000mm;stroke:black"/>
<polygon points="197.585,6.623 196.888,6.978 196.335,7.531 195.980,8.228 195.857,9.001 195.980,9.773 196.335,10.470 196.888,11.023 197.585,11.378 198.357,11.501 199.130,11.378 199.827,11.023 200.380,10.470 200.735,9.773 200.857,9.001 200.735,8.228 200.380,7.531 199.827,6.978 199.130,6.623 198.357,6.501" style="fill:none;stroke-width:0.050000mm;stroke:black"/>
<polygon points="386.941,6.623 386.245,6.978 385.691,7.531 385.336,8.228 385.214,9.001 385.336,9.773 385.691,10.470 386.245,11.023 386.941,11.378 387.714,11.501 388.487,11.378 389.183,11.023 389.737,10.470 390.092,9.773 390.214,9.001 390.092,8.228 389.737,7.531 389.183,6.978 388.487,6.623 387.714,6.501" style="fill:none;stroke-width:0.050000mm;stroke:black"/>
<polygon points="8.228,6.623 7.531,6.978 6.978,7.531 6.623,8.228 6.501,9.001 6.623,9.773 6.978,10.470 7.531,11.023 8.228,11.378 9.001,11.501 9.773,11.378 10.470,11.023 11.023,10.470 11.378,9.773 11.501,9.001 11.378,8.228 11.023,7.531 10.470,6.978 9.773,6.623 9.001,6.501" style="fill:none;stroke-width:0.050000mm;stroke:black"/>
</svg>
