  0
SECTION
  2
HEADER
  9
$ACADVER
  1
AC1009
  9
$FILLMODE
 70
 0
  9
$SPLFRAME
 70
 1
  9
$EXTMIN
 10
0
 20
0
 30
0.0
  9
$EXTMAX
 10
1058.33
 20
1058.33
 30
0.0
  0
ENDSEC
  0
SECTION
  2
TABLES
  0
TABLE
  2
LAYER
 70
1
  0
LAYER
  2
0
 70
     0
 62
     7
  6
CONTINUOUS
  0
ENDTAB
  0
ENDSEC
  0
SECTION
  2
ENTITIES
  0
LINE
  8
0
 62
     0
 10
365.453
 20
144.191
 30
0.0
 11
365.453
 21
136.19
 31
0.0
  0
LINE
  8
0
 62
     0
 10
365.453
 20
136.19
 30
0.0
 11
8.09597
 21
136.19
 31
0.0
  0
LINE
  8
0
 62
     0
 10
8.09597
 20
136.19
 30
0.0
 11
8.09597
 21
8.36468
 31
0.0
  0
LINE
  8
0
 62
     0
 10
8.09597
 20
8.36468
 30
0.0
 11
378.809
 21
8.36468
 31
0.0
  0
LINE
  8
0
 62
     0
 10
378.809
 20
8.36468
 30
0.0
 11
378.809
 21
136.19
 31
0.0
  0
LINE
  8
0
 62
     0
 10
378.809
 20
136.19
 30
0.0
 11
375.451
 21
136.19
 31
0.0
  0
LINE
  8
0
 62
     0
 10
375.451
 20
136.19
 30
0.0
 11
375.451
 21
144.191
 31
0.0
  0
LINE
  8
0
 62
     0
 10
375.451
 20
144.191
 30
0.0
 11
381.808
 21
144.191
 31
0.0
  0
LINE
  8
0
 62
     0
 10
381.808
 20
144.191
 30
0.0
 11
382.199
 21
144.176
 31
0.0
  0
LINE
  8
0
 62
     0
 10
382.199
 20
144.176
 30
0.0
 11
382.591
 21
144.129
 31
0.0
  0
LINE
  8
0
 62
     0
 10
382.591
 20
144.129
 30
0.0
 11
382.976
 21
144.053
 31
0.0
  0
LINE
  8
0
 62
     0
 10
382.976
 20
144.053
 30
0.0
 11
383.353
 21
143.947
 31
0.0
  0
LINE
  8
0
 62
     0
 10
383.353
 20
143.947
 30
0.0
 11
383.72
 21
143.811
 31
0.0
  0
LINE
  8
0
 62
     0
 10
383.72
 20
143.811
 30
0.0
 11
384.08
 21
143.647
 31
0.0
  0
LINE
  8
0
 62
     0
 10
384.08
 20
143.647
 30
0.0
 11
384.422
 21
143.455
 31
0.0
  0
LINE
  8
0
 62
     0
 10
384.422
 20
143.455
 30
0.0
 11
384.746
 21
143.236
 31
0.0
  0
LINE
  8
0
 62
     0
 10
384.746
 20
143.236
 30
0.0
 11
385.057
 21
142.994
 31
0.0
  0
LINE
  8
0
 62
     0
 10
385.057
 20
142.994
 30
0.0
 11
385.346
 21
142.726
 31
0.0
  0
LINE
  8
0
 62
     0
 10
385.346
 20
142.726
 30
0.0
 11
385.611
 21
142.438
 31
0.0
  0
LINE
  8
0
 62
     0
 10
385.611
 20
142.438
 30
0.0
 11
385.854
 21
142.13
 31
0.0
  0
LINE
  8
0
 62
     0
 10
385.854
 20
142.13
 30
0.0
 11
386.073
 21
141.804
 31
0.0
  0
LINE
  8
0
 62
     0
 10
386.073
 20
141.804
 30
0.0
 11
386.263
 21
141.461
 31
0.0
  0
LINE
  8
0
 62
     0
 10
386.263
 20
141.461
 30
0.0
 11
386.429
 21
141.104
 31
0.0
  0
LINE
  8
0
 62
     0
 10
386.429
 20
141.104
 30
0.0
 11
386.563
 21
140.736
 31
0.0
  0
LINE
  8
0
 62
     0
 10
386.563
 20
140.736
 30
0.0
 11
386.669
 21
140.359
 31
0.0
  0
LINE
  8
0
 62
     0
 10
386.669
 20
140.359
 30
0.0
 11
386.747
 21
139.974
 31
0.0
  0
LINE
  8
0
 62
     0
 10
386.747
 20
139.974
 30
0.0
 11
386.793
 21
139.584
 31
0.0
  0
LINE
  8
0
 62
     0
 10
386.793
 20
139.584
 30
0.0
 11
386.807
 21
139.19
 31
0.0
  0
LINE
  8
0
 62
     0
 10
386.807
 20
139.19
 30
0.0
 11
386.807
 21
5.36469
 31
0.0
  0
LINE
  8
0
 62
     0
 10
386.807
 20
5.36469
 30
0.0
 11
386.793
 21
4.97198
 31
0.0
  0
LINE
  8
0
 62
     0
 10
386.793
 20
4.97198
 30
0.0
 11
386.747
 21
4.58198
 31
0.0
  0
LINE
  8
0
 62
     0
 10
386.747
 20
4.58198
 30
0.0
 11
386.669
 21
4.19749
 31
0.0
  0
LINE
  8
0
 62
     0
 10
386.669
 20
4.19749
 30
0.0
 11
386.563
 21
3.81991
 31
0.0
  0
LINE
  8
0
 62
     0
 10
386.563
 20
3.81991
 30
0.0
 11
386.429
 21
3.45199
 31
0.0
  0
LINE
  8
0
 62
     0
 10
386.429
 20
3.45199
 30
0.0
 11
386.263
 21
3.09507
 31
0.0
  0
LINE
  8
0
 62
     0
 10
386.263
 20
3.09507
 30
0.0
 11
386.073
 21
2.75194
 31
0.0
  0
LINE
  8
0
 62
     0
 10
386.073
 20
2.75194
 30
0.0
 11
385.854
 21
2.42673
 31
0.0
  0
LINE
  8
0
 62
     0
 10
385.854
 20
2.42673
 30
0.0
 11
385.611
 21
2.11805
 31
0.0
  0
LINE
  8
0
 62
     0
 10
385.611
 20
2.11805
 30
0.0
 11
385.346
 21
1.83003
 31
0.0
  0
LINE
  8
0
 62
     0
 10
385.346
 20
1.83003
 30
0.0
 11
385.057
 21
1.5627
 31
0.0
  0
LINE
  8
0
 62
     0
 10
385.057
 20
1.5627
 30
0.0
 11
384.746
 21
1.32016
 31
0.0
  0
LINE
  8
0
 62
     0
 10
384.746
 20
1.32016
 30
0.0
 11
384.422
 21
1.10105
 31
0.0
  0
LINE
  8
0
 62
     0
 10
384.422
 20
1.10105
 30
0.0
 11
384.08
 21
0.909507
 31
0.0
  0
LINE
  8
0
 62
     0
 10
384.08
 20
0.909507
 30
0.0
 11
383.72
 21
0.745518
 31
0.0
  0
LINE
  8
0
 62
     0
 10
383.72
 20
0.745518
 30
0.0
 11
383.353
 21
0.609092
 31
0.0
  0
LINE
  8
0
 62
     0
 10
383.353
 20
0.609092
 30
0.0
 11
382.976
 21
0.502984
 31
0.0
  0
LINE
  8
0
 62
     0
 10
382.976
 20
0.502984
 30
0.0
 11
382.591
 21
0.427193
 31
0.0
  0
LINE
  8
0
 62
     0
 10
382.591
 20
0.427193
 30
0.0
 11
382.199
 21
0.38034
 31
0.0
  0
LINE
  8
0
 62
     0
 10
382.199
 20
0.38034
 30
0.0
 11
381.808
 21
0.365181
 31
0.0
  0
LINE
  8
0
 62
     0
 10
381.808
 20
0.365181
 30
0.0
 11
5.09598
 21
0.365181
 31
0.0
  0
LINE
  8
0
 62
     0
 10
5.09598
 20
0.365181
 30
0.0
 11
4.70186
 21
0.38034
 31
0.0
  0
LINE
  8
0
 62
     0
 10
4.70186
 20
0.38034
 30
0.0
 11
4.3119
 21
0.427193
 31
0.0
  0
LINE
  8
0
 62
     0
 10
4.3119
 20
0.427193
 30
0.0
 11
3.9274
 21
0.502984
 31
0.0
  0
LINE
  8
0
 62
     0
 10
3.9274
 20
0.502984
 30
0.0
 11
3.54983
 21
0.609092
 31
0.0
  0
LINE
  8
0
 62
     0
 10
3.54983
 20
0.609092
 30
0.0
 11
3.18189
 21
0.745518
 31
0.0
  0
LINE
  8
0
 62
     0
 10
3.18189
 20
0.745518
 30
0.0
 11
2.82498
 21
0.909507
 31
0.0
  0
LINE
  8
0
 62
     0
 10
2.82498
 20
0.909507
 30
0.0
 11
2.48185
 21
1.10105
 31
0.0
  0
LINE
  8
0
 62
     0
 10
2.48185
 20
1.10105
 30
0.0
 11
2.15663
 21
1.32016
 31
0.0
  0
LINE
  8
0
 62
     0
 10
2.15663
 20
1.32016
 30
0.0
 11
1.84795
 21
1.5627
 31
0.0
  0
LINE
  8
0
 62
     0
 10
1.84795
 20
1.5627
 30
0.0
 11
1.55994
 21
1.83003
 31
0.0
  0
LINE
  8
0
 62
     0
 10
1.55994
 20
1.83003
 30
0.0
 11
1.2926
 21
2.11805
 31
0.0
  0
LINE
  8
0
 62
     0
 10
1.2926
 20
2.11805
 30
0.0
 11
1.05006
 21
2.42673
 31
0.0
  0
LINE
  8
0
 62
     0
 10
1.05006
 20
2.42673
 30
0.0
 11
0.830957
 21
2.75194
 31
0.0
  0
LINE
  8
0
 62
     0
 10
0.830957
 20
2.75194
 30
0.0
 11
0.63941
 21
3.09507
 31
0.0
  0
LINE
  8
0
 62
     0
 10
0.63941
 20
3.09507
 30
0.0
 11
0.475424
 21
3.45199
 31
0.0
  0
LINE
  8
0
 62
     0
 10
0.475424
 20
3.45199
 30
0.0
 11
0.338998
 21
3.81991
 31
0.0
  0
LINE
  8
0
 62
     0
 10
0.338998
 20
3.81991
 30
0.0
 11
0.232888
 21
4.19749
 31
0.0
  0
LINE
  8
0
 62
     0
 10
0.232888
 20
4.19749
 30
0.0
 11
0.157097
 21
4.58198
 31
0.0
  0
LINE
  8
0
 62
     0
 10
0.157097
 20
4.58198
 30
0.0
 11
0.110243
 21
4.97198
 31
0.0
  0
LINE
  8
0
 62
     0
 10
0.110243
 20
4.97198
 30
0.0
 11
0.0950846
 21
5.36469
 31
0.0
  0
LINE
  8
0
 62
     0
 10
0.0950846
 20
5.36469
 30
0.0
 11
0.0950846
 21
139.19
 31
0.0
  0
LINE
  8
0
 62
     0
 10
0.0950846
 20
139.19
 30
0.0
 11
0.110243
 21
139.584
 31
0.0
  0
LINE
  8
0
 62
     0
 10
0.110243
 20
139.584
 30
0.0
 11
0.157097
 21
139.974
 31
0.0
  0
LINE
  8
0
 62
     0
 10
0.157097
 20
139.974
 30
0.0
 11
0.232888
 21
140.359
 31
0.0
  0
LINE
  8
0
 62
     0
 10
0.232888
 20
140.359
 30
0.0
 11
0.338998
 21
140.736
 31
0.0
  0
LINE
  8
0
 62
     0
 10
0.338998
 20
140.736
 30
0.0
 11
0.475424
 21
141.104
 31
0.0
  0
LINE
  8
0
 62
     0
 10
0.475424
 20
141.104
 30
0.0
 11
0.63941
 21
141.461
 31
0.0
  0
LINE
  8
0
 62
     0
 10
0.63941
 20
141.461
 30
0.0
 11
0.830957
 21
141.804
 31
0.0
  0
LINE
  8
0
 62
     0
 10
0.830957
 20
141.804
 30
0.0
 11
1.05006
 21
142.13
 31
0.0
  0
LINE
  8
0
 62
     0
 10
1.05006
 20
142.13
 30
0.0
 11
1.2926
 21
142.438
 31
0.0
  0
LINE
  8
0
 62
     0
 10
1.2926
 20
142.438
 30
0.0
 11
1.55994
 21
142.726
 31
0.0
  0
LINE
  8
0
 62
     0
 10
1.55994
 20
142.726
 30
0.0
 11
1.84795
 21
142.994
 31
0.0
  0
LINE
  8
0
 62
     0
 10
1.84795
 20
142.994
 30
0.0
 11
2.15663
 21
143.236
 31
0.0
  0
LINE
  8
0
 62
     0
 10
2.15663
 20
143.236
 30
0.0
 11
2.48185
 21
143.455
 31
0.0
  0
LINE
  8
0
 62
     0
 10
2.48185
 20
143.455
 30
0.0
 11
2.82498
 21
143.647
 31
0.0
  0
LINE
  8
0
 62
     0
 10
2.82498
 20
143.647
 30
0.0
 11
3.18189
 21
143.811
 31
0.0
  0
LINE
  8
0
 62
     0
 10
3.18189
 20
143.811
 30
0.0
 11
3.54983
 21
143.947
 31
0.0
  0
LINE
  8
0
 62
     0
 10
3.54983
 20
143.947
 30
0.0
 11
3.9274
 21
144.053
 31
0.0
  0
LINE
  8
0
 62
     0
 10
3.9274
 20
144.053
 30
0.0
 11
4.3119
 21
144.129
 31
0.0
  0
LINE
  8
0
 62
     0
 10
4.3119
 20
144.129
 30
0.0
 11
4.70186
 21
144.176
 31
0.0
  0
LINE
  8
0
 62
     0
 10
4.70186
 20
144.176
 30
0.0
 11
5.09598
 21
144.191
 31
0.0
  0
LINE
  8
0
 62
     0
 10
5.09598
 20
144.191
 30
0.0
 11
365.453
 21
144.191
 31
0.0
  0
LINE
  8
0
 62
     0
 10
382.034
 20
6.74275
 30
0.0
 11
381.339
 21
6.38722
 31
0.0
  0
LINE
  8
0
 62
     0
 10
381.339
 20
6.38722
 30
0.0
 11
380.785
 21
5.83463
 31
0.0
  0
LINE
  8
0
 62
     0
 10
380.785
 20
5.83463
 30
0.0
 11
380.432
 21
5.13733
 31
0.0
  0
LINE
  8
0
 62
     0
 10
380.432
 20
5.13733
 30
0.0
 11
380.309
 21
4.36425
 31
0.0
  0
LINE
  8
0
 62
     0
 10
380.309
 20
4.36425
 30
0.0
 11
380.432
 21
3.59255
 31
0.0
  0
LINE
  8
0
 62
     0
 10
380.432
 20
3.59255
 30
0.0
 11
380.785
 21
2.89526
 31
0.0
  0
LINE
  8
0
 62
     0
 10
380.785
 20
2.89526
 30
0.0
 11
381.339
 21
2.34267
 31
0.0
  0
LINE
  8
0
 62
     0
 10
381.339
 20
2.34267
 30
0.0
 11
382.034
 21
1.98713
 31
0.0
  0
LINE
  8
0
 62
     0
 10
382.034
 20
1.98713
 30
0.0
 11
382.81
 21
1.86449
 31
0.0
  0
LINE
  8
0
 62
     0
 10
382.81
 20
1.86449
 30
0.0
 11
383.582
 21
1.98713
 31
0.0
  0
LINE
  8
0
 62
     0
 10
383.582
 20
1.98713
 30
0.0
 11
384.277
 21
2.34267
 31
0.0
  0
LINE
  8
0
 62
     0
 10
384.277
 20
2.34267
 30
0.0
 11
384.831
 21
2.89526
 31
0.0
  0
LINE
  8
0
 62
     0
 10
384.831
 20
2.89526
 30
0.0
 11
385.187
 21
3.59255
 31
0.0
  0
LINE
  8
0
 62
     0
 10
385.187
 20
3.59255
 30
0.0
 11
385.307
 21
4.36425
 31
0.0
  0
LINE
  8
0
 62
     0
 10
385.307
 20
4.36425
 30
0.0
 11
385.187
 21
5.13733
 31
0.0
  0
LINE
  8
0
 62
     0
 10
385.187
 20
5.13733
 30
0.0
 11
384.831
 21
5.83463
 31
0.0
  0
LINE
  8
0
 62
     0
 10
384.831
 20
5.83463
 30
0.0
 11
384.277
 21
6.38722
 31
0.0
  0
LINE
  8
0
 62
     0
 10
384.277
 20
6.38722
 30
0.0
 11
383.582
 21
6.74275
 31
0.0
  0
LINE
  8
0
 62
     0
 10
383.582
 20
6.74275
 30
0.0
 11
382.81
 21
6.864
 31
0.0
  0
LINE
  8
0
 62
     0
 10
382.81
 20
6.864
 30
0.0
 11
382.034
 21
6.74275
 31
0.0
  0
LINE
  8
0
 62
     0
 10
192.68
 20
6.74275
 30
0.0
 11
191.983
 21
6.38722
 31
0.0
  0
LINE
  8
0
 62
     0
 10
191.983
 20
6.38722
 30
0.0
 11
191.429
 21
5.83463
 31
0.0
  0
LINE
  8
0
 62
     0
 10
191.429
 20
5.83463
 30
0.0
 11
191.075
 21
5.13733
 31
0.0
  0
LINE
  8
0
 62
     0
 10
191.075
 20
5.13733
 30
0.0
 11
190.952
 21
4.36425
 31
0.0
  0
LINE
  8
0
 62
     0
 10
190.952
 20
4.36425
 30
0.0
 11
191.075
 21
3.59255
 31
0.0
  0
LINE
  8
0
 62
     0
 10
191.075
 20
3.59255
 30
0.0
 11
191.429
 21
2.89526
 31
0.0
  0
LINE
  8
0
 62
     0
 10
191.429
 20
2.89526
 30
0.0
 11
191.983
 21
2.34267
 31
0.0
  0
LINE
  8
0
 62
     0
 10
191.983
 20
2.34267
 30
0.0
 11
192.68
 21
1.98713
 31
0.0
  0
LINE
  8
0
 62
     0
 10
192.68
 20
1.98713
 30
0.0
 11
193.452
 21
1.86449
 31
0.0
  0
LINE
  8
0
 62
     0
 10
193.452
 20
1.86449
 30
0.0
 11
194.225
 21
1.98713
 31
0.0
  0
LINE
  8
0
 62
     0
 10
194.225
 20
1.98713
 30
0.0
 11
194.922
 21
2.34267
 31
0.0
  0
LINE
  8
0
 62
     0
 10
194.922
 20
2.34267
 30
0.0
 11
195.475
 21
2.89526
 31
0.0
  0
LINE
  8
0
 62
     0
 10
195.475
 20
2.89526
 30
0.0
 11
195.829
 21
3.59255
 31
0.0
  0
LINE
  8
0
 62
     0
 10
195.829
 20
3.59255
 30
0.0
 11
195.951
 21
4.36425
 31
0.0
  0
LINE
  8
0
 62
     0
 10
195.951
 20
4.36425
 30
0.0
 11
195.829
 21
5.13733
 31
0.0
  0
LINE
  8
0
 62
     0
 10
195.829
 20
5.13733
 30
0.0
 11
195.475
 21
5.83463
 31
0.0
  0
LINE
  8
0
 62
     0
 10
195.475
 20
5.83463
 30
0.0
 11
194.922
 21
6.38722
 31
0.0
  0
LINE
  8
0
 62
     0
 10
194.922
 20
6.38722
 30
0.0
 11
194.225
 21
6.74275
 31
0.0
  0
LINE
  8
0
 62
     0
 10
194.225
 20
6.74275
 30
0.0
 11
193.452
 21
6.864
 31
0.0
  0
LINE
  8
0
 62
     0
 10
193.452
 20
6.864
 30
0.0
 11
192.68
 21
6.74275
 31
0.0
  0
LINE
  8
0
 62
     0
 10
3.32245
 20
6.74275
 30
0.0
 11
2.62516
 21
6.38722
 31
0.0
  0
LINE
  8
0
 62
     0
 10
2.62516
 20
6.38722
 30
0.0
 11
2.07257
 21
5.83463
 31
0.0
  0
LINE
  8
0
 62
     0
 10
2.07257
 20
5.83463
 30
0.0
 11
1.71704
 21
5.13733
 31
0.0
  0
LINE
  8
0
 62
     0
 10
1.71704
 20
5.13733
 30
0.0
 11
1.59577
 21
4.36425
 31
0.0
  0
LINE
  8
0
 62
     0
 10
1.59577
 20
4.36425
 30
0.0
 11
1.71704
 21
3.59255
 31
0.0
  0
LINE
  8
0
 62
     0
 10
1.71704
 20
3.59255
 30
0.0
 11
2.07257
 21
2.89526
 31
0.0
  0
LINE
  8
0
 62
     0
 10
2.07257
 20
2.89526
 30
0.0
 11
2.62516
 21
2.34267
 31
0.0
  0
LINE
  8
0
 62
     0
 10
2.62516
 20
2.34267
 30
0.0
 11
3.32245
 21
1.98713
 31
0.0
  0
LINE
  8
0
 62
     0
 10
3.32245
 20
1.98713
 30
0.0
 11
4.09554
 21
1.86449
 31
0.0
  0
LINE
  8
0
 62
     0
 10
4.09554
 20
1.86449
 30
0.0
 11
4.86724
 21
1.98713
 31
0.0
  0
LINE
  8
0
 62
     0
 10
4.86724
 20
1.98713
 30
0.0
 11
5.56451
 21
2.34267
 31
0.0
  0
LINE
  8
0
 62
     0
 10
5.56451
 20
2.34267
 30
0.0
 11
6.1171
 21
2.89526
 31
0.0
  0
LINE
  8
0
 62
     0
 10
6.1171
 20
2.89526
 30
0.0
 11
6.47266
 21
3.59255
 31
0.0
  0
LINE
  8
0
 62
     0
 10
6.47266
 20
3.59255
 30
0.0
 11
6.59529
 21
4.36425
 31
0.0
  0
LINE
  8
0
 62
     0
 10
6.59529
 20
4.36425
 30
0.0
 11
6.47266
 21
5.13733
 31
0.0
  0
LINE
  8
0
 62
     0
 10
6.47266
 20
5.13733
 30
0.0
 11
6.1171
 21
5.83463
 31
0.0
  0
LINE
  8
0
 62
     0
 10
6.1171
 20
5.83463
 30
0.0
 11
5.56451
 21
6.38722
 31
0.0
  0
LINE
  8
0
 62
     0
 10
5.56451
 20
6.38722
 30
0.0
 11
4.86724
 21
6.74275
 31
0.0
  0
LINE
  8
0
 62
     0
 10
4.86724
 20
6.74275
 30
0.0
 11
4.09554
 21
6.864
 31
0.0
  0
LINE
  8
0
 62
     0
 10
4.09554
 20
6.864
 30
0.0
 11
3.32245
 21
6.74275
 31
0.0
  0
LINE
  8
0
 62
     0
 10
192.68
 20
142.569
 30
0.0
 11
191.983
 21
142.214
 31
0.0
  0
LINE
  8
0
 62
     0
 10
191.983
 20
142.214
 30
0.0
 11
191.429
 21
141.661
 31
0.0
  0
LINE
  8
0
 62
     0
 10
191.429
 20
141.661
 30
0.0
 11
191.075
 21
140.964
 31
0.0
  0
LINE
  8
0
 62
     0
 10
191.075
 20
140.964
 30
0.0
 11
190.952
 21
140.191
 31
0.0
  0
LINE
  8
0
 62
     0
 10
190.952
 20
140.191
 30
0.0
 11
191.075
 21
139.419
 31
0.0
  0
LINE
  8
0
 62
     0
 10
191.075
 20
139.419
 30
0.0
 11
191.429
 21
138.722
 31
0.0
  0
LINE
  8
0
 62
     0
 10
191.429
 20
138.722
 30
0.0
 11
191.983
 21
138.169
 31
0.0
  0
LINE
  8
0
 62
     0
 10
191.983
 20
138.169
 30
0.0
 11
192.68
 21
137.813
 31
0.0
  0
LINE
  8
0
 62
     0
 10
192.68
 20
137.813
 30
0.0
 11
193.452
 21
137.691
 31
0.0
  0
LINE
  8
0
 62
     0
 10
193.452
 20
137.691
 30
0.0
 11
194.225
 21
137.813
 31
0.0
  0
LINE
  8
0
 62
     0
 10
194.225
 20
137.813
 30
0.0
 11
194.922
 21
138.169
 31
0.0
  0
LINE
  8
0
 62
     0
 10
194.922
 20
138.169
 30
0.0
 11
195.475
 21
138.722
 31
0.0
  0
LINE
  8
0
 62
     0
 10
195.475
 20
138.722
 30
0.0
 11
195.829
 21
139.419
 31
0.0
  0
LINE
  8
0
 62
     0
 10
195.829
 20
139.419
 30
0.0
 11
195.951
 21
140.191
 31
0.0
  0
LINE
  8
0
 62
     0
 10
195.951
 20
140.191
 30
0.0
 11
195.829
 21
140.964
 31
0.0
  0
LINE
  8
0
 62
     0
 10
195.829
 20
140.964
 30
0.0
 11
195.475
 21
141.661
 31
0.0
  0
LINE
  8
0
 62
     0
 10
195.475
 20
141.661
 30
0.0
 11
194.922
 21
142.214
 31
0.0
  0
LINE
  8
0
 62
     0
 10
194.922
 20
142.214
 30
0.0
 11
194.225
 21
142.569
 31
0.0
  0
LINE
  8
0
 62
     0
 10
194.225
 20
142.569
 30
0.0
 11
193.452
 21
142.69
 31
0.0
  0
LINE
  8
0
 62
     0
 10
193.452
 20
142.69
 30
0.0
 11
192.68
 21
142.569
 31
0.0
  0
LINE
  8
0
 62
     0
 10
382.034
 20
142.569
 30
0.0
 11
381.339
 21
142.214
 31
0.0
  0
LINE
  8
0
 62
     0
 10
381.339
 20
142.214
 30
0.0
 11
380.785
 21
141.661
 31
0.0
  0
LINE
  8
0
 62
     0
 10
380.785
 20
141.661
 30
0.0
 11
380.432
 21
140.964
 31
0.0
  0
LINE
  8
0
 62
     0
 10
380.432
 20
140.964
 30
0.0
 11
380.309
 21
140.191
 31
0.0
  0
LINE
  8
0
 62
     0
 10
380.309
 20
140.191
 30
0.0
 11
380.432
 21
139.419
 31
0.0
  0
LINE
  8
0
 62
     0
 10
380.432
 20
139.419
 30
0.0
 11
380.785
 21
138.722
 31
0.0
  0
LINE
  8
0
 62
     0
 10
380.785
 20
138.722
 30
0.0
 11
381.339
 21
138.169
 31
0.0
  0
LINE
  8
0
 62
     0
 10
381.339
 20
138.169
 30
0.0
 11
382.034
 21
137.813
 31
0.0
  0
LINE
  8
0
 62
     0
 10
382.034
 20
137.813
 30
0.0
 11
382.81
 21
137.691
 31
0.0
  0
LINE
  8
0
 62
     0
 10
382.81
 20
137.691
 30
0.0
 11
383.582
 21
137.813
 31
0.0
  0
LINE
  8
0
 62
     0
 10
383.582
 20
137.813
 30
0.0
 11
384.277
 21
138.169
 31
0.0
  0
LINE
  8
0
 62
     0
 10
384.277
 20
138.169
 30
0.0
 11
384.831
 21
138.722
 31
0.0
  0
LINE
  8
0
 62
     0
 10
384.831
 20
138.722
 30
0.0
 11
385.187
 21
139.419
 31
0.0
  0
LINE
  8
0
 62
     0
 10
385.187
 20
139.419
 30
0.0
 11
385.307
 21
140.191
 31
0.0
  0
LINE
  8
0
 62
     0
 10
385.307
 20
140.191
 30
0.0
 11
385.187
 21
140.964
 31
0.0
  0
LINE
  8
0
 62
     0
 10
385.187
 20
140.964
 30
0.0
 11
384.831
 21
141.661
 31
0.0
  0
LINE
  8
0
 62
     0
 10
384.831
 20
141.661
 30
0.0
 11
384.277
 21
142.214
 31
0.0
  0
LINE
  8
0
 62
     0
 10
384.277
 20
142.214
 30
0.0
 11
383.582
 21
142.569
 31
0.0
  0
LINE
  8
0
 62
     0
 10
383.582
 20
142.569
 30
0.0
 11
382.81
 21
142.69
 31
0.0
  0
LINE
  8
0
 62
     0
 10
382.81
 20
142.69
 30
0.0
 11
382.034
 21
142.569
 31
0.0
  0
LINE
  8
0
 62
     0
 10
3.32245
 20
142.569
 30
0.0
 11
2.62516
 21
142.214
 31
0.0
  0
LINE
  8
0
 62
     0
 10
2.62516
 20
142.214
 30
0.0
 11
2.07257
 21
141.661
 31
0.0
  0
LINE
  8
0
 62
     0
 10
2.07257
 20
141.661
 30
0.0
 11
1.71704
 21
140.964
 31
0.0
  0
LINE
  8
0
 62
     0
 10
1.71704
 20
140.964
 30
0.0
 11
1.59577
 21
140.191
 31
0.0
  0
LINE
  8
0
 62
     0
 10
1.59577
 20
140.191
 30
0.0
 11
1.71704
 21
139.419
 31
0.0
  0
LINE
  8
0
 62
     0
 10
1.71704
 20
139.419
 30
0.0
 11
2.07257
 21
138.722
 31
0.0
  0
LINE
  8
0
 62
     0
 10
2.07257
 20
138.722
 30
0.0
 11
2.62516
 21
138.169
 31
0.0
  0
LINE
  8
0
 62
     0
 10
2.62516
 20
138.169
 30
0.0
 11
3.32245
 21
137.813
 31
0.0
  0
LINE
  8
0
 62
     0
 10
3.32245
 20
137.813
 30
0.0
 11
4.09554
 21
137.691
 31
0.0
  0
LINE
  8
0
 62
     0
 10
4.09554
 20
137.691
 30
0.0
 11
4.86724
 21
137.813
 31
0.0
  0
LINE
  8
0
 62
     0
 10
4.86724
 20
137.813
 30
0.0
 11
5.56451
 21
138.169
 31
0.0
  0
LINE
  8
0
 62
     0
 10
5.56451
 20
138.169
 30
0.0
 11
6.1171
 21
138.722
 31
0.0
  0
LINE
  8
0
 62
     0
 10
6.1171
 20
138.722
 30
0.0
 11
6.47266
 21
139.419
 31
0.0
  0
LINE
  8
0
 62
     0
 10
6.47266
 20
139.419
 30
0.0
 11
6.59529
 21
140.191
 31
0.0
  0
LINE
  8
0
 62
     0
 10
6.59529
 20
140.191
 30
0.0
 11
6.47266
 21
140.964
 31
0.0
  0
LINE
  8
0
 62
     0
 10
6.47266
 20
140.964
 30
0.0
 11
6.1171
 21
141.661
 31
0.0
  0
LINE
  8
0
 62
     0
 10
6.1171
 20
141.661
 30
0.0
 11
5.56451
 21
142.214
 31
0.0
  0
LINE
  8
0
 62
     0
 10
5.56451
 20
142.214
 30
0.0
 11
4.86724
 21
142.569
 31
0.0
  0
LINE
  8
0
 62
     0
 10
4.86724
 20
142.569
 30
0.0
 11
4.09554
 21
142.69
 31
0.0
  0
LINE
  8
0
 62
     0
 10
4.09554
 20
142.69
 30
0.0
 11
3.32245
 21
142.569
 31
0.0
  0
ENDSEC
  0
EOF
