M48
; DRILL file {KiCad 8.0.5} date 2024-11-10T22:51:30+1100
; FORMAT={-:-/ absolute / inch / decimal}
; #@! TF.CreationDate,2024-11-10T22:51:30+11:00
; #@! TF.GenerationSoftware,Kicad,Pcbnew,8.0.5
; #@! TF.FileFunction,Plated,2,4,Blind
FMAT,2
INCH
; #@! TA.AperFunction,Plated,Buried,ViaDrill
T1C0.0157
%
G90
G05
T1
X1.752Y-2.1654
X2.3425Y-1.3189
X5.4921Y-2.1063
X5.6102Y-1.122
X12.0866Y-1.4173
X12.2933Y-1.3484
X13.6024Y-2.0276
X13.6811Y-2.0276
X13.7598Y-2.0276
X13.8386Y-2.0276
X13.9173Y-2.0276
X13.9961Y-2.0167
X14.5669Y-1.5157
X14.6044Y-1.4351
X14.6457Y-4.0157
X14.6457Y-5.4724
X14.7205Y-1.2795
X14.7638Y-1.122
X14.9194Y-0.9577
X14.9311Y-1.1095
X14.9606Y-0.9449
X15.1378Y-1.122
X15.3543Y-5.0984
X15.3848Y-2.4803
X15.3937Y-3.6024
M30
