%TF.GenerationSoftware,KiCad,Pcbnew,8.0.5*%
%TF.CreationDate,2024-11-10T22:51:29+11:00*%
%TF.ProjectId,keyboard,6b657962-6f61-4726-942e-6b696361645f,rev?*%
%TF.SameCoordinates,Original*%
%TF.FileFunction,Soldermask,Top*%
%TF.FilePolarity,Negative*%
%FSLAX46Y46*%
G04 Gerber Fmt 4.6, Leading zero omitted, Abs format (unit mm)*
G04 Created by KiCad (PCBNEW 8.0.5) date 2024-11-10 22:51:29*
%MOMM*%
%LPD*%
G01*
G04 APERTURE LIST*
G04 Aperture macros list*
%AMRoundRect*
0 Rectangle with rounded corners*
0 $1 Rounding radius*
0 $2 $3 $4 $5 $6 $7 $8 $9 X,Y pos of 4 corners*
0 Add a 4 corners polygon primitive as box body*
4,1,4,$2,$3,$4,$5,$6,$7,$8,$9,$2,$3,0*
0 Add four circle primitives for the rounded corners*
1,1,$1+$1,$2,$3*
1,1,$1+$1,$4,$5*
1,1,$1+$1,$6,$7*
1,1,$1+$1,$8,$9*
0 Add four rect primitives between the rounded corners*
20,1,$1+$1,$2,$3,$4,$5,0*
20,1,$1+$1,$4,$5,$6,$7,0*
20,1,$1+$1,$6,$7,$8,$9,0*
20,1,$1+$1,$8,$9,$2,$3,0*%
G04 Aperture macros list end*
%ADD10RoundRect,0.200000X-0.550000X-0.200000X0.550000X-0.200000X0.550000X0.200000X-0.550000X0.200000X0*%
%ADD11C,1.750000*%
%ADD12C,3.000000*%
%ADD13C,3.987800*%
%ADD14C,3.048000*%
%ADD15C,2.000000*%
%ADD16C,0.650000*%
%ADD17O,1.000000X1.800000*%
%ADD18O,1.000000X2.100000*%
G04 APERTURE END LIST*
D10*
%TO.C,D94*%
X377910000Y-32610000D03*
X377910000Y-34390000D03*
X381190000Y-34390000D03*
X381190000Y-32610000D03*
%TD*%
%TO.C,D93*%
X353915000Y-32610000D03*
X353915000Y-34390000D03*
X350635000Y-34390000D03*
X350635000Y-32610000D03*
%TD*%
%TO.C,D91*%
X359410000Y-147110000D03*
X359410000Y-148890000D03*
X362690000Y-148890000D03*
X362690000Y-147110000D03*
%TD*%
%TO.C,D90*%
X331410000Y-147110000D03*
X331410000Y-148890000D03*
X334690000Y-148890000D03*
X334690000Y-147110000D03*
%TD*%
%TO.C,D89*%
X295410000Y-147110000D03*
X295410000Y-148890000D03*
X298690000Y-148890000D03*
X298690000Y-147110000D03*
%TD*%
%TO.C,D88*%
X271410000Y-147110000D03*
X271410000Y-148890000D03*
X274690000Y-148890000D03*
X274690000Y-147110000D03*
%TD*%
%TO.C,D87*%
X247910000Y-147110000D03*
X247910000Y-148890000D03*
X251190000Y-148890000D03*
X251190000Y-147110000D03*
%TD*%
%TO.C,D86*%
X223910000Y-147110000D03*
X223910000Y-148890000D03*
X227190000Y-148890000D03*
X227190000Y-147110000D03*
%TD*%
%TO.C,D85*%
X152360000Y-147110000D03*
X152360000Y-148890000D03*
X155640000Y-148890000D03*
X155640000Y-147110000D03*
%TD*%
%TO.C,D84*%
X80910000Y-147110000D03*
X80910000Y-148890000D03*
X84190000Y-148890000D03*
X84190000Y-147110000D03*
%TD*%
%TO.C,D83*%
X56910000Y-147110000D03*
X56910000Y-148890000D03*
X60190000Y-148890000D03*
X60190000Y-147110000D03*
%TD*%
%TO.C,D82*%
X33410000Y-147110000D03*
X33410000Y-148890000D03*
X36690000Y-148890000D03*
X36690000Y-147110000D03*
%TD*%
%TO.C,D81*%
X378410000Y-137110000D03*
X378410000Y-138890000D03*
X381690000Y-138890000D03*
X381690000Y-137110000D03*
%TD*%
%TO.C,D80*%
X358860000Y-126610000D03*
X358860000Y-128390000D03*
X362140000Y-128390000D03*
X362140000Y-126610000D03*
%TD*%
%TO.C,D79*%
X339860000Y-126260000D03*
X339860000Y-128040000D03*
X343140000Y-128040000D03*
X343140000Y-126260000D03*
%TD*%
%TO.C,D78*%
X320860000Y-126110000D03*
X320860000Y-127890000D03*
X324140000Y-127890000D03*
X324140000Y-126110000D03*
%TD*%
%TO.C,D77*%
X280860000Y-126610000D03*
X280860000Y-128390000D03*
X284140000Y-128390000D03*
X284140000Y-126610000D03*
%TD*%
%TO.C,D76*%
X245360000Y-126610000D03*
X245360000Y-128390000D03*
X248640000Y-128390000D03*
X248640000Y-126610000D03*
%TD*%
%TO.C,D75*%
X224860000Y-126610000D03*
X224860000Y-128390000D03*
X228140000Y-128390000D03*
X228140000Y-126610000D03*
%TD*%
%TO.C,D74*%
X207360000Y-126610000D03*
X207360000Y-128390000D03*
X210640000Y-128390000D03*
X210640000Y-126610000D03*
%TD*%
%TO.C,D73*%
X187360000Y-126610000D03*
X187360000Y-128390000D03*
X190640000Y-128390000D03*
X190640000Y-126610000D03*
%TD*%
%TO.C,D72*%
X167360000Y-126610000D03*
X167360000Y-128390000D03*
X170640000Y-128390000D03*
X170640000Y-126610000D03*
%TD*%
%TO.C,D70*%
X129860000Y-126610000D03*
X129860000Y-128390000D03*
X133140000Y-128390000D03*
X133140000Y-126610000D03*
%TD*%
%TO.C,D69*%
X110860000Y-126610000D03*
X110860000Y-128390000D03*
X114140000Y-128390000D03*
X114140000Y-126610000D03*
%TD*%
%TO.C,D68*%
X91860000Y-126610000D03*
X91860000Y-128390000D03*
X95140000Y-128390000D03*
X95140000Y-126610000D03*
%TD*%
%TO.C,D66*%
X41860000Y-126610000D03*
X41860000Y-128390000D03*
X45140000Y-128390000D03*
X45140000Y-126610000D03*
%TD*%
%TO.C,D65*%
X358860000Y-107610000D03*
X358860000Y-109390000D03*
X362140000Y-109390000D03*
X362140000Y-107610000D03*
%TD*%
%TO.C,D64*%
X340360000Y-107610000D03*
X340360000Y-109390000D03*
X343640000Y-109390000D03*
X343640000Y-107610000D03*
%TD*%
%TO.C,D63*%
X320910000Y-107410000D03*
X320910000Y-109190000D03*
X324190000Y-109190000D03*
X324190000Y-107410000D03*
%TD*%
%TO.C,D61*%
X257640000Y-107610000D03*
X257640000Y-109390000D03*
X254360000Y-109390000D03*
X254360000Y-107610000D03*
%TD*%
%TO.C,D60*%
X238640000Y-107610000D03*
X238640000Y-109390000D03*
X235360000Y-109390000D03*
X235360000Y-107610000D03*
%TD*%
%TO.C,D59*%
X219640000Y-107610000D03*
X219640000Y-109390000D03*
X216360000Y-109390000D03*
X216360000Y-107610000D03*
%TD*%
%TO.C,D58*%
X200640000Y-107610000D03*
X200640000Y-109390000D03*
X197360000Y-109390000D03*
X197360000Y-107610000D03*
%TD*%
%TO.C,D57*%
X181640000Y-107610000D03*
X181640000Y-109390000D03*
X178360000Y-109390000D03*
X178360000Y-107610000D03*
%TD*%
%TO.C,D56*%
X162140000Y-107610000D03*
X162140000Y-109390000D03*
X158860000Y-109390000D03*
X158860000Y-107610000D03*
%TD*%
%TO.C,D55*%
X143140000Y-107610000D03*
X143140000Y-109390000D03*
X139860000Y-109390000D03*
X139860000Y-107610000D03*
%TD*%
%TO.C,D54*%
X124140000Y-107610000D03*
X124140000Y-109390000D03*
X120860000Y-109390000D03*
X120860000Y-107610000D03*
%TD*%
%TO.C,D53*%
X105140000Y-107610000D03*
X105140000Y-109390000D03*
X101860000Y-109390000D03*
X101860000Y-107610000D03*
%TD*%
%TO.C,D52*%
X86640000Y-107610000D03*
X86640000Y-109390000D03*
X83360000Y-109390000D03*
X83360000Y-107610000D03*
%TD*%
%TO.C,D51*%
X67640000Y-107610000D03*
X67640000Y-109390000D03*
X64360000Y-109390000D03*
X64360000Y-107610000D03*
%TD*%
%TO.C,D50*%
X41140000Y-107610000D03*
X41140000Y-109390000D03*
X37860000Y-109390000D03*
X37860000Y-107610000D03*
%TD*%
%TO.C,D49*%
X378860000Y-98760000D03*
X378860000Y-100540000D03*
X382140000Y-100540000D03*
X382140000Y-98760000D03*
%TD*%
%TO.C,D48*%
X359360000Y-88610000D03*
X359360000Y-90390000D03*
X362640000Y-90390000D03*
X362640000Y-88610000D03*
%TD*%
%TO.C,D47*%
X343690000Y-88610000D03*
X343690000Y-90390000D03*
X340410000Y-90390000D03*
X340410000Y-88610000D03*
%TD*%
%TO.C,D46*%
X321860000Y-88610000D03*
X321860000Y-90390000D03*
X325140000Y-90390000D03*
X325140000Y-88610000D03*
%TD*%
%TO.C,D45*%
X291860000Y-88610000D03*
X291860000Y-90390000D03*
X295140000Y-90390000D03*
X295140000Y-88610000D03*
%TD*%
%TO.C,D44*%
X268360000Y-88610000D03*
X268360000Y-90390000D03*
X271640000Y-90390000D03*
X271640000Y-88610000D03*
%TD*%
%TO.C,D43*%
X249860000Y-88610000D03*
X249860000Y-90390000D03*
X253140000Y-90390000D03*
X253140000Y-88610000D03*
%TD*%
%TO.C,D42*%
X230860000Y-88610000D03*
X230860000Y-90390000D03*
X234140000Y-90390000D03*
X234140000Y-88610000D03*
%TD*%
%TO.C,D41*%
X211860000Y-88610000D03*
X211860000Y-90390000D03*
X215140000Y-90390000D03*
X215140000Y-88610000D03*
%TD*%
%TO.C,D40*%
X192860000Y-88610000D03*
X192860000Y-90390000D03*
X196140000Y-90390000D03*
X196140000Y-88610000D03*
%TD*%
%TO.C,D39*%
X173860000Y-88610000D03*
X173860000Y-90390000D03*
X177140000Y-90390000D03*
X177140000Y-88610000D03*
%TD*%
%TO.C,D38*%
X154360000Y-88610000D03*
X154360000Y-90390000D03*
X157640000Y-90390000D03*
X157640000Y-88610000D03*
%TD*%
%TO.C,D37*%
X136360000Y-88610000D03*
X136360000Y-90390000D03*
X139640000Y-90390000D03*
X139640000Y-88610000D03*
%TD*%
%TO.C,D35*%
X97860000Y-88610000D03*
X97860000Y-90390000D03*
X101140000Y-90390000D03*
X101140000Y-88610000D03*
%TD*%
%TO.C,D34*%
X79360000Y-88610000D03*
X79360000Y-90390000D03*
X82640000Y-90390000D03*
X82640000Y-88610000D03*
%TD*%
%TO.C,D33*%
X59860000Y-88610000D03*
X59860000Y-90390000D03*
X63140000Y-90390000D03*
X63140000Y-88610000D03*
%TD*%
%TO.C,D32*%
X36360000Y-88610000D03*
X36360000Y-90390000D03*
X39640000Y-90390000D03*
X39640000Y-88610000D03*
%TD*%
%TO.C,D31*%
X378910000Y-70110000D03*
X378910000Y-71890000D03*
X382190000Y-71890000D03*
X382190000Y-70110000D03*
%TD*%
%TO.C,D30*%
X359860000Y-69610000D03*
X359860000Y-71390000D03*
X363140000Y-71390000D03*
X363140000Y-69610000D03*
%TD*%
%TO.C,D29*%
X337972500Y-69272500D03*
X337972500Y-71052500D03*
X341252500Y-71052500D03*
X341252500Y-69272500D03*
%TD*%
%TO.C,D28*%
X322360000Y-69610000D03*
X322360000Y-71390000D03*
X325640000Y-71390000D03*
X325640000Y-69610000D03*
%TD*%
%TO.C,D27*%
X286860000Y-69610000D03*
X286860000Y-71390000D03*
X290140000Y-71390000D03*
X290140000Y-69610000D03*
%TD*%
%TO.C,D26*%
X258910000Y-69610000D03*
X258910000Y-71390000D03*
X262190000Y-71390000D03*
X262190000Y-69610000D03*
%TD*%
%TO.C,D25*%
X240360000Y-69610000D03*
X240360000Y-71390000D03*
X243640000Y-71390000D03*
X243640000Y-69610000D03*
%TD*%
%TO.C,D24*%
X220910000Y-69110000D03*
X220910000Y-70890000D03*
X224190000Y-70890000D03*
X224190000Y-69110000D03*
%TD*%
%TO.C,D23*%
X201910000Y-69110000D03*
X201910000Y-70890000D03*
X205190000Y-70890000D03*
X205190000Y-69110000D03*
%TD*%
%TO.C,D22*%
X182910000Y-69610000D03*
X182910000Y-71390000D03*
X186190000Y-71390000D03*
X186190000Y-69610000D03*
%TD*%
%TO.C,D21*%
X164360000Y-69610000D03*
X164360000Y-71390000D03*
X167640000Y-71390000D03*
X167640000Y-69610000D03*
%TD*%
%TO.C,D20*%
X144860000Y-69610000D03*
X144860000Y-71390000D03*
X148140000Y-71390000D03*
X148140000Y-69610000D03*
%TD*%
%TO.C,D19*%
X125910000Y-70610000D03*
X125910000Y-72390000D03*
X129190000Y-72390000D03*
X129190000Y-70610000D03*
%TD*%
%TO.C,D18*%
X106910000Y-69610000D03*
X106910000Y-71390000D03*
X110190000Y-71390000D03*
X110190000Y-69610000D03*
%TD*%
%TO.C,D16*%
X68360000Y-69610000D03*
X68360000Y-71390000D03*
X71640000Y-71390000D03*
X71640000Y-69610000D03*
%TD*%
%TO.C,D15*%
X48860000Y-69610000D03*
X48860000Y-71390000D03*
X52140000Y-71390000D03*
X52140000Y-69610000D03*
%TD*%
%TO.C,D14*%
X30720000Y-69500000D03*
X30720000Y-71280000D03*
X34000000Y-71280000D03*
X34000000Y-69500000D03*
%TD*%
%TO.C,D13*%
X297910000Y-42110000D03*
X297910000Y-43890000D03*
X301190000Y-43890000D03*
X301190000Y-42110000D03*
%TD*%
%TO.C,D12*%
X278410000Y-42110000D03*
X278410000Y-43890000D03*
X281690000Y-43890000D03*
X281690000Y-42110000D03*
%TD*%
%TO.C,D11*%
X260410000Y-42110000D03*
X260410000Y-43890000D03*
X263690000Y-43890000D03*
X263690000Y-42110000D03*
%TD*%
%TO.C,D10*%
X241410000Y-42110000D03*
X241410000Y-43890000D03*
X244690000Y-43890000D03*
X244690000Y-42110000D03*
%TD*%
%TO.C,D9*%
X211910000Y-42110000D03*
X211910000Y-43890000D03*
X215190000Y-43890000D03*
X215190000Y-42110000D03*
%TD*%
%TO.C,D8*%
X193410000Y-42110000D03*
X193410000Y-43890000D03*
X196690000Y-43890000D03*
X196690000Y-42110000D03*
%TD*%
%TO.C,D7*%
X174360000Y-42110000D03*
X174360000Y-43890000D03*
X177640000Y-43890000D03*
X177640000Y-42110000D03*
%TD*%
%TO.C,D6*%
X155410000Y-42110000D03*
X155410000Y-43890000D03*
X158690000Y-43890000D03*
X158690000Y-42110000D03*
%TD*%
%TO.C,D5*%
X126360000Y-42110000D03*
X126360000Y-43890000D03*
X129640000Y-43890000D03*
X129640000Y-42110000D03*
%TD*%
%TO.C,D4*%
X107910000Y-42110000D03*
X107910000Y-43890000D03*
X111190000Y-43890000D03*
X111190000Y-42110000D03*
%TD*%
%TO.C,D3*%
X88860000Y-42110000D03*
X88860000Y-43890000D03*
X92140000Y-43890000D03*
X92140000Y-42110000D03*
%TD*%
%TO.C,D2*%
X69410000Y-42110000D03*
X69410000Y-43890000D03*
X72690000Y-43890000D03*
X72690000Y-42110000D03*
%TD*%
%TO.C,D1*%
X30860000Y-41610000D03*
X30860000Y-43390000D03*
X34140000Y-43390000D03*
X34140000Y-41610000D03*
%TD*%
%TO.C,D92*%
X323360000Y-32610000D03*
X323360000Y-34390000D03*
X326640000Y-34390000D03*
X326640000Y-32610000D03*
%TD*%
D11*
%TO.C,K_19*%
X141495000Y-60725000D03*
D12*
X142765000Y-58185000D03*
D13*
X146575000Y-60725000D03*
D12*
X149115000Y-55645000D03*
D11*
X151655000Y-60725000D03*
%TD*%
%TO.C,K_20*%
X160545000Y-60725000D03*
D12*
X161815000Y-58185000D03*
D13*
X165625000Y-60725000D03*
D12*
X168165000Y-55645000D03*
D11*
X170705000Y-60725000D03*
%TD*%
%TO.C,K_16*%
X84345000Y-60725000D03*
D12*
X85615000Y-58185000D03*
D13*
X89425000Y-60725000D03*
D12*
X91965000Y-55645000D03*
D11*
X94505000Y-60725000D03*
%TD*%
%TO.C,K_F11*%
X275181706Y-32124520D03*
D12*
X276451706Y-29584520D03*
D13*
X280261706Y-32124520D03*
D12*
X282801706Y-27044520D03*
D11*
X285341706Y-32124520D03*
%TD*%
%TO.C,K_45*%
X317707500Y-79775000D03*
D12*
X318977500Y-77235000D03*
D13*
X322787500Y-79775000D03*
D12*
X325327500Y-74695000D03*
D11*
X327867500Y-79775000D03*
%TD*%
%TO.C,K_13*%
X27195000Y-60725000D03*
D12*
X28465000Y-58185000D03*
D13*
X32275000Y-60725000D03*
D12*
X34815000Y-55645000D03*
D11*
X37355000Y-60725000D03*
%TD*%
%TO.C,K_75*%
X251667500Y-117875000D03*
D12*
X249127500Y-112795000D03*
D13*
X246587500Y-117875000D03*
D12*
X242777500Y-115335000D03*
D11*
X241507500Y-117875000D03*
%TD*%
%TO.C,K_56*%
X174832500Y-98825000D03*
D12*
X176102500Y-96285000D03*
D13*
X179912500Y-98825000D03*
D12*
X182452500Y-93745000D03*
D11*
X184992500Y-98825000D03*
%TD*%
%TO.C,K_46*%
X336757500Y-79775000D03*
D12*
X338027500Y-77235000D03*
D13*
X341837500Y-79775000D03*
D12*
X344377500Y-74695000D03*
D11*
X346917500Y-79775000D03*
%TD*%
%TO.C,K_78*%
X336757500Y-117875000D03*
D12*
X338027500Y-115335000D03*
D13*
X341837500Y-117875000D03*
D12*
X344377500Y-112795000D03*
D11*
X346917500Y-117875000D03*
%TD*%
%TO.C,K_74*%
X232617500Y-117875000D03*
D12*
X230077500Y-112795000D03*
D13*
X227537500Y-117875000D03*
D12*
X223727500Y-115335000D03*
D11*
X222457500Y-117875000D03*
%TD*%
%TO.C,K_35*%
X112920000Y-79775000D03*
D12*
X114190000Y-77235000D03*
D13*
X118000000Y-79775000D03*
D12*
X120540000Y-74695000D03*
D11*
X123080000Y-79775000D03*
%TD*%
%TO.C,K_15*%
X65295000Y-60725000D03*
D12*
X66565000Y-58185000D03*
D13*
X70375000Y-60725000D03*
D12*
X72915000Y-55645000D03*
D11*
X75455000Y-60725000D03*
%TD*%
%TO.C,K_ESC1*%
X27250000Y-32205000D03*
D12*
X28520000Y-29665000D03*
D13*
X32330000Y-32205000D03*
D12*
X34870000Y-27125000D03*
D11*
X37410000Y-32205000D03*
%TD*%
%TO.C,K_38*%
X170070000Y-79775000D03*
D12*
X171340000Y-77235000D03*
D13*
X175150000Y-79775000D03*
D12*
X177690000Y-74695000D03*
D11*
X180230000Y-79775000D03*
%TD*%
%TO.C,K_79*%
X355807500Y-117875000D03*
D12*
X357077500Y-115335000D03*
D13*
X360887500Y-117875000D03*
D12*
X363427500Y-112795000D03*
D11*
X365967500Y-117875000D03*
%TD*%
%TO.C,K_86*%
X243888750Y-136925000D03*
D12*
X245158750Y-134385000D03*
D13*
X248968750Y-136925000D03*
D12*
X251508750Y-131845000D03*
D11*
X254048750Y-136925000D03*
%TD*%
%TO.C,K_F9*%
X237170000Y-32125000D03*
D12*
X238440000Y-29585000D03*
D13*
X242250000Y-32125000D03*
D12*
X244790000Y-27045000D03*
D11*
X247330000Y-32125000D03*
%TD*%
%TO.C,K_88*%
X291513750Y-136925000D03*
D12*
X292783750Y-134385000D03*
D13*
X296593750Y-136925000D03*
D12*
X299133750Y-131845000D03*
D11*
X301673750Y-136925000D03*
%TD*%
%TO.C,K_81*%
X29576250Y-136925000D03*
D12*
X30846250Y-134385000D03*
D13*
X34656250Y-136925000D03*
D12*
X37196250Y-131845000D03*
D11*
X39736250Y-136925000D03*
%TD*%
%TO.C,K_23*%
X217695000Y-60725000D03*
D12*
X218965000Y-58185000D03*
D13*
X222775000Y-60725000D03*
D12*
X225315000Y-55645000D03*
D11*
X227855000Y-60725000D03*
%TD*%
%TO.C,K_63*%
X336757500Y-98825000D03*
D12*
X338027500Y-96285000D03*
D13*
X341837500Y-98825000D03*
D12*
X344377500Y-93745000D03*
D11*
X346917500Y-98825000D03*
%TD*%
%TO.C,K_67*%
X99267500Y-117875000D03*
D12*
X96727500Y-112795000D03*
D13*
X94187500Y-117875000D03*
D12*
X90377500Y-115335000D03*
D11*
X89107500Y-117875000D03*
%TD*%
%TO.C,K_53*%
X117682500Y-98825000D03*
D12*
X118952500Y-96285000D03*
D13*
X122762500Y-98825000D03*
D12*
X125302500Y-93745000D03*
D11*
X127842500Y-98825000D03*
%TD*%
%TO.C,K_72*%
X194517500Y-117875000D03*
D12*
X191977500Y-112795000D03*
D13*
X189437500Y-117875000D03*
D12*
X185627500Y-115335000D03*
D11*
X184357500Y-117875000D03*
%TD*%
%TO.C,K_47*%
X355807500Y-79775000D03*
D12*
X357077500Y-77235000D03*
D13*
X360887500Y-79775000D03*
D12*
X363427500Y-74695000D03*
D11*
X365967500Y-79775000D03*
%TD*%
%TO.C,K_60*%
X251032500Y-98825000D03*
D12*
X252302500Y-96285000D03*
D13*
X256112500Y-98825000D03*
D12*
X258652500Y-93745000D03*
D11*
X261192500Y-98825000D03*
%TD*%
%TO.C,K_F7*%
X189266209Y-32133694D03*
D12*
X190536209Y-29593694D03*
D13*
X194346209Y-32133694D03*
D12*
X196886209Y-27053694D03*
D11*
X199426209Y-32133694D03*
%TD*%
D13*
%TO.C,K_61*%
X299006750Y-107080000D03*
D14*
X299006750Y-91840000D03*
D11*
X292148750Y-98825000D03*
D12*
X289608750Y-93745000D03*
D13*
X287068750Y-98825000D03*
D12*
X283258750Y-96285000D03*
D11*
X281988750Y-98825000D03*
D13*
X275130750Y-107080000D03*
D14*
X275130750Y-91840000D03*
%TD*%
D11*
%TO.C,K_25*%
X255795000Y-60725000D03*
D12*
X257065000Y-58185000D03*
D13*
X260875000Y-60725000D03*
D12*
X263415000Y-55645000D03*
D11*
X265955000Y-60725000D03*
%TD*%
%TO.C,K_F8*%
X208266209Y-32133694D03*
D12*
X209536209Y-29593694D03*
D13*
X213346209Y-32133694D03*
D12*
X215886209Y-27053694D03*
D11*
X218426209Y-32133694D03*
%TD*%
%TO.C,K_F12*%
X294221706Y-32124520D03*
D12*
X295491706Y-29584520D03*
D13*
X299301706Y-32124520D03*
D12*
X301841706Y-27044520D03*
D11*
X304381706Y-32124520D03*
%TD*%
%TO.C,K_33*%
X74820000Y-79775000D03*
D12*
X76090000Y-77235000D03*
D13*
X79900000Y-79775000D03*
D12*
X82440000Y-74695000D03*
D11*
X84980000Y-79775000D03*
%TD*%
D13*
%TO.C,K_76*%
X294244250Y-126130000D03*
D14*
X294244250Y-110890000D03*
D11*
X287386250Y-117875000D03*
D12*
X284846250Y-112795000D03*
D13*
X282306250Y-117875000D03*
D12*
X278496250Y-115335000D03*
D11*
X277226250Y-117875000D03*
D13*
X270368250Y-126130000D03*
D14*
X270368250Y-110890000D03*
%TD*%
D11*
%TO.C,K_73*%
X213567500Y-117875000D03*
D12*
X211027500Y-112795000D03*
D13*
X208487500Y-117875000D03*
D12*
X204677500Y-115335000D03*
D11*
X203407500Y-117875000D03*
%TD*%
%TO.C,K_70*%
X156417500Y-117875000D03*
D12*
X153877500Y-112795000D03*
D13*
X151337500Y-117875000D03*
D12*
X147527500Y-115335000D03*
D11*
X146257500Y-117875000D03*
%TD*%
%TO.C,K_24*%
X236745000Y-60725000D03*
D12*
X238015000Y-58185000D03*
D13*
X241825000Y-60725000D03*
D12*
X244365000Y-55645000D03*
D11*
X246905000Y-60725000D03*
%TD*%
%TO.C,K_54*%
X136732500Y-98825000D03*
D12*
X138002500Y-96285000D03*
D13*
X141812500Y-98825000D03*
D12*
X144352500Y-93745000D03*
D11*
X146892500Y-98825000D03*
%TD*%
%TO.C,K_29*%
X355807500Y-60725000D03*
D12*
X357077500Y-58185000D03*
D13*
X360887500Y-60725000D03*
D12*
X363427500Y-55645000D03*
D11*
X365967500Y-60725000D03*
%TD*%
%TO.C,K_F10*%
X256181706Y-32124520D03*
D12*
X257451706Y-29584520D03*
D13*
X261261706Y-32124520D03*
D12*
X263801706Y-27044520D03*
D11*
X266341706Y-32124520D03*
%TD*%
%TO.C,K_32*%
X55770000Y-79775000D03*
D12*
X57040000Y-77235000D03*
D13*
X60850000Y-79775000D03*
D12*
X63390000Y-74695000D03*
D11*
X65930000Y-79775000D03*
%TD*%
%TO.C,K_34*%
X93870000Y-79775000D03*
D12*
X95140000Y-77235000D03*
D13*
X98950000Y-79775000D03*
D12*
X101490000Y-74695000D03*
D11*
X104030000Y-79775000D03*
%TD*%
%TO.C,K_68*%
X118317500Y-117875000D03*
D12*
X115777500Y-112795000D03*
D13*
X113237500Y-117875000D03*
D12*
X109427500Y-115335000D03*
D11*
X108157500Y-117875000D03*
%TD*%
%TO.C,K_42*%
X246270000Y-79775000D03*
D12*
X247540000Y-77235000D03*
D13*
X251350000Y-79775000D03*
D12*
X253890000Y-74695000D03*
D11*
X256430000Y-79775000D03*
%TD*%
%TO.C,K_14*%
X46245000Y-60725000D03*
D12*
X47515000Y-58185000D03*
D13*
X51325000Y-60725000D03*
D12*
X53865000Y-55645000D03*
D11*
X56405000Y-60725000D03*
%TD*%
D14*
%TO.C,K_84*%
X103718850Y-129940000D03*
D13*
X103718850Y-145180000D03*
D11*
X148638750Y-136925000D03*
D12*
X149908750Y-134385000D03*
D13*
X153718750Y-136925000D03*
D12*
X156258750Y-131845000D03*
D11*
X158798750Y-136925000D03*
D14*
X203718650Y-129940000D03*
D13*
X203718650Y-145180000D03*
%TD*%
D11*
%TO.C,K_39*%
X189120000Y-79775000D03*
D12*
X190390000Y-77235000D03*
D13*
X194200000Y-79775000D03*
D12*
X196740000Y-74695000D03*
D11*
X199280000Y-79775000D03*
%TD*%
D14*
%TO.C,K_89*%
X320374500Y-129940000D03*
D13*
X320374500Y-145180000D03*
D11*
X327232500Y-136925000D03*
D12*
X328502500Y-134385000D03*
D13*
X332312500Y-136925000D03*
D12*
X334852500Y-131845000D03*
D11*
X337392500Y-136925000D03*
D14*
X344250500Y-129940000D03*
D13*
X344250500Y-145180000D03*
%TD*%
D11*
%TO.C,K_59*%
X231982500Y-98825000D03*
D12*
X233252500Y-96285000D03*
D13*
X237062500Y-98825000D03*
D12*
X239602500Y-93745000D03*
D11*
X242142500Y-98825000D03*
%TD*%
%TO.C,K_62*%
X317707500Y-98825000D03*
D12*
X318977500Y-96285000D03*
D13*
X322787500Y-98825000D03*
D12*
X325327500Y-93745000D03*
D11*
X327867500Y-98825000D03*
%TD*%
%TO.C,K_49*%
X34338750Y-98825000D03*
D12*
X35608750Y-96285000D03*
D13*
X39418750Y-98825000D03*
D12*
X41958750Y-93745000D03*
D11*
X44498750Y-98825000D03*
%TD*%
%TO.C,K_18*%
X122445000Y-60725000D03*
D12*
X123715000Y-58185000D03*
D13*
X127525000Y-60725000D03*
D12*
X130065000Y-55645000D03*
D11*
X132605000Y-60725000D03*
%TD*%
%TO.C,K_17*%
X103395000Y-60725000D03*
D12*
X104665000Y-58185000D03*
D13*
X108475000Y-60725000D03*
D12*
X111015000Y-55645000D03*
D11*
X113555000Y-60725000D03*
%TD*%
%TO.C,K_F1*%
X65599475Y-32177388D03*
D12*
X66869475Y-29637388D03*
D13*
X70679475Y-32177388D03*
D12*
X73219475Y-27097388D03*
D11*
X75759475Y-32177388D03*
%TD*%
%TO.C,K_87*%
X267701250Y-136925000D03*
D12*
X268971250Y-134385000D03*
D13*
X272781250Y-136925000D03*
D12*
X275321250Y-131845000D03*
D11*
X277861250Y-136925000D03*
%TD*%
%TO.C,K_85*%
X220076250Y-136925000D03*
D12*
X221346250Y-134385000D03*
D13*
X225156250Y-136925000D03*
D12*
X227696250Y-131845000D03*
D11*
X230236250Y-136925000D03*
%TD*%
%TO.C,K_83*%
X77201250Y-136925000D03*
D12*
X78471250Y-134385000D03*
D13*
X82281250Y-136925000D03*
D12*
X84821250Y-131845000D03*
D11*
X87361250Y-136925000D03*
%TD*%
%TO.C,K_77*%
X317707500Y-117875000D03*
D12*
X318977500Y-115335000D03*
D13*
X322787500Y-117875000D03*
D12*
X325327500Y-112795000D03*
D11*
X327867500Y-117875000D03*
%TD*%
%TO.C,K_44*%
X289132500Y-79775000D03*
D12*
X290402500Y-77235000D03*
D13*
X294212500Y-79775000D03*
D12*
X296752500Y-74695000D03*
D11*
X299292500Y-79775000D03*
%TD*%
%TO.C,K_30*%
X374857500Y-60725000D03*
D12*
X376127500Y-58185000D03*
D13*
X379937500Y-60725000D03*
D12*
X382477500Y-55645000D03*
D11*
X385017500Y-60725000D03*
%TD*%
%TO.C,K_66*%
X80217500Y-117875000D03*
D12*
X77677500Y-112795000D03*
D13*
X75137500Y-117875000D03*
D12*
X71327500Y-115335000D03*
D11*
X70057500Y-117875000D03*
%TD*%
%TO.C,K_64*%
X355807500Y-98825000D03*
D12*
X357077500Y-96285000D03*
D13*
X360887500Y-98825000D03*
D12*
X363427500Y-93745000D03*
D11*
X365967500Y-98825000D03*
%TD*%
%TO.C,K_58*%
X212932500Y-98825000D03*
D12*
X214202500Y-96285000D03*
D13*
X218012500Y-98825000D03*
D12*
X220552500Y-93745000D03*
D11*
X223092500Y-98825000D03*
%TD*%
%TO.C,K_21*%
X179595000Y-60725000D03*
D12*
X180865000Y-58185000D03*
D13*
X184675000Y-60725000D03*
D12*
X187215000Y-55645000D03*
D11*
X189755000Y-60725000D03*
%TD*%
%TO.C,K_43*%
X265320000Y-79775000D03*
D12*
X266590000Y-77235000D03*
D13*
X270400000Y-79775000D03*
D12*
X272940000Y-74695000D03*
D11*
X275480000Y-79775000D03*
%TD*%
%TO.C,K_48*%
X374864143Y-89283423D03*
D12*
X376134143Y-86743423D03*
D13*
X379944143Y-89283423D03*
D12*
X382484143Y-84203423D03*
D11*
X385024143Y-89283423D03*
%TD*%
%TO.C,K_71*%
X175467500Y-117875000D03*
D12*
X172927500Y-112795000D03*
D13*
X170387500Y-117875000D03*
D12*
X166577500Y-115335000D03*
D11*
X165307500Y-117875000D03*
%TD*%
%TO.C,K_40*%
X208170000Y-79775000D03*
D12*
X209440000Y-77235000D03*
D13*
X213250000Y-79775000D03*
D12*
X215790000Y-74695000D03*
D11*
X218330000Y-79775000D03*
%TD*%
%TO.C,K_52*%
X98632500Y-98825000D03*
D12*
X99902500Y-96285000D03*
D13*
X103712500Y-98825000D03*
D12*
X106252500Y-93745000D03*
D11*
X108792500Y-98825000D03*
%TD*%
%TO.C,K_80*%
X374920000Y-127500000D03*
D12*
X376190000Y-124960000D03*
D13*
X380000000Y-127500000D03*
D12*
X382540000Y-122420000D03*
D11*
X385080000Y-127500000D03*
%TD*%
%TO.C,K_F5*%
X151170000Y-32125000D03*
D12*
X152440000Y-29585000D03*
D13*
X156250000Y-32125000D03*
D12*
X158790000Y-27045000D03*
D11*
X161330000Y-32125000D03*
%TD*%
%TO.C,K_F2*%
X84637347Y-32136106D03*
D12*
X85907347Y-29596106D03*
D13*
X89717347Y-32136106D03*
D12*
X92257347Y-27056106D03*
D11*
X94797347Y-32136106D03*
%TD*%
%TO.C,K_82*%
X53388750Y-136925000D03*
D12*
X54658750Y-134385000D03*
D13*
X58468750Y-136925000D03*
D12*
X61008750Y-131845000D03*
D11*
X63548750Y-136925000D03*
%TD*%
%TO.C,K_27*%
X317707500Y-60725000D03*
D12*
X318977500Y-58185000D03*
D13*
X322787500Y-60725000D03*
D12*
X325327500Y-55645000D03*
D11*
X327867500Y-60725000D03*
%TD*%
%TO.C,K_90*%
X355807500Y-136925000D03*
D12*
X357077500Y-134385000D03*
D13*
X360887500Y-136925000D03*
D12*
X363427500Y-131845000D03*
D11*
X365967500Y-136925000D03*
%TD*%
%TO.C,K_51*%
X79582500Y-98825000D03*
D12*
X80852500Y-96285000D03*
D13*
X84662500Y-98825000D03*
D12*
X87202500Y-93745000D03*
D11*
X89742500Y-98825000D03*
%TD*%
%TO.C,K_22*%
X198645000Y-60725000D03*
D12*
X199915000Y-58185000D03*
D13*
X203725000Y-60725000D03*
D12*
X206265000Y-55645000D03*
D11*
X208805000Y-60725000D03*
%TD*%
D14*
%TO.C,K_26*%
X277512000Y-53740000D03*
D13*
X277512000Y-68980000D03*
D11*
X284370000Y-60725000D03*
D12*
X285640000Y-58185000D03*
D13*
X289450000Y-60725000D03*
D12*
X291990000Y-55645000D03*
D11*
X294530000Y-60725000D03*
D14*
X301388000Y-53740000D03*
D13*
X301388000Y-68980000D03*
%TD*%
D11*
%TO.C,K_69*%
X137367500Y-117875000D03*
D12*
X134827500Y-112795000D03*
D13*
X132287500Y-117875000D03*
D12*
X128477500Y-115335000D03*
D11*
X127207500Y-117875000D03*
%TD*%
%TO.C,K_28*%
X336757500Y-60725000D03*
D12*
X338027500Y-58185000D03*
D13*
X341837500Y-60725000D03*
D12*
X344377500Y-55645000D03*
D11*
X346917500Y-60725000D03*
%TD*%
%TO.C,K_F4*%
X122670000Y-32125000D03*
D12*
X123940000Y-29585000D03*
D13*
X127750000Y-32125000D03*
D12*
X130290000Y-27045000D03*
D11*
X132830000Y-32125000D03*
%TD*%
%TO.C,K_31*%
X31957500Y-79775000D03*
D12*
X33227500Y-77235000D03*
D13*
X37037500Y-79775000D03*
D12*
X39577500Y-74695000D03*
D11*
X42117500Y-79775000D03*
%TD*%
%TO.C,K_57*%
X193882500Y-98825000D03*
D12*
X195152500Y-96285000D03*
D13*
X198962500Y-98825000D03*
D12*
X201502500Y-93745000D03*
D11*
X204042500Y-98825000D03*
%TD*%
%TO.C,K_50*%
X60532500Y-98825000D03*
D12*
X61802500Y-96285000D03*
D13*
X65612500Y-98825000D03*
D12*
X68152500Y-93745000D03*
D11*
X70692500Y-98825000D03*
%TD*%
%TO.C,K_37*%
X151020000Y-79775000D03*
D12*
X152290000Y-77235000D03*
D13*
X156100000Y-79775000D03*
D12*
X158640000Y-74695000D03*
D11*
X161180000Y-79775000D03*
%TD*%
%TO.C,K_36*%
X131970000Y-79775000D03*
D12*
X133240000Y-77235000D03*
D13*
X137050000Y-79775000D03*
D12*
X139590000Y-74695000D03*
D11*
X142130000Y-79775000D03*
%TD*%
%TO.C,K_F6*%
X170202485Y-32118486D03*
D12*
X171472485Y-29578486D03*
D13*
X175282485Y-32118486D03*
D12*
X177822485Y-27038486D03*
D11*
X180362485Y-32118486D03*
%TD*%
D13*
%TO.C,K_65*%
X56119250Y-126130000D03*
D14*
X56119250Y-110890000D03*
D11*
X49261250Y-117875000D03*
D12*
X46721250Y-112795000D03*
D13*
X44181250Y-117875000D03*
D12*
X40371250Y-115335000D03*
D11*
X39101250Y-117875000D03*
D13*
X32243250Y-126130000D03*
D14*
X32243250Y-110890000D03*
%TD*%
D11*
%TO.C,K_41*%
X227220000Y-79775000D03*
D12*
X228490000Y-77235000D03*
D13*
X232300000Y-79775000D03*
D12*
X234840000Y-74695000D03*
D11*
X237380000Y-79775000D03*
%TD*%
%TO.C,K_55*%
X155782500Y-98825000D03*
D12*
X157052500Y-96285000D03*
D13*
X160862500Y-98825000D03*
D12*
X163402500Y-93745000D03*
D11*
X165942500Y-98825000D03*
%TD*%
%TO.C,K_F3*%
X103670000Y-32125000D03*
D12*
X104940000Y-29585000D03*
D13*
X108750000Y-32125000D03*
D12*
X111290000Y-27045000D03*
D11*
X113830000Y-32125000D03*
%TD*%
D15*
%TO.C,SW1*%
X391500000Y-36500000D03*
X385000000Y-36500000D03*
X391500000Y-41000000D03*
X385000000Y-41000000D03*
%TD*%
D16*
%TO.C,J1*%
X376930000Y-25180000D03*
X382710000Y-25180000D03*
D17*
X375500000Y-21500000D03*
D18*
X375500000Y-25700000D03*
D17*
X384140000Y-21500000D03*
D18*
X384140000Y-25700000D03*
%TD*%
D10*
%TO.C,D36*%
X116860000Y-88610000D03*
X116860000Y-90390000D03*
X120140000Y-90390000D03*
X120140000Y-88610000D03*
%TD*%
%TO.C,D71*%
X149360000Y-126610000D03*
X149360000Y-128390000D03*
X152640000Y-128390000D03*
X152640000Y-126610000D03*
%TD*%
%TO.C,D17*%
X87860000Y-69610000D03*
X87860000Y-71390000D03*
X91140000Y-71390000D03*
X91140000Y-69610000D03*
%TD*%
%TO.C,D62*%
X290140000Y-107610000D03*
X290140000Y-109390000D03*
X286860000Y-109390000D03*
X286860000Y-107610000D03*
%TD*%
%TO.C,D67*%
X73360000Y-126610000D03*
X73360000Y-128390000D03*
X76640000Y-128390000D03*
X76640000Y-126610000D03*
%TD*%
M02*
