M48
; DRILL file {KiCad 8.0.5} date 2024-11-10T16:14:26+1100
; FORMAT={-:-/ absolute / inch / decimal}
; #@! TF.CreationDate,2024-11-10T16:14:26+11:00
; #@! TF.GenerationSoftware,Kicad,Pcbnew,8.0.5
; #@! TF.FileFunction,Plated,5,6,Blind
FMAT,2
INCH
; #@! TA.AperFunction,Plated,Buried,ViaDrill
T1C0.0157
%
G90
G05
T1
X1.752Y-2.4016
X2.0276Y-5.3937
X2.126Y-3.189
X2.3031Y-3.8976
X2.5Y-1.2992
X2.5Y-2.4213
X2.6772Y-4.6654
X2.874Y-3.1496
X2.9528Y-5.3937
X3.0709Y-3.8976
X3.248Y-2.3819
X3.2677Y-1.2795
X3.4449Y-4.6457
X3.622Y-3.1496
X3.8189Y-3.9173
X3.9961Y-1.2795
X3.9961Y-2.4016
X4.1732Y-4.6457
X4.3701Y-3.1496
X4.5669Y-3.8976
X4.7441Y-2.4213
X4.7638Y-1.2795
X4.9409Y-4.6457
X5.1181Y-3.1299
X5.315Y-3.878
X5.4921Y-2.3819
X5.689Y-4.626
X5.7677Y-5.3937
X5.8661Y-1.2598
X5.8661Y-3.1693
X6.063Y-3.9173
X6.2598Y-2.4213
X6.437Y-4.6457
X6.6339Y-1.2598
X6.6339Y-3.1496
X6.811Y-3.9173
X6.9882Y-2.4016
X7.185Y-4.6457
X7.3819Y-1.2795
X7.3819Y-3.1693
X7.5591Y-3.8976
X7.7559Y-2.4213
X7.9331Y-4.626
X8.1299Y-1.2795
X8.1299Y-3.1496
X8.3071Y-3.8976
X8.4843Y-2.4016
X8.5827Y-5.3937
X8.6811Y-4.6457
X8.878Y-3.1496
X9.0551Y-3.8976
X9.252Y-1.2795
X9.252Y-2.4016
X9.4291Y-4.6457
X9.5276Y-5.3937
X9.626Y-3.1496
X9.8031Y-3.8976
X10.0Y-1.2992
X10.0Y-2.4016
X10.374Y-3.1496
X10.4528Y-5.374
X10.748Y-1.2598
X10.8268Y-4.626
X11.0236Y-3.8976
X11.122Y-2.3819
X11.2992Y-3.1496
X11.3976Y-5.374
X11.4961Y-1.2795
X12.3425Y-2.2441
X12.4213Y-3.1496
X12.4213Y-3.8976
X12.4213Y-4.6457
X12.7953Y-5.4134
X13.189Y-2.4016
X13.189Y-3.1496
X13.189Y-3.9173
X13.189Y-4.6654
X13.937Y-2.4016
X13.937Y-3.1693
X13.937Y-3.9173
X13.937Y-4.6457
X13.937Y-5.4134
X14.685Y-2.4016
X14.685Y-3.5039
X14.685Y-4.8228
M30
