M48
; DRILL file {KiCad 8.0.5} date 2024-11-10T16:14:26+1100
; FORMAT={-:-/ absolute / inch / decimal}
; #@! TF.CreationDate,2024-11-10T16:14:26+11:00
; #@! TF.GenerationSoftware,Kicad,Pcbnew,8.0.5
; #@! TF.FileFunction,Plated,1,2,Blind
FMAT,2
INCH
; #@! TA.AperFunction,Plated,Buried,ViaDrill
T1C0.0157
%
G90
G05
T1
X1.2008Y-2.6772
X1.2205Y-1.5551
X1.2795Y-5.6102
X1.3976Y-3.3268
X1.4567Y-4.0945
X1.6339Y-4.8228
X1.8898Y-2.6772
X2.2047Y-5.6102
X2.3228Y-3.3465
X2.5Y-4.1142
X2.6772Y-2.6772
X2.7559Y-1.5748
X2.8618Y-1.7913
X2.874Y-4.8425
X3.0906Y-3.3465
X3.1496Y-5.5906
X3.248Y-4.1142
X3.4449Y-2.6772
X3.4665Y-1.5945
X3.6024Y-4.8425
X3.8189Y-3.3465
X3.9764Y-4.1142
X4.1929Y-2.6772
X4.2323Y-1.5945
X4.3504Y-4.8425
X4.5669Y-3.3465
X4.7244Y-4.0945
X4.9409Y-1.5945
X4.9409Y-2.7165
X5.0984Y-4.8425
X5.3346Y-3.3465
X5.4724Y-4.1142
X5.689Y-2.6772
X5.8661Y-4.8425
X5.9646Y-5.6752
X6.0433Y-3.3465
X6.1024Y-1.5945
X6.2205Y-4.1142
X6.4567Y-2.6772
X6.5748Y-4.8425
X6.811Y-3.3465
X6.8307Y-1.5945
X6.9882Y-4.1142
X7.1811Y-2.6614
X7.3622Y-4.8425
X7.5591Y-3.3465
X7.5984Y-1.5945
X7.7362Y-4.1142
X7.9331Y-2.6575
X8.1496Y-4.8425
X8.3071Y-3.3465
X8.3268Y-1.5945
X8.4843Y-4.1142
X8.6614Y-2.6575
X8.7795Y-5.5906
X8.8386Y-4.8425
X9.0551Y-3.3465
X9.2323Y-4.1142
X9.4488Y-2.6772
X9.4882Y-1.5945
X9.6457Y-4.8425
X9.7244Y-5.5906
X9.8031Y-3.3465
X9.9803Y-4.1142
X10.1614Y-2.6772
X10.2165Y-1.5945
X10.5315Y-3.3465
X10.6496Y-5.5906
X10.9252Y-1.5945
X11.0433Y-4.8425
X11.2598Y-2.6772
X11.2598Y-4.1142
X11.4567Y-3.3465
X11.5945Y-5.5906
X11.6929Y-1.5945
X12.6181Y-4.8425
X12.6378Y-3.3465
X12.6378Y-4.1142
X12.6772Y-2.6772
X12.6969Y-1.0827
X13.0118Y-5.5906
X13.2938Y-2.6639
X13.3661Y-3.3465
X13.3661Y-4.8425
X13.3858Y-4.1142
X14.1142Y-3.3465
X14.1142Y-4.1142
X14.1142Y-4.8228
X14.1142Y-5.5906
X14.1319Y-2.6772
X14.8425Y-1.0827
X14.8622Y-5.2165
X14.8819Y-3.6811
X14.9016Y-2.7165
M30
