M48
; DRILL file {KiCad 8.0.6} date 2025-01-12T18:50:01+1100
; FORMAT={-:-/ absolute / inch / decimal}
; #@! TF.CreationDate,2025-01-12T18:50:01+11:00
; #@! TF.GenerationSoftware,Kicad,Pcbnew,8.0.6
; #@! TF.FileFunction,NonPlated,1,4,NPTH
FMAT,2
INCH
; #@! TA.AperFunction,NonPlated,NPTH,ComponentDrill
T1C0.0256
; #@! TA.AperFunction,NonPlated,NPTH,ComponentDrill
T2C0.0689
; #@! TA.AperFunction,NonPlated,NPTH,ComponentDrill
T3C0.1181
; #@! TA.AperFunction,NonPlated,NPTH,ComponentDrill
T4C0.1200
; #@! TA.AperFunction,NonPlated,NPTH,ComponentDrill
T5C0.1570
%
G90
G05
T1
X14.8398Y-0.9913
X15.0673Y-0.9913
T2
X1.0707Y-2.3907
X1.0728Y-1.2679
X1.1644Y-5.3907
X1.2582Y-3.1407
X1.3519Y-3.8907
X1.4707Y-2.3907
X1.4728Y-1.2679
X1.5394Y-4.6407
X1.5644Y-5.3907
X1.6582Y-3.1407
X1.7519Y-3.8907
X1.8207Y-2.3907
X1.9394Y-4.6407
X2.1019Y-5.3907
X2.1957Y-3.1407
X2.2207Y-2.3907
X2.3832Y-3.8907
X2.5019Y-5.3907
X2.5707Y-2.3907
X2.5827Y-1.2668
X2.5957Y-3.1407
X2.7582Y-4.6407
X2.7832Y-3.8907
X2.9457Y-3.1407
X2.9707Y-2.3907
X2.9827Y-1.2668
X3.0394Y-5.3907
X3.1332Y-3.8907
X3.1582Y-4.6407
X3.3207Y-2.3907
X3.3322Y-1.2652
X3.3457Y-3.1407
X3.4394Y-5.3907
X3.5082Y-4.6407
X3.5332Y-3.8907
X3.6957Y-3.1407
X3.7207Y-2.3907
X3.7322Y-1.2652
X3.8832Y-3.8907
X3.9082Y-4.6407
X4.0707Y-2.3907
X4.0815Y-1.2648
X4.0957Y-3.1407
X4.2582Y-4.6407
X4.2832Y-3.8907
X4.4457Y-3.1407
X4.4707Y-2.3907
X4.4815Y-1.2648
X4.6332Y-3.8907
X4.6582Y-4.6407
X4.8207Y-2.3907
X4.8295Y-1.2648
X4.8457Y-3.1407
X5.0082Y-4.6407
X5.0332Y-3.8907
X5.1957Y-3.1407
X5.2207Y-2.3907
X5.2295Y-1.2648
X5.3832Y-3.8907
X5.4082Y-4.6407
X5.5707Y-2.3907
X5.5957Y-3.1407
X5.7582Y-4.6407
X5.7832Y-3.8907
X5.8519Y-5.3907
X5.9457Y-3.1407
X5.9516Y-1.2648
X5.9707Y-2.3907
X6.1332Y-3.8907
X6.1582Y-4.6407
X6.2519Y-5.3907
X6.3207Y-2.3907
X6.3457Y-3.1407
X6.3516Y-1.2648
X6.5082Y-4.6407
X6.5332Y-3.8907
X6.6957Y-3.1407
X6.7009Y-1.2645
X6.7207Y-2.3907
X6.8832Y-3.8907
X6.9082Y-4.6407
X7.0707Y-2.3907
X7.0957Y-3.1407
X7.1009Y-1.2645
X7.2582Y-4.6407
X7.2832Y-3.8907
X7.4457Y-3.1407
X7.4514Y-1.2651
X7.4707Y-2.3907
X7.6332Y-3.8907
X7.6582Y-4.6407
X7.8207Y-2.3907
X7.8457Y-3.1407
X7.8514Y-1.2651
X8.0082Y-4.6407
X8.0332Y-3.8907
X8.1957Y-3.1407
X8.1995Y-1.2651
X8.2207Y-2.3907
X8.3832Y-3.8907
X8.4082Y-4.6407
X8.5707Y-2.3907
X8.5957Y-3.1407
X8.5995Y-1.2651
X8.6644Y-5.3907
X8.7582Y-4.6407
X8.7832Y-3.8907
X8.9457Y-3.1407
X8.9707Y-2.3907
X9.0644Y-5.3907
X9.1332Y-3.8907
X9.1582Y-4.6407
X9.3207Y-2.3907
X9.3374Y-1.2648
X9.3457Y-3.1407
X9.5082Y-4.6407
X9.5332Y-3.8907
X9.6019Y-5.3907
X9.6957Y-3.1407
X9.7207Y-2.3907
X9.7374Y-1.2648
X9.8832Y-3.8907
X9.9082Y-4.6407
X10.0019Y-5.3907
X10.0707Y-2.3907
X10.0859Y-1.2647
X10.0957Y-3.1407
X10.2832Y-3.8907
X10.4457Y-3.1407
X10.4707Y-2.3907
X10.4859Y-1.2647
X10.5394Y-5.3907
X10.8339Y-1.2647
X10.8457Y-3.1407
X10.9144Y-4.6407
X10.9394Y-5.3907
X11.1019Y-3.8907
X11.1957Y-2.3907
X11.2339Y-1.2647
X11.3144Y-4.6407
X11.3832Y-3.1407
X11.4769Y-5.3907
X11.5019Y-3.8907
X11.5835Y-1.2647
X11.5957Y-2.3907
X11.7832Y-3.1407
X11.8769Y-5.3907
X11.9835Y-1.2647
X12.5082Y-2.3907
X12.5082Y-3.1407
X12.5082Y-3.8907
X12.5082Y-4.6407
X12.8832Y-5.3907
X12.9082Y-2.3907
X12.9082Y-3.1407
X12.9082Y-3.8907
X12.9082Y-4.6407
X13.2582Y-2.3907
X13.2582Y-3.1407
X13.2582Y-3.8907
X13.2582Y-4.6407
X13.2832Y-5.3907
X13.6582Y-2.3907
X13.6582Y-3.1407
X13.6582Y-3.8907
X13.6582Y-4.6407
X14.0082Y-2.3907
X14.0082Y-3.1407
X14.0082Y-3.8907
X14.0082Y-4.6407
X14.0082Y-5.3907
X14.4082Y-2.3907
X14.4082Y-3.1407
X14.4082Y-3.8907
X14.4082Y-4.6407
X14.4082Y-5.3907
X14.7582Y-2.3907
X14.7584Y-3.5151
X14.7606Y-5.0197
X15.1582Y-2.3907
X15.1584Y-3.5151
X15.1606Y-5.0197
T3
X1.1207Y-2.2907
X1.1228Y-1.1679
X1.2144Y-5.2907
X1.3082Y-3.0407
X1.3707Y-2.1907
X1.3728Y-1.0679
X1.4019Y-3.7907
X1.4644Y-5.1907
X1.5582Y-2.9407
X1.5894Y-4.5407
X1.6519Y-3.6907
X1.8394Y-4.4407
X1.8707Y-2.2907
X2.1207Y-2.1907
X2.1519Y-5.2907
X2.2457Y-3.0407
X2.4019Y-5.1907
X2.4332Y-3.7907
X2.4957Y-2.9407
X2.6207Y-2.2907
X2.6327Y-1.1668
X2.6832Y-3.6907
X2.8082Y-4.5407
X2.8707Y-2.1907
X2.8827Y-1.0668
X2.9957Y-3.0407
X3.0582Y-4.4407
X3.0894Y-5.2907
X3.1832Y-3.7907
X3.2457Y-2.9407
X3.3394Y-5.1907
X3.3707Y-2.2907
X3.3822Y-1.1652
X3.4332Y-3.6907
X3.5582Y-4.5407
X3.6207Y-2.1907
X3.6322Y-1.0652
X3.7457Y-3.0407
X3.8082Y-4.4407
X3.9332Y-3.7907
X3.9957Y-2.9407
X4.1207Y-2.2907
X4.1315Y-1.1648
X4.1832Y-3.6907
X4.3082Y-4.5407
X4.3707Y-2.1907
X4.3815Y-1.0648
X4.4957Y-3.0407
X4.5582Y-4.4407
X4.6832Y-3.7907
X4.7457Y-2.9407
X4.8707Y-2.2907
X4.8795Y-1.1648
X4.9332Y-3.6907
X5.0582Y-4.5407
X5.1207Y-2.1907
X5.1295Y-1.0648
X5.2457Y-3.0407
X5.3082Y-4.4407
X5.4332Y-3.7907
X5.4957Y-2.9407
X5.6207Y-2.2907
X5.6832Y-3.6907
X5.8082Y-4.5407
X5.8707Y-2.1907
X5.9019Y-5.2907
X5.9957Y-3.0407
X6.0016Y-1.1648
X6.0582Y-4.4407
X6.1519Y-5.1907
X6.1832Y-3.7907
X6.2457Y-2.9407
X6.2516Y-1.0648
X6.3707Y-2.2907
X6.4332Y-3.6907
X6.5582Y-4.5407
X6.6207Y-2.1907
X6.7457Y-3.0407
X6.7509Y-1.1645
X6.8082Y-4.4407
X6.9332Y-3.7907
X6.9957Y-2.9407
X7.0009Y-1.0645
X7.1207Y-2.2907
X7.1832Y-3.6907
X7.3082Y-4.5407
X7.3707Y-2.1907
X7.4957Y-3.0407
X7.5014Y-1.1651
X7.5582Y-4.4407
X7.6832Y-3.7907
X7.7457Y-2.9407
X7.7514Y-1.0651
X7.8707Y-2.2907
X7.9332Y-3.6907
X8.0582Y-4.5407
X8.1207Y-2.1907
X8.2457Y-3.0407
X8.2495Y-1.1651
X8.3082Y-4.4407
X8.4332Y-3.7907
X8.4957Y-2.9407
X8.4995Y-1.0651
X8.6207Y-2.2907
X8.6832Y-3.6907
X8.7144Y-5.2907
X8.8082Y-4.5407
X8.8707Y-2.1907
X8.9644Y-5.1907
X8.9957Y-3.0407
X9.0582Y-4.4407
X9.1832Y-3.7907
X9.2457Y-2.9407
X9.3707Y-2.2907
X9.3874Y-1.1648
X9.4332Y-3.6907
X9.5582Y-4.5407
X9.6207Y-2.1907
X9.6374Y-1.0648
X9.6519Y-5.2907
X9.7457Y-3.0407
X9.8082Y-4.4407
X9.9019Y-5.1907
X9.9332Y-3.7907
X9.9957Y-2.9407
X10.1207Y-2.2907
X10.1359Y-1.1647
X10.1832Y-3.6907
X10.3707Y-2.1907
X10.3859Y-1.0647
X10.4957Y-3.0407
X10.5894Y-5.2907
X10.7457Y-2.9407
X10.8394Y-5.1907
X10.8839Y-1.1647
X10.9644Y-4.5407
X11.1339Y-1.0647
X11.1519Y-3.7907
X11.2144Y-4.4407
X11.2457Y-2.2907
X11.4019Y-3.6907
X11.4332Y-3.0407
X11.4957Y-2.1907
X11.5269Y-5.2907
X11.6335Y-1.1647
X11.6832Y-2.9407
X11.7769Y-5.1907
X11.8835Y-1.0647
X12.5582Y-2.2907
X12.5582Y-3.0407
X12.5582Y-3.7907
X12.5582Y-4.5407
X12.8082Y-2.1907
X12.8082Y-2.9407
X12.8082Y-3.6907
X12.8082Y-4.4407
X12.9332Y-5.2907
X13.1832Y-5.1907
X13.3082Y-2.2907
X13.3082Y-3.0407
X13.3082Y-3.7907
X13.3082Y-4.5407
X13.5582Y-2.1907
X13.5582Y-2.9407
X13.5582Y-3.6907
X13.5582Y-4.4407
X14.0582Y-2.2907
X14.0582Y-3.0407
X14.0582Y-3.7907
X14.0582Y-4.5407
X14.0582Y-5.2907
X14.3082Y-2.1907
X14.3082Y-2.9407
X14.3082Y-3.6907
X14.3082Y-4.4407
X14.3082Y-5.1907
X14.8082Y-2.2907
X14.8084Y-3.4151
X14.8106Y-4.9197
X15.0582Y-2.1907
X15.0584Y-3.3151
X15.0606Y-4.8197
T4
X1.2694Y-4.3657
X2.2094Y-4.3657
X4.0834Y-5.1157
X8.0204Y-5.1157
X10.6444Y-4.3657
X10.8319Y-3.6157
X10.9257Y-2.1157
X11.5844Y-4.3657
X11.7719Y-3.6157
X11.8657Y-2.1157
X12.6132Y-5.1157
X13.5532Y-5.1157
T5
X1.2694Y-4.9657
X1.2707Y-2.3907
X1.2728Y-1.2679
X1.3644Y-5.3907
X1.4582Y-3.1407
X1.5519Y-3.8907
X1.7394Y-4.6407
X2.0207Y-2.3907
X2.2094Y-4.9657
X2.3019Y-5.3907
X2.3957Y-3.1407
X2.5832Y-3.8907
X2.7707Y-2.3907
X2.7827Y-1.2668
X2.9582Y-4.6407
X3.1457Y-3.1407
X3.2394Y-5.3907
X3.3332Y-3.8907
X3.5207Y-2.3907
X3.5322Y-1.2652
X3.7082Y-4.6407
X3.8957Y-3.1407
X4.0832Y-3.8907
X4.0834Y-5.7157
X4.2707Y-2.3907
X4.2815Y-1.2648
X4.4582Y-4.6407
X4.6457Y-3.1407
X4.8332Y-3.8907
X5.0207Y-2.3907
X5.0295Y-1.2648
X5.2082Y-4.6407
X5.3957Y-3.1407
X5.5832Y-3.8907
X5.7707Y-2.3907
X5.9582Y-4.6407
X6.0519Y-5.3907
X6.1457Y-3.1407
X6.1516Y-1.2648
X6.3332Y-3.8907
X6.5207Y-2.3907
X6.7082Y-4.6407
X6.8957Y-3.1407
X6.9009Y-1.2645
X7.0832Y-3.8907
X7.2707Y-2.3907
X7.4582Y-4.6407
X7.6457Y-3.1407
X7.6514Y-1.2651
X7.8332Y-3.8907
X8.0204Y-5.7157
X8.0207Y-2.3907
X8.2082Y-4.6407
X8.3957Y-3.1407
X8.3995Y-1.2651
X8.5832Y-3.8907
X8.7707Y-2.3907
X8.8644Y-5.3907
X8.9582Y-4.6407
X9.1457Y-3.1407
X9.3332Y-3.8907
X9.5207Y-2.3907
X9.5374Y-1.2648
X9.7082Y-4.6407
X9.8019Y-5.3907
X9.8957Y-3.1407
X10.0832Y-3.8907
X10.2707Y-2.3907
X10.2859Y-1.2647
X10.6444Y-4.9657
X10.6457Y-3.1407
X10.7394Y-5.3907
X10.8319Y-4.2157
X10.9257Y-2.7157
X11.0339Y-1.2647
X11.1144Y-4.6407
X11.3019Y-3.8907
X11.3957Y-2.3907
X11.5832Y-3.1407
X11.5844Y-4.9657
X11.6769Y-5.3907
X11.7719Y-4.2157
X11.7835Y-1.2647
X11.8657Y-2.7157
X12.6132Y-5.7157
X12.7082Y-2.3907
X12.7082Y-3.1407
X12.7082Y-3.8907
X12.7082Y-4.6407
X13.0832Y-5.3907
X13.4582Y-2.3907
X13.4582Y-3.1407
X13.4582Y-3.8907
X13.4582Y-4.6407
X13.5532Y-5.7157
X14.2082Y-2.3907
X14.2082Y-3.1407
X14.2082Y-3.8907
X14.2082Y-4.6407
X14.2082Y-5.3907
X14.9582Y-2.3907
X14.9584Y-3.5151
X14.9606Y-5.0197
M30
