%TF.GenerationSoftware,KiCad,Pcbnew,8.0.6*%
%TF.CreationDate,2025-01-12T18:50:01+11:00*%
%TF.ProjectId,keyboard,6b657962-6f61-4726-942e-6b696361645f,rev?*%
%TF.SameCoordinates,Original*%
%TF.FileFunction,Soldermask,Bot*%
%TF.FilePolarity,Negative*%
%FSLAX46Y46*%
G04 Gerber Fmt 4.6, Leading zero omitted, Abs format (unit mm)*
G04 Created by KiCad (PCBNEW 8.0.6) date 2025-01-12 18:50:01*
%MOMM*%
%LPD*%
G01*
G04 APERTURE LIST*
G04 Aperture macros list*
%AMRoundRect*
0 Rectangle with rounded corners*
0 $1 Rounding radius*
0 $2 $3 $4 $5 $6 $7 $8 $9 X,Y pos of 4 corners*
0 Add a 4 corners polygon primitive as box body*
4,1,4,$2,$3,$4,$5,$6,$7,$8,$9,$2,$3,0*
0 Add four circle primitives for the rounded corners*
1,1,$1+$1,$2,$3*
1,1,$1+$1,$4,$5*
1,1,$1+$1,$6,$7*
1,1,$1+$1,$8,$9*
0 Add four rect primitives between the rounded corners*
20,1,$1+$1,$2,$3,$4,$5,0*
20,1,$1+$1,$4,$5,$6,$7,0*
20,1,$1+$1,$6,$7,$8,$9,0*
20,1,$1+$1,$8,$9,$2,$3,0*%
G04 Aperture macros list end*
%ADD10C,1.750000*%
%ADD11C,3.000000*%
%ADD12C,3.987800*%
%ADD13R,2.550000X2.500000*%
%ADD14C,3.048000*%
%ADD15RoundRect,0.225000X0.375000X-0.225000X0.375000X0.225000X-0.375000X0.225000X-0.375000X-0.225000X0*%
%ADD16R,1.500000X2.800000*%
%ADD17R,2.800000X1.500000*%
%ADD18C,2.000000*%
%ADD19R,1.500000X1.000000*%
%ADD20RoundRect,0.237500X-0.237500X0.250000X-0.237500X-0.250000X0.237500X-0.250000X0.237500X0.250000X0*%
%ADD21C,6.000000*%
%ADD22RoundRect,0.150000X0.512500X0.150000X-0.512500X0.150000X-0.512500X-0.150000X0.512500X-0.150000X0*%
%ADD23C,0.650000*%
%ADD24R,0.600000X1.240000*%
%ADD25R,0.300000X1.240000*%
%ADD26O,1.000000X1.800000*%
%ADD27O,1.000000X2.100000*%
G04 APERTURE END LIST*
D10*
%TO.C,K_19*%
X141495000Y-60725000D03*
D11*
X142765000Y-58185000D03*
D12*
X146575000Y-60725000D03*
D11*
X149115000Y-55645000D03*
D10*
X151655000Y-60725000D03*
D13*
X139490000Y-58185000D03*
X152417000Y-55645000D03*
%TD*%
D10*
%TO.C,K_20*%
X160545000Y-60725000D03*
D11*
X161815000Y-58185000D03*
D12*
X165625000Y-60725000D03*
D11*
X168165000Y-55645000D03*
D10*
X170705000Y-60725000D03*
D13*
X158540000Y-58185000D03*
X171467000Y-55645000D03*
%TD*%
D10*
%TO.C,K_16*%
X84345000Y-60725000D03*
D11*
X85615000Y-58185000D03*
D12*
X89425000Y-60725000D03*
D11*
X91965000Y-55645000D03*
D10*
X94505000Y-60725000D03*
D13*
X82340000Y-58185000D03*
X95267000Y-55645000D03*
%TD*%
D10*
%TO.C,K_F11*%
X275181706Y-32124520D03*
D11*
X276451706Y-29584520D03*
D12*
X280261706Y-32124520D03*
D11*
X282801706Y-27044520D03*
D10*
X285341706Y-32124520D03*
D13*
X273176706Y-29584520D03*
X286103706Y-27044520D03*
%TD*%
D10*
%TO.C,K_45*%
X317707500Y-79775000D03*
D11*
X318977500Y-77235000D03*
D12*
X322787500Y-79775000D03*
D11*
X325327500Y-74695000D03*
D10*
X327867500Y-79775000D03*
D13*
X315702500Y-77235000D03*
X328629500Y-74695000D03*
%TD*%
D10*
%TO.C,K_13*%
X27195000Y-60725000D03*
D11*
X28465000Y-58185000D03*
D12*
X32275000Y-60725000D03*
D11*
X34815000Y-55645000D03*
D10*
X37355000Y-60725000D03*
D13*
X25190000Y-58185000D03*
X38117000Y-55645000D03*
%TD*%
D10*
%TO.C,K_75*%
X241507500Y-117875000D03*
D11*
X242777500Y-115335000D03*
D12*
X246587500Y-117875000D03*
D11*
X249127500Y-112795000D03*
D10*
X251667500Y-117875000D03*
D13*
X239502500Y-115335000D03*
X252429500Y-112795000D03*
%TD*%
D10*
%TO.C,K_56*%
X174832500Y-98825000D03*
D11*
X176102500Y-96285000D03*
D12*
X179912500Y-98825000D03*
D11*
X182452500Y-93745000D03*
D10*
X184992500Y-98825000D03*
D13*
X172827500Y-96285000D03*
X185754500Y-93745000D03*
%TD*%
D10*
%TO.C,K_46*%
X336757500Y-79775000D03*
D11*
X338027500Y-77235000D03*
D12*
X341837500Y-79775000D03*
D11*
X344377500Y-74695000D03*
D10*
X346917500Y-79775000D03*
D13*
X334752500Y-77235000D03*
X347679500Y-74695000D03*
%TD*%
D10*
%TO.C,K_78*%
X336757500Y-117875000D03*
D11*
X338027500Y-115335000D03*
D12*
X341837500Y-117875000D03*
D11*
X344377500Y-112795000D03*
D10*
X346917500Y-117875000D03*
D13*
X334752500Y-115335000D03*
X347679500Y-112795000D03*
%TD*%
D10*
%TO.C,K_74*%
X222457500Y-117875000D03*
D11*
X223727500Y-115335000D03*
D12*
X227537500Y-117875000D03*
D11*
X230077500Y-112795000D03*
D10*
X232617500Y-117875000D03*
D13*
X220452500Y-115335000D03*
X233379500Y-112795000D03*
%TD*%
D10*
%TO.C,K_35*%
X112920000Y-79775000D03*
D11*
X114190000Y-77235000D03*
D12*
X118000000Y-79775000D03*
D11*
X120540000Y-74695000D03*
D10*
X123080000Y-79775000D03*
D13*
X110915000Y-77235000D03*
X123842000Y-74695000D03*
%TD*%
D10*
%TO.C,K_15*%
X65295000Y-60725000D03*
D11*
X66565000Y-58185000D03*
D12*
X70375000Y-60725000D03*
D11*
X72915000Y-55645000D03*
D10*
X75455000Y-60725000D03*
D13*
X63290000Y-58185000D03*
X76217000Y-55645000D03*
%TD*%
D10*
%TO.C,K_ESC1*%
X27250000Y-32205000D03*
D11*
X28520000Y-29665000D03*
D12*
X32330000Y-32205000D03*
D11*
X34870000Y-27125000D03*
D10*
X37410000Y-32205000D03*
D13*
X25245000Y-29665000D03*
X38172000Y-27125000D03*
%TD*%
D10*
%TO.C,K_38*%
X170070000Y-79775000D03*
D11*
X171340000Y-77235000D03*
D12*
X175150000Y-79775000D03*
D11*
X177690000Y-74695000D03*
D10*
X180230000Y-79775000D03*
D13*
X168065000Y-77235000D03*
X180992000Y-74695000D03*
%TD*%
D10*
%TO.C,K_79*%
X355807500Y-117875000D03*
D11*
X357077500Y-115335000D03*
D12*
X360887500Y-117875000D03*
D11*
X363427500Y-112795000D03*
D10*
X365967500Y-117875000D03*
D13*
X353802500Y-115335000D03*
X366729500Y-112795000D03*
%TD*%
D10*
%TO.C,K_86*%
X243888750Y-136925000D03*
D11*
X245158750Y-134385000D03*
D12*
X248968750Y-136925000D03*
D11*
X251508750Y-131845000D03*
D10*
X254048750Y-136925000D03*
D13*
X241883750Y-134385000D03*
X254810750Y-131845000D03*
%TD*%
D10*
%TO.C,K_F9*%
X237170000Y-32125000D03*
D11*
X238440000Y-29585000D03*
D12*
X242250000Y-32125000D03*
D11*
X244790000Y-27045000D03*
D10*
X247330000Y-32125000D03*
D13*
X235165000Y-29585000D03*
X248092000Y-27045000D03*
%TD*%
D10*
%TO.C,K_88*%
X291513750Y-136925000D03*
D11*
X292783750Y-134385000D03*
D12*
X296593750Y-136925000D03*
D11*
X299133750Y-131845000D03*
D10*
X301673750Y-136925000D03*
D13*
X289508750Y-134385000D03*
X302435750Y-131845000D03*
%TD*%
D10*
%TO.C,K_81*%
X29576250Y-136925000D03*
D11*
X30846250Y-134385000D03*
D12*
X34656250Y-136925000D03*
D11*
X37196250Y-131845000D03*
D10*
X39736250Y-136925000D03*
D13*
X27571250Y-134385000D03*
X40498250Y-131845000D03*
%TD*%
D10*
%TO.C,K_23*%
X217695000Y-60725000D03*
D11*
X218965000Y-58185000D03*
D12*
X222775000Y-60725000D03*
D11*
X225315000Y-55645000D03*
D10*
X227855000Y-60725000D03*
D13*
X215690000Y-58185000D03*
X228617000Y-55645000D03*
%TD*%
D10*
%TO.C,K_63*%
X336757500Y-98825000D03*
D11*
X338027500Y-96285000D03*
D12*
X341837500Y-98825000D03*
D11*
X344377500Y-93745000D03*
D10*
X346917500Y-98825000D03*
D13*
X334752500Y-96285000D03*
X347679500Y-93745000D03*
%TD*%
D10*
%TO.C,K_67*%
X89107500Y-117875000D03*
D11*
X90377500Y-115335000D03*
D12*
X94187500Y-117875000D03*
D11*
X96727500Y-112795000D03*
D10*
X99267500Y-117875000D03*
D13*
X87102500Y-115335000D03*
X100029500Y-112795000D03*
%TD*%
D10*
%TO.C,K_53*%
X117682500Y-98825000D03*
D11*
X118952500Y-96285000D03*
D12*
X122762500Y-98825000D03*
D11*
X125302500Y-93745000D03*
D10*
X127842500Y-98825000D03*
D13*
X115677500Y-96285000D03*
X128604500Y-93745000D03*
%TD*%
D10*
%TO.C,K_72*%
X184357500Y-117875000D03*
D11*
X185627500Y-115335000D03*
D12*
X189437500Y-117875000D03*
D11*
X191977500Y-112795000D03*
D10*
X194517500Y-117875000D03*
D13*
X182352500Y-115335000D03*
X195279500Y-112795000D03*
%TD*%
D10*
%TO.C,K_47*%
X355807500Y-79775000D03*
D11*
X357077500Y-77235000D03*
D12*
X360887500Y-79775000D03*
D11*
X363427500Y-74695000D03*
D10*
X365967500Y-79775000D03*
D13*
X353802500Y-77235000D03*
X366729500Y-74695000D03*
%TD*%
D10*
%TO.C,K_60*%
X251032500Y-98825000D03*
D11*
X252302500Y-96285000D03*
D12*
X256112500Y-98825000D03*
D11*
X258652500Y-93745000D03*
D10*
X261192500Y-98825000D03*
D13*
X249027500Y-96285000D03*
X261954500Y-93745000D03*
%TD*%
D10*
%TO.C,K_F7*%
X189266209Y-32133694D03*
D11*
X190536209Y-29593694D03*
D12*
X194346209Y-32133694D03*
D11*
X196886209Y-27053694D03*
D10*
X199426209Y-32133694D03*
D13*
X187261209Y-29593694D03*
X200188209Y-27053694D03*
%TD*%
D14*
%TO.C,K_61*%
X275130750Y-91840000D03*
D12*
X275130750Y-107080000D03*
D10*
X281988750Y-98825000D03*
D11*
X283258750Y-96285000D03*
D12*
X287068750Y-98825000D03*
D11*
X289608750Y-93745000D03*
D10*
X292148750Y-98825000D03*
D14*
X299006750Y-91840000D03*
D12*
X299006750Y-107080000D03*
D13*
X279983750Y-96285000D03*
X292910750Y-93745000D03*
%TD*%
D10*
%TO.C,K_25*%
X255795000Y-60725000D03*
D11*
X257065000Y-58185000D03*
D12*
X260875000Y-60725000D03*
D11*
X263415000Y-55645000D03*
D10*
X265955000Y-60725000D03*
D13*
X253790000Y-58185000D03*
X266717000Y-55645000D03*
%TD*%
D10*
%TO.C,K_F8*%
X208266209Y-32133694D03*
D11*
X209536209Y-29593694D03*
D12*
X213346209Y-32133694D03*
D11*
X215886209Y-27053694D03*
D10*
X218426209Y-32133694D03*
D13*
X206261209Y-29593694D03*
X219188209Y-27053694D03*
%TD*%
D10*
%TO.C,K_F12*%
X294221706Y-32124520D03*
D11*
X295491706Y-29584520D03*
D12*
X299301706Y-32124520D03*
D11*
X301841706Y-27044520D03*
D10*
X304381706Y-32124520D03*
D13*
X292216706Y-29584520D03*
X305143706Y-27044520D03*
%TD*%
D10*
%TO.C,K_33*%
X74820000Y-79775000D03*
D11*
X76090000Y-77235000D03*
D12*
X79900000Y-79775000D03*
D11*
X82440000Y-74695000D03*
D10*
X84980000Y-79775000D03*
D13*
X72815000Y-77235000D03*
X85742000Y-74695000D03*
%TD*%
D14*
%TO.C,K_76*%
X270368250Y-110890000D03*
D12*
X270368250Y-126130000D03*
D10*
X277226250Y-117875000D03*
D11*
X278496250Y-115335000D03*
D12*
X282306250Y-117875000D03*
D11*
X284846250Y-112795000D03*
D10*
X287386250Y-117875000D03*
D14*
X294244250Y-110890000D03*
D12*
X294244250Y-126130000D03*
D13*
X275221250Y-115335000D03*
X288148250Y-112795000D03*
%TD*%
D10*
%TO.C,K_73*%
X203407500Y-117875000D03*
D11*
X204677500Y-115335000D03*
D12*
X208487500Y-117875000D03*
D11*
X211027500Y-112795000D03*
D10*
X213567500Y-117875000D03*
D13*
X201402500Y-115335000D03*
X214329500Y-112795000D03*
%TD*%
D10*
%TO.C,K_70*%
X146257500Y-117875000D03*
D11*
X147527500Y-115335000D03*
D12*
X151337500Y-117875000D03*
D11*
X153877500Y-112795000D03*
D10*
X156417500Y-117875000D03*
D13*
X144252500Y-115335000D03*
X157179500Y-112795000D03*
%TD*%
D10*
%TO.C,K_24*%
X236745000Y-60725000D03*
D11*
X238015000Y-58185000D03*
D12*
X241825000Y-60725000D03*
D11*
X244365000Y-55645000D03*
D10*
X246905000Y-60725000D03*
D13*
X234740000Y-58185000D03*
X247667000Y-55645000D03*
%TD*%
D10*
%TO.C,K_54*%
X136732500Y-98825000D03*
D11*
X138002500Y-96285000D03*
D12*
X141812500Y-98825000D03*
D11*
X144352500Y-93745000D03*
D10*
X146892500Y-98825000D03*
D13*
X134727500Y-96285000D03*
X147654500Y-93745000D03*
%TD*%
D10*
%TO.C,K_29*%
X355807500Y-60725000D03*
D11*
X357077500Y-58185000D03*
D12*
X360887500Y-60725000D03*
D11*
X363427500Y-55645000D03*
D10*
X365967500Y-60725000D03*
D13*
X353802500Y-58185000D03*
X366729500Y-55645000D03*
%TD*%
D10*
%TO.C,K_F10*%
X256181706Y-32124520D03*
D11*
X257451706Y-29584520D03*
D12*
X261261706Y-32124520D03*
D11*
X263801706Y-27044520D03*
D10*
X266341706Y-32124520D03*
D13*
X254176706Y-29584520D03*
X267103706Y-27044520D03*
%TD*%
D10*
%TO.C,K_32*%
X55770000Y-79775000D03*
D11*
X57040000Y-77235000D03*
D12*
X60850000Y-79775000D03*
D11*
X63390000Y-74695000D03*
D10*
X65930000Y-79775000D03*
D13*
X53765000Y-77235000D03*
X66692000Y-74695000D03*
%TD*%
D10*
%TO.C,K_34*%
X93870000Y-79775000D03*
D11*
X95140000Y-77235000D03*
D12*
X98950000Y-79775000D03*
D11*
X101490000Y-74695000D03*
D10*
X104030000Y-79775000D03*
D13*
X91865000Y-77235000D03*
X104792000Y-74695000D03*
%TD*%
D10*
%TO.C,K_68*%
X108157500Y-117875000D03*
D11*
X109427500Y-115335000D03*
D12*
X113237500Y-117875000D03*
D11*
X115777500Y-112795000D03*
D10*
X118317500Y-117875000D03*
D13*
X106152500Y-115335000D03*
X119079500Y-112795000D03*
%TD*%
D10*
%TO.C,K_42*%
X246270000Y-79775000D03*
D11*
X247540000Y-77235000D03*
D12*
X251350000Y-79775000D03*
D11*
X253890000Y-74695000D03*
D10*
X256430000Y-79775000D03*
D13*
X244265000Y-77235000D03*
X257192000Y-74695000D03*
%TD*%
D10*
%TO.C,K_14*%
X46245000Y-60725000D03*
D11*
X47515000Y-58185000D03*
D12*
X51325000Y-60725000D03*
D11*
X53865000Y-55645000D03*
D10*
X56405000Y-60725000D03*
D13*
X44240000Y-58185000D03*
X57167000Y-55645000D03*
%TD*%
D14*
%TO.C,K_84*%
X103718850Y-129940000D03*
D12*
X103718850Y-145180000D03*
D10*
X148638750Y-136925000D03*
D11*
X149908750Y-134385000D03*
D12*
X153718750Y-136925000D03*
D11*
X156258750Y-131845000D03*
D10*
X158798750Y-136925000D03*
D14*
X203718650Y-129940000D03*
D12*
X203718650Y-145180000D03*
D13*
X146633750Y-134385000D03*
X159560750Y-131845000D03*
%TD*%
D10*
%TO.C,K_39*%
X189120000Y-79775000D03*
D11*
X190390000Y-77235000D03*
D12*
X194200000Y-79775000D03*
D11*
X196740000Y-74695000D03*
D10*
X199280000Y-79775000D03*
D13*
X187115000Y-77235000D03*
X200042000Y-74695000D03*
%TD*%
D14*
%TO.C,K_89*%
X320374500Y-129940000D03*
D12*
X320374500Y-145180000D03*
D10*
X327232500Y-136925000D03*
D11*
X328502500Y-134385000D03*
D12*
X332312500Y-136925000D03*
D11*
X334852500Y-131845000D03*
D10*
X337392500Y-136925000D03*
D14*
X344250500Y-129940000D03*
D12*
X344250500Y-145180000D03*
D13*
X325227500Y-134385000D03*
X338154500Y-131845000D03*
%TD*%
D10*
%TO.C,K_59*%
X231982500Y-98825000D03*
D11*
X233252500Y-96285000D03*
D12*
X237062500Y-98825000D03*
D11*
X239602500Y-93745000D03*
D10*
X242142500Y-98825000D03*
D13*
X229977500Y-96285000D03*
X242904500Y-93745000D03*
%TD*%
D10*
%TO.C,K_62*%
X317707500Y-98825000D03*
D11*
X318977500Y-96285000D03*
D12*
X322787500Y-98825000D03*
D11*
X325327500Y-93745000D03*
D10*
X327867500Y-98825000D03*
D13*
X315702500Y-96285000D03*
X328629500Y-93745000D03*
%TD*%
D10*
%TO.C,K_49*%
X34338750Y-98825000D03*
D11*
X35608750Y-96285000D03*
D12*
X39418750Y-98825000D03*
D11*
X41958750Y-93745000D03*
D10*
X44498750Y-98825000D03*
D13*
X32333750Y-96285000D03*
X45260750Y-93745000D03*
%TD*%
D10*
%TO.C,K_18*%
X122445000Y-60725000D03*
D11*
X123715000Y-58185000D03*
D12*
X127525000Y-60725000D03*
D11*
X130065000Y-55645000D03*
D10*
X132605000Y-60725000D03*
D13*
X120440000Y-58185000D03*
X133367000Y-55645000D03*
%TD*%
D10*
%TO.C,K_17*%
X103395000Y-60725000D03*
D11*
X104665000Y-58185000D03*
D12*
X108475000Y-60725000D03*
D11*
X111015000Y-55645000D03*
D10*
X113555000Y-60725000D03*
D13*
X101390000Y-58185000D03*
X114317000Y-55645000D03*
%TD*%
D10*
%TO.C,K_F1*%
X65599475Y-32177388D03*
D11*
X66869475Y-29637388D03*
D12*
X70679475Y-32177388D03*
D11*
X73219475Y-27097388D03*
D10*
X75759475Y-32177388D03*
D13*
X63594475Y-29637388D03*
X76521475Y-27097388D03*
%TD*%
D10*
%TO.C,K_87*%
X267701250Y-136925000D03*
D11*
X268971250Y-134385000D03*
D12*
X272781250Y-136925000D03*
D11*
X275321250Y-131845000D03*
D10*
X277861250Y-136925000D03*
D13*
X265696250Y-134385000D03*
X278623250Y-131845000D03*
%TD*%
D10*
%TO.C,K_85*%
X220076250Y-136925000D03*
D11*
X221346250Y-134385000D03*
D12*
X225156250Y-136925000D03*
D11*
X227696250Y-131845000D03*
D10*
X230236250Y-136925000D03*
D13*
X218071250Y-134385000D03*
X230998250Y-131845000D03*
%TD*%
D10*
%TO.C,K_83*%
X77201250Y-136925000D03*
D11*
X78471250Y-134385000D03*
D12*
X82281250Y-136925000D03*
D11*
X84821250Y-131845000D03*
D10*
X87361250Y-136925000D03*
D13*
X75196250Y-134385000D03*
X88123250Y-131845000D03*
%TD*%
D10*
%TO.C,K_77*%
X317707500Y-117875000D03*
D11*
X318977500Y-115335000D03*
D12*
X322787500Y-117875000D03*
D11*
X325327500Y-112795000D03*
D10*
X327867500Y-117875000D03*
D13*
X315702500Y-115335000D03*
X328629500Y-112795000D03*
%TD*%
D10*
%TO.C,K_44*%
X289132500Y-79775000D03*
D11*
X290402500Y-77235000D03*
D12*
X294212500Y-79775000D03*
D11*
X296752500Y-74695000D03*
D10*
X299292500Y-79775000D03*
D13*
X287127500Y-77235000D03*
X300054500Y-74695000D03*
%TD*%
D10*
%TO.C,K_30*%
X374857500Y-60725000D03*
D11*
X376127500Y-58185000D03*
D12*
X379937500Y-60725000D03*
D11*
X382477500Y-55645000D03*
D10*
X385017500Y-60725000D03*
D13*
X372852500Y-58185000D03*
X385779500Y-55645000D03*
%TD*%
D10*
%TO.C,K_66*%
X70057500Y-117875000D03*
D11*
X71327500Y-115335000D03*
D12*
X75137500Y-117875000D03*
D11*
X77677500Y-112795000D03*
D10*
X80217500Y-117875000D03*
D13*
X68052500Y-115335000D03*
X80979500Y-112795000D03*
%TD*%
D10*
%TO.C,K_64*%
X355807500Y-98825000D03*
D11*
X357077500Y-96285000D03*
D12*
X360887500Y-98825000D03*
D11*
X363427500Y-93745000D03*
D10*
X365967500Y-98825000D03*
D13*
X353802500Y-96285000D03*
X366729500Y-93745000D03*
%TD*%
D10*
%TO.C,K_58*%
X212932500Y-98825000D03*
D11*
X214202500Y-96285000D03*
D12*
X218012500Y-98825000D03*
D11*
X220552500Y-93745000D03*
D10*
X223092500Y-98825000D03*
D13*
X210927500Y-96285000D03*
X223854500Y-93745000D03*
%TD*%
D10*
%TO.C,K_21*%
X179595000Y-60725000D03*
D11*
X180865000Y-58185000D03*
D12*
X184675000Y-60725000D03*
D11*
X187215000Y-55645000D03*
D10*
X189755000Y-60725000D03*
D13*
X177590000Y-58185000D03*
X190517000Y-55645000D03*
%TD*%
D10*
%TO.C,K_43*%
X265320000Y-79775000D03*
D11*
X266590000Y-77235000D03*
D12*
X270400000Y-79775000D03*
D11*
X272940000Y-74695000D03*
D10*
X275480000Y-79775000D03*
D13*
X263315000Y-77235000D03*
X276242000Y-74695000D03*
%TD*%
D10*
%TO.C,K_48*%
X374864143Y-89283423D03*
D11*
X376134143Y-86743423D03*
D12*
X379944143Y-89283423D03*
D11*
X382484143Y-84203423D03*
D10*
X385024143Y-89283423D03*
D13*
X372859143Y-86743423D03*
X385786143Y-84203423D03*
%TD*%
D10*
%TO.C,K_71*%
X165307500Y-117875000D03*
D11*
X166577500Y-115335000D03*
D12*
X170387500Y-117875000D03*
D11*
X172927500Y-112795000D03*
D10*
X175467500Y-117875000D03*
D13*
X163302500Y-115335000D03*
X176229500Y-112795000D03*
%TD*%
D10*
%TO.C,K_40*%
X208170000Y-79775000D03*
D11*
X209440000Y-77235000D03*
D12*
X213250000Y-79775000D03*
D11*
X215790000Y-74695000D03*
D10*
X218330000Y-79775000D03*
D13*
X206165000Y-77235000D03*
X219092000Y-74695000D03*
%TD*%
D10*
%TO.C,K_52*%
X98632500Y-98825000D03*
D11*
X99902500Y-96285000D03*
D12*
X103712500Y-98825000D03*
D11*
X106252500Y-93745000D03*
D10*
X108792500Y-98825000D03*
D13*
X96627500Y-96285000D03*
X109554500Y-93745000D03*
%TD*%
D10*
%TO.C,K_80*%
X374920000Y-127500000D03*
D11*
X376190000Y-124960000D03*
D12*
X380000000Y-127500000D03*
D11*
X382540000Y-122420000D03*
D10*
X385080000Y-127500000D03*
D13*
X372915000Y-124960000D03*
X385842000Y-122420000D03*
%TD*%
D10*
%TO.C,K_F5*%
X151170000Y-32125000D03*
D11*
X152440000Y-29585000D03*
D12*
X156250000Y-32125000D03*
D11*
X158790000Y-27045000D03*
D10*
X161330000Y-32125000D03*
D13*
X149165000Y-29585000D03*
X162092000Y-27045000D03*
%TD*%
D10*
%TO.C,K_F2*%
X84637347Y-32136106D03*
D11*
X85907347Y-29596106D03*
D12*
X89717347Y-32136106D03*
D11*
X92257347Y-27056106D03*
D10*
X94797347Y-32136106D03*
D13*
X82632347Y-29596106D03*
X95559347Y-27056106D03*
%TD*%
D10*
%TO.C,K_82*%
X53388750Y-136925000D03*
D11*
X54658750Y-134385000D03*
D12*
X58468750Y-136925000D03*
D11*
X61008750Y-131845000D03*
D10*
X63548750Y-136925000D03*
D13*
X51383750Y-134385000D03*
X64310750Y-131845000D03*
%TD*%
D10*
%TO.C,K_27*%
X317707500Y-60725000D03*
D11*
X318977500Y-58185000D03*
D12*
X322787500Y-60725000D03*
D11*
X325327500Y-55645000D03*
D10*
X327867500Y-60725000D03*
D13*
X315702500Y-58185000D03*
X328629500Y-55645000D03*
%TD*%
D10*
%TO.C,K_90*%
X355807500Y-136925000D03*
D11*
X357077500Y-134385000D03*
D12*
X360887500Y-136925000D03*
D11*
X363427500Y-131845000D03*
D10*
X365967500Y-136925000D03*
D13*
X353802500Y-134385000D03*
X366729500Y-131845000D03*
%TD*%
D10*
%TO.C,K_51*%
X79582500Y-98825000D03*
D11*
X80852500Y-96285000D03*
D12*
X84662500Y-98825000D03*
D11*
X87202500Y-93745000D03*
D10*
X89742500Y-98825000D03*
D13*
X77577500Y-96285000D03*
X90504500Y-93745000D03*
%TD*%
D10*
%TO.C,K_22*%
X198645000Y-60725000D03*
D11*
X199915000Y-58185000D03*
D12*
X203725000Y-60725000D03*
D11*
X206265000Y-55645000D03*
D10*
X208805000Y-60725000D03*
D13*
X196640000Y-58185000D03*
X209567000Y-55645000D03*
%TD*%
D14*
%TO.C,K_26*%
X277512000Y-53740000D03*
D12*
X277512000Y-68980000D03*
D10*
X284370000Y-60725000D03*
D11*
X285640000Y-58185000D03*
D12*
X289450000Y-60725000D03*
D11*
X291990000Y-55645000D03*
D10*
X294530000Y-60725000D03*
D14*
X301388000Y-53740000D03*
D12*
X301388000Y-68980000D03*
D13*
X282365000Y-58185000D03*
X295292000Y-55645000D03*
%TD*%
D10*
%TO.C,K_69*%
X127207500Y-117875000D03*
D11*
X128477500Y-115335000D03*
D12*
X132287500Y-117875000D03*
D11*
X134827500Y-112795000D03*
D10*
X137367500Y-117875000D03*
D13*
X125202500Y-115335000D03*
X138129500Y-112795000D03*
%TD*%
D10*
%TO.C,K_28*%
X336757500Y-60725000D03*
D11*
X338027500Y-58185000D03*
D12*
X341837500Y-60725000D03*
D11*
X344377500Y-55645000D03*
D10*
X346917500Y-60725000D03*
D13*
X334752500Y-58185000D03*
X347679500Y-55645000D03*
%TD*%
D10*
%TO.C,K_F4*%
X122670000Y-32125000D03*
D11*
X123940000Y-29585000D03*
D12*
X127750000Y-32125000D03*
D11*
X130290000Y-27045000D03*
D10*
X132830000Y-32125000D03*
D13*
X120665000Y-29585000D03*
X133592000Y-27045000D03*
%TD*%
D10*
%TO.C,K_31*%
X31957500Y-79775000D03*
D11*
X33227500Y-77235000D03*
D12*
X37037500Y-79775000D03*
D11*
X39577500Y-74695000D03*
D10*
X42117500Y-79775000D03*
D13*
X29952500Y-77235000D03*
X42879500Y-74695000D03*
%TD*%
D10*
%TO.C,K_57*%
X193882500Y-98825000D03*
D11*
X195152500Y-96285000D03*
D12*
X198962500Y-98825000D03*
D11*
X201502500Y-93745000D03*
D10*
X204042500Y-98825000D03*
D13*
X191877500Y-96285000D03*
X204804500Y-93745000D03*
%TD*%
D10*
%TO.C,K_50*%
X60532500Y-98825000D03*
D11*
X61802500Y-96285000D03*
D12*
X65612500Y-98825000D03*
D11*
X68152500Y-93745000D03*
D10*
X70692500Y-98825000D03*
D13*
X58527500Y-96285000D03*
X71454500Y-93745000D03*
%TD*%
D10*
%TO.C,K_37*%
X151020000Y-79775000D03*
D11*
X152290000Y-77235000D03*
D12*
X156100000Y-79775000D03*
D11*
X158640000Y-74695000D03*
D10*
X161180000Y-79775000D03*
D13*
X149015000Y-77235000D03*
X161942000Y-74695000D03*
%TD*%
D10*
%TO.C,K_36*%
X131970000Y-79775000D03*
D11*
X133240000Y-77235000D03*
D12*
X137050000Y-79775000D03*
D11*
X139590000Y-74695000D03*
D10*
X142130000Y-79775000D03*
D13*
X129965000Y-77235000D03*
X142892000Y-74695000D03*
%TD*%
D10*
%TO.C,K_F6*%
X170202485Y-32118486D03*
D11*
X171472485Y-29578486D03*
D12*
X175282485Y-32118486D03*
D11*
X177822485Y-27038486D03*
D10*
X180362485Y-32118486D03*
D13*
X168197485Y-29578486D03*
X181124485Y-27038486D03*
%TD*%
D14*
%TO.C,K_65*%
X32243250Y-110890000D03*
D12*
X32243250Y-126130000D03*
D10*
X39101250Y-117875000D03*
D11*
X40371250Y-115335000D03*
D12*
X44181250Y-117875000D03*
D11*
X46721250Y-112795000D03*
D10*
X49261250Y-117875000D03*
D14*
X56119250Y-110890000D03*
D12*
X56119250Y-126130000D03*
D13*
X37096250Y-115335000D03*
X50023250Y-112795000D03*
%TD*%
D10*
%TO.C,K_41*%
X227220000Y-79775000D03*
D11*
X228490000Y-77235000D03*
D12*
X232300000Y-79775000D03*
D11*
X234840000Y-74695000D03*
D10*
X237380000Y-79775000D03*
D13*
X225215000Y-77235000D03*
X238142000Y-74695000D03*
%TD*%
D10*
%TO.C,K_55*%
X155782500Y-98825000D03*
D11*
X157052500Y-96285000D03*
D12*
X160862500Y-98825000D03*
D11*
X163402500Y-93745000D03*
D10*
X165942500Y-98825000D03*
D13*
X153777500Y-96285000D03*
X166704500Y-93745000D03*
%TD*%
D10*
%TO.C,K_F3*%
X103670000Y-32125000D03*
D11*
X104940000Y-29585000D03*
D12*
X108750000Y-32125000D03*
D11*
X111290000Y-27045000D03*
D10*
X113830000Y-32125000D03*
D13*
X101665000Y-29585000D03*
X114592000Y-27045000D03*
%TD*%
D15*
%TO.C,D_13*%
X40800000Y-62875000D03*
X40800000Y-59575000D03*
%TD*%
%TO.C,D_34*%
X107475000Y-81925000D03*
X107475000Y-78625000D03*
%TD*%
%TO.C,D_60*%
X264637500Y-100975000D03*
X264637500Y-97675000D03*
%TD*%
%TO.C,D_85*%
X236062500Y-139075000D03*
X236062500Y-135775000D03*
%TD*%
%TO.C,D_15*%
X78900000Y-62875000D03*
X78900000Y-59575000D03*
%TD*%
%TO.C,D_24*%
X250350000Y-62875000D03*
X250350000Y-59575000D03*
%TD*%
%TO.C,D_4*%
X136050000Y-34300000D03*
X136050000Y-31000000D03*
%TD*%
%TO.C,D_88*%
X307500000Y-139075000D03*
X307500000Y-135775000D03*
%TD*%
%TO.C,D_57*%
X207487500Y-100975000D03*
X207487500Y-97675000D03*
%TD*%
%TO.C,D_20*%
X174150000Y-62875000D03*
X174150000Y-59575000D03*
%TD*%
%TO.C,D_87*%
X283687500Y-139075000D03*
X283687500Y-135775000D03*
%TD*%
%TO.C,D_33*%
X88425000Y-81925000D03*
X88425000Y-78625000D03*
%TD*%
%TO.C,D_10*%
X269400000Y-34300000D03*
X269400000Y-31000000D03*
%TD*%
%TO.C,D_58*%
X226537500Y-100975000D03*
X226537500Y-97675000D03*
%TD*%
%TO.C,D_65*%
X64612500Y-120025000D03*
X64612500Y-116725000D03*
%TD*%
D16*
%TO.C,U1*%
X363500000Y-49150000D03*
X361500000Y-49150000D03*
X359500000Y-49150000D03*
X357500000Y-49150000D03*
X355500000Y-49150000D03*
X353500000Y-49150000D03*
X351500000Y-49150000D03*
X349500000Y-49150000D03*
X347500000Y-49150000D03*
X345500000Y-49150000D03*
D17*
X342850000Y-46500000D03*
X342850000Y-44500000D03*
X342850000Y-42500000D03*
X342850000Y-40500000D03*
X342850000Y-38500000D03*
X342850000Y-36500000D03*
X342850000Y-34500000D03*
X342850000Y-32500000D03*
X342850000Y-30500000D03*
X342850000Y-28500000D03*
D16*
X345500000Y-25850000D03*
X347500000Y-25850000D03*
X349500000Y-25850000D03*
X351500000Y-25850000D03*
X353500000Y-25850000D03*
X355500000Y-25850000D03*
X357500000Y-25850000D03*
X359500000Y-25850000D03*
X361500000Y-25850000D03*
X363500000Y-25850000D03*
D17*
X366150000Y-28500000D03*
X366150000Y-30500000D03*
X366150000Y-32500000D03*
X366150000Y-34500000D03*
X366150000Y-36500000D03*
X366150000Y-38500000D03*
X366150000Y-40500000D03*
X366150000Y-42500000D03*
X366150000Y-44500000D03*
X366150000Y-46500000D03*
%TD*%
D15*
%TO.C,D_2*%
X97950000Y-34300000D03*
X97950000Y-31000000D03*
%TD*%
%TO.C,D_39*%
X202725000Y-81925000D03*
X202725000Y-78625000D03*
%TD*%
%TO.C,D_63*%
X350362500Y-100975000D03*
X350362500Y-97675000D03*
%TD*%
%TO.C,D_41*%
X240825000Y-81925000D03*
X240825000Y-78625000D03*
%TD*%
%TO.C,D_3*%
X117000000Y-34300000D03*
X117000000Y-31000000D03*
%TD*%
%TO.C,D_1*%
X78900000Y-34300000D03*
X78900000Y-31000000D03*
%TD*%
%TO.C,D_46*%
X350362500Y-81925000D03*
X350362500Y-78625000D03*
%TD*%
%TO.C,D_12*%
X307500000Y-34300000D03*
X307500000Y-31000000D03*
%TD*%
%TO.C,D_89*%
X350362500Y-139075000D03*
X350362500Y-135775000D03*
%TD*%
%TO.C,D_84*%
X212250000Y-139075000D03*
X212250000Y-135775000D03*
%TD*%
%TO.C,D_43*%
X278925000Y-81925000D03*
X278925000Y-78625000D03*
%TD*%
%TO.C,D_14*%
X59850000Y-62875000D03*
X59850000Y-59575000D03*
%TD*%
%TO.C,D_66*%
X83662500Y-120025000D03*
X83662500Y-116725000D03*
%TD*%
%TO.C,D_82*%
X69375000Y-139075000D03*
X69375000Y-135775000D03*
%TD*%
%TO.C,D_29*%
X369412500Y-62875000D03*
X369412500Y-59575000D03*
%TD*%
%TO.C,D_25*%
X269400000Y-62875000D03*
X269400000Y-59575000D03*
%TD*%
%TO.C,D_75*%
X255112500Y-120025000D03*
X255112500Y-116725000D03*
%TD*%
D18*
%TO.C,SW1*%
X391500000Y-36500000D03*
X385000000Y-36500000D03*
X391500000Y-41000000D03*
X385000000Y-41000000D03*
%TD*%
D15*
%TO.C,D_30*%
X388462500Y-62875000D03*
X388462500Y-59575000D03*
%TD*%
%TO.C,D_49*%
X55087500Y-100975000D03*
X55087500Y-97675000D03*
%TD*%
%TO.C,D_16*%
X97950000Y-62875000D03*
X97950000Y-59575000D03*
%TD*%
%TO.C,D_56*%
X188437500Y-100975000D03*
X188437500Y-97675000D03*
%TD*%
%TO.C,D_71*%
X178912500Y-120025000D03*
X178912500Y-116725000D03*
%TD*%
%TO.C,D_21*%
X193200000Y-62875000D03*
X193200000Y-59575000D03*
%TD*%
D19*
%TO.C,JP3*%
X375500000Y-50800000D03*
X375500000Y-49500000D03*
%TD*%
D15*
%TO.C,D_22*%
X212250000Y-62875000D03*
X212250000Y-59575000D03*
%TD*%
%TO.C,D_5*%
X164625000Y-34300000D03*
X164625000Y-31000000D03*
%TD*%
%TO.C,D_38*%
X183675000Y-81925000D03*
X183675000Y-78625000D03*
%TD*%
%TO.C,D_59*%
X245587500Y-100975000D03*
X245587500Y-97675000D03*
%TD*%
%TO.C,D_52*%
X112237500Y-100975000D03*
X112237500Y-97675000D03*
%TD*%
%TO.C,D_86*%
X259875000Y-139075000D03*
X259875000Y-135775000D03*
%TD*%
%TO.C,D_54*%
X150337500Y-100975000D03*
X150337500Y-97675000D03*
%TD*%
D20*
%TO.C,R1*%
X373500000Y-26587500D03*
X373500000Y-28412500D03*
%TD*%
D15*
%TO.C,D_70*%
X159862500Y-120025000D03*
X159862500Y-116725000D03*
%TD*%
%TO.C,D_80*%
X388462500Y-129500000D03*
X388462500Y-126200000D03*
%TD*%
%TO.C,D_7*%
X202725000Y-34300000D03*
X202725000Y-31000000D03*
%TD*%
D21*
%TO.C,H1*%
X388000000Y-47000000D03*
%TD*%
D22*
%TO.C,U2*%
X374500000Y-42100000D03*
X374500000Y-43050000D03*
X374500000Y-44000000D03*
X372225000Y-44000000D03*
X372225000Y-43050000D03*
X372225000Y-42100000D03*
%TD*%
D15*
%TO.C,D_17*%
X117000000Y-62875000D03*
X117000000Y-59575000D03*
%TD*%
%TO.C,D_42*%
X259875000Y-81925000D03*
X259875000Y-78625000D03*
%TD*%
%TO.C,D_61*%
X307500000Y-100975000D03*
X307500000Y-97675000D03*
%TD*%
%TO.C,D_90*%
X369412500Y-139075000D03*
X369412500Y-135775000D03*
%TD*%
%TO.C,D_47*%
X369412500Y-81925000D03*
X369412500Y-78625000D03*
%TD*%
%TO.C,D_6*%
X183675000Y-34300000D03*
X183675000Y-31000000D03*
%TD*%
%TO.C,D_48*%
X388462500Y-91500000D03*
X388462500Y-88200000D03*
%TD*%
D19*
%TO.C,JP4*%
X379500000Y-50800000D03*
X379500000Y-49500000D03*
%TD*%
D20*
%TO.C,R2*%
X386000000Y-29587500D03*
X386000000Y-31412500D03*
%TD*%
D15*
%TO.C,D_83*%
X93187500Y-139075000D03*
X93187500Y-135775000D03*
%TD*%
%TO.C,D_78*%
X350362500Y-120025000D03*
X350362500Y-116725000D03*
%TD*%
%TO.C,D_23*%
X231300000Y-62875000D03*
X231300000Y-59575000D03*
%TD*%
%TO.C,D_45*%
X331312500Y-81925000D03*
X331312500Y-78625000D03*
%TD*%
%TO.C,D_26*%
X307500000Y-62875000D03*
X307500000Y-59575000D03*
%TD*%
%TO.C,D_37*%
X164625000Y-81925000D03*
X164625000Y-78625000D03*
%TD*%
%TO.C,D_44*%
X307500000Y-81925000D03*
X307500000Y-78625000D03*
%TD*%
%TO.C,D_72*%
X197962500Y-120025000D03*
X197962500Y-116725000D03*
%TD*%
%TO.C,D_53*%
X131287500Y-100975000D03*
X131287500Y-97675000D03*
%TD*%
%TO.C,D_67*%
X102712500Y-120025000D03*
X102712500Y-116725000D03*
%TD*%
%TO.C,D_9*%
X250350000Y-34300000D03*
X250350000Y-31000000D03*
%TD*%
D11*
%TO.C,TP3*%
X324000000Y-39000000D03*
%TD*%
D15*
%TO.C,D_74*%
X236062500Y-120025000D03*
X236062500Y-116725000D03*
%TD*%
%TO.C,D_0*%
X40800000Y-34300000D03*
X40800000Y-31000000D03*
%TD*%
%TO.C,D_77*%
X331312500Y-120025000D03*
X331312500Y-116725000D03*
%TD*%
%TO.C,D_62*%
X331312500Y-100975000D03*
X331312500Y-97675000D03*
%TD*%
%TO.C,D_79*%
X369412500Y-120025000D03*
X369412500Y-116725000D03*
%TD*%
D11*
%TO.C,TP4*%
X377000000Y-38000000D03*
%TD*%
D15*
%TO.C,D_27*%
X331312500Y-62875000D03*
X331312500Y-59575000D03*
%TD*%
%TO.C,D_50*%
X74137500Y-100975000D03*
X74137500Y-97675000D03*
%TD*%
%TO.C,D_73*%
X217012500Y-120025000D03*
X217012500Y-116725000D03*
%TD*%
%TO.C,D_55*%
X169387500Y-100975000D03*
X169387500Y-97675000D03*
%TD*%
%TO.C,D_64*%
X369412500Y-100975000D03*
X369412500Y-97675000D03*
%TD*%
%TO.C,D_35*%
X126525000Y-81925000D03*
X126525000Y-78625000D03*
%TD*%
%TO.C,D_68*%
X121762500Y-120025000D03*
X121762500Y-116725000D03*
%TD*%
%TO.C,D_19*%
X155100000Y-62875000D03*
X155100000Y-59575000D03*
%TD*%
%TO.C,D_69*%
X140812500Y-120025000D03*
X140812500Y-116725000D03*
%TD*%
%TO.C,D_32*%
X69375000Y-81925000D03*
X69375000Y-78625000D03*
%TD*%
%TO.C,D_11*%
X288450000Y-34300000D03*
X288450000Y-31000000D03*
%TD*%
%TO.C,D_81*%
X45562500Y-139075000D03*
X45562500Y-135775000D03*
%TD*%
%TO.C,D_18*%
X136050000Y-62875000D03*
X136050000Y-59575000D03*
%TD*%
%TO.C,D_8*%
X221775000Y-34300000D03*
X221775000Y-31000000D03*
%TD*%
%TO.C,D_51*%
X93187500Y-100975000D03*
X93187500Y-97675000D03*
%TD*%
%TO.C,D_36*%
X145575000Y-81925000D03*
X145575000Y-78625000D03*
%TD*%
%TO.C,D_31*%
X50325000Y-81925000D03*
X50325000Y-78625000D03*
%TD*%
%TO.C,D_76*%
X307500000Y-120025000D03*
X307500000Y-116725000D03*
%TD*%
%TO.C,D_40*%
X221775000Y-81925000D03*
X221775000Y-78625000D03*
%TD*%
D23*
%TO.C,J1*%
X376930000Y-25180000D03*
X382710000Y-25180000D03*
D24*
X376620000Y-26300000D03*
X377420000Y-26300000D03*
D25*
X378570000Y-26300000D03*
X379570000Y-26300000D03*
X380070000Y-26300000D03*
X381070000Y-26300000D03*
D24*
X382220000Y-26300000D03*
X383020000Y-26300000D03*
X383020000Y-26300000D03*
X382220000Y-26300000D03*
D25*
X381570000Y-26300000D03*
X380570000Y-26300000D03*
X379070000Y-26300000D03*
X378070000Y-26300000D03*
D24*
X377420000Y-26300000D03*
X376620000Y-26300000D03*
D26*
X375500000Y-21500000D03*
D27*
X375500000Y-25700000D03*
D26*
X384140000Y-21500000D03*
D27*
X384140000Y-25700000D03*
%TD*%
D15*
%TO.C,D_28*%
X350362500Y-62875000D03*
X350362500Y-59575000D03*
%TD*%
M02*
