%TF.GenerationSoftware,KiCad,Pcbnew,8.0.5*%
%TF.CreationDate,2024-11-10T22:51:29+11:00*%
%TF.ProjectId,keyboard,6b657962-6f61-4726-942e-6b696361645f,rev?*%
%TF.SameCoordinates,Original*%
%TF.FileFunction,Copper,L3,Inr*%
%TF.FilePolarity,Positive*%
%FSLAX46Y46*%
G04 Gerber Fmt 4.6, Leading zero omitted, Abs format (unit mm)*
G04 Created by KiCad (PCBNEW 8.0.5) date 2024-11-10 22:51:29*
%MOMM*%
%LPD*%
G01*
G04 APERTURE LIST*
%TA.AperFunction,ComponentPad*%
%ADD10C,2.000000*%
%TD*%
%TA.AperFunction,ComponentPad*%
%ADD11O,1.000000X1.800000*%
%TD*%
%TA.AperFunction,ComponentPad*%
%ADD12O,1.000000X2.100000*%
%TD*%
%TA.AperFunction,ViaPad*%
%ADD13C,0.800000*%
%TD*%
%TA.AperFunction,Conductor*%
%ADD14C,0.250000*%
%TD*%
G04 APERTURE END LIST*
D10*
%TO.N,GND*%
%TO.C,SW1*%
X391500000Y-36500000D03*
X385000000Y-36500000D03*
%TO.N,Net-(U1-BOOTSEL)*%
X391500000Y-41000000D03*
X385000000Y-41000000D03*
%TD*%
D11*
%TO.N,unconnected-(J1-SHIELD-PadS1)_3*%
%TO.C,J1*%
X375500000Y-21500000D03*
D12*
%TO.N,unconnected-(J1-SHIELD-PadS1)_1*%
X375500000Y-25700000D03*
D11*
%TO.N,unconnected-(J1-SHIELD-PadS1)_2*%
X384140000Y-21500000D03*
D12*
%TO.N,unconnected-(J1-SHIELD-PadS1)*%
X384140000Y-25700000D03*
%TD*%
D13*
%TO.N,col17*%
X355500000Y-132500000D03*
X354000000Y-132000000D03*
%TO.N,LED_PWR*%
X287500000Y-40500000D03*
X289000000Y-39500000D03*
%TO.N,LED_GND*%
X43000000Y-149615000D03*
X43000000Y-144500000D03*
%TO.N,LED_PWR*%
X371500000Y-136500000D03*
%TO.N,LED_GND*%
X370000000Y-132500000D03*
%TO.N,LED_PWR*%
X371500000Y-131500000D03*
X371500000Y-129000000D03*
%TO.N,LED_GND*%
X365000000Y-128000000D03*
%TO.N,LED_PWR*%
X39875000Y-124625000D03*
X50000000Y-124500000D03*
%TO.N,LED_GND*%
X47999983Y-128999983D03*
X48000000Y-125500000D03*
%TO.N,LED_PWR*%
X368610000Y-98610000D03*
X374500000Y-93000000D03*
%TO.N,LED_GND*%
X355500000Y-90500000D03*
X365000000Y-90390000D03*
X375000000Y-98000000D03*
X386500000Y-93500000D03*
X299000000Y-46500000D03*
X302500000Y-46500000D03*
%TO.N,col1*%
X59500000Y-33500000D03*
X44500000Y-55000000D03*
X51500000Y-137000000D03*
X44500000Y-61000000D03*
%TO.N,col2*%
X63500000Y-33000000D03*
X63500000Y-61500000D03*
X58500000Y-99000000D03*
X68000000Y-118500000D03*
X54000000Y-81000000D03*
%TO.N,col3*%
X83000000Y-32500000D03*
X87500000Y-118000000D03*
X73000000Y-80000000D03*
X75000000Y-137000000D03*
X82500000Y-60500000D03*
X78000000Y-99000000D03*
%TO.N,col4*%
X97000000Y-99500000D03*
X101500000Y-61000000D03*
X101500000Y-32500000D03*
X92000000Y-80000000D03*
X106000000Y-118000000D03*
%TO.N,col5*%
X111000000Y-80000000D03*
X125500000Y-118000000D03*
X116000000Y-99000000D03*
X120500000Y-61500000D03*
X121000000Y-32500000D03*
%TO.N,col6*%
X142500000Y-28500000D03*
X139500000Y-53500000D03*
X135000000Y-98500000D03*
X139500000Y-60500000D03*
X146500000Y-137000000D03*
X144500000Y-117500000D03*
X130000000Y-79500000D03*
%TO.N,col7*%
X149000000Y-80500000D03*
X159000000Y-61500000D03*
X154000000Y-99500000D03*
X149000000Y-32000000D03*
X163500000Y-118000000D03*
%TO.N,col8*%
X177500000Y-61000000D03*
X182500000Y-118000000D03*
X173000000Y-99500000D03*
X168500000Y-32000000D03*
X168500000Y-80000000D03*
%TO.N,col9*%
X201500000Y-117500000D03*
X197000000Y-61500000D03*
X192000000Y-99000000D03*
X187500000Y-32500000D03*
X187500000Y-80500000D03*
%TO.N,col10*%
X218000000Y-137000000D03*
X211000000Y-99000000D03*
X206500000Y-80000000D03*
X215500000Y-61000000D03*
X206500000Y-32500000D03*
X220500000Y-118000000D03*
%TO.N,col11*%
X242000000Y-137000000D03*
X235000000Y-61000000D03*
X235000000Y-32500000D03*
X230000000Y-99000000D03*
X225500000Y-80000000D03*
X239500000Y-118000000D03*
%TO.N,col12*%
X254000000Y-33000000D03*
X249000000Y-99000000D03*
X254000000Y-61000000D03*
X244500000Y-80000000D03*
%TO.N,col13*%
X263500000Y-80000000D03*
X280000000Y-99000000D03*
X265500000Y-136500000D03*
X275000000Y-117500000D03*
X273000000Y-32000014D03*
%TO.N,col14*%
X292000000Y-32500000D03*
X287000000Y-80000000D03*
X282500000Y-60500000D03*
X289500000Y-136500000D03*
%TO.N,col15*%
X315500000Y-118000000D03*
X315500000Y-99000000D03*
X315500000Y-80000000D03*
X313500000Y-57000000D03*
%TO.N,col16*%
X335000000Y-99500000D03*
X335000000Y-61000000D03*
X335000000Y-80000000D03*
X325000000Y-137500000D03*
X335000000Y-118500000D03*
%TO.N,col17*%
X354000000Y-99500000D03*
X354000000Y-80500000D03*
X354000000Y-118000000D03*
X354000000Y-61000000D03*
%TO.N,col18*%
X373000000Y-61000000D03*
X373000000Y-89000000D03*
X373000000Y-122500000D03*
%TO.N,row0*%
X312249991Y-34249991D03*
X345500000Y-51500000D03*
%TO.N,row1*%
X390775000Y-63000000D03*
X347500000Y-51500000D03*
%TO.N,row2*%
X391000000Y-91500000D03*
X349500000Y-51500000D03*
%TO.N,row3*%
X351500000Y-51500000D03*
X372000000Y-102000000D03*
%TO.N,row4*%
X353500000Y-51500000D03*
X390000000Y-129500000D03*
%TO.N,row5*%
X372000000Y-139000000D03*
X355500000Y-51225000D03*
%TO.N,+5V *%
X375000000Y-28500000D03*
X373900000Y-32500000D03*
X384500000Y-28500000D03*
X379250035Y-28180510D03*
X307000000Y-35999996D03*
%TO.N,Net-(U1-USB_D+)*%
X370000000Y-38500000D03*
X380000000Y-24000000D03*
%TO.N,Net-(U1-USB_D-)*%
X370951987Y-36451997D03*
X378951992Y-24325000D03*
%TD*%
D14*
%TO.N,col17*%
X354000000Y-118000000D02*
X354000000Y-132000000D01*
%TO.N,col1*%
X51500000Y-68000000D02*
X44500000Y-61000000D01*
X51500000Y-137000000D02*
X51500000Y-68000000D01*
%TO.N,col2*%
X63500000Y-33000000D02*
X63500000Y-61500000D01*
X58915000Y-66085000D02*
X58915000Y-78397767D01*
X58500000Y-99000000D02*
X68000000Y-108500000D01*
X58915000Y-78397767D02*
X56287767Y-81025000D01*
X63500000Y-61500000D02*
X58915000Y-66085000D01*
X54025000Y-81025000D02*
X54000000Y-81000000D01*
X54000000Y-81000000D02*
X54000000Y-94500000D01*
X56287767Y-81025000D02*
X54025000Y-81025000D01*
X54000000Y-94500000D02*
X58500000Y-99000000D01*
X68000000Y-108500000D02*
X68000000Y-118500000D01*
%TO.N,col3*%
X82500000Y-60500000D02*
X73000000Y-70000000D01*
X75000000Y-130500000D02*
X75000000Y-137000000D01*
X78000000Y-108500000D02*
X87500000Y-118000000D01*
X87500000Y-118000000D02*
X75000000Y-130500000D01*
X73000000Y-94000000D02*
X78000000Y-99000000D01*
X83000000Y-60000000D02*
X82500000Y-60500000D01*
X73000000Y-70000000D02*
X73000000Y-80000000D01*
X83000000Y-32500000D02*
X83000000Y-60000000D01*
X78000000Y-99000000D02*
X78000000Y-108500000D01*
X73000000Y-80000000D02*
X73000000Y-94000000D01*
%TO.N,col4*%
X102000000Y-33000000D02*
X101500000Y-32500000D01*
X106000000Y-118000000D02*
X106000000Y-108500000D01*
X92000000Y-80000000D02*
X92000000Y-77723350D01*
X97000000Y-99500000D02*
X97000000Y-85000000D01*
X106000000Y-108500000D02*
X97000000Y-99500000D01*
X101500000Y-68223350D02*
X101500000Y-61000000D01*
X102000000Y-60500000D02*
X102000000Y-33000000D01*
X97000000Y-85000000D02*
X92000000Y-80000000D01*
X92000000Y-77723350D02*
X101500000Y-68223350D01*
X101500000Y-61000000D02*
X102000000Y-60500000D01*
%TO.N,col5*%
X116000000Y-99000000D02*
X125500000Y-108500000D01*
X121000000Y-61000000D02*
X120500000Y-61500000D01*
X111500000Y-94500000D02*
X116000000Y-99000000D01*
X125500000Y-108500000D02*
X125500000Y-118000000D01*
X111000000Y-80000000D02*
X111500000Y-80500000D01*
X111500000Y-80500000D02*
X111500000Y-94500000D01*
X121000000Y-32500000D02*
X121000000Y-61000000D01*
X111000000Y-71000000D02*
X111000000Y-80000000D01*
X120500000Y-61500000D02*
X111000000Y-71000000D01*
%TO.N,col6*%
X135000000Y-107000000D02*
X135000000Y-98500000D01*
X144500000Y-116500000D02*
X135000000Y-107000000D01*
X135000000Y-98500000D02*
X130000000Y-93500000D01*
X130000000Y-93500000D02*
X130000000Y-79500000D01*
X130000000Y-77823350D02*
X139500000Y-68323350D01*
X130000000Y-79500000D02*
X130000000Y-77823350D01*
X146500000Y-137000000D02*
X144500000Y-135000000D01*
X139500000Y-68323350D02*
X139500000Y-60500000D01*
X144500000Y-135000000D02*
X144500000Y-117500000D01*
X144500000Y-117500000D02*
X144500000Y-116500000D01*
%TO.N,col7*%
X149000000Y-71500000D02*
X149000000Y-80500000D01*
X149000000Y-32000000D02*
X149000000Y-51500000D01*
X163500000Y-109000000D02*
X163500000Y-118000000D01*
X149000000Y-94500000D02*
X154000000Y-99500000D01*
X154000000Y-99500000D02*
X163500000Y-109000000D01*
X149000000Y-80500000D02*
X149000000Y-94500000D01*
X149000000Y-51500000D02*
X159000000Y-61500000D01*
X159000000Y-61500000D02*
X149000000Y-71500000D01*
%TO.N,col8*%
X177500000Y-68423350D02*
X177500000Y-61000000D01*
X182500000Y-109000000D02*
X173000000Y-99500000D01*
X168500000Y-80000000D02*
X168500000Y-77423350D01*
X168500000Y-52000000D02*
X168500000Y-32000000D01*
X173000000Y-99500000D02*
X173000000Y-84500000D01*
X177500000Y-61000000D02*
X168500000Y-52000000D01*
X173000000Y-84500000D02*
X168500000Y-80000000D01*
X168500000Y-77423350D02*
X177500000Y-68423350D01*
X182500000Y-118000000D02*
X182500000Y-109000000D01*
%TO.N,col9*%
X187500000Y-80500000D02*
X187500000Y-94500000D01*
X187500000Y-32500000D02*
X197000000Y-42000000D01*
X187500000Y-94500000D02*
X192000000Y-99000000D01*
X196973350Y-68000000D02*
X187500000Y-77473350D01*
X197000000Y-68000000D02*
X196973350Y-68000000D01*
X197000000Y-42000000D02*
X197000000Y-61500000D01*
X192000000Y-99000000D02*
X192000000Y-108000000D01*
X192000000Y-108000000D02*
X201500000Y-117500000D01*
X187500000Y-77473350D02*
X187500000Y-80500000D01*
X197000000Y-61500000D02*
X197000000Y-68000000D01*
%TO.N,col10*%
X206920000Y-79580000D02*
X206920000Y-69580000D01*
X218000000Y-137000000D02*
X218000000Y-120500000D01*
X211000000Y-84500000D02*
X206500000Y-80000000D01*
X220500000Y-108500000D02*
X211000000Y-99000000D01*
X206500000Y-80000000D02*
X206920000Y-79580000D01*
X206920000Y-69580000D02*
X215500000Y-61000000D01*
X211000000Y-99000000D02*
X211000000Y-84500000D01*
X220500000Y-118000000D02*
X220500000Y-108500000D01*
X215500000Y-41500000D02*
X206500000Y-32500000D01*
X215500000Y-61000000D02*
X215500000Y-41500000D01*
X218000000Y-120500000D02*
X220500000Y-118000000D01*
%TO.N,col11*%
X239500000Y-118000000D02*
X239500000Y-134500000D01*
X235000000Y-32500000D02*
X235000000Y-61000000D01*
X230000000Y-99000000D02*
X239500000Y-108500000D01*
X225500000Y-79727233D02*
X225500000Y-80000000D01*
X226363616Y-69636384D02*
X226363616Y-78863617D01*
X226363616Y-78863617D02*
X225500000Y-79727233D01*
X239500000Y-134500000D02*
X242000000Y-137000000D01*
X230000000Y-84500000D02*
X230000000Y-99000000D01*
X225500000Y-80000000D02*
X230000000Y-84500000D01*
X235000000Y-61000000D02*
X226363616Y-69636384D01*
X239500000Y-108500000D02*
X239500000Y-118000000D01*
%TO.N,col12*%
X244500000Y-80000000D02*
X249000000Y-84500000D01*
X244500000Y-80000000D02*
X244500000Y-70500000D01*
X254000000Y-61000000D02*
X254000000Y-33000000D01*
X249000000Y-84500000D02*
X249000000Y-99000000D01*
X244500000Y-70500000D02*
X254000000Y-61000000D01*
%TO.N,col13*%
X263500000Y-80000000D02*
X263500000Y-77673350D01*
X280000000Y-99000000D02*
X280000000Y-92725131D01*
X280000000Y-111179600D02*
X280000000Y-99000000D01*
X273000000Y-33500000D02*
X273000000Y-32000000D01*
X265500000Y-134348381D02*
X275000000Y-124848381D01*
X275000000Y-117500000D02*
X275000000Y-116179600D01*
X275000000Y-124848381D02*
X275000000Y-117500000D01*
X263500000Y-77673350D02*
X273000000Y-68173350D01*
X273000000Y-68173350D02*
X273000000Y-33500000D01*
X275000000Y-116179600D02*
X280000000Y-111179600D01*
X273000000Y-33500000D02*
X273000000Y-32500000D01*
X280000000Y-92725131D02*
X268299869Y-81025000D01*
X264525000Y-81025000D02*
X263500000Y-80000000D01*
X273000000Y-32500000D02*
X273000000Y-32000014D01*
X265500000Y-136500000D02*
X265500000Y-134348381D01*
X268299869Y-81025000D02*
X264525000Y-81025000D01*
%TO.N,col14*%
X287000000Y-80000000D02*
X287000000Y-95406119D01*
X282500000Y-42000000D02*
X282500000Y-60500000D01*
X282500000Y-60500000D02*
X283000000Y-61000000D01*
X283000000Y-76000000D02*
X287000000Y-80000000D01*
X283000000Y-61000000D02*
X283000000Y-76000000D01*
X287000000Y-95406119D02*
X289500000Y-97906119D01*
X289500000Y-97906119D02*
X289500000Y-136500000D01*
X292000000Y-32500000D02*
X282500000Y-42000000D01*
%TO.N,col15*%
X313500000Y-57000000D02*
X313500000Y-78000000D01*
X313500000Y-78000000D02*
X315500000Y-80000000D01*
X315500000Y-80000000D02*
X315500000Y-99000000D01*
X315500000Y-99000000D02*
X315500000Y-118000000D01*
%TO.N,col16*%
X335500000Y-80500000D02*
X335000000Y-80000000D01*
X335500000Y-61500000D02*
X335000000Y-61000000D01*
X325000000Y-137500000D02*
X325000000Y-128500000D01*
X335500000Y-99000000D02*
X335500000Y-80500000D01*
X335000000Y-99500000D02*
X335500000Y-99000000D01*
X335000000Y-80000000D02*
X335500000Y-79500000D01*
X325000000Y-128500000D02*
X335000000Y-118500000D01*
X335000000Y-118500000D02*
X335000000Y-99500000D01*
X335500000Y-79500000D02*
X335500000Y-61500000D01*
%TO.N,col17*%
X354500000Y-99000000D02*
X354000000Y-99500000D01*
X354500000Y-81000000D02*
X354500000Y-99000000D01*
X354000000Y-80500000D02*
X354500000Y-81000000D01*
X354000000Y-99500000D02*
X354000000Y-118000000D01*
X354000000Y-61000000D02*
X354000000Y-80500000D01*
%TO.N,col18*%
X373000000Y-122500000D02*
X373000000Y-89000000D01*
X373000000Y-89000000D02*
X373000000Y-61000000D01*
%TD*%
M02*
