%TF.GenerationSoftware,KiCad,Pcbnew,8.0.5*%
%TF.CreationDate,2024-11-10T22:51:29+11:00*%
%TF.ProjectId,keyboard,6b657962-6f61-4726-942e-6b696361645f,rev?*%
%TF.SameCoordinates,Original*%
%TF.FileFunction,Copper,L4,Bot*%
%TF.FilePolarity,Positive*%
%FSLAX46Y46*%
G04 Gerber Fmt 4.6, Leading zero omitted, Abs format (unit mm)*
G04 Created by KiCad (PCBNEW 8.0.5) date 2024-11-10 22:51:29*
%MOMM*%
%LPD*%
G01*
G04 APERTURE LIST*
G04 Aperture macros list*
%AMRoundRect*
0 Rectangle with rounded corners*
0 $1 Rounding radius*
0 $2 $3 $4 $5 $6 $7 $8 $9 X,Y pos of 4 corners*
0 Add a 4 corners polygon primitive as box body*
4,1,4,$2,$3,$4,$5,$6,$7,$8,$9,$2,$3,0*
0 Add four circle primitives for the rounded corners*
1,1,$1+$1,$2,$3*
1,1,$1+$1,$4,$5*
1,1,$1+$1,$6,$7*
1,1,$1+$1,$8,$9*
0 Add four rect primitives between the rounded corners*
20,1,$1+$1,$2,$3,$4,$5,0*
20,1,$1+$1,$4,$5,$6,$7,0*
20,1,$1+$1,$6,$7,$8,$9,0*
20,1,$1+$1,$8,$9,$2,$3,0*%
G04 Aperture macros list end*
%TA.AperFunction,SMDPad,CuDef*%
%ADD10R,2.550000X2.500000*%
%TD*%
%TA.AperFunction,SMDPad,CuDef*%
%ADD11RoundRect,0.225000X0.375000X-0.225000X0.375000X0.225000X-0.375000X0.225000X-0.375000X-0.225000X0*%
%TD*%
%TA.AperFunction,SMDPad,CuDef*%
%ADD12R,1.500000X2.800000*%
%TD*%
%TA.AperFunction,SMDPad,CuDef*%
%ADD13R,2.800000X1.500000*%
%TD*%
%TA.AperFunction,ComponentPad*%
%ADD14C,2.000000*%
%TD*%
%TA.AperFunction,SMDPad,CuDef*%
%ADD15C,3.000000*%
%TD*%
%TA.AperFunction,SMDPad,CuDef*%
%ADD16RoundRect,0.237500X-0.237500X0.250000X-0.237500X-0.250000X0.237500X-0.250000X0.237500X0.250000X0*%
%TD*%
%TA.AperFunction,SMDPad,CuDef*%
%ADD17R,0.600000X1.240000*%
%TD*%
%TA.AperFunction,SMDPad,CuDef*%
%ADD18R,0.300000X1.240000*%
%TD*%
%TA.AperFunction,ComponentPad*%
%ADD19O,1.000000X1.800000*%
%TD*%
%TA.AperFunction,ComponentPad*%
%ADD20O,1.000000X2.100000*%
%TD*%
%TA.AperFunction,ViaPad*%
%ADD21C,0.800000*%
%TD*%
%TA.AperFunction,Conductor*%
%ADD22C,0.250000*%
%TD*%
%TA.AperFunction,Conductor*%
%ADD23C,1.000000*%
%TD*%
G04 APERTURE END LIST*
D10*
%TO.P,K_19,1,COL*%
%TO.N,col6*%
X139490000Y-58185000D03*
%TO.P,K_19,2,ROW*%
%TO.N,Net-(D_19-A)*%
X152417000Y-55645000D03*
%TD*%
%TO.P,K_20,1,COL*%
%TO.N,col7*%
X158540000Y-58185000D03*
%TO.P,K_20,2,ROW*%
%TO.N,Net-(D_20-A)*%
X171467000Y-55645000D03*
%TD*%
%TO.P,K_16,1,COL*%
%TO.N,col3*%
X82340000Y-58185000D03*
%TO.P,K_16,2,ROW*%
%TO.N,Net-(D_16-A)*%
X95267000Y-55645000D03*
%TD*%
%TO.P,K_F11,1,COL*%
%TO.N,col13*%
X273176706Y-29584520D03*
%TO.P,K_F11,2,ROW*%
%TO.N,Net-(D_11-A)*%
X286103706Y-27044520D03*
%TD*%
%TO.P,K_45,1,COL*%
%TO.N,col15*%
X315702500Y-77235000D03*
%TO.P,K_45,2,ROW*%
%TO.N,Net-(D_45-A)*%
X328629500Y-74695000D03*
%TD*%
%TO.P,K_13,1,COL*%
%TO.N,col0*%
X25190000Y-58185000D03*
%TO.P,K_13,2,ROW*%
%TO.N,Net-(D_13-A)*%
X38117000Y-55645000D03*
%TD*%
%TO.P,K_75,2,ROW*%
%TO.N,Net-(D_75-A)*%
X252429500Y-112795000D03*
%TO.P,K_75,1,COL*%
%TO.N,col11*%
X239502500Y-115335000D03*
%TD*%
%TO.P,K_56,1,COL*%
%TO.N,col8*%
X172827500Y-96285000D03*
%TO.P,K_56,2,ROW*%
%TO.N,Net-(D_56-A)*%
X185754500Y-93745000D03*
%TD*%
%TO.P,K_46,1,COL*%
%TO.N,col16*%
X334752500Y-77235000D03*
%TO.P,K_46,2,ROW*%
%TO.N,Net-(D_46-A)*%
X347679500Y-74695000D03*
%TD*%
%TO.P,K_78,1,COL*%
%TO.N,col16*%
X334752500Y-115335000D03*
%TO.P,K_78,2,ROW*%
%TO.N,Net-(D_78-A)*%
X347679500Y-112795000D03*
%TD*%
%TO.P,K_74,2,ROW*%
%TO.N,Net-(D_74-A)*%
X233379500Y-112795000D03*
%TO.P,K_74,1,COL*%
%TO.N,col10*%
X220452500Y-115335000D03*
%TD*%
%TO.P,K_35,1,COL*%
%TO.N,col5*%
X110915000Y-77235000D03*
%TO.P,K_35,2,ROW*%
%TO.N,Net-(D_35-A)*%
X123842000Y-74695000D03*
%TD*%
%TO.P,K_15,1,COL*%
%TO.N,col2*%
X63290000Y-58185000D03*
%TO.P,K_15,2,ROW*%
%TO.N,Net-(D_15-A)*%
X76217000Y-55645000D03*
%TD*%
%TO.P,K_ESC1,1,COL*%
%TO.N,col0*%
X25245000Y-29665000D03*
%TO.P,K_ESC1,2,ROW*%
%TO.N,Net-(D_0-A)*%
X38172000Y-27125000D03*
%TD*%
%TO.P,K_38,1,COL*%
%TO.N,col8*%
X168065000Y-77235000D03*
%TO.P,K_38,2,ROW*%
%TO.N,Net-(D_38-A)*%
X180992000Y-74695000D03*
%TD*%
%TO.P,K_79,1,COL*%
%TO.N,col17*%
X353802500Y-115335000D03*
%TO.P,K_79,2,ROW*%
%TO.N,Net-(D_79-A)*%
X366729500Y-112795000D03*
%TD*%
%TO.P,K_86,1,COL*%
%TO.N,col11*%
X241883750Y-134385000D03*
%TO.P,K_86,2,ROW*%
%TO.N,Net-(D_86-A)*%
X254810750Y-131845000D03*
%TD*%
%TO.P,K_F9,1,COL*%
%TO.N,col11*%
X235165000Y-29585000D03*
%TO.P,K_F9,2,ROW*%
%TO.N,Net-(D_9-A)*%
X248092000Y-27045000D03*
%TD*%
%TO.P,K_88,1,COL*%
%TO.N,col14*%
X289508750Y-134385000D03*
%TO.P,K_88,2,ROW*%
%TO.N,Net-(D_88-A)*%
X302435750Y-131845000D03*
%TD*%
%TO.P,K_81,1,COL*%
%TO.N,col0*%
X27571250Y-134385000D03*
%TO.P,K_81,2,ROW*%
%TO.N,Net-(D_81-A)*%
X40498250Y-131845000D03*
%TD*%
%TO.P,K_23,1,COL*%
%TO.N,col10*%
X215690000Y-58185000D03*
%TO.P,K_23,2,ROW*%
%TO.N,Net-(D_23-A)*%
X228617000Y-55645000D03*
%TD*%
%TO.P,K_63,1,COL*%
%TO.N,col16*%
X334752500Y-96285000D03*
%TO.P,K_63,2,ROW*%
%TO.N,Net-(D_63-A)*%
X347679500Y-93745000D03*
%TD*%
%TO.P,K_67,2,ROW*%
%TO.N,Net-(D_67-A)*%
X100029500Y-112795000D03*
%TO.P,K_67,1,COL*%
%TO.N,col3*%
X87102500Y-115335000D03*
%TD*%
%TO.P,K_53,1,COL*%
%TO.N,col5*%
X115677500Y-96285000D03*
%TO.P,K_53,2,ROW*%
%TO.N,Net-(D_53-A)*%
X128604500Y-93745000D03*
%TD*%
%TO.P,K_72,2,ROW*%
%TO.N,Net-(D_72-A)*%
X195279500Y-112795000D03*
%TO.P,K_72,1,COL*%
%TO.N,col8*%
X182352500Y-115335000D03*
%TD*%
%TO.P,K_47,1,COL*%
%TO.N,col17*%
X353802500Y-77235000D03*
%TO.P,K_47,2,ROW*%
%TO.N,Net-(D_47-A)*%
X366729500Y-74695000D03*
%TD*%
%TO.P,K_60,1,COL*%
%TO.N,col12*%
X249027500Y-96285000D03*
%TO.P,K_60,2,ROW*%
%TO.N,Net-(D_60-A)*%
X261954500Y-93745000D03*
%TD*%
%TO.P,K_F7,1,COL*%
%TO.N,col9*%
X187261209Y-29593694D03*
%TO.P,K_F7,2,ROW*%
%TO.N,Net-(D_7-A)*%
X200188209Y-27053694D03*
%TD*%
%TO.P,K_61,2,ROW*%
%TO.N,Net-(D_61-A)*%
X292910750Y-93745000D03*
%TO.P,K_61,1,COL*%
%TO.N,col13*%
X279983750Y-96285000D03*
%TD*%
%TO.P,K_25,1,COL*%
%TO.N,col12*%
X253790000Y-58185000D03*
%TO.P,K_25,2,ROW*%
%TO.N,Net-(D_25-A)*%
X266717000Y-55645000D03*
%TD*%
%TO.P,K_F8,1,COL*%
%TO.N,col10*%
X206261209Y-29593694D03*
%TO.P,K_F8,2,ROW*%
%TO.N,Net-(D_8-A)*%
X219188209Y-27053694D03*
%TD*%
%TO.P,K_F12,1,COL*%
%TO.N,col14*%
X292216706Y-29584520D03*
%TO.P,K_F12,2,ROW*%
%TO.N,Net-(D_12-A)*%
X305143706Y-27044520D03*
%TD*%
%TO.P,K_33,1,COL*%
%TO.N,col3*%
X72815000Y-77235000D03*
%TO.P,K_33,2,ROW*%
%TO.N,Net-(D_33-A)*%
X85742000Y-74695000D03*
%TD*%
%TO.P,K_76,2,ROW*%
%TO.N,Net-(D_76-A)*%
X288148250Y-112795000D03*
%TO.P,K_76,1,COL*%
%TO.N,col13*%
X275221250Y-115335000D03*
%TD*%
%TO.P,K_73,2,ROW*%
%TO.N,Net-(D_73-A)*%
X214329500Y-112795000D03*
%TO.P,K_73,1,COL*%
%TO.N,col9*%
X201402500Y-115335000D03*
%TD*%
%TO.P,K_70,2,ROW*%
%TO.N,Net-(D_70-A)*%
X157179500Y-112795000D03*
%TO.P,K_70,1,COL*%
%TO.N,col6*%
X144252500Y-115335000D03*
%TD*%
%TO.P,K_24,1,COL*%
%TO.N,col11*%
X234740000Y-58185000D03*
%TO.P,K_24,2,ROW*%
%TO.N,Net-(D_24-A)*%
X247667000Y-55645000D03*
%TD*%
%TO.P,K_54,1,COL*%
%TO.N,col6*%
X134727500Y-96285000D03*
%TO.P,K_54,2,ROW*%
%TO.N,Net-(D_54-A)*%
X147654500Y-93745000D03*
%TD*%
%TO.P,K_29,1,COL*%
%TO.N,col17*%
X353802500Y-58185000D03*
%TO.P,K_29,2,ROW*%
%TO.N,Net-(D_29-A)*%
X366729500Y-55645000D03*
%TD*%
%TO.P,K_F10,1,COL*%
%TO.N,col12*%
X254176706Y-29584520D03*
%TO.P,K_F10,2,ROW*%
%TO.N,Net-(D_10-A)*%
X267103706Y-27044520D03*
%TD*%
%TO.P,K_32,1,COL*%
%TO.N,col2*%
X53765000Y-77235000D03*
%TO.P,K_32,2,ROW*%
%TO.N,Net-(D_32-A)*%
X66692000Y-74695000D03*
%TD*%
%TO.P,K_34,1,COL*%
%TO.N,col4*%
X91865000Y-77235000D03*
%TO.P,K_34,2,ROW*%
%TO.N,Net-(D_34-A)*%
X104792000Y-74695000D03*
%TD*%
%TO.P,K_68,2,ROW*%
%TO.N,Net-(D_68-A)*%
X119079500Y-112795000D03*
%TO.P,K_68,1,COL*%
%TO.N,col4*%
X106152500Y-115335000D03*
%TD*%
%TO.P,K_42,1,COL*%
%TO.N,col12*%
X244265000Y-77235000D03*
%TO.P,K_42,2,ROW*%
%TO.N,Net-(D_42-A)*%
X257192000Y-74695000D03*
%TD*%
%TO.P,K_14,1,COL*%
%TO.N,col1*%
X44240000Y-58185000D03*
%TO.P,K_14,2,ROW*%
%TO.N,Net-(D_14-A)*%
X57167000Y-55645000D03*
%TD*%
%TO.P,K_84,1,COL*%
%TO.N,col6*%
X146633750Y-134385000D03*
%TO.P,K_84,2,ROW*%
%TO.N,Net-(D_84-A)*%
X159560750Y-131845000D03*
%TD*%
%TO.P,K_39,1,COL*%
%TO.N,col9*%
X187115000Y-77235000D03*
%TO.P,K_39,2,ROW*%
%TO.N,Net-(D_39-A)*%
X200042000Y-74695000D03*
%TD*%
%TO.P,K_89,1,COL*%
%TO.N,col16*%
X325227500Y-134385000D03*
%TO.P,K_89,2,ROW*%
%TO.N,Net-(D_89-A)*%
X338154500Y-131845000D03*
%TD*%
%TO.P,K_59,1,COL*%
%TO.N,col11*%
X229977500Y-96285000D03*
%TO.P,K_59,2,ROW*%
%TO.N,Net-(D_59-A)*%
X242904500Y-93745000D03*
%TD*%
%TO.P,K_62,1,COL*%
%TO.N,col15*%
X315702500Y-96285000D03*
%TO.P,K_62,2,ROW*%
%TO.N,Net-(D_62-A)*%
X328629500Y-93745000D03*
%TD*%
%TO.P,K_49,1,COL*%
%TO.N,col0*%
X32333750Y-96285000D03*
%TO.P,K_49,2,ROW*%
%TO.N,Net-(D_49-A)*%
X45260750Y-93745000D03*
%TD*%
%TO.P,K_18,1,COL*%
%TO.N,col5*%
X120440000Y-58185000D03*
%TO.P,K_18,2,ROW*%
%TO.N,Net-(D_18-A)*%
X133367000Y-55645000D03*
%TD*%
%TO.P,K_17,1,COL*%
%TO.N,col4*%
X101390000Y-58185000D03*
%TO.P,K_17,2,ROW*%
%TO.N,Net-(D_17-A)*%
X114317000Y-55645000D03*
%TD*%
%TO.P,K_F1,1,COL*%
%TO.N,col2*%
X63594475Y-29637388D03*
%TO.P,K_F1,2,ROW*%
%TO.N,Net-(D_1-A)*%
X76521475Y-27097388D03*
%TD*%
%TO.P,K_87,1,COL*%
%TO.N,col13*%
X265696250Y-134385000D03*
%TO.P,K_87,2,ROW*%
%TO.N,Net-(D_87-A)*%
X278623250Y-131845000D03*
%TD*%
%TO.P,K_85,1,COL*%
%TO.N,col10*%
X218071250Y-134385000D03*
%TO.P,K_85,2,ROW*%
%TO.N,Net-(D_85-A)*%
X230998250Y-131845000D03*
%TD*%
%TO.P,K_83,1,COL*%
%TO.N,col3*%
X75196250Y-134385000D03*
%TO.P,K_83,2,ROW*%
%TO.N,Net-(D_83-A)*%
X88123250Y-131845000D03*
%TD*%
%TO.P,K_77,1,COL*%
%TO.N,col15*%
X315702500Y-115335000D03*
%TO.P,K_77,2,ROW*%
%TO.N,Net-(D_77-A)*%
X328629500Y-112795000D03*
%TD*%
%TO.P,K_44,1,COL*%
%TO.N,col14*%
X287127500Y-77235000D03*
%TO.P,K_44,2,ROW*%
%TO.N,Net-(D_44-A)*%
X300054500Y-74695000D03*
%TD*%
%TO.P,K_30,1,COL*%
%TO.N,col18*%
X372852500Y-58185000D03*
%TO.P,K_30,2,ROW*%
%TO.N,Net-(D_30-A)*%
X385779500Y-55645000D03*
%TD*%
%TO.P,K_66,2,ROW*%
%TO.N,Net-(D_66-A)*%
X80979500Y-112795000D03*
%TO.P,K_66,1,COL*%
%TO.N,col2*%
X68052500Y-115335000D03*
%TD*%
%TO.P,K_64,1,COL*%
%TO.N,col17*%
X353802500Y-96285000D03*
%TO.P,K_64,2,ROW*%
%TO.N,Net-(D_64-A)*%
X366729500Y-93745000D03*
%TD*%
%TO.P,K_58,1,COL*%
%TO.N,col10*%
X210927500Y-96285000D03*
%TO.P,K_58,2,ROW*%
%TO.N,Net-(D_58-A)*%
X223854500Y-93745000D03*
%TD*%
%TO.P,K_21,1,COL*%
%TO.N,col8*%
X177590000Y-58185000D03*
%TO.P,K_21,2,ROW*%
%TO.N,Net-(D_21-A)*%
X190517000Y-55645000D03*
%TD*%
%TO.P,K_43,1,COL*%
%TO.N,col13*%
X263315000Y-77235000D03*
%TO.P,K_43,2,ROW*%
%TO.N,Net-(D_43-A)*%
X276242000Y-74695000D03*
%TD*%
%TO.P,K_48,1,COL*%
%TO.N,col18*%
X372859143Y-86743423D03*
%TO.P,K_48,2,ROW*%
%TO.N,Net-(D_48-A)*%
X385786143Y-84203423D03*
%TD*%
%TO.P,K_71,2,ROW*%
%TO.N,Net-(D_71-A)*%
X176229500Y-112795000D03*
%TO.P,K_71,1,COL*%
%TO.N,col7*%
X163302500Y-115335000D03*
%TD*%
%TO.P,K_40,1,COL*%
%TO.N,col10*%
X206165000Y-77235000D03*
%TO.P,K_40,2,ROW*%
%TO.N,Net-(D_40-A)*%
X219092000Y-74695000D03*
%TD*%
%TO.P,K_52,1,COL*%
%TO.N,col4*%
X96627500Y-96285000D03*
%TO.P,K_52,2,ROW*%
%TO.N,Net-(D_52-A)*%
X109554500Y-93745000D03*
%TD*%
%TO.P,K_80,1,COL*%
%TO.N,col18*%
X372915000Y-124960000D03*
%TO.P,K_80,2,ROW*%
%TO.N,Net-(D_80-A)*%
X385842000Y-122420000D03*
%TD*%
%TO.P,K_F5,1,COL*%
%TO.N,col7*%
X149165000Y-29585000D03*
%TO.P,K_F5,2,ROW*%
%TO.N,Net-(D_5-A)*%
X162092000Y-27045000D03*
%TD*%
%TO.P,K_F2,1,COL*%
%TO.N,col3*%
X82632347Y-29596106D03*
%TO.P,K_F2,2,ROW*%
%TO.N,Net-(D_2-A)*%
X95559347Y-27056106D03*
%TD*%
%TO.P,K_82,1,COL*%
%TO.N,col1*%
X51383750Y-134385000D03*
%TO.P,K_82,2,ROW*%
%TO.N,Net-(D_82-A)*%
X64310750Y-131845000D03*
%TD*%
%TO.P,K_27,1,COL*%
%TO.N,col15*%
X315702500Y-58185000D03*
%TO.P,K_27,2,ROW*%
%TO.N,Net-(D_27-A)*%
X328629500Y-55645000D03*
%TD*%
%TO.P,K_90,1,COL*%
%TO.N,col17*%
X353802500Y-134385000D03*
%TO.P,K_90,2,ROW*%
%TO.N,Net-(D_90-A)*%
X366729500Y-131845000D03*
%TD*%
%TO.P,K_51,1,COL*%
%TO.N,col3*%
X77577500Y-96285000D03*
%TO.P,K_51,2,ROW*%
%TO.N,Net-(D_51-A)*%
X90504500Y-93745000D03*
%TD*%
%TO.P,K_22,1,COL*%
%TO.N,col9*%
X196640000Y-58185000D03*
%TO.P,K_22,2,ROW*%
%TO.N,Net-(D_22-A)*%
X209567000Y-55645000D03*
%TD*%
%TO.P,K_26,1,COL*%
%TO.N,col14*%
X282365000Y-58185000D03*
%TO.P,K_26,2,ROW*%
%TO.N,Net-(D_26-A)*%
X295292000Y-55645000D03*
%TD*%
%TO.P,K_69,2,ROW*%
%TO.N,Net-(D_69-A)*%
X138129500Y-112795000D03*
%TO.P,K_69,1,COL*%
%TO.N,col5*%
X125202500Y-115335000D03*
%TD*%
%TO.P,K_28,1,COL*%
%TO.N,col16*%
X334752500Y-58185000D03*
%TO.P,K_28,2,ROW*%
%TO.N,Net-(D_28-A)*%
X347679500Y-55645000D03*
%TD*%
%TO.P,K_F4,1,COL*%
%TO.N,col5*%
X120665000Y-29585000D03*
%TO.P,K_F4,2,ROW*%
%TO.N,Net-(D_4-A)*%
X133592000Y-27045000D03*
%TD*%
%TO.P,K_31,1,COL*%
%TO.N,col0*%
X29952500Y-77235000D03*
%TO.P,K_31,2,ROW*%
%TO.N,Net-(D_31-A)*%
X42879500Y-74695000D03*
%TD*%
%TO.P,K_57,1,COL*%
%TO.N,col9*%
X191877500Y-96285000D03*
%TO.P,K_57,2,ROW*%
%TO.N,Net-(D_57-A)*%
X204804500Y-93745000D03*
%TD*%
%TO.P,K_50,1,COL*%
%TO.N,col2*%
X58527500Y-96285000D03*
%TO.P,K_50,2,ROW*%
%TO.N,Net-(D_50-A)*%
X71454500Y-93745000D03*
%TD*%
%TO.P,K_37,1,COL*%
%TO.N,col7*%
X149015000Y-77235000D03*
%TO.P,K_37,2,ROW*%
%TO.N,Net-(D_37-A)*%
X161942000Y-74695000D03*
%TD*%
%TO.P,K_36,1,COL*%
%TO.N,col6*%
X129965000Y-77235000D03*
%TO.P,K_36,2,ROW*%
%TO.N,Net-(D_36-A)*%
X142892000Y-74695000D03*
%TD*%
%TO.P,K_F6,1,COL*%
%TO.N,col8*%
X168197485Y-29578486D03*
%TO.P,K_F6,2,ROW*%
%TO.N,Net-(D_6-A)*%
X181124485Y-27038486D03*
%TD*%
%TO.P,K_65,2,ROW*%
%TO.N,Net-(D_65-A)*%
X50023250Y-112795000D03*
%TO.P,K_65,1,COL*%
%TO.N,col0*%
X37096250Y-115335000D03*
%TD*%
%TO.P,K_41,1,COL*%
%TO.N,col11*%
X225215000Y-77235000D03*
%TO.P,K_41,2,ROW*%
%TO.N,Net-(D_41-A)*%
X238142000Y-74695000D03*
%TD*%
%TO.P,K_55,1,COL*%
%TO.N,col7*%
X153777500Y-96285000D03*
%TO.P,K_55,2,ROW*%
%TO.N,Net-(D_55-A)*%
X166704500Y-93745000D03*
%TD*%
%TO.P,K_F3,1,COL*%
%TO.N,col4*%
X101665000Y-29585000D03*
%TO.P,K_F3,2,ROW*%
%TO.N,Net-(D_3-A)*%
X114592000Y-27045000D03*
%TD*%
D11*
%TO.P,D_13,1,K*%
%TO.N,row1*%
X40800000Y-62875000D03*
%TO.P,D_13,2,A*%
%TO.N,Net-(D_13-A)*%
X40800000Y-59575000D03*
%TD*%
%TO.P,D_34,1,K*%
%TO.N,row2*%
X107475000Y-81925000D03*
%TO.P,D_34,2,A*%
%TO.N,Net-(D_34-A)*%
X107475000Y-78625000D03*
%TD*%
%TO.P,D_60,1,K*%
%TO.N,row3*%
X264637500Y-100975000D03*
%TO.P,D_60,2,A*%
%TO.N,Net-(D_60-A)*%
X264637500Y-97675000D03*
%TD*%
%TO.P,D_85,1,K*%
%TO.N,row5*%
X236062500Y-139075000D03*
%TO.P,D_85,2,A*%
%TO.N,Net-(D_85-A)*%
X236062500Y-135775000D03*
%TD*%
%TO.P,D_15,1,K*%
%TO.N,row1*%
X78900000Y-62875000D03*
%TO.P,D_15,2,A*%
%TO.N,Net-(D_15-A)*%
X78900000Y-59575000D03*
%TD*%
%TO.P,D_24,1,K*%
%TO.N,row1*%
X250350000Y-62875000D03*
%TO.P,D_24,2,A*%
%TO.N,Net-(D_24-A)*%
X250350000Y-59575000D03*
%TD*%
%TO.P,D_4,1,K*%
%TO.N,row0*%
X136050000Y-34300000D03*
%TO.P,D_4,2,A*%
%TO.N,Net-(D_4-A)*%
X136050000Y-31000000D03*
%TD*%
%TO.P,D_88,1,K*%
%TO.N,row5*%
X307500000Y-139075000D03*
%TO.P,D_88,2,A*%
%TO.N,Net-(D_88-A)*%
X307500000Y-135775000D03*
%TD*%
%TO.P,D_57,1,K*%
%TO.N,row3*%
X207487500Y-100975000D03*
%TO.P,D_57,2,A*%
%TO.N,Net-(D_57-A)*%
X207487500Y-97675000D03*
%TD*%
%TO.P,D_20,1,K*%
%TO.N,row1*%
X174150000Y-62875000D03*
%TO.P,D_20,2,A*%
%TO.N,Net-(D_20-A)*%
X174150000Y-59575000D03*
%TD*%
%TO.P,D_87,1,K*%
%TO.N,row5*%
X283687500Y-139075000D03*
%TO.P,D_87,2,A*%
%TO.N,Net-(D_87-A)*%
X283687500Y-135775000D03*
%TD*%
%TO.P,D_33,1,K*%
%TO.N,row2*%
X88425000Y-81925000D03*
%TO.P,D_33,2,A*%
%TO.N,Net-(D_33-A)*%
X88425000Y-78625000D03*
%TD*%
%TO.P,D_10,1,K*%
%TO.N,row0*%
X269400000Y-34300000D03*
%TO.P,D_10,2,A*%
%TO.N,Net-(D_10-A)*%
X269400000Y-31000000D03*
%TD*%
%TO.P,D_58,1,K*%
%TO.N,row3*%
X226537500Y-100975000D03*
%TO.P,D_58,2,A*%
%TO.N,Net-(D_58-A)*%
X226537500Y-97675000D03*
%TD*%
%TO.P,D_65,1,K*%
%TO.N,row4*%
X64612500Y-120025000D03*
%TO.P,D_65,2,A*%
%TO.N,Net-(D_65-A)*%
X64612500Y-116725000D03*
%TD*%
D12*
%TO.P,U1,1,GPIO0*%
%TO.N,unconnected-(U1-GPIO0-Pad1)*%
X363500000Y-49150000D03*
%TO.P,U1,2,GPIO1*%
%TO.N,unconnected-(U1-GPIO1-Pad2)*%
X361500000Y-49150000D03*
%TO.P,U1,3,GPIO2*%
%TO.N,unconnected-(U1-GPIO2-Pad3)*%
X359500000Y-49150000D03*
%TO.P,U1,4,GPIO3*%
%TO.N,unconnected-(U1-GPIO3-Pad4)*%
X357500000Y-49150000D03*
%TO.P,U1,5,GPIO4*%
%TO.N,row5*%
X355500000Y-49150000D03*
%TO.P,U1,6,GPIO5*%
%TO.N,row4*%
X353500000Y-49150000D03*
%TO.P,U1,7,GPIO6*%
%TO.N,row3*%
X351500000Y-49150000D03*
%TO.P,U1,8,GPIO7*%
%TO.N,row2*%
X349500000Y-49150000D03*
%TO.P,U1,9,GPIO8*%
%TO.N,row1*%
X347500000Y-49150000D03*
%TO.P,U1,10,GPIO9*%
%TO.N,row0*%
X345500000Y-49150000D03*
D13*
%TO.P,U1,11,GPIO10*%
%TO.N,col18*%
X342850000Y-46500000D03*
%TO.P,U1,12,GPIO11*%
%TO.N,col17*%
X342850000Y-44500000D03*
%TO.P,U1,13,GPIO12*%
%TO.N,col16*%
X342850000Y-42500000D03*
%TO.P,U1,14,GPIO13*%
%TO.N,col15*%
X342850000Y-40500000D03*
%TO.P,U1,15,GPIO14*%
%TO.N,col14*%
X342850000Y-38500000D03*
%TO.P,U1,16,GPIO15*%
%TO.N,col13*%
X342850000Y-36500000D03*
%TO.P,U1,17,GPIO16*%
%TO.N,col12*%
X342850000Y-34500000D03*
%TO.P,U1,18,GPIO17*%
%TO.N,col11*%
X342850000Y-32500000D03*
%TO.P,U1,19,GPIO18*%
%TO.N,col10*%
X342850000Y-30500000D03*
%TO.P,U1,20,GPIO19*%
%TO.N,unconnected-(U1-GPIO19-Pad20)*%
X342850000Y-28500000D03*
D12*
%TO.P,U1,21,GPIO20*%
%TO.N,col9*%
X345500000Y-25850000D03*
%TO.P,U1,22,GPIO21*%
%TO.N,col8*%
X347500000Y-25850000D03*
%TO.P,U1,23,GPIO22*%
%TO.N,col7*%
X349500000Y-25850000D03*
%TO.P,U1,24,GPIO23*%
%TO.N,col6*%
X351500000Y-25850000D03*
%TO.P,U1,25,GPIO24*%
%TO.N,col5*%
X353500000Y-25850000D03*
%TO.P,U1,26,GPIO25*%
%TO.N,col4*%
X355500000Y-25850000D03*
%TO.P,U1,27,GPIO26*%
%TO.N,col3*%
X357500000Y-25850000D03*
%TO.P,U1,28,GPIO27*%
%TO.N,col2*%
X359500000Y-25850000D03*
%TO.P,U1,29,GPIO28*%
%TO.N,col1*%
X361500000Y-25850000D03*
%TO.P,U1,30,GPIO29*%
%TO.N,col0*%
X363500000Y-25850000D03*
D13*
%TO.P,U1,31,GND*%
%TO.N,GND*%
X366150000Y-28500000D03*
%TO.P,U1,32,VBAT*%
%TO.N,unconnected-(U1-VBAT-Pad32)*%
X366150000Y-30500000D03*
%TO.P,U1,33,5V*%
%TO.N,+5V *%
X366150000Y-32500000D03*
%TO.P,U1,34,3.3V*%
%TO.N,unconnected-(U1-3.3V-Pad34)*%
X366150000Y-34500000D03*
%TO.P,U1,35,USB_D-*%
%TO.N,Net-(U1-USB_D-)*%
X366150000Y-36500000D03*
%TO.P,U1,36,USB_D+*%
%TO.N,Net-(U1-USB_D+)*%
X366150000Y-38500000D03*
%TO.P,U1,37,SWDIO*%
%TO.N,unconnected-(U1-SWDIO-Pad37)*%
X366150000Y-40500000D03*
%TO.P,U1,38,SWCLK*%
%TO.N,unconnected-(U1-SWCLK-Pad38)*%
X366150000Y-42500000D03*
%TO.P,U1,39,~{RESET}*%
%TO.N,unconnected-(U1-~{RESET}-Pad39)*%
X366150000Y-44500000D03*
%TO.P,U1,40,BOOTSEL*%
%TO.N,Net-(U1-BOOTSEL)*%
X366150000Y-46500000D03*
%TD*%
D11*
%TO.P,D_2,1,K*%
%TO.N,row0*%
X97950000Y-34300000D03*
%TO.P,D_2,2,A*%
%TO.N,Net-(D_2-A)*%
X97950000Y-31000000D03*
%TD*%
%TO.P,D_39,1,K*%
%TO.N,row2*%
X202725000Y-81925000D03*
%TO.P,D_39,2,A*%
%TO.N,Net-(D_39-A)*%
X202725000Y-78625000D03*
%TD*%
%TO.P,D_63,1,K*%
%TO.N,row3*%
X350362500Y-100975000D03*
%TO.P,D_63,2,A*%
%TO.N,Net-(D_63-A)*%
X350362500Y-97675000D03*
%TD*%
%TO.P,D_41,1,K*%
%TO.N,row2*%
X240825000Y-81925000D03*
%TO.P,D_41,2,A*%
%TO.N,Net-(D_41-A)*%
X240825000Y-78625000D03*
%TD*%
%TO.P,D_3,1,K*%
%TO.N,row0*%
X117000000Y-34300000D03*
%TO.P,D_3,2,A*%
%TO.N,Net-(D_3-A)*%
X117000000Y-31000000D03*
%TD*%
%TO.P,D_1,1,K*%
%TO.N,row0*%
X78900000Y-34300000D03*
%TO.P,D_1,2,A*%
%TO.N,Net-(D_1-A)*%
X78900000Y-31000000D03*
%TD*%
%TO.P,D_46,1,K*%
%TO.N,row2*%
X350362500Y-81925000D03*
%TO.P,D_46,2,A*%
%TO.N,Net-(D_46-A)*%
X350362500Y-78625000D03*
%TD*%
%TO.P,D_12,1,K*%
%TO.N,row0*%
X307500000Y-34300000D03*
%TO.P,D_12,2,A*%
%TO.N,Net-(D_12-A)*%
X307500000Y-31000000D03*
%TD*%
%TO.P,D_89,1,K*%
%TO.N,row5*%
X350362500Y-139075000D03*
%TO.P,D_89,2,A*%
%TO.N,Net-(D_89-A)*%
X350362500Y-135775000D03*
%TD*%
%TO.P,D_84,1,K*%
%TO.N,row5*%
X212250000Y-139075000D03*
%TO.P,D_84,2,A*%
%TO.N,Net-(D_84-A)*%
X212250000Y-135775000D03*
%TD*%
%TO.P,D_43,1,K*%
%TO.N,row2*%
X278925000Y-81925000D03*
%TO.P,D_43,2,A*%
%TO.N,Net-(D_43-A)*%
X278925000Y-78625000D03*
%TD*%
%TO.P,D_14,1,K*%
%TO.N,row1*%
X59850000Y-62875000D03*
%TO.P,D_14,2,A*%
%TO.N,Net-(D_14-A)*%
X59850000Y-59575000D03*
%TD*%
%TO.P,D_66,1,K*%
%TO.N,row4*%
X83662500Y-120025000D03*
%TO.P,D_66,2,A*%
%TO.N,Net-(D_66-A)*%
X83662500Y-116725000D03*
%TD*%
%TO.P,D_82,1,K*%
%TO.N,row5*%
X69375000Y-139075000D03*
%TO.P,D_82,2,A*%
%TO.N,Net-(D_82-A)*%
X69375000Y-135775000D03*
%TD*%
%TO.P,D_29,1,K*%
%TO.N,row1*%
X369412500Y-62875000D03*
%TO.P,D_29,2,A*%
%TO.N,Net-(D_29-A)*%
X369412500Y-59575000D03*
%TD*%
%TO.P,D_25,1,K*%
%TO.N,row1*%
X269400000Y-62875000D03*
%TO.P,D_25,2,A*%
%TO.N,Net-(D_25-A)*%
X269400000Y-59575000D03*
%TD*%
%TO.P,D_75,1,K*%
%TO.N,row4*%
X255112500Y-120025000D03*
%TO.P,D_75,2,A*%
%TO.N,Net-(D_75-A)*%
X255112500Y-116725000D03*
%TD*%
D14*
%TO.P,SW1,1,1*%
%TO.N,GND*%
X391500000Y-36500000D03*
X385000000Y-36500000D03*
%TO.P,SW1,2,2*%
%TO.N,Net-(U1-BOOTSEL)*%
X391500000Y-41000000D03*
X385000000Y-41000000D03*
%TD*%
D11*
%TO.P,D_30,1,K*%
%TO.N,row1*%
X388462500Y-62875000D03*
%TO.P,D_30,2,A*%
%TO.N,Net-(D_30-A)*%
X388462500Y-59575000D03*
%TD*%
%TO.P,D_49,1,K*%
%TO.N,row3*%
X55087500Y-100975000D03*
%TO.P,D_49,2,A*%
%TO.N,Net-(D_49-A)*%
X55087500Y-97675000D03*
%TD*%
%TO.P,D_16,1,K*%
%TO.N,row1*%
X97950000Y-62875000D03*
%TO.P,D_16,2,A*%
%TO.N,Net-(D_16-A)*%
X97950000Y-59575000D03*
%TD*%
%TO.P,D_56,1,K*%
%TO.N,row3*%
X188437500Y-100975000D03*
%TO.P,D_56,2,A*%
%TO.N,Net-(D_56-A)*%
X188437500Y-97675000D03*
%TD*%
%TO.P,D_71,1,K*%
%TO.N,row4*%
X178912500Y-120025000D03*
%TO.P,D_71,2,A*%
%TO.N,Net-(D_71-A)*%
X178912500Y-116725000D03*
%TD*%
%TO.P,D_21,1,K*%
%TO.N,row1*%
X193200000Y-62875000D03*
%TO.P,D_21,2,A*%
%TO.N,Net-(D_21-A)*%
X193200000Y-59575000D03*
%TD*%
%TO.P,D_22,1,K*%
%TO.N,row1*%
X212250000Y-62875000D03*
%TO.P,D_22,2,A*%
%TO.N,Net-(D_22-A)*%
X212250000Y-59575000D03*
%TD*%
%TO.P,D_5,1,K*%
%TO.N,row0*%
X164625000Y-34300000D03*
%TO.P,D_5,2,A*%
%TO.N,Net-(D_5-A)*%
X164625000Y-31000000D03*
%TD*%
%TO.P,D_38,1,K*%
%TO.N,row2*%
X183675000Y-81925000D03*
%TO.P,D_38,2,A*%
%TO.N,Net-(D_38-A)*%
X183675000Y-78625000D03*
%TD*%
%TO.P,D_59,1,K*%
%TO.N,row3*%
X245587500Y-100975000D03*
%TO.P,D_59,2,A*%
%TO.N,Net-(D_59-A)*%
X245587500Y-97675000D03*
%TD*%
D15*
%TO.P,TP1,1,1*%
%TO.N,LED_PWR*%
X293500000Y-39500000D03*
%TD*%
%TO.P,TP2,1,1*%
%TO.N,LED_GND*%
X300000000Y-39500000D03*
%TD*%
D11*
%TO.P,D_52,1,K*%
%TO.N,row3*%
X112237500Y-100975000D03*
%TO.P,D_52,2,A*%
%TO.N,Net-(D_52-A)*%
X112237500Y-97675000D03*
%TD*%
%TO.P,D_86,1,K*%
%TO.N,row5*%
X259875000Y-139075000D03*
%TO.P,D_86,2,A*%
%TO.N,Net-(D_86-A)*%
X259875000Y-135775000D03*
%TD*%
%TO.P,D_54,1,K*%
%TO.N,row3*%
X150337500Y-100975000D03*
%TO.P,D_54,2,A*%
%TO.N,Net-(D_54-A)*%
X150337500Y-97675000D03*
%TD*%
D16*
%TO.P,R1,1*%
%TO.N,Net-(J1-CC1)*%
X373500000Y-26587500D03*
%TO.P,R1,2*%
%TO.N,+5V *%
X373500000Y-28412500D03*
%TD*%
D11*
%TO.P,D_70,1,K*%
%TO.N,row4*%
X159862500Y-120025000D03*
%TO.P,D_70,2,A*%
%TO.N,Net-(D_70-A)*%
X159862500Y-116725000D03*
%TD*%
%TO.P,D_80,1,K*%
%TO.N,row4*%
X388462500Y-129500000D03*
%TO.P,D_80,2,A*%
%TO.N,Net-(D_80-A)*%
X388462500Y-126200000D03*
%TD*%
%TO.P,D_7,1,K*%
%TO.N,row0*%
X202725000Y-34300000D03*
%TO.P,D_7,2,A*%
%TO.N,Net-(D_7-A)*%
X202725000Y-31000000D03*
%TD*%
%TO.P,D_17,1,K*%
%TO.N,row1*%
X117000000Y-62875000D03*
%TO.P,D_17,2,A*%
%TO.N,Net-(D_17-A)*%
X117000000Y-59575000D03*
%TD*%
%TO.P,D_42,1,K*%
%TO.N,row2*%
X259875000Y-81925000D03*
%TO.P,D_42,2,A*%
%TO.N,Net-(D_42-A)*%
X259875000Y-78625000D03*
%TD*%
%TO.P,D_61,1,K*%
%TO.N,row3*%
X307500000Y-100975000D03*
%TO.P,D_61,2,A*%
%TO.N,Net-(D_61-A)*%
X307500000Y-97675000D03*
%TD*%
%TO.P,D_90,1,K*%
%TO.N,row5*%
X369412500Y-139075000D03*
%TO.P,D_90,2,A*%
%TO.N,Net-(D_90-A)*%
X369412500Y-135775000D03*
%TD*%
%TO.P,D_47,1,K*%
%TO.N,row2*%
X369412500Y-81925000D03*
%TO.P,D_47,2,A*%
%TO.N,Net-(D_47-A)*%
X369412500Y-78625000D03*
%TD*%
%TO.P,D_6,1,K*%
%TO.N,row0*%
X183675000Y-34300000D03*
%TO.P,D_6,2,A*%
%TO.N,Net-(D_6-A)*%
X183675000Y-31000000D03*
%TD*%
%TO.P,D_48,1,K*%
%TO.N,row2*%
X388462500Y-91500000D03*
%TO.P,D_48,2,A*%
%TO.N,Net-(D_48-A)*%
X388462500Y-88200000D03*
%TD*%
D16*
%TO.P,R2,1*%
%TO.N,Net-(J1-CC2)*%
X386000000Y-26587500D03*
%TO.P,R2,2*%
%TO.N,+5V *%
X386000000Y-28412500D03*
%TD*%
D11*
%TO.P,D_83,1,K*%
%TO.N,row5*%
X93187500Y-139075000D03*
%TO.P,D_83,2,A*%
%TO.N,Net-(D_83-A)*%
X93187500Y-135775000D03*
%TD*%
%TO.P,D_78,1,K*%
%TO.N,row4*%
X350362500Y-120025000D03*
%TO.P,D_78,2,A*%
%TO.N,Net-(D_78-A)*%
X350362500Y-116725000D03*
%TD*%
%TO.P,D_23,1,K*%
%TO.N,row1*%
X231300000Y-62875000D03*
%TO.P,D_23,2,A*%
%TO.N,Net-(D_23-A)*%
X231300000Y-59575000D03*
%TD*%
%TO.P,D_45,1,K*%
%TO.N,row2*%
X331312500Y-81925000D03*
%TO.P,D_45,2,A*%
%TO.N,Net-(D_45-A)*%
X331312500Y-78625000D03*
%TD*%
%TO.P,D_26,1,K*%
%TO.N,row1*%
X307500000Y-62875000D03*
%TO.P,D_26,2,A*%
%TO.N,Net-(D_26-A)*%
X307500000Y-59575000D03*
%TD*%
%TO.P,D_37,1,K*%
%TO.N,row2*%
X164625000Y-81925000D03*
%TO.P,D_37,2,A*%
%TO.N,Net-(D_37-A)*%
X164625000Y-78625000D03*
%TD*%
%TO.P,D_44,1,K*%
%TO.N,row2*%
X307500000Y-81925000D03*
%TO.P,D_44,2,A*%
%TO.N,Net-(D_44-A)*%
X307500000Y-78625000D03*
%TD*%
%TO.P,D_72,1,K*%
%TO.N,row4*%
X197962500Y-120025000D03*
%TO.P,D_72,2,A*%
%TO.N,Net-(D_72-A)*%
X197962500Y-116725000D03*
%TD*%
%TO.P,D_53,1,K*%
%TO.N,row3*%
X131287500Y-100975000D03*
%TO.P,D_53,2,A*%
%TO.N,Net-(D_53-A)*%
X131287500Y-97675000D03*
%TD*%
%TO.P,D_67,1,K*%
%TO.N,row4*%
X102712500Y-120025000D03*
%TO.P,D_67,2,A*%
%TO.N,Net-(D_67-A)*%
X102712500Y-116725000D03*
%TD*%
%TO.P,D_9,1,K*%
%TO.N,row0*%
X250350000Y-34300000D03*
%TO.P,D_9,2,A*%
%TO.N,Net-(D_9-A)*%
X250350000Y-31000000D03*
%TD*%
D15*
%TO.P,TP3,1,1*%
%TO.N,+5V *%
X307000000Y-39000000D03*
%TD*%
D11*
%TO.P,D_74,1,K*%
%TO.N,row4*%
X236062500Y-120025000D03*
%TO.P,D_74,2,A*%
%TO.N,Net-(D_74-A)*%
X236062500Y-116725000D03*
%TD*%
%TO.P,D_0,1,K*%
%TO.N,row0*%
X40800000Y-34300000D03*
%TO.P,D_0,2,A*%
%TO.N,Net-(D_0-A)*%
X40800000Y-31000000D03*
%TD*%
%TO.P,D_77,1,K*%
%TO.N,row4*%
X331312500Y-120025000D03*
%TO.P,D_77,2,A*%
%TO.N,Net-(D_77-A)*%
X331312500Y-116725000D03*
%TD*%
%TO.P,D_62,1,K*%
%TO.N,row3*%
X331312500Y-100975000D03*
%TO.P,D_62,2,A*%
%TO.N,Net-(D_62-A)*%
X331312500Y-97675000D03*
%TD*%
%TO.P,D_79,1,K*%
%TO.N,row4*%
X369412500Y-120025000D03*
%TO.P,D_79,2,A*%
%TO.N,Net-(D_79-A)*%
X369412500Y-116725000D03*
%TD*%
D15*
%TO.P,TP4,1,1*%
%TO.N,GND*%
X377000000Y-38000000D03*
%TD*%
D11*
%TO.P,D_27,1,K*%
%TO.N,row1*%
X331312500Y-62875000D03*
%TO.P,D_27,2,A*%
%TO.N,Net-(D_27-A)*%
X331312500Y-59575000D03*
%TD*%
%TO.P,D_50,1,K*%
%TO.N,row3*%
X74137500Y-100975000D03*
%TO.P,D_50,2,A*%
%TO.N,Net-(D_50-A)*%
X74137500Y-97675000D03*
%TD*%
%TO.P,D_73,1,K*%
%TO.N,row4*%
X217012500Y-120025000D03*
%TO.P,D_73,2,A*%
%TO.N,Net-(D_73-A)*%
X217012500Y-116725000D03*
%TD*%
%TO.P,D_55,1,K*%
%TO.N,row3*%
X169387500Y-100975000D03*
%TO.P,D_55,2,A*%
%TO.N,Net-(D_55-A)*%
X169387500Y-97675000D03*
%TD*%
%TO.P,D_64,1,K*%
%TO.N,row3*%
X369412500Y-100975000D03*
%TO.P,D_64,2,A*%
%TO.N,Net-(D_64-A)*%
X369412500Y-97675000D03*
%TD*%
%TO.P,D_35,1,K*%
%TO.N,row2*%
X126525000Y-81925000D03*
%TO.P,D_35,2,A*%
%TO.N,Net-(D_35-A)*%
X126525000Y-78625000D03*
%TD*%
%TO.P,D_68,1,K*%
%TO.N,row4*%
X121762500Y-120025000D03*
%TO.P,D_68,2,A*%
%TO.N,Net-(D_68-A)*%
X121762500Y-116725000D03*
%TD*%
%TO.P,D_19,1,K*%
%TO.N,row1*%
X155100000Y-62875000D03*
%TO.P,D_19,2,A*%
%TO.N,Net-(D_19-A)*%
X155100000Y-59575000D03*
%TD*%
%TO.P,D_69,1,K*%
%TO.N,row4*%
X140812500Y-120025000D03*
%TO.P,D_69,2,A*%
%TO.N,Net-(D_69-A)*%
X140812500Y-116725000D03*
%TD*%
%TO.P,D_32,1,K*%
%TO.N,row2*%
X69375000Y-81925000D03*
%TO.P,D_32,2,A*%
%TO.N,Net-(D_32-A)*%
X69375000Y-78625000D03*
%TD*%
%TO.P,D_11,1,K*%
%TO.N,row0*%
X288450000Y-34300000D03*
%TO.P,D_11,2,A*%
%TO.N,Net-(D_11-A)*%
X288450000Y-31000000D03*
%TD*%
%TO.P,D_81,1,K*%
%TO.N,row5*%
X45562500Y-139075000D03*
%TO.P,D_81,2,A*%
%TO.N,Net-(D_81-A)*%
X45562500Y-135775000D03*
%TD*%
%TO.P,D_18,1,K*%
%TO.N,row1*%
X136050000Y-62875000D03*
%TO.P,D_18,2,A*%
%TO.N,Net-(D_18-A)*%
X136050000Y-59575000D03*
%TD*%
%TO.P,D_8,1,K*%
%TO.N,row0*%
X221775000Y-34300000D03*
%TO.P,D_8,2,A*%
%TO.N,Net-(D_8-A)*%
X221775000Y-31000000D03*
%TD*%
%TO.P,D_51,1,K*%
%TO.N,row3*%
X93187500Y-100975000D03*
%TO.P,D_51,2,A*%
%TO.N,Net-(D_51-A)*%
X93187500Y-97675000D03*
%TD*%
%TO.P,D_36,1,K*%
%TO.N,row2*%
X145575000Y-81925000D03*
%TO.P,D_36,2,A*%
%TO.N,Net-(D_36-A)*%
X145575000Y-78625000D03*
%TD*%
%TO.P,D_31,1,K*%
%TO.N,row2*%
X50325000Y-81925000D03*
%TO.P,D_31,2,A*%
%TO.N,Net-(D_31-A)*%
X50325000Y-78625000D03*
%TD*%
%TO.P,D_76,1,K*%
%TO.N,row4*%
X307500000Y-120025000D03*
%TO.P,D_76,2,A*%
%TO.N,Net-(D_76-A)*%
X307500000Y-116725000D03*
%TD*%
%TO.P,D_40,1,K*%
%TO.N,row2*%
X221775000Y-81925000D03*
%TO.P,D_40,2,A*%
%TO.N,Net-(D_40-A)*%
X221775000Y-78625000D03*
%TD*%
D17*
%TO.P,J1,A1,GND*%
%TO.N,GND*%
X376620000Y-26300000D03*
%TO.P,J1,A4,VBUS*%
%TO.N,+5V *%
X377420000Y-26300000D03*
D18*
%TO.P,J1,A5,CC1*%
%TO.N,Net-(J1-CC1)*%
X378570000Y-26300000D03*
%TO.P,J1,A6,D+*%
%TO.N,Net-(U1-USB_D+)*%
X379570000Y-26300000D03*
%TO.P,J1,A7,D-*%
%TO.N,Net-(U1-USB_D-)*%
X380070000Y-26300000D03*
%TO.P,J1,A8,SBU1*%
%TO.N,unconnected-(J1-SBU1-PadA8)*%
X381070000Y-26300000D03*
D17*
%TO.P,J1,A9,VBUS*%
%TO.N,+5V *%
X382220000Y-26300000D03*
%TO.P,J1,A12,GND*%
%TO.N,GND*%
X383020000Y-26300000D03*
%TO.P,J1,B1,GND*%
X383020000Y-26300000D03*
%TO.P,J1,B4,VBUS*%
%TO.N,+5V *%
X382220000Y-26300000D03*
D18*
%TO.P,J1,B5,CC2*%
%TO.N,Net-(J1-CC2)*%
X381570000Y-26300000D03*
%TO.P,J1,B6,D+*%
%TO.N,Net-(U1-USB_D+)*%
X380570000Y-26300000D03*
%TO.P,J1,B7,D-*%
%TO.N,Net-(U1-USB_D-)*%
X379070000Y-26300000D03*
%TO.P,J1,B8,SBU2*%
%TO.N,unconnected-(J1-SBU2-PadB8)*%
X378070000Y-26300000D03*
D17*
%TO.P,J1,B9,VBUS*%
%TO.N,+5V *%
X377420000Y-26300000D03*
%TO.P,J1,B12,GND*%
%TO.N,GND*%
X376620000Y-26300000D03*
D19*
%TO.P,J1,S1,SHIELD*%
%TO.N,unconnected-(J1-SHIELD-PadS1)_3*%
X375500000Y-21500000D03*
D20*
%TO.N,unconnected-(J1-SHIELD-PadS1)_1*%
X375500000Y-25700000D03*
D19*
%TO.N,unconnected-(J1-SHIELD-PadS1)_2*%
X384140000Y-21500000D03*
D20*
%TO.N,unconnected-(J1-SHIELD-PadS1)*%
X384140000Y-25700000D03*
%TD*%
D11*
%TO.P,D_28,1,K*%
%TO.N,row1*%
X350362500Y-62875000D03*
%TO.P,D_28,2,A*%
%TO.N,Net-(D_28-A)*%
X350362500Y-59575000D03*
%TD*%
D21*
%TO.N,col17*%
X355500000Y-132500000D03*
X354000000Y-132000000D03*
%TO.N,LED_PWR*%
X287500000Y-40500000D03*
X289000000Y-39500000D03*
%TO.N,LED_GND*%
X43000000Y-149615000D03*
X43000000Y-144500000D03*
%TO.N,LED_PWR*%
X371500000Y-136500000D03*
%TO.N,LED_GND*%
X370000000Y-132500000D03*
%TO.N,LED_PWR*%
X371500000Y-131500000D03*
X371500000Y-129000000D03*
%TO.N,LED_GND*%
X365000000Y-128000000D03*
%TO.N,LED_PWR*%
X39875000Y-124625000D03*
X50000000Y-124500000D03*
%TO.N,LED_GND*%
X47999983Y-128999983D03*
X48000000Y-125500000D03*
%TO.N,LED_PWR*%
X368610000Y-98610000D03*
X374500000Y-93000000D03*
%TO.N,LED_GND*%
X355500000Y-90500000D03*
X365000000Y-90390000D03*
X375000000Y-98000000D03*
X386500000Y-93500000D03*
X299000000Y-46500000D03*
X302500000Y-46500000D03*
%TO.N,col1*%
X59500000Y-33500000D03*
X44500000Y-55000000D03*
X51500000Y-137000000D03*
X44500000Y-61000000D03*
%TO.N,col2*%
X63500000Y-33000000D03*
X63500000Y-61500000D03*
X58500000Y-99000000D03*
X68000000Y-118500000D03*
X54000000Y-81000000D03*
%TO.N,col3*%
X83000000Y-32500000D03*
X87500000Y-118000000D03*
X73000000Y-80000000D03*
X75000000Y-137000000D03*
X82500000Y-60500000D03*
X78000000Y-99000000D03*
%TO.N,col4*%
X97000000Y-99500000D03*
X101500000Y-61000000D03*
X101500000Y-32500000D03*
X92000000Y-80000000D03*
X106000000Y-118000000D03*
%TO.N,col5*%
X111000000Y-80000000D03*
X125500000Y-118000000D03*
X116000000Y-99000000D03*
X120500000Y-61500000D03*
X121000000Y-32500000D03*
%TO.N,col6*%
X142500000Y-28500000D03*
X139500000Y-53500000D03*
X135000000Y-98500000D03*
X139500000Y-60500000D03*
X146500000Y-137000000D03*
X144500000Y-117500000D03*
X130000000Y-79500000D03*
%TO.N,col7*%
X149000000Y-80500000D03*
X159000000Y-61500000D03*
X154000000Y-99500000D03*
X149000000Y-32000000D03*
X163500000Y-118000000D03*
%TO.N,col8*%
X177500000Y-61000000D03*
X182500000Y-118000000D03*
X173000000Y-99500000D03*
X168500000Y-32000000D03*
X168500000Y-80000000D03*
%TO.N,col9*%
X201500000Y-117500000D03*
X197000000Y-61500000D03*
X192000000Y-99000000D03*
X187500000Y-32500000D03*
X187500000Y-80500000D03*
%TO.N,col10*%
X218000000Y-137000000D03*
X211000000Y-99000000D03*
X206500000Y-80000000D03*
X215500000Y-61000000D03*
X206500000Y-32500000D03*
X220500000Y-118000000D03*
%TO.N,col11*%
X242000000Y-137000000D03*
X235000000Y-61000000D03*
X235000000Y-32500000D03*
X230000000Y-99000000D03*
X225500000Y-80000000D03*
X239500000Y-118000000D03*
%TO.N,col12*%
X254000000Y-33000000D03*
X249000000Y-99000000D03*
X254000000Y-61000000D03*
X244500000Y-80000000D03*
%TO.N,col13*%
X263500000Y-80000000D03*
X280000000Y-99000000D03*
X265500000Y-136500000D03*
X275000000Y-117500000D03*
X273000000Y-32000014D03*
%TO.N,col14*%
X292000000Y-32500000D03*
X287000000Y-80000000D03*
X282500000Y-60500000D03*
X289500000Y-136500000D03*
%TO.N,col15*%
X315500000Y-118000000D03*
X315500000Y-99000000D03*
X315500000Y-80000000D03*
X313500000Y-57000000D03*
%TO.N,col16*%
X335000000Y-99500000D03*
X335000000Y-61000000D03*
X335000000Y-80000000D03*
X325000000Y-137500000D03*
X335000000Y-118500000D03*
%TO.N,col17*%
X354000000Y-99500000D03*
X354000000Y-80500000D03*
X354000000Y-118000000D03*
X354000000Y-61000000D03*
%TO.N,col18*%
X373000000Y-61000000D03*
X373000000Y-89000000D03*
X373000000Y-122500000D03*
%TO.N,row0*%
X312249991Y-34249991D03*
X345500000Y-51500000D03*
%TO.N,row1*%
X390775000Y-63000000D03*
X347500000Y-51500000D03*
%TO.N,row2*%
X391000000Y-91500000D03*
X349500000Y-51500000D03*
%TO.N,row3*%
X351500000Y-51500000D03*
X372000000Y-102000000D03*
%TO.N,row4*%
X353500000Y-51500000D03*
X390000000Y-129500000D03*
%TO.N,row5*%
X372000000Y-139000000D03*
X355500000Y-51225000D03*
%TO.N,+5V *%
X375000000Y-28500000D03*
X373900000Y-32500000D03*
X384500000Y-28500000D03*
X379250035Y-28180510D03*
X307000000Y-35999996D03*
%TO.N,Net-(U1-USB_D+)*%
X370000000Y-38500000D03*
X380000000Y-24000000D03*
%TO.N,Net-(U1-USB_D-)*%
X370951987Y-36451997D03*
X378951992Y-24325000D03*
%TD*%
D22*
%TO.N,col17*%
X355500000Y-132500000D02*
X354500000Y-132500000D01*
X354500000Y-132500000D02*
X354000000Y-132000000D01*
X353802500Y-134385000D02*
X353802500Y-134197500D01*
X353802500Y-134197500D02*
X355500000Y-132500000D01*
%TO.N,LED_PWR*%
X293500000Y-39500000D02*
X289000000Y-39500000D01*
%TO.N,LED_GND*%
X43000000Y-144500000D02*
X43000000Y-149615000D01*
%TO.N,LED_PWR*%
X371500000Y-136500000D02*
X371500000Y-131500000D01*
%TO.N,LED_GND*%
X370000000Y-132500000D02*
X370000000Y-132000000D01*
X370000000Y-132000000D02*
X366000000Y-128000000D01*
X366000000Y-128000000D02*
X365000000Y-128000000D01*
%TO.N,LED_PWR*%
X371500000Y-129000000D02*
X371500000Y-131500000D01*
%TO.N,LED_GND*%
X48000000Y-125500000D02*
X48000000Y-128999966D01*
X48000000Y-128999966D02*
X47999983Y-128999983D01*
%TO.N,LED_PWR*%
X39875000Y-124625000D02*
X40000000Y-124500000D01*
X40000000Y-124500000D02*
X50000000Y-124500000D01*
%TO.N,LED_GND*%
X302500000Y-46500000D02*
X299000000Y-46500000D01*
%TO.N,Net-(D_0-A)*%
X40800000Y-29753000D02*
X40800000Y-31000000D01*
X38172000Y-27125000D02*
X40800000Y-29753000D01*
%TO.N,Net-(D_1-A)*%
X76521475Y-28621475D02*
X78900000Y-31000000D01*
X76521475Y-27097388D02*
X76521475Y-28621475D01*
%TO.N,col0*%
X32333750Y-96285000D02*
X32333750Y-100952500D01*
X32333750Y-100952500D02*
X37096250Y-105715000D01*
X37096250Y-124860000D02*
X27571250Y-134385000D01*
X363500000Y-25850000D02*
X363500000Y-25200000D01*
X35910000Y-19000000D02*
X25245000Y-29665000D01*
X37096250Y-105715000D02*
X37096250Y-115335000D01*
X363500000Y-25050000D02*
X357450000Y-19000000D01*
X363500000Y-25850000D02*
X363500000Y-25050000D01*
X357450000Y-19000000D02*
X35910000Y-19000000D01*
X37096250Y-115335000D02*
X37096250Y-124860000D01*
X25190000Y-72472500D02*
X29952500Y-77235000D01*
X25245000Y-58130000D02*
X25190000Y-58185000D01*
X29952500Y-93903750D02*
X32333750Y-96285000D01*
X25190000Y-58185000D02*
X25190000Y-72472500D01*
X25245000Y-29665000D02*
X25245000Y-58130000D01*
X29952500Y-77235000D02*
X29952500Y-93903750D01*
%TO.N,col1*%
X44240000Y-58185000D02*
X44240000Y-60740000D01*
X59500000Y-33500000D02*
X59500000Y-27500000D01*
X361500000Y-25200000D02*
X361500000Y-25850000D01*
X59500000Y-27500000D02*
X67550000Y-19450000D01*
X51383750Y-136883750D02*
X51500000Y-137000000D01*
X44240000Y-55260000D02*
X44240000Y-58185000D01*
X355900000Y-19450000D02*
X361500000Y-25050000D01*
X44240000Y-60740000D02*
X44500000Y-61000000D01*
X67550000Y-19450000D02*
X355900000Y-19450000D01*
X51383750Y-134385000D02*
X51383750Y-136883750D01*
X361500000Y-25050000D02*
X361500000Y-25850000D01*
X44500000Y-55000000D02*
X44240000Y-55260000D01*
%TO.N,col2*%
X68052500Y-115335000D02*
X68052500Y-118447500D01*
X63594475Y-32905525D02*
X63500000Y-33000000D01*
X58527500Y-96285000D02*
X58527500Y-98972500D01*
X53765000Y-77235000D02*
X53765000Y-80765000D01*
X359500000Y-25850000D02*
X359500000Y-25050000D01*
X58527500Y-98972500D02*
X58500000Y-99000000D01*
X58527500Y-99027500D02*
X58527500Y-96285000D01*
X63290000Y-61290000D02*
X63500000Y-61500000D01*
X73331863Y-19900000D02*
X63594475Y-29637388D01*
X359500000Y-25050000D02*
X354350000Y-19900000D01*
X63290000Y-58185000D02*
X63290000Y-61290000D01*
X53765000Y-80765000D02*
X54000000Y-81000000D01*
X63594475Y-29637388D02*
X63594475Y-32905525D01*
X354350000Y-19900000D02*
X73331863Y-19900000D01*
X68052500Y-118447500D02*
X68000000Y-118500000D01*
%TO.N,col3*%
X75196250Y-136803750D02*
X75000000Y-137000000D01*
X87102500Y-117602500D02*
X87500000Y-118000000D01*
X352800000Y-20350000D02*
X357500000Y-25050000D01*
X77577500Y-96285000D02*
X77577500Y-98577500D01*
X82632347Y-29596106D02*
X82632347Y-32132347D01*
X72815000Y-77235000D02*
X72815000Y-79815000D01*
X77577500Y-98577500D02*
X78000000Y-99000000D01*
X75196250Y-134385000D02*
X75196250Y-136803750D01*
X357500000Y-25050000D02*
X357500000Y-25850000D01*
X91878453Y-20350000D02*
X352800000Y-20350000D01*
X72815000Y-79815000D02*
X73000000Y-80000000D01*
X87102500Y-115335000D02*
X87102500Y-117602500D01*
X82632347Y-29596106D02*
X91878453Y-20350000D01*
X82340000Y-60340000D02*
X82500000Y-60500000D01*
X82632347Y-32132347D02*
X83000000Y-32500000D01*
X82340000Y-58185000D02*
X82340000Y-60340000D01*
%TO.N,col4*%
X106152500Y-117847500D02*
X106000000Y-118000000D01*
X101665000Y-29585000D02*
X101665000Y-32335000D01*
X96627500Y-96285000D02*
X96627500Y-99127500D01*
X101390000Y-58185000D02*
X101390000Y-60890000D01*
X355500000Y-25050000D02*
X351250000Y-20800000D01*
X110450000Y-20800000D02*
X101665000Y-29585000D01*
X101665000Y-32335000D02*
X101500000Y-32500000D01*
X106152500Y-115335000D02*
X106152500Y-117847500D01*
X355500000Y-25850000D02*
X355500000Y-25050000D01*
X351250000Y-20800000D02*
X110450000Y-20800000D01*
X91865000Y-77235000D02*
X91865000Y-79865000D01*
X96627500Y-99127500D02*
X97000000Y-99500000D01*
X101390000Y-60890000D02*
X101500000Y-61000000D01*
X91865000Y-79865000D02*
X92000000Y-80000000D01*
%TO.N,col5*%
X110915000Y-77235000D02*
X110915000Y-79915000D01*
X125500000Y-117500000D02*
X125202500Y-117202500D01*
X115677500Y-98177500D02*
X115677500Y-96285000D01*
X129000000Y-21250000D02*
X349700000Y-21250000D01*
X125500000Y-118000000D02*
X125500000Y-117500000D01*
X116000000Y-98500000D02*
X115677500Y-98177500D01*
X120665000Y-29585000D02*
X120665000Y-32165000D01*
X120665000Y-32165000D02*
X121000000Y-32500000D01*
X120665000Y-29585000D02*
X129000000Y-21250000D01*
X110915000Y-79915000D02*
X111000000Y-80000000D01*
X120440000Y-58185000D02*
X120440000Y-61440000D01*
X353500000Y-25050000D02*
X353500000Y-25850000D01*
X125202500Y-117202500D02*
X125202500Y-115335000D01*
X349700000Y-21250000D02*
X353500000Y-25050000D01*
X120440000Y-61440000D02*
X120500000Y-61500000D01*
X116000000Y-99000000D02*
X116000000Y-98500000D01*
%TO.N,col6*%
X139500000Y-53500000D02*
X139500000Y-54000000D01*
X144252500Y-115335000D02*
X144252500Y-117252500D01*
X139490000Y-60490000D02*
X139500000Y-60500000D01*
X139490000Y-58185000D02*
X139490000Y-60490000D01*
X348150000Y-21700000D02*
X149300000Y-21700000D01*
X139500000Y-54000000D02*
X139490000Y-54010000D01*
X139490000Y-54010000D02*
X139490000Y-58185000D01*
X129965000Y-77235000D02*
X129965000Y-79465000D01*
X134727500Y-96285000D02*
X134727500Y-98227500D01*
X149300000Y-21700000D02*
X142500000Y-28500000D01*
X146633750Y-136866250D02*
X146500000Y-137000000D01*
X351500000Y-25050000D02*
X348150000Y-21700000D01*
X129965000Y-79465000D02*
X130000000Y-79500000D01*
X146633750Y-134385000D02*
X146633750Y-136866250D01*
X144252500Y-117252500D02*
X144500000Y-117500000D01*
X351500000Y-25850000D02*
X351500000Y-25050000D01*
X134727500Y-98227500D02*
X135000000Y-98500000D01*
%TO.N,col7*%
X149165000Y-29585000D02*
X156600000Y-22150000D01*
X149015000Y-80485000D02*
X149000000Y-80500000D01*
X163302500Y-117802500D02*
X163500000Y-118000000D01*
X163302500Y-115335000D02*
X163302500Y-117802500D01*
X153777500Y-99277500D02*
X154000000Y-99500000D01*
X149015000Y-77235000D02*
X149015000Y-80485000D01*
X149165000Y-29585000D02*
X149165000Y-31835000D01*
X149165000Y-31835000D02*
X149000000Y-32000000D01*
X158540000Y-58185000D02*
X158540000Y-61040000D01*
X349500000Y-25050000D02*
X349500000Y-25850000D01*
X158540000Y-61040000D02*
X159000000Y-61500000D01*
X153777500Y-96285000D02*
X153777500Y-99277500D01*
X156600000Y-22150000D02*
X346600000Y-22150000D01*
X346600000Y-22150000D02*
X349500000Y-25050000D01*
%TO.N,col8*%
X347500000Y-25050000D02*
X345050000Y-22600000D01*
X168065000Y-79565000D02*
X168500000Y-80000000D01*
X168065000Y-77235000D02*
X168065000Y-79565000D01*
X182352500Y-117852500D02*
X182500000Y-118000000D01*
X347500000Y-25850000D02*
X347500000Y-25050000D01*
X168197485Y-29578486D02*
X168197485Y-31697485D01*
X345050000Y-22600000D02*
X175175971Y-22600000D01*
X182352500Y-115335000D02*
X182352500Y-117852500D01*
X168197485Y-31697485D02*
X168500000Y-32000000D01*
X175175971Y-22600000D02*
X168197485Y-29578486D01*
X177590000Y-58185000D02*
X177590000Y-60910000D01*
X172827500Y-96285000D02*
X172827500Y-99327500D01*
X177590000Y-60910000D02*
X177500000Y-61000000D01*
X172827500Y-99327500D02*
X173000000Y-99500000D01*
%TO.N,col9*%
X187261209Y-29593694D02*
X193804903Y-23050000D01*
X187115000Y-77235000D02*
X187115000Y-80115000D01*
X196640000Y-58185000D02*
X196640000Y-61140000D01*
X191877500Y-98877500D02*
X192000000Y-99000000D01*
X187261209Y-29593694D02*
X187261209Y-32261209D01*
X193804903Y-23050000D02*
X342700000Y-23050000D01*
X187115000Y-80115000D02*
X187500000Y-80500000D01*
X342700000Y-23050000D02*
X345500000Y-25850000D01*
X187261209Y-32261209D02*
X187500000Y-32500000D01*
X201402500Y-115335000D02*
X201402500Y-117402500D01*
X191877500Y-96285000D02*
X191877500Y-98877500D01*
X201402500Y-117402500D02*
X201500000Y-117500000D01*
X196640000Y-61140000D02*
X197000000Y-61500000D01*
%TO.N,col10*%
X325450000Y-23950000D02*
X303308024Y-23950000D01*
X342850000Y-30500000D02*
X332000000Y-30500000D01*
X218071250Y-134385000D02*
X218071250Y-136928750D01*
X206165000Y-79665000D02*
X206500000Y-80000000D01*
X220452500Y-115335000D02*
X220452500Y-117952500D01*
X215690000Y-58185000D02*
X215690000Y-60810000D01*
X220452500Y-117952500D02*
X220500000Y-118000000D01*
X215690000Y-60810000D02*
X215500000Y-61000000D01*
X210927500Y-98927500D02*
X211000000Y-99000000D01*
X303308024Y-23950000D02*
X303177544Y-23819520D01*
X210927500Y-96285000D02*
X210927500Y-98927500D01*
X303177544Y-23819520D02*
X212035383Y-23819520D01*
X332000000Y-30500000D02*
X325450000Y-23950000D01*
X212035383Y-23819520D02*
X206261209Y-29593694D01*
X206165000Y-77235000D02*
X206165000Y-79665000D01*
X206261209Y-29593694D02*
X206261209Y-32261209D01*
X206261209Y-32261209D02*
X206500000Y-32500000D01*
X218071250Y-136928750D02*
X218000000Y-137000000D01*
%TO.N,col11*%
X229977500Y-98977500D02*
X229977500Y-96285000D01*
X241883750Y-136883750D02*
X242000000Y-137000000D01*
X283951148Y-24269520D02*
X281652264Y-24269520D01*
X240350000Y-24400000D02*
X235165000Y-29585000D01*
X234740000Y-60740000D02*
X235000000Y-61000000D01*
X281652264Y-24269520D02*
X281521784Y-24400000D01*
X234740000Y-58185000D02*
X234740000Y-60740000D01*
X239502500Y-117997500D02*
X239500000Y-118000000D01*
X235165000Y-29585000D02*
X235165000Y-32335000D01*
X284081628Y-24400000D02*
X283951148Y-24269520D01*
X303121628Y-24400000D02*
X302991148Y-24269520D01*
X230000000Y-99000000D02*
X229977500Y-98977500D01*
X239502500Y-115335000D02*
X239502500Y-117997500D01*
X302991148Y-24269520D02*
X300692264Y-24269520D01*
X241883750Y-134385000D02*
X241883750Y-136883750D01*
X225215000Y-77235000D02*
X225215000Y-79715000D01*
X333000000Y-32500000D02*
X324900000Y-24400000D01*
X324900000Y-24400000D02*
X303121628Y-24400000D01*
X235165000Y-32335000D02*
X235000000Y-32500000D01*
X300561784Y-24400000D02*
X284081628Y-24400000D01*
X225215000Y-79715000D02*
X225500000Y-80000000D01*
X300692264Y-24269520D02*
X300561784Y-24400000D01*
X342850000Y-32500000D02*
X333000000Y-32500000D01*
X281521784Y-24400000D02*
X240350000Y-24400000D01*
%TO.N,col12*%
X254176706Y-29584520D02*
X254176706Y-32823294D01*
X283764752Y-24719520D02*
X281838660Y-24719520D01*
X302935232Y-24850000D02*
X302804752Y-24719520D01*
X324350000Y-24850000D02*
X302935232Y-24850000D01*
X334000000Y-34500000D02*
X324350000Y-24850000D01*
X281708180Y-24850000D02*
X258911226Y-24850000D01*
X249000000Y-99000000D02*
X249027500Y-98972500D01*
X302804752Y-24719520D02*
X300878660Y-24719520D01*
X244265000Y-77235000D02*
X244265000Y-79765000D01*
X342850000Y-34500000D02*
X334000000Y-34500000D01*
X253790000Y-58185000D02*
X253790000Y-60790000D01*
X283895232Y-24850000D02*
X283764752Y-24719520D01*
X249027500Y-98972500D02*
X249027500Y-96285000D01*
X300878660Y-24719520D02*
X300748180Y-24850000D01*
X258911226Y-24850000D02*
X254176706Y-29584520D01*
X244265000Y-79765000D02*
X244500000Y-80000000D01*
X254176706Y-32823294D02*
X254000000Y-33000000D01*
X254000000Y-61000000D02*
X253790000Y-60790000D01*
X300748180Y-24850000D02*
X283895232Y-24850000D01*
X281838660Y-24719520D02*
X281708180Y-24850000D01*
%TO.N,col13*%
X279983750Y-98983750D02*
X280000000Y-99000000D01*
X263315000Y-77235000D02*
X263315000Y-79815000D01*
X275221250Y-115335000D02*
X275221250Y-117278750D01*
X301065056Y-25169520D02*
X300934576Y-25300000D01*
X300934576Y-25300000D02*
X283708836Y-25300000D01*
X342850000Y-36500000D02*
X335000000Y-36500000D01*
X265696250Y-136303750D02*
X265500000Y-136500000D01*
X282025056Y-25169520D02*
X281894576Y-25300000D01*
X281894576Y-25300000D02*
X277461226Y-25300000D01*
X263315000Y-79815000D02*
X263500000Y-80000000D01*
X279983750Y-96285000D02*
X279983750Y-98983750D01*
X265696250Y-134385000D02*
X265696250Y-136303750D01*
X277461226Y-25300000D02*
X273176706Y-29584520D01*
X273176706Y-29584520D02*
X273176706Y-31823308D01*
X302618356Y-25169520D02*
X301065056Y-25169520D01*
X302748836Y-25300000D02*
X302618356Y-25169520D01*
X335000000Y-36500000D02*
X323800000Y-25300000D01*
X273176706Y-31823308D02*
X273000000Y-32000014D01*
X275221250Y-117278750D02*
X275000000Y-117500000D01*
X323800000Y-25300000D02*
X302748836Y-25300000D01*
X283708836Y-25300000D02*
X283578356Y-25169520D01*
X283578356Y-25169520D02*
X282025056Y-25169520D01*
%TO.N,col14*%
X282365000Y-58185000D02*
X289550000Y-51000000D01*
X287127500Y-77235000D02*
X287127500Y-79872500D01*
X289508750Y-134385000D02*
X289508750Y-136491250D01*
X282365000Y-58185000D02*
X282365000Y-60365000D01*
X289550000Y-51000000D02*
X319500000Y-51000000D01*
X282365000Y-60365000D02*
X282500000Y-60500000D01*
X332000000Y-38500000D02*
X342850000Y-38500000D01*
X287127500Y-79872500D02*
X287000000Y-80000000D01*
X292216706Y-32283294D02*
X292000000Y-32500000D01*
X319500000Y-51000000D02*
X332000000Y-38500000D01*
X289508750Y-136491250D02*
X289500000Y-136500000D01*
X292216706Y-29584520D02*
X292216706Y-32283294D01*
%TO.N,col15*%
X313500000Y-57000000D02*
X314517500Y-57000000D01*
X315702500Y-117797500D02*
X315500000Y-118000000D01*
X315702500Y-79797500D02*
X315702500Y-77235000D01*
X315702500Y-98797500D02*
X315500000Y-99000000D01*
X314517500Y-57000000D02*
X315702500Y-58185000D01*
X333387500Y-40500000D02*
X342850000Y-40500000D01*
X315702500Y-115335000D02*
X315702500Y-117797500D01*
X333387500Y-40500000D02*
X315702500Y-58185000D01*
X315702500Y-96285000D02*
X315702500Y-98797500D01*
X315500000Y-80000000D02*
X315702500Y-79797500D01*
%TO.N,col16*%
X325227500Y-134385000D02*
X325227500Y-137272500D01*
X334752500Y-60752500D02*
X335000000Y-61000000D01*
X334752500Y-58185000D02*
X334752500Y-60752500D01*
X334752500Y-99252500D02*
X335000000Y-99500000D01*
X334752500Y-115335000D02*
X334752500Y-118252500D01*
X334752500Y-77235000D02*
X334752500Y-79752500D01*
X334752500Y-96285000D02*
X334752500Y-99252500D01*
X325227500Y-137272500D02*
X325000000Y-137500000D01*
X334752500Y-48747500D02*
X341000000Y-42500000D01*
X341000000Y-42500000D02*
X342850000Y-42500000D01*
X334752500Y-58185000D02*
X334752500Y-48747500D01*
X334752500Y-118252500D02*
X335000000Y-118500000D01*
X334752500Y-79752500D02*
X335000000Y-80000000D01*
%TO.N,col17*%
X353802500Y-117802500D02*
X354000000Y-118000000D01*
X353802500Y-58185000D02*
X353802500Y-60802500D01*
X337500000Y-52500000D02*
X337500000Y-48500000D01*
X353802500Y-60802500D02*
X354000000Y-61000000D01*
X353802500Y-58185000D02*
X349117500Y-53500000D01*
X337500000Y-48500000D02*
X341500000Y-44500000D01*
X353802500Y-99302500D02*
X354000000Y-99500000D01*
X353802500Y-77235000D02*
X353802500Y-80302500D01*
X353802500Y-80302500D02*
X354000000Y-80500000D01*
X349117500Y-53500000D02*
X338500000Y-53500000D01*
X353802500Y-115335000D02*
X353802500Y-117802500D01*
X338500000Y-53500000D02*
X337500000Y-52500000D01*
X353802500Y-96285000D02*
X353802500Y-99302500D01*
X341500000Y-44500000D02*
X342850000Y-44500000D01*
%TO.N,col18*%
X372852500Y-60852500D02*
X373000000Y-61000000D01*
X339000000Y-51500000D02*
X339000000Y-49000000D01*
X372859143Y-88859143D02*
X373000000Y-89000000D01*
X339000000Y-49000000D02*
X341500000Y-46500000D01*
X372852500Y-58185000D02*
X367167500Y-52500000D01*
X372915000Y-122585000D02*
X373000000Y-122500000D01*
X341500000Y-46500000D02*
X342850000Y-46500000D01*
X340000000Y-52500000D02*
X339000000Y-51500000D01*
X372852500Y-58185000D02*
X372852500Y-60852500D01*
X372915000Y-124960000D02*
X372915000Y-122585000D01*
X367167500Y-52500000D02*
X340000000Y-52500000D01*
X372859143Y-86743423D02*
X372859143Y-88859143D01*
%TO.N,Net-(D_2-A)*%
X95559347Y-28609347D02*
X97950000Y-31000000D01*
X95559347Y-27056106D02*
X95559347Y-28609347D01*
%TO.N,row0*%
X116806100Y-34493900D02*
X117000000Y-34300000D01*
X221775000Y-34300000D02*
X221968900Y-34493900D01*
X345500000Y-49150000D02*
X345500000Y-51500000D01*
X183675000Y-34300000D02*
X183877594Y-34502594D01*
X78900000Y-34300000D02*
X79105006Y-34505006D01*
X312199982Y-34300000D02*
X312249991Y-34249991D01*
X307306580Y-34493420D02*
X307500000Y-34300000D01*
X164431100Y-34493900D02*
X164625000Y-34300000D01*
X221572406Y-34502594D02*
X221775000Y-34300000D01*
X136243900Y-34493900D02*
X164431100Y-34493900D01*
X269400000Y-34300000D02*
X269593420Y-34493420D01*
X250543420Y-34493420D02*
X269206580Y-34493420D01*
X78653712Y-34546288D02*
X78900000Y-34300000D01*
X202927594Y-34502594D02*
X221572406Y-34502594D01*
X221968900Y-34493900D02*
X250156100Y-34493900D01*
X183877594Y-34502594D02*
X202522406Y-34502594D01*
X307500000Y-34300000D02*
X312199982Y-34300000D01*
X117000000Y-34300000D02*
X117193900Y-34493900D01*
X97744994Y-34505006D02*
X97950000Y-34300000D01*
X117193900Y-34493900D02*
X135856100Y-34493900D01*
X135856100Y-34493900D02*
X136050000Y-34300000D01*
X269206580Y-34493420D02*
X269400000Y-34300000D01*
X288256580Y-34493420D02*
X288450000Y-34300000D01*
X164625000Y-34300000D02*
X164812386Y-34487386D01*
X98143900Y-34493900D02*
X116806100Y-34493900D01*
X40800000Y-34300000D02*
X41046288Y-34546288D01*
X136050000Y-34300000D02*
X136243900Y-34493900D01*
X202725000Y-34300000D02*
X202927594Y-34502594D01*
X250350000Y-34300000D02*
X250543420Y-34493420D01*
X250156100Y-34493900D02*
X250350000Y-34300000D01*
X288643420Y-34493420D02*
X307306580Y-34493420D01*
X164812386Y-34487386D02*
X183487614Y-34487386D01*
X202522406Y-34502594D02*
X202725000Y-34300000D01*
X269593420Y-34493420D02*
X288256580Y-34493420D01*
X288450000Y-34300000D02*
X288643420Y-34493420D01*
X41046288Y-34546288D02*
X78653712Y-34546288D01*
X183487614Y-34487386D02*
X183675000Y-34300000D01*
X79105006Y-34505006D02*
X97744994Y-34505006D01*
X97950000Y-34300000D02*
X98143900Y-34493900D01*
%TO.N,row1*%
X192981100Y-63093900D02*
X193200000Y-62875000D01*
X269400000Y-62875000D02*
X269618900Y-63093900D01*
X117218900Y-63093900D02*
X135831100Y-63093900D01*
X155318900Y-63093900D02*
X173931100Y-63093900D01*
X350581400Y-63093900D02*
X369193600Y-63093900D01*
X307281100Y-63093900D02*
X307500000Y-62875000D01*
X231518900Y-63093900D02*
X250131100Y-63093900D01*
X174368900Y-63093900D02*
X192981100Y-63093900D01*
X369412500Y-62875000D02*
X369631400Y-63093900D01*
X231081100Y-63093900D02*
X231300000Y-62875000D01*
X78900000Y-62875000D02*
X79118900Y-63093900D01*
X250350000Y-62875000D02*
X250568900Y-63093900D01*
X117000000Y-62875000D02*
X117218900Y-63093900D01*
X388243600Y-63093900D02*
X388462500Y-62875000D01*
X173931100Y-63093900D02*
X174150000Y-62875000D01*
X40800000Y-62875000D02*
X41018900Y-63093900D01*
X388462500Y-62875000D02*
X390650000Y-62875000D01*
X193200000Y-62875000D02*
X193418900Y-63093900D01*
X98168900Y-63093900D02*
X116781100Y-63093900D01*
X193418900Y-63093900D02*
X212031100Y-63093900D01*
X97731100Y-63093900D02*
X97950000Y-62875000D01*
X79118900Y-63093900D02*
X97731100Y-63093900D01*
X350362500Y-62875000D02*
X350581400Y-63093900D01*
X41018900Y-63093900D02*
X59631100Y-63093900D01*
X78681100Y-63093900D02*
X78900000Y-62875000D01*
X136050000Y-62875000D02*
X136268900Y-63093900D01*
X136268900Y-63093900D02*
X154881100Y-63093900D01*
X231300000Y-62875000D02*
X231518900Y-63093900D01*
X97950000Y-62875000D02*
X98168900Y-63093900D01*
X250568900Y-63093900D02*
X269181100Y-63093900D01*
X369193600Y-63093900D02*
X369412500Y-62875000D01*
X212031100Y-63093900D02*
X212250000Y-62875000D01*
X331312500Y-62875000D02*
X331531400Y-63093900D01*
X59850000Y-62875000D02*
X60068900Y-63093900D01*
X250131100Y-63093900D02*
X250350000Y-62875000D01*
X60068900Y-63093900D02*
X78681100Y-63093900D01*
X307500000Y-62875000D02*
X307718900Y-63093900D01*
X135831100Y-63093900D02*
X136050000Y-62875000D01*
X331093600Y-63093900D02*
X331312500Y-62875000D01*
X331531400Y-63093900D02*
X350143600Y-63093900D01*
X212468900Y-63093900D02*
X231081100Y-63093900D01*
X174150000Y-62875000D02*
X174368900Y-63093900D01*
X369631400Y-63093900D02*
X388243600Y-63093900D01*
X350143600Y-63093900D02*
X350362500Y-62875000D01*
X307718900Y-63093900D02*
X331093600Y-63093900D01*
X269181100Y-63093900D02*
X269400000Y-62875000D01*
X154881100Y-63093900D02*
X155100000Y-62875000D01*
X269618900Y-63093900D02*
X307281100Y-63093900D01*
X347500000Y-49150000D02*
X347500000Y-51500000D01*
X116781100Y-63093900D02*
X117000000Y-62875000D01*
X212250000Y-62875000D02*
X212468900Y-63093900D01*
X390650000Y-62875000D02*
X390775000Y-63000000D01*
X155100000Y-62875000D02*
X155318900Y-63093900D01*
X59631100Y-63093900D02*
X59850000Y-62875000D01*
%TO.N,row2*%
X50543900Y-82143900D02*
X69156100Y-82143900D01*
X307718900Y-82143900D02*
X331093600Y-82143900D01*
X278925000Y-81925000D02*
X279143900Y-82143900D01*
X126306100Y-82143900D02*
X126525000Y-81925000D01*
X349500000Y-49150000D02*
X349500000Y-51500000D01*
X88425000Y-81925000D02*
X88643900Y-82143900D01*
X107475000Y-81925000D02*
X107693900Y-82143900D01*
X331312500Y-81925000D02*
X331531400Y-82143900D01*
X164406100Y-82143900D02*
X164625000Y-81925000D01*
X388462500Y-91500000D02*
X391000000Y-91500000D01*
X307500000Y-81925000D02*
X307718900Y-82143900D01*
X221775000Y-81925000D02*
X221993900Y-82143900D01*
X126525000Y-81925000D02*
X126743900Y-82143900D01*
X259656100Y-82143900D02*
X259875000Y-81925000D01*
X369193600Y-82143900D02*
X369412500Y-81925000D01*
X69593900Y-82143900D02*
X88206100Y-82143900D01*
X383662493Y-88033423D02*
X385541910Y-88033423D01*
X202943900Y-82143900D02*
X221556100Y-82143900D01*
X183456100Y-82143900D02*
X183675000Y-81925000D01*
X388462500Y-90954013D02*
X388462500Y-91500000D01*
X331531400Y-82143900D02*
X350143600Y-82143900D01*
X183893900Y-82143900D02*
X202506100Y-82143900D01*
X107693900Y-82143900D02*
X126306100Y-82143900D01*
X107256100Y-82143900D02*
X107475000Y-81925000D01*
X126743900Y-82143900D02*
X145356100Y-82143900D01*
X241293900Y-82143900D02*
X259656100Y-82143900D01*
X50325000Y-81925000D02*
X50543900Y-82143900D01*
X260093900Y-82143900D02*
X278706100Y-82143900D01*
X240606100Y-82143900D02*
X240825000Y-81925000D01*
X221556100Y-82143900D02*
X221775000Y-81925000D01*
X202506100Y-82143900D02*
X202725000Y-81925000D01*
X259875000Y-81925000D02*
X260093900Y-82143900D01*
X350581400Y-82143900D02*
X369193600Y-82143900D01*
X69156100Y-82143900D02*
X69375000Y-81925000D01*
X69375000Y-81925000D02*
X69593900Y-82143900D01*
X350362500Y-81925000D02*
X350581400Y-82143900D01*
X164625000Y-81925000D02*
X164843900Y-82143900D01*
X241075000Y-81925000D02*
X241293900Y-82143900D01*
X88643900Y-82143900D02*
X107256100Y-82143900D01*
X377554070Y-81925000D02*
X383662493Y-88033423D01*
X331093600Y-82143900D02*
X331312500Y-81925000D01*
X145793900Y-82143900D02*
X164406100Y-82143900D01*
X369412500Y-81925000D02*
X377554070Y-81925000D01*
X385541910Y-88033423D02*
X388462500Y-90954013D01*
X183675000Y-81925000D02*
X183893900Y-82143900D01*
X279143900Y-82143900D02*
X307281100Y-82143900D01*
X307281100Y-82143900D02*
X307500000Y-81925000D01*
X350143600Y-82143900D02*
X350362500Y-81925000D01*
X164843900Y-82143900D02*
X183456100Y-82143900D01*
X145575000Y-81925000D02*
X145793900Y-82143900D01*
X221993900Y-82143900D02*
X240606100Y-82143900D01*
X240825000Y-81925000D02*
X241075000Y-81925000D01*
X202725000Y-81925000D02*
X202943900Y-82143900D01*
X278706100Y-82143900D02*
X278925000Y-81925000D01*
X88206100Y-82143900D02*
X88425000Y-81925000D01*
X145356100Y-82143900D02*
X145575000Y-81925000D01*
%TO.N,row3*%
X169387500Y-100975000D02*
X169606400Y-101193900D01*
X150556400Y-101193900D02*
X169168600Y-101193900D01*
X307718900Y-101193900D02*
X331093600Y-101193900D01*
X207268600Y-101193900D02*
X207487500Y-100975000D01*
X131975000Y-100975000D02*
X132193900Y-101193900D01*
X55087500Y-100975000D02*
X55306400Y-101193900D01*
X208475000Y-100975000D02*
X208693900Y-101193900D01*
X331312500Y-100975000D02*
X331531400Y-101193900D01*
X73918600Y-101193900D02*
X74137500Y-100975000D01*
X245806400Y-101193900D02*
X264418600Y-101193900D01*
X265475000Y-100975000D02*
X265693900Y-101193900D01*
X74356400Y-101193900D02*
X92968600Y-101193900D01*
X188437500Y-100975000D02*
X189475000Y-100975000D01*
X226537500Y-100975000D02*
X226756400Y-101193900D01*
X132193900Y-101193900D02*
X150118600Y-101193900D01*
X265693900Y-101193900D02*
X307281100Y-101193900D01*
X245368600Y-101193900D02*
X245587500Y-100975000D01*
X331093600Y-101193900D02*
X331312500Y-100975000D01*
X369193600Y-101193900D02*
X369412500Y-100975000D01*
X169606400Y-101193900D02*
X188218600Y-101193900D01*
X93406400Y-101193900D02*
X112018600Y-101193900D01*
X331531400Y-101193900D02*
X350143600Y-101193900D01*
X307500000Y-100975000D02*
X307718900Y-101193900D01*
X112018600Y-101193900D02*
X112237500Y-100975000D01*
X150337500Y-100975000D02*
X150556400Y-101193900D01*
X264637500Y-100975000D02*
X265475000Y-100975000D01*
X350362500Y-100975000D02*
X350581400Y-101193900D01*
X369412500Y-100975000D02*
X370975000Y-100975000D01*
X370975000Y-100975000D02*
X372000000Y-102000000D01*
X55306400Y-101193900D02*
X73918600Y-101193900D01*
X188218600Y-101193900D02*
X188437500Y-100975000D01*
X226318600Y-101193900D02*
X226537500Y-100975000D01*
X150118600Y-101193900D02*
X150337500Y-100975000D01*
X131287500Y-100975000D02*
X131975000Y-100975000D01*
X207487500Y-100975000D02*
X208475000Y-100975000D01*
X92968600Y-101193900D02*
X93187500Y-100975000D01*
X93187500Y-100975000D02*
X93406400Y-101193900D01*
X169168600Y-101193900D02*
X169387500Y-100975000D01*
X74137500Y-100975000D02*
X74356400Y-101193900D01*
X112456400Y-101193900D02*
X131068600Y-101193900D01*
X245587500Y-100975000D02*
X245806400Y-101193900D01*
X307281100Y-101193900D02*
X307500000Y-100975000D01*
X131068600Y-101193900D02*
X131287500Y-100975000D01*
X350143600Y-101193900D02*
X350362500Y-100975000D01*
X264418600Y-101193900D02*
X264637500Y-100975000D01*
X226756400Y-101193900D02*
X245368600Y-101193900D01*
X208693900Y-101193900D02*
X226318600Y-101193900D01*
X189693900Y-101193900D02*
X207268600Y-101193900D01*
X351500000Y-49150000D02*
X351500000Y-51500000D01*
X350581400Y-101193900D02*
X369193600Y-101193900D01*
X189475000Y-100975000D02*
X189693900Y-101193900D01*
X112237500Y-100975000D02*
X112456400Y-101193900D01*
%TO.N,row4*%
X388462500Y-129500000D02*
X390000000Y-129500000D01*
X255112500Y-120025000D02*
X254893600Y-120243900D01*
X141031400Y-120243900D02*
X140812500Y-120025000D01*
X197743600Y-120243900D02*
X179131400Y-120243900D01*
X374648900Y-129868900D02*
X369412500Y-124632500D01*
X83662500Y-120025000D02*
X83443600Y-120243900D01*
X255331400Y-120243900D02*
X255112500Y-120025000D01*
X83881400Y-120243900D02*
X83662500Y-120025000D01*
X236281400Y-120243900D02*
X236062500Y-120025000D01*
X331531400Y-120243900D02*
X331312500Y-120025000D01*
X236062500Y-120025000D02*
X235843600Y-120243900D01*
X102931400Y-120243900D02*
X102712500Y-120025000D01*
X369412500Y-124632500D02*
X369412500Y-120025000D01*
X235843600Y-120243900D02*
X217231400Y-120243900D01*
X217231400Y-120243900D02*
X217012500Y-120025000D01*
X331312500Y-120025000D02*
X331093600Y-120243900D01*
X307281100Y-120243900D02*
X255331400Y-120243900D01*
X140812500Y-120025000D02*
X140593600Y-120243900D01*
X350362500Y-120025000D02*
X350143600Y-120243900D01*
X216793600Y-120243900D02*
X198181400Y-120243900D01*
X369193600Y-120243900D02*
X350581400Y-120243900D01*
X331093600Y-120243900D02*
X307718900Y-120243900D01*
X307500000Y-120025000D02*
X307281100Y-120243900D01*
X64831400Y-120243900D02*
X64612500Y-120025000D01*
X179131400Y-120243900D02*
X178912500Y-120025000D01*
X121762500Y-120025000D02*
X121543600Y-120243900D01*
X350581400Y-120243900D02*
X350362500Y-120025000D01*
X350143600Y-120243900D02*
X331531400Y-120243900D01*
X121981400Y-120243900D02*
X121762500Y-120025000D01*
X121543600Y-120243900D02*
X102931400Y-120243900D01*
X178693600Y-120243900D02*
X160081400Y-120243900D01*
X102712500Y-120025000D02*
X102475000Y-120025000D01*
X159643600Y-120243900D02*
X141031400Y-120243900D01*
X102256100Y-120243900D02*
X83881400Y-120243900D01*
X353500000Y-49150000D02*
X353500000Y-51500000D01*
X369412500Y-120025000D02*
X369193600Y-120243900D01*
X388462500Y-129500000D02*
X388093600Y-129868900D01*
X159862500Y-120025000D02*
X159643600Y-120243900D01*
X160081400Y-120243900D02*
X159862500Y-120025000D01*
X217012500Y-120025000D02*
X216793600Y-120243900D01*
X102475000Y-120025000D02*
X102256100Y-120243900D01*
X140593600Y-120243900D02*
X121981400Y-120243900D01*
X254893600Y-120243900D02*
X236281400Y-120243900D01*
X83443600Y-120243900D02*
X64831400Y-120243900D01*
X178912500Y-120025000D02*
X178693600Y-120243900D01*
X388093600Y-129868900D02*
X374648900Y-129868900D01*
X198181400Y-120243900D02*
X197962500Y-120025000D01*
X197962500Y-120025000D02*
X197743600Y-120243900D01*
X307718900Y-120243900D02*
X307500000Y-120025000D01*
%TO.N,row5*%
X307500000Y-139075000D02*
X307718900Y-139293900D01*
X307281100Y-139293900D02*
X307500000Y-139075000D01*
X283906400Y-139293900D02*
X307281100Y-139293900D01*
X236062500Y-139075000D02*
X236281400Y-139293900D01*
X283468600Y-139293900D02*
X283687500Y-139075000D01*
X235843600Y-139293900D02*
X236062500Y-139075000D01*
X45781400Y-139293900D02*
X69156100Y-139293900D01*
X92968600Y-139293900D02*
X93187500Y-139075000D01*
X212031100Y-139293900D02*
X212250000Y-139075000D01*
X45562500Y-139075000D02*
X45781400Y-139293900D01*
X371925000Y-139075000D02*
X372000000Y-139000000D01*
X350925000Y-139075000D02*
X351143900Y-139293900D01*
X69375000Y-139075000D02*
X69593900Y-139293900D01*
X93187500Y-139075000D02*
X93406400Y-139293900D01*
X236281400Y-139293900D02*
X259656100Y-139293900D01*
X69593900Y-139293900D02*
X92968600Y-139293900D01*
X259656100Y-139293900D02*
X259875000Y-139075000D01*
X355500000Y-49150000D02*
X355500000Y-51225000D01*
X369412500Y-139075000D02*
X371925000Y-139075000D01*
X351143900Y-139293900D02*
X369193600Y-139293900D01*
X69156100Y-139293900D02*
X69375000Y-139075000D01*
X212250000Y-139075000D02*
X212468900Y-139293900D01*
X212468900Y-139293900D02*
X235843600Y-139293900D01*
X93406400Y-139293900D02*
X212031100Y-139293900D01*
X283687500Y-139075000D02*
X283906400Y-139293900D01*
X260093900Y-139293900D02*
X283468600Y-139293900D01*
X259875000Y-139075000D02*
X260093900Y-139293900D01*
X350362500Y-139075000D02*
X350925000Y-139075000D01*
X350143600Y-139293900D02*
X350362500Y-139075000D01*
X307718900Y-139293900D02*
X350143600Y-139293900D01*
X369193600Y-139293900D02*
X369412500Y-139075000D01*
%TO.N,Net-(D_3-A)*%
X114592000Y-27045000D02*
X114592000Y-28592000D01*
X114592000Y-28592000D02*
X117000000Y-31000000D01*
%TO.N,Net-(D_4-A)*%
X136050000Y-29503000D02*
X136050000Y-31000000D01*
X133592000Y-27045000D02*
X136050000Y-29503000D01*
%TO.N,Net-(D_5-A)*%
X162092000Y-27045000D02*
X164625000Y-29578000D01*
X164625000Y-29578000D02*
X164625000Y-31000000D01*
%TO.N,Net-(D_6-A)*%
X183675000Y-29589001D02*
X183675000Y-31000000D01*
X181124485Y-27038486D02*
X183675000Y-29589001D01*
%TO.N,Net-(D_7-A)*%
X202725000Y-29590485D02*
X202725000Y-31000000D01*
X200188209Y-27053694D02*
X202725000Y-29590485D01*
%TO.N,Net-(D_8-A)*%
X219188209Y-27053694D02*
X221775000Y-29640485D01*
X221775000Y-29640485D02*
X221775000Y-31000000D01*
%TO.N,Net-(D_9-A)*%
X248092000Y-28742000D02*
X250350000Y-31000000D01*
X248092000Y-27045000D02*
X248092000Y-28742000D01*
%TO.N,Net-(D_10-A)*%
X267103706Y-28703706D02*
X269400000Y-31000000D01*
X267103706Y-27044520D02*
X267103706Y-28703706D01*
%TO.N,Net-(D_11-A)*%
X286103706Y-28653706D02*
X288450000Y-31000000D01*
X286103706Y-27044520D02*
X286103706Y-28653706D01*
%TO.N,Net-(D_12-A)*%
X305143706Y-27044520D02*
X305143706Y-28643706D01*
X305143706Y-28643706D02*
X307500000Y-31000000D01*
%TO.N,Net-(D_13-A)*%
X40800000Y-58328000D02*
X40800000Y-59575000D01*
X38117000Y-55645000D02*
X40800000Y-58328000D01*
%TO.N,Net-(D_14-A)*%
X59850000Y-58328000D02*
X59850000Y-59575000D01*
X57167000Y-55645000D02*
X59850000Y-58328000D01*
%TO.N,Net-(D_15-A)*%
X76217000Y-55645000D02*
X78900000Y-58328000D01*
X78900000Y-58328000D02*
X78900000Y-59575000D01*
%TO.N,Net-(D_16-A)*%
X95267000Y-55645000D02*
X97950000Y-58328000D01*
X97950000Y-58328000D02*
X97950000Y-59575000D01*
%TO.N,Net-(D_17-A)*%
X117000000Y-58328000D02*
X117000000Y-59575000D01*
X114317000Y-55645000D02*
X117000000Y-58328000D01*
%TO.N,Net-(D_18-A)*%
X136050000Y-58328000D02*
X136050000Y-59575000D01*
X133367000Y-55645000D02*
X136050000Y-58328000D01*
%TO.N,Net-(D_19-A)*%
X155100000Y-58328000D02*
X155100000Y-59575000D01*
X152417000Y-55645000D02*
X155100000Y-58328000D01*
%TO.N,Net-(D_20-A)*%
X171467000Y-55645000D02*
X174150000Y-58328000D01*
X174150000Y-58328000D02*
X174150000Y-59575000D01*
%TO.N,Net-(D_21-A)*%
X193200000Y-58328000D02*
X193200000Y-59575000D01*
X190517000Y-55645000D02*
X193200000Y-58328000D01*
%TO.N,Net-(D_22-A)*%
X212250000Y-58328000D02*
X212250000Y-59575000D01*
X209567000Y-55645000D02*
X212250000Y-58328000D01*
%TO.N,Net-(D_23-A)*%
X231300000Y-58328000D02*
X231300000Y-59575000D01*
X228617000Y-55645000D02*
X231300000Y-58328000D01*
%TO.N,Net-(D_24-A)*%
X247667000Y-55645000D02*
X250350000Y-58328000D01*
X250350000Y-58328000D02*
X250350000Y-59575000D01*
%TO.N,Net-(D_25-A)*%
X269400000Y-58328000D02*
X269400000Y-59575000D01*
X266717000Y-55645000D02*
X269400000Y-58328000D01*
%TO.N,Net-(D_26-A)*%
X303570000Y-55645000D02*
X307500000Y-59575000D01*
X295292000Y-55645000D02*
X303570000Y-55645000D01*
%TO.N,Net-(D_27-A)*%
X331312500Y-58328000D02*
X331312500Y-59575000D01*
X328629500Y-55645000D02*
X331312500Y-58328000D01*
%TO.N,Net-(D_28-A)*%
X350362500Y-58328000D02*
X350362500Y-59575000D01*
X347679500Y-55645000D02*
X350362500Y-58328000D01*
%TO.N,Net-(D_29-A)*%
X366729500Y-55645000D02*
X369412500Y-58328000D01*
X369412500Y-58328000D02*
X369412500Y-59575000D01*
%TO.N,Net-(D_30-A)*%
X388462500Y-58328000D02*
X388462500Y-59575000D01*
X385779500Y-55645000D02*
X388462500Y-58328000D01*
%TO.N,Net-(D_31-A)*%
X46395000Y-74695000D02*
X50325000Y-78625000D01*
X42879500Y-74695000D02*
X46395000Y-74695000D01*
%TO.N,Net-(D_32-A)*%
X66692000Y-74695000D02*
X69375000Y-77378000D01*
X69375000Y-77378000D02*
X69375000Y-78625000D01*
%TO.N,Net-(D_33-A)*%
X88425000Y-77378000D02*
X88425000Y-78625000D01*
X85742000Y-74695000D02*
X88425000Y-77378000D01*
%TO.N,Net-(D_34-A)*%
X104792000Y-74695000D02*
X107475000Y-77378000D01*
X107475000Y-77378000D02*
X107475000Y-78625000D01*
%TO.N,Net-(D_35-A)*%
X123842000Y-74695000D02*
X126525000Y-77378000D01*
X126525000Y-77378000D02*
X126525000Y-78625000D01*
%TO.N,Net-(D_36-A)*%
X142892000Y-74695000D02*
X145575000Y-77378000D01*
X145575000Y-77378000D02*
X145575000Y-78625000D01*
%TO.N,Net-(D_37-A)*%
X164625000Y-77378000D02*
X164625000Y-78625000D01*
X161942000Y-74695000D02*
X164625000Y-77378000D01*
%TO.N,Net-(D_38-A)*%
X180992000Y-74695000D02*
X183675000Y-77378000D01*
X183675000Y-77378000D02*
X183675000Y-78625000D01*
%TO.N,Net-(D_39-A)*%
X202725000Y-77378000D02*
X202725000Y-78625000D01*
X200042000Y-74695000D02*
X202725000Y-77378000D01*
%TO.N,Net-(D_40-A)*%
X221775000Y-77378000D02*
X221775000Y-78625000D01*
X219092000Y-74695000D02*
X221775000Y-77378000D01*
%TO.N,Net-(D_41-A)*%
X238142000Y-74695000D02*
X240825000Y-77378000D01*
X240825000Y-77378000D02*
X240825000Y-78625000D01*
%TO.N,Net-(D_42-A)*%
X259875000Y-77378000D02*
X259875000Y-78625000D01*
X257192000Y-74695000D02*
X259875000Y-77378000D01*
%TO.N,Net-(D_43-A)*%
X278925000Y-77378000D02*
X278925000Y-78625000D01*
X276242000Y-74695000D02*
X278925000Y-77378000D01*
%TO.N,Net-(D_44-A)*%
X303570000Y-74695000D02*
X307500000Y-78625000D01*
X300054500Y-74695000D02*
X303570000Y-74695000D01*
%TO.N,Net-(D_45-A)*%
X328629500Y-74695000D02*
X331312500Y-77378000D01*
X331312500Y-77378000D02*
X331312500Y-78625000D01*
%TO.N,Net-(D_46-A)*%
X350362500Y-77378000D02*
X350362500Y-78625000D01*
X347679500Y-74695000D02*
X350362500Y-77378000D01*
%TO.N,Net-(D_47-A)*%
X366729500Y-74695000D02*
X369412500Y-77378000D01*
X369412500Y-77378000D02*
X369412500Y-78625000D01*
%TO.N,Net-(D_48-A)*%
X388462500Y-86879780D02*
X388462500Y-88200000D01*
X385786143Y-84203423D02*
X388462500Y-86879780D01*
%TO.N,Net-(D_49-A)*%
X51157500Y-93745000D02*
X55087500Y-97675000D01*
X45260750Y-93745000D02*
X51157500Y-93745000D01*
%TO.N,Net-(D_50-A)*%
X71454500Y-93745000D02*
X74137500Y-96428000D01*
X74137500Y-96428000D02*
X74137500Y-97675000D01*
%TO.N,Net-(D_51-A)*%
X90504500Y-93745000D02*
X93187500Y-96428000D01*
X93187500Y-96428000D02*
X93187500Y-97675000D01*
%TO.N,Net-(D_52-A)*%
X112237500Y-96428000D02*
X112237500Y-97675000D01*
X109554500Y-93745000D02*
X112237500Y-96428000D01*
%TO.N,Net-(D_53-A)*%
X131287500Y-96428000D02*
X131287500Y-97675000D01*
X128604500Y-93745000D02*
X131287500Y-96428000D01*
%TO.N,Net-(D_54-A)*%
X150337500Y-96428000D02*
X150337500Y-97675000D01*
X147654500Y-93745000D02*
X150337500Y-96428000D01*
%TO.N,Net-(D_55-A)*%
X169387500Y-96428000D02*
X169387500Y-97675000D01*
X166704500Y-93745000D02*
X169387500Y-96428000D01*
%TO.N,Net-(D_56-A)*%
X188437500Y-96428000D02*
X188437500Y-97675000D01*
X185754500Y-93745000D02*
X188437500Y-96428000D01*
%TO.N,Net-(D_57-A)*%
X204804500Y-93745000D02*
X207487500Y-96428000D01*
X207487500Y-96428000D02*
X207487500Y-97675000D01*
%TO.N,Net-(D_58-A)*%
X223854500Y-93745000D02*
X226537500Y-96428000D01*
X226537500Y-96428000D02*
X226537500Y-97675000D01*
%TO.N,Net-(D_59-A)*%
X242904500Y-93745000D02*
X245587500Y-96428000D01*
X245587500Y-96428000D02*
X245587500Y-97675000D01*
%TO.N,Net-(D_60-A)*%
X264637500Y-96428000D02*
X264637500Y-97675000D01*
X261954500Y-93745000D02*
X264637500Y-96428000D01*
%TO.N,Net-(D_61-A)*%
X292910750Y-93745000D02*
X303570000Y-93745000D01*
X303570000Y-93745000D02*
X307500000Y-97675000D01*
%TO.N,Net-(D_62-A)*%
X328629500Y-93745000D02*
X331312500Y-96428000D01*
X331312500Y-96428000D02*
X331312500Y-97675000D01*
%TO.N,Net-(D_63-A)*%
X347679500Y-93745000D02*
X350362500Y-96428000D01*
X350362500Y-96428000D02*
X350362500Y-97675000D01*
%TO.N,Net-(D_64-A)*%
X369412500Y-96428000D02*
X369412500Y-97675000D01*
X366729500Y-93745000D02*
X369412500Y-96428000D01*
%TO.N,Net-(D_65-A)*%
X60682500Y-112795000D02*
X64612500Y-116725000D01*
X50023250Y-112795000D02*
X60682500Y-112795000D01*
%TO.N,Net-(D_66-A)*%
X80979500Y-112795000D02*
X83662500Y-115478000D01*
X83662500Y-115478000D02*
X83662500Y-116725000D01*
%TO.N,Net-(D_67-A)*%
X100029500Y-112795000D02*
X102712500Y-115478000D01*
X102712500Y-115478000D02*
X102712500Y-116725000D01*
%TO.N,Net-(D_68-A)*%
X121762500Y-115478000D02*
X121762500Y-116725000D01*
X119079500Y-112795000D02*
X121762500Y-115478000D01*
%TO.N,Net-(D_69-A)*%
X138129500Y-112795000D02*
X140812500Y-115478000D01*
X140812500Y-115478000D02*
X140812500Y-116725000D01*
%TO.N,Net-(D_70-A)*%
X159862500Y-115478000D02*
X159862500Y-116725000D01*
X157179500Y-112795000D02*
X159862500Y-115478000D01*
%TO.N,Net-(D_71-A)*%
X178912500Y-115478000D02*
X178912500Y-116725000D01*
X176229500Y-112795000D02*
X178912500Y-115478000D01*
%TO.N,Net-(D_72-A)*%
X195279500Y-112795000D02*
X197962500Y-115478000D01*
X197962500Y-115478000D02*
X197962500Y-116725000D01*
%TO.N,Net-(D_73-A)*%
X214329500Y-112795000D02*
X217012500Y-115478000D01*
X217012500Y-115478000D02*
X217012500Y-116725000D01*
%TO.N,Net-(D_74-A)*%
X233379500Y-112795000D02*
X236062500Y-115478000D01*
X236062500Y-115478000D02*
X236062500Y-116725000D01*
%TO.N,Net-(D_75-A)*%
X255112500Y-115478000D02*
X255112500Y-116725000D01*
X252429500Y-112795000D02*
X255112500Y-115478000D01*
%TO.N,Net-(D_76-A)*%
X288148250Y-112795000D02*
X303570000Y-112795000D01*
X303570000Y-112795000D02*
X307500000Y-116725000D01*
%TO.N,Net-(D_77-A)*%
X331312500Y-115478000D02*
X331312500Y-116725000D01*
X328629500Y-112795000D02*
X331312500Y-115478000D01*
%TO.N,Net-(D_78-A)*%
X350362500Y-115478000D02*
X350362500Y-116725000D01*
X347679500Y-112795000D02*
X350362500Y-115478000D01*
%TO.N,Net-(D_79-A)*%
X369412500Y-115478000D02*
X369412500Y-116725000D01*
X366729500Y-112795000D02*
X369412500Y-115478000D01*
%TO.N,Net-(D_80-A)*%
X388462500Y-125040500D02*
X388462500Y-126200000D01*
X385842000Y-122420000D02*
X388462500Y-125040500D01*
%TO.N,Net-(D_81-A)*%
X40498250Y-131845000D02*
X44428250Y-135775000D01*
X44428250Y-135775000D02*
X45562500Y-135775000D01*
%TO.N,Net-(D_82-A)*%
X68240750Y-135775000D02*
X69375000Y-135775000D01*
X64310750Y-131845000D02*
X68240750Y-135775000D01*
%TO.N,Net-(D_83-A)*%
X88123250Y-131845000D02*
X92053250Y-135775000D01*
X92053250Y-135775000D02*
X93187500Y-135775000D01*
%TO.N,Net-(D_84-A)*%
X159560750Y-131845000D02*
X208320000Y-131845000D01*
X208320000Y-131845000D02*
X212250000Y-135775000D01*
%TO.N,Net-(D_85-A)*%
X230998250Y-131845000D02*
X234928250Y-135775000D01*
X234928250Y-135775000D02*
X236062500Y-135775000D01*
%TO.N,Net-(D_86-A)*%
X258740750Y-135775000D02*
X259875000Y-135775000D01*
X254810750Y-131845000D02*
X258740750Y-135775000D01*
%TO.N,Net-(D_87-A)*%
X278623250Y-131845000D02*
X282553250Y-135775000D01*
X282553250Y-135775000D02*
X283687500Y-135775000D01*
%TO.N,Net-(D_88-A)*%
X306365750Y-135775000D02*
X307500000Y-135775000D01*
X302435750Y-131845000D02*
X306365750Y-135775000D01*
%TO.N,Net-(D_89-A)*%
X346432500Y-131845000D02*
X350362500Y-135775000D01*
X338154500Y-131845000D02*
X346432500Y-131845000D01*
%TO.N,Net-(D_90-A)*%
X369412500Y-134528000D02*
X369412500Y-135775000D01*
X366729500Y-131845000D02*
X369412500Y-134528000D01*
%TO.N,+5V *%
X307000000Y-35999996D02*
X307000000Y-39000000D01*
X374912500Y-28412500D02*
X375000000Y-28500000D01*
X380588896Y-28837500D02*
X380000000Y-28837500D01*
X378680264Y-28837500D02*
X378500000Y-28837500D01*
X379819736Y-28837500D02*
X380000000Y-28837500D01*
X378500000Y-28837500D02*
X380000000Y-28837500D01*
X382220000Y-26300000D02*
X382220000Y-27206396D01*
X379250035Y-28180510D02*
X379250035Y-28267729D01*
X379250035Y-28267729D02*
X378680264Y-28837500D01*
X366150000Y-32500000D02*
X373900000Y-32500000D01*
X384587500Y-28412500D02*
X384500000Y-28500000D01*
X386000000Y-28412500D02*
X384587500Y-28412500D01*
X379250035Y-28180510D02*
X379250035Y-28267799D01*
X373500000Y-28412500D02*
X374912500Y-28412500D01*
X377420000Y-27937764D02*
X378319736Y-28837500D01*
X379250035Y-28267799D02*
X379819736Y-28837500D01*
X377420000Y-26300000D02*
X377420000Y-27937764D01*
X382220000Y-27206396D02*
X380588896Y-28837500D01*
X378319736Y-28837500D02*
X378500000Y-28837500D01*
%TO.N,Net-(J1-CC1)*%
X377825000Y-24325000D02*
X378570000Y-25070000D01*
X373500000Y-26587500D02*
X373500000Y-25983274D01*
X375158274Y-24325000D02*
X377825000Y-24325000D01*
X378570000Y-25070000D02*
X378570000Y-26300000D01*
X373500000Y-25983274D02*
X375158274Y-24325000D01*
%TO.N,Net-(J1-CC2)*%
X382175000Y-24325000D02*
X381570000Y-24930000D01*
X386000000Y-26587500D02*
X386000000Y-25843274D01*
X384481726Y-24325000D02*
X382175000Y-24325000D01*
X386000000Y-25843274D02*
X384481726Y-24325000D01*
X381570000Y-24930000D02*
X381570000Y-26300000D01*
D23*
%TO.N,GND*%
X384000000Y-34000000D02*
X384750000Y-34750000D01*
D22*
X380053200Y-34946800D02*
X377000000Y-38000000D01*
D23*
X369200000Y-30000000D02*
X367700000Y-28500000D01*
X384000000Y-34000000D02*
X385000000Y-35000000D01*
X369200000Y-30000000D02*
X378500000Y-30000000D01*
D22*
X376620000Y-26300000D02*
X376620000Y-28120000D01*
X380190000Y-30000000D02*
X380053200Y-30000000D01*
X383020000Y-27170000D02*
X380190000Y-30000000D01*
D23*
X385000000Y-35000000D02*
X385000000Y-36500000D01*
D22*
X385000000Y-35000000D02*
X384750000Y-34750000D01*
D23*
X380053200Y-30000000D02*
X378500000Y-30000000D01*
D22*
X383020000Y-26300000D02*
X383020000Y-27170000D01*
X376620000Y-28120000D02*
X378500000Y-30000000D01*
X380053200Y-30000000D02*
X380053200Y-34946800D01*
D23*
X384000000Y-34000000D02*
X384000000Y-33946800D01*
X367700000Y-28500000D02*
X366150000Y-28500000D01*
X380053200Y-30000000D02*
X384000000Y-33946800D01*
D22*
X391500000Y-36500000D02*
X385000000Y-36500000D01*
%TO.N,Net-(U1-USB_D+)*%
X380190000Y-25000000D02*
X380190000Y-24190000D01*
X380570000Y-25380000D02*
X380190000Y-25000000D01*
X379950000Y-25000000D02*
X379570000Y-25380000D01*
X380190000Y-24190000D02*
X380000000Y-24000000D01*
X379570000Y-25380000D02*
X379570000Y-26300000D01*
X366150000Y-38500000D02*
X370000000Y-38500000D01*
X380190000Y-25000000D02*
X379950000Y-25000000D01*
X380570000Y-26300000D02*
X380570000Y-25380000D01*
%TO.N,Net-(U1-USB_D-)*%
X379500000Y-27500000D02*
X379070000Y-27070000D01*
X379790000Y-27500000D02*
X379500000Y-27500000D01*
X366150000Y-36500000D02*
X370903984Y-36500000D01*
X379070000Y-26300000D02*
X379070000Y-24443008D01*
X370903984Y-36500000D02*
X370951987Y-36451997D01*
X379070000Y-27070000D02*
X379070000Y-26300000D01*
X380070000Y-27220000D02*
X379790000Y-27500000D01*
X379070000Y-24443008D02*
X378951992Y-24325000D01*
X380070000Y-26300000D02*
X380070000Y-27220000D01*
%TO.N,Net-(U1-BOOTSEL)*%
X385000000Y-41000000D02*
X391500000Y-41000000D01*
X385000000Y-41000000D02*
X379500000Y-46500000D01*
X379500000Y-46500000D02*
X366150000Y-46500000D01*
%TD*%
M02*
