M48
; DRILL file {KiCad 8.0.5} date 2024-11-10T16:14:26+1100
; FORMAT={-:-/ absolute / inch / decimal}
; #@! TF.CreationDate,2024-11-10T16:14:26+11:00
; #@! TF.GenerationSoftware,Kicad,Pcbnew,8.0.5
; #@! TF.FileFunction,Plated,1,3,Blind
FMAT,2
INCH
; #@! TA.AperFunction,Plated,Buried,ViaDrill
T1C0.0157
%
G90
G05
T1
X1.3976Y-1.7717
X1.3976Y-2.8411
X1.5748Y-5.8071
X1.5945Y-3.6024
X1.752Y-4.311
X1.9291Y-5.0394
X2.126Y-2.8346
X2.5Y-5.8071
X2.6181Y-3.5433
X2.6969Y-4.3898
X2.8937Y-2.8346
X3.0709Y-5.1181
X3.2874Y-3.622
X3.4449Y-4.3898
X3.4449Y-5.8071
X3.6614Y-1.7913
X3.6614Y-2.8346
X3.878Y-5.0394
X4.0945Y-3.5433
X4.1732Y-4.3898
X4.4094Y-2.8346
X4.4291Y-1.7717
X4.5472Y-5.1181
X4.7638Y-3.622
X4.9213Y-4.3898
X5.1575Y-1.7717
X5.1575Y-2.8937
X5.2953Y-5.1181
X5.6299Y-3.5433
X5.6693Y-4.3898
X5.9055Y-2.8346
X6.063Y-5.1181
X6.2598Y-5.872
X6.2992Y-1.7717
X6.3189Y-3.5433
X6.4173Y-4.3898
X6.6535Y-2.8346
X6.8504Y-5.0394
X7.0079Y-3.622
X7.0472Y-1.7717
X7.185Y-4.3898
X7.4016Y-2.8543
X7.5591Y-5.1181
X7.7953Y-1.7717
X7.8346Y-3.5433
X7.9331Y-4.3898
X8.1496Y-2.815
X8.3465Y-5.1181
X8.5039Y-3.622
X8.5236Y-1.7717
X8.6811Y-4.3898
X8.8976Y-2.8346
X9.0354Y-5.1181
X9.1142Y-5.7874
X9.252Y-3.622
X9.4291Y-4.3898
X9.6654Y-2.8346
X9.7047Y-1.7717
X9.9213Y-5.0394
X10.0Y-3.622
X10.0197Y-5.8071
X10.1772Y-4.3898
X10.3937Y-2.8346
X10.4331Y-1.7717
X10.7283Y-3.622
X10.9449Y-5.8071
X11.1417Y-1.7717
X11.2402Y-5.1181
X11.4567Y-4.3898
X11.4764Y-2.8543
X11.6535Y-3.622
X11.9094Y-1.7717
X11.9094Y-5.8071
X12.815Y-5.0984
X12.8937Y-2.8346
X12.8937Y-4.3701
X12.9134Y-3.5433
X12.9724Y-1.2992
X13.3071Y-5.8071
X13.4978Y-2.833
X13.6417Y-4.3701
X13.6417Y-5.0394
X13.6614Y-3.5433
X13.7726Y-1.0955
X14.0551Y-1.2992
X14.3627Y-2.8384
X14.3898Y-4.311
X14.4094Y-3.5433
X14.4094Y-5.0394
X14.4094Y-5.8071
X15.0787Y-3.9764
X15.1181Y-1.2992
X15.1181Y-2.8937
X15.1378Y-5.4134
M30
