M48
; DRILL file {KiCad 8.0.6} date 2025-01-12T18:50:01+1100
; FORMAT={-:-/ absolute / inch / decimal}
; #@! TF.CreationDate,2025-01-12T18:50:01+11:00
; #@! TF.GenerationSoftware,Kicad,Pcbnew,8.0.6
; #@! TF.FileFunction,Plated,1,4,PTH
FMAT,2
INCH
; #@! TA.AperFunction,Plated,PTH,ViaDrill
T1C0.0157
; #@! TA.AperFunction,Plated,PTH,ComponentDrill
T2C0.0236
; #@! TA.AperFunction,Plated,PTH,ComponentDrill
T3C0.0433
; #@! TA.AperFunction,Plated,PTH,ComponentDrill
T4C0.1181
%
G90
G05
T1
X1.1461Y-2.6728
X1.2205Y-1.5354
X1.2795Y-5.7087
X1.378Y-4.2323
X1.378Y-5.6693
X1.3976Y-1.7565
X1.3976Y-2.8392
X1.3976Y-3.4055
X1.437Y-1.6339
X1.437Y-1.9094
X1.5699Y-4.9065
X1.6339Y-3.5872
X1.6589Y-4.3647
X1.752Y-2.4016
X1.8504Y-2.7077
X1.8898Y-5.0787
X2.0276Y-5.3937
X2.126Y-2.8392
X2.126Y-3.189
X2.1457Y-5.7632
X2.2835Y-3.4886
X2.3031Y-3.8976
X2.3031Y-5.6693
X2.4409Y-4.2081
X2.5Y-1.2992
X2.5Y-2.4213
X2.5591Y-3.5872
X2.6181Y-2.712
X2.6772Y-4.6654
X2.7362Y-4.3352
X2.7559Y-1.5748
X2.8199Y-4.9163
X2.874Y-3.1496
X2.9134Y-1.7565
X2.9134Y-2.8392
X2.9528Y-5.3937
X3.0512Y-3.46
X3.0709Y-3.8976
X3.0906Y-5.0833
X3.1496Y-5.689
X3.189Y-4.2081
X3.248Y-2.3819
X3.248Y-5.6693
X3.2677Y-1.2795
X3.3268Y-3.5872
X3.3858Y-2.712
X3.4449Y-1.5748
X3.4449Y-4.6457
X3.4843Y-4.3352
X3.5039Y-4.9561
X3.622Y-3.1496
X3.6614Y-2.8392
X3.7008Y-1.7565
X3.7598Y-3.46
X3.8189Y-3.9173
X3.8189Y-5.0787
X3.9173Y-4.2081
X3.9961Y-1.2795
X3.9961Y-2.4016
X4.0551Y-3.5872
X4.1339Y-2.712
X4.1732Y-4.6457
X4.2126Y-4.3352
X4.2323Y-1.5945
X4.252Y-4.9561
X4.3701Y-3.1496
X4.4291Y-2.8106
X4.4488Y-1.7565
X4.5276Y-3.46
X4.5669Y-3.8976
X4.5669Y-5.0833
X4.6654Y-4.2081
X4.7441Y-2.4213
X4.7638Y-1.2795
X4.8031Y-3.5872
X4.8622Y-2.712
X4.9409Y-1.5945
X4.9409Y-4.6457
X4.9803Y-4.3352
X5.0197Y-4.9561
X5.1181Y-3.1299
X5.1575Y-2.85
X5.1772Y-1.7565
X5.2953Y-3.46
X5.315Y-3.878
X5.315Y-5.0833
X5.4134Y-4.2081
X5.4921Y-2.1063
X5.4921Y-2.3819
X5.5512Y-3.5872
X5.6102Y-1.122
X5.6102Y-2.7406
X5.689Y-4.626
X5.7087Y-4.3352
X5.7677Y-5.3937
X5.7874Y-4.9561
X5.8661Y-1.2598
X5.8661Y-3.1693
X5.9055Y-2.8392
X5.9843Y-5.7087
X6.0039Y-3.46
X6.063Y-3.9173
X6.063Y-5.6693
X6.0827Y-5.0833
X6.1024Y-1.5945
X6.1614Y-4.2081
X6.2598Y-2.4213
X6.2795Y-3.5872
X6.3189Y-1.7565
X6.378Y-2.712
X6.437Y-4.6457
X6.4764Y-4.3352
X6.4764Y-4.9561
X6.6339Y-1.2598
X6.6339Y-3.1496
X6.6732Y-2.8392
X6.752Y-3.46
X6.7913Y-5.0833
X6.811Y-3.9173
X6.8307Y-1.5945
X6.9291Y-4.2081
X6.9882Y-2.4016
X7.0276Y-3.5872
X7.0669Y-1.7565
X7.126Y-2.712
X7.185Y-4.6457
X7.2244Y-4.3352
X7.2638Y-4.9561
X7.3819Y-1.2795
X7.3819Y-3.1693
X7.4016Y-2.8264
X7.5197Y-3.46
X7.5591Y-3.8976
X7.5787Y-5.0787
X7.5984Y-1.5945
X7.6772Y-4.2081
X7.7559Y-2.4213
X7.7756Y-3.5872
X7.815Y-1.7565
X7.8543Y-2.712
X7.9331Y-4.626
X7.9724Y-4.3352
X8.0709Y-4.9561
X8.1299Y-1.2795
X8.1299Y-3.1496
X8.189Y-2.8195
X8.248Y-3.46
X8.3071Y-3.8976
X8.3268Y-1.5945
X8.3661Y-5.0984
X8.4252Y-4.2081
X8.4843Y-2.4016
X8.5236Y-3.5872
X8.5433Y-1.7565
X8.5827Y-5.3937
X8.6024Y-2.6923
X8.6811Y-4.6457
X8.7205Y-4.3352
X8.7598Y-4.9561
X8.7795Y-5.689
X8.878Y-3.1496
X8.878Y-5.6693
X8.9567Y-2.8392
X8.9961Y-3.46
X9.0551Y-3.8976
X9.0551Y-5.0833
X9.1732Y-4.2081
X9.252Y-1.2795
X9.252Y-2.4016
X9.2717Y-3.5872
X9.3701Y-2.6923
X9.4291Y-4.6457
X9.4685Y-4.3352
X9.4882Y-1.5945
X9.5276Y-5.3937
X9.5669Y-4.9561
X9.626Y-3.1496
X9.6654Y-2.8392
X9.6654Y-5.7632
X9.685Y-1.7565
X9.7244Y-3.46
X9.8031Y-3.8976
X9.8228Y-5.6693
X9.8425Y-5.0944
X9.9213Y-4.2081
X10.0Y-1.2992
X10.0Y-2.4016
X10.0197Y-3.5872
X10.1181Y-2.712
X10.1919Y-4.3553
X10.2165Y-1.5945
X10.374Y-3.1496
X10.3937Y-2.8392
X10.4528Y-1.7565
X10.4528Y-5.374
X10.4724Y-3.46
X10.5906Y-5.7632
X10.748Y-1.2598
X10.748Y-3.563
X10.748Y-5.6693
X10.8268Y-4.626
X10.9252Y-1.5945
X10.9646Y-5.0197
X11.0236Y-3.8976
X11.122Y-2.3819
X11.1614Y-1.752
X11.2156Y-2.6624
X11.2352Y-4.1781
X11.2402Y-5.0787
X11.2992Y-3.1496
X11.3976Y-5.374
X11.4173Y-3.46
X11.4961Y-1.2795
X11.4961Y-2.8392
X11.4961Y-4.2909
X11.5157Y-5.7632
X11.6732Y-3.563
X11.6929Y-1.5945
X11.6929Y-5.6693
X11.811Y-1.9094
X11.9055Y-1.7756
X12.0079Y-1.9094
X12.3013Y-1.3602
X12.3425Y-2.2441
X12.4213Y-3.1496
X12.4213Y-3.8976
X12.4213Y-4.6457
X12.5591Y-1.5354
X12.5689Y-4.1634
X12.5984Y-2.7406
X12.5984Y-3.46
X12.6181Y-1.2839
X12.6772Y-4.8819
X12.7953Y-5.4134
X12.8346Y-4.3352
X12.8543Y-3.5872
X12.8637Y-1.3659
X12.8937Y-2.8264
X12.8937Y-5.0695
X12.9724Y-1.2839
X13.0118Y-5.7087
X13.0315Y-1.4764
X13.1299Y-5.6693
X13.1496Y-2.712
X13.189Y-2.4016
X13.189Y-3.1496
X13.189Y-3.9173
X13.189Y-4.6654
X13.2874Y-4.9016
X13.3071Y-3.46
X13.3071Y-4.2002
X13.4449Y-5.0984
X13.4783Y-2.8406
X13.6024Y-2.0472
X13.6024Y-3.5587
X13.6024Y-4.3352
X13.6811Y-2.0472
X13.7008Y-1.2553
X13.7598Y-2.0472
X13.7795Y-1.7126
X13.8386Y-2.0472
X13.9173Y-2.0472
X13.937Y-2.4016
X13.937Y-3.1693
X13.937Y-3.9173
X13.937Y-4.6457
X13.937Y-5.1969
X13.9769Y-1.3971
X13.9961Y-2.0472
X14.0354Y-4.2081
X14.0354Y-4.9423
X14.0551Y-3.46
X14.0748Y-2.6987
X14.0748Y-5.7283
X14.1929Y-1.2795
X14.2323Y-1.2402
X14.311Y-1.7323
X14.3307Y-4.3067
X14.3504Y-2.8589
X14.3504Y-3.5587
X14.3701Y-5.0394
X14.3898Y-5.748
X14.5079Y-1.0827
X14.5079Y-1.122
X14.5079Y-1.2402
X14.5079Y-1.2795
X14.5472Y-1.0827
X14.5472Y-1.122
X14.5472Y-1.2402
X14.5472Y-1.2795
X14.5669Y-1.4567
X14.5669Y-1.5748
X14.6457Y-4.0157
X14.6457Y-5.4724
X14.685Y-1.9291
X14.685Y-1.997
X14.685Y-2.4016
X14.685Y-3.5039
X14.685Y-4.8228
X14.7638Y-1.122
X14.7835Y-1.378
X14.8031Y-5.3543
X14.8228Y-1.0827
X14.8228Y-1.122
X14.8228Y-1.2553
X14.8425Y-2.712
X14.8622Y-1.0827
X14.8622Y-1.122
X14.9016Y-3.8189
X14.9194Y-0.9577
X14.9606Y-0.9449
X15.0075Y-1.4173
X15.0394Y-1.0827
X15.0394Y-1.122
X15.0787Y-1.122
X15.0801Y-1.0836
X15.0945Y-2.878
X15.0984Y-3.937
X15.0984Y-5.5118
X15.1378Y-1.2402
X15.3543Y-5.0984
X15.3848Y-2.4803
X15.3937Y-3.6024
T3
X15.1575Y-1.437
X15.1575Y-1.6142
X15.4134Y-1.437
X15.4134Y-1.6142
T4
X15.2756Y-1.8504
T2
G00X14.7835Y-0.8307
M15
G01X14.7835Y-0.8622
M16
G05
G00X14.7835Y-0.9902
M15
G01X14.7835Y-1.0335
M16
G05
G00X15.1236Y-0.8307
M15
G01X15.1236Y-0.8622
M16
G05
G00X15.1236Y-0.9902
M15
G01X15.1236Y-1.0335
M16
G05
M30
