M48
; DRILL file {KiCad 8.0.5} date 2024-11-10T22:51:30+1100
; FORMAT={-:-/ absolute / inch / decimal}
; #@! TF.CreationDate,2024-11-10T22:51:30+11:00
; #@! TF.GenerationSoftware,Kicad,Pcbnew,8.0.5
; #@! TF.FileFunction,Plated,1,4,PTH
FMAT,2
INCH
; #@! TA.AperFunction,Plated,PTH,ViaDrill
T1C0.0157
; #@! TA.AperFunction,Plated,PTH,ComponentDrill
T2C0.0236
; #@! TA.AperFunction,Plated,PTH,ComponentDrill
T3C0.0433
%
G90
G05
T1
X1.5699Y-4.9065
X1.6929Y-5.689
X1.6929Y-5.8904
X1.8898Y-5.0787
X1.8898Y-4.9409
X1.9685Y-4.9016
X11.3189Y-1.5945
X11.378Y-1.5551
X11.7717Y-1.8307
X11.9094Y-1.8307
X13.9961Y-3.563
X14.3701Y-3.5587
X14.3701Y-5.0394
X14.5122Y-3.8823
X14.5669Y-5.2165
X14.626Y-5.0787
X14.626Y-5.1772
X14.626Y-5.374
X14.7441Y-3.6614
X14.7638Y-3.8583
X15.2165Y-3.6811
T3
X15.1575Y-1.437
X15.1575Y-1.6142
X15.4134Y-1.437
X15.4134Y-1.6142
T2
G00X14.7835Y-0.8307
M15
G01X14.7835Y-0.8622
M16
G05
G00X14.7835Y-0.9902
M15
G01X14.7835Y-1.0335
M16
G05
G00X15.1236Y-0.8307
M15
G01X15.1236Y-0.8622
M16
G05
G00X15.1236Y-0.9902
M15
G01X15.1236Y-1.0335
M16
G05
M30
