%TF.GenerationSoftware,KiCad,Pcbnew,8.0.6*%
%TF.CreationDate,2025-01-12T18:50:00+11:00*%
%TF.ProjectId,keyboard,6b657962-6f61-4726-942e-6b696361645f,rev?*%
%TF.SameCoordinates,Original*%
%TF.FileFunction,Copper,L1,Top*%
%TF.FilePolarity,Positive*%
%FSLAX46Y46*%
G04 Gerber Fmt 4.6, Leading zero omitted, Abs format (unit mm)*
G04 Created by KiCad (PCBNEW 8.0.6) date 2025-01-12 18:50:00*
%MOMM*%
%LPD*%
G01*
G04 APERTURE LIST*
G04 Aperture macros list*
%AMRoundRect*
0 Rectangle with rounded corners*
0 $1 Rounding radius*
0 $2 $3 $4 $5 $6 $7 $8 $9 X,Y pos of 4 corners*
0 Add a 4 corners polygon primitive as box body*
4,1,4,$2,$3,$4,$5,$6,$7,$8,$9,$2,$3,0*
0 Add four circle primitives for the rounded corners*
1,1,$1+$1,$2,$3*
1,1,$1+$1,$4,$5*
1,1,$1+$1,$6,$7*
1,1,$1+$1,$8,$9*
0 Add four rect primitives between the rounded corners*
20,1,$1+$1,$2,$3,$4,$5,0*
20,1,$1+$1,$4,$5,$6,$7,0*
20,1,$1+$1,$6,$7,$8,$9,0*
20,1,$1+$1,$8,$9,$2,$3,0*%
G04 Aperture macros list end*
%TA.AperFunction,EtchedComponent*%
%ADD10C,0.000000*%
%TD*%
%TA.AperFunction,SMDPad,CuDef*%
%ADD11RoundRect,0.200000X-0.550000X-0.200000X0.550000X-0.200000X0.550000X0.200000X-0.550000X0.200000X0*%
%TD*%
%TA.AperFunction,SMDPad,CuDef*%
%ADD12R,1.000000X1.500000*%
%TD*%
%TA.AperFunction,ComponentPad*%
%ADD13C,2.000000*%
%TD*%
%TA.AperFunction,ComponentPad*%
%ADD14C,6.000000*%
%TD*%
%TA.AperFunction,ComponentPad*%
%ADD15O,1.000000X1.800000*%
%TD*%
%TA.AperFunction,ComponentPad*%
%ADD16O,1.000000X2.100000*%
%TD*%
%TA.AperFunction,ViaPad*%
%ADD17C,0.800000*%
%TD*%
%TA.AperFunction,Conductor*%
%ADD18C,0.250000*%
%TD*%
G04 APERTURE END LIST*
D10*
%TA.AperFunction,EtchedComponent*%
%TO.C,JP1*%
G36*
X334750000Y-43800000D02*
G01*
X334250000Y-43800000D01*
X334250000Y-43200000D01*
X334750000Y-43200000D01*
X334750000Y-43800000D01*
G37*
%TD.AperFunction*%
%TD*%
D11*
%TO.P,D35,1,VDD*%
%TO.N,+5V *%
X97860000Y-88610000D03*
%TO.P,D35,2,DOUT*%
%TO.N,Net-(D35-DOUT)*%
X97860000Y-90390000D03*
%TO.P,D35,3,VSS*%
%TO.N,GND*%
X101140000Y-90390000D03*
%TO.P,D35,4,DIN*%
%TO.N,Net-(D34-DOUT)*%
X101140000Y-88610000D03*
%TD*%
%TO.P,D66,1,VDD*%
%TO.N,+5V *%
X41860000Y-126610000D03*
%TO.P,D66,2,DOUT*%
%TO.N,Net-(D66-DOUT)*%
X41860000Y-128390000D03*
%TO.P,D66,3,VSS*%
%TO.N,GND*%
X45140000Y-128390000D03*
%TO.P,D66,4,DIN*%
%TO.N,50p2-66p4*%
X45140000Y-126610000D03*
%TD*%
%TO.P,D21,1,VDD*%
%TO.N,+5V *%
X164360000Y-69610000D03*
%TO.P,D21,2,DOUT*%
%TO.N,Net-(D20-DIN)*%
X164360000Y-71390000D03*
%TO.P,D21,3,VSS*%
%TO.N,GND*%
X167640000Y-71390000D03*
%TO.P,D21,4,DIN*%
%TO.N,Net-(D21-DIN)*%
X167640000Y-69610000D03*
%TD*%
%TO.P,D47,1,VDD*%
%TO.N,+5V *%
X340410000Y-88610000D03*
%TO.P,D47,2,DOUT*%
%TO.N,Net-(D47-DOUT)*%
X340410000Y-90390000D03*
%TO.P,D47,3,VSS*%
%TO.N,GND*%
X343690000Y-90390000D03*
%TO.P,D47,4,DIN*%
%TO.N,Net-(D46-DOUT)*%
X343690000Y-88610000D03*
%TD*%
%TO.P,D19,1,VDD*%
%TO.N,+5V *%
X125910000Y-70610000D03*
%TO.P,D19,2,DOUT*%
%TO.N,Net-(D18-DIN)*%
X125910000Y-72390000D03*
%TO.P,D19,3,VSS*%
%TO.N,GND*%
X129190000Y-72390000D03*
%TO.P,D19,4,DIN*%
%TO.N,Net-(D19-DIN)*%
X129190000Y-70610000D03*
%TD*%
%TO.P,D86,1,VDD*%
%TO.N,+5V *%
X223910000Y-147110000D03*
%TO.P,D86,2,DOUT*%
%TO.N,Net-(D85-DIN)*%
X223910000Y-148890000D03*
%TO.P,D86,3,VSS*%
%TO.N,GND*%
X227190000Y-148890000D03*
%TO.P,D86,4,DIN*%
%TO.N,Net-(D86-DIN)*%
X227190000Y-147110000D03*
%TD*%
%TO.P,D74,1,VDD*%
%TO.N,+5V *%
X207360000Y-126610000D03*
%TO.P,D74,2,DOUT*%
%TO.N,Net-(D74-DOUT)*%
X207360000Y-128390000D03*
%TO.P,D74,3,VSS*%
%TO.N,GND*%
X210640000Y-128390000D03*
%TO.P,D74,4,DIN*%
%TO.N,Net-(D73-DOUT)*%
X210640000Y-126610000D03*
%TD*%
%TO.P,D53,1,VDD*%
%TO.N,+5V *%
X101860000Y-107610000D03*
%TO.P,D53,2,DOUT*%
%TO.N,53p2-52p4*%
X101860000Y-109390000D03*
%TO.P,D53,3,VSS*%
%TO.N,GND*%
X105140000Y-109390000D03*
%TO.P,D53,4,DIN*%
%TO.N,Net-(D53-DIN)*%
X105140000Y-107610000D03*
%TD*%
%TO.P,D58,1,VDD*%
%TO.N,+5V *%
X197360000Y-107610000D03*
%TO.P,D58,2,DOUT*%
%TO.N,Net-(D57-DIN)*%
X197360000Y-109390000D03*
%TO.P,D58,3,VSS*%
%TO.N,GND*%
X200640000Y-109390000D03*
%TO.P,D58,4,DIN*%
%TO.N,Net-(D58-DIN)*%
X200640000Y-107610000D03*
%TD*%
%TO.P,D77,1,VDD*%
%TO.N,+5V *%
X280860000Y-126610000D03*
%TO.P,D77,2,DOUT*%
%TO.N,Net-(D77-DOUT)*%
X280860000Y-128390000D03*
%TO.P,D77,3,VSS*%
%TO.N,GND*%
X284140000Y-128390000D03*
%TO.P,D77,4,DIN*%
%TO.N,Net-(D76-DOUT)*%
X284140000Y-126610000D03*
%TD*%
%TO.P,D45,1,VDD*%
%TO.N,+5V *%
X291860000Y-88610000D03*
%TO.P,D45,2,DOUT*%
%TO.N,Net-(D45-DOUT)*%
X291860000Y-90390000D03*
%TO.P,D45,3,VSS*%
%TO.N,GND*%
X295140000Y-90390000D03*
%TO.P,D45,4,DIN*%
%TO.N,Net-(D44-DOUT)*%
X295140000Y-88610000D03*
%TD*%
%TO.P,D83,1,VDD*%
%TO.N,+5V *%
X56910000Y-147110000D03*
%TO.P,D83,2,DOUT*%
%TO.N,Net-(D82-DIN)*%
X56910000Y-148890000D03*
%TO.P,D83,3,VSS*%
%TO.N,GND*%
X60190000Y-148890000D03*
%TO.P,D83,4,DIN*%
%TO.N,Net-(D83-DIN)*%
X60190000Y-147110000D03*
%TD*%
%TO.P,D46,1,VDD*%
%TO.N,+5V *%
X321860000Y-88610000D03*
%TO.P,D46,2,DOUT*%
%TO.N,Net-(D46-DOUT)*%
X321860000Y-90390000D03*
%TO.P,D46,3,VSS*%
%TO.N,GND*%
X325140000Y-90390000D03*
%TO.P,D46,4,DIN*%
%TO.N,Net-(D45-DOUT)*%
X325140000Y-88610000D03*
%TD*%
%TO.P,D23,1,VDD*%
%TO.N,+5V *%
X201910000Y-69110000D03*
%TO.P,D23,2,DOUT*%
%TO.N,Net-(D22-DIN)*%
X201910000Y-70890000D03*
%TO.P,D23,3,VSS*%
%TO.N,GND*%
X205190000Y-70890000D03*
%TO.P,D23,4,DIN*%
%TO.N,Net-(D23-DIN)*%
X205190000Y-69110000D03*
%TD*%
%TO.P,D24,1,VDD*%
%TO.N,+5V *%
X220910000Y-69110000D03*
%TO.P,D24,2,DOUT*%
%TO.N,Net-(D23-DIN)*%
X220910000Y-70890000D03*
%TO.P,D24,3,VSS*%
%TO.N,GND*%
X224190000Y-70890000D03*
%TO.P,D24,4,DIN*%
%TO.N,Net-(D24-DIN)*%
X224190000Y-69110000D03*
%TD*%
%TO.P,D14,1,VDD*%
%TO.N,+5V *%
X30720000Y-69500000D03*
%TO.P,D14,2,DOUT*%
%TO.N,14p2-32p4*%
X30720000Y-71280000D03*
%TO.P,D14,3,VSS*%
%TO.N,GND*%
X34000000Y-71280000D03*
%TO.P,D14,4,DIN*%
%TO.N,Net-(D14-DIN)*%
X34000000Y-69500000D03*
%TD*%
%TO.P,D80,1,VDD*%
%TO.N,+5V *%
X358860000Y-126610000D03*
%TO.P,D80,2,DOUT*%
%TO.N,Net-(D80-DOUT)*%
X358860000Y-128390000D03*
%TO.P,D80,3,VSS*%
%TO.N,GND*%
X362140000Y-128390000D03*
%TO.P,D80,4,DIN*%
%TO.N,Net-(D79-DOUT)*%
X362140000Y-126610000D03*
%TD*%
%TO.P,D20,1,VDD*%
%TO.N,+5V *%
X144860000Y-69610000D03*
%TO.P,D20,2,DOUT*%
%TO.N,Net-(D19-DIN)*%
X144860000Y-71390000D03*
%TO.P,D20,3,VSS*%
%TO.N,GND*%
X148140000Y-71390000D03*
%TO.P,D20,4,DIN*%
%TO.N,Net-(D20-DIN)*%
X148140000Y-69610000D03*
%TD*%
%TO.P,D61,1,VDD*%
%TO.N,+5V *%
X254360000Y-107610000D03*
%TO.P,D61,2,DOUT*%
%TO.N,Net-(D60-DIN)*%
X254360000Y-109390000D03*
%TO.P,D61,3,VSS*%
%TO.N,GND*%
X257640000Y-109390000D03*
%TO.P,D61,4,DIN*%
%TO.N,Net-(D61-DIN)*%
X257640000Y-107610000D03*
%TD*%
%TO.P,D63,1,VDD*%
%TO.N,+5V *%
X320910000Y-107410000D03*
%TO.P,D63,2,DOUT*%
%TO.N,Net-(D62-DIN)*%
X320910000Y-109190000D03*
%TO.P,D63,3,VSS*%
%TO.N,GND*%
X324190000Y-109190000D03*
%TO.P,D63,4,DIN*%
%TO.N,Net-(D63-DIN)*%
X324190000Y-107410000D03*
%TD*%
%TO.P,D32,1,VDD*%
%TO.N,+5V *%
X36360000Y-88610000D03*
%TO.P,D32,2,DOUT*%
%TO.N,Net-(D32-DOUT)*%
X36360000Y-90390000D03*
%TO.P,D32,3,VSS*%
%TO.N,GND*%
X39640000Y-90390000D03*
%TO.P,D32,4,DIN*%
%TO.N,14p2-32p4*%
X39640000Y-88610000D03*
%TD*%
%TO.P,D5,1,VDD*%
%TO.N,+5V *%
X126360000Y-42110000D03*
%TO.P,D5,2,DOUT*%
%TO.N,Net-(D5-DOUT)*%
X126360000Y-43890000D03*
%TO.P,D5,3,VSS*%
%TO.N,GND*%
X129640000Y-43890000D03*
%TO.P,D5,4,DIN*%
%TO.N,Net-(D4-DOUT)*%
X129640000Y-42110000D03*
%TD*%
%TO.P,D48,1,VDD*%
%TO.N,+5V *%
X359360000Y-88610000D03*
%TO.P,D48,2,DOUT*%
%TO.N,Net-(D48-DOUT)*%
X359360000Y-90390000D03*
%TO.P,D48,3,VSS*%
%TO.N,GND*%
X362640000Y-90390000D03*
%TO.P,D48,4,DIN*%
%TO.N,Net-(D47-DOUT)*%
X362640000Y-88610000D03*
%TD*%
%TO.P,D81,1,VDD*%
%TO.N,+5V *%
X378410000Y-137110000D03*
%TO.P,D81,2,DOUT*%
%TO.N,81p2-91p4*%
X378410000Y-138890000D03*
%TO.P,D81,3,VSS*%
%TO.N,GND*%
X381690000Y-138890000D03*
%TO.P,D81,4,DIN*%
%TO.N,Net-(D80-DOUT)*%
X381690000Y-137110000D03*
%TD*%
%TO.P,D34,1,VDD*%
%TO.N,+5V *%
X79360000Y-88610000D03*
%TO.P,D34,2,DOUT*%
%TO.N,Net-(D34-DOUT)*%
X79360000Y-90390000D03*
%TO.P,D34,3,VSS*%
%TO.N,GND*%
X82640000Y-90390000D03*
%TO.P,D34,4,DIN*%
%TO.N,Net-(D33-DOUT)*%
X82640000Y-88610000D03*
%TD*%
%TO.P,D64,1,VDD*%
%TO.N,+5V *%
X340360000Y-107610000D03*
%TO.P,D64,2,DOUT*%
%TO.N,Net-(D63-DIN)*%
X340360000Y-109390000D03*
%TO.P,D64,3,VSS*%
%TO.N,GND*%
X343640000Y-109390000D03*
%TO.P,D64,4,DIN*%
%TO.N,Net-(D64-DIN)*%
X343640000Y-107610000D03*
%TD*%
%TO.P,D4,1,VDD*%
%TO.N,+5V *%
X107910000Y-42110000D03*
%TO.P,D4,2,DOUT*%
%TO.N,Net-(D4-DOUT)*%
X107910000Y-43890000D03*
%TO.P,D4,3,VSS*%
%TO.N,GND*%
X111190000Y-43890000D03*
%TO.P,D4,4,DIN*%
%TO.N,Net-(D3-DOUT)*%
X111190000Y-42110000D03*
%TD*%
%TO.P,D44,1,VDD*%
%TO.N,+5V *%
X268360000Y-88610000D03*
%TO.P,D44,2,DOUT*%
%TO.N,Net-(D44-DOUT)*%
X268360000Y-90390000D03*
%TO.P,D44,3,VSS*%
%TO.N,GND*%
X271640000Y-90390000D03*
%TO.P,D44,4,DIN*%
%TO.N,Net-(D43-DOUT)*%
X271640000Y-88610000D03*
%TD*%
%TO.P,D10,1,VDD*%
%TO.N,+5V *%
X241410000Y-42110000D03*
%TO.P,D10,2,DOUT*%
%TO.N,Net-(D10-DOUT)*%
X241410000Y-43890000D03*
%TO.P,D10,3,VSS*%
%TO.N,GND*%
X244690000Y-43890000D03*
%TO.P,D10,4,DIN*%
%TO.N,Net-(D10-DIN)*%
X244690000Y-42110000D03*
%TD*%
%TO.P,D90,1,VDD*%
%TO.N,+5V *%
X331410000Y-147110000D03*
%TO.P,D90,2,DOUT*%
%TO.N,Net-(D89-DIN)*%
X331410000Y-148890000D03*
%TO.P,D90,3,VSS*%
%TO.N,GND*%
X334690000Y-148890000D03*
%TO.P,D90,4,DIN*%
%TO.N,Net-(D90-DIN)*%
X334690000Y-147110000D03*
%TD*%
%TO.P,D22,1,VDD*%
%TO.N,+5V *%
X182910000Y-69610000D03*
%TO.P,D22,2,DOUT*%
%TO.N,Net-(D21-DIN)*%
X182910000Y-71390000D03*
%TO.P,D22,3,VSS*%
%TO.N,GND*%
X186190000Y-71390000D03*
%TO.P,D22,4,DIN*%
%TO.N,Net-(D22-DIN)*%
X186190000Y-69610000D03*
%TD*%
%TO.P,D6,1,VDD*%
%TO.N,+5V *%
X155410000Y-42110000D03*
%TO.P,D6,2,DOUT*%
%TO.N,Net-(D6-DOUT)*%
X155410000Y-43890000D03*
%TO.P,D6,3,VSS*%
%TO.N,GND*%
X158690000Y-43890000D03*
%TO.P,D6,4,DIN*%
%TO.N,Net-(D5-DOUT)*%
X158690000Y-42110000D03*
%TD*%
%TO.P,D62,1,VDD*%
%TO.N,+5V *%
X286860000Y-107610000D03*
%TO.P,D62,2,DOUT*%
%TO.N,Net-(D61-DIN)*%
X286860000Y-109390000D03*
%TO.P,D62,3,VSS*%
%TO.N,GND*%
X290140000Y-109390000D03*
%TO.P,D62,4,DIN*%
%TO.N,Net-(D62-DIN)*%
X290140000Y-107610000D03*
%TD*%
%TO.P,D93,1,VDD*%
%TO.N,+5V *%
X350635000Y-32610000D03*
%TO.P,D93,2,DOUT*%
%TO.N,Net-(D93-DOUT)*%
X350635000Y-34390000D03*
%TO.P,D93,3,VSS*%
%TO.N,GND*%
X353915000Y-34390000D03*
%TO.P,D93,4,DIN*%
%TO.N,Net-(D92-DOUT)*%
X353915000Y-32610000D03*
%TD*%
%TO.P,D7,1,VDD*%
%TO.N,+5V *%
X174360000Y-42110000D03*
%TO.P,D7,2,DOUT*%
%TO.N,Net-(D7-DOUT)*%
X174360000Y-43890000D03*
%TO.P,D7,3,VSS*%
%TO.N,GND*%
X177640000Y-43890000D03*
%TO.P,D7,4,DIN*%
%TO.N,Net-(D6-DOUT)*%
X177640000Y-42110000D03*
%TD*%
%TO.P,D12,1,VDD*%
%TO.N,+5V *%
X278410000Y-42110000D03*
%TO.P,D12,2,DOUT*%
%TO.N,Net-(D12-DOUT)*%
X278410000Y-43890000D03*
%TO.P,D12,3,VSS*%
%TO.N,GND*%
X281690000Y-43890000D03*
%TO.P,D12,4,DIN*%
%TO.N,Net-(D11-DOUT)*%
X281690000Y-42110000D03*
%TD*%
%TO.P,D60,1,VDD*%
%TO.N,+5V *%
X235360000Y-107610000D03*
%TO.P,D60,2,DOUT*%
%TO.N,Net-(D59-DIN)*%
X235360000Y-109390000D03*
%TO.P,D60,3,VSS*%
%TO.N,GND*%
X238640000Y-109390000D03*
%TO.P,D60,4,DIN*%
%TO.N,Net-(D60-DIN)*%
X238640000Y-107610000D03*
%TD*%
%TO.P,D70,1,VDD*%
%TO.N,+5V *%
X129860000Y-126610000D03*
%TO.P,D70,2,DOUT*%
%TO.N,Net-(D70-DOUT)*%
X129860000Y-128390000D03*
%TO.P,D70,3,VSS*%
%TO.N,GND*%
X133140000Y-128390000D03*
%TO.P,D70,4,DIN*%
%TO.N,Net-(D69-DOUT)*%
X133140000Y-126610000D03*
%TD*%
%TO.P,D88,1,VDD*%
%TO.N,+5V *%
X271410000Y-147110000D03*
%TO.P,D88,2,DOUT*%
%TO.N,Net-(D87-DIN)*%
X271410000Y-148890000D03*
%TO.P,D88,3,VSS*%
%TO.N,GND*%
X274690000Y-148890000D03*
%TO.P,D88,4,DIN*%
%TO.N,Net-(D88-DIN)*%
X274690000Y-147110000D03*
%TD*%
%TO.P,D50,1,VDD*%
%TO.N,+5V *%
X37860000Y-107610000D03*
%TO.P,D50,2,DOUT*%
%TO.N,50p2-66p4*%
X37860000Y-109390000D03*
%TO.P,D50,3,VSS*%
%TO.N,GND*%
X41140000Y-109390000D03*
%TO.P,D50,4,DIN*%
%TO.N,Net-(D50-DIN)*%
X41140000Y-107610000D03*
%TD*%
%TO.P,D13,1,VDD*%
%TO.N,+5V *%
X297910000Y-42110000D03*
%TO.P,D13,2,DOUT*%
%TO.N,31p4 - 13p2*%
X297910000Y-43890000D03*
%TO.P,D13,3,VSS*%
%TO.N,GND*%
X301190000Y-43890000D03*
%TO.P,D13,4,DIN*%
%TO.N,Net-(D12-DOUT)*%
X301190000Y-42110000D03*
%TD*%
%TO.P,D67,1,VDD*%
%TO.N,+5V *%
X73360000Y-126610000D03*
%TO.P,D67,2,DOUT*%
%TO.N,Net-(D67-DOUT)*%
X73360000Y-128390000D03*
%TO.P,D67,3,VSS*%
%TO.N,GND*%
X76640000Y-128390000D03*
%TO.P,D67,4,DIN*%
%TO.N,Net-(D66-DOUT)*%
X76640000Y-126610000D03*
%TD*%
%TO.P,D2,1,VDD*%
%TO.N,+5V *%
X69410000Y-42110000D03*
%TO.P,D2,2,DOUT*%
%TO.N,Net-(D2-DOUT)*%
X69410000Y-43890000D03*
%TO.P,D2,3,VSS*%
%TO.N,GND*%
X72690000Y-43890000D03*
%TO.P,D2,4,DIN*%
%TO.N,Net-(D1-DOUT)*%
X72690000Y-42110000D03*
%TD*%
%TO.P,D76,1,VDD*%
%TO.N,+5V *%
X245360000Y-126610000D03*
%TO.P,D76,2,DOUT*%
%TO.N,Net-(D76-DOUT)*%
X245360000Y-128390000D03*
%TO.P,D76,3,VSS*%
%TO.N,GND*%
X248640000Y-128390000D03*
%TO.P,D76,4,DIN*%
%TO.N,Net-(D75-DOUT)*%
X248640000Y-126610000D03*
%TD*%
%TO.P,D33,1,VDD*%
%TO.N,+5V *%
X59860000Y-88610000D03*
%TO.P,D33,2,DOUT*%
%TO.N,Net-(D33-DOUT)*%
X59860000Y-90390000D03*
%TO.P,D33,3,VSS*%
%TO.N,GND*%
X63140000Y-90390000D03*
%TO.P,D33,4,DIN*%
%TO.N,Net-(D32-DOUT)*%
X63140000Y-88610000D03*
%TD*%
%TO.P,D73,1,VDD*%
%TO.N,+5V *%
X187360000Y-126610000D03*
%TO.P,D73,2,DOUT*%
%TO.N,Net-(D73-DOUT)*%
X187360000Y-128390000D03*
%TO.P,D73,3,VSS*%
%TO.N,GND*%
X190640000Y-128390000D03*
%TO.P,D73,4,DIN*%
%TO.N,Net-(D72-DOUT)*%
X190640000Y-126610000D03*
%TD*%
%TO.P,D18,1,VDD*%
%TO.N,+5V *%
X106910000Y-69610000D03*
%TO.P,D18,2,DOUT*%
%TO.N,Net-(D17-DIN)*%
X106910000Y-71390000D03*
%TO.P,D18,3,VSS*%
%TO.N,GND*%
X110190000Y-71390000D03*
%TO.P,D18,4,DIN*%
%TO.N,Net-(D18-DIN)*%
X110190000Y-69610000D03*
%TD*%
%TO.P,D87,1,VDD*%
%TO.N,+5V *%
X247910000Y-147110000D03*
%TO.P,D87,2,DOUT*%
%TO.N,Net-(D86-DIN)*%
X247910000Y-148890000D03*
%TO.P,D87,3,VSS*%
%TO.N,GND*%
X251190000Y-148890000D03*
%TO.P,D87,4,DIN*%
%TO.N,Net-(D87-DIN)*%
X251190000Y-147110000D03*
%TD*%
%TO.P,D16,1,VDD*%
%TO.N,+5V *%
X68360000Y-69610000D03*
%TO.P,D16,2,DOUT*%
%TO.N,Net-(D15-DIN)*%
X68360000Y-71390000D03*
%TO.P,D16,3,VSS*%
%TO.N,GND*%
X71640000Y-71390000D03*
%TO.P,D16,4,DIN*%
%TO.N,Net-(D16-DIN)*%
X71640000Y-69610000D03*
%TD*%
%TO.P,D82,1,VDD*%
%TO.N,+5V *%
X33410000Y-147110000D03*
%TO.P,D82,2,DOUT*%
%TO.N,LED_DTA_OUT*%
X33410000Y-148890000D03*
%TO.P,D82,3,VSS*%
%TO.N,GND*%
X36690000Y-148890000D03*
%TO.P,D82,4,DIN*%
%TO.N,Net-(D82-DIN)*%
X36690000Y-147110000D03*
%TD*%
%TO.P,D43,1,VDD*%
%TO.N,+5V *%
X249860000Y-88610000D03*
%TO.P,D43,2,DOUT*%
%TO.N,Net-(D43-DOUT)*%
X249860000Y-90390000D03*
%TO.P,D43,3,VSS*%
%TO.N,GND*%
X253140000Y-90390000D03*
%TO.P,D43,4,DIN*%
%TO.N,Net-(D42-DOUT)*%
X253140000Y-88610000D03*
%TD*%
%TO.P,D75,1,VDD*%
%TO.N,+5V *%
X224860000Y-126610000D03*
%TO.P,D75,2,DOUT*%
%TO.N,Net-(D75-DOUT)*%
X224860000Y-128390000D03*
%TO.P,D75,3,VSS*%
%TO.N,GND*%
X228140000Y-128390000D03*
%TO.P,D75,4,DIN*%
%TO.N,Net-(D74-DOUT)*%
X228140000Y-126610000D03*
%TD*%
%TO.P,D68,1,VDD*%
%TO.N,+5V *%
X91860000Y-126610000D03*
%TO.P,D68,2,DOUT*%
%TO.N,Net-(D68-DOUT)*%
X91860000Y-128390000D03*
%TO.P,D68,3,VSS*%
%TO.N,GND*%
X95140000Y-128390000D03*
%TO.P,D68,4,DIN*%
%TO.N,Net-(D67-DOUT)*%
X95140000Y-126610000D03*
%TD*%
%TO.P,D65,1,VDD*%
%TO.N,+5V *%
X358860000Y-107610000D03*
%TO.P,D65,2,DOUT*%
%TO.N,Net-(D64-DIN)*%
X358860000Y-109390000D03*
%TO.P,D65,3,VSS*%
%TO.N,GND*%
X362140000Y-109390000D03*
%TO.P,D65,4,DIN*%
%TO.N,49p2-65p4*%
X362140000Y-107610000D03*
%TD*%
%TO.P,D89,1,VDD*%
%TO.N,+5V *%
X295410000Y-147110000D03*
%TO.P,D89,2,DOUT*%
%TO.N,Net-(D88-DIN)*%
X295410000Y-148890000D03*
%TO.P,D89,3,VSS*%
%TO.N,GND*%
X298690000Y-148890000D03*
%TO.P,D89,4,DIN*%
%TO.N,Net-(D89-DIN)*%
X298690000Y-147110000D03*
%TD*%
%TO.P,D92,1,VDD*%
%TO.N,+5V *%
X323360000Y-32610000D03*
%TO.P,D92,2,DOUT*%
%TO.N,Net-(D92-DOUT)*%
X323360000Y-34390000D03*
%TO.P,D92,3,VSS*%
%TO.N,GND*%
X326640000Y-34390000D03*
%TO.P,D92,4,DIN*%
%TO.N,Net-(D92-DIN)*%
X326640000Y-32610000D03*
%TD*%
%TO.P,D36,1,VDD*%
%TO.N,+5V *%
X116860000Y-88610000D03*
%TO.P,D36,2,DOUT*%
%TO.N,Net-(D36-DOUT)*%
X116860000Y-90390000D03*
%TO.P,D36,3,VSS*%
%TO.N,GND*%
X120140000Y-90390000D03*
%TO.P,D36,4,DIN*%
%TO.N,Net-(D35-DOUT)*%
X120140000Y-88610000D03*
%TD*%
%TO.P,D94,1,VDD*%
%TO.N,+5V *%
X377910000Y-32610000D03*
%TO.P,D94,2,DOUT*%
%TO.N,unconnected-(D94-DOUT-Pad2)*%
X377910000Y-34390000D03*
%TO.P,D94,3,VSS*%
%TO.N,GND*%
X381190000Y-34390000D03*
%TO.P,D94,4,DIN*%
%TO.N,Net-(D93-DOUT)*%
X381190000Y-32610000D03*
%TD*%
%TO.P,D1,1,VDD*%
%TO.N,+5V *%
X30860000Y-41610000D03*
%TO.P,D1,2,DOUT*%
%TO.N,Net-(D1-DOUT)*%
X30860000Y-43390000D03*
%TO.P,D1,3,VSS*%
%TO.N,GND*%
X34140000Y-43390000D03*
%TO.P,D1,4,DIN*%
%TO.N,LED_DTA_IN*%
X34140000Y-41610000D03*
%TD*%
%TO.P,D69,1,VDD*%
%TO.N,+5V *%
X110860000Y-126610000D03*
%TO.P,D69,2,DOUT*%
%TO.N,Net-(D69-DOUT)*%
X110860000Y-128390000D03*
%TO.P,D69,3,VSS*%
%TO.N,GND*%
X114140000Y-128390000D03*
%TO.P,D69,4,DIN*%
%TO.N,Net-(D68-DOUT)*%
X114140000Y-126610000D03*
%TD*%
D12*
%TO.P,JP2,1,A*%
%TO.N,Net-(D92-DIN)*%
X333700000Y-36000000D03*
%TO.P,JP2,2,B*%
%TO.N,LED_DTA_OUT*%
X335000000Y-36000000D03*
%TD*%
D11*
%TO.P,D31,1,VDD*%
%TO.N,+5V *%
X378910000Y-70110000D03*
%TO.P,D31,2,DOUT*%
%TO.N,Net-(D30-DIN)*%
X378910000Y-71890000D03*
%TO.P,D31,3,VSS*%
%TO.N,GND*%
X382190000Y-71890000D03*
%TO.P,D31,4,DIN*%
%TO.N,31p4 - 13p2*%
X382190000Y-70110000D03*
%TD*%
%TO.P,D49,1,VDD*%
%TO.N,+5V *%
X378860000Y-98760000D03*
%TO.P,D49,2,DOUT*%
%TO.N,49p2-65p4*%
X378860000Y-100540000D03*
%TO.P,D49,3,VSS*%
%TO.N,GND*%
X382140000Y-100540000D03*
%TO.P,D49,4,DIN*%
%TO.N,Net-(D48-DOUT)*%
X382140000Y-98760000D03*
%TD*%
%TO.P,D9,1,VDD*%
%TO.N,+5V *%
X211910000Y-42110000D03*
%TO.P,D9,2,DOUT*%
%TO.N,Net-(D10-DIN)*%
X211910000Y-43890000D03*
%TO.P,D9,3,VSS*%
%TO.N,GND*%
X215190000Y-43890000D03*
%TO.P,D9,4,DIN*%
%TO.N,Net-(D8-DOUT)*%
X215190000Y-42110000D03*
%TD*%
D12*
%TO.P,JP1,1,A*%
%TO.N,LED-Status IN*%
X335150000Y-43500000D03*
%TO.P,JP1,2,B*%
%TO.N,Net-(D92-DIN)*%
X333850000Y-43500000D03*
%TD*%
D11*
%TO.P,D15,1,VDD*%
%TO.N,+5V *%
X48860000Y-69610000D03*
%TO.P,D15,2,DOUT*%
%TO.N,Net-(D14-DIN)*%
X48860000Y-71390000D03*
%TO.P,D15,3,VSS*%
%TO.N,GND*%
X52140000Y-71390000D03*
%TO.P,D15,4,DIN*%
%TO.N,Net-(D15-DIN)*%
X52140000Y-69610000D03*
%TD*%
%TO.P,D28,1,VDD*%
%TO.N,+5V *%
X322360000Y-69610000D03*
%TO.P,D28,2,DOUT*%
%TO.N,Net-(D27-DIN)*%
X322360000Y-71390000D03*
%TO.P,D28,3,VSS*%
%TO.N,GND*%
X325640000Y-71390000D03*
%TO.P,D28,4,DIN*%
%TO.N,Net-(D28-DIN)*%
X325640000Y-69610000D03*
%TD*%
%TO.P,D71,1,VDD*%
%TO.N,+5V *%
X149360000Y-126610000D03*
%TO.P,D71,2,DOUT*%
%TO.N,Net-(D71-DOUT)*%
X149360000Y-128390000D03*
%TO.P,D71,3,VSS*%
%TO.N,GND*%
X152640000Y-128390000D03*
%TO.P,D71,4,DIN*%
%TO.N,Net-(D70-DOUT)*%
X152640000Y-126610000D03*
%TD*%
%TO.P,D39,1,VDD*%
%TO.N,+5V *%
X173860000Y-88610000D03*
%TO.P,D39,2,DOUT*%
%TO.N,39p2-40p4*%
X173860000Y-90390000D03*
%TO.P,D39,3,VSS*%
%TO.N,GND*%
X177140000Y-90390000D03*
%TO.P,D39,4,DIN*%
%TO.N,Net-(D38-DOUT)*%
X177140000Y-88610000D03*
%TD*%
%TO.P,D11,1,VDD*%
%TO.N,+5V *%
X260410000Y-42110000D03*
%TO.P,D11,2,DOUT*%
%TO.N,Net-(D11-DOUT)*%
X260410000Y-43890000D03*
%TO.P,D11,3,VSS*%
%TO.N,GND*%
X263690000Y-43890000D03*
%TO.P,D11,4,DIN*%
%TO.N,Net-(D10-DOUT)*%
X263690000Y-42110000D03*
%TD*%
%TO.P,D42,1,VDD*%
%TO.N,+5V *%
X230860000Y-88610000D03*
%TO.P,D42,2,DOUT*%
%TO.N,Net-(D42-DOUT)*%
X230860000Y-90390000D03*
%TO.P,D42,3,VSS*%
%TO.N,GND*%
X234140000Y-90390000D03*
%TO.P,D42,4,DIN*%
%TO.N,Net-(D41-DOUT)*%
X234140000Y-88610000D03*
%TD*%
%TO.P,D85,1,VDD*%
%TO.N,+5V *%
X152360000Y-147110000D03*
%TO.P,D85,2,DOUT*%
%TO.N,Net-(D84-DIN)*%
X152360000Y-148890000D03*
%TO.P,D85,3,VSS*%
%TO.N,GND*%
X155640000Y-148890000D03*
%TO.P,D85,4,DIN*%
%TO.N,Net-(D85-DIN)*%
X155640000Y-147110000D03*
%TD*%
%TO.P,D37,1,VDD*%
%TO.N,+5V *%
X136360000Y-88610000D03*
%TO.P,D37,2,DOUT*%
%TO.N,Net-(D37-DOUT)*%
X136360000Y-90390000D03*
%TO.P,D37,3,VSS*%
%TO.N,GND*%
X139640000Y-90390000D03*
%TO.P,D37,4,DIN*%
%TO.N,Net-(D36-DOUT)*%
X139640000Y-88610000D03*
%TD*%
%TO.P,D26,1,VDD*%
%TO.N,+5V *%
X258910000Y-69610000D03*
%TO.P,D26,2,DOUT*%
%TO.N,Net-(D25-DIN)*%
X258910000Y-71390000D03*
%TO.P,D26,3,VSS*%
%TO.N,GND*%
X262190000Y-71390000D03*
%TO.P,D26,4,DIN*%
%TO.N,26p4-27p2*%
X262190000Y-69610000D03*
%TD*%
%TO.P,D41,1,VDD*%
%TO.N,+5V *%
X211860000Y-88610000D03*
%TO.P,D41,2,DOUT*%
%TO.N,Net-(D41-DOUT)*%
X211860000Y-90390000D03*
%TO.P,D41,3,VSS*%
%TO.N,GND*%
X215140000Y-90390000D03*
%TO.P,D41,4,DIN*%
%TO.N,Net-(D40-DOUT)*%
X215140000Y-88610000D03*
%TD*%
%TO.P,D57,1,VDD*%
%TO.N,+5V *%
X178360000Y-107610000D03*
%TO.P,D57,2,DOUT*%
%TO.N,Net-(D56-DIN)*%
X178360000Y-109390000D03*
%TO.P,D57,3,VSS*%
%TO.N,GND*%
X181640000Y-109390000D03*
%TO.P,D57,4,DIN*%
%TO.N,Net-(D57-DIN)*%
X181640000Y-107610000D03*
%TD*%
%TO.P,D17,1,VDD*%
%TO.N,+5V *%
X87860000Y-69610000D03*
%TO.P,D17,2,DOUT*%
%TO.N,Net-(D16-DIN)*%
X87860000Y-71390000D03*
%TO.P,D17,3,VSS*%
%TO.N,GND*%
X91140000Y-71390000D03*
%TO.P,D17,4,DIN*%
%TO.N,Net-(D17-DIN)*%
X91140000Y-69610000D03*
%TD*%
%TO.P,D79,1,VDD*%
%TO.N,+5V *%
X338500000Y-126260000D03*
%TO.P,D79,2,DOUT*%
%TO.N,Net-(D79-DOUT)*%
X338500000Y-128040000D03*
%TO.P,D79,3,VSS*%
%TO.N,GND*%
X341780000Y-128040000D03*
%TO.P,D79,4,DIN*%
%TO.N,78p2-79p4*%
X341780000Y-126260000D03*
%TD*%
%TO.P,D91,1,VDD*%
%TO.N,+5V *%
X359410000Y-147110000D03*
%TO.P,D91,2,DOUT*%
%TO.N,Net-(D90-DIN)*%
X359410000Y-148890000D03*
%TO.P,D91,3,VSS*%
%TO.N,GND*%
X362690000Y-148890000D03*
%TO.P,D91,4,DIN*%
%TO.N,81p2-91p4*%
X362690000Y-147110000D03*
%TD*%
%TO.P,D30,1,VDD*%
%TO.N,+5V *%
X359860000Y-69610000D03*
%TO.P,D30,2,DOUT*%
%TO.N,Net-(D29-DIN)*%
X359860000Y-71390000D03*
%TO.P,D30,3,VSS*%
%TO.N,GND*%
X363140000Y-71390000D03*
%TO.P,D30,4,DIN*%
%TO.N,Net-(D30-DIN)*%
X363140000Y-69610000D03*
%TD*%
%TO.P,D3,1,VDD*%
%TO.N,+5V *%
X88860000Y-42110000D03*
%TO.P,D3,2,DOUT*%
%TO.N,Net-(D3-DOUT)*%
X88860000Y-43890000D03*
%TO.P,D3,3,VSS*%
%TO.N,GND*%
X92140000Y-43890000D03*
%TO.P,D3,4,DIN*%
%TO.N,Net-(D2-DOUT)*%
X92140000Y-42110000D03*
%TD*%
%TO.P,D29,1,VDD*%
%TO.N,+5V *%
X337972500Y-69272500D03*
%TO.P,D29,2,DOUT*%
%TO.N,Net-(D28-DIN)*%
X337972500Y-71052500D03*
%TO.P,D29,3,VSS*%
%TO.N,GND*%
X341252500Y-71052500D03*
%TO.P,D29,4,DIN*%
%TO.N,Net-(D29-DIN)*%
X341252500Y-69272500D03*
%TD*%
%TO.P,D56,1,VDD*%
%TO.N,+5V *%
X158860000Y-107610000D03*
%TO.P,D56,2,DOUT*%
%TO.N,Net-(D55-DIN)*%
X158860000Y-109390000D03*
%TO.P,D56,3,VSS*%
%TO.N,GND*%
X162140000Y-109390000D03*
%TO.P,D56,4,DIN*%
%TO.N,Net-(D56-DIN)*%
X162140000Y-107610000D03*
%TD*%
%TO.P,D25,1,VDD*%
%TO.N,+5V *%
X240360000Y-69610000D03*
%TO.P,D25,2,DOUT*%
%TO.N,Net-(D24-DIN)*%
X240360000Y-71390000D03*
%TO.P,D25,3,VSS*%
%TO.N,GND*%
X243640000Y-71390000D03*
%TO.P,D25,4,DIN*%
%TO.N,Net-(D25-DIN)*%
X243640000Y-69610000D03*
%TD*%
%TO.P,D84,1,VDD*%
%TO.N,+5V *%
X80910000Y-147110000D03*
%TO.P,D84,2,DOUT*%
%TO.N,Net-(D83-DIN)*%
X80910000Y-148890000D03*
%TO.P,D84,3,VSS*%
%TO.N,GND*%
X84190000Y-148890000D03*
%TO.P,D84,4,DIN*%
%TO.N,Net-(D84-DIN)*%
X84190000Y-147110000D03*
%TD*%
%TO.P,D40,1,VDD*%
%TO.N,+5V *%
X192860000Y-88610000D03*
%TO.P,D40,2,DOUT*%
%TO.N,Net-(D40-DOUT)*%
X192860000Y-90390000D03*
%TO.P,D40,3,VSS*%
%TO.N,GND*%
X196140000Y-90390000D03*
%TO.P,D40,4,DIN*%
%TO.N,39p2-40p4*%
X196140000Y-88610000D03*
%TD*%
%TO.P,D59,1,VDD*%
%TO.N,+5V *%
X216360000Y-107610000D03*
%TO.P,D59,2,DOUT*%
%TO.N,Net-(D58-DIN)*%
X216360000Y-109390000D03*
%TO.P,D59,3,VSS*%
%TO.N,GND*%
X219640000Y-109390000D03*
%TO.P,D59,4,DIN*%
%TO.N,Net-(D59-DIN)*%
X219640000Y-107610000D03*
%TD*%
%TO.P,D55,1,VDD*%
%TO.N,+5V *%
X139860000Y-107610000D03*
%TO.P,D55,2,DOUT*%
%TO.N,Net-(D54-DIN)*%
X139860000Y-109390000D03*
%TO.P,D55,3,VSS*%
%TO.N,GND*%
X143140000Y-109390000D03*
%TO.P,D55,4,DIN*%
%TO.N,Net-(D55-DIN)*%
X143140000Y-107610000D03*
%TD*%
%TO.P,D27,1,VDD*%
%TO.N,+5V *%
X286860000Y-69610000D03*
%TO.P,D27,2,DOUT*%
%TO.N,26p4-27p2*%
X286860000Y-71390000D03*
%TO.P,D27,3,VSS*%
%TO.N,GND*%
X290140000Y-71390000D03*
%TO.P,D27,4,DIN*%
%TO.N,Net-(D27-DIN)*%
X290140000Y-69610000D03*
%TD*%
%TO.P,D8,1,VDD*%
%TO.N,+5V *%
X193410000Y-42110000D03*
%TO.P,D8,2,DOUT*%
%TO.N,Net-(D8-DOUT)*%
X193410000Y-43890000D03*
%TO.P,D8,3,VSS*%
%TO.N,GND*%
X196690000Y-43890000D03*
%TO.P,D8,4,DIN*%
%TO.N,Net-(D7-DOUT)*%
X196690000Y-42110000D03*
%TD*%
%TO.P,D72,1,VDD*%
%TO.N,+5V *%
X167360000Y-126610000D03*
%TO.P,D72,2,DOUT*%
%TO.N,Net-(D72-DOUT)*%
X167360000Y-128390000D03*
%TO.P,D72,3,VSS*%
%TO.N,GND*%
X170640000Y-128390000D03*
%TO.P,D72,4,DIN*%
%TO.N,Net-(D71-DOUT)*%
X170640000Y-126610000D03*
%TD*%
%TO.P,D54,1,VDD*%
%TO.N,+5V *%
X120860000Y-107610000D03*
%TO.P,D54,2,DOUT*%
%TO.N,Net-(D53-DIN)*%
X120860000Y-109390000D03*
%TO.P,D54,3,VSS*%
%TO.N,GND*%
X124140000Y-109390000D03*
%TO.P,D54,4,DIN*%
%TO.N,Net-(D54-DIN)*%
X124140000Y-107610000D03*
%TD*%
%TO.P,D51,1,VDD*%
%TO.N,+5V *%
X64360000Y-107610000D03*
%TO.P,D51,2,DOUT*%
%TO.N,Net-(D50-DIN)*%
X64360000Y-109390000D03*
%TO.P,D51,3,VSS*%
%TO.N,GND*%
X67640000Y-109390000D03*
%TO.P,D51,4,DIN*%
%TO.N,Net-(D51-DIN)*%
X67640000Y-107610000D03*
%TD*%
%TO.P,D52,1,VDD*%
%TO.N,+5V *%
X83360000Y-107610000D03*
%TO.P,D52,2,DOUT*%
%TO.N,Net-(D51-DIN)*%
X83360000Y-109390000D03*
%TO.P,D52,3,VSS*%
%TO.N,GND*%
X86640000Y-109390000D03*
%TO.P,D52,4,DIN*%
%TO.N,53p2-52p4*%
X86640000Y-107610000D03*
%TD*%
%TO.P,D38,1,VDD*%
%TO.N,+5V *%
X154360000Y-88610000D03*
%TO.P,D38,2,DOUT*%
%TO.N,Net-(D38-DOUT)*%
X154360000Y-90390000D03*
%TO.P,D38,3,VSS*%
%TO.N,GND*%
X157640000Y-90390000D03*
%TO.P,D38,4,DIN*%
%TO.N,Net-(D37-DOUT)*%
X157640000Y-88610000D03*
%TD*%
%TO.P,D78,1,VDD*%
%TO.N,+5V *%
X322720000Y-126000000D03*
%TO.P,D78,2,DOUT*%
%TO.N,78p2-79p4*%
X322720000Y-127780000D03*
%TO.P,D78,3,VSS*%
%TO.N,GND*%
X326000000Y-127780000D03*
%TO.P,D78,4,DIN*%
%TO.N,Net-(D77-DOUT)*%
X326000000Y-126000000D03*
%TD*%
D13*
%TO.P,SW1,1,1*%
%TO.N,GND*%
X391500000Y-36500000D03*
X385000000Y-36500000D03*
%TO.P,SW1,2,2*%
%TO.N,Net-(U1-BOOTSEL)*%
X391500000Y-41000000D03*
X385000000Y-41000000D03*
%TD*%
D14*
%TO.P,H1,1,1*%
%TO.N,Net-(JP4-B)*%
X388000000Y-47000000D03*
%TD*%
D15*
%TO.P,J1,S1,SHIELD*%
%TO.N,unconnected-(J1-SHIELD-PadS1)_3*%
X375500000Y-21500000D03*
D16*
%TO.N,unconnected-(J1-SHIELD-PadS1)_1*%
X375500000Y-25700000D03*
D15*
%TO.N,unconnected-(J1-SHIELD-PadS1)_2*%
X384140000Y-21500000D03*
D16*
%TO.N,unconnected-(J1-SHIELD-PadS1)*%
X384140000Y-25700000D03*
%TD*%
D17*
%TO.N,col1*%
X51500000Y-137000000D03*
%TO.N,col2*%
X63500000Y-33000000D03*
X58500000Y-99000000D03*
X54000000Y-81000000D03*
%TO.N,col3*%
X83000000Y-32500000D03*
X87500000Y-118000000D03*
X73000000Y-80000000D03*
X75000000Y-137000000D03*
X78000000Y-99000000D03*
%TO.N,col4*%
X97000000Y-99500000D03*
X101500000Y-32500000D03*
X92000000Y-80000000D03*
%TO.N,col5*%
X111000000Y-80000000D03*
X125500000Y-118000000D03*
X116000000Y-99000000D03*
X121000000Y-32500000D03*
%TO.N,col6*%
X135000000Y-98500000D03*
X146500000Y-137000000D03*
X130000000Y-79500000D03*
%TO.N,col7*%
X149000000Y-80500000D03*
X154000000Y-99500000D03*
X149000000Y-32000000D03*
%TO.N,col8*%
X182500000Y-118000000D03*
X173000000Y-99500000D03*
X168500000Y-32000000D03*
X168500000Y-80000000D03*
%TO.N,col9*%
X201500000Y-117500000D03*
X192000000Y-99000000D03*
X187500000Y-32500000D03*
X187500000Y-80500000D03*
%TO.N,col10*%
X218000000Y-137000000D03*
X211000000Y-99000000D03*
X206500000Y-80000000D03*
X215500000Y-61000000D03*
X206500000Y-32500000D03*
X220500000Y-118000000D03*
%TO.N,col11*%
X242000000Y-137000000D03*
X235000000Y-61000000D03*
X235000000Y-32500000D03*
X230000000Y-99000000D03*
X225500000Y-80000000D03*
X239500000Y-118000000D03*
%TO.N,col12*%
X254000000Y-33000000D03*
X249000000Y-99000000D03*
X254000000Y-61000000D03*
X244500000Y-80000000D03*
%TO.N,col13*%
X263500000Y-80000000D03*
X280000000Y-99000000D03*
X265500000Y-136500000D03*
X275000000Y-117500000D03*
X273000000Y-32000014D03*
%TO.N,col14*%
X292000000Y-32500000D03*
X287000000Y-80000000D03*
X282500000Y-60500000D03*
X289500000Y-136500000D03*
%TO.N,col15*%
X315500000Y-118000000D03*
X315500000Y-99000000D03*
X315500000Y-80000000D03*
X313500000Y-57000000D03*
%TO.N,col16*%
X335000000Y-99500000D03*
X335000000Y-61000000D03*
X335000000Y-80000000D03*
X325000000Y-137500000D03*
X335000000Y-118500000D03*
%TO.N,col17*%
X354000000Y-99500000D03*
X354000000Y-80500000D03*
X354000000Y-118000000D03*
X354000000Y-132000000D03*
X354000000Y-61000000D03*
%TO.N,col18*%
X373000000Y-61000000D03*
%TO.N,Net-(D92-DIN)*%
X329500000Y-32610000D03*
X331000000Y-37500000D03*
%TO.N,LED_DTA_IN*%
X300000000Y-48500000D03*
X305000000Y-48500000D03*
X36500000Y-41500000D03*
X36500000Y-48500000D03*
X373000000Y-50725000D03*
%TO.N,LED-Status IN*%
X350000000Y-43500000D03*
%TO.N,+5V *%
X99500000Y-106885000D03*
X233000000Y-106885000D03*
X223000000Y-144500000D03*
X125500000Y-40500000D03*
X184500000Y-125885000D03*
X58000000Y-88610000D03*
X171500000Y-87885000D03*
X292500000Y-146385000D03*
X338000000Y-87885000D03*
X266000000Y-87885000D03*
X376000000Y-136000000D03*
X209500000Y-87885000D03*
X107500000Y-40500000D03*
X357000000Y-87885000D03*
X277500000Y-40500000D03*
X290000000Y-87885000D03*
X193000000Y-40500000D03*
X285375000Y-106125000D03*
X127500000Y-125885000D03*
X238000000Y-68385000D03*
X191000000Y-87885000D03*
X356500000Y-125535000D03*
X176000000Y-106885000D03*
X199500000Y-68885000D03*
X357500000Y-145500000D03*
X32500000Y-145000000D03*
X62000000Y-106885000D03*
X369500000Y-32500000D03*
X320000000Y-69610000D03*
X156500000Y-106885000D03*
X118500000Y-106885000D03*
X71625000Y-124875000D03*
X348000000Y-31885000D03*
X105000000Y-68885000D03*
X35000000Y-107500000D03*
X382000000Y-28500000D03*
X247000000Y-87885000D03*
X35500000Y-86500000D03*
X81000000Y-106885000D03*
X241000000Y-40500000D03*
X284875000Y-67625000D03*
X95500000Y-87885000D03*
X228500000Y-87885000D03*
X47000000Y-68775000D03*
X162000000Y-68885000D03*
X245500000Y-146385000D03*
X115000000Y-87885000D03*
X77500000Y-87885000D03*
X70000000Y-40000000D03*
X297000000Y-40500000D03*
X377500000Y-27500000D03*
X337500000Y-124500000D03*
X155000000Y-40500000D03*
X152500000Y-87885000D03*
X86000000Y-68885000D03*
X269000000Y-146385000D03*
X278500000Y-127500000D03*
X205000000Y-125885000D03*
X243000000Y-125885000D03*
X173500000Y-40500000D03*
X80000000Y-144500000D03*
X356500000Y-106885000D03*
X123500000Y-68885000D03*
X320000000Y-87885000D03*
X259500000Y-40500000D03*
X368500000Y-32500000D03*
X137500000Y-106885000D03*
X87500000Y-40000000D03*
X320500000Y-32610000D03*
X376500000Y-31885000D03*
X257000000Y-68885000D03*
X338000000Y-106685000D03*
X382000000Y-27500000D03*
X322000000Y-124000000D03*
X29110000Y-67890000D03*
X357500000Y-68547500D03*
X181000000Y-68885000D03*
X54500000Y-146385000D03*
X330500000Y-145000000D03*
X142500000Y-69610000D03*
X252000000Y-106885000D03*
X164500000Y-125885000D03*
X152000000Y-145000000D03*
X375000000Y-28500000D03*
X211500000Y-40500000D03*
X368500000Y-31500000D03*
X319250000Y-105750000D03*
X39875000Y-124625000D03*
X218500000Y-68385000D03*
X66500000Y-68885000D03*
X334000000Y-68885000D03*
X31000000Y-39000000D03*
X319000000Y-39000000D03*
X377500000Y-28500000D03*
X377000000Y-68885000D03*
X108000000Y-125885000D03*
X378500000Y-97000000D03*
X134500000Y-87885000D03*
X384500000Y-31500000D03*
X89000000Y-125885000D03*
X195000000Y-106885000D03*
X369500000Y-31500000D03*
X147000000Y-125885000D03*
X214000000Y-106885000D03*
X222500000Y-125885000D03*
%TO.N,GND*%
X145000000Y-110115000D03*
X112500000Y-71390000D03*
X131000000Y-72390000D03*
X285500000Y-129000000D03*
X292000000Y-108990000D03*
X249500000Y-144000000D03*
X368500000Y-28500000D03*
X327500000Y-128765000D03*
X169500000Y-72115000D03*
X82500000Y-144000000D03*
X65000000Y-91115000D03*
X74000000Y-72115000D03*
X258875000Y-110625000D03*
X376499997Y-27500000D03*
X135000000Y-129115000D03*
X355012500Y-35487500D03*
X159500000Y-91115000D03*
X342350000Y-72150000D03*
X160500000Y-44615000D03*
X250000000Y-129398900D03*
X369500000Y-27500000D03*
X364500000Y-90390000D03*
X225500000Y-144000000D03*
X383500000Y-100000000D03*
X131500000Y-44615000D03*
X107000000Y-110115000D03*
X178500000Y-91115000D03*
X141000000Y-91115000D03*
X264000000Y-72115000D03*
X188000000Y-71790000D03*
X84500000Y-91115000D03*
X154000000Y-144000000D03*
X230000000Y-129115000D03*
X283500000Y-44500000D03*
X47999983Y-128999983D03*
X365000000Y-128000000D03*
X208000000Y-71615000D03*
X183500000Y-110115000D03*
X221500000Y-110115000D03*
X383034153Y-27524246D03*
X54000000Y-72115000D03*
X42137300Y-110862700D03*
X345500000Y-90390000D03*
X364000000Y-109390000D03*
X296500000Y-90500000D03*
X246000000Y-44615000D03*
X78500000Y-129115000D03*
X292000000Y-72115000D03*
X35000000Y-144000000D03*
X94000000Y-44615000D03*
X217000000Y-44615000D03*
X227500000Y-72115000D03*
X150000000Y-72115000D03*
X364500000Y-72615000D03*
X297000000Y-144000000D03*
X369500000Y-28500000D03*
X326500000Y-91115000D03*
X212500000Y-129500000D03*
X368500000Y-27500000D03*
X164500000Y-110115000D03*
X88500000Y-110115000D03*
X345500000Y-110115000D03*
X326000000Y-110115000D03*
X58500000Y-144000000D03*
X326738336Y-34693652D03*
X41500000Y-91115000D03*
X240500000Y-110115000D03*
X103000000Y-91115000D03*
X254500000Y-91115000D03*
X302400000Y-45100000D03*
X235500000Y-91115000D03*
X97000000Y-129000000D03*
X154500000Y-129115000D03*
X245500000Y-72115000D03*
X381190000Y-36000000D03*
X327500000Y-71790000D03*
X383500000Y-140000000D03*
X383400000Y-73100000D03*
X192500000Y-129000000D03*
X172500000Y-129115000D03*
X333500000Y-144000000D03*
X273000000Y-144000000D03*
X116000000Y-129115000D03*
X202500000Y-110115000D03*
X376500000Y-28500000D03*
X198500000Y-44615000D03*
X375500000Y-35000000D03*
X35500000Y-44615000D03*
X197500000Y-91115000D03*
X74000000Y-44615000D03*
X216500000Y-91115000D03*
X122000000Y-91115000D03*
X265500000Y-44615000D03*
X365500000Y-146000000D03*
X179500000Y-44615000D03*
X126500000Y-110115000D03*
X383000000Y-28500000D03*
X93000000Y-72115000D03*
X113000000Y-44615000D03*
X35500000Y-72115000D03*
X273000000Y-90500000D03*
X341500000Y-129500000D03*
X69500000Y-110115000D03*
%TO.N,Net-(U1-USB_D+)*%
X380000000Y-24000000D03*
X360500000Y-32500000D03*
%TO.N,Net-(U1-USB_D-)*%
X378951992Y-24325000D03*
X361500000Y-31500000D03*
X370000000Y-37000000D03*
X370000000Y-40000000D03*
%TO.N,Net-(JP3-B)*%
X373000000Y-49000000D03*
X363500000Y-44000002D03*
%TD*%
D18*
%TO.N,LED_DTA_IN*%
X372725000Y-51000000D02*
X373000000Y-50725000D01*
X307500000Y-51000000D02*
X372725000Y-51000000D01*
X305000000Y-48500000D02*
X307500000Y-51000000D01*
%TO.N,81p2-91p4*%
X371575000Y-138225000D02*
X362690000Y-147110000D01*
X378410000Y-138890000D02*
X377745000Y-138225000D01*
X377745000Y-138225000D02*
X371575000Y-138225000D01*
%TO.N,Net-(D1-DOUT)*%
X67400000Y-42900000D02*
X71150000Y-42900000D01*
X71150000Y-42900000D02*
X71940000Y-42110000D01*
X30860000Y-43390000D02*
X31585000Y-42665000D01*
X71940000Y-42110000D02*
X72690000Y-42110000D01*
X67165000Y-42665000D02*
X67400000Y-42900000D01*
X31585000Y-42665000D02*
X67165000Y-42665000D01*
%TO.N,Net-(D2-DOUT)*%
X70988604Y-43890000D02*
X71928604Y-42950000D01*
X69410000Y-43890000D02*
X70988604Y-43890000D01*
X91390000Y-42110000D02*
X92140000Y-42110000D01*
X90550000Y-42950000D02*
X91390000Y-42110000D01*
X71928604Y-42950000D02*
X90550000Y-42950000D01*
%TO.N,Net-(D3-DOUT)*%
X109995600Y-42950000D02*
X110395600Y-42550000D01*
X90641996Y-43890000D02*
X91581996Y-42950000D01*
X91581996Y-42950000D02*
X109995600Y-42950000D01*
X88860000Y-43890000D02*
X90641996Y-43890000D01*
X110395600Y-42550000D02*
X110815000Y-42550000D01*
X110815000Y-42550000D02*
X111190000Y-42175000D01*
%TO.N,Net-(D4-DOUT)*%
X128253604Y-42110000D02*
X129640000Y-42110000D01*
X127363604Y-43000000D02*
X128253604Y-42110000D01*
X109691996Y-43890000D02*
X110581996Y-43000000D01*
X110581996Y-43000000D02*
X127363604Y-43000000D01*
X107910000Y-43890000D02*
X109691996Y-43890000D01*
%TO.N,Net-(D5-DOUT)*%
X126360000Y-43890000D02*
X127110000Y-43890000D01*
X157940000Y-42110000D02*
X158690000Y-42110000D01*
X127110000Y-43890000D02*
X127950000Y-43050000D01*
X127950000Y-43050000D02*
X157000000Y-43050000D01*
X157000000Y-43050000D02*
X157940000Y-42110000D01*
%TO.N,Net-(D6-DOUT)*%
X176890000Y-42110000D02*
X177640000Y-42110000D01*
X155410000Y-43890000D02*
X157191996Y-43890000D01*
X176050000Y-42950000D02*
X176890000Y-42110000D01*
X157191996Y-43890000D02*
X158131996Y-42950000D01*
X158131996Y-42950000D02*
X176050000Y-42950000D01*
%TO.N,Net-(D7-DOUT)*%
X195940000Y-42110000D02*
X196690000Y-42110000D01*
X174360000Y-43890000D02*
X176141996Y-43890000D01*
X177081996Y-42950000D02*
X195100000Y-42950000D01*
X176141996Y-43890000D02*
X177081996Y-42950000D01*
X195100000Y-42950000D02*
X195940000Y-42110000D01*
%TO.N,Net-(D8-DOUT)*%
X214750000Y-42550000D02*
X215190000Y-42110000D01*
X195191996Y-43890000D02*
X196081996Y-43000000D01*
X196081996Y-43000000D02*
X213945600Y-43000000D01*
X193410000Y-43890000D02*
X195191996Y-43890000D01*
X214395600Y-42550000D02*
X214750000Y-42550000D01*
X213945600Y-43000000D02*
X214395600Y-42550000D01*
%TO.N,Net-(D10-DIN)*%
X243940000Y-42110000D02*
X244690000Y-42110000D01*
X214581996Y-43000000D02*
X243050000Y-43000000D01*
X243050000Y-43000000D02*
X243940000Y-42110000D01*
X213691996Y-43890000D02*
X214581996Y-43000000D01*
X211910000Y-43890000D02*
X213691996Y-43890000D01*
%TO.N,Net-(D10-DOUT)*%
X263270600Y-42175000D02*
X263690000Y-42175000D01*
X262445600Y-43000000D02*
X263270600Y-42175000D01*
X244081996Y-43000000D02*
X262445600Y-43000000D01*
X243191996Y-43890000D02*
X244081996Y-43000000D01*
X241410000Y-43890000D02*
X243191996Y-43890000D01*
%TO.N,Net-(D11-DOUT)*%
X280940000Y-42110000D02*
X281690000Y-42110000D01*
X263246996Y-42835000D02*
X280215000Y-42835000D01*
X262191996Y-43890000D02*
X263246996Y-42835000D01*
X260410000Y-43890000D02*
X262191996Y-43890000D01*
X280215000Y-42835000D02*
X280940000Y-42110000D01*
%TO.N,Net-(D12-DOUT)*%
X300465000Y-42835000D02*
X301190000Y-42110000D01*
X281246996Y-42835000D02*
X300465000Y-42835000D01*
X278410000Y-43890000D02*
X280191996Y-43890000D01*
X280191996Y-43890000D02*
X281246996Y-42835000D01*
%TO.N,LED_DTA_OUT*%
X22500000Y-43500000D02*
X22500000Y-137980000D01*
X329075000Y-34925000D02*
X325725000Y-38275000D01*
X22500000Y-137980000D02*
X33410000Y-148890000D01*
X334925000Y-34925000D02*
X329075000Y-34925000D01*
X335000000Y-36000000D02*
X335000000Y-35000000D01*
X335000000Y-35000000D02*
X334925000Y-34925000D01*
X325725000Y-38275000D02*
X27725000Y-38275000D01*
X27725000Y-38275000D02*
X22500000Y-43500000D01*
%TO.N,Net-(D92-DIN)*%
X331000000Y-37500000D02*
X332500000Y-36000000D01*
X329500000Y-32610000D02*
X326640000Y-32610000D01*
X332500000Y-36000000D02*
X333700000Y-36000000D01*
X333850000Y-40350000D02*
X333850000Y-43500000D01*
X331000000Y-37500000D02*
X333850000Y-40350000D01*
%TO.N,Net-(D14-DIN)*%
X39000000Y-70500000D02*
X35000000Y-70500000D01*
X48860000Y-71390000D02*
X39890000Y-71390000D01*
X39890000Y-71390000D02*
X39000000Y-70500000D01*
X35000000Y-70500000D02*
X34000000Y-69500000D01*
%TO.N,Net-(D15-DIN)*%
X52600000Y-70000000D02*
X67100000Y-70000000D01*
X67100000Y-70000000D02*
X68100000Y-71000000D01*
X52450000Y-69850000D02*
X52600000Y-70000000D01*
%TO.N,Net-(D16-DIN)*%
X71640000Y-69610000D02*
X86080000Y-69610000D01*
X86080000Y-69610000D02*
X87860000Y-71390000D01*
%TO.N,Net-(D17-DIN)*%
X91140000Y-69610000D02*
X105130000Y-69610000D01*
X105130000Y-69610000D02*
X106910000Y-71390000D01*
%TO.N,Net-(D18-DIN)*%
X123130000Y-69610000D02*
X125910000Y-72390000D01*
X110190000Y-69610000D02*
X123130000Y-69610000D01*
%TO.N,Net-(D19-DIN)*%
X144080000Y-70610000D02*
X144860000Y-71390000D01*
X129190000Y-70610000D02*
X144080000Y-70610000D01*
%TO.N,Net-(D20-DIN)*%
X148140000Y-69610000D02*
X162580000Y-69610000D01*
X162580000Y-69610000D02*
X164360000Y-71390000D01*
%TO.N,Net-(D21-DIN)*%
X167640000Y-69610000D02*
X181130000Y-69610000D01*
X181130000Y-69610000D02*
X182910000Y-71390000D01*
%TO.N,Net-(D22-DIN)*%
X186190000Y-69610000D02*
X200630000Y-69610000D01*
X200630000Y-69610000D02*
X201910000Y-70890000D01*
%TO.N,Net-(D23-DIN)*%
X205190000Y-69110000D02*
X219130000Y-69110000D01*
X219130000Y-69110000D02*
X220910000Y-70890000D01*
%TO.N,Net-(D24-DIN)*%
X240360000Y-71390000D02*
X226890000Y-71390000D01*
X226890000Y-71390000D02*
X225000000Y-69500000D01*
%TO.N,Net-(D25-DIN)*%
X243640000Y-69610000D02*
X257130000Y-69610000D01*
X257130000Y-69610000D02*
X258910000Y-71390000D01*
%TO.N,26p4-27p2*%
X286751100Y-71348900D02*
X266648900Y-71348900D01*
X266648900Y-71348900D02*
X264910000Y-69610000D01*
X264910000Y-69610000D02*
X262190000Y-69610000D01*
%TO.N,Net-(D28-DIN)*%
X337972500Y-71052500D02*
X327082500Y-71052500D01*
X327082500Y-71052500D02*
X325640000Y-69610000D01*
%TO.N,Net-(D29-DIN)*%
X355960000Y-70000000D02*
X341980000Y-70000000D01*
X357350000Y-71390000D02*
X355960000Y-70000000D01*
X359860000Y-71390000D02*
X357350000Y-71390000D01*
X341980000Y-70000000D02*
X341252500Y-69272500D01*
%TO.N,31p4 - 13p2*%
X382690000Y-70110000D02*
X382190000Y-70110000D01*
X383254150Y-53770000D02*
X386500000Y-57015850D01*
X386500000Y-57015850D02*
X386500000Y-66300000D01*
X386500000Y-66300000D02*
X382690000Y-70110000D01*
X297910000Y-43890000D02*
X307790000Y-53770000D01*
X307790000Y-53770000D02*
X383254150Y-53770000D01*
%TO.N,LED_DTA_IN*%
X36500000Y-41500000D02*
X34250000Y-41500000D01*
X36500000Y-48500000D02*
X300000000Y-48500000D01*
X34250000Y-41500000D02*
X34140000Y-41610000D01*
%TO.N,14p2-32p4*%
X30320000Y-71680000D02*
X30320000Y-88320000D01*
X31335000Y-89335000D02*
X37133004Y-89335000D01*
X30720000Y-71280000D02*
X30320000Y-71680000D01*
X37133004Y-89335000D02*
X37858004Y-88610000D01*
X30320000Y-88320000D02*
X31335000Y-89335000D01*
X37858004Y-88610000D02*
X39640000Y-88610000D01*
%TO.N,Net-(D32-DOUT)*%
X36360000Y-90390000D02*
X37110000Y-90390000D01*
X60633004Y-89335000D02*
X61358004Y-88610000D01*
X37110000Y-90390000D02*
X38165000Y-89335000D01*
X38165000Y-89335000D02*
X60633004Y-89335000D01*
X61358004Y-88610000D02*
X63140000Y-88610000D01*
%TO.N,Net-(D33-DOUT)*%
X61104400Y-89500000D02*
X81000000Y-89500000D01*
X81890000Y-88610000D02*
X82640000Y-88610000D01*
X81000000Y-89500000D02*
X81890000Y-88610000D01*
X60465000Y-89785000D02*
X60819400Y-89785000D01*
X60819400Y-89785000D02*
X61104400Y-89500000D01*
X59860000Y-90390000D02*
X60465000Y-89785000D01*
%TO.N,Net-(D34-DOUT)*%
X80746396Y-90390000D02*
X79360000Y-90390000D01*
X81801396Y-89335000D02*
X80746396Y-90390000D01*
X99165000Y-89335000D02*
X99890000Y-88610000D01*
X99890000Y-88610000D02*
X101140000Y-88610000D01*
X81801396Y-89335000D02*
X99165000Y-89335000D01*
%TO.N,Net-(D35-DOUT)*%
X118665000Y-89335000D02*
X119390000Y-88610000D01*
X114665000Y-89335000D02*
X118665000Y-89335000D01*
X114500000Y-89500000D02*
X114665000Y-89335000D01*
X97860000Y-90390000D02*
X99641996Y-90390000D01*
X99641996Y-90390000D02*
X100531996Y-89500000D01*
X119390000Y-88610000D02*
X120140000Y-88610000D01*
X100531996Y-89500000D02*
X114500000Y-89500000D01*
%TO.N,Net-(D36-DOUT)*%
X118246396Y-90390000D02*
X119301396Y-89335000D01*
X137865000Y-89335000D02*
X138590000Y-88610000D01*
X138590000Y-88610000D02*
X139640000Y-88610000D01*
X119301396Y-89335000D02*
X137865000Y-89335000D01*
X116860000Y-90390000D02*
X118246396Y-90390000D01*
%TO.N,Net-(D37-DOUT)*%
X139196996Y-89335000D02*
X156165000Y-89335000D01*
X138141996Y-90390000D02*
X139196996Y-89335000D01*
X156165000Y-89335000D02*
X156890000Y-88610000D01*
X136360000Y-90390000D02*
X138141996Y-90390000D01*
X156890000Y-88610000D02*
X157640000Y-88610000D01*
%TO.N,Net-(D38-DOUT)*%
X154360000Y-90390000D02*
X156141996Y-90390000D01*
X175500000Y-89500000D02*
X176390000Y-88610000D01*
X156141996Y-90390000D02*
X157031996Y-89500000D01*
X176390000Y-88610000D02*
X177140000Y-88610000D01*
X157031996Y-89500000D02*
X175500000Y-89500000D01*
%TO.N,39p2-40p4*%
X194500000Y-89500000D02*
X195390000Y-88610000D01*
X173860000Y-90390000D02*
X175641996Y-90390000D01*
X176531996Y-89500000D02*
X194500000Y-89500000D01*
X195390000Y-88610000D02*
X196140000Y-88610000D01*
X175641996Y-90390000D02*
X176531996Y-89500000D01*
%TO.N,Net-(D40-DOUT)*%
X192860000Y-90390000D02*
X194641996Y-90390000D01*
X213500000Y-89500000D02*
X214390000Y-88610000D01*
X194641996Y-90390000D02*
X195531996Y-89500000D01*
X214390000Y-88610000D02*
X215140000Y-88610000D01*
X195531996Y-89500000D02*
X213500000Y-89500000D01*
%TO.N,Net-(D41-DOUT)*%
X214696996Y-89335000D02*
X231633004Y-89335000D01*
X231633004Y-89335000D02*
X232358004Y-88610000D01*
X213641996Y-90390000D02*
X214696996Y-89335000D01*
X232358004Y-88610000D02*
X234140000Y-88610000D01*
X211860000Y-90390000D02*
X213641996Y-90390000D01*
%TO.N,Net-(D42-DOUT)*%
X233696996Y-89335000D02*
X232641996Y-90390000D01*
X232641996Y-90390000D02*
X230860000Y-90390000D01*
X250633004Y-89335000D02*
X233696996Y-89335000D01*
X251358004Y-88610000D02*
X250633004Y-89335000D01*
X253140000Y-88610000D02*
X251358004Y-88610000D01*
%TO.N,Net-(D43-DOUT)*%
X251665000Y-89335000D02*
X269528604Y-89335000D01*
X250610000Y-90390000D02*
X251665000Y-89335000D01*
X269528604Y-89335000D02*
X270253604Y-88610000D01*
X270253604Y-88610000D02*
X271640000Y-88610000D01*
X249860000Y-90390000D02*
X250610000Y-90390000D01*
%TO.N,Net-(D44-DOUT)*%
X274157762Y-89491000D02*
X274313762Y-89335000D01*
X269110000Y-90390000D02*
X270009000Y-89491000D01*
X270009000Y-89491000D02*
X274157762Y-89491000D01*
X293358004Y-88610000D02*
X295140000Y-88610000D01*
X274313762Y-89335000D02*
X292633004Y-89335000D01*
X292633004Y-89335000D02*
X293358004Y-88610000D01*
X268360000Y-90390000D02*
X269110000Y-90390000D01*
%TO.N,Net-(D45-DOUT)*%
X299665000Y-89335000D02*
X322633004Y-89335000D01*
X291860000Y-90390000D02*
X293641996Y-90390000D01*
X293641996Y-90390000D02*
X294540996Y-89491000D01*
X294540996Y-89491000D02*
X299509000Y-89491000D01*
X299509000Y-89491000D02*
X299665000Y-89335000D01*
X322633004Y-89335000D02*
X323358004Y-88610000D01*
X323358004Y-88610000D02*
X325140000Y-88610000D01*
%TO.N,Net-(D46-DOUT)*%
X342000000Y-89550000D02*
X342940000Y-88610000D01*
X321860000Y-90390000D02*
X322610000Y-90390000D01*
X322610000Y-90390000D02*
X323450000Y-89550000D01*
X342940000Y-88610000D02*
X343690000Y-88610000D01*
X323450000Y-89550000D02*
X342000000Y-89550000D01*
%TO.N,Net-(D47-DOUT)*%
X360640998Y-86610998D02*
X362640000Y-88610000D01*
X340410000Y-90390000D02*
X342191996Y-90390000D01*
X344463004Y-89335000D02*
X347187006Y-86610998D01*
X347187006Y-86610998D02*
X360640998Y-86610998D01*
X342191996Y-90390000D02*
X343246996Y-89335000D01*
X343246996Y-89335000D02*
X344463004Y-89335000D01*
%TO.N,Net-(D48-DOUT)*%
X360085000Y-91115000D02*
X364615000Y-91115000D01*
X373000000Y-99500000D02*
X381400000Y-99500000D01*
X364615000Y-91115000D02*
X373000000Y-99500000D01*
X359360000Y-90390000D02*
X360085000Y-91115000D01*
X381400000Y-99500000D02*
X382140000Y-98760000D01*
%TO.N,49p2-65p4*%
X371260000Y-100540000D02*
X364190000Y-107610000D01*
X364190000Y-107610000D02*
X362140000Y-107610000D01*
X378860000Y-100540000D02*
X371260000Y-100540000D01*
%TO.N,Net-(D58-DIN)*%
X215600000Y-109500000D02*
X204800000Y-109500000D01*
X204800000Y-109500000D02*
X202910000Y-107610000D01*
X202910000Y-107610000D02*
X200640000Y-107610000D01*
%TO.N,Net-(D60-DIN)*%
X240910000Y-107610000D02*
X238640000Y-107610000D01*
X253600000Y-109500000D02*
X242800000Y-109500000D01*
X242800000Y-109500000D02*
X240910000Y-107610000D01*
%TO.N,Net-(D61-DIN)*%
X269663842Y-107500000D02*
X257750000Y-107500000D01*
X257750000Y-107500000D02*
X257640000Y-107610000D01*
X286100000Y-109500000D02*
X271663842Y-109500000D01*
X271663842Y-109500000D02*
X269663842Y-107500000D01*
%TO.N,Net-(D62-DIN)*%
X294286238Y-107610000D02*
X290140000Y-107610000D01*
X320910000Y-109190000D02*
X320550000Y-109550000D01*
X320550000Y-109550000D02*
X296226238Y-109550000D01*
X296226238Y-109550000D02*
X294286238Y-107610000D01*
%TO.N,Net-(D63-DIN)*%
X327410000Y-107410000D02*
X324190000Y-107410000D01*
X329500000Y-109500000D02*
X327410000Y-107410000D01*
X340050000Y-109500000D02*
X329500000Y-109500000D01*
%TO.N,Net-(D64-DIN)*%
X343640000Y-107610000D02*
X357080000Y-107610000D01*
X357080000Y-107610000D02*
X358860000Y-109390000D01*
%TO.N,50p2-66p4*%
X39156381Y-109500000D02*
X46550150Y-116893769D01*
X46550150Y-116893769D02*
X46550150Y-125199850D01*
X37100000Y-109500000D02*
X39156381Y-109500000D01*
X46550150Y-125199850D02*
X45140000Y-126610000D01*
%TO.N,Net-(D50-DIN)*%
X63600000Y-109500000D02*
X61710000Y-107610000D01*
X61710000Y-107610000D02*
X41140000Y-107610000D01*
%TO.N,Net-(D51-DIN)*%
X82600000Y-109500000D02*
X71800000Y-109500000D01*
X69910000Y-107610000D02*
X67640000Y-107610000D01*
X71800000Y-109500000D02*
X69910000Y-107610000D01*
%TO.N,53p2-52p4*%
X101100000Y-109500000D02*
X90800000Y-109500000D01*
X90800000Y-109500000D02*
X88910000Y-107610000D01*
X88910000Y-107610000D02*
X86640000Y-107610000D01*
%TO.N,Net-(D53-DIN)*%
X120100000Y-109500000D02*
X109300000Y-109500000D01*
X109300000Y-109500000D02*
X107410000Y-107610000D01*
X107410000Y-107610000D02*
X105140000Y-107610000D01*
%TO.N,Net-(D54-DIN)*%
X128300000Y-109500000D02*
X126410000Y-107610000D01*
X139100000Y-109500000D02*
X128300000Y-109500000D01*
X126410000Y-107610000D02*
X124140000Y-107610000D01*
%TO.N,Net-(D55-DIN)*%
X158100000Y-109500000D02*
X147300000Y-109500000D01*
X145410000Y-107610000D02*
X143140000Y-107610000D01*
X147300000Y-109500000D02*
X145410000Y-107610000D01*
%TO.N,Net-(D56-DIN)*%
X177600000Y-109500000D02*
X166300000Y-109500000D01*
X166300000Y-109500000D02*
X164410000Y-107610000D01*
X164410000Y-107610000D02*
X162140000Y-107610000D01*
%TO.N,Net-(D57-DIN)*%
X196600000Y-109500000D02*
X185800000Y-109500000D01*
X183910000Y-107610000D02*
X181640000Y-107610000D01*
X185800000Y-109500000D02*
X183910000Y-107610000D01*
%TO.N,Net-(D59-DIN)*%
X234600000Y-109500000D02*
X223800000Y-109500000D01*
X221910000Y-107610000D02*
X219640000Y-107610000D01*
X223800000Y-109500000D02*
X221910000Y-107610000D01*
%TO.N,Net-(D66-DOUT)*%
X72751996Y-127500000D02*
X75395600Y-127500000D01*
X55138019Y-128498900D02*
X71753096Y-128498900D01*
X71753096Y-128498900D02*
X72751996Y-127500000D01*
X41860000Y-128390000D02*
X42585000Y-127665000D01*
X76220600Y-126675000D02*
X76640000Y-126675000D01*
X54304119Y-127665000D02*
X55138019Y-128498900D01*
X42585000Y-127665000D02*
X54304119Y-127665000D01*
X75395600Y-127500000D02*
X76220600Y-126675000D01*
%TO.N,Net-(D67-DOUT)*%
X73360000Y-128390000D02*
X75141996Y-128390000D01*
X94345600Y-127050000D02*
X94700000Y-127050000D01*
X93895600Y-127500000D02*
X94345600Y-127050000D01*
X94700000Y-127050000D02*
X95140000Y-126610000D01*
X76031996Y-127500000D02*
X93895600Y-127500000D01*
X75141996Y-128390000D02*
X76031996Y-127500000D01*
%TO.N,Net-(D68-DOUT)*%
X113345600Y-127050000D02*
X113700000Y-127050000D01*
X93641996Y-128390000D02*
X94531996Y-127500000D01*
X91860000Y-128390000D02*
X93641996Y-128390000D01*
X94531996Y-127500000D02*
X112895600Y-127500000D01*
X113700000Y-127050000D02*
X114140000Y-126610000D01*
X112895600Y-127500000D02*
X113345600Y-127050000D01*
%TO.N,Net-(D69-DOUT)*%
X132345600Y-127050000D02*
X132700000Y-127050000D01*
X113531996Y-127500000D02*
X131895600Y-127500000D01*
X131895600Y-127500000D02*
X132345600Y-127050000D01*
X132700000Y-127050000D02*
X133140000Y-126610000D01*
X110860000Y-128390000D02*
X112641996Y-128390000D01*
X112641996Y-128390000D02*
X113531996Y-127500000D01*
%TO.N,Net-(D70-DOUT)*%
X152265000Y-127050000D02*
X152640000Y-126675000D01*
X151395600Y-127500000D02*
X151845600Y-127050000D01*
X129860000Y-128390000D02*
X131641996Y-128390000D01*
X132531996Y-127500000D02*
X151395600Y-127500000D01*
X151845600Y-127050000D02*
X152265000Y-127050000D01*
X131641996Y-128390000D02*
X132531996Y-127500000D01*
%TO.N,Net-(D71-DOUT)*%
X170200000Y-127050000D02*
X170640000Y-126610000D01*
X151141996Y-128390000D02*
X152031996Y-127500000D01*
X152031996Y-127500000D02*
X169395600Y-127500000D01*
X169845600Y-127050000D02*
X170200000Y-127050000D01*
X169395600Y-127500000D02*
X169845600Y-127050000D01*
X149360000Y-128390000D02*
X151141996Y-128390000D01*
%TO.N,Net-(D72-DOUT)*%
X190200000Y-127050000D02*
X190640000Y-126610000D01*
X189395600Y-127500000D02*
X189845600Y-127050000D01*
X169141996Y-128390000D02*
X170031996Y-127500000D01*
X189845600Y-127050000D02*
X190200000Y-127050000D01*
X170031996Y-127500000D02*
X189395600Y-127500000D01*
X167360000Y-128390000D02*
X169141996Y-128390000D01*
%TO.N,Net-(D73-DOUT)*%
X187360000Y-128390000D02*
X189141996Y-128390000D01*
X209395600Y-127500000D02*
X210220600Y-126675000D01*
X210220600Y-126675000D02*
X210640000Y-126675000D01*
X190031996Y-127500000D02*
X209395600Y-127500000D01*
X189141996Y-128390000D02*
X190031996Y-127500000D01*
%TO.N,Net-(D74-DOUT)*%
X227700000Y-127050000D02*
X228140000Y-126610000D01*
X227060600Y-127335000D02*
X227345600Y-127050000D01*
X207360000Y-128390000D02*
X209141996Y-128390000D01*
X209141996Y-128390000D02*
X210196996Y-127335000D01*
X210196996Y-127335000D02*
X227060600Y-127335000D01*
X227345600Y-127050000D02*
X227700000Y-127050000D01*
%TO.N,Net-(D75-DOUT)*%
X247395600Y-127500000D02*
X247845600Y-127050000D01*
X224860000Y-128390000D02*
X226641996Y-128390000D01*
X248200000Y-127050000D02*
X248640000Y-126610000D01*
X227531996Y-127500000D02*
X247395600Y-127500000D01*
X226641996Y-128390000D02*
X227531996Y-127500000D01*
X247845600Y-127050000D02*
X248200000Y-127050000D01*
%TO.N,Net-(D76-DOUT)*%
X280251996Y-127500000D02*
X282895600Y-127500000D01*
X269200623Y-128948900D02*
X278803096Y-128948900D01*
X248031996Y-127500000D02*
X267751723Y-127500000D01*
X247141996Y-128390000D02*
X248031996Y-127500000D01*
X245360000Y-128390000D02*
X247141996Y-128390000D01*
X282895600Y-127500000D02*
X283180600Y-127215000D01*
X283600000Y-127215000D02*
X284140000Y-126675000D01*
X267751723Y-127500000D02*
X269200623Y-128948900D01*
X278803096Y-128948900D02*
X280251996Y-127500000D01*
X283180600Y-127215000D02*
X283600000Y-127215000D01*
%TO.N,Net-(D77-DOUT)*%
X319165000Y-126835000D02*
X323775000Y-126835000D01*
X292998900Y-128498900D02*
X317501100Y-128498900D01*
X283366996Y-127665000D02*
X292165000Y-127665000D01*
X323775000Y-126835000D02*
X324610000Y-126000000D01*
X282641996Y-128390000D02*
X283366996Y-127665000D01*
X324610000Y-126000000D02*
X326000000Y-126000000D01*
X280860000Y-128390000D02*
X282641996Y-128390000D01*
X292165000Y-127665000D02*
X292998900Y-128498900D01*
X317501100Y-128498900D02*
X319165000Y-126835000D01*
%TO.N,78p2-79p4*%
X340740000Y-126260000D02*
X342190000Y-126260000D01*
X323720000Y-127780000D02*
X324500000Y-127000000D01*
X340000000Y-127000000D02*
X340740000Y-126260000D01*
X324500000Y-127000000D02*
X340000000Y-127000000D01*
X322720000Y-127780000D02*
X323720000Y-127780000D01*
%TO.N,Net-(D79-DOUT)*%
X338500000Y-128040000D02*
X339596396Y-128040000D01*
X340361396Y-127275000D02*
X357775000Y-127275000D01*
X357835000Y-127335000D02*
X361415000Y-127335000D01*
X357775000Y-127275000D02*
X357835000Y-127335000D01*
X339596396Y-128040000D02*
X340361396Y-127275000D01*
X361415000Y-127335000D02*
X362140000Y-126610000D01*
%TO.N,Net-(D80-DOUT)*%
X358860000Y-128390000D02*
X360440000Y-129970000D01*
X374550000Y-129970000D02*
X381690000Y-137110000D01*
X360440000Y-129970000D02*
X374550000Y-129970000D01*
%TO.N,Net-(D82-DIN)*%
X55130000Y-147110000D02*
X36690000Y-147110000D01*
X56910000Y-148890000D02*
X55130000Y-147110000D01*
%TO.N,Net-(D83-DIN)*%
X79130000Y-147110000D02*
X60190000Y-147110000D01*
X80910000Y-148890000D02*
X79130000Y-147110000D01*
%TO.N,Net-(D84-DIN)*%
X85580000Y-148500000D02*
X84190000Y-147110000D01*
X152360000Y-148890000D02*
X151970000Y-148500000D01*
X151970000Y-148500000D02*
X85580000Y-148500000D01*
%TO.N,Net-(D85-DIN)*%
X223520000Y-148500000D02*
X157030000Y-148500000D01*
X157030000Y-148500000D02*
X155640000Y-147110000D01*
X223910000Y-148890000D02*
X223520000Y-148500000D01*
%TO.N,Net-(D86-DIN)*%
X246130000Y-147110000D02*
X227190000Y-147110000D01*
X247910000Y-148890000D02*
X246130000Y-147110000D01*
%TO.N,Net-(D87-DIN)*%
X269630000Y-147110000D02*
X251190000Y-147110000D01*
X271410000Y-148890000D02*
X269630000Y-147110000D01*
%TO.N,Net-(D88-DIN)*%
X275080000Y-147500000D02*
X274690000Y-147110000D01*
X295410000Y-148890000D02*
X294020000Y-147500000D01*
X294020000Y-147500000D02*
X275080000Y-147500000D01*
%TO.N,Net-(D89-DIN)*%
X331410000Y-148890000D02*
X331020000Y-148500000D01*
X331020000Y-148500000D02*
X300080000Y-148500000D01*
X300080000Y-148500000D02*
X298690000Y-147110000D01*
%TO.N,Net-(D90-DIN)*%
X335765000Y-148185000D02*
X334690000Y-147110000D01*
X358705000Y-148185000D02*
X335765000Y-148185000D01*
X359410000Y-148890000D02*
X358705000Y-148185000D01*
%TO.N,Net-(D92-DOUT)*%
X352440000Y-33335000D02*
X353165000Y-32610000D01*
X353165000Y-32610000D02*
X353915000Y-32610000D01*
X324415000Y-33335000D02*
X352440000Y-33335000D01*
X323360000Y-34390000D02*
X324415000Y-33335000D01*
%TO.N,LED-Status IN*%
X350000000Y-43500000D02*
X335150000Y-43500000D01*
%TO.N,Net-(D93-DOUT)*%
X350635000Y-34390000D02*
X352416996Y-34390000D01*
X380465000Y-33335000D02*
X381190000Y-32610000D01*
X353471996Y-33335000D02*
X380465000Y-33335000D01*
X352416996Y-34390000D02*
X353471996Y-33335000D01*
%TO.N,Net-(D27-DIN)*%
X291920000Y-71390000D02*
X290140000Y-69610000D01*
X322360000Y-71390000D02*
X291920000Y-71390000D01*
%TO.N,Net-(D30-DIN)*%
X378295000Y-71275000D02*
X378910000Y-71890000D01*
X364805000Y-71275000D02*
X378295000Y-71275000D01*
X363140000Y-69610000D02*
X364805000Y-71275000D01*
%TO.N,+5V *%
X173135000Y-87885000D02*
X171500000Y-87885000D01*
X87135000Y-68885000D02*
X86000000Y-68885000D01*
X240360000Y-69610000D02*
X239135000Y-68385000D01*
X278500000Y-127500000D02*
X279390000Y-126610000D01*
X192860000Y-88610000D02*
X192135000Y-87885000D01*
X178360000Y-107610000D02*
X177635000Y-106885000D01*
X320000000Y-69610000D02*
X322360000Y-69610000D01*
X70000000Y-40000000D02*
X70000000Y-41520000D01*
X120135000Y-106885000D02*
X118500000Y-106885000D01*
X320910000Y-107410000D02*
X319250000Y-105750000D01*
X337972500Y-69272500D02*
X336772500Y-69272500D01*
X358797500Y-68547500D02*
X357500000Y-68547500D01*
X88049974Y-40500000D02*
X88049974Y-41299974D01*
X101860000Y-107610000D02*
X101135000Y-106885000D01*
X214000000Y-106885000D02*
X215635000Y-106885000D01*
X259500000Y-41200000D02*
X260410000Y-42110000D01*
X107499986Y-40500000D02*
X107500000Y-40500014D01*
X201910000Y-69110000D02*
X201110000Y-69110000D01*
X234635000Y-106885000D02*
X233000000Y-106885000D01*
X378500000Y-97000000D02*
X378500000Y-98400000D01*
X211135000Y-87885000D02*
X209500000Y-87885000D01*
X116135000Y-87885000D02*
X115000000Y-87885000D01*
X196635000Y-106885000D02*
X195000000Y-106885000D01*
X30860000Y-41610000D02*
X30860000Y-39140000D01*
X247185000Y-146385000D02*
X245500000Y-146385000D01*
X220910000Y-69110000D02*
X220185000Y-68385000D01*
X173860000Y-88610000D02*
X173135000Y-87885000D01*
X253635000Y-106885000D02*
X254360000Y-107610000D01*
X82635000Y-106885000D02*
X81000000Y-106885000D01*
X358135000Y-106885000D02*
X356500000Y-106885000D01*
X155000000Y-41700000D02*
X155410000Y-42110000D01*
X173500000Y-41250000D02*
X174360000Y-42110000D01*
X163635000Y-68885000D02*
X162000000Y-68885000D01*
X322000000Y-124000000D02*
X322000000Y-125092792D01*
X357800000Y-145500000D02*
X359410000Y-147110000D01*
X340410000Y-88610000D02*
X339685000Y-87885000D01*
X186635000Y-125885000D02*
X187360000Y-126610000D01*
X337500000Y-125260000D02*
X338500000Y-126260000D01*
X239135000Y-68385000D02*
X238000000Y-68385000D01*
X56185000Y-146385000D02*
X54500000Y-146385000D01*
X244635000Y-125885000D02*
X245360000Y-126610000D01*
X357785000Y-125535000D02*
X358860000Y-126610000D01*
X270685000Y-146385000D02*
X269000000Y-146385000D01*
X108000000Y-125885000D02*
X110135000Y-125885000D01*
X32500000Y-145000000D02*
X32500000Y-146200000D01*
X101135000Y-106885000D02*
X99500000Y-106885000D01*
X73360000Y-126610000D02*
X71625000Y-124875000D01*
X36360000Y-88610000D02*
X36360000Y-87360000D01*
X35000000Y-107500000D02*
X35110000Y-107610000D01*
X230860000Y-88610000D02*
X230135000Y-87885000D01*
X223910000Y-147110000D02*
X223471100Y-147548900D01*
X206635000Y-125885000D02*
X207360000Y-126610000D01*
X356500000Y-125535000D02*
X357785000Y-125535000D01*
X378910000Y-70110000D02*
X377685000Y-68885000D01*
X125500000Y-41250000D02*
X126360000Y-42110000D01*
X89000000Y-125885000D02*
X91135000Y-125885000D01*
X377110000Y-137110000D02*
X376000000Y-136000000D01*
X125500000Y-40500000D02*
X125500000Y-41250000D01*
X235360000Y-107610000D02*
X234635000Y-106885000D01*
X116860000Y-88610000D02*
X116135000Y-87885000D01*
X144860000Y-69610000D02*
X142500000Y-69610000D01*
X155000000Y-40500000D02*
X155000000Y-41700000D01*
X291135000Y-87885000D02*
X291860000Y-88610000D01*
X166635000Y-125885000D02*
X167360000Y-126610000D01*
X87549974Y-40000000D02*
X88049974Y-40500000D01*
X285375000Y-106125000D02*
X286860000Y-107610000D01*
X358635000Y-87885000D02*
X357000000Y-87885000D01*
X64360000Y-107610000D02*
X63635000Y-106885000D01*
X330500000Y-145000000D02*
X330500000Y-146200000D01*
X152000000Y-145000000D02*
X152000000Y-146750000D01*
X359360000Y-88610000D02*
X358635000Y-87885000D01*
X241000000Y-41700000D02*
X241410000Y-42110000D01*
X193000000Y-40500000D02*
X193410000Y-40910000D01*
X125910000Y-70610000D02*
X124185000Y-68885000D01*
X338000000Y-87885000D02*
X339685000Y-87885000D01*
X48025000Y-68775000D02*
X48860000Y-69610000D01*
X129135000Y-125885000D02*
X129860000Y-126610000D01*
X135635000Y-87885000D02*
X134500000Y-87885000D01*
X257000000Y-68885000D02*
X258185000Y-68885000D01*
X377185000Y-31885000D02*
X377910000Y-32610000D01*
X336385000Y-68885000D02*
X334000000Y-68885000D01*
X35110000Y-107610000D02*
X37860000Y-107610000D01*
X359860000Y-69610000D02*
X358797500Y-68547500D01*
X340360000Y-107610000D02*
X340110000Y-107610000D01*
X197360000Y-107610000D02*
X196635000Y-106885000D01*
X258185000Y-68885000D02*
X258910000Y-69610000D01*
X66500000Y-68885000D02*
X67635000Y-68885000D01*
X193410000Y-40910000D02*
X193410000Y-42050000D01*
X378410000Y-137110000D02*
X377110000Y-137110000D01*
X158860000Y-107610000D02*
X158135000Y-106885000D01*
X30860000Y-39140000D02*
X31000000Y-39000000D01*
X153635000Y-87885000D02*
X152500000Y-87885000D01*
X252000000Y-106885000D02*
X253635000Y-106885000D01*
X47000000Y-68775000D02*
X48025000Y-68775000D01*
X223000000Y-144500000D02*
X223000000Y-146200000D01*
X192135000Y-87885000D02*
X191000000Y-87885000D01*
X110135000Y-125885000D02*
X110860000Y-126610000D01*
X97860000Y-88610000D02*
X97135000Y-87885000D01*
X124185000Y-68885000D02*
X123500000Y-68885000D01*
X36360000Y-87360000D02*
X35500000Y-86500000D01*
X321860000Y-88610000D02*
X321135000Y-87885000D01*
X107500000Y-41700000D02*
X107910000Y-42110000D01*
X184500000Y-125885000D02*
X186635000Y-125885000D01*
X290000000Y-87885000D02*
X291135000Y-87885000D01*
X357500000Y-145500000D02*
X357800000Y-145500000D01*
X215635000Y-106885000D02*
X216360000Y-107610000D01*
X320500000Y-32610000D02*
X323360000Y-32610000D01*
X330500000Y-146200000D02*
X331410000Y-147110000D01*
X59860000Y-88610000D02*
X58000000Y-88610000D01*
X297000000Y-40500000D02*
X297000000Y-41200000D01*
X340110000Y-107610000D02*
X339185000Y-106685000D01*
X205000000Y-125885000D02*
X206635000Y-125885000D01*
X337500000Y-124500000D02*
X337500000Y-125260000D01*
X267635000Y-87885000D02*
X266000000Y-87885000D01*
X211500000Y-40500000D02*
X211500000Y-41700000D01*
X277500000Y-41200000D02*
X278410000Y-42110000D01*
X91135000Y-125885000D02*
X91860000Y-126610000D01*
X339185000Y-106685000D02*
X338000000Y-106685000D01*
X322567208Y-125660000D02*
X322720000Y-125660000D01*
X148635000Y-125885000D02*
X149360000Y-126610000D01*
X182910000Y-69610000D02*
X182185000Y-68885000D01*
X83360000Y-107610000D02*
X82635000Y-106885000D01*
X230135000Y-87885000D02*
X228500000Y-87885000D01*
X87860000Y-69610000D02*
X87135000Y-68885000D01*
X277500000Y-40500000D02*
X277500000Y-41200000D01*
X80000000Y-144500000D02*
X80000000Y-146200000D01*
X223000000Y-146200000D02*
X223910000Y-147110000D01*
X349910000Y-31885000D02*
X350635000Y-32610000D01*
X241000000Y-40500000D02*
X241000000Y-41700000D01*
X222500000Y-125885000D02*
X224135000Y-125885000D01*
X67635000Y-68885000D02*
X68360000Y-69610000D01*
X164500000Y-125885000D02*
X166635000Y-125885000D01*
X286860000Y-69610000D02*
X284875000Y-67625000D01*
X279390000Y-126610000D02*
X280860000Y-126610000D01*
X182185000Y-68885000D02*
X181000000Y-68885000D01*
X297000000Y-41200000D02*
X297910000Y-42110000D01*
X348000000Y-31885000D02*
X349910000Y-31885000D01*
X271410000Y-147110000D02*
X270685000Y-146385000D01*
X377685000Y-68885000D02*
X377000000Y-68885000D01*
X378500000Y-98400000D02*
X378860000Y-98760000D01*
X249135000Y-87885000D02*
X247000000Y-87885000D01*
X247910000Y-147110000D02*
X247185000Y-146385000D01*
X243000000Y-125885000D02*
X244635000Y-125885000D01*
X201110000Y-69110000D02*
X200885000Y-68885000D01*
X152000000Y-146750000D02*
X152360000Y-147110000D01*
X80910000Y-147110000D02*
X80000000Y-146200000D01*
X164360000Y-69610000D02*
X163635000Y-68885000D01*
X106910000Y-69610000D02*
X106185000Y-68885000D01*
X107500000Y-40500014D02*
X107500000Y-41700000D01*
X106185000Y-68885000D02*
X105000000Y-68885000D01*
X79360000Y-88610000D02*
X78635000Y-87885000D01*
X294685000Y-146385000D02*
X292500000Y-146385000D01*
X211500000Y-41700000D02*
X211910000Y-42110000D01*
X136360000Y-88610000D02*
X135635000Y-87885000D01*
X358860000Y-107610000D02*
X358135000Y-106885000D01*
X173500000Y-40500000D02*
X173500000Y-41250000D01*
X154360000Y-88610000D02*
X153635000Y-87885000D01*
X358860000Y-107610000D02*
X359610000Y-107610000D01*
X88049974Y-41299974D02*
X88860000Y-42110000D01*
X56910000Y-147110000D02*
X56185000Y-146385000D01*
X107499986Y-40500000D02*
X107500000Y-40500000D01*
X259500000Y-40500000D02*
X259500000Y-41200000D01*
X336772500Y-69272500D02*
X336385000Y-68885000D01*
X32500000Y-146200000D02*
X33410000Y-147110000D01*
X376500000Y-31885000D02*
X377185000Y-31885000D01*
X29110000Y-67890000D02*
X30720000Y-69500000D01*
X200885000Y-68885000D02*
X199500000Y-68885000D01*
X177635000Y-106885000D02*
X176000000Y-106885000D01*
X97135000Y-87885000D02*
X95500000Y-87885000D01*
X78635000Y-87885000D02*
X77500000Y-87885000D01*
X249860000Y-88610000D02*
X249135000Y-87885000D01*
X224135000Y-125885000D02*
X224860000Y-126610000D01*
X127500000Y-125885000D02*
X129135000Y-125885000D01*
X321135000Y-87885000D02*
X320000000Y-87885000D01*
X87500000Y-40000000D02*
X87549974Y-40000000D01*
X268360000Y-88610000D02*
X267635000Y-87885000D01*
X295410000Y-147110000D02*
X294685000Y-146385000D01*
X158135000Y-106885000D02*
X156500000Y-106885000D01*
X211860000Y-88610000D02*
X211135000Y-87885000D01*
X139135000Y-106885000D02*
X137500000Y-106885000D01*
X70000000Y-41520000D02*
X69410000Y-42110000D01*
X120860000Y-107610000D02*
X120135000Y-106885000D01*
X63635000Y-106885000D02*
X62000000Y-106885000D01*
X322000000Y-125092792D02*
X322567208Y-125660000D01*
X139860000Y-107610000D02*
X139135000Y-106885000D01*
X39875000Y-124625000D02*
X41860000Y-126610000D01*
X147000000Y-125885000D02*
X148635000Y-125885000D01*
X220185000Y-68385000D02*
X218500000Y-68385000D01*
%TO.N,GND*%
X114865000Y-129115000D02*
X116000000Y-129115000D01*
X327500000Y-128765000D02*
X326985000Y-128765000D01*
X110190000Y-71390000D02*
X112500000Y-71390000D01*
X253140000Y-90390000D02*
X253865000Y-91115000D01*
X41140000Y-109865400D02*
X42137300Y-110862700D01*
X167640000Y-71390000D02*
X168365000Y-72115000D01*
X68365000Y-110115000D02*
X69500000Y-110115000D01*
X91865000Y-72115000D02*
X93000000Y-72115000D01*
X154000000Y-147250000D02*
X155640000Y-148890000D01*
X365500000Y-147000000D02*
X363610000Y-148890000D01*
X234140000Y-90390000D02*
X234865000Y-91115000D01*
X258875000Y-110625000D02*
X257640000Y-109390000D01*
X35000000Y-147200000D02*
X36690000Y-148890000D01*
X143865000Y-110115000D02*
X145000000Y-110115000D01*
X326040000Y-71790000D02*
X327500000Y-71790000D01*
X244365000Y-72115000D02*
X245500000Y-72115000D01*
X341500000Y-129500000D02*
X341500000Y-128320000D01*
X35000000Y-144000000D02*
X35000000Y-147200000D01*
X140365000Y-91115000D02*
X141000000Y-91115000D01*
X177140000Y-90390000D02*
X177865000Y-91115000D01*
X87365000Y-110115000D02*
X88500000Y-110115000D01*
X34835000Y-72115000D02*
X35500000Y-72115000D01*
X364500000Y-72615000D02*
X364365000Y-72615000D01*
X170640000Y-128390000D02*
X171365000Y-129115000D01*
X264415000Y-44615000D02*
X263690000Y-43890000D01*
X341500000Y-128320000D02*
X341780000Y-128040000D01*
X105140000Y-109390000D02*
X105865000Y-110115000D01*
X240500000Y-110115000D02*
X239365000Y-110115000D01*
X113000000Y-44615000D02*
X111915000Y-44615000D01*
X382680000Y-100000000D02*
X382140000Y-100540000D01*
X325640000Y-71390000D02*
X325110000Y-71390000D01*
X157640000Y-90390000D02*
X158365000Y-91115000D01*
X152640000Y-128390000D02*
X153365000Y-129115000D01*
X297000000Y-147200000D02*
X298690000Y-148890000D01*
X58500000Y-144000000D02*
X58500000Y-147200000D01*
X283500000Y-44500000D02*
X282300000Y-44500000D01*
X205915000Y-71615000D02*
X208000000Y-71615000D01*
X262190000Y-71390000D02*
X262915000Y-72115000D01*
X129190000Y-72390000D02*
X131000000Y-72390000D01*
X364000000Y-109390000D02*
X362140000Y-109390000D01*
X182365000Y-110115000D02*
X183500000Y-110115000D01*
X111190000Y-43890000D02*
X111110000Y-43890000D01*
X228140000Y-128390000D02*
X228865000Y-129115000D01*
X86640000Y-109390000D02*
X87365000Y-110115000D01*
X364365000Y-72615000D02*
X363140000Y-71390000D01*
X253865000Y-91115000D02*
X254500000Y-91115000D01*
X179500000Y-44615000D02*
X178365000Y-44615000D01*
X63865000Y-91115000D02*
X65000000Y-91115000D01*
X133140000Y-128390000D02*
X133865000Y-129115000D01*
X363610000Y-148890000D02*
X362690000Y-148890000D01*
X139640000Y-90390000D02*
X140365000Y-91115000D01*
X130365000Y-44615000D02*
X129640000Y-43890000D01*
X219640000Y-109390000D02*
X220365000Y-110115000D01*
X143140000Y-109390000D02*
X143865000Y-110115000D01*
X220365000Y-110115000D02*
X221500000Y-110115000D01*
X383500000Y-140000000D02*
X382800000Y-140000000D01*
X168365000Y-72115000D02*
X169500000Y-72115000D01*
X63140000Y-90390000D02*
X63865000Y-91115000D01*
X364610000Y-128390000D02*
X365000000Y-128000000D01*
X95750000Y-129000000D02*
X95140000Y-128390000D01*
X160500000Y-44615000D02*
X159415000Y-44615000D01*
X215915000Y-44615000D02*
X215190000Y-43890000D01*
X101865000Y-91115000D02*
X103000000Y-91115000D01*
X158365000Y-91115000D02*
X159500000Y-91115000D01*
X67640000Y-109390000D02*
X68365000Y-110115000D01*
X228865000Y-129115000D02*
X230000000Y-129115000D01*
X162865000Y-110115000D02*
X164500000Y-110115000D01*
X114140000Y-128390000D02*
X114865000Y-129115000D01*
X92865000Y-44615000D02*
X92140000Y-43890000D01*
X196865000Y-91115000D02*
X197500000Y-91115000D01*
X178365000Y-44615000D02*
X177640000Y-43890000D01*
X225500000Y-147200000D02*
X227190000Y-148890000D01*
X197415000Y-44615000D02*
X196690000Y-43890000D01*
X120865000Y-91115000D02*
X122000000Y-91115000D01*
X344365000Y-110115000D02*
X345500000Y-110115000D01*
X177865000Y-91115000D02*
X178500000Y-91115000D01*
X76640000Y-128390000D02*
X77365000Y-129115000D01*
X290140000Y-109390000D02*
X290540000Y-108990000D01*
X271750000Y-90500000D02*
X271640000Y-90390000D01*
X382190000Y-71890000D02*
X383400000Y-73100000D01*
X343640000Y-109390000D02*
X344365000Y-110115000D01*
X154000000Y-144000000D02*
X154000000Y-147250000D01*
X225415000Y-72115000D02*
X224190000Y-70890000D01*
X124865000Y-110115000D02*
X126500000Y-110115000D01*
X191250000Y-129000000D02*
X190640000Y-128390000D01*
X345500000Y-90390000D02*
X343690000Y-90390000D01*
X285500000Y-129000000D02*
X284750000Y-129000000D01*
X262915000Y-72115000D02*
X264000000Y-72115000D01*
X72365000Y-72115000D02*
X74000000Y-72115000D01*
X83365000Y-91115000D02*
X84500000Y-91115000D01*
X73415000Y-44615000D02*
X72690000Y-43890000D01*
X325140000Y-90390000D02*
X325865000Y-91115000D01*
X297000000Y-144000000D02*
X297000000Y-147200000D01*
X273000000Y-144000000D02*
X273000000Y-147200000D01*
X198500000Y-44615000D02*
X197415000Y-44615000D01*
X58500000Y-147200000D02*
X60190000Y-148890000D01*
X124140000Y-109390000D02*
X124865000Y-110115000D01*
X333500000Y-147700000D02*
X334690000Y-148890000D01*
X192500000Y-129000000D02*
X191250000Y-129000000D01*
X239365000Y-110115000D02*
X238640000Y-109390000D01*
X105865000Y-110115000D02*
X107000000Y-110115000D01*
X82640000Y-90390000D02*
X83365000Y-91115000D01*
X131500000Y-44615000D02*
X130365000Y-44615000D01*
X148140000Y-71390000D02*
X148865000Y-72115000D01*
X362140000Y-128390000D02*
X364610000Y-128390000D01*
X326985000Y-128765000D02*
X326000000Y-127780000D01*
X52140000Y-71390000D02*
X52865000Y-72115000D01*
X133865000Y-129115000D02*
X135000000Y-129115000D01*
X82500000Y-147200000D02*
X84190000Y-148890000D01*
X245415000Y-44615000D02*
X244690000Y-43890000D01*
X284750000Y-129000000D02*
X284140000Y-128390000D01*
X325640000Y-71390000D02*
X326040000Y-71790000D01*
X382800000Y-140000000D02*
X381690000Y-138890000D01*
X52865000Y-72115000D02*
X54000000Y-72115000D01*
X74000000Y-44615000D02*
X73415000Y-44615000D01*
X295250000Y-90500000D02*
X295140000Y-90390000D01*
X326640000Y-34390000D02*
X326738336Y-34488336D01*
X101140000Y-90390000D02*
X101865000Y-91115000D01*
X353915000Y-34390000D02*
X355012500Y-35487500D01*
X40365000Y-91115000D02*
X41500000Y-91115000D01*
X325115000Y-110115000D02*
X326000000Y-110115000D01*
X282300000Y-44500000D02*
X281690000Y-43890000D01*
X201365000Y-110115000D02*
X200640000Y-109390000D01*
X205190000Y-70890000D02*
X205915000Y-71615000D01*
X342350000Y-72150000D02*
X342513004Y-72313004D01*
X324190000Y-109190000D02*
X325115000Y-110115000D01*
X111915000Y-44615000D02*
X111190000Y-43890000D01*
X186590000Y-71790000D02*
X188000000Y-71790000D01*
X326000000Y-127780000D02*
X325720000Y-127780000D01*
X365500000Y-146000000D02*
X365500000Y-147000000D01*
X47390000Y-128390000D02*
X47999983Y-128999983D01*
X94000000Y-44615000D02*
X92865000Y-44615000D01*
X159415000Y-44615000D02*
X158690000Y-43890000D01*
X227500000Y-72115000D02*
X225415000Y-72115000D01*
X186190000Y-71390000D02*
X186590000Y-71790000D01*
X97000000Y-129000000D02*
X95750000Y-129000000D01*
X325865000Y-91115000D02*
X326500000Y-91115000D01*
X217000000Y-44615000D02*
X215915000Y-44615000D01*
X290540000Y-108990000D02*
X292000000Y-108990000D01*
X243640000Y-71390000D02*
X244365000Y-72115000D01*
X171365000Y-129115000D02*
X172500000Y-129115000D01*
X225500000Y-144000000D02*
X225500000Y-147200000D01*
X212500000Y-129500000D02*
X211750000Y-129500000D01*
X265500000Y-44615000D02*
X264415000Y-44615000D01*
X383500000Y-100000000D02*
X382680000Y-100000000D01*
X273000000Y-90500000D02*
X271750000Y-90500000D01*
X301190000Y-43890000D02*
X302400000Y-45100000D01*
X196140000Y-90390000D02*
X196865000Y-91115000D01*
X35365000Y-44615000D02*
X35500000Y-44615000D01*
X302400000Y-45100000D02*
X302500000Y-45200000D01*
X71640000Y-71390000D02*
X72365000Y-72115000D01*
X296500000Y-90500000D02*
X295250000Y-90500000D01*
X148865000Y-72115000D02*
X150000000Y-72115000D01*
X234865000Y-91115000D02*
X235500000Y-91115000D01*
X120140000Y-90390000D02*
X120865000Y-91115000D01*
X249500000Y-147200000D02*
X251190000Y-148890000D01*
X77365000Y-129115000D02*
X78500000Y-129115000D01*
X39640000Y-90390000D02*
X40365000Y-91115000D01*
X290865000Y-72115000D02*
X290140000Y-71390000D01*
X326738336Y-34488336D02*
X326738336Y-34693652D01*
X47999983Y-128999983D02*
X48115000Y-129115000D01*
X181640000Y-109390000D02*
X182365000Y-110115000D01*
X246000000Y-44615000D02*
X245415000Y-44615000D01*
X41140000Y-109390000D02*
X41140000Y-109865400D01*
X341252500Y-71052500D02*
X342350000Y-72150000D01*
X215865000Y-91115000D02*
X216500000Y-91115000D01*
X215140000Y-90390000D02*
X215865000Y-91115000D01*
X34000000Y-71280000D02*
X34835000Y-72115000D01*
X34140000Y-43390000D02*
X35365000Y-44615000D01*
X248640000Y-128390000D02*
X249648900Y-129398900D01*
X292000000Y-72115000D02*
X290865000Y-72115000D01*
X211750000Y-129500000D02*
X210640000Y-128390000D01*
X273000000Y-147200000D02*
X274690000Y-148890000D01*
X91140000Y-71390000D02*
X91865000Y-72115000D01*
X381190000Y-34390000D02*
X381190000Y-36000000D01*
X249500000Y-144000000D02*
X249500000Y-147200000D01*
X153365000Y-129115000D02*
X154500000Y-129115000D01*
X249648900Y-129398900D02*
X250000000Y-129398900D01*
X45140000Y-128390000D02*
X47390000Y-128390000D01*
X333500000Y-144000000D02*
X333500000Y-147700000D01*
X202500000Y-110115000D02*
X201365000Y-110115000D01*
X82500000Y-144000000D02*
X82500000Y-147200000D01*
X362640000Y-90390000D02*
X364500000Y-90390000D01*
X162140000Y-109390000D02*
X162865000Y-110115000D01*
%TO.N,Net-(U1-USB_D+)*%
X368974695Y-23000000D02*
X379000000Y-23000000D01*
X360500000Y-31474695D02*
X368974695Y-23000000D01*
X379000000Y-23000000D02*
X380000000Y-24000000D01*
X360500000Y-32500000D02*
X360500000Y-31474695D01*
%TO.N,Net-(U1-USB_D-)*%
X370000000Y-37000000D02*
X370000000Y-40000000D01*
X378825000Y-24325000D02*
X378000000Y-23500000D01*
X378000000Y-23500000D02*
X369500000Y-23500000D01*
X369500000Y-23500000D02*
X361500000Y-31500000D01*
X378951992Y-24325000D02*
X378825000Y-24325000D01*
%TO.N,Net-(JP3-B)*%
X368000002Y-44000002D02*
X373000000Y-49000000D01*
X363500000Y-44000002D02*
X368000002Y-44000002D01*
%TD*%
M02*
