solid OpenSCAD_Model
  facet normal -0.923978 -0.382214 -0.0133424
    outer loop
      vertex 376.884 139.081 0
      vertex 376.127 140.22 19.7947
      vertex 376.127 140.911 0
    endloop
  endfacet
  facet normal -0.923995 -0.382172 -0.0133455
    outer loop
      vertex 376.127 140.22 19.7947
      vertex 376.884 139.081 0
      vertex 376.884 138.392 19.7308
    endloop
  endfacet
  facet normal 0.382537 0.923377 0.0322491
    outer loop
      vertex 379.712 145.914 0
      vertex 382.541 144.046 19.9283
      vertex 382.541 144.742 0
    endloop
  endfacet
  facet normal 0.382656 0.923329 0.0322278
    outer loop
      vertex 382.541 144.046 19.9283
      vertex 379.712 145.914 0
      vertex 379.712 145.217 19.9691
    endloop
  endfacet
  facet normal 0.923986 0.382193 0.0133482
    outer loop
      vertex 382.541 144.046 19.9283
      vertex 383.712 141.911 0
      vertex 382.541 144.742 0
    endloop
  endfacet
  facet normal 0.92396 0.382257 0.0133397
    outer loop
      vertex 383.712 141.911 0
      vertex 382.541 144.046 19.9283
      vertex 383.712 141.219 19.8296
    endloop
  endfacet
  facet normal 0.923939 -0.382308 -0.0133415
    outer loop
      vertex 383.712 141.219 19.8296
      vertex 382.541 139.081 0
      vertex 383.712 141.911 0
    endloop
  endfacet
  facet normal 0.92396 -0.382256 -0.0133484
    outer loop
      vertex 382.541 139.081 0
      vertex 383.712 141.219 19.8296
      vertex 382.541 138.392 19.7308
    endloop
  endfacet
  facet normal -0.382803 -0.923267 -0.0322405
    outer loop
      vertex 376.884 139.081 0
      vertex 378.712 137.635 19.7044
      vertex 376.884 138.392 19.7308
    endloop
  endfacet
  facet normal -0.382837 -0.923253 -0.0322364
    outer loop
      vertex 378.712 137.635 19.7044
      vertex 376.884 139.081 0
      vertex 378.712 138.323 0
    endloop
  endfacet
  facet normal -0.382771 0.923281 0.0322261
    outer loop
      vertex 379.712 145.914 0
      vertex 376.884 144.046 19.9283
      vertex 379.712 145.217 19.9691
    endloop
  endfacet
  facet normal -0.382653 0.923329 0.0322475
    outer loop
      vertex 376.884 144.046 19.9283
      vertex 379.712 145.914 0
      vertex 376.884 144.742 0
    endloop
  endfacet
  facet normal -0.923978 0.382214 0.0133489
    outer loop
      vertex 376.127 142.912 0
      vertex 376.884 144.046 19.9283
      vertex 376.884 144.742 0
    endloop
  endfacet
  facet normal -0.923994 0.382173 0.0133519
    outer loop
      vertex 376.884 144.046 19.9283
      vertex 376.127 142.912 0
      vertex 376.127 142.218 19.8645
    endloop
  endfacet
  facet normal 0.382658 -0.923327 -0.0322389
    outer loop
      vertex 382.541 139.081 0
      vertex 380.712 137.635 19.7044
      vertex 380.712 138.323 0
    endloop
  endfacet
  facet normal 0.382625 -0.923341 -0.0322431
    outer loop
      vertex 380.712 137.635 19.7044
      vertex 382.541 139.081 0
      vertex 382.541 138.392 19.7308
    endloop
  endfacet
  facet normal -3.74184e-05 -0.0349006 0.999391
    outer loop
      vertex 378.422 139.929 19.7845
      vertex 378.712 137.635 19.7044
      vertex 379.712 139.395 19.7659
    endloop
  endfacet
  facet normal 1.20775e-05 -0.0349349 0.99939
    outer loop
      vertex 376.127 140.22 19.7947
      vertex 378.422 139.929 19.7845
      vertex 377.888 141.219 19.8296
    endloop
  endfacet
  facet normal 2.35138e-05 -0.0348722 0.999392
    outer loop
      vertex 378.422 142.509 19.8746
      vertex 376.127 142.218 19.8645
      vertex 377.888 141.219 19.8296
    endloop
  endfacet
  facet normal 0 -0.0349136 0.99939
    outer loop
      vertex 376.127 140.22 19.7947
      vertex 377.888 141.219 19.8296
      vertex 376.127 142.218 19.8645
    endloop
  endfacet
  facet normal 1.2747e-05 -0.0349296 0.99939
    outer loop
      vertex 378.422 139.929 19.7845
      vertex 376.127 140.22 19.7947
      vertex 376.884 138.392 19.7308
    endloop
  endfacet
  facet normal -1.86353e-05 -0.0348983 0.999391
    outer loop
      vertex 378.422 139.929 19.7845
      vertex 376.884 138.392 19.7308
      vertex 378.712 137.635 19.7044
    endloop
  endfacet
  facet normal 0 -0.0349136 0.99939
    outer loop
      vertex 375.712 142.218 19.8645
      vertex 376.127 140.22 19.7947
      vertex 376.127 142.218 19.8645
    endloop
  endfacet
  facet normal 0 -0.0349136 0.99939
    outer loop
      vertex 376.127 140.22 19.7947
      vertex 375.712 142.218 19.8645
      vertex 375.712 140.22 19.7947
    endloop
  endfacet
  facet normal 0 -0.0348921 0.999391
    outer loop
      vertex 381.538 141.219 19.8296
      vertex 383.712 141.219 19.8296
      vertex 382.541 144.046 19.9283
    endloop
  endfacet
  facet normal 0 -0.0349274 0.99939
    outer loop
      vertex 383.712 141.219 19.8296
      vertex 381.538 141.219 19.8296
      vertex 382.541 138.392 19.7308
    endloop
  endfacet
  facet normal -3.84612e-05 -0.0348784 0.999392
    outer loop
      vertex 382.541 144.046 19.9283
      vertex 381.003 142.509 19.8746
      vertex 381.538 141.219 19.8296
    endloop
  endfacet
  facet normal -2.8133e-05 -0.0348888 0.999391
    outer loop
      vertex 379.712 145.217 19.9691
      vertex 381.003 142.509 19.8746
      vertex 382.541 144.046 19.9283
    endloop
  endfacet
  facet normal -3.35429e-05 -0.0348913 0.999391
    outer loop
      vertex 379.712 145.217 19.9691
      vertex 379.712 143.043 19.8932
      vertex 381.003 142.509 19.8746
    endloop
  endfacet
  facet normal 3.35689e-05 -0.0348913 0.999391
    outer loop
      vertex 379.712 145.217 19.9691
      vertex 378.422 142.509 19.8746
      vertex 379.712 143.043 19.8932
    endloop
  endfacet
  facet normal 2.58963e-05 -0.034891 0.999391
    outer loop
      vertex 376.127 142.218 19.8645
      vertex 378.422 142.509 19.8746
      vertex 376.884 144.046 19.9283
    endloop
  endfacet
  facet normal 2.814e-05 -0.0348888 0.999391
    outer loop
      vertex 376.884 144.046 19.9283
      vertex 378.422 142.509 19.8746
      vertex 379.712 145.217 19.9691
    endloop
  endfacet
  facet normal -1.62748e-05 -0.0349332 0.99939
    outer loop
      vertex 381.003 139.929 19.7845
      vertex 382.541 138.392 19.7308
      vertex 381.538 141.219 19.8296
    endloop
  endfacet
  facet normal 1.86281e-05 -0.0348983 0.999391
    outer loop
      vertex 381.003 139.929 19.7845
      vertex 380.712 137.635 19.7044
      vertex 382.541 138.392 19.7308
    endloop
  endfacet
  facet normal 3.73949e-05 -0.0349006 0.999391
    outer loop
      vertex 379.712 139.395 19.7659
      vertex 380.712 137.635 19.7044
      vertex 381.003 139.929 19.7845
    endloop
  endfacet
  facet normal 0 -0.0349219 0.99939
    outer loop
      vertex 378.712 137.635 19.7044
      vertex 380.712 137.635 19.7044
      vertex 379.712 139.395 19.7659
    endloop
  endfacet
  facet normal 0 -0.0347616 0.999396
    outer loop
      vertex 380.712 137.635 19.7044
      vertex 378.712 137.635 19.7044
      vertex 380.712 137.221 19.69
    endloop
  endfacet
  facet normal 0 -0.0347616 0.999396
    outer loop
      vertex 380.712 137.221 19.69
      vertex 378.712 137.635 19.7044
      vertex 378.712 137.221 19.69
    endloop
  endfacet
  facet normal -0 -0.999391 -0.0348871
    outer loop
      vertex 376.127 140.911 0
      vertex 375.712 140.22 19.7947
      vertex 370.761 140.911 0
    endloop
  endfacet
  facet normal 0 -0.999391 -0.0348871
    outer loop
      vertex 375.712 140.22 19.7947
      vertex 376.127 140.911 0
      vertex 376.127 140.22 19.7947
    endloop
  endfacet
  facet normal 0 0.99939 0.0349154
    outer loop
      vertex 376.127 142.912 0
      vertex 375.712 142.218 19.8645
      vertex 376.127 142.218 19.8645
    endloop
  endfacet
  facet normal 0 0.99939 0.0349154
    outer loop
      vertex 375.712 142.218 19.8645
      vertex 376.127 142.912 0
      vertex 370.743 142.912 0
    endloop
  endfacet
  facet normal -0.970144 -0.00872693 0.242372
    outer loop
      vertex 370.761 140.911 0
      vertex 375.712 142.218 19.8645
      vertex 370.743 142.912 0
    endloop
  endfacet
  facet normal -0.97015 -0.00846669 0.242356
    outer loop
      vertex 375.712 142.218 19.8645
      vertex 370.761 140.911 0
      vertex 375.712 140.22 19.7947
    endloop
  endfacet
  facet normal 1 -0 0
    outer loop
      vertex 380.712 137.221 19.69
      vertex 380.712 138.323 0
      vertex 380.712 137.635 19.7044
    endloop
  endfacet
  facet normal 1 0 0
    outer loop
      vertex 380.712 138.323 0
      vertex 380.712 137.221 19.69
      vertex 380.712 133.023 0
    endloop
  endfacet
  facet normal -1 0 0
    outer loop
      vertex 378.712 138.323 0
      vertex 378.712 137.221 19.69
      vertex 378.712 137.635 19.7044
    endloop
  endfacet
  facet normal -1 0 -0
    outer loop
      vertex 378.712 137.221 19.69
      vertex 378.712 138.323 0
      vertex 378.712 133.023 0
    endloop
  endfacet
  facet normal 0 -0.978019 0.208518
    outer loop
      vertex 378.712 133.023 0
      vertex 380.712 137.221 19.69
      vertex 378.712 137.221 19.69
    endloop
  endfacet
  facet normal 0 -0.978019 0.208518
    outer loop
      vertex 380.712 137.221 19.69
      vertex 378.712 133.023 0
      vertex 380.712 133.023 0
    endloop
  endfacet
  facet normal -0.923944 -0.382296 -0.0133501
    outer loop
      vertex 376.884 4.17412 0
      vertex 376.127 5.47673 15.0893
      vertex 376.127 6.00366 0
    endloop
  endfacet
  facet normal -0.923944 -0.382294 -0.0133502
    outer loop
      vertex 376.127 5.47673 15.0893
      vertex 376.884 4.17412 0
      vertex 376.884 3.64941 15.0255
    endloop
  endfacet
  facet normal 0.382563 0.923366 0.0322449
    outer loop
      vertex 380.712 10.5922 0
      vertex 382.541 9.30282 15.2229
      vertex 382.541 9.83442 0
    endloop
  endfacet
  facet normal 0.382574 0.923362 0.0322432
    outer loop
      vertex 382.541 9.30282 15.2229
      vertex 380.712 10.5922 0
      vertex 380.712 10.0597 15.2494
    endloop
  endfacet
  facet normal 0.923946 0.382291 0.01335
    outer loop
      vertex 382.541 9.30282 15.2229
      vertex 383.712 7.00427 0
      vertex 382.541 9.83442 0
    endloop
  endfacet
  facet normal 0.923945 0.382291 0.0133499
    outer loop
      vertex 383.712 7.00427 0
      vertex 382.541 9.30282 15.2229
      vertex 383.712 6.47612 15.1242
    endloop
  endfacet
  facet normal 0.923946 -0.382291 -0.0133499
    outer loop
      vertex 383.712 6.47612 15.1242
      vertex 382.541 4.17412 0
      vertex 383.712 7.00427 0
    endloop
  endfacet
  facet normal 0.923946 -0.38229 -0.0133501
    outer loop
      vertex 382.541 4.17412 0
      vertex 383.712 6.47612 15.1242
      vertex 382.541 3.64941 15.0255
    endloop
  endfacet
  facet normal -0.382733 -0.923296 -0.0322427
    outer loop
      vertex 376.884 4.17412 0
      vertex 379.712 2.47855 14.9846
      vertex 376.884 3.64941 15.0255
    endloop
  endfacet
  facet normal -0.382734 -0.923296 -0.0322426
    outer loop
      vertex 379.712 2.47855 14.9846
      vertex 376.884 4.17412 0
      vertex 379.712 3.00183 0
    endloop
  endfacet
  facet normal -0.382753 0.923288 0.0322407
    outer loop
      vertex 378.712 10.5922 0
      vertex 376.884 9.30282 15.2229
      vertex 378.712 10.0597 15.2494
    endloop
  endfacet
  facet normal -0.382742 0.923292 0.0322424
    outer loop
      vertex 376.884 9.30282 15.2229
      vertex 378.712 10.5922 0
      vertex 376.884 9.83442 0
    endloop
  endfacet
  facet normal -0.923944 0.382296 0.0133502
    outer loop
      vertex 376.127 8.00488 0
      vertex 376.884 9.30282 15.2229
      vertex 376.884 9.83442 0
    endloop
  endfacet
  facet normal -0.923943 0.382296 0.0133501
    outer loop
      vertex 376.884 9.30282 15.2229
      vertex 376.127 8.00488 0
      vertex 376.127 7.47551 15.1591
    endloop
  endfacet
  facet normal 0.382618 -0.923344 -0.0322443
    outer loop
      vertex 382.541 4.17412 0
      vertex 379.712 2.47855 14.9846
      vertex 379.712 3.00183 0
    endloop
  endfacet
  facet normal 0.382618 -0.923344 -0.0322444
    outer loop
      vertex 379.712 2.47855 14.9846
      vertex 382.541 4.17412 0
      vertex 382.541 3.64941 15.0255
    endloop
  endfacet
  facet normal 0 -0.0347616 0.999396
    outer loop
      vertex 378.712 10.0597 15.2494
      vertex 380.712 10.0597 15.2494
      vertex 380.712 10.4737 15.2638
    endloop
  endfacet
  facet normal 0 -0.0347616 0.999396
    outer loop
      vertex 378.712 10.0597 15.2494
      vertex 380.712 10.4737 15.2638
      vertex 378.712 10.4737 15.2638
    endloop
  endfacet
  facet normal 0 -0.0349278 0.99939
    outer loop
      vertex 380.712 10.0597 15.2494
      vertex 378.712 10.0597 15.2494
      vertex 379.712 8.3 15.1879
    endloop
  endfacet
  facet normal 4.37931e-05 -0.034903 0.999391
    outer loop
      vertex 378.712 10.0597 15.2494
      vertex 378.422 7.7658 15.1693
      vertex 379.712 8.3 15.1879
    endloop
  endfacet
  facet normal -4.08086e-05 -0.0348923 0.999391
    outer loop
      vertex 376.884 9.30282 15.2229
      vertex 378.422 7.7658 15.1693
      vertex 378.712 10.0597 15.2494
    endloop
  endfacet
  facet normal -2.96906e-05 -0.0348812 0.999391
    outer loop
      vertex 376.127 7.47551 15.1591
      vertex 378.422 7.7658 15.1693
      vertex 376.884 9.30282 15.2229
    endloop
  endfacet
  facet normal 0 -0.0348958 0.999391
    outer loop
      vertex 381.538 6.47612 15.1242
      vertex 383.712 6.47612 15.1242
      vertex 382.541 9.30282 15.2229
    endloop
  endfacet
  facet normal 0 -0.0348957 0.999391
    outer loop
      vertex 383.712 6.47612 15.1242
      vertex 381.538 6.47612 15.1242
      vertex 382.541 3.64941 15.0255
    endloop
  endfacet
  facet normal 6.86557e-05 -0.0349201 0.99939
    outer loop
      vertex 382.541 9.30282 15.2229
      vertex 381.003 7.7658 15.1693
      vertex 381.538 6.47612 15.1242
    endloop
  endfacet
  facet normal 4.07928e-05 -0.0348923 0.999391
    outer loop
      vertex 380.712 10.0597 15.2494
      vertex 381.003 7.7658 15.1693
      vertex 382.541 9.30282 15.2229
    endloop
  endfacet
  facet normal -4.37656e-05 -0.034903 0.999391
    outer loop
      vertex 381.003 7.7658 15.1693
      vertex 380.712 10.0597 15.2494
      vertex 379.712 8.3 15.1879
    endloop
  endfacet
  facet normal 3.22177e-05 -0.0348842 0.999391
    outer loop
      vertex 381.003 5.18643 15.0792
      vertex 382.541 3.64941 15.0255
      vertex 381.538 6.47612 15.1242
    endloop
  endfacet
  facet normal -1.98511e-05 -0.0349363 0.99939
    outer loop
      vertex 379.712 4.65223 15.0605
      vertex 382.541 3.64941 15.0255
      vertex 381.003 5.18643 15.0792
    endloop
  endfacet
  facet normal -5.72688e-06 -0.0348965 0.999391
    outer loop
      vertex 379.712 4.65223 15.0605
      vertex 379.712 2.47855 14.9846
      vertex 382.541 3.64941 15.0255
    endloop
  endfacet
  facet normal 3.63667e-05 -0.0348965 0.999391
    outer loop
      vertex 378.422 5.18643 15.0792
      vertex 379.712 2.47855 14.9846
      vertex 379.712 4.65223 15.0605
    endloop
  endfacet
  facet normal -1.79867e-06 -0.0349146 0.99939
    outer loop
      vertex 378.422 5.18643 15.0792
      vertex 376.884 3.64941 15.0255
      vertex 379.712 2.47855 14.9846
    endloop
  endfacet
  facet normal -1.34084e-05 -0.0348764 0.999392
    outer loop
      vertex 376.127 5.47673 15.0893
      vertex 378.422 5.18643 15.0792
      vertex 377.888 6.47612 15.1242
    endloop
  endfacet
  facet normal -2.23256e-05 -0.0349393 0.999389
    outer loop
      vertex 378.422 7.7658 15.1693
      vertex 376.127 7.47551 15.1591
      vertex 377.888 6.47612 15.1242
    endloop
  endfacet
  facet normal 0 -0.0349 0.999391
    outer loop
      vertex 376.127 5.47673 15.0893
      vertex 377.888 6.47612 15.1242
      vertex 376.127 7.47551 15.1591
    endloop
  endfacet
  facet normal -1.63989e-05 -0.0349 0.999391
    outer loop
      vertex 378.422 5.18643 15.0792
      vertex 376.127 5.47673 15.0893
      vertex 376.884 3.64941 15.0255
    endloop
  endfacet
  facet normal 0 -0.0349 0.999391
    outer loop
      vertex 375.712 7.47551 15.1591
      vertex 376.127 5.47673 15.0893
      vertex 376.127 7.47551 15.1591
    endloop
  endfacet
  facet normal 0 -0.0349 0.999391
    outer loop
      vertex 376.127 5.47673 15.0893
      vertex 375.712 7.47551 15.1591
      vertex 375.712 5.47673 15.0893
    endloop
  endfacet
  facet normal -0 -0.999391 -0.0348995
    outer loop
      vertex 376.127 6.00366 0
      vertex 375.712 5.47673 15.0893
      vertex 371.938 6.00366 0
    endloop
  endfacet
  facet normal 0 -0.999391 -0.0348995
    outer loop
      vertex 375.712 5.47673 15.0893
      vertex 376.127 6.00366 0
      vertex 376.127 5.47673 15.0893
    endloop
  endfacet
  facet normal 0 0.999391 0.0348997
    outer loop
      vertex 376.127 8.00488 0
      vertex 375.712 7.47551 15.1591
      vertex 376.127 7.47551 15.1591
    endloop
  endfacet
  facet normal 0 0.999391 0.0348997
    outer loop
      vertex 375.712 7.47551 15.1591
      vertex 376.127 8.00488 0
      vertex 371.92 8.00488 0
    endloop
  endfacet
  facet normal -0.970144 -0.00872597 0.242374
    outer loop
      vertex 371.938 6.00366 0
      vertex 375.712 7.47551 15.1591
      vertex 371.92 8.00488 0
    endloop
  endfacet
  facet normal -0.970152 -0.00846318 0.24235
    outer loop
      vertex 375.712 7.47551 15.1591
      vertex 371.938 6.00366 0
      vertex 375.712 5.47673 15.0893
    endloop
  endfacet
  facet normal 1 0 0
    outer loop
      vertex 380.712 10.4737 15.2638
      vertex 380.712 10.5922 0
      vertex 380.712 14.861 0
    endloop
  endfacet
  facet normal 1 0 0
    outer loop
      vertex 380.712 10.5922 0
      vertex 380.712 10.4737 15.2638
      vertex 380.712 10.0597 15.2494
    endloop
  endfacet
  facet normal -1 0 0
    outer loop
      vertex 378.712 10.5922 0
      vertex 378.712 10.4737 15.2638
      vertex 378.712 14.861 0
    endloop
  endfacet
  facet normal -1 0 -0
    outer loop
      vertex 378.712 10.4737 15.2638
      vertex 378.712 10.5922 0
      vertex 378.712 10.0597 15.2494
    endloop
  endfacet
  facet normal 0 0.961087 0.276247
    outer loop
      vertex 380.712 14.861 0
      vertex 378.712 10.4737 15.2638
      vertex 380.712 10.4737 15.2638
    endloop
  endfacet
  facet normal 0 0.961087 0.276247
    outer loop
      vertex 378.712 10.4737 15.2638
      vertex 380.712 14.861 0
      vertex 378.712 14.861 0
    endloop
  endfacet
  facet normal 0.38289 0.923231 0.0322365
    outer loop
      vertex 378.422 140.69 -2
      vertex 379.712 139.395 19.7659
      vertex 379.712 140.155 -2
    endloop
  endfacet
  facet normal 0.382676 0.923319 0.0322544
    outer loop
      vertex 379.712 139.395 19.7659
      vertex 378.422 140.69 -2
      vertex 378.422 139.929 19.7845
    endloop
  endfacet
  facet normal -0.382423 -0.923425 -0.0322245
    outer loop
      vertex 379.712 143.807 -2
      vertex 381.003 142.509 19.8746
      vertex 379.712 143.043 19.8932
    endloop
  endfacet
  facet normal -0.382026 -0.923588 -0.0322576
    outer loop
      vertex 381.003 142.509 19.8746
      vertex 379.712 143.807 -2
      vertex 381.003 143.273 -2
    endloop
  endfacet
  facet normal -0.923838 -0.382549 -0.013361
    outer loop
      vertex 381.538 141.981 -2
      vertex 381.003 142.509 19.8746
      vertex 381.003 143.273 -2
    endloop
  endfacet
  facet normal -0.923794 -0.382658 -0.0133573
    outer loop
      vertex 381.003 142.509 19.8746
      vertex 381.538 141.981 -2
      vertex 381.538 141.219 19.8296
    endloop
  endfacet
  facet normal 0.382279 -0.923484 -0.0322539
    outer loop
      vertex 379.712 143.807 -2
      vertex 378.422 142.509 19.8746
      vertex 378.422 143.273 -2
    endloop
  endfacet
  facet normal 0.382676 -0.92332 -0.0322208
    outer loop
      vertex 378.422 142.509 19.8746
      vertex 379.712 143.807 -2
      vertex 379.712 143.043 19.8932
    endloop
  endfacet
  facet normal -0.382423 0.923424 0.0322581
    outer loop
      vertex 381.003 140.69 -2
      vertex 379.712 139.395 19.7659
      vertex 381.003 139.929 19.7845
    endloop
  endfacet
  facet normal -0.382637 0.923336 0.0322401
    outer loop
      vertex 379.712 139.395 19.7659
      vertex 381.003 140.69 -2
      vertex 379.712 140.155 -2
    endloop
  endfacet
  facet normal -0.923734 0.382802 0.0133624
    outer loop
      vertex 381.003 140.69 -2
      vertex 381.538 141.219 19.8296
      vertex 381.538 141.981 -2
    endloop
  endfacet
  facet normal -0.923794 0.382657 0.0133674
    outer loop
      vertex 381.538 141.219 19.8296
      vertex 381.003 140.69 -2
      vertex 381.003 139.929 19.7845
    endloop
  endfacet
  facet normal 0.923987 0.382191 0.0133411
    outer loop
      vertex 377.888 141.219 19.8296
      vertex 378.422 140.69 -2
      vertex 377.888 141.981 -2
    endloop
  endfacet
  facet normal 0.924047 0.382046 0.013346
    outer loop
      vertex 378.422 140.69 -2
      vertex 377.888 141.219 19.8296
      vertex 378.422 139.929 19.7845
    endloop
  endfacet
  facet normal 0.924091 -0.381939 -0.0133397
    outer loop
      vertex 378.422 142.509 19.8746
      vertex 377.888 141.981 -2
      vertex 378.422 143.273 -2
    endloop
  endfacet
  facet normal 0.924047 -0.382047 -0.013336
    outer loop
      vertex 377.888 141.981 -2
      vertex 378.422 142.509 19.8746
      vertex 377.888 141.219 19.8296
    endloop
  endfacet
  facet normal 0.924014 0.382126 0.0133441
    outer loop
      vertex 377.888 6.47612 15.1242
      vertex 378.422 5.78285 -2
      vertex 377.888 7.07411 -2
    endloop
  endfacet
  facet normal 0.924014 0.382125 0.0133441
    outer loop
      vertex 378.422 5.78285 -2
      vertex 377.888 6.47612 15.1242
      vertex 378.422 5.18643 15.0792
    endloop
  endfacet
  facet normal -0.382545 -0.923374 -0.0322452
    outer loop
      vertex 379.712 8.90022 -2
      vertex 381.003 7.7658 15.1693
      vertex 379.712 8.3 15.1879
    endloop
  endfacet
  facet normal -0.382552 -0.923371 -0.0322446
    outer loop
      vertex 381.003 7.7658 15.1693
      vertex 379.712 8.90022 -2
      vertex 381.003 8.36536 -2
    endloop
  endfacet
  facet normal -0.92376 -0.382739 -0.0133654
    outer loop
      vertex 381.538 7.07411 -2
      vertex 381.003 7.7658 15.1693
      vertex 381.003 8.36536 -2
    endloop
  endfacet
  facet normal -0.92376 -0.382738 -0.0133655
    outer loop
      vertex 381.003 7.7658 15.1693
      vertex 381.538 7.07411 -2
      vertex 381.538 6.47612 15.1242
    endloop
  endfacet
  facet normal 0.382799 0.923269 0.0322415
    outer loop
      vertex 378.422 5.78285 -2
      vertex 379.712 4.65223 15.0605
      vertex 379.712 5.248 -2
    endloop
  endfacet
  facet normal 0.382801 0.923268 0.0322413
    outer loop
      vertex 379.712 4.65223 15.0605
      vertex 378.422 5.78285 -2
      vertex 378.422 5.18643 15.0792
    endloop
  endfacet
  facet normal -0.382548 0.923373 0.032245
    outer loop
      vertex 381.003 5.78285 -2
      vertex 379.712 4.65223 15.0605
      vertex 381.003 5.18643 15.0792
    endloop
  endfacet
  facet normal -0.382546 0.923374 0.0322451
    outer loop
      vertex 379.712 4.65223 15.0605
      vertex 381.003 5.78285 -2
      vertex 379.712 5.248 -2
    endloop
  endfacet
  facet normal 0.382805 -0.923266 -0.0322409
    outer loop
      vertex 379.712 8.90022 -2
      vertex 378.422 7.7658 15.1693
      vertex 378.422 8.36536 -2
    endloop
  endfacet
  facet normal 0.382798 -0.923269 -0.0322416
    outer loop
      vertex 378.422 7.7658 15.1693
      vertex 379.712 8.90022 -2
      vertex 379.712 8.3 15.1879
    endloop
  endfacet
  facet normal -0.923761 0.382736 0.0133654
    outer loop
      vertex 381.003 5.78285 -2
      vertex 381.538 6.47612 15.1242
      vertex 381.538 7.07411 -2
    endloop
  endfacet
  facet normal -0.923761 0.382736 0.0133655
    outer loop
      vertex 381.538 6.47612 15.1242
      vertex 381.003 5.78285 -2
      vertex 381.003 5.18643 15.0792
    endloop
  endfacet
  facet normal 0.924013 -0.382128 -0.0133441
    outer loop
      vertex 378.422 7.7658 15.1693
      vertex 377.888 7.07411 -2
      vertex 378.422 8.36536 -2
    endloop
  endfacet
  facet normal 0.924014 -0.382127 -0.0133442
    outer loop
      vertex 377.888 7.07411 -2
      vertex 378.422 7.7658 15.1693
      vertex 377.888 6.47612 15.1242
    endloop
  endfacet
  facet normal 0 0 -1
    outer loop
      vertex 381.003 140.69 -2
      vertex 386.712 143.983 -2
      vertex 381.003 8.36536 -2
    endloop
  endfacet
  facet normal 0 0 -1
    outer loop
      vertex 386.712 143.983 -2
      vertex 381.003 140.69 -2
      vertex 381.538 141.981 -2
    endloop
  endfacet
  facet normal 0 0 -1
    outer loop
      vertex 379.712 8.90022 -2
      vertex 381.003 140.69 -2
      vertex 381.003 8.36536 -2
    endloop
  endfacet
  facet normal 0 0 -1
    outer loop
      vertex 379.712 8.90022 -2
      vertex 379.712 140.155 -2
      vertex 381.003 140.69 -2
    endloop
  endfacet
  facet normal 0 0 -1
    outer loop
      vertex 378.422 8.36536 -2
      vertex 379.712 140.155 -2
      vertex 379.712 8.90022 -2
    endloop
  endfacet
  facet normal 0 0 -1
    outer loop
      vertex 378.422 8.36536 -2
      vertex 378.422 140.69 -2
      vertex 379.712 140.155 -2
    endloop
  endfacet
  facet normal 0 0 -1
    outer loop
      vertex 257.808 0.0698424 -2
      vertex 378.422 8.36536 -2
      vertex 377.888 7.07411 -2
    endloop
  endfacet
  facet normal -0 0 -1
    outer loop
      vertex 378.422 8.36536 -2
      vertex 257.808 0.0698424 -2
      vertex 378.422 140.69 -2
    endloop
  endfacet
  facet normal 0 0 -1
    outer loop
      vertex 381.003 5.78285 -2
      vertex 386.712 5.07289 -2
      vertex 385.248 1.5352 -2
    endloop
  endfacet
  facet normal 0 0 -1
    outer loop
      vertex 381.003 8.36536 -2
      vertex 386.712 5.07289 -2
      vertex 381.538 7.07411 -2
    endloop
  endfacet
  facet normal 0 0 -1
    outer loop
      vertex 381.003 5.78285 -2
      vertex 385.248 1.5352 -2
      vertex 384.332 1.15555 -2
    endloop
  endfacet
  facet normal 0 0 -1
    outer loop
      vertex 381.003 5.78285 -2
      vertex 384.332 1.15555 -2
      vertex 381.712 0.0698424 -2
    endloop
  endfacet
  facet normal 0 0 -1
    outer loop
      vertex 386.712 5.07289 -2
      vertex 381.003 8.36536 -2
      vertex 386.712 143.983 -2
    endloop
  endfacet
  facet normal 0 0 -1
    outer loop
      vertex 381.003 143.273 -2
      vertex 386.712 143.983 -2
      vertex 381.538 141.981 -2
    endloop
  endfacet
  facet normal 0 0 -1
    outer loop
      vertex 386.712 5.07289 -2
      vertex 381.003 5.78285 -2
      vertex 381.538 7.07411 -2
    endloop
  endfacet
  facet normal 0 0 -1
    outer loop
      vertex 381.712 0.0698424 -2
      vertex 379.712 5.248 -2
      vertex 381.003 5.78285 -2
    endloop
  endfacet
  facet normal 0 0 -1
    outer loop
      vertex 381.712 0.0698424 -2
      vertex 378.422 5.78285 -2
      vertex 379.712 5.248 -2
    endloop
  endfacet
  facet normal 0 0 -1
    outer loop
      vertex 257.808 148.986 -2
      vertex 378.422 140.69 -2
      vertex 257.808 0.0698424 -2
    endloop
  endfacet
  facet normal -0 0 -1
    outer loop
      vertex 378.422 5.78285 -2
      vertex 257.808 0.0698424 -2
      vertex 377.888 7.07411 -2
    endloop
  endfacet
  facet normal 0 0 -1
    outer loop
      vertex 257.808 0.0698424 -2
      vertex 378.422 5.78285 -2
      vertex 381.712 0.0698424 -2
    endloop
  endfacet
  facet normal -0 0 -1
    outer loop
      vertex 386.712 143.983 -2
      vertex 381.003 143.273 -2
      vertex 385.248 147.52 -2
    endloop
  endfacet
  facet normal -0 0 -1
    outer loop
      vertex 385.248 147.52 -2
      vertex 381.003 143.273 -2
      vertex 381.712 148.986 -2
    endloop
  endfacet
  facet normal 0 0 -1
    outer loop
      vertex 379.712 143.807 -2
      vertex 381.712 148.986 -2
      vertex 381.003 143.273 -2
    endloop
  endfacet
  facet normal 0 0 -1
    outer loop
      vertex 378.422 143.273 -2
      vertex 381.712 148.986 -2
      vertex 379.712 143.807 -2
    endloop
  endfacet
  facet normal 0 0 -1
    outer loop
      vertex 378.422 140.69 -2
      vertex 257.808 148.986 -2
      vertex 377.888 141.981 -2
    endloop
  endfacet
  facet normal 0 0 -1
    outer loop
      vertex 377.888 141.981 -2
      vertex 257.808 148.986 -2
      vertex 378.422 143.273 -2
    endloop
  endfacet
  facet normal 0 0 -1
    outer loop
      vertex 378.422 143.273 -2
      vertex 257.808 148.986 -2
      vertex 381.712 148.986 -2
    endloop
  endfacet
  facet normal 0 0 1
    outer loop
      vertex 376.884 139.081 0
      vertex 378.712 133.023 0
      vertex 378.712 138.323 0
    endloop
  endfacet
  facet normal 0 0 1
    outer loop
      vertex 378.712 133.023 0
      vertex 370.761 140.911 0
      vertex 378.712 14.861 0
    endloop
  endfacet
  facet normal 0 0 1
    outer loop
      vertex 378.712 133.023 0
      vertex 376.884 139.081 0
      vertex 370.761 140.911 0
    endloop
  endfacet
  facet normal 0 -0 1
    outer loop
      vertex 371.92 8.00488 0
      vertex 378.712 14.861 0
      vertex 370.761 140.911 0
    endloop
  endfacet
  facet normal -0 0 1
    outer loop
      vertex 370.761 140.911 0
      vertex 376.884 139.081 0
      vertex 376.127 140.911 0
    endloop
  endfacet
  facet normal 0 0 1
    outer loop
      vertex 378.712 14.861 0
      vertex 376.884 9.83442 0
      vertex 378.712 10.5922 0
    endloop
  endfacet
  facet normal 0 0 1
    outer loop
      vertex 376.884 9.83442 0
      vertex 371.92 8.00488 0
      vertex 376.127 8.00488 0
    endloop
  endfacet
  facet normal 0 0 1
    outer loop
      vertex 378.712 14.861 0
      vertex 371.92 8.00488 0
      vertex 376.884 9.83442 0
    endloop
  endfacet
  facet normal -0 0 1
    outer loop
      vertex 378.712 133.023 0
      vertex 380.712 14.861 0
      vertex 380.712 133.023 0
    endloop
  endfacet
  facet normal 0 0 1
    outer loop
      vertex 380.712 14.861 0
      vertex 378.712 133.023 0
      vertex 378.712 14.861 0
    endloop
  endfacet
  facet normal 0 0 1
    outer loop
      vertex 386.712 143.913 0
      vertex 380.712 133.023 0
      vertex 386.712 5.00305 0
    endloop
  endfacet
  facet normal -0 0 1
    outer loop
      vertex 380.712 14.861 0
      vertex 386.712 5.00305 0
      vertex 380.712 133.023 0
    endloop
  endfacet
  facet normal 0 0 1
    outer loop
      vertex 380.712 133.023 0
      vertex 382.541 139.081 0
      vertex 380.712 138.323 0
    endloop
  endfacet
  facet normal -0 -0 1
    outer loop
      vertex 382.541 9.83442 0
      vertex 386.712 5.00305 0
      vertex 380.712 14.861 0
    endloop
  endfacet
  facet normal 0 0 1
    outer loop
      vertex 386.712 5.00305 0
      vertex 382.541 9.83442 0
      vertex 383.712 7.00427 0
    endloop
  endfacet
  facet normal 0 0 1
    outer loop
      vertex 382.541 9.83442 0
      vertex 380.712 14.861 0
      vertex 380.712 10.5922 0
    endloop
  endfacet
  facet normal -0 0 1
    outer loop
      vertex 382.541 144.742 0
      vertex 386.712 143.913 0
      vertex 385.248 147.45 0
    endloop
  endfacet
  facet normal 0 0 1
    outer loop
      vertex 382.541 139.081 0
      vertex 386.712 143.913 0
      vertex 383.712 141.911 0
    endloop
  endfacet
  facet normal 0 0 1
    outer loop
      vertex 382.541 4.17412 0
      vertex 386.712 5.00305 0
      vertex 383.712 7.00427 0
    endloop
  endfacet
  facet normal 0 0 1
    outer loop
      vertex 380.712 133.023 0
      vertex 386.712 143.913 0
      vertex 382.541 139.081 0
    endloop
  endfacet
  facet normal 0 0 1
    outer loop
      vertex 386.712 143.913 0
      vertex 382.541 144.742 0
      vertex 383.712 141.911 0
    endloop
  endfacet
  facet normal 0 0 1
    outer loop
      vertex 381.712 148.916 0
      vertex 382.541 144.742 0
      vertex 385.248 147.45 0
    endloop
  endfacet
  facet normal 0 0 1
    outer loop
      vertex 381.712 148.916 0
      vertex 379.712 145.914 0
      vertex 382.541 144.742 0
    endloop
  endfacet
  facet normal 0 0 1
    outer loop
      vertex 381.712 148.916 0
      vertex 376.884 144.742 0
      vertex 379.712 145.914 0
    endloop
  endfacet
  facet normal 0 0 1
    outer loop
      vertex 376.884 144.742 0
      vertex 370.743 142.912 0
      vertex 376.127 142.912 0
    endloop
  endfacet
  facet normal 0 0 1
    outer loop
      vertex 381.712 148.916 0
      vertex 370.743 142.912 0
      vertex 376.884 144.742 0
    endloop
  endfacet
  facet normal 0 -0 1
    outer loop
      vertex 370.743 142.912 0
      vertex 381.712 148.916 0
      vertex 257.808 148.916 0
    endloop
  endfacet
  facet normal 0 0 1
    outer loop
      vertex 386.712 5.00305 0
      vertex 382.541 4.17412 0
      vertex 385.248 1.46536 0
    endloop
  endfacet
  facet normal 0 0 1
    outer loop
      vertex 385.248 1.46536 0
      vertex 382.541 4.17412 0
      vertex 384.435 1.12846 0
    endloop
  endfacet
  facet normal 0 0 1
    outer loop
      vertex 382.541 4.17412 0
      vertex 381.712 8.8961e-07 0
      vertex 384.435 1.12846 0
    endloop
  endfacet
  facet normal -0 0 1
    outer loop
      vertex 379.712 3.00183 0
      vertex 381.712 8.8961e-07 0
      vertex 382.541 4.17412 0
    endloop
  endfacet
  facet normal 0 0 1
    outer loop
      vertex 376.884 4.17412 0
      vertex 381.712 8.8961e-07 0
      vertex 379.712 3.00183 0
    endloop
  endfacet
  facet normal -0 0 1
    outer loop
      vertex 371.938 6.00366 0
      vertex 376.884 4.17412 0
      vertex 376.127 6.00366 0
    endloop
  endfacet
  facet normal 0 0 1
    outer loop
      vertex 371.938 6.00366 0
      vertex 381.712 8.8961e-07 0
      vertex 376.884 4.17412 0
    endloop
  endfacet
  facet normal 0 0 1
    outer loop
      vertex 257.808 8.8961e-07 0
      vertex 371.92 8.00488 0
      vertex 370.761 140.911 0
    endloop
  endfacet
  facet normal 0 0 1
    outer loop
      vertex 257.808 148.916 0
      vertex 370.761 140.911 0
      vertex 370.743 142.912 0
    endloop
  endfacet
  facet normal 0 0 1
    outer loop
      vertex 257.808 8.8961e-07 0
      vertex 370.761 140.911 0
      vertex 257.808 148.916 0
    endloop
  endfacet
  facet normal 0 0 1
    outer loop
      vertex 371.938 6.00366 0
      vertex 257.808 8.8961e-07 0
      vertex 381.712 8.8961e-07 0
    endloop
  endfacet
  facet normal 0 0 1
    outer loop
      vertex 371.92 8.00488 0
      vertex 257.808 8.8961e-07 0
      vertex 371.938 6.00366 0
    endloop
  endfacet
  facet normal 0.923923 -0.382346 -0.0133515
    outer loop
      vertex 386.712 5.00305 0
      vertex 385.248 1.5352 -2
      vertex 386.712 5.07289 -2
    endloop
  endfacet
  facet normal 0.923923 -0.382346 -0.0133515
    outer loop
      vertex 385.248 1.5352 -2
      vertex 386.712 5.00305 0
      vertex 385.248 1.46536 0
    endloop
  endfacet
  facet normal 0 0.999388 0.0349786
    outer loop
      vertex 381.712 148.986 -2
      vertex 257.808 148.916 0
      vertex 381.712 148.916 0
    endloop
  endfacet
  facet normal 0 0.999388 0.0349786
    outer loop
      vertex 257.808 148.916 0
      vertex 381.712 148.986 -2
      vertex 257.808 148.986 -2
    endloop
  endfacet
  facet normal 0.382683 -0.923318 -0.0322145
    outer loop
      vertex 385.248 1.5352 -2
      vertex 384.435 1.12846 0
      vertex 384.332 1.15555 -2
    endloop
  endfacet
  facet normal 0.382624 -0.923341 -0.0322431
    outer loop
      vertex 384.435 1.12846 0
      vertex 385.248 1.5352 -2
      vertex 385.248 1.46536 0
    endloop
  endfacet
  facet normal 0 -0.999391 -0.0348995
    outer loop
      vertex 257.808 0.0698424 -2
      vertex 381.712 8.8961e-07 0
      vertex 257.808 8.8961e-07 0
    endloop
  endfacet
  facet normal 0 -0.999391 -0.0348995
    outer loop
      vertex 381.712 8.8961e-07 0
      vertex 257.808 0.0698424 -2
      vertex 381.712 0.0698424 -2
    endloop
  endfacet
  facet normal 0.382625 -0.923341 -0.0322438
    outer loop
      vertex 384.332 1.15555 -2
      vertex 381.712 8.8961e-07 0
      vertex 381.712 0.0698424 -2
    endloop
  endfacet
  facet normal 0.382646 -0.923333 -0.0322128
    outer loop
      vertex 381.712 8.8961e-07 0
      vertex 384.332 1.15555 -2
      vertex 384.435 1.12846 0
    endloop
  endfacet
  facet normal 0.923896 0.38241 0.0133843
    outer loop
      vertex 385.248 147.45 0
      vertex 386.712 143.983 -2
      vertex 385.248 147.52 -2
    endloop
  endfacet
  facet normal 0.923896 0.38241 0.0133843
    outer loop
      vertex 386.712 143.983 -2
      vertex 385.248 147.45 0
      vertex 386.712 143.913 0
    endloop
  endfacet
  facet normal 0.382782 0.923273 0.0323146
    outer loop
      vertex 385.248 147.52 -2
      vertex 381.712 148.916 0
      vertex 385.248 147.45 0
    endloop
  endfacet
  facet normal 0.382782 0.923273 0.0323146
    outer loop
      vertex 381.712 148.916 0
      vertex 385.248 147.52 -2
      vertex 381.712 148.986 -2
    endloop
  endfacet
  facet normal 1 0 0
    outer loop
      vertex 386.712 143.913 0
      vertex 386.712 5.07289 -2
      vertex 386.712 143.983 -2
    endloop
  endfacet
  facet normal 1 0 -0
    outer loop
      vertex 386.712 5.07289 -2
      vertex 386.712 143.913 0
      vertex 386.712 5.00305 0
    endloop
  endfacet
  facet normal -1 0 0
    outer loop
      vertex 257.808 0.0698424 -2
      vertex 257.808 148.916 0
      vertex 257.808 148.986 -2
    endloop
  endfacet
  facet normal -1 -0 0
    outer loop
      vertex 257.808 148.916 0
      vertex 257.808 0.0698424 -2
      vertex 257.808 8.8961e-07 0
    endloop
  endfacet
endsolid OpenSCAD_Model
