solid OpenSCAD_Model
  facet normal -0.923978 -0.382214 -0.0133491
    outer loop
      vertex 376.884 142.083 0
      vertex 376.127 143.218 19.8993
      vertex 376.127 143.913 0
    endloop
  endfacet
  facet normal -0.923994 -0.382173 -0.0133521
    outer loop
      vertex 376.127 143.218 19.8993
      vertex 376.884 142.083 0
      vertex 376.884 141.39 19.8355
    endloop
  endfacet
  facet normal 0.382816 0.923263 0.0322149
    outer loop
      vertex 379.712 148.916 0
      vertex 382.541 147.044 20.033
      vertex 382.541 147.743 0
    endloop
  endfacet
  facet normal 0.382656 0.923328 0.0322437
    outer loop
      vertex 382.541 147.044 20.033
      vertex 379.712 148.916 0
      vertex 379.712 148.215 20.0738
    endloop
  endfacet
  facet normal 0.923939 0.382308 0.0133397
    outer loop
      vertex 382.541 147.044 20.033
      vertex 383.712 144.913 0
      vertex 382.541 147.743 0
    endloop
  endfacet
  facet normal 0.92396 0.382256 0.0133464
    outer loop
      vertex 383.712 144.913 0
      vertex 382.541 147.044 20.033
      vertex 383.712 144.217 19.9342
    endloop
  endfacet
  facet normal 0.923938 -0.382308 -0.0133482
    outer loop
      vertex 383.712 144.217 19.9342
      vertex 382.541 142.083 0
      vertex 383.712 144.913 0
    endloop
  endfacet
  facet normal 0.92396 -0.382256 -0.013355
    outer loop
      vertex 382.541 142.083 0
      vertex 383.712 144.217 19.9342
      vertex 382.541 141.39 19.8355
    endloop
  endfacet
  facet normal -0.382372 -0.923445 -0.0322627
    outer loop
      vertex 376.884 142.083 0
      vertex 378.712 140.634 19.8091
      vertex 376.884 141.39 19.8355
    endloop
  endfacet
  facet normal -0.382837 -0.923254 -0.0322058
    outer loop
      vertex 378.712 140.634 19.8091
      vertex 376.884 142.083 0
      vertex 378.712 141.325 0
    endloop
  endfacet
  facet normal -0.382771 0.92328 0.032242
    outer loop
      vertex 379.712 148.916 0
      vertex 376.884 147.044 20.033
      vertex 379.712 148.215 20.0738
    endloop
  endfacet
  facet normal -0.382932 0.923215 0.0322132
    outer loop
      vertex 376.884 147.044 20.033
      vertex 379.712 148.916 0
      vertex 376.884 147.743 0
    endloop
  endfacet
  facet normal -0.923904 0.382392 0.0133426
    outer loop
      vertex 376.127 145.914 0
      vertex 376.884 147.044 20.033
      vertex 376.884 147.743 0
    endloop
  endfacet
  facet normal -0.923921 0.382351 0.0133456
    outer loop
      vertex 376.884 147.044 20.033
      vertex 376.127 145.914 0
      vertex 376.127 145.217 19.9691
    endloop
  endfacet
  facet normal 0.382659 -0.923328 -0.0322084
    outer loop
      vertex 382.541 142.083 0
      vertex 380.712 140.634 19.8091
      vertex 380.712 141.325 0
    endloop
  endfacet
  facet normal 0.382194 -0.923519 -0.0322653
    outer loop
      vertex 380.712 140.634 19.8091
      vertex 382.541 142.083 0
      vertex 382.541 141.39 19.8355
    endloop
  endfacet
  facet normal -4.4067e-05 -0.0349167 0.99939
    outer loop
      vertex 378.422 142.927 19.8892
      vertex 378.712 140.634 19.8091
      vertex 379.712 142.393 19.8706
    endloop
  endfacet
  facet normal -2.35138e-05 -0.0348722 0.999392
    outer loop
      vertex 376.127 143.218 19.8993
      vertex 378.422 142.927 19.8892
      vertex 377.888 144.217 19.9342
    endloop
  endfacet
  facet normal -2.81399e-05 -0.0349283 0.99939
    outer loop
      vertex 378.422 145.507 19.9793
      vertex 376.127 145.217 19.9691
      vertex 377.888 144.217 19.9342
    endloop
  endfacet
  facet normal -9.90806e-06 -0.0348962 0.999391
    outer loop
      vertex 376.127 143.218 19.8993
      vertex 377.888 144.217 19.9342
      vertex 376.127 145.217 19.9691
    endloop
  endfacet
  facet normal -2.58963e-05 -0.034891 0.999391
    outer loop
      vertex 378.422 142.927 19.8892
      vertex 376.127 143.218 19.8993
      vertex 376.884 141.39 19.8355
    endloop
  endfacet
  facet normal -5.13235e-06 -0.0349118 0.99939
    outer loop
      vertex 378.422 142.927 19.8892
      vertex 376.884 141.39 19.8355
      vertex 378.712 140.634 19.8091
    endloop
  endfacet
  facet normal 0 -0.0348962 0.999391
    outer loop
      vertex 375.712 145.217 19.9691
      vertex 376.127 143.218 19.8993
      vertex 376.127 145.217 19.9691
    endloop
  endfacet
  facet normal 0 -0.0348962 0.999391
    outer loop
      vertex 376.127 143.218 19.8993
      vertex 375.712 145.217 19.9691
      vertex 375.712 143.218 19.8993
    endloop
  endfacet
  facet normal 0 -0.0349274 0.99939
    outer loop
      vertex 381.538 144.217 19.9342
      vertex 383.712 144.217 19.9342
      vertex 382.541 147.044 20.033
    endloop
  endfacet
  facet normal 0 -0.0348921 0.999391
    outer loop
      vertex 383.712 144.217 19.9342
      vertex 381.538 144.217 19.9342
      vertex 382.541 141.39 19.8355
    endloop
  endfacet
  facet normal 1.62748e-05 -0.0349332 0.99939
    outer loop
      vertex 382.541 147.044 20.033
      vertex 381.003 145.507 19.9793
      vertex 381.538 144.217 19.9342
    endloop
  endfacet
  facet normal -2.8133e-05 -0.0348888 0.999391
    outer loop
      vertex 379.712 148.215 20.0738
      vertex 381.003 145.507 19.9793
      vertex 382.541 147.044 20.033
    endloop
  endfacet
  facet normal -3.35429e-05 -0.0348913 0.999391
    outer loop
      vertex 379.712 148.215 20.0738
      vertex 379.712 146.041 19.9979
      vertex 381.003 145.507 19.9793
    endloop
  endfacet
  facet normal 3.35689e-05 -0.0348913 0.999391
    outer loop
      vertex 379.712 148.215 20.0738
      vertex 378.422 145.507 19.9793
      vertex 379.712 146.041 19.9979
    endloop
  endfacet
  facet normal -2.62584e-05 -0.0349431 0.999389
    outer loop
      vertex 376.127 145.217 19.9691
      vertex 378.422 145.507 19.9793
      vertex 376.884 147.044 20.033
    endloop
  endfacet
  facet normal 2.814e-05 -0.0348888 0.999391
    outer loop
      vertex 376.884 147.044 20.033
      vertex 378.422 145.507 19.9793
      vertex 379.712 148.215 20.0738
    endloop
  endfacet
  facet normal 3.84612e-05 -0.0348784 0.999392
    outer loop
      vertex 381.003 142.927 19.8892
      vertex 382.541 141.39 19.8355
      vertex 381.538 144.217 19.9342
    endloop
  endfacet
  facet normal 5.13037e-06 -0.0349118 0.99939
    outer loop
      vertex 381.003 142.927 19.8892
      vertex 380.712 140.634 19.8091
      vertex 382.541 141.39 19.8355
    endloop
  endfacet
  facet normal 4.40394e-05 -0.0349167 0.99939
    outer loop
      vertex 379.712 142.393 19.8706
      vertex 380.712 140.634 19.8091
      vertex 381.003 142.927 19.8892
    endloop
  endfacet
  facet normal 0 -0.0349417 0.999389
    outer loop
      vertex 378.712 140.634 19.8091
      vertex 380.712 140.634 19.8091
      vertex 379.712 142.393 19.8706
    endloop
  endfacet
  facet normal 0 -0.0347616 0.999396
    outer loop
      vertex 380.712 140.634 19.8091
      vertex 378.712 140.634 19.8091
      vertex 380.712 140.22 19.7947
    endloop
  endfacet
  facet normal 0 -0.0347616 0.999396
    outer loop
      vertex 380.712 140.22 19.7947
      vertex 378.712 140.634 19.8091
      vertex 378.712 140.22 19.7947
    endloop
  endfacet
  facet normal -0 -0.999391 -0.0349046
    outer loop
      vertex 376.127 143.913 0
      vertex 375.712 143.218 19.8993
      vertex 370.735 143.913 0
    endloop
  endfacet
  facet normal 0 -0.999391 -0.0349046
    outer loop
      vertex 375.712 143.218 19.8993
      vertex 376.127 143.913 0
      vertex 376.127 143.218 19.8993
    endloop
  endfacet
  facet normal 0 0.999391 0.0348827
    outer loop
      vertex 376.127 145.914 0
      vertex 375.712 145.217 19.9691
      vertex 376.127 145.217 19.9691
    endloop
  endfacet
  facet normal 0 0.999391 0.0348827
    outer loop
      vertex 375.712 145.217 19.9691
      vertex 376.127 145.914 0
      vertex 370.717 145.914 0
    endloop
  endfacet
  facet normal -0.970146 -0.00872695 0.242364
    outer loop
      vertex 370.735 143.913 0
      vertex 375.712 145.217 19.9691
      vertex 370.717 145.914 0
    endloop
  endfacet
  facet normal -0.970152 -0.0084622 0.242349
    outer loop
      vertex 375.712 145.217 19.9691
      vertex 370.735 143.913 0
      vertex 375.712 143.218 19.8993
    endloop
  endfacet
  facet normal 1 -0 0
    outer loop
      vertex 380.712 140.22 19.7947
      vertex 380.712 141.325 0
      vertex 380.712 140.634 19.8091
    endloop
  endfacet
  facet normal 1 0 0
    outer loop
      vertex 380.712 141.325 0
      vertex 380.712 140.22 19.7947
      vertex 380.712 135.999 0
    endloop
  endfacet
  facet normal -1 0 0
    outer loop
      vertex 378.712 141.325 0
      vertex 378.712 140.22 19.7947
      vertex 378.712 140.634 19.8091
    endloop
  endfacet
  facet normal -1 0 -0
    outer loop
      vertex 378.712 140.22 19.7947
      vertex 378.712 141.325 0
      vertex 378.712 135.999 0
    endloop
  endfacet
  facet normal 0 -0.978012 0.20855
    outer loop
      vertex 378.712 135.999 0
      vertex 380.712 140.22 19.7947
      vertex 378.712 140.22 19.7947
    endloop
  endfacet
  facet normal 0 -0.978012 0.20855
    outer loop
      vertex 380.712 140.22 19.7947
      vertex 378.712 135.999 0
      vertex 380.712 135.999 0
    endloop
  endfacet
  facet normal -0.923944 -0.382296 -0.0133501
    outer loop
      vertex 376.884 4.17412 0
      vertex 376.127 5.47673 15.0893
      vertex 376.127 6.00366 0
    endloop
  endfacet
  facet normal -0.923944 -0.382294 -0.0133502
    outer loop
      vertex 376.127 5.47673 15.0893
      vertex 376.884 4.17412 0
      vertex 376.884 3.64941 15.0255
    endloop
  endfacet
  facet normal 0.382563 0.923366 0.0322449
    outer loop
      vertex 380.712 10.5922 0
      vertex 382.541 9.30282 15.2229
      vertex 382.541 9.83442 0
    endloop
  endfacet
  facet normal 0.382574 0.923362 0.0322432
    outer loop
      vertex 382.541 9.30282 15.2229
      vertex 380.712 10.5922 0
      vertex 380.712 10.0597 15.2494
    endloop
  endfacet
  facet normal 0.923946 0.382291 0.01335
    outer loop
      vertex 382.541 9.30282 15.2229
      vertex 383.712 7.00427 0
      vertex 382.541 9.83442 0
    endloop
  endfacet
  facet normal 0.923945 0.382291 0.0133499
    outer loop
      vertex 383.712 7.00427 0
      vertex 382.541 9.30282 15.2229
      vertex 383.712 6.47612 15.1242
    endloop
  endfacet
  facet normal 0.923946 -0.382291 -0.0133499
    outer loop
      vertex 383.712 6.47612 15.1242
      vertex 382.541 4.17412 0
      vertex 383.712 7.00427 0
    endloop
  endfacet
  facet normal 0.923946 -0.38229 -0.0133501
    outer loop
      vertex 382.541 4.17412 0
      vertex 383.712 6.47612 15.1242
      vertex 382.541 3.64941 15.0255
    endloop
  endfacet
  facet normal -0.382733 -0.923296 -0.0322427
    outer loop
      vertex 376.884 4.17412 0
      vertex 379.712 2.47855 14.9846
      vertex 376.884 3.64941 15.0255
    endloop
  endfacet
  facet normal -0.382734 -0.923296 -0.0322426
    outer loop
      vertex 379.712 2.47855 14.9846
      vertex 376.884 4.17412 0
      vertex 379.712 3.00183 0
    endloop
  endfacet
  facet normal -0.382753 0.923288 0.0322407
    outer loop
      vertex 378.712 10.5922 0
      vertex 376.884 9.30282 15.2229
      vertex 378.712 10.0597 15.2494
    endloop
  endfacet
  facet normal -0.382742 0.923292 0.0322424
    outer loop
      vertex 376.884 9.30282 15.2229
      vertex 378.712 10.5922 0
      vertex 376.884 9.83442 0
    endloop
  endfacet
  facet normal -0.923944 0.382296 0.0133502
    outer loop
      vertex 376.127 8.00488 0
      vertex 376.884 9.30282 15.2229
      vertex 376.884 9.83442 0
    endloop
  endfacet
  facet normal -0.923943 0.382296 0.0133501
    outer loop
      vertex 376.884 9.30282 15.2229
      vertex 376.127 8.00488 0
      vertex 376.127 7.47551 15.1591
    endloop
  endfacet
  facet normal 0.382618 -0.923344 -0.0322443
    outer loop
      vertex 382.541 4.17412 0
      vertex 379.712 2.47855 14.9846
      vertex 379.712 3.00183 0
    endloop
  endfacet
  facet normal 0.382618 -0.923344 -0.0322444
    outer loop
      vertex 379.712 2.47855 14.9846
      vertex 382.541 4.17412 0
      vertex 382.541 3.64941 15.0255
    endloop
  endfacet
  facet normal 0 -0.0347616 0.999396
    outer loop
      vertex 378.712 10.0597 15.2494
      vertex 380.712 10.0597 15.2494
      vertex 380.712 10.4737 15.2638
    endloop
  endfacet
  facet normal 0 -0.0347616 0.999396
    outer loop
      vertex 378.712 10.0597 15.2494
      vertex 380.712 10.4737 15.2638
      vertex 378.712 10.4737 15.2638
    endloop
  endfacet
  facet normal 0 -0.0349278 0.99939
    outer loop
      vertex 380.712 10.0597 15.2494
      vertex 378.712 10.0597 15.2494
      vertex 379.712 8.3 15.1879
    endloop
  endfacet
  facet normal 4.37931e-05 -0.034903 0.999391
    outer loop
      vertex 378.712 10.0597 15.2494
      vertex 378.422 7.7658 15.1693
      vertex 379.712 8.3 15.1879
    endloop
  endfacet
  facet normal -4.08086e-05 -0.0348923 0.999391
    outer loop
      vertex 376.884 9.30282 15.2229
      vertex 378.422 7.7658 15.1693
      vertex 378.712 10.0597 15.2494
    endloop
  endfacet
  facet normal -2.96906e-05 -0.0348812 0.999391
    outer loop
      vertex 376.127 7.47551 15.1591
      vertex 378.422 7.7658 15.1693
      vertex 376.884 9.30282 15.2229
    endloop
  endfacet
  facet normal 0 -0.0348958 0.999391
    outer loop
      vertex 381.538 6.47612 15.1242
      vertex 383.712 6.47612 15.1242
      vertex 382.541 9.30282 15.2229
    endloop
  endfacet
  facet normal 0 -0.0348957 0.999391
    outer loop
      vertex 383.712 6.47612 15.1242
      vertex 381.538 6.47612 15.1242
      vertex 382.541 3.64941 15.0255
    endloop
  endfacet
  facet normal 6.86557e-05 -0.0349201 0.99939
    outer loop
      vertex 382.541 9.30282 15.2229
      vertex 381.003 7.7658 15.1693
      vertex 381.538 6.47612 15.1242
    endloop
  endfacet
  facet normal 4.07928e-05 -0.0348923 0.999391
    outer loop
      vertex 380.712 10.0597 15.2494
      vertex 381.003 7.7658 15.1693
      vertex 382.541 9.30282 15.2229
    endloop
  endfacet
  facet normal -4.37656e-05 -0.034903 0.999391
    outer loop
      vertex 381.003 7.7658 15.1693
      vertex 380.712 10.0597 15.2494
      vertex 379.712 8.3 15.1879
    endloop
  endfacet
  facet normal 3.22177e-05 -0.0348842 0.999391
    outer loop
      vertex 381.003 5.18643 15.0792
      vertex 382.541 3.64941 15.0255
      vertex 381.538 6.47612 15.1242
    endloop
  endfacet
  facet normal -1.98511e-05 -0.0349363 0.99939
    outer loop
      vertex 379.712 4.65223 15.0605
      vertex 382.541 3.64941 15.0255
      vertex 381.003 5.18643 15.0792
    endloop
  endfacet
  facet normal -5.72688e-06 -0.0348965 0.999391
    outer loop
      vertex 379.712 4.65223 15.0605
      vertex 379.712 2.47855 14.9846
      vertex 382.541 3.64941 15.0255
    endloop
  endfacet
  facet normal 3.63667e-05 -0.0348965 0.999391
    outer loop
      vertex 378.422 5.18643 15.0792
      vertex 379.712 2.47855 14.9846
      vertex 379.712 4.65223 15.0605
    endloop
  endfacet
  facet normal -1.79867e-06 -0.0349146 0.99939
    outer loop
      vertex 378.422 5.18643 15.0792
      vertex 376.884 3.64941 15.0255
      vertex 379.712 2.47855 14.9846
    endloop
  endfacet
  facet normal -1.34084e-05 -0.0348764 0.999392
    outer loop
      vertex 376.127 5.47673 15.0893
      vertex 378.422 5.18643 15.0792
      vertex 377.888 6.47612 15.1242
    endloop
  endfacet
  facet normal -2.23256e-05 -0.0349393 0.999389
    outer loop
      vertex 378.422 7.7658 15.1693
      vertex 376.127 7.47551 15.1591
      vertex 377.888 6.47612 15.1242
    endloop
  endfacet
  facet normal 0 -0.0349 0.999391
    outer loop
      vertex 376.127 5.47673 15.0893
      vertex 377.888 6.47612 15.1242
      vertex 376.127 7.47551 15.1591
    endloop
  endfacet
  facet normal -1.63989e-05 -0.0349 0.999391
    outer loop
      vertex 378.422 5.18643 15.0792
      vertex 376.127 5.47673 15.0893
      vertex 376.884 3.64941 15.0255
    endloop
  endfacet
  facet normal 0 -0.0349 0.999391
    outer loop
      vertex 375.712 7.47551 15.1591
      vertex 376.127 5.47673 15.0893
      vertex 376.127 7.47551 15.1591
    endloop
  endfacet
  facet normal 0 -0.0349 0.999391
    outer loop
      vertex 376.127 5.47673 15.0893
      vertex 375.712 7.47551 15.1591
      vertex 375.712 5.47673 15.0893
    endloop
  endfacet
  facet normal -0 -0.999391 -0.0348995
    outer loop
      vertex 376.127 6.00366 0
      vertex 375.712 5.47673 15.0893
      vertex 371.938 6.00366 0
    endloop
  endfacet
  facet normal 0 -0.999391 -0.0348995
    outer loop
      vertex 375.712 5.47673 15.0893
      vertex 376.127 6.00366 0
      vertex 376.127 5.47673 15.0893
    endloop
  endfacet
  facet normal 0 0.999391 0.0348997
    outer loop
      vertex 376.127 8.00488 0
      vertex 375.712 7.47551 15.1591
      vertex 376.127 7.47551 15.1591
    endloop
  endfacet
  facet normal 0 0.999391 0.0348997
    outer loop
      vertex 375.712 7.47551 15.1591
      vertex 376.127 8.00488 0
      vertex 371.92 8.00488 0
    endloop
  endfacet
  facet normal -0.970144 -0.00872597 0.242374
    outer loop
      vertex 371.938 6.00366 0
      vertex 375.712 7.47551 15.1591
      vertex 371.92 8.00488 0
    endloop
  endfacet
  facet normal -0.970152 -0.00846318 0.24235
    outer loop
      vertex 375.712 7.47551 15.1591
      vertex 371.938 6.00366 0
      vertex 375.712 5.47673 15.0893
    endloop
  endfacet
  facet normal 0 0.961087 0.276247
    outer loop
      vertex 380.712 14.861 0
      vertex 378.712 10.4737 15.2638
      vertex 380.712 10.4737 15.2638
    endloop
  endfacet
  facet normal 0 0.961087 0.276247
    outer loop
      vertex 378.712 10.4737 15.2638
      vertex 380.712 14.861 0
      vertex 378.712 14.861 0
    endloop
  endfacet
  facet normal 1 0 0
    outer loop
      vertex 380.712 10.4737 15.2638
      vertex 380.712 10.5922 0
      vertex 380.712 14.861 0
    endloop
  endfacet
  facet normal 1 0 0
    outer loop
      vertex 380.712 10.5922 0
      vertex 380.712 10.4737 15.2638
      vertex 380.712 10.0597 15.2494
    endloop
  endfacet
  facet normal -1 0 0
    outer loop
      vertex 378.712 10.5922 0
      vertex 378.712 10.4737 15.2638
      vertex 378.712 14.861 0
    endloop
  endfacet
  facet normal -1 0 -0
    outer loop
      vertex 378.712 10.4737 15.2638
      vertex 378.712 10.5922 0
      vertex 378.712 10.0597 15.2494
    endloop
  endfacet
  facet normal 0.38289 0.923231 0.032251
    outer loop
      vertex 378.422 143.692 -2
      vertex 379.712 142.393 19.8706
      vertex 379.712 143.157 -2
    endloop
  endfacet
  facet normal 0.382676 0.923319 0.0322688
    outer loop
      vertex 379.712 142.393 19.8706
      vertex 378.422 143.692 -2
      vertex 378.422 142.927 19.8892
    endloop
  endfacet
  facet normal -0.382423 -0.923425 -0.032239
    outer loop
      vertex 379.712 146.809 -2
      vertex 381.003 145.507 19.9793
      vertex 379.712 146.041 19.9979
    endloop
  endfacet
  facet normal -0.382638 -0.923337 -0.0322212
    outer loop
      vertex 381.003 145.507 19.9793
      vertex 379.712 146.809 -2
      vertex 381.003 146.274 -2
    endloop
  endfacet
  facet normal -0.923734 -0.382802 -0.0133584
    outer loop
      vertex 381.538 144.983 -2
      vertex 381.003 145.507 19.9793
      vertex 381.003 146.274 -2
    endloop
  endfacet
  facet normal -0.923794 -0.382657 -0.0133634
    outer loop
      vertex 381.003 145.507 19.9793
      vertex 381.538 144.983 -2
      vertex 381.538 144.217 19.9342
    endloop
  endfacet
  facet normal 0.382891 -0.923232 -0.0322175
    outer loop
      vertex 379.712 146.809 -2
      vertex 378.422 145.507 19.9793
      vertex 378.422 146.274 -2
    endloop
  endfacet
  facet normal 0.382676 -0.92332 -0.0322353
    outer loop
      vertex 378.422 145.507 19.9793
      vertex 379.712 146.809 -2
      vertex 379.712 146.041 19.9979
    endloop
  endfacet
  facet normal -0.382423 0.923423 0.0322725
    outer loop
      vertex 381.003 143.692 -2
      vertex 379.712 142.393 19.8706
      vertex 381.003 142.927 19.8892
    endloop
  endfacet
  facet normal -0.382637 0.923336 0.0322546
    outer loop
      vertex 379.712 142.393 19.8706
      vertex 381.003 143.692 -2
      vertex 379.712 143.157 -2
    endloop
  endfacet
  facet normal -0.923734 0.382802 0.0133685
    outer loop
      vertex 381.003 143.692 -2
      vertex 381.538 144.217 19.9342
      vertex 381.538 144.983 -2
    endloop
  endfacet
  facet normal -0.923794 0.382657 0.0133734
    outer loop
      vertex 381.538 144.217 19.9342
      vertex 381.003 143.692 -2
      vertex 381.003 142.927 19.8892
    endloop
  endfacet
  facet normal 0.923987 0.382191 0.0133471
    outer loop
      vertex 377.888 144.217 19.9342
      vertex 378.422 143.692 -2
      vertex 377.888 144.983 -2
    endloop
  endfacet
  facet normal 0.924047 0.382047 0.013352
    outer loop
      vertex 378.422 143.692 -2
      vertex 377.888 144.217 19.9342
      vertex 378.422 142.927 19.8892
    endloop
  endfacet
  facet normal 0.923987 -0.382191 -0.0133371
    outer loop
      vertex 378.422 145.507 19.9793
      vertex 377.888 144.983 -2
      vertex 378.422 146.274 -2
    endloop
  endfacet
  facet normal 0.924047 -0.382046 -0.0133421
    outer loop
      vertex 377.888 144.983 -2
      vertex 378.422 145.507 19.9793
      vertex 377.888 144.217 19.9342
    endloop
  endfacet
  facet normal 0.924014 0.382126 0.0133441
    outer loop
      vertex 377.888 6.47612 15.1242
      vertex 378.422 5.78285 -2
      vertex 377.888 7.07411 -2
    endloop
  endfacet
  facet normal 0.924014 0.382125 0.0133441
    outer loop
      vertex 378.422 5.78285 -2
      vertex 377.888 6.47612 15.1242
      vertex 378.422 5.18643 15.0792
    endloop
  endfacet
  facet normal -0.382545 -0.923374 -0.0322452
    outer loop
      vertex 379.712 8.90022 -2
      vertex 381.003 7.7658 15.1693
      vertex 379.712 8.3 15.1879
    endloop
  endfacet
  facet normal -0.382552 -0.923371 -0.0322446
    outer loop
      vertex 381.003 7.7658 15.1693
      vertex 379.712 8.90022 -2
      vertex 381.003 8.36536 -2
    endloop
  endfacet
  facet normal -0.92376 -0.382739 -0.0133654
    outer loop
      vertex 381.538 7.07411 -2
      vertex 381.003 7.7658 15.1693
      vertex 381.003 8.36536 -2
    endloop
  endfacet
  facet normal -0.92376 -0.382738 -0.0133655
    outer loop
      vertex 381.003 7.7658 15.1693
      vertex 381.538 7.07411 -2
      vertex 381.538 6.47612 15.1242
    endloop
  endfacet
  facet normal 0.382799 0.923269 0.0322415
    outer loop
      vertex 378.422 5.78285 -2
      vertex 379.712 4.65223 15.0605
      vertex 379.712 5.248 -2
    endloop
  endfacet
  facet normal 0.382801 0.923268 0.0322413
    outer loop
      vertex 379.712 4.65223 15.0605
      vertex 378.422 5.78285 -2
      vertex 378.422 5.18643 15.0792
    endloop
  endfacet
  facet normal -0.382548 0.923373 0.032245
    outer loop
      vertex 381.003 5.78285 -2
      vertex 379.712 4.65223 15.0605
      vertex 381.003 5.18643 15.0792
    endloop
  endfacet
  facet normal -0.382546 0.923374 0.0322451
    outer loop
      vertex 379.712 4.65223 15.0605
      vertex 381.003 5.78285 -2
      vertex 379.712 5.248 -2
    endloop
  endfacet
  facet normal -0.923761 0.382736 0.0133654
    outer loop
      vertex 381.003 5.78285 -2
      vertex 381.538 6.47612 15.1242
      vertex 381.538 7.07411 -2
    endloop
  endfacet
  facet normal -0.923761 0.382736 0.0133655
    outer loop
      vertex 381.538 6.47612 15.1242
      vertex 381.003 5.78285 -2
      vertex 381.003 5.18643 15.0792
    endloop
  endfacet
  facet normal 0.924013 -0.382128 -0.0133441
    outer loop
      vertex 378.422 7.7658 15.1693
      vertex 377.888 7.07411 -2
      vertex 378.422 8.36536 -2
    endloop
  endfacet
  facet normal 0.924014 -0.382127 -0.0133442
    outer loop
      vertex 377.888 7.07411 -2
      vertex 378.422 7.7658 15.1693
      vertex 377.888 6.47612 15.1242
    endloop
  endfacet
  facet normal 0.382805 -0.923266 -0.0322409
    outer loop
      vertex 379.712 8.90022 -2
      vertex 378.422 7.7658 15.1693
      vertex 378.422 8.36536 -2
    endloop
  endfacet
  facet normal 0.382798 -0.923269 -0.0322416
    outer loop
      vertex 378.422 7.7658 15.1693
      vertex 379.712 8.90022 -2
      vertex 379.712 8.3 15.1879
    endloop
  endfacet
  facet normal 0 0 -1
    outer loop
      vertex 381.003 143.692 -2
      vertex 386.712 146.984 -2
      vertex 381.003 8.36536 -2
    endloop
  endfacet
  facet normal 0 0 -1
    outer loop
      vertex 386.712 146.984 -2
      vertex 381.003 143.692 -2
      vertex 381.538 144.983 -2
    endloop
  endfacet
  facet normal 0 0 -1
    outer loop
      vertex 379.712 8.90022 -2
      vertex 381.003 143.692 -2
      vertex 381.003 8.36536 -2
    endloop
  endfacet
  facet normal 0 0 -1
    outer loop
      vertex 379.712 8.90022 -2
      vertex 379.712 143.157 -2
      vertex 381.003 143.692 -2
    endloop
  endfacet
  facet normal 0 0 -1
    outer loop
      vertex 378.422 8.36536 -2
      vertex 379.712 143.157 -2
      vertex 379.712 8.90022 -2
    endloop
  endfacet
  facet normal 0 0 -1
    outer loop
      vertex 378.422 8.36536 -2
      vertex 378.422 143.692 -2
      vertex 379.712 143.157 -2
    endloop
  endfacet
  facet normal 0 0 -1
    outer loop
      vertex 214.356 0.0698424 -2
      vertex 378.422 8.36536 -2
      vertex 377.888 7.07411 -2
    endloop
  endfacet
  facet normal -0 0 -1
    outer loop
      vertex 378.422 8.36536 -2
      vertex 214.356 0.0698424 -2
      vertex 378.422 143.692 -2
    endloop
  endfacet
  facet normal 0 0 -1
    outer loop
      vertex 381.003 8.36536 -2
      vertex 386.712 146.984 -2
      vertex 386.712 5.07289 -2
    endloop
  endfacet
  facet normal 0 0 -1
    outer loop
      vertex 381.003 5.78285 -2
      vertex 386.712 5.07289 -2
      vertex 385.248 1.5352 -2
    endloop
  endfacet
  facet normal 0 0 -1
    outer loop
      vertex 381.003 8.36536 -2
      vertex 386.712 5.07289 -2
      vertex 381.538 7.07411 -2
    endloop
  endfacet
  facet normal 0 0 -1
    outer loop
      vertex 381.003 5.78285 -2
      vertex 385.248 1.5352 -2
      vertex 384.332 1.15555 -2
    endloop
  endfacet
  facet normal 0 0 -1
    outer loop
      vertex 381.003 146.274 -2
      vertex 386.712 146.984 -2
      vertex 381.538 144.983 -2
    endloop
  endfacet
  facet normal 0 0 -1
    outer loop
      vertex 381.003 5.78285 -2
      vertex 384.332 1.15555 -2
      vertex 381.712 0.0698424 -2
    endloop
  endfacet
  facet normal -0 0 -1
    outer loop
      vertex 386.712 146.984 -2
      vertex 381.003 146.274 -2
      vertex 385.738 149.339 -2
    endloop
  endfacet
  facet normal 0 -0 -1
    outer loop
      vertex 384.062 151.013 -2
      vertex 385.738 149.339 -2
      vertex 381.003 146.274 -2
    endloop
  endfacet
  facet normal 0 0 -1
    outer loop
      vertex 386.712 5.07289 -2
      vertex 381.003 5.78285 -2
      vertex 381.538 7.07411 -2
    endloop
  endfacet
  facet normal 0 0 -1
    outer loop
      vertex 381.712 0.0698424 -2
      vertex 379.712 5.248 -2
      vertex 381.003 5.78285 -2
    endloop
  endfacet
  facet normal 0 0 -1
    outer loop
      vertex 381.712 0.0698424 -2
      vertex 378.422 5.78285 -2
      vertex 379.712 5.248 -2
    endloop
  endfacet
  facet normal 0 0 -1
    outer loop
      vertex 214.356 151.987 -2
      vertex 378.422 143.692 -2
      vertex 214.356 0.0698424 -2
    endloop
  endfacet
  facet normal -0 0 -1
    outer loop
      vertex 378.422 5.78285 -2
      vertex 214.356 0.0698424 -2
      vertex 377.888 7.07411 -2
    endloop
  endfacet
  facet normal 0 0 -1
    outer loop
      vertex 214.356 0.0698424 -2
      vertex 378.422 5.78285 -2
      vertex 381.712 0.0698424 -2
    endloop
  endfacet
  facet normal 0 0 -1
    outer loop
      vertex 385.738 149.339 -2
      vertex 384.062 151.013 -2
      vertex 385.248 150.522 -2
    endloop
  endfacet
  facet normal -0 0 -1
    outer loop
      vertex 384.062 151.013 -2
      vertex 381.003 146.274 -2
      vertex 381.712 151.987 -2
    endloop
  endfacet
  facet normal 0 0 -1
    outer loop
      vertex 379.712 146.809 -2
      vertex 381.712 151.987 -2
      vertex 381.003 146.274 -2
    endloop
  endfacet
  facet normal 0 0 -1
    outer loop
      vertex 378.422 146.274 -2
      vertex 381.712 151.987 -2
      vertex 379.712 146.809 -2
    endloop
  endfacet
  facet normal 0 0 -1
    outer loop
      vertex 378.422 143.692 -2
      vertex 214.356 151.987 -2
      vertex 377.888 144.983 -2
    endloop
  endfacet
  facet normal 0 0 -1
    outer loop
      vertex 377.888 144.983 -2
      vertex 214.356 151.987 -2
      vertex 378.422 146.274 -2
    endloop
  endfacet
  facet normal 0 0 -1
    outer loop
      vertex 378.422 146.274 -2
      vertex 214.356 151.987 -2
      vertex 381.712 151.987 -2
    endloop
  endfacet
  facet normal 0 0 1
    outer loop
      vertex 376.884 142.083 0
      vertex 378.712 135.999 0
      vertex 378.712 141.325 0
    endloop
  endfacet
  facet normal 0 0 1
    outer loop
      vertex 378.712 135.999 0
      vertex 370.735 143.913 0
      vertex 378.712 14.861 0
    endloop
  endfacet
  facet normal 0 0 1
    outer loop
      vertex 378.712 135.999 0
      vertex 376.884 142.083 0
      vertex 370.735 143.913 0
    endloop
  endfacet
  facet normal 0 -0 1
    outer loop
      vertex 371.92 8.00488 0
      vertex 378.712 14.861 0
      vertex 370.735 143.913 0
    endloop
  endfacet
  facet normal -0 0 1
    outer loop
      vertex 370.735 143.913 0
      vertex 376.884 142.083 0
      vertex 376.127 143.913 0
    endloop
  endfacet
  facet normal 0 0 1
    outer loop
      vertex 378.712 14.861 0
      vertex 376.884 9.83442 0
      vertex 378.712 10.5922 0
    endloop
  endfacet
  facet normal 0 0 1
    outer loop
      vertex 376.884 9.83442 0
      vertex 371.92 8.00488 0
      vertex 376.127 8.00488 0
    endloop
  endfacet
  facet normal 0 0 1
    outer loop
      vertex 378.712 14.861 0
      vertex 371.92 8.00488 0
      vertex 376.884 9.83442 0
    endloop
  endfacet
  facet normal -0 0 1
    outer loop
      vertex 378.712 135.999 0
      vertex 380.712 14.861 0
      vertex 380.712 135.999 0
    endloop
  endfacet
  facet normal 0 0 1
    outer loop
      vertex 380.712 14.861 0
      vertex 378.712 135.999 0
      vertex 378.712 14.861 0
    endloop
  endfacet
  facet normal 0 0 1
    outer loop
      vertex 386.712 146.914 0
      vertex 380.712 135.999 0
      vertex 386.712 5.00305 0
    endloop
  endfacet
  facet normal -0 0 1
    outer loop
      vertex 380.712 14.861 0
      vertex 386.712 5.00305 0
      vertex 380.712 135.999 0
    endloop
  endfacet
  facet normal 0 0 1
    outer loop
      vertex 380.712 135.999 0
      vertex 382.541 142.083 0
      vertex 380.712 141.325 0
    endloop
  endfacet
  facet normal -0 -0 1
    outer loop
      vertex 382.541 9.83442 0
      vertex 386.712 5.00305 0
      vertex 380.712 14.861 0
    endloop
  endfacet
  facet normal 0 0 1
    outer loop
      vertex 386.712 5.00305 0
      vertex 382.541 9.83442 0
      vertex 383.712 7.00427 0
    endloop
  endfacet
  facet normal 0 0 1
    outer loop
      vertex 382.541 9.83442 0
      vertex 380.712 14.861 0
      vertex 380.712 10.5922 0
    endloop
  endfacet
  facet normal 0 0 1
    outer loop
      vertex 386.712 146.914 0
      vertex 382.541 147.743 0
      vertex 383.712 144.913 0
    endloop
  endfacet
  facet normal 0 0 1
    outer loop
      vertex 381.712 151.918 0
      vertex 382.541 147.743 0
      vertex 384.166 150.901 0
    endloop
  endfacet
  facet normal 0 0 1
    outer loop
      vertex 381.712 151.918 0
      vertex 379.712 148.916 0
      vertex 382.541 147.743 0
    endloop
  endfacet
  facet normal 0 0 1
    outer loop
      vertex 381.712 151.918 0
      vertex 376.884 147.743 0
      vertex 379.712 148.916 0
    endloop
  endfacet
  facet normal 0 0 1
    outer loop
      vertex 376.884 147.743 0
      vertex 370.717 145.914 0
      vertex 376.127 145.914 0
    endloop
  endfacet
  facet normal 0 0 1
    outer loop
      vertex 381.712 151.918 0
      vertex 370.717 145.914 0
      vertex 376.884 147.743 0
    endloop
  endfacet
  facet normal 0 -0 1
    outer loop
      vertex 370.717 145.914 0
      vertex 381.712 151.918 0
      vertex 214.356 151.918 0
    endloop
  endfacet
  facet normal -0 0 1
    outer loop
      vertex 382.541 147.743 0
      vertex 386.712 146.914 0
      vertex 385.695 149.372 0
    endloop
  endfacet
  facet normal 0 0 1
    outer loop
      vertex 384.166 150.901 0
      vertex 385.695 149.372 0
      vertex 385.248 150.452 0
    endloop
  endfacet
  facet normal 0 0 1
    outer loop
      vertex 382.541 142.083 0
      vertex 386.712 146.914 0
      vertex 383.712 144.913 0
    endloop
  endfacet
  facet normal 0 0 1
    outer loop
      vertex 382.541 4.17412 0
      vertex 386.712 5.00305 0
      vertex 383.712 7.00427 0
    endloop
  endfacet
  facet normal 0 0 1
    outer loop
      vertex 382.541 147.743 0
      vertex 385.695 149.372 0
      vertex 384.166 150.901 0
    endloop
  endfacet
  facet normal 0 0 1
    outer loop
      vertex 380.712 135.999 0
      vertex 386.712 146.914 0
      vertex 382.541 142.083 0
    endloop
  endfacet
  facet normal 0 0 1
    outer loop
      vertex 386.712 5.00305 0
      vertex 382.541 4.17412 0
      vertex 385.248 1.46536 0
    endloop
  endfacet
  facet normal 0 0 1
    outer loop
      vertex 385.248 1.46536 0
      vertex 382.541 4.17412 0
      vertex 384.435 1.12846 0
    endloop
  endfacet
  facet normal 0 0 1
    outer loop
      vertex 382.541 4.17412 0
      vertex 381.712 8.8961e-07 0
      vertex 384.435 1.12846 0
    endloop
  endfacet
  facet normal -0 0 1
    outer loop
      vertex 379.712 3.00183 0
      vertex 381.712 8.8961e-07 0
      vertex 382.541 4.17412 0
    endloop
  endfacet
  facet normal 0 0 1
    outer loop
      vertex 376.884 4.17412 0
      vertex 381.712 8.8961e-07 0
      vertex 379.712 3.00183 0
    endloop
  endfacet
  facet normal -0 0 1
    outer loop
      vertex 371.938 6.00366 0
      vertex 376.884 4.17412 0
      vertex 376.127 6.00366 0
    endloop
  endfacet
  facet normal 0 0 1
    outer loop
      vertex 371.938 6.00366 0
      vertex 381.712 8.8961e-07 0
      vertex 376.884 4.17412 0
    endloop
  endfacet
  facet normal 0 0 1
    outer loop
      vertex 214.356 8.8961e-07 0
      vertex 371.92 8.00488 0
      vertex 370.735 143.913 0
    endloop
  endfacet
  facet normal 0 0 1
    outer loop
      vertex 214.356 151.918 0
      vertex 370.735 143.913 0
      vertex 370.717 145.914 0
    endloop
  endfacet
  facet normal 0 0 1
    outer loop
      vertex 214.356 8.8961e-07 0
      vertex 370.735 143.913 0
      vertex 214.356 151.918 0
    endloop
  endfacet
  facet normal 0 0 1
    outer loop
      vertex 371.938 6.00366 0
      vertex 214.356 8.8961e-07 0
      vertex 381.712 8.8961e-07 0
    endloop
  endfacet
  facet normal 0 0 1
    outer loop
      vertex 371.92 8.00488 0
      vertex 214.356 8.8961e-07 0
      vertex 371.938 6.00366 0
    endloop
  endfacet
  facet normal 0.382657 0.923343 0.031809
    outer loop
      vertex 384.062 151.013 -2
      vertex 381.712 151.918 0
      vertex 384.166 150.901 0
    endloop
  endfacet
  facet normal 0.38269 0.923328 0.0318548
    outer loop
      vertex 381.712 151.918 0
      vertex 384.062 151.013 -2
      vertex 381.712 151.987 -2
    endloop
  endfacet
  facet normal 0.382683 -0.923318 -0.0322145
    outer loop
      vertex 385.248 1.5352 -2
      vertex 384.435 1.12846 0
      vertex 384.332 1.15555 -2
    endloop
  endfacet
  facet normal 0.382624 -0.923341 -0.0322431
    outer loop
      vertex 384.435 1.12846 0
      vertex 385.248 1.5352 -2
      vertex 385.248 1.46536 0
    endloop
  endfacet
  facet normal 0.382625 -0.923341 -0.0322438
    outer loop
      vertex 384.332 1.15555 -2
      vertex 381.712 8.8961e-07 0
      vertex 381.712 0.0698424 -2
    endloop
  endfacet
  facet normal 0.382646 -0.923333 -0.0322128
    outer loop
      vertex 381.712 8.8961e-07 0
      vertex 384.332 1.15555 -2
      vertex 384.435 1.12846 0
    endloop
  endfacet
  facet normal 0.923999 0.382155 0.0135604
    outer loop
      vertex 385.695 149.372 0
      vertex 386.712 146.984 -2
      vertex 385.738 149.339 -2
    endloop
  endfacet
  facet normal 0.923948 0.382284 0.01338
    outer loop
      vertex 386.712 146.984 -2
      vertex 385.695 149.372 0
      vertex 386.712 146.914 0
    endloop
  endfacet
  facet normal 0.923923 -0.382346 -0.0133515
    outer loop
      vertex 386.712 5.00305 0
      vertex 385.248 1.5352 -2
      vertex 386.712 5.07289 -2
    endloop
  endfacet
  facet normal 0.923923 -0.382346 -0.0133515
    outer loop
      vertex 385.248 1.5352 -2
      vertex 386.712 5.00305 0
      vertex 385.248 1.46536 0
    endloop
  endfacet
  facet normal 1 0 0
    outer loop
      vertex 386.712 146.914 0
      vertex 386.712 5.07289 -2
      vertex 386.712 146.984 -2
    endloop
  endfacet
  facet normal 1 0 -0
    outer loop
      vertex 386.712 5.07289 -2
      vertex 386.712 146.914 0
      vertex 386.712 5.00305 0
    endloop
  endfacet
  facet normal 0 0.999405 0.0344795
    outer loop
      vertex 381.712 151.987 -2
      vertex 214.356 151.918 0
      vertex 381.712 151.918 0
    endloop
  endfacet
  facet normal 0 0.999405 0.0344795
    outer loop
      vertex 214.356 151.918 0
      vertex 381.712 151.987 -2
      vertex 214.356 151.987 -2
    endloop
  endfacet
  facet normal 0.923901 0.382392 0.0135544
    outer loop
      vertex 385.738 149.339 -2
      vertex 385.248 150.452 0
      vertex 385.695 149.372 0
    endloop
  endfacet
  facet normal 0.923801 0.382639 0.0133924
    outer loop
      vertex 385.248 150.452 0
      vertex 385.738 149.339 -2
      vertex 385.248 150.522 -2
    endloop
  endfacet
  facet normal 0.383081 0.923149 0.0323102
    outer loop
      vertex 385.248 150.522 -2
      vertex 384.166 150.901 0
      vertex 385.248 150.452 0
    endloop
  endfacet
  facet normal 0.382318 0.923482 0.0318344
    outer loop
      vertex 384.166 150.901 0
      vertex 385.248 150.522 -2
      vertex 384.062 151.013 -2
    endloop
  endfacet
  facet normal 0 -0.999391 -0.0348995
    outer loop
      vertex 214.356 0.0698424 -2
      vertex 381.712 8.8961e-07 0
      vertex 214.356 8.8961e-07 0
    endloop
  endfacet
  facet normal 0 -0.999391 -0.0348995
    outer loop
      vertex 381.712 8.8961e-07 0
      vertex 214.356 0.0698424 -2
      vertex 381.712 0.0698424 -2
    endloop
  endfacet
  facet normal -1 0 0
    outer loop
      vertex 214.356 0.0698424 -2
      vertex 214.356 151.918 0
      vertex 214.356 151.987 -2
    endloop
  endfacet
  facet normal -1 -0 0
    outer loop
      vertex 214.356 151.918 0
      vertex 214.356 0.0698424 -2
      vertex 214.356 8.8961e-07 0
    endloop
  endfacet
endsolid OpenSCAD_Model
