solid OpenSCAD_Model
  facet normal -0.92388 -0.38245 -0.0133555
    outer loop
      vertex 4.17157 4.17412 0
      vertex 3 6.47612 15.1242
      vertex 3 7.00427 0
    endloop
  endfacet
  facet normal -0.92388 -0.382449 -0.0133556
    outer loop
      vertex 3 6.47612 15.1242
      vertex 4.17157 4.17412 0
      vertex 4.17157 3.64941 15.0255
    endloop
  endfacet
  facet normal 0.382665 0.923324 0.0322435
    outer loop
      vertex 8 10.5922 0
      vertex 9.82843 9.30282 15.2229
      vertex 9.82843 9.83442 0
    endloop
  endfacet
  facet normal 0.382676 0.92332 0.0322418
    outer loop
      vertex 9.82843 9.30282 15.2229
      vertex 8 10.5922 0
      vertex 8 10.0597 15.2494
    endloop
  endfacet
  facet normal 0.923878 0.382455 0.0133557
    outer loop
      vertex 9.82843 9.30282 15.2229
      vertex 10.5858 8.00488 0
      vertex 9.82843 9.83442 0
    endloop
  endfacet
  facet normal 0.923877 0.382456 0.0133557
    outer loop
      vertex 10.5858 8.00488 0
      vertex 9.82843 9.30282 15.2229
      vertex 10.5858 7.47551 15.1591
    endloop
  endfacet
  facet normal 0.923878 -0.382455 -0.0133556
    outer loop
      vertex 10.5858 5.47673 15.0893
      vertex 9.82843 4.17412 0
      vertex 10.5858 6.00366 0
    endloop
  endfacet
  facet normal 0.923878 -0.382454 -0.0133558
    outer loop
      vertex 9.82843 4.17412 0
      vertex 10.5858 5.47673 15.0893
      vertex 9.82843 3.64941 15.0255
    endloop
  endfacet
  facet normal -0.382683 -0.923317 -0.0322434
    outer loop
      vertex 4.17157 4.17412 0
      vertex 7 2.47855 14.9846
      vertex 4.17157 3.64941 15.0255
    endloop
  endfacet
  facet normal -0.382684 -0.923317 -0.0322433
    outer loop
      vertex 7 2.47855 14.9846
      vertex 4.17157 4.17412 0
      vertex 7 3.00183 0
    endloop
  endfacet
  facet normal -0.382676 0.92332 0.0322418
    outer loop
      vertex 6 10.5922 0
      vertex 4.17157 9.30282 15.2229
      vertex 6 10.0597 15.2494
    endloop
  endfacet
  facet normal -0.382665 0.923324 0.0322435
    outer loop
      vertex 4.17157 9.30282 15.2229
      vertex 6 10.5922 0
      vertex 4.17157 9.83442 0
    endloop
  endfacet
  facet normal -0.92388 0.38245 0.0133556
    outer loop
      vertex 3 7.00427 0
      vertex 4.17157 9.30282 15.2229
      vertex 4.17157 9.83442 0
    endloop
  endfacet
  facet normal -0.92388 0.38245 0.0133555
    outer loop
      vertex 4.17157 9.30282 15.2229
      vertex 3 7.00427 0
      vertex 3 6.47612 15.1242
    endloop
  endfacet
  facet normal 0.382684 -0.923317 -0.0322433
    outer loop
      vertex 9.82843 4.17412 0
      vertex 7 2.47855 14.9846
      vertex 7 3.00183 0
    endloop
  endfacet
  facet normal 0.382683 -0.923317 -0.0322434
    outer loop
      vertex 7 2.47855 14.9846
      vertex 9.82843 4.17412 0
      vertex 9.82843 3.64941 15.0255
    endloop
  endfacet
  facet normal 0 -0.0347616 0.999396
    outer loop
      vertex 6 10.0597 15.2494
      vertex 8 10.0597 15.2494
      vertex 8 10.4737 15.2638
    endloop
  endfacet
  facet normal 0 -0.0347616 0.999396
    outer loop
      vertex 6 10.0597 15.2494
      vertex 8 10.4737 15.2638
      vertex 6 10.4737 15.2638
    endloop
  endfacet
  facet normal 0 -0.0349278 0.99939
    outer loop
      vertex 8 10.0597 15.2494
      vertex 6 10.0597 15.2494
      vertex 7 8.3 15.1879
    endloop
  endfacet
  facet normal 4.37802e-05 -0.034903 0.999391
    outer loop
      vertex 6 10.0597 15.2494
      vertex 5.70953 7.7658 15.1693
      vertex 7 8.3 15.1879
    endloop
  endfacet
  facet normal -4.08021e-05 -0.0348923 0.999391
    outer loop
      vertex 4.17157 9.30282 15.2229
      vertex 5.70953 7.7658 15.1693
      vertex 6 10.0597 15.2494
    endloop
  endfacet
  facet normal -6.86746e-05 -0.0349201 0.99939
    outer loop
      vertex 5.70953 7.7658 15.1693
      vertex 4.17157 9.30282 15.2229
      vertex 5.175 6.47612 15.1242
    endloop
  endfacet
  facet normal 0 -0.0349 0.999391
    outer loop
      vertex 10.5858 7.47551 15.1591
      vertex 11 5.47673 15.0893
      vertex 11 7.47551 15.1591
    endloop
  endfacet
  facet normal 0 -0.0349 0.999391
    outer loop
      vertex 10.5858 7.47551 15.1591
      vertex 10.5858 5.47673 15.0893
      vertex 11 5.47673 15.0893
    endloop
  endfacet
  facet normal 2.96869e-05 -0.0348812 0.999391
    outer loop
      vertex 8.29047 7.7658 15.1693
      vertex 10.5858 7.47551 15.1591
      vertex 9.82843 9.30282 15.2229
    endloop
  endfacet
  facet normal 0 -0.0349 0.999391
    outer loop
      vertex 10.5858 7.47551 15.1591
      vertex 8.825 6.47612 15.1242
      vertex 10.5858 5.47673 15.0893
    endloop
  endfacet
  facet normal 1.34071e-05 -0.0348764 0.999392
    outer loop
      vertex 8.29047 5.18643 15.0792
      vertex 10.5858 5.47673 15.0893
      vertex 8.825 6.47612 15.1242
    endloop
  endfacet
  facet normal 2.23234e-05 -0.0349393 0.999389
    outer loop
      vertex 10.5858 7.47551 15.1591
      vertex 8.29047 7.7658 15.1693
      vertex 8.825 6.47612 15.1242
    endloop
  endfacet
  facet normal 4.08021e-05 -0.0348923 0.999391
    outer loop
      vertex 8 10.0597 15.2494
      vertex 8.29047 7.7658 15.1693
      vertex 9.82843 9.30282 15.2229
    endloop
  endfacet
  facet normal -4.37802e-05 -0.034903 0.999391
    outer loop
      vertex 8.29047 7.7658 15.1693
      vertex 8 10.0597 15.2494
      vertex 7 8.3 15.1879
    endloop
  endfacet
  facet normal 1.63969e-05 -0.0349 0.999391
    outer loop
      vertex 10.5858 5.47673 15.0893
      vertex 8.29047 5.18643 15.0792
      vertex 9.82843 3.64941 15.0255
    endloop
  endfacet
  facet normal -1.9857e-05 -0.0349363 0.99939
    outer loop
      vertex 7 4.65223 15.0605
      vertex 9.82843 3.64941 15.0255
      vertex 8.29047 5.18643 15.0792
    endloop
  endfacet
  facet normal -5.72803e-06 -0.0348965 0.999391
    outer loop
      vertex 7 4.65223 15.0605
      vertex 7 2.47855 14.9846
      vertex 9.82843 3.64941 15.0255
    endloop
  endfacet
  facet normal 3.63534e-05 -0.0348965 0.999391
    outer loop
      vertex 5.70953 5.18643 15.0792
      vertex 7 2.47855 14.9846
      vertex 7 4.65223 15.0605
    endloop
  endfacet
  facet normal -1.79849e-06 -0.0349146 0.99939
    outer loop
      vertex 5.70953 5.18643 15.0792
      vertex 4.17157 3.64941 15.0255
      vertex 7 2.47855 14.9846
    endloop
  endfacet
  facet normal -3.22266e-05 -0.0348842 0.999391
    outer loop
      vertex 5.175 6.47612 15.1242
      vertex 4.17157 3.64941 15.0255
      vertex 5.70953 5.18643 15.0792
    endloop
  endfacet
  facet normal 0 -0.0348958 0.999391
    outer loop
      vertex 3 6.47612 15.1242
      vertex 5.175 6.47612 15.1242
      vertex 4.17157 9.30282 15.2229
    endloop
  endfacet
  facet normal 0 -0.0348957 0.999391
    outer loop
      vertex 5.175 6.47612 15.1242
      vertex 3 6.47612 15.1242
      vertex 4.17157 3.64941 15.0255
    endloop
  endfacet
  facet normal 0.970142 -0.00848357 0.242388
    outer loop
      vertex 11 7.47551 15.1591
      vertex 14.7746 6.00366 0
      vertex 14.7921 8.00488 0
    endloop
  endfacet
  facet normal 0.970143 -0.00846445 0.242386
    outer loop
      vertex 14.7746 6.00366 0
      vertex 11 7.47551 15.1591
      vertex 11 5.47673 15.0893
    endloop
  endfacet
  facet normal 0 -0.999391 -0.0348995
    outer loop
      vertex 10.5858 6.00366 0
      vertex 11 5.47673 15.0893
      vertex 10.5858 5.47673 15.0893
    endloop
  endfacet
  facet normal 0 -0.999391 -0.0348995
    outer loop
      vertex 11 5.47673 15.0893
      vertex 10.5858 6.00366 0
      vertex 14.7746 6.00366 0
    endloop
  endfacet
  facet normal -0 0.999391 0.0348997
    outer loop
      vertex 10.5858 8.00488 0
      vertex 11 7.47551 15.1591
      vertex 14.7921 8.00488 0
    endloop
  endfacet
  facet normal 0 0.999391 0.0348997
    outer loop
      vertex 11 7.47551 15.1591
      vertex 10.5858 8.00488 0
      vertex 10.5858 7.47551 15.1591
    endloop
  endfacet
  facet normal 1 0 0
    outer loop
      vertex 8 10.4737 15.2638
      vertex 8 10.5922 0
      vertex 8 14.861 0
    endloop
  endfacet
  facet normal 1 0 0
    outer loop
      vertex 8 10.5922 0
      vertex 8 10.4737 15.2638
      vertex 8 10.0597 15.2494
    endloop
  endfacet
  facet normal -1 0 0
    outer loop
      vertex 6 10.5922 0
      vertex 6 10.4737 15.2638
      vertex 6 14.861 0
    endloop
  endfacet
  facet normal -1 0 -0
    outer loop
      vertex 6 10.4737 15.2638
      vertex 6 10.5922 0
      vertex 6 10.0597 15.2494
    endloop
  endfacet
  facet normal 0 0.961087 0.276247
    outer loop
      vertex 8 14.861 0
      vertex 6 10.4737 15.2638
      vertex 8 10.4737 15.2638
    endloop
  endfacet
  facet normal 0 0.961087 0.276247
    outer loop
      vertex 6 10.4737 15.2638
      vertex 8 14.861 0
      vertex 6 14.861 0
    endloop
  endfacet
  facet normal -0.923873 -0.382467 -0.0133538
    outer loop
      vertex 4.17157 142.083 0
      vertex 3 144.217 19.9342
      vertex 3 144.913 0
    endloop
  endfacet
  facet normal -0.923894 -0.382415 -0.0133606
    outer loop
      vertex 3 144.217 19.9342
      vertex 4.17157 142.083 0
      vertex 4.17157 141.39 19.8355
    endloop
  endfacet
  facet normal 0.382882 0.923235 0.0322139
    outer loop
      vertex 7 148.916 0
      vertex 9.82843 147.044 20.033
      vertex 9.82843 147.743 0
    endloop
  endfacet
  facet normal 0.382721 0.923301 0.0322427
    outer loop
      vertex 9.82843 147.044 20.033
      vertex 7 148.916 0
      vertex 7 148.215 20.0738
    endloop
  endfacet
  facet normal 0.923838 0.382552 0.0133482
    outer loop
      vertex 9.82843 147.044 20.033
      vertex 10.5858 145.914 0
      vertex 9.82843 147.743 0
    endloop
  endfacet
  facet normal 0.923855 0.38251 0.0133511
    outer loop
      vertex 10.5858 145.914 0
      vertex 9.82843 147.044 20.033
      vertex 10.5858 145.217 19.9691
    endloop
  endfacet
  facet normal 0.923911 -0.382373 -0.0133547
    outer loop
      vertex 10.5858 143.218 19.8993
      vertex 9.82843 142.083 0
      vertex 10.5858 143.913 0
    endloop
  endfacet
  facet normal 0.923928 -0.382332 -0.0133577
    outer loop
      vertex 9.82843 142.083 0
      vertex 10.5858 143.218 19.8993
      vertex 9.82843 141.39 19.8355
    endloop
  endfacet
  facet normal -0.382295 -0.923477 -0.0322638
    outer loop
      vertex 4.17157 142.083 0
      vertex 6 140.634 19.8091
      vertex 4.17157 141.39 19.8355
    endloop
  endfacet
  facet normal -0.382761 -0.923286 -0.0322069
    outer loop
      vertex 6 140.634 19.8091
      vertex 4.17157 142.083 0
      vertex 6 141.325 0
    endloop
  endfacet
  facet normal -0.382721 0.923301 0.0322427
    outer loop
      vertex 7 148.916 0
      vertex 4.17157 147.044 20.033
      vertex 7 148.215 20.0738
    endloop
  endfacet
  facet normal -0.382882 0.923235 0.0322139
    outer loop
      vertex 4.17157 147.044 20.033
      vertex 7 148.916 0
      vertex 4.17157 147.743 0
    endloop
  endfacet
  facet normal -0.923873 0.382467 0.0133452
    outer loop
      vertex 3 144.913 0
      vertex 4.17157 147.044 20.033
      vertex 4.17157 147.743 0
    endloop
  endfacet
  facet normal -0.923894 0.382415 0.013352
    outer loop
      vertex 4.17157 147.044 20.033
      vertex 3 144.913 0
      vertex 3 144.217 19.9342
    endloop
  endfacet
  facet normal 0.382761 -0.923286 -0.0322069
    outer loop
      vertex 9.82843 142.083 0
      vertex 8 140.634 19.8091
      vertex 8 141.325 0
    endloop
  endfacet
  facet normal 0.382295 -0.923477 -0.0322638
    outer loop
      vertex 8 140.634 19.8091
      vertex 9.82843 142.083 0
      vertex 9.82843 141.39 19.8355
    endloop
  endfacet
  facet normal -4.4054e-05 -0.0349167 0.99939
    outer loop
      vertex 5.70953 142.927 19.8892
      vertex 6 140.634 19.8091
      vertex 7 142.393 19.8706
    endloop
  endfacet
  facet normal -3.84718e-05 -0.0348784 0.999392
    outer loop
      vertex 4.17157 141.39 19.8355
      vertex 5.70953 142.927 19.8892
      vertex 5.175 144.217 19.9342
    endloop
  endfacet
  facet normal 0 -0.0349274 0.99939
    outer loop
      vertex 3 144.217 19.9342
      vertex 5.175 144.217 19.9342
      vertex 4.17157 147.044 20.033
    endloop
  endfacet
  facet normal 0 -0.0348921 0.999391
    outer loop
      vertex 4.17157 141.39 19.8355
      vertex 5.175 144.217 19.9342
      vertex 3 144.217 19.9342
    endloop
  endfacet
  facet normal -5.13154e-06 -0.0349118 0.99939
    outer loop
      vertex 5.70953 142.927 19.8892
      vertex 4.17157 141.39 19.8355
      vertex 6 140.634 19.8091
    endloop
  endfacet
  facet normal 0 -0.0348962 0.999391
    outer loop
      vertex 10.5858 145.217 19.9691
      vertex 11 143.218 19.8993
      vertex 11 145.217 19.9691
    endloop
  endfacet
  facet normal 0 -0.0348962 0.999391
    outer loop
      vertex 10.5858 145.217 19.9691
      vertex 10.5858 143.218 19.8993
      vertex 11 143.218 19.8993
    endloop
  endfacet
  facet normal 2.62552e-05 -0.0349431 0.999389
    outer loop
      vertex 8.29047 145.507 19.9793
      vertex 10.5858 145.217 19.9691
      vertex 9.82843 147.044 20.033
    endloop
  endfacet
  facet normal 9.90919e-06 -0.0348962 0.999391
    outer loop
      vertex 10.5858 145.217 19.9691
      vertex 8.825 144.217 19.9342
      vertex 10.5858 143.218 19.8993
    endloop
  endfacet
  facet normal 2.35115e-05 -0.0348722 0.999392
    outer loop
      vertex 8.29047 142.927 19.8892
      vertex 10.5858 143.218 19.8993
      vertex 8.825 144.217 19.9342
    endloop
  endfacet
  facet normal 2.81372e-05 -0.0349282 0.99939
    outer loop
      vertex 10.5858 145.217 19.9691
      vertex 8.29047 145.507 19.9793
      vertex 8.825 144.217 19.9342
    endloop
  endfacet
  facet normal -2.81372e-05 -0.0348888 0.999391
    outer loop
      vertex 7 148.215 20.0738
      vertex 8.29047 145.507 19.9793
      vertex 9.82843 147.044 20.033
    endloop
  endfacet
  facet normal -3.35567e-05 -0.0348913 0.999391
    outer loop
      vertex 7 148.215 20.0738
      vertex 7 146.041 19.9979
      vertex 8.29047 145.507 19.9793
    endloop
  endfacet
  facet normal 3.35567e-05 -0.0348913 0.999391
    outer loop
      vertex 7 148.215 20.0738
      vertex 5.70953 145.507 19.9793
      vertex 7 146.041 19.9979
    endloop
  endfacet
  facet normal -1.62793e-05 -0.0349332 0.99939
    outer loop
      vertex 5.70953 145.507 19.9793
      vertex 4.17157 147.044 20.033
      vertex 5.175 144.217 19.9342
    endloop
  endfacet
  facet normal 2.81372e-05 -0.0348888 0.999391
    outer loop
      vertex 4.17157 147.044 20.033
      vertex 5.70953 145.507 19.9793
      vertex 7 148.215 20.0738
    endloop
  endfacet
  facet normal 2.58931e-05 -0.034891 0.999391
    outer loop
      vertex 10.5858 143.218 19.8993
      vertex 8.29047 142.927 19.8892
      vertex 9.82843 141.39 19.8355
    endloop
  endfacet
  facet normal 5.13154e-06 -0.0349118 0.99939
    outer loop
      vertex 8.29047 142.927 19.8892
      vertex 8 140.634 19.8091
      vertex 9.82843 141.39 19.8355
    endloop
  endfacet
  facet normal 4.4054e-05 -0.0349167 0.99939
    outer loop
      vertex 7 142.393 19.8706
      vertex 8 140.634 19.8091
      vertex 8.29047 142.927 19.8892
    endloop
  endfacet
  facet normal 0 -0.0349417 0.999389
    outer loop
      vertex 6 140.634 19.8091
      vertex 8 140.634 19.8091
      vertex 7 142.393 19.8706
    endloop
  endfacet
  facet normal 0 -0.0347616 0.999396
    outer loop
      vertex 8 140.634 19.8091
      vertex 6 140.634 19.8091
      vertex 8 140.22 19.7947
    endloop
  endfacet
  facet normal 0 -0.0347616 0.999396
    outer loop
      vertex 8 140.22 19.7947
      vertex 6 140.634 19.8091
      vertex 6 140.22 19.7947
    endloop
  endfacet
  facet normal 0.970143 -0.00843602 0.242388
    outer loop
      vertex 11 145.217 19.9691
      vertex 15.9779 143.913 0
      vertex 15.9953 145.914 0
    endloop
  endfacet
  facet normal 0.970142 -0.00846364 0.24239
    outer loop
      vertex 15.9779 143.913 0
      vertex 11 145.217 19.9691
      vertex 11 143.218 19.8993
    endloop
  endfacet
  facet normal 0 -0.999391 -0.0349046
    outer loop
      vertex 10.5858 143.913 0
      vertex 11 143.218 19.8993
      vertex 10.5858 143.218 19.8993
    endloop
  endfacet
  facet normal 0 -0.999391 -0.0349046
    outer loop
      vertex 11 143.218 19.8993
      vertex 10.5858 143.913 0
      vertex 15.9779 143.913 0
    endloop
  endfacet
  facet normal -0 0.999391 0.0348827
    outer loop
      vertex 10.5858 145.914 0
      vertex 11 145.217 19.9691
      vertex 15.9953 145.914 0
    endloop
  endfacet
  facet normal 0 0.999391 0.0348827
    outer loop
      vertex 11 145.217 19.9691
      vertex 10.5858 145.914 0
      vertex 10.5858 145.217 19.9691
    endloop
  endfacet
  facet normal 1 -0 0
    outer loop
      vertex 8 140.22 19.7947
      vertex 8 141.325 0
      vertex 8 140.634 19.8091
    endloop
  endfacet
  facet normal 1 0 0
    outer loop
      vertex 8 141.325 0
      vertex 8 140.22 19.7947
      vertex 8 135.999 0
    endloop
  endfacet
  facet normal -1 0 0
    outer loop
      vertex 6 141.325 0
      vertex 6 140.22 19.7947
      vertex 6 140.634 19.8091
    endloop
  endfacet
  facet normal -1 0 -0
    outer loop
      vertex 6 140.22 19.7947
      vertex 6 141.325 0
      vertex 6 135.999 0
    endloop
  endfacet
  facet normal 0 -0.978012 0.20855
    outer loop
      vertex 6 135.999 0
      vertex 8 140.22 19.7947
      vertex 6 140.22 19.7947
    endloop
  endfacet
  facet normal 0 -0.978012 0.20855
    outer loop
      vertex 8 140.22 19.7947
      vertex 6 135.999 0
      vertex 8 135.999 0
    endloop
  endfacet
  facet normal 0.92388 0.382449 0.0133554
    outer loop
      vertex 5.175 6.47612 15.1242
      vertex 5.70953 5.78285 -2
      vertex 5.175 7.07411 -2
    endloop
  endfacet
  facet normal 0.92388 0.382449 0.0133554
    outer loop
      vertex 5.70953 5.78285 -2
      vertex 5.175 6.47612 15.1242
      vertex 5.70953 5.18643 15.0792
    endloop
  endfacet
  facet normal -0.382679 -0.923318 -0.0322433
    outer loop
      vertex 7 8.90022 -2
      vertex 8.29047 7.7658 15.1693
      vertex 7 8.3 15.1879
    endloop
  endfacet
  facet normal -0.382686 -0.923316 -0.0322426
    outer loop
      vertex 8.29047 7.7658 15.1693
      vertex 7 8.90022 -2
      vertex 8.29047 8.36536 -2
    endloop
  endfacet
  facet normal -0.923879 -0.382452 -0.0133554
    outer loop
      vertex 8.825 7.07411 -2
      vertex 8.29047 7.7658 15.1693
      vertex 8.29047 8.36536 -2
    endloop
  endfacet
  facet normal -0.923879 -0.382451 -0.0133555
    outer loop
      vertex 8.29047 7.7658 15.1693
      vertex 8.825 7.07411 -2
      vertex 8.825 6.47612 15.1242
    endloop
  endfacet
  facet normal -0.92388 0.382449 0.0133554
    outer loop
      vertex 8.29047 5.78285 -2
      vertex 8.825 6.47612 15.1242
      vertex 8.825 7.07411 -2
    endloop
  endfacet
  facet normal -0.92388 0.382449 0.0133554
    outer loop
      vertex 8.825 6.47612 15.1242
      vertex 8.29047 5.78285 -2
      vertex 8.29047 5.18643 15.0792
    endloop
  endfacet
  facet normal 0.38268 0.923318 0.0322432
    outer loop
      vertex 5.70953 5.78285 -2
      vertex 7 4.65223 15.0605
      vertex 7 5.248 -2
    endloop
  endfacet
  facet normal 0.382682 0.923317 0.032243
    outer loop
      vertex 7 4.65223 15.0605
      vertex 5.70953 5.78285 -2
      vertex 5.70953 5.18643 15.0792
    endloop
  endfacet
  facet normal 0.382686 -0.923316 -0.0322426
    outer loop
      vertex 7 8.90022 -2
      vertex 5.70953 7.7658 15.1693
      vertex 5.70953 8.36536 -2
    endloop
  endfacet
  facet normal 0.382679 -0.923318 -0.0322433
    outer loop
      vertex 5.70953 7.7658 15.1693
      vertex 7 8.90022 -2
      vertex 7 8.3 15.1879
    endloop
  endfacet
  facet normal 0.923879 -0.382452 -0.0133554
    outer loop
      vertex 5.70953 7.7658 15.1693
      vertex 5.175 7.07411 -2
      vertex 5.70953 8.36536 -2
    endloop
  endfacet
  facet normal 0.923879 -0.382451 -0.0133555
    outer loop
      vertex 5.175 7.07411 -2
      vertex 5.70953 7.7658 15.1693
      vertex 5.175 6.47612 15.1242
    endloop
  endfacet
  facet normal -0.382682 0.923317 0.032243
    outer loop
      vertex 8.29047 5.78285 -2
      vertex 7 4.65223 15.0605
      vertex 8.29047 5.18643 15.0792
    endloop
  endfacet
  facet normal -0.38268 0.923318 0.0322432
    outer loop
      vertex 7 4.65223 15.0605
      vertex 8.29047 5.78285 -2
      vertex 7 5.248 -2
    endloop
  endfacet
  facet normal 0.382771 0.92328 0.0322527
    outer loop
      vertex 5.70953 143.692 -2
      vertex 7 142.393 19.8706
      vertex 7 143.157 -2
    endloop
  endfacet
  facet normal 0.382557 0.923368 0.0322706
    outer loop
      vertex 7 142.393 19.8706
      vertex 5.70953 143.692 -2
      vertex 5.70953 142.927 19.8892
    endloop
  endfacet
  facet normal -0.382557 -0.923369 -0.0322371
    outer loop
      vertex 7 146.809 -2
      vertex 8.29047 145.507 19.9793
      vertex 7 146.041 19.9979
    endloop
  endfacet
  facet normal -0.382772 -0.923281 -0.0322192
    outer loop
      vertex 8.29047 145.507 19.9793
      vertex 7 146.809 -2
      vertex 8.29047 146.274 -2
    endloop
  endfacet
  facet normal -0.923853 -0.382515 -0.0133484
    outer loop
      vertex 8.825 144.983 -2
      vertex 8.29047 145.507 19.9793
      vertex 8.29047 146.274 -2
    endloop
  endfacet
  facet normal -0.923913 -0.38237 -0.0133534
    outer loop
      vertex 8.29047 145.507 19.9793
      vertex 8.825 144.983 -2
      vertex 8.825 144.217 19.9342
    endloop
  endfacet
  facet normal 0.382772 -0.923281 -0.0322192
    outer loop
      vertex 7 146.809 -2
      vertex 5.70953 145.507 19.9793
      vertex 5.70953 146.274 -2
    endloop
  endfacet
  facet normal 0.382557 -0.923369 -0.0322371
    outer loop
      vertex 5.70953 145.507 19.9793
      vertex 7 146.809 -2
      vertex 7 146.041 19.9979
    endloop
  endfacet
  facet normal -0.382557 0.923368 0.0322706
    outer loop
      vertex 8.29047 143.692 -2
      vertex 7 142.393 19.8706
      vertex 8.29047 142.927 19.8892
    endloop
  endfacet
  facet normal -0.382771 0.92328 0.0322527
    outer loop
      vertex 7 142.393 19.8706
      vertex 8.29047 143.692 -2
      vertex 7 143.157 -2
    endloop
  endfacet
  facet normal -0.923853 0.382515 0.0133584
    outer loop
      vertex 8.29047 143.692 -2
      vertex 8.825 144.217 19.9342
      vertex 8.825 144.983 -2
    endloop
  endfacet
  facet normal -0.923913 0.38237 0.0133634
    outer loop
      vertex 8.825 144.217 19.9342
      vertex 8.29047 143.692 -2
      vertex 8.29047 142.927 19.8892
    endloop
  endfacet
  facet normal 0.923853 0.382515 0.0133584
    outer loop
      vertex 5.175 144.217 19.9342
      vertex 5.70953 143.692 -2
      vertex 5.175 144.983 -2
    endloop
  endfacet
  facet normal 0.923913 0.38237 0.0133634
    outer loop
      vertex 5.70953 143.692 -2
      vertex 5.175 144.217 19.9342
      vertex 5.70953 142.927 19.8892
    endloop
  endfacet
  facet normal 0.923853 -0.382515 -0.0133484
    outer loop
      vertex 5.70953 145.507 19.9793
      vertex 5.175 144.983 -2
      vertex 5.70953 146.274 -2
    endloop
  endfacet
  facet normal 0.923913 -0.38237 -0.0133534
    outer loop
      vertex 5.175 144.983 -2
      vertex 5.70953 145.507 19.9793
      vertex 5.175 144.217 19.9342
    endloop
  endfacet
  facet normal 0 0 -1
    outer loop
      vertex 8.29047 143.692 -2
      vertex 128.904 151.987 -2
      vertex 8.29047 8.36536 -2
    endloop
  endfacet
  facet normal 0 0 -1
    outer loop
      vertex 128.904 151.987 -2
      vertex 8.29047 143.692 -2
      vertex 8.825 144.983 -2
    endloop
  endfacet
  facet normal 0 0 -1
    outer loop
      vertex 7 8.90022 -2
      vertex 8.29047 143.692 -2
      vertex 8.29047 8.36536 -2
    endloop
  endfacet
  facet normal 0 0 -1
    outer loop
      vertex 7 8.90022 -2
      vertex 7 143.157 -2
      vertex 8.29047 143.692 -2
    endloop
  endfacet
  facet normal 0 0 -1
    outer loop
      vertex 5.70953 8.36536 -2
      vertex 7 143.157 -2
      vertex 7 8.90022 -2
    endloop
  endfacet
  facet normal 0 0 -1
    outer loop
      vertex 5.70953 8.36536 -2
      vertex 5.70953 143.692 -2
      vertex 7 143.157 -2
    endloop
  endfacet
  facet normal 0 0 -1
    outer loop
      vertex 0 5.07289 -2
      vertex 5.70953 8.36536 -2
      vertex 5.175 7.07411 -2
    endloop
  endfacet
  facet normal -0 0 -1
    outer loop
      vertex 5.70953 8.36536 -2
      vertex 0 5.07289 -2
      vertex 5.70953 143.692 -2
    endloop
  endfacet
  facet normal 0 0 -1
    outer loop
      vertex 8.29047 8.36536 -2
      vertex 128.904 0.0698424 -2
      vertex 8.825 7.07411 -2
    endloop
  endfacet
  facet normal 0 0 -1
    outer loop
      vertex 128.904 0.0698424 -2
      vertex 8.29047 5.78285 -2
      vertex 8.825 7.07411 -2
    endloop
  endfacet
  facet normal 0 0 -1
    outer loop
      vertex 5 0.0698424 -2
      vertex 8.29047 5.78285 -2
      vertex 128.904 0.0698424 -2
    endloop
  endfacet
  facet normal 0 0 -1
    outer loop
      vertex 1.46447 1.5352 -2
      vertex 5.70953 5.78285 -2
      vertex 2.38045 1.15555 -2
    endloop
  endfacet
  facet normal 0 0 -1
    outer loop
      vertex 2.38045 1.15555 -2
      vertex 5.70953 5.78285 -2
      vertex 5 0.0698424 -2
    endloop
  endfacet
  facet normal -0 0 -1
    outer loop
      vertex 7 5.248 -2
      vertex 5 0.0698424 -2
      vertex 5.70953 5.78285 -2
    endloop
  endfacet
  facet normal 0 0 -1
    outer loop
      vertex 8.29047 5.78285 -2
      vertex 5 0.0698424 -2
      vertex 7 5.248 -2
    endloop
  endfacet
  facet normal 0 0 -1
    outer loop
      vertex 128.904 0.0698424 -2
      vertex 8.29047 8.36536 -2
      vertex 128.904 151.987 -2
    endloop
  endfacet
  facet normal 0 0 -1
    outer loop
      vertex 8.29047 146.274 -2
      vertex 128.904 151.987 -2
      vertex 8.825 144.983 -2
    endloop
  endfacet
  facet normal 0 0 -1
    outer loop
      vertex 5 151.987 -2
      vertex 8.29047 146.274 -2
      vertex 7 146.809 -2
    endloop
  endfacet
  facet normal 0 0 -1
    outer loop
      vertex 8.29047 146.274 -2
      vertex 5 151.987 -2
      vertex 128.904 151.987 -2
    endloop
  endfacet
  facet normal 0 0 -1
    outer loop
      vertex 5.70953 146.274 -2
      vertex 5 151.987 -2
      vertex 7 146.809 -2
    endloop
  endfacet
  facet normal 0 0 -1
    outer loop
      vertex 0 146.984 -2
      vertex 5.70953 146.274 -2
      vertex 5.175 144.983 -2
    endloop
  endfacet
  facet normal 0 0 -1
    outer loop
      vertex 0 146.984 -2
      vertex 5.70953 143.692 -2
      vertex 0 5.07289 -2
    endloop
  endfacet
  facet normal 0 0 -1
    outer loop
      vertex 5.70953 146.274 -2
      vertex 0 146.984 -2
      vertex 0.97458 149.339 -2
    endloop
  endfacet
  facet normal -0 0 -1
    outer loop
      vertex 5.70953 5.78285 -2
      vertex 0 5.07289 -2
      vertex 5.175 7.07411 -2
    endloop
  endfacet
  facet normal 0 0 -1
    outer loop
      vertex 5.70953 5.78285 -2
      vertex 1.46447 1.5352 -2
      vertex 0 5.07289 -2
    endloop
  endfacet
  facet normal 0 0 -1
    outer loop
      vertex 5.70953 143.692 -2
      vertex 0 146.984 -2
      vertex 5.175 144.983 -2
    endloop
  endfacet
  facet normal 0 0 -1
    outer loop
      vertex 2.65017 151.013 -2
      vertex 0.97458 149.339 -2
      vertex 1.46447 150.522 -2
    endloop
  endfacet
  facet normal 0 0 -1
    outer loop
      vertex 5.70953 146.274 -2
      vertex 2.65017 151.013 -2
      vertex 5 151.987 -2
    endloop
  endfacet
  facet normal 0 0 -1
    outer loop
      vertex 5.70953 146.274 -2
      vertex 0.97458 149.339 -2
      vertex 2.65017 151.013 -2
    endloop
  endfacet
  facet normal 0 0 1
    outer loop
      vertex 4.17157 142.083 0
      vertex 6 135.999 0
      vertex 6 141.325 0
    endloop
  endfacet
  facet normal 0 0 1
    outer loop
      vertex 0 146.914 0
      vertex 6 135.999 0
      vertex 4.17157 142.083 0
    endloop
  endfacet
  facet normal 0 0 1
    outer loop
      vertex 0 5.00305 0
      vertex 6 135.999 0
      vertex 0 146.914 0
    endloop
  endfacet
  facet normal 0 0 1
    outer loop
      vertex 6 14.861 0
      vertex 4.17157 9.83442 0
      vertex 6 10.5922 0
    endloop
  endfacet
  facet normal 0 0 1
    outer loop
      vertex 0 146.914 0
      vertex 4.17157 142.083 0
      vertex 3 144.913 0
    endloop
  endfacet
  facet normal 0 0 1
    outer loop
      vertex 6 135.999 0
      vertex 0 5.00305 0
      vertex 6 14.861 0
    endloop
  endfacet
  facet normal -0 0 1
    outer loop
      vertex 6 135.999 0
      vertex 8 14.861 0
      vertex 8 135.999 0
    endloop
  endfacet
  facet normal 0 0 1
    outer loop
      vertex 8 14.861 0
      vertex 6 135.999 0
      vertex 6 14.861 0
    endloop
  endfacet
  facet normal 0 0 1
    outer loop
      vertex 9.82843 142.083 0
      vertex 15.9779 143.913 0
      vertex 10.5858 143.913 0
    endloop
  endfacet
  facet normal 0 0 1
    outer loop
      vertex 15.9779 143.913 0
      vertex 8 135.999 0
      vertex 14.7921 8.00488 0
    endloop
  endfacet
  facet normal 0 0 1
    outer loop
      vertex 15.9779 143.913 0
      vertex 9.82843 142.083 0
      vertex 8 135.999 0
    endloop
  endfacet
  facet normal -0 0 1
    outer loop
      vertex 8 14.861 0
      vertex 14.7921 8.00488 0
      vertex 8 135.999 0
    endloop
  endfacet
  facet normal 0 0 1
    outer loop
      vertex 8 135.999 0
      vertex 9.82843 142.083 0
      vertex 8 141.325 0
    endloop
  endfacet
  facet normal -0 -0 1
    outer loop
      vertex 9.82843 9.83442 0
      vertex 14.7921 8.00488 0
      vertex 8 14.861 0
    endloop
  endfacet
  facet normal 0 0 1
    outer loop
      vertex 14.7921 8.00488 0
      vertex 9.82843 9.83442 0
      vertex 10.5858 8.00488 0
    endloop
  endfacet
  facet normal 0 0 1
    outer loop
      vertex 9.82843 9.83442 0
      vertex 8 14.861 0
      vertex 8 10.5922 0
    endloop
  endfacet
  facet normal 0 0 1
    outer loop
      vertex 15.9779 143.913 0
      vertex 128.904 151.918 0
      vertex 15.9953 145.914 0
    endloop
  endfacet
  facet normal -0 0 1
    outer loop
      vertex 5 151.918 0
      vertex 15.9953 145.914 0
      vertex 128.904 151.918 0
    endloop
  endfacet
  facet normal 0 0 1
    outer loop
      vertex 15.9953 145.914 0
      vertex 9.82843 147.743 0
      vertex 10.5858 145.914 0
    endloop
  endfacet
  facet normal 0 0 1
    outer loop
      vertex 15.9953 145.914 0
      vertex 5 151.918 0
      vertex 9.82843 147.743 0
    endloop
  endfacet
  facet normal 0 0 1
    outer loop
      vertex 9.82843 147.743 0
      vertex 5 151.918 0
      vertex 7 148.916 0
    endloop
  endfacet
  facet normal 0 0 1
    outer loop
      vertex 5 151.918 0
      vertex 4.17157 147.743 0
      vertex 7 148.916 0
    endloop
  endfacet
  facet normal -0 0 1
    outer loop
      vertex 2.54689 150.901 0
      vertex 4.17157 147.743 0
      vertex 5 151.918 0
    endloop
  endfacet
  facet normal 0 0 1
    outer loop
      vertex 0 146.914 0
      vertex 4.17157 147.743 0
      vertex 1.01725 149.372 0
    endloop
  endfacet
  facet normal -0 0 1
    outer loop
      vertex 1.01725 149.372 0
      vertex 4.17157 147.743 0
      vertex 2.54689 150.901 0
    endloop
  endfacet
  facet normal 0 0 1
    outer loop
      vertex 128.904 151.918 0
      vertex 15.9779 143.913 0
      vertex 128.904 8.8961e-07 0
    endloop
  endfacet
  facet normal -0 0 1
    outer loop
      vertex 14.7921 8.00488 0
      vertex 128.904 8.8961e-07 0
      vertex 15.9779 143.913 0
    endloop
  endfacet
  facet normal -0 0 1
    outer loop
      vertex 14.7746 6.00366 0
      vertex 128.904 8.8961e-07 0
      vertex 14.7921 8.00488 0
    endloop
  endfacet
  facet normal 0 0 1
    outer loop
      vertex 9.82843 4.17412 0
      vertex 14.7746 6.00366 0
      vertex 10.5858 6.00366 0
    endloop
  endfacet
  facet normal 0 0 1
    outer loop
      vertex 5 8.8961e-07 0
      vertex 14.7746 6.00366 0
      vertex 9.82843 4.17412 0
    endloop
  endfacet
  facet normal 0 0 1
    outer loop
      vertex 5 8.8961e-07 0
      vertex 9.82843 4.17412 0
      vertex 7 3.00183 0
    endloop
  endfacet
  facet normal 0 0 1
    outer loop
      vertex 14.7746 6.00366 0
      vertex 5 8.8961e-07 0
      vertex 128.904 8.8961e-07 0
    endloop
  endfacet
  facet normal 0 0 1
    outer loop
      vertex 4.17157 4.17412 0
      vertex 5 8.8961e-07 0
      vertex 7 3.00183 0
    endloop
  endfacet
  facet normal -0 0 1
    outer loop
      vertex 0 5.00305 0
      vertex 4.17157 4.17412 0
      vertex 3 7.00427 0
    endloop
  endfacet
  facet normal 0 0 1
    outer loop
      vertex 4.17157 4.17412 0
      vertex 2.27732 1.12846 0
      vertex 5 8.8961e-07 0
    endloop
  endfacet
  facet normal 0 0 1
    outer loop
      vertex 6 14.861 0
      vertex 0 5.00305 0
      vertex 4.17157 9.83442 0
    endloop
  endfacet
  facet normal 0 0 1
    outer loop
      vertex 1.01725 149.372 0
      vertex 2.54689 150.901 0
      vertex 1.46447 150.452 0
    endloop
  endfacet
  facet normal 0 0 1
    outer loop
      vertex 4.17157 147.743 0
      vertex 0 146.914 0
      vertex 3 144.913 0
    endloop
  endfacet
  facet normal 0 0 1
    outer loop
      vertex 4.17157 9.83442 0
      vertex 0 5.00305 0
      vertex 3 7.00427 0
    endloop
  endfacet
  facet normal 0 0 1
    outer loop
      vertex 4.17157 4.17412 0
      vertex 0 5.00305 0
      vertex 1.46447 1.46536 0
    endloop
  endfacet
  facet normal 0 0 1
    outer loop
      vertex 4.17157 4.17412 0
      vertex 1.46447 1.46536 0
      vertex 2.27732 1.12846 0
    endloop
  endfacet
  facet normal -0.382684 -0.923317 -0.0322394
    outer loop
      vertex 2.38045 1.15555 -2
      vertex 5 8.8961e-07 0
      vertex 2.27732 1.12846 0
    endloop
  endfacet
  facet normal -0.382681 -0.923318 -0.0322429
    outer loop
      vertex 5 8.8961e-07 0
      vertex 2.38045 1.15555 -2
      vertex 5 0.0698424 -2
    endloop
  endfacet
  facet normal -0.382399 0.923444 0.0319658
    outer loop
      vertex 1.46447 150.522 -2
      vertex 2.54689 150.901 0
      vertex 2.65017 151.013 -2
    endloop
  endfacet
  facet normal -0.382955 0.923202 0.0323121
    outer loop
      vertex 2.54689 150.901 0
      vertex 1.46447 150.522 -2
      vertex 1.46447 150.452 0
    endloop
  endfacet
  facet normal 0 -0.999391 -0.0348995
    outer loop
      vertex 5 0.0698424 -2
      vertex 128.904 8.8961e-07 0
      vertex 5 8.8961e-07 0
    endloop
  endfacet
  facet normal 0 -0.999391 -0.0348995
    outer loop
      vertex 128.904 8.8961e-07 0
      vertex 5 0.0698424 -2
      vertex 128.904 0.0698424 -2
    endloop
  endfacet
  facet normal -0.923879 -0.382451 -0.0133552
    outer loop
      vertex 1.46447 1.5352 -2
      vertex 0 5.00305 0
      vertex 0 5.07289 -2
    endloop
  endfacet
  facet normal -0.923879 -0.382451 -0.0133552
    outer loop
      vertex 0 5.00305 0
      vertex 1.46447 1.5352 -2
      vertex 1.46447 1.46536 0
    endloop
  endfacet
  facet normal -0.382685 -0.923316 -0.0322422
    outer loop
      vertex 1.46447 1.5352 -2
      vertex 2.27732 1.12846 0
      vertex 1.46447 1.46536 0
    endloop
  endfacet
  facet normal -0.38269 -0.923314 -0.0322397
    outer loop
      vertex 2.27732 1.12846 0
      vertex 1.46447 1.5352 -2
      vertex 2.38045 1.15555 -2
    endloop
  endfacet
  facet normal -0.923831 0.382566 0.0133898
    outer loop
      vertex 0.97458 149.339 -2
      vertex 1.46447 150.452 0
      vertex 1.46447 150.522 -2
    endloop
  endfacet
  facet normal -0.923836 0.382554 0.0133979
    outer loop
      vertex 1.46447 150.452 0
      vertex 0.97458 149.339 -2
      vertex 1.01725 149.372 0
    endloop
  endfacet
  facet normal 0 0.999405 0.0344795
    outer loop
      vertex 128.904 151.987 -2
      vertex 5 151.918 0
      vertex 128.904 151.918 0
    endloop
  endfacet
  facet normal 0 0.999405 0.0344795
    outer loop
      vertex 5 151.918 0
      vertex 128.904 151.987 -2
      vertex 5 151.987 -2
    endloop
  endfacet
  facet normal -0.382713 0.923318 0.0318545
    outer loop
      vertex 2.65017 151.013 -2
      vertex 5 151.918 0
      vertex 5 151.987 -2
    endloop
  endfacet
  facet normal -0.382774 0.92329 0.0319378
    outer loop
      vertex 5 151.918 0
      vertex 2.65017 151.013 -2
      vertex 2.54689 150.901 0
    endloop
  endfacet
  facet normal -0.92392 0.38235 0.0134031
    outer loop
      vertex 0 146.984 -2
      vertex 1.01725 149.372 0
      vertex 0.97458 149.339 -2
    endloop
  endfacet
  facet normal -0.923915 0.382365 0.0133828
    outer loop
      vertex 1.01725 149.372 0
      vertex 0 146.984 -2
      vertex 0 146.914 0
    endloop
  endfacet
  facet normal -1 0 0
    outer loop
      vertex 0 5.07289 -2
      vertex 0 146.914 0
      vertex 0 146.984 -2
    endloop
  endfacet
  facet normal -1 -0 0
    outer loop
      vertex 0 146.914 0
      vertex 0 5.07289 -2
      vertex 0 5.00305 0
    endloop
  endfacet
  facet normal 1 0 0
    outer loop
      vertex 128.904 151.918 0
      vertex 128.904 0.0698424 -2
      vertex 128.904 151.987 -2
    endloop
  endfacet
  facet normal 1 0 -0
    outer loop
      vertex 128.904 0.0698424 -2
      vertex 128.904 151.918 0
      vertex 128.904 8.8961e-07 0
    endloop
  endfacet
endsolid OpenSCAD_Model
