solid OpenSCAD_Model
  facet normal -0.92388 -0.38245 -0.0133555
    outer loop
      vertex 4.17157 4.17412 0
      vertex 3 6.47612 15.1242
      vertex 3 7.00427 0
    endloop
  endfacet
  facet normal -0.92388 -0.382449 -0.0133556
    outer loop
      vertex 3 6.47612 15.1242
      vertex 4.17157 4.17412 0
      vertex 4.17157 3.64941 15.0255
    endloop
  endfacet
  facet normal 0.382665 0.923324 0.0322435
    outer loop
      vertex 8 10.5922 0
      vertex 9.82843 9.30282 15.2229
      vertex 9.82843 9.83442 0
    endloop
  endfacet
  facet normal 0.382676 0.92332 0.0322418
    outer loop
      vertex 9.82843 9.30282 15.2229
      vertex 8 10.5922 0
      vertex 8 10.0597 15.2494
    endloop
  endfacet
  facet normal 0.923878 0.382455 0.0133557
    outer loop
      vertex 9.82843 9.30282 15.2229
      vertex 10.5858 8.00488 0
      vertex 9.82843 9.83442 0
    endloop
  endfacet
  facet normal 0.923877 0.382456 0.0133557
    outer loop
      vertex 10.5858 8.00488 0
      vertex 9.82843 9.30282 15.2229
      vertex 10.5858 7.47551 15.1591
    endloop
  endfacet
  facet normal 0.923878 -0.382455 -0.0133556
    outer loop
      vertex 10.5858 5.47673 15.0893
      vertex 9.82843 4.17412 0
      vertex 10.5858 6.00366 0
    endloop
  endfacet
  facet normal 0.923878 -0.382454 -0.0133558
    outer loop
      vertex 9.82843 4.17412 0
      vertex 10.5858 5.47673 15.0893
      vertex 9.82843 3.64941 15.0255
    endloop
  endfacet
  facet normal -0.382683 -0.923317 -0.0322434
    outer loop
      vertex 4.17157 4.17412 0
      vertex 7 2.47855 14.9846
      vertex 4.17157 3.64941 15.0255
    endloop
  endfacet
  facet normal -0.382684 -0.923317 -0.0322433
    outer loop
      vertex 7 2.47855 14.9846
      vertex 4.17157 4.17412 0
      vertex 7 3.00183 0
    endloop
  endfacet
  facet normal -0.382676 0.92332 0.0322418
    outer loop
      vertex 6 10.5922 0
      vertex 4.17157 9.30282 15.2229
      vertex 6 10.0597 15.2494
    endloop
  endfacet
  facet normal -0.382665 0.923324 0.0322435
    outer loop
      vertex 4.17157 9.30282 15.2229
      vertex 6 10.5922 0
      vertex 4.17157 9.83442 0
    endloop
  endfacet
  facet normal -0.92388 0.38245 0.0133556
    outer loop
      vertex 3 7.00427 0
      vertex 4.17157 9.30282 15.2229
      vertex 4.17157 9.83442 0
    endloop
  endfacet
  facet normal -0.92388 0.38245 0.0133555
    outer loop
      vertex 4.17157 9.30282 15.2229
      vertex 3 7.00427 0
      vertex 3 6.47612 15.1242
    endloop
  endfacet
  facet normal 0.382684 -0.923317 -0.0322433
    outer loop
      vertex 9.82843 4.17412 0
      vertex 7 2.47855 14.9846
      vertex 7 3.00183 0
    endloop
  endfacet
  facet normal 0.382683 -0.923317 -0.0322434
    outer loop
      vertex 7 2.47855 14.9846
      vertex 9.82843 4.17412 0
      vertex 9.82843 3.64941 15.0255
    endloop
  endfacet
  facet normal 0 -0.0347616 0.999396
    outer loop
      vertex 6 10.0597 15.2494
      vertex 8 10.0597 15.2494
      vertex 8 10.4737 15.2638
    endloop
  endfacet
  facet normal 0 -0.0347616 0.999396
    outer loop
      vertex 6 10.0597 15.2494
      vertex 8 10.4737 15.2638
      vertex 6 10.4737 15.2638
    endloop
  endfacet
  facet normal 0 -0.0349278 0.99939
    outer loop
      vertex 8 10.0597 15.2494
      vertex 6 10.0597 15.2494
      vertex 7 8.3 15.1879
    endloop
  endfacet
  facet normal 4.37802e-05 -0.034903 0.999391
    outer loop
      vertex 6 10.0597 15.2494
      vertex 5.70953 7.7658 15.1693
      vertex 7 8.3 15.1879
    endloop
  endfacet
  facet normal -4.08021e-05 -0.0348923 0.999391
    outer loop
      vertex 4.17157 9.30282 15.2229
      vertex 5.70953 7.7658 15.1693
      vertex 6 10.0597 15.2494
    endloop
  endfacet
  facet normal -6.86746e-05 -0.0349201 0.99939
    outer loop
      vertex 5.70953 7.7658 15.1693
      vertex 4.17157 9.30282 15.2229
      vertex 5.175 6.47612 15.1242
    endloop
  endfacet
  facet normal 0 -0.0349 0.999391
    outer loop
      vertex 10.5858 7.47551 15.1591
      vertex 11 5.47673 15.0893
      vertex 11 7.47551 15.1591
    endloop
  endfacet
  facet normal 0 -0.0349 0.999391
    outer loop
      vertex 10.5858 7.47551 15.1591
      vertex 10.5858 5.47673 15.0893
      vertex 11 5.47673 15.0893
    endloop
  endfacet
  facet normal 2.96869e-05 -0.0348812 0.999391
    outer loop
      vertex 8.29047 7.7658 15.1693
      vertex 10.5858 7.47551 15.1591
      vertex 9.82843 9.30282 15.2229
    endloop
  endfacet
  facet normal 0 -0.0349 0.999391
    outer loop
      vertex 10.5858 7.47551 15.1591
      vertex 8.825 6.47612 15.1242
      vertex 10.5858 5.47673 15.0893
    endloop
  endfacet
  facet normal 1.34071e-05 -0.0348764 0.999392
    outer loop
      vertex 8.29047 5.18643 15.0792
      vertex 10.5858 5.47673 15.0893
      vertex 8.825 6.47612 15.1242
    endloop
  endfacet
  facet normal 2.23234e-05 -0.0349393 0.999389
    outer loop
      vertex 10.5858 7.47551 15.1591
      vertex 8.29047 7.7658 15.1693
      vertex 8.825 6.47612 15.1242
    endloop
  endfacet
  facet normal 4.08021e-05 -0.0348923 0.999391
    outer loop
      vertex 8 10.0597 15.2494
      vertex 8.29047 7.7658 15.1693
      vertex 9.82843 9.30282 15.2229
    endloop
  endfacet
  facet normal -4.37802e-05 -0.034903 0.999391
    outer loop
      vertex 8.29047 7.7658 15.1693
      vertex 8 10.0597 15.2494
      vertex 7 8.3 15.1879
    endloop
  endfacet
  facet normal 1.63969e-05 -0.0349 0.999391
    outer loop
      vertex 10.5858 5.47673 15.0893
      vertex 8.29047 5.18643 15.0792
      vertex 9.82843 3.64941 15.0255
    endloop
  endfacet
  facet normal -1.9857e-05 -0.0349363 0.99939
    outer loop
      vertex 7 4.65223 15.0605
      vertex 9.82843 3.64941 15.0255
      vertex 8.29047 5.18643 15.0792
    endloop
  endfacet
  facet normal -5.72803e-06 -0.0348965 0.999391
    outer loop
      vertex 7 4.65223 15.0605
      vertex 7 2.47855 14.9846
      vertex 9.82843 3.64941 15.0255
    endloop
  endfacet
  facet normal 3.63534e-05 -0.0348965 0.999391
    outer loop
      vertex 5.70953 5.18643 15.0792
      vertex 7 2.47855 14.9846
      vertex 7 4.65223 15.0605
    endloop
  endfacet
  facet normal -1.79849e-06 -0.0349146 0.99939
    outer loop
      vertex 5.70953 5.18643 15.0792
      vertex 4.17157 3.64941 15.0255
      vertex 7 2.47855 14.9846
    endloop
  endfacet
  facet normal -3.22266e-05 -0.0348842 0.999391
    outer loop
      vertex 5.175 6.47612 15.1242
      vertex 4.17157 3.64941 15.0255
      vertex 5.70953 5.18643 15.0792
    endloop
  endfacet
  facet normal 0 -0.0348958 0.999391
    outer loop
      vertex 3 6.47612 15.1242
      vertex 5.175 6.47612 15.1242
      vertex 4.17157 9.30282 15.2229
    endloop
  endfacet
  facet normal 0 -0.0348957 0.999391
    outer loop
      vertex 5.175 6.47612 15.1242
      vertex 3 6.47612 15.1242
      vertex 4.17157 3.64941 15.0255
    endloop
  endfacet
  facet normal 0.970142 -0.00848357 0.242388
    outer loop
      vertex 11 7.47551 15.1591
      vertex 14.7746 6.00366 0
      vertex 14.7921 8.00488 0
    endloop
  endfacet
  facet normal 0.970143 -0.00846445 0.242386
    outer loop
      vertex 14.7746 6.00366 0
      vertex 11 7.47551 15.1591
      vertex 11 5.47673 15.0893
    endloop
  endfacet
  facet normal 0 -0.999391 -0.0348995
    outer loop
      vertex 10.5858 6.00366 0
      vertex 11 5.47673 15.0893
      vertex 10.5858 5.47673 15.0893
    endloop
  endfacet
  facet normal 0 -0.999391 -0.0348995
    outer loop
      vertex 11 5.47673 15.0893
      vertex 10.5858 6.00366 0
      vertex 14.7746 6.00366 0
    endloop
  endfacet
  facet normal -0 0.999391 0.0348997
    outer loop
      vertex 10.5858 8.00488 0
      vertex 11 7.47551 15.1591
      vertex 14.7921 8.00488 0
    endloop
  endfacet
  facet normal 0 0.999391 0.0348997
    outer loop
      vertex 11 7.47551 15.1591
      vertex 10.5858 8.00488 0
      vertex 10.5858 7.47551 15.1591
    endloop
  endfacet
  facet normal 1 0 0
    outer loop
      vertex 8 10.4737 15.2638
      vertex 8 10.5922 0
      vertex 8 14.861 0
    endloop
  endfacet
  facet normal 1 0 0
    outer loop
      vertex 8 10.5922 0
      vertex 8 10.4737 15.2638
      vertex 8 10.0597 15.2494
    endloop
  endfacet
  facet normal -1 0 0
    outer loop
      vertex 6 10.5922 0
      vertex 6 10.4737 15.2638
      vertex 6 14.861 0
    endloop
  endfacet
  facet normal -1 0 -0
    outer loop
      vertex 6 10.4737 15.2638
      vertex 6 10.5922 0
      vertex 6 10.0597 15.2494
    endloop
  endfacet
  facet normal 0 0.961087 0.276247
    outer loop
      vertex 8 14.861 0
      vertex 6 10.4737 15.2638
      vertex 8 10.4737 15.2638
    endloop
  endfacet
  facet normal 0 0.961087 0.276247
    outer loop
      vertex 6 10.4737 15.2638
      vertex 8 14.861 0
      vertex 6 14.861 0
    endloop
  endfacet
  facet normal -0.923873 -0.382467 -0.0133538
    outer loop
      vertex 4.17157 142.083 0
      vertex 3 144.217 19.9342
      vertex 3 144.913 0
    endloop
  endfacet
  facet normal -0.923894 -0.382415 -0.0133606
    outer loop
      vertex 3 144.217 19.9342
      vertex 4.17157 142.083 0
      vertex 4.17157 141.39 19.8355
    endloop
  endfacet
  facet normal 0.382882 0.923235 0.0322139
    outer loop
      vertex 7 148.916 0
      vertex 9.82843 147.044 20.033
      vertex 9.82843 147.743 0
    endloop
  endfacet
  facet normal 0.382721 0.923301 0.0322427
    outer loop
      vertex 9.82843 147.044 20.033
      vertex 7 148.916 0
      vertex 7 148.215 20.0738
    endloop
  endfacet
  facet normal 0.923838 0.382552 0.0133482
    outer loop
      vertex 9.82843 147.044 20.033
      vertex 10.5858 145.914 0
      vertex 9.82843 147.743 0
    endloop
  endfacet
  facet normal 0.923855 0.38251 0.0133511
    outer loop
      vertex 10.5858 145.914 0
      vertex 9.82843 147.044 20.033
      vertex 10.5858 145.217 19.9691
    endloop
  endfacet
  facet normal 0.923911 -0.382373 -0.0133547
    outer loop
      vertex 10.5858 143.218 19.8993
      vertex 9.82843 142.083 0
      vertex 10.5858 143.913 0
    endloop
  endfacet
  facet normal 0.923928 -0.382332 -0.0133577
    outer loop
      vertex 9.82843 142.083 0
      vertex 10.5858 143.218 19.8993
      vertex 9.82843 141.39 19.8355
    endloop
  endfacet
  facet normal -0.382295 -0.923477 -0.0322638
    outer loop
      vertex 4.17157 142.083 0
      vertex 6 140.634 19.8091
      vertex 4.17157 141.39 19.8355
    endloop
  endfacet
  facet normal -0.382761 -0.923286 -0.0322069
    outer loop
      vertex 6 140.634 19.8091
      vertex 4.17157 142.083 0
      vertex 6 141.325 0
    endloop
  endfacet
  facet normal -0.382721 0.923301 0.0322427
    outer loop
      vertex 7 148.916 0
      vertex 4.17157 147.044 20.033
      vertex 7 148.215 20.0738
    endloop
  endfacet
  facet normal -0.382882 0.923235 0.0322139
    outer loop
      vertex 4.17157 147.044 20.033
      vertex 7 148.916 0
      vertex 4.17157 147.743 0
    endloop
  endfacet
  facet normal -0.923873 0.382467 0.0133452
    outer loop
      vertex 3 144.913 0
      vertex 4.17157 147.044 20.033
      vertex 4.17157 147.743 0
    endloop
  endfacet
  facet normal -0.923894 0.382415 0.013352
    outer loop
      vertex 4.17157 147.044 20.033
      vertex 3 144.913 0
      vertex 3 144.217 19.9342
    endloop
  endfacet
  facet normal 0.382761 -0.923286 -0.0322069
    outer loop
      vertex 9.82843 142.083 0
      vertex 8 140.634 19.8091
      vertex 8 141.325 0
    endloop
  endfacet
  facet normal 0.382295 -0.923477 -0.0322638
    outer loop
      vertex 8 140.634 19.8091
      vertex 9.82843 142.083 0
      vertex 9.82843 141.39 19.8355
    endloop
  endfacet
  facet normal -4.4054e-05 -0.0349167 0.99939
    outer loop
      vertex 5.70953 142.927 19.8892
      vertex 6 140.634 19.8091
      vertex 7 142.393 19.8706
    endloop
  endfacet
  facet normal -3.84718e-05 -0.0348784 0.999392
    outer loop
      vertex 4.17157 141.39 19.8355
      vertex 5.70953 142.927 19.8892
      vertex 5.175 144.217 19.9342
    endloop
  endfacet
  facet normal 0 -0.0349274 0.99939
    outer loop
      vertex 3 144.217 19.9342
      vertex 5.175 144.217 19.9342
      vertex 4.17157 147.044 20.033
    endloop
  endfacet
  facet normal 0 -0.0348921 0.999391
    outer loop
      vertex 4.17157 141.39 19.8355
      vertex 5.175 144.217 19.9342
      vertex 3 144.217 19.9342
    endloop
  endfacet
  facet normal -5.13154e-06 -0.0349118 0.99939
    outer loop
      vertex 5.70953 142.927 19.8892
      vertex 4.17157 141.39 19.8355
      vertex 6 140.634 19.8091
    endloop
  endfacet
  facet normal 0 -0.0348962 0.999391
    outer loop
      vertex 10.5858 145.217 19.9691
      vertex 11 143.218 19.8993
      vertex 11 145.217 19.9691
    endloop
  endfacet
  facet normal 0 -0.0348962 0.999391
    outer loop
      vertex 10.5858 145.217 19.9691
      vertex 10.5858 143.218 19.8993
      vertex 11 143.218 19.8993
    endloop
  endfacet
  facet normal 2.62552e-05 -0.0349431 0.999389
    outer loop
      vertex 8.29047 145.507 19.9793
      vertex 10.5858 145.217 19.9691
      vertex 9.82843 147.044 20.033
    endloop
  endfacet
  facet normal 9.90919e-06 -0.0348962 0.999391
    outer loop
      vertex 10.5858 145.217 19.9691
      vertex 8.825 144.217 19.9342
      vertex 10.5858 143.218 19.8993
    endloop
  endfacet
  facet normal 2.35115e-05 -0.0348722 0.999392
    outer loop
      vertex 8.29047 142.927 19.8892
      vertex 10.5858 143.218 19.8993
      vertex 8.825 144.217 19.9342
    endloop
  endfacet
  facet normal 2.81372e-05 -0.0349282 0.99939
    outer loop
      vertex 10.5858 145.217 19.9691
      vertex 8.29047 145.507 19.9793
      vertex 8.825 144.217 19.9342
    endloop
  endfacet
  facet normal -2.81372e-05 -0.0348888 0.999391
    outer loop
      vertex 7 148.215 20.0738
      vertex 8.29047 145.507 19.9793
      vertex 9.82843 147.044 20.033
    endloop
  endfacet
  facet normal -3.35567e-05 -0.0348913 0.999391
    outer loop
      vertex 7 148.215 20.0738
      vertex 7 146.041 19.9979
      vertex 8.29047 145.507 19.9793
    endloop
  endfacet
  facet normal 3.35567e-05 -0.0348913 0.999391
    outer loop
      vertex 7 148.215 20.0738
      vertex 5.70953 145.507 19.9793
      vertex 7 146.041 19.9979
    endloop
  endfacet
  facet normal -1.62793e-05 -0.0349332 0.99939
    outer loop
      vertex 5.70953 145.507 19.9793
      vertex 4.17157 147.044 20.033
      vertex 5.175 144.217 19.9342
    endloop
  endfacet
  facet normal 2.81372e-05 -0.0348888 0.999391
    outer loop
      vertex 4.17157 147.044 20.033
      vertex 5.70953 145.507 19.9793
      vertex 7 148.215 20.0738
    endloop
  endfacet
  facet normal 2.58931e-05 -0.034891 0.999391
    outer loop
      vertex 10.5858 143.218 19.8993
      vertex 8.29047 142.927 19.8892
      vertex 9.82843 141.39 19.8355
    endloop
  endfacet
  facet normal 5.13154e-06 -0.0349118 0.99939
    outer loop
      vertex 8.29047 142.927 19.8892
      vertex 8 140.634 19.8091
      vertex 9.82843 141.39 19.8355
    endloop
  endfacet
  facet normal 4.4054e-05 -0.0349167 0.99939
    outer loop
      vertex 7 142.393 19.8706
      vertex 8 140.634 19.8091
      vertex 8.29047 142.927 19.8892
    endloop
  endfacet
  facet normal 0 -0.0349417 0.999389
    outer loop
      vertex 6 140.634 19.8091
      vertex 8 140.634 19.8091
      vertex 7 142.393 19.8706
    endloop
  endfacet
  facet normal 0 -0.0347616 0.999396
    outer loop
      vertex 8 140.634 19.8091
      vertex 6 140.634 19.8091
      vertex 8 140.22 19.7947
    endloop
  endfacet
  facet normal 0 -0.0347616 0.999396
    outer loop
      vertex 8 140.22 19.7947
      vertex 6 140.634 19.8091
      vertex 6 140.22 19.7947
    endloop
  endfacet
  facet normal 0.970143 -0.00843602 0.242388
    outer loop
      vertex 11 145.217 19.9691
      vertex 15.9779 143.913 0
      vertex 15.9953 145.914 0
    endloop
  endfacet
  facet normal 0.970142 -0.00846364 0.24239
    outer loop
      vertex 15.9779 143.913 0
      vertex 11 145.217 19.9691
      vertex 11 143.218 19.8993
    endloop
  endfacet
  facet normal 0 -0.999391 -0.0349046
    outer loop
      vertex 10.5858 143.913 0
      vertex 11 143.218 19.8993
      vertex 10.5858 143.218 19.8993
    endloop
  endfacet
  facet normal 0 -0.999391 -0.0349046
    outer loop
      vertex 11 143.218 19.8993
      vertex 10.5858 143.913 0
      vertex 15.9779 143.913 0
    endloop
  endfacet
  facet normal -0 0.999391 0.0348827
    outer loop
      vertex 10.5858 145.914 0
      vertex 11 145.217 19.9691
      vertex 15.9953 145.914 0
    endloop
  endfacet
  facet normal 0 0.999391 0.0348827
    outer loop
      vertex 11 145.217 19.9691
      vertex 10.5858 145.914 0
      vertex 10.5858 145.217 19.9691
    endloop
  endfacet
  facet normal 1 -0 0
    outer loop
      vertex 8 140.22 19.7947
      vertex 8 141.325 0
      vertex 8 140.634 19.8091
    endloop
  endfacet
  facet normal 1 0 0
    outer loop
      vertex 8 141.325 0
      vertex 8 140.22 19.7947
      vertex 8 135.999 0
    endloop
  endfacet
  facet normal -1 0 0
    outer loop
      vertex 6 141.325 0
      vertex 6 140.22 19.7947
      vertex 6 140.634 19.8091
    endloop
  endfacet
  facet normal -1 0 -0
    outer loop
      vertex 6 140.22 19.7947
      vertex 6 141.325 0
      vertex 6 135.999 0
    endloop
  endfacet
  facet normal 0 -0.978012 0.20855
    outer loop
      vertex 6 135.999 0
      vertex 8 140.22 19.7947
      vertex 6 140.22 19.7947
    endloop
  endfacet
  facet normal 0 -0.978012 0.20855
    outer loop
      vertex 8 140.22 19.7947
      vertex 6 135.999 0
      vertex 8 135.999 0
    endloop
  endfacet
  facet normal -0.923799 -0.382645 -0.0133642
    outer loop
      vertex 190.528 142.083 0
      vertex 189.77 143.218 19.8993
      vertex 189.77 143.913 0
    endloop
  endfacet
  facet normal -0.923816 -0.382604 -0.0133672
    outer loop
      vertex 189.77 143.218 19.8993
      vertex 190.528 142.083 0
      vertex 190.528 141.39 19.8355
    endloop
  endfacet
  facet normal 0.382816 0.923263 0.0322149
    outer loop
      vertex 193.356 148.916 0
      vertex 196.185 147.044 20.033
      vertex 196.185 147.743 0
    endloop
  endfacet
  facet normal 0.382656 0.923328 0.0322437
    outer loop
      vertex 196.185 147.044 20.033
      vertex 193.356 148.916 0
      vertex 193.356 148.215 20.0738
    endloop
  endfacet
  facet normal 0.923904 0.382392 0.0133426
    outer loop
      vertex 196.185 147.044 20.033
      vertex 196.942 145.914 0
      vertex 196.185 147.743 0
    endloop
  endfacet
  facet normal 0.923921 0.382351 0.0133456
    outer loop
      vertex 196.942 145.914 0
      vertex 196.185 147.044 20.033
      vertex 196.942 145.217 19.9691
    endloop
  endfacet
  facet normal 0.923978 -0.382214 -0.0133491
    outer loop
      vertex 196.942 143.218 19.8993
      vertex 196.185 142.083 0
      vertex 196.942 143.913 0
    endloop
  endfacet
  facet normal 0.923994 -0.382173 -0.0133521
    outer loop
      vertex 196.185 142.083 0
      vertex 196.942 143.218 19.8993
      vertex 196.185 141.39 19.8355
    endloop
  endfacet
  facet normal -0.382492 -0.923395 -0.032261
    outer loop
      vertex 190.528 142.083 0
      vertex 193.356 140.22 19.7947
      vertex 190.528 141.39 19.8355
    endloop
  endfacet
  facet normal -0.382653 -0.92333 -0.0322319
    outer loop
      vertex 193.356 140.22 19.7947
      vertex 190.528 142.083 0
      vertex 193.356 140.911 0
    endloop
  endfacet
  facet normal -0.382771 0.92328 0.032242
    outer loop
      vertex 193.356 148.916 0
      vertex 190.528 147.044 20.033
      vertex 193.356 148.215 20.0738
    endloop
  endfacet
  facet normal -0.382932 0.923215 0.0322132
    outer loop
      vertex 190.528 147.044 20.033
      vertex 193.356 148.916 0
      vertex 190.528 147.743 0
    endloop
  endfacet
  facet normal -0.923725 0.382823 0.0133576
    outer loop
      vertex 189.77 145.914 0
      vertex 190.528 147.044 20.033
      vertex 190.528 147.743 0
    endloop
  endfacet
  facet normal -0.923742 0.382782 0.0133606
    outer loop
      vertex 190.528 147.044 20.033
      vertex 189.77 145.914 0
      vertex 189.77 145.217 19.9691
    endloop
  endfacet
  facet normal 0.382537 -0.923378 -0.0322336
    outer loop
      vertex 196.185 142.083 0
      vertex 193.356 140.22 19.7947
      vertex 193.356 140.911 0
    endloop
  endfacet
  facet normal 0.382377 -0.923443 -0.0322627
    outer loop
      vertex 193.356 140.22 19.7947
      vertex 196.185 142.083 0
      vertex 196.185 141.39 19.8355
    endloop
  endfacet
  facet normal 0 -0.0348962 0.999391
    outer loop
      vertex 196.942 145.217 19.9691
      vertex 197.356 143.218 19.8993
      vertex 197.356 145.217 19.9691
    endloop
  endfacet
  facet normal 0 -0.0348962 0.999391
    outer loop
      vertex 196.942 145.217 19.9691
      vertex 196.942 143.218 19.8993
      vertex 197.356 143.218 19.8993
    endloop
  endfacet
  facet normal 2.62584e-05 -0.0349431 0.999389
    outer loop
      vertex 194.647 145.507 19.9793
      vertex 196.942 145.217 19.9691
      vertex 196.185 147.044 20.033
    endloop
  endfacet
  facet normal 9.90806e-06 -0.0348962 0.999391
    outer loop
      vertex 196.942 145.217 19.9691
      vertex 195.181 144.217 19.9342
      vertex 196.942 143.218 19.8993
    endloop
  endfacet
  facet normal 2.35138e-05 -0.0348722 0.999392
    outer loop
      vertex 194.647 142.927 19.8892
      vertex 196.942 143.218 19.8993
      vertex 195.181 144.217 19.9342
    endloop
  endfacet
  facet normal 2.81399e-05 -0.0349283 0.99939
    outer loop
      vertex 196.942 145.217 19.9691
      vertex 194.647 145.507 19.9793
      vertex 195.181 144.217 19.9342
    endloop
  endfacet
  facet normal -2.8133e-05 -0.0348888 0.999391
    outer loop
      vertex 193.356 148.215 20.0738
      vertex 194.647 145.507 19.9793
      vertex 196.185 147.044 20.033
    endloop
  endfacet
  facet normal -3.35429e-05 -0.0348913 0.999391
    outer loop
      vertex 193.356 148.215 20.0738
      vertex 193.356 146.041 19.9979
      vertex 194.647 145.507 19.9793
    endloop
  endfacet
  facet normal 3.35689e-05 -0.0348913 0.999391
    outer loop
      vertex 193.356 148.215 20.0738
      vertex 192.066 145.507 19.9793
      vertex 193.356 146.041 19.9979
    endloop
  endfacet
  facet normal -2.62483e-05 -0.0349431 0.999389
    outer loop
      vertex 189.77 145.217 19.9691
      vertex 192.066 145.507 19.9793
      vertex 190.528 147.044 20.033
    endloop
  endfacet
  facet normal 2.814e-05 -0.0348888 0.999391
    outer loop
      vertex 190.528 147.044 20.033
      vertex 192.066 145.507 19.9793
      vertex 193.356 148.215 20.0738
    endloop
  endfacet
  facet normal 2.58963e-05 -0.034891 0.999391
    outer loop
      vertex 196.942 143.218 19.8993
      vertex 194.647 142.927 19.8892
      vertex 196.185 141.39 19.8355
    endloop
  endfacet
  facet normal 3.12047e-05 -0.0348857 0.999391
    outer loop
      vertex 193.356 142.393 19.8706
      vertex 196.185 141.39 19.8355
      vertex 194.647 142.927 19.8892
    endloop
  endfacet
  facet normal 2.35077e-05 -0.0349074 0.999391
    outer loop
      vertex 193.356 142.393 19.8706
      vertex 193.356 140.22 19.7947
      vertex 196.185 141.39 19.8355
    endloop
  endfacet
  facet normal -4.02156e-05 -0.0349074 0.999391
    outer loop
      vertex 192.066 142.927 19.8892
      vertex 193.356 140.22 19.7947
      vertex 193.356 142.393 19.8706
    endloop
  endfacet
  facet normal -1.94151e-05 -0.0348975 0.999391
    outer loop
      vertex 192.066 142.927 19.8892
      vertex 190.528 141.39 19.8355
      vertex 193.356 140.22 19.7947
    endloop
  endfacet
  facet normal -2.35054e-05 -0.0348723 0.999392
    outer loop
      vertex 189.77 143.218 19.8993
      vertex 192.066 142.927 19.8892
      vertex 191.531 144.217 19.9342
    endloop
  endfacet
  facet normal -2.81299e-05 -0.0349282 0.99939
    outer loop
      vertex 192.066 145.507 19.9793
      vertex 189.77 145.217 19.9691
      vertex 191.531 144.217 19.9342
    endloop
  endfacet
  facet normal -9.90806e-06 -0.0348962 0.999391
    outer loop
      vertex 189.77 143.218 19.8993
      vertex 191.531 144.217 19.9342
      vertex 189.77 145.217 19.9691
    endloop
  endfacet
  facet normal -2.58863e-05 -0.034891 0.999391
    outer loop
      vertex 192.066 142.927 19.8892
      vertex 189.77 143.218 19.8993
      vertex 190.528 141.39 19.8355
    endloop
  endfacet
  facet normal 0 -0.0348962 0.999391
    outer loop
      vertex 189.356 145.217 19.9691
      vertex 189.77 143.218 19.8993
      vertex 189.77 145.217 19.9691
    endloop
  endfacet
  facet normal 0 -0.0348962 0.999391
    outer loop
      vertex 189.77 143.218 19.8993
      vertex 189.356 145.217 19.9691
      vertex 189.356 143.218 19.8993
    endloop
  endfacet
  facet normal 0.970135 -0.00872685 0.24241
    outer loop
      vertex 197.356 145.217 19.9691
      vertex 202.334 143.913 0
      vertex 202.352 145.914 0
    endloop
  endfacet
  facet normal 0.970141 -0.0084638 0.242394
    outer loop
      vertex 202.334 143.913 0
      vertex 197.356 145.217 19.9691
      vertex 197.356 143.218 19.8993
    endloop
  endfacet
  facet normal 0 -0.999391 -0.0349046
    outer loop
      vertex 196.942 143.913 0
      vertex 197.356 143.218 19.8993
      vertex 196.942 143.218 19.8993
    endloop
  endfacet
  facet normal 0 -0.999391 -0.0349046
    outer loop
      vertex 197.356 143.218 19.8993
      vertex 196.942 143.913 0
      vertex 202.334 143.913 0
    endloop
  endfacet
  facet normal -0 -0.999391 -0.0349046
    outer loop
      vertex 189.77 143.913 0
      vertex 189.356 143.218 19.8993
      vertex 184.378 143.913 0
    endloop
  endfacet
  facet normal 0 -0.999391 -0.0349046
    outer loop
      vertex 189.356 143.218 19.8993
      vertex 189.77 143.913 0
      vertex 189.77 143.218 19.8993
    endloop
  endfacet
  facet normal -0 0.999391 0.0348827
    outer loop
      vertex 196.942 145.914 0
      vertex 197.356 145.217 19.9691
      vertex 202.352 145.914 0
    endloop
  endfacet
  facet normal 0 0.999391 0.0348827
    outer loop
      vertex 197.356 145.217 19.9691
      vertex 196.942 145.914 0
      vertex 196.942 145.217 19.9691
    endloop
  endfacet
  facet normal 0 0.999391 0.0348827
    outer loop
      vertex 189.77 145.914 0
      vertex 189.356 145.217 19.9691
      vertex 189.77 145.217 19.9691
    endloop
  endfacet
  facet normal 0 0.999391 0.0348827
    outer loop
      vertex 189.356 145.217 19.9691
      vertex 189.77 145.914 0
      vertex 184.361 145.914 0
    endloop
  endfacet
  facet normal -0.970146 -0.00824212 0.242381
    outer loop
      vertex 184.378 143.913 0
      vertex 189.356 145.217 19.9691
      vertex 184.361 145.914 0
    endloop
  endfacet
  facet normal -0.970141 -0.0084638 0.242394
    outer loop
      vertex 189.356 145.217 19.9691
      vertex 184.378 143.913 0
      vertex 189.356 143.218 19.8993
    endloop
  endfacet
  facet normal -0.923765 -0.382727 -0.0133651
    outer loop
      vertex 190.528 4.17412 0
      vertex 189.77 5.47673 15.0893
      vertex 189.77 6.00366 0
    endloop
  endfacet
  facet normal -0.923766 -0.382725 -0.0133653
    outer loop
      vertex 189.77 5.47673 15.0893
      vertex 190.528 4.17412 0
      vertex 190.528 3.64941 15.0255
    endloop
  endfacet
  facet normal 0.382615 0.923345 0.0322442
    outer loop
      vertex 193.356 11.0067 0
      vertex 196.185 9.30282 15.2229
      vertex 196.185 9.83442 0
    endloop
  endfacet
  facet normal 0.382623 0.923342 0.0322424
    outer loop
      vertex 196.185 9.30282 15.2229
      vertex 193.356 11.0067 0
      vertex 193.356 10.4737 15.2638
    endloop
  endfacet
  facet normal 0.923944 0.382296 0.0133502
    outer loop
      vertex 196.185 9.30282 15.2229
      vertex 196.942 8.00488 0
      vertex 196.185 9.83442 0
    endloop
  endfacet
  facet normal 0.923943 0.382296 0.0133501
    outer loop
      vertex 196.942 8.00488 0
      vertex 196.185 9.30282 15.2229
      vertex 196.942 7.47551 15.1591
    endloop
  endfacet
  facet normal 0.923944 -0.382296 -0.0133501
    outer loop
      vertex 196.942 5.47673 15.0893
      vertex 196.185 4.17412 0
      vertex 196.942 6.00366 0
    endloop
  endfacet
  facet normal 0.923944 -0.382294 -0.0133502
    outer loop
      vertex 196.185 4.17412 0
      vertex 196.942 5.47673 15.0893
      vertex 196.185 3.64941 15.0255
    endloop
  endfacet
  facet normal -0.382733 -0.923296 -0.0322427
    outer loop
      vertex 190.528 4.17412 0
      vertex 193.356 2.47855 14.9846
      vertex 190.528 3.64941 15.0255
    endloop
  endfacet
  facet normal -0.382734 -0.923296 -0.0322426
    outer loop
      vertex 193.356 2.47855 14.9846
      vertex 190.528 4.17412 0
      vertex 193.356 3.00183 0
    endloop
  endfacet
  facet normal -0.382739 0.923294 0.0322407
    outer loop
      vertex 193.356 11.0067 0
      vertex 190.528 9.30282 15.2229
      vertex 193.356 10.4737 15.2638
    endloop
  endfacet
  facet normal -0.382731 0.923297 0.0322425
    outer loop
      vertex 190.528 9.30282 15.2229
      vertex 193.356 11.0067 0
      vertex 190.528 9.83442 0
    endloop
  endfacet
  facet normal -0.923765 0.382727 0.0133652
    outer loop
      vertex 189.77 8.00488 0
      vertex 190.528 9.30282 15.2229
      vertex 190.528 9.83442 0
    endloop
  endfacet
  facet normal -0.923765 0.382727 0.0133652
    outer loop
      vertex 190.528 9.30282 15.2229
      vertex 189.77 8.00488 0
      vertex 189.77 7.47551 15.1591
    endloop
  endfacet
  facet normal 0.382618 -0.923344 -0.0322443
    outer loop
      vertex 196.185 4.17412 0
      vertex 193.356 2.47855 14.9846
      vertex 193.356 3.00183 0
    endloop
  endfacet
  facet normal 0.382618 -0.923344 -0.0322444
    outer loop
      vertex 193.356 2.47855 14.9846
      vertex 196.185 4.17412 0
      vertex 196.185 3.64941 15.0255
    endloop
  endfacet
  facet normal 0 -0.0349 0.999391
    outer loop
      vertex 196.942 7.47551 15.1591
      vertex 197.356 5.47673 15.0893
      vertex 197.356 7.47551 15.1591
    endloop
  endfacet
  facet normal 0 -0.0349 0.999391
    outer loop
      vertex 196.942 7.47551 15.1591
      vertex 196.942 5.47673 15.0893
      vertex 197.356 5.47673 15.0893
    endloop
  endfacet
  facet normal 2.96906e-05 -0.0348812 0.999391
    outer loop
      vertex 194.647 7.7658 15.1693
      vertex 196.942 7.47551 15.1591
      vertex 196.185 9.30282 15.2229
    endloop
  endfacet
  facet normal 0 -0.0349 0.999391
    outer loop
      vertex 196.942 7.47551 15.1591
      vertex 195.181 6.47612 15.1242
      vertex 196.942 5.47673 15.0893
    endloop
  endfacet
  facet normal 1.34084e-05 -0.0348764 0.999392
    outer loop
      vertex 194.647 5.18643 15.0792
      vertex 196.942 5.47673 15.0893
      vertex 195.181 6.47612 15.1242
    endloop
  endfacet
  facet normal 2.23256e-05 -0.0349393 0.999389
    outer loop
      vertex 196.942 7.47551 15.1591
      vertex 194.647 7.7658 15.1693
      vertex 195.181 6.47612 15.1242
    endloop
  endfacet
  facet normal 1.70573e-05 -0.0348685 0.999392
    outer loop
      vertex 193.356 10.4737 15.2638
      vertex 194.647 7.7658 15.1693
      vertex 196.185 9.30282 15.2229
    endloop
  endfacet
  facet normal -4.09408e-05 -0.0348962 0.999391
    outer loop
      vertex 193.356 10.4737 15.2638
      vertex 193.356 8.3 15.1879
      vertex 194.647 7.7658 15.1693
    endloop
  endfacet
  facet normal 4.09725e-05 -0.0348962 0.999391
    outer loop
      vertex 193.356 10.4737 15.2638
      vertex 192.066 7.7658 15.1693
      vertex 193.356 8.3 15.1879
    endloop
  endfacet
  facet normal -2.96791e-05 -0.0348812 0.999391
    outer loop
      vertex 189.77 7.47551 15.1591
      vertex 192.066 7.7658 15.1693
      vertex 190.528 9.30282 15.2229
    endloop
  endfacet
  facet normal -1.70616e-05 -0.0348685 0.999392
    outer loop
      vertex 190.528 9.30282 15.2229
      vertex 192.066 7.7658 15.1693
      vertex 193.356 10.4737 15.2638
    endloop
  endfacet
  facet normal 1.63989e-05 -0.0349 0.999391
    outer loop
      vertex 196.942 5.47673 15.0893
      vertex 194.647 5.18643 15.0792
      vertex 196.185 3.64941 15.0255
    endloop
  endfacet
  facet normal -1.98511e-05 -0.0349363 0.99939
    outer loop
      vertex 193.356 4.65223 15.0605
      vertex 196.185 3.64941 15.0255
      vertex 194.647 5.18643 15.0792
    endloop
  endfacet
  facet normal -5.72688e-06 -0.0348965 0.999391
    outer loop
      vertex 193.356 4.65223 15.0605
      vertex 193.356 2.47855 14.9846
      vertex 196.185 3.64941 15.0255
    endloop
  endfacet
  facet normal 3.63667e-05 -0.0348965 0.999391
    outer loop
      vertex 192.066 5.18643 15.0792
      vertex 193.356 2.47855 14.9846
      vertex 193.356 4.65223 15.0605
    endloop
  endfacet
  facet normal -1.79867e-06 -0.0349146 0.99939
    outer loop
      vertex 192.066 5.18643 15.0792
      vertex 190.528 3.64941 15.0255
      vertex 193.356 2.47855 14.9846
    endloop
  endfacet
  facet normal -1.34036e-05 -0.0348764 0.999392
    outer loop
      vertex 189.77 5.47673 15.0893
      vertex 192.066 5.18643 15.0792
      vertex 191.531 6.47612 15.1242
    endloop
  endfacet
  facet normal -2.23176e-05 -0.0349393 0.999389
    outer loop
      vertex 192.066 7.7658 15.1693
      vertex 189.77 7.47551 15.1591
      vertex 191.531 6.47612 15.1242
    endloop
  endfacet
  facet normal 0 -0.0349 0.999391
    outer loop
      vertex 189.77 5.47673 15.0893
      vertex 191.531 6.47612 15.1242
      vertex 189.77 7.47551 15.1591
    endloop
  endfacet
  facet normal -1.63926e-05 -0.0349 0.999391
    outer loop
      vertex 192.066 5.18643 15.0792
      vertex 189.77 5.47673 15.0893
      vertex 190.528 3.64941 15.0255
    endloop
  endfacet
  facet normal 0 -0.0349 0.999391
    outer loop
      vertex 189.356 7.47551 15.1591
      vertex 189.77 5.47673 15.0893
      vertex 189.77 7.47551 15.1591
    endloop
  endfacet
  facet normal 0 -0.0349 0.999391
    outer loop
      vertex 189.77 5.47673 15.0893
      vertex 189.356 7.47551 15.1591
      vertex 189.356 5.47673 15.0893
    endloop
  endfacet
  facet normal 0.970144 -0.00824119 0.242391
    outer loop
      vertex 197.356 7.47551 15.1591
      vertex 201.131 6.00366 0
      vertex 201.148 8.00488 0
    endloop
  endfacet
  facet normal 0.970137 -0.00846529 0.242411
    outer loop
      vertex 201.131 6.00366 0
      vertex 197.356 7.47551 15.1591
      vertex 197.356 5.47673 15.0893
    endloop
  endfacet
  facet normal 0 -0.999391 -0.0348995
    outer loop
      vertex 196.942 6.00366 0
      vertex 197.356 5.47673 15.0893
      vertex 196.942 5.47673 15.0893
    endloop
  endfacet
  facet normal 0 -0.999391 -0.0348995
    outer loop
      vertex 197.356 5.47673 15.0893
      vertex 196.942 6.00366 0
      vertex 201.131 6.00366 0
    endloop
  endfacet
  facet normal -0 -0.999391 -0.0348995
    outer loop
      vertex 189.77 6.00366 0
      vertex 189.356 5.47673 15.0893
      vertex 185.582 6.00366 0
    endloop
  endfacet
  facet normal 0 -0.999391 -0.0348995
    outer loop
      vertex 189.356 5.47673 15.0893
      vertex 189.77 6.00366 0
      vertex 189.77 5.47673 15.0893
    endloop
  endfacet
  facet normal -0 0.999391 0.0348997
    outer loop
      vertex 196.942 8.00488 0
      vertex 197.356 7.47551 15.1591
      vertex 201.148 8.00488 0
    endloop
  endfacet
  facet normal 0 0.999391 0.0348997
    outer loop
      vertex 197.356 7.47551 15.1591
      vertex 196.942 8.00488 0
      vertex 196.942 7.47551 15.1591
    endloop
  endfacet
  facet normal 0 0.999391 0.0348997
    outer loop
      vertex 189.77 8.00488 0
      vertex 189.356 7.47551 15.1591
      vertex 189.77 7.47551 15.1591
    endloop
  endfacet
  facet normal 0 0.999391 0.0348997
    outer loop
      vertex 189.356 7.47551 15.1591
      vertex 189.77 8.00488 0
      vertex 185.564 8.00488 0
    endloop
  endfacet
  facet normal -0.970144 -0.00872597 0.242374
    outer loop
      vertex 185.582 6.00366 0
      vertex 189.356 7.47551 15.1591
      vertex 185.564 8.00488 0
    endloop
  endfacet
  facet normal -0.970152 -0.00846318 0.24235
    outer loop
      vertex 189.356 7.47551 15.1591
      vertex 185.582 6.00366 0
      vertex 189.356 5.47673 15.0893
    endloop
  endfacet
  facet normal 0.92388 0.382449 0.0133554
    outer loop
      vertex 5.175 6.47612 15.1242
      vertex 5.70953 5.78285 -2
      vertex 5.175 7.07411 -2
    endloop
  endfacet
  facet normal 0.92388 0.382449 0.0133554
    outer loop
      vertex 5.70953 5.78285 -2
      vertex 5.175 6.47612 15.1242
      vertex 5.70953 5.18643 15.0792
    endloop
  endfacet
  facet normal -0.382679 -0.923318 -0.0322433
    outer loop
      vertex 7 8.90022 -2
      vertex 8.29047 7.7658 15.1693
      vertex 7 8.3 15.1879
    endloop
  endfacet
  facet normal -0.382686 -0.923316 -0.0322426
    outer loop
      vertex 8.29047 7.7658 15.1693
      vertex 7 8.90022 -2
      vertex 8.29047 8.36536 -2
    endloop
  endfacet
  facet normal -0.923879 -0.382452 -0.0133554
    outer loop
      vertex 8.825 7.07411 -2
      vertex 8.29047 7.7658 15.1693
      vertex 8.29047 8.36536 -2
    endloop
  endfacet
  facet normal -0.923879 -0.382451 -0.0133555
    outer loop
      vertex 8.29047 7.7658 15.1693
      vertex 8.825 7.07411 -2
      vertex 8.825 6.47612 15.1242
    endloop
  endfacet
  facet normal -0.92388 0.382449 0.0133554
    outer loop
      vertex 8.29047 5.78285 -2
      vertex 8.825 6.47612 15.1242
      vertex 8.825 7.07411 -2
    endloop
  endfacet
  facet normal -0.92388 0.382449 0.0133554
    outer loop
      vertex 8.825 6.47612 15.1242
      vertex 8.29047 5.78285 -2
      vertex 8.29047 5.18643 15.0792
    endloop
  endfacet
  facet normal 0.38268 0.923318 0.0322432
    outer loop
      vertex 5.70953 5.78285 -2
      vertex 7 4.65223 15.0605
      vertex 7 5.248 -2
    endloop
  endfacet
  facet normal 0.382682 0.923317 0.032243
    outer loop
      vertex 7 4.65223 15.0605
      vertex 5.70953 5.78285 -2
      vertex 5.70953 5.18643 15.0792
    endloop
  endfacet
  facet normal 0.382686 -0.923316 -0.0322426
    outer loop
      vertex 7 8.90022 -2
      vertex 5.70953 7.7658 15.1693
      vertex 5.70953 8.36536 -2
    endloop
  endfacet
  facet normal 0.382679 -0.923318 -0.0322433
    outer loop
      vertex 5.70953 7.7658 15.1693
      vertex 7 8.90022 -2
      vertex 7 8.3 15.1879
    endloop
  endfacet
  facet normal 0.923879 -0.382452 -0.0133554
    outer loop
      vertex 5.70953 7.7658 15.1693
      vertex 5.175 7.07411 -2
      vertex 5.70953 8.36536 -2
    endloop
  endfacet
  facet normal 0.923879 -0.382451 -0.0133555
    outer loop
      vertex 5.175 7.07411 -2
      vertex 5.70953 7.7658 15.1693
      vertex 5.175 6.47612 15.1242
    endloop
  endfacet
  facet normal -0.382682 0.923317 0.032243
    outer loop
      vertex 8.29047 5.78285 -2
      vertex 7 4.65223 15.0605
      vertex 8.29047 5.18643 15.0792
    endloop
  endfacet
  facet normal -0.38268 0.923318 0.0322432
    outer loop
      vertex 7 4.65223 15.0605
      vertex 8.29047 5.78285 -2
      vertex 7 5.248 -2
    endloop
  endfacet
  facet normal 0.382771 0.92328 0.0322527
    outer loop
      vertex 5.70953 143.692 -2
      vertex 7 142.393 19.8706
      vertex 7 143.157 -2
    endloop
  endfacet
  facet normal 0.382557 0.923368 0.0322706
    outer loop
      vertex 7 142.393 19.8706
      vertex 5.70953 143.692 -2
      vertex 5.70953 142.927 19.8892
    endloop
  endfacet
  facet normal -0.382557 -0.923369 -0.0322371
    outer loop
      vertex 7 146.809 -2
      vertex 8.29047 145.507 19.9793
      vertex 7 146.041 19.9979
    endloop
  endfacet
  facet normal -0.382772 -0.923281 -0.0322192
    outer loop
      vertex 8.29047 145.507 19.9793
      vertex 7 146.809 -2
      vertex 8.29047 146.274 -2
    endloop
  endfacet
  facet normal -0.923853 -0.382515 -0.0133484
    outer loop
      vertex 8.825 144.983 -2
      vertex 8.29047 145.507 19.9793
      vertex 8.29047 146.274 -2
    endloop
  endfacet
  facet normal -0.923913 -0.38237 -0.0133534
    outer loop
      vertex 8.29047 145.507 19.9793
      vertex 8.825 144.983 -2
      vertex 8.825 144.217 19.9342
    endloop
  endfacet
  facet normal 0.382772 -0.923281 -0.0322192
    outer loop
      vertex 7 146.809 -2
      vertex 5.70953 145.507 19.9793
      vertex 5.70953 146.274 -2
    endloop
  endfacet
  facet normal 0.382557 -0.923369 -0.0322371
    outer loop
      vertex 5.70953 145.507 19.9793
      vertex 7 146.809 -2
      vertex 7 146.041 19.9979
    endloop
  endfacet
  facet normal -0.382557 0.923368 0.0322706
    outer loop
      vertex 8.29047 143.692 -2
      vertex 7 142.393 19.8706
      vertex 8.29047 142.927 19.8892
    endloop
  endfacet
  facet normal -0.382771 0.92328 0.0322527
    outer loop
      vertex 7 142.393 19.8706
      vertex 8.29047 143.692 -2
      vertex 7 143.157 -2
    endloop
  endfacet
  facet normal -0.923853 0.382515 0.0133584
    outer loop
      vertex 8.29047 143.692 -2
      vertex 8.825 144.217 19.9342
      vertex 8.825 144.983 -2
    endloop
  endfacet
  facet normal -0.923913 0.38237 0.0133634
    outer loop
      vertex 8.825 144.217 19.9342
      vertex 8.29047 143.692 -2
      vertex 8.29047 142.927 19.8892
    endloop
  endfacet
  facet normal 0.923853 0.382515 0.0133584
    outer loop
      vertex 5.175 144.217 19.9342
      vertex 5.70953 143.692 -2
      vertex 5.175 144.983 -2
    endloop
  endfacet
  facet normal 0.923913 0.38237 0.0133634
    outer loop
      vertex 5.70953 143.692 -2
      vertex 5.175 144.217 19.9342
      vertex 5.70953 142.927 19.8892
    endloop
  endfacet
  facet normal 0.923853 -0.382515 -0.0133484
    outer loop
      vertex 5.70953 145.507 19.9793
      vertex 5.175 144.983 -2
      vertex 5.70953 146.274 -2
    endloop
  endfacet
  facet normal 0.923913 -0.38237 -0.0133534
    outer loop
      vertex 5.175 144.983 -2
      vertex 5.70953 145.507 19.9793
      vertex 5.175 144.217 19.9342
    endloop
  endfacet
  facet normal 0.38289 0.923231 0.032251
    outer loop
      vertex 192.066 143.692 -2
      vertex 193.356 142.393 19.8706
      vertex 193.356 143.157 -2
    endloop
  endfacet
  facet normal 0.382676 0.923319 0.0322688
    outer loop
      vertex 193.356 142.393 19.8706
      vertex 192.066 143.692 -2
      vertex 192.066 142.927 19.8892
    endloop
  endfacet
  facet normal -0.382423 -0.923425 -0.032239
    outer loop
      vertex 193.356 146.809 -2
      vertex 194.647 145.507 19.9793
      vertex 193.356 146.041 19.9979
    endloop
  endfacet
  facet normal -0.382638 -0.923337 -0.0322212
    outer loop
      vertex 194.647 145.507 19.9793
      vertex 193.356 146.809 -2
      vertex 194.647 146.274 -2
    endloop
  endfacet
  facet normal -0.923987 -0.382191 -0.0133371
    outer loop
      vertex 195.181 144.983 -2
      vertex 194.647 145.507 19.9793
      vertex 194.647 146.274 -2
    endloop
  endfacet
  facet normal -0.924047 -0.382046 -0.0133421
    outer loop
      vertex 194.647 145.507 19.9793
      vertex 195.181 144.983 -2
      vertex 195.181 144.217 19.9342
    endloop
  endfacet
  facet normal 0.382891 -0.923232 -0.0322175
    outer loop
      vertex 193.356 146.809 -2
      vertex 192.066 145.507 19.9793
      vertex 192.066 146.274 -2
    endloop
  endfacet
  facet normal 0.382676 -0.92332 -0.0322353
    outer loop
      vertex 192.066 145.507 19.9793
      vertex 193.356 146.809 -2
      vertex 193.356 146.041 19.9979
    endloop
  endfacet
  facet normal -0.382423 0.923423 0.0322725
    outer loop
      vertex 194.647 143.692 -2
      vertex 193.356 142.393 19.8706
      vertex 194.647 142.927 19.8892
    endloop
  endfacet
  facet normal -0.382637 0.923336 0.0322546
    outer loop
      vertex 193.356 142.393 19.8706
      vertex 194.647 143.692 -2
      vertex 193.356 143.157 -2
    endloop
  endfacet
  facet normal -0.923987 0.382191 0.0133471
    outer loop
      vertex 194.647 143.692 -2
      vertex 195.181 144.217 19.9342
      vertex 195.181 144.983 -2
    endloop
  endfacet
  facet normal -0.924047 0.382047 0.013352
    outer loop
      vertex 195.181 144.217 19.9342
      vertex 194.647 143.692 -2
      vertex 194.647 142.927 19.8892
    endloop
  endfacet
  facet normal 0.923734 0.382802 0.0133685
    outer loop
      vertex 191.531 144.217 19.9342
      vertex 192.066 143.692 -2
      vertex 191.531 144.983 -2
    endloop
  endfacet
  facet normal 0.923794 0.382657 0.0133734
    outer loop
      vertex 192.066 143.692 -2
      vertex 191.531 144.217 19.9342
      vertex 192.066 142.927 19.8892
    endloop
  endfacet
  facet normal 0.923734 -0.382802 -0.0133584
    outer loop
      vertex 192.066 145.507 19.9793
      vertex 191.531 144.983 -2
      vertex 192.066 146.274 -2
    endloop
  endfacet
  facet normal 0.923794 -0.382657 -0.0133634
    outer loop
      vertex 191.531 144.983 -2
      vertex 192.066 145.507 19.9793
      vertex 191.531 144.217 19.9342
    endloop
  endfacet
  facet normal -0.382545 -0.923374 -0.0322452
    outer loop
      vertex 193.356 8.90022 -2
      vertex 194.647 7.7658 15.1693
      vertex 193.356 8.3 15.1879
    endloop
  endfacet
  facet normal -0.382552 -0.923371 -0.0322446
    outer loop
      vertex 194.647 7.7658 15.1693
      vertex 193.356 8.90022 -2
      vertex 194.647 8.36536 -2
    endloop
  endfacet
  facet normal -0.924013 -0.382128 -0.0133441
    outer loop
      vertex 195.181 7.07411 -2
      vertex 194.647 7.7658 15.1693
      vertex 194.647 8.36536 -2
    endloop
  endfacet
  facet normal -0.924014 -0.382127 -0.0133442
    outer loop
      vertex 194.647 7.7658 15.1693
      vertex 195.181 7.07411 -2
      vertex 195.181 6.47612 15.1242
    endloop
  endfacet
  facet normal 0.382805 -0.923266 -0.0322409
    outer loop
      vertex 193.356 8.90022 -2
      vertex 192.066 7.7658 15.1693
      vertex 192.066 8.36536 -2
    endloop
  endfacet
  facet normal 0.382798 -0.923269 -0.0322416
    outer loop
      vertex 192.066 7.7658 15.1693
      vertex 193.356 8.90022 -2
      vertex 193.356 8.3 15.1879
    endloop
  endfacet
  facet normal -0.924014 0.382126 0.0133441
    outer loop
      vertex 194.647 5.78285 -2
      vertex 195.181 6.47612 15.1242
      vertex 195.181 7.07411 -2
    endloop
  endfacet
  facet normal -0.924014 0.382125 0.0133441
    outer loop
      vertex 195.181 6.47612 15.1242
      vertex 194.647 5.78285 -2
      vertex 194.647 5.18643 15.0792
    endloop
  endfacet
  facet normal 0.92376 -0.382739 -0.0133654
    outer loop
      vertex 192.066 7.7658 15.1693
      vertex 191.531 7.07411 -2
      vertex 192.066 8.36536 -2
    endloop
  endfacet
  facet normal 0.92376 -0.382738 -0.0133655
    outer loop
      vertex 191.531 7.07411 -2
      vertex 192.066 7.7658 15.1693
      vertex 191.531 6.47612 15.1242
    endloop
  endfacet
  facet normal 0.382799 0.923269 0.0322415
    outer loop
      vertex 192.066 5.78285 -2
      vertex 193.356 4.65223 15.0605
      vertex 193.356 5.248 -2
    endloop
  endfacet
  facet normal 0.382801 0.923268 0.0322413
    outer loop
      vertex 193.356 4.65223 15.0605
      vertex 192.066 5.78285 -2
      vertex 192.066 5.18643 15.0792
    endloop
  endfacet
  facet normal -0.382548 0.923373 0.032245
    outer loop
      vertex 194.647 5.78285 -2
      vertex 193.356 4.65223 15.0605
      vertex 194.647 5.18643 15.0792
    endloop
  endfacet
  facet normal -0.382546 0.923374 0.0322451
    outer loop
      vertex 193.356 4.65223 15.0605
      vertex 194.647 5.78285 -2
      vertex 193.356 5.248 -2
    endloop
  endfacet
  facet normal 0.923761 0.382736 0.0133654
    outer loop
      vertex 191.531 6.47612 15.1242
      vertex 192.066 5.78285 -2
      vertex 191.531 7.07411 -2
    endloop
  endfacet
  facet normal 0.923761 0.382736 0.0133655
    outer loop
      vertex 192.066 5.78285 -2
      vertex 191.531 6.47612 15.1242
      vertex 192.066 5.18643 15.0792
    endloop
  endfacet
  facet normal 0 0 -1
    outer loop
      vertex 8.29047 143.692 -2
      vertex 192.066 143.692 -2
      vertex 8.29047 8.36536 -2
    endloop
  endfacet
  facet normal 0 0 -1
    outer loop
      vertex 192.066 143.692 -2
      vertex 8.29047 143.692 -2
      vertex 8.825 144.983 -2
    endloop
  endfacet
  facet normal 0 0 -1
    outer loop
      vertex 7 8.90022 -2
      vertex 8.29047 143.692 -2
      vertex 8.29047 8.36536 -2
    endloop
  endfacet
  facet normal 0 0 -1
    outer loop
      vertex 7 8.90022 -2
      vertex 7 143.157 -2
      vertex 8.29047 143.692 -2
    endloop
  endfacet
  facet normal 0 0 -1
    outer loop
      vertex 5.70953 8.36536 -2
      vertex 7 143.157 -2
      vertex 7 8.90022 -2
    endloop
  endfacet
  facet normal 0 0 -1
    outer loop
      vertex 5.70953 8.36536 -2
      vertex 5.70953 143.692 -2
      vertex 7 143.157 -2
    endloop
  endfacet
  facet normal 0 0 -1
    outer loop
      vertex 0 5.07289 -2
      vertex 5.70953 8.36536 -2
      vertex 5.175 7.07411 -2
    endloop
  endfacet
  facet normal -0 0 -1
    outer loop
      vertex 5.70953 8.36536 -2
      vertex 0 5.07289 -2
      vertex 5.70953 143.692 -2
    endloop
  endfacet
  facet normal 0 0 -1
    outer loop
      vertex 194.647 143.692 -2
      vertex 214.356 151.987 -2
      vertex 194.647 8.36536 -2
    endloop
  endfacet
  facet normal 0 0 -1
    outer loop
      vertex 214.356 151.987 -2
      vertex 194.647 143.692 -2
      vertex 195.181 144.983 -2
    endloop
  endfacet
  facet normal 0 0 -1
    outer loop
      vertex 193.356 8.90022 -2
      vertex 194.647 143.692 -2
      vertex 194.647 8.36536 -2
    endloop
  endfacet
  facet normal 0 0 -1
    outer loop
      vertex 193.356 8.90022 -2
      vertex 193.356 143.157 -2
      vertex 194.647 143.692 -2
    endloop
  endfacet
  facet normal 0 0 -1
    outer loop
      vertex 192.066 8.36536 -2
      vertex 193.356 143.157 -2
      vertex 193.356 8.90022 -2
    endloop
  endfacet
  facet normal 0 0 -1
    outer loop
      vertex 192.066 8.36536 -2
      vertex 192.066 143.692 -2
      vertex 193.356 143.157 -2
    endloop
  endfacet
  facet normal 0 0 -1
    outer loop
      vertex 8.825 7.07411 -2
      vertex 192.066 8.36536 -2
      vertex 191.531 7.07411 -2
    endloop
  endfacet
  facet normal 0 0 -1
    outer loop
      vertex 8.29047 8.36536 -2
      vertex 192.066 8.36536 -2
      vertex 8.825 7.07411 -2
    endloop
  endfacet
  facet normal 0 0 -1
    outer loop
      vertex 194.647 8.36536 -2
      vertex 214.356 0.0698424 -2
      vertex 195.181 7.07411 -2
    endloop
  endfacet
  facet normal 0 0 -1
    outer loop
      vertex 214.356 0.0698424 -2
      vertex 194.647 5.78285 -2
      vertex 195.181 7.07411 -2
    endloop
  endfacet
  facet normal 0 0 -1
    outer loop
      vertex 214.356 0.0698424 -2
      vertex 193.356 5.248 -2
      vertex 194.647 5.78285 -2
    endloop
  endfacet
  facet normal 0 0 -1
    outer loop
      vertex 192.066 8.36536 -2
      vertex 8.29047 8.36536 -2
      vertex 192.066 143.692 -2
    endloop
  endfacet
  facet normal 0 0 -1
    outer loop
      vertex 192.066 5.78285 -2
      vertex 8.825 7.07411 -2
      vertex 191.531 7.07411 -2
    endloop
  endfacet
  facet normal 0 0 -1
    outer loop
      vertex 5 0.0698424 -2
      vertex 192.066 5.78285 -2
      vertex 193.356 5.248 -2
    endloop
  endfacet
  facet normal 0 0 -1
    outer loop
      vertex 5 0.0698424 -2
      vertex 193.356 5.248 -2
      vertex 214.356 0.0698424 -2
    endloop
  endfacet
  facet normal 0 0 -1
    outer loop
      vertex 192.066 5.78285 -2
      vertex 8.29047 5.78285 -2
      vertex 8.825 7.07411 -2
    endloop
  endfacet
  facet normal -0 0 -1
    outer loop
      vertex 192.066 5.78285 -2
      vertex 5 0.0698424 -2
      vertex 8.29047 5.78285 -2
    endloop
  endfacet
  facet normal 0 0 -1
    outer loop
      vertex 1.46447 1.5352 -2
      vertex 5.70953 5.78285 -2
      vertex 2.38045 1.15555 -2
    endloop
  endfacet
  facet normal 0 0 -1
    outer loop
      vertex 2.38045 1.15555 -2
      vertex 5.70953 5.78285 -2
      vertex 5 0.0698424 -2
    endloop
  endfacet
  facet normal -0 0 -1
    outer loop
      vertex 7 5.248 -2
      vertex 5 0.0698424 -2
      vertex 5.70953 5.78285 -2
    endloop
  endfacet
  facet normal 0 0 -1
    outer loop
      vertex 8.29047 5.78285 -2
      vertex 5 0.0698424 -2
      vertex 7 5.248 -2
    endloop
  endfacet
  facet normal 0 0 -1
    outer loop
      vertex 214.356 0.0698424 -2
      vertex 194.647 8.36536 -2
      vertex 214.356 151.987 -2
    endloop
  endfacet
  facet normal 0 0 -1
    outer loop
      vertex 194.647 146.274 -2
      vertex 214.356 151.987 -2
      vertex 195.181 144.983 -2
    endloop
  endfacet
  facet normal 0 0 -1
    outer loop
      vertex 193.356 146.809 -2
      vertex 214.356 151.987 -2
      vertex 194.647 146.274 -2
    endloop
  endfacet
  facet normal 0 0 -1
    outer loop
      vertex 192.066 143.692 -2
      vertex 8.825 144.983 -2
      vertex 191.531 144.983 -2
    endloop
  endfacet
  facet normal 0 0 -1
    outer loop
      vertex 191.531 144.983 -2
      vertex 8.825 144.983 -2
      vertex 192.066 146.274 -2
    endloop
  endfacet
  facet normal 0 0 -1
    outer loop
      vertex 8.29047 146.274 -2
      vertex 192.066 146.274 -2
      vertex 8.825 144.983 -2
    endloop
  endfacet
  facet normal 0 0 -1
    outer loop
      vertex 5 151.987 -2
      vertex 192.066 146.274 -2
      vertex 8.29047 146.274 -2
    endloop
  endfacet
  facet normal 0 0 -1
    outer loop
      vertex 192.066 146.274 -2
      vertex 5 151.987 -2
      vertex 193.356 146.809 -2
    endloop
  endfacet
  facet normal 0 0 -1
    outer loop
      vertex 5 151.987 -2
      vertex 8.29047 146.274 -2
      vertex 7 146.809 -2
    endloop
  endfacet
  facet normal 0 0 -1
    outer loop
      vertex 193.356 146.809 -2
      vertex 5 151.987 -2
      vertex 214.356 151.987 -2
    endloop
  endfacet
  facet normal 0 0 -1
    outer loop
      vertex 5.70953 146.274 -2
      vertex 5 151.987 -2
      vertex 7 146.809 -2
    endloop
  endfacet
  facet normal 0 0 -1
    outer loop
      vertex 0 146.984 -2
      vertex 5.70953 146.274 -2
      vertex 5.175 144.983 -2
    endloop
  endfacet
  facet normal 0 0 -1
    outer loop
      vertex 0 146.984 -2
      vertex 5.70953 143.692 -2
      vertex 0 5.07289 -2
    endloop
  endfacet
  facet normal 0 0 -1
    outer loop
      vertex 5.70953 146.274 -2
      vertex 0 146.984 -2
      vertex 0.97458 149.339 -2
    endloop
  endfacet
  facet normal -0 0 -1
    outer loop
      vertex 5.70953 5.78285 -2
      vertex 0 5.07289 -2
      vertex 5.175 7.07411 -2
    endloop
  endfacet
  facet normal 0 0 -1
    outer loop
      vertex 5.70953 5.78285 -2
      vertex 1.46447 1.5352 -2
      vertex 0 5.07289 -2
    endloop
  endfacet
  facet normal 0 0 -1
    outer loop
      vertex 5.70953 143.692 -2
      vertex 0 146.984 -2
      vertex 5.175 144.983 -2
    endloop
  endfacet
  facet normal 0 0 -1
    outer loop
      vertex 2.65017 151.013 -2
      vertex 0.97458 149.339 -2
      vertex 1.46447 150.522 -2
    endloop
  endfacet
  facet normal 0 0 -1
    outer loop
      vertex 5.70953 146.274 -2
      vertex 2.65017 151.013 -2
      vertex 5 151.987 -2
    endloop
  endfacet
  facet normal 0 0 -1
    outer loop
      vertex 5.70953 146.274 -2
      vertex 0.97458 149.339 -2
      vertex 2.65017 151.013 -2
    endloop
  endfacet
  facet normal 0 0 1
    outer loop
      vertex 4.17157 142.083 0
      vertex 6 135.999 0
      vertex 6 141.325 0
    endloop
  endfacet
  facet normal 0 0 1
    outer loop
      vertex 0 146.914 0
      vertex 6 135.999 0
      vertex 4.17157 142.083 0
    endloop
  endfacet
  facet normal 0 0 1
    outer loop
      vertex 0 5.00305 0
      vertex 6 135.999 0
      vertex 0 146.914 0
    endloop
  endfacet
  facet normal 0 0 1
    outer loop
      vertex 6 14.861 0
      vertex 4.17157 9.83442 0
      vertex 6 10.5922 0
    endloop
  endfacet
  facet normal 0 0 1
    outer loop
      vertex 0 146.914 0
      vertex 4.17157 142.083 0
      vertex 3 144.913 0
    endloop
  endfacet
  facet normal 0 0 1
    outer loop
      vertex 6 135.999 0
      vertex 0 5.00305 0
      vertex 6 14.861 0
    endloop
  endfacet
  facet normal -0 0 1
    outer loop
      vertex 6 135.999 0
      vertex 8 14.861 0
      vertex 8 135.999 0
    endloop
  endfacet
  facet normal 0 0 1
    outer loop
      vertex 8 14.861 0
      vertex 6 135.999 0
      vertex 6 14.861 0
    endloop
  endfacet
  facet normal 0 0 1
    outer loop
      vertex 9.82843 142.083 0
      vertex 15.9779 143.913 0
      vertex 10.5858 143.913 0
    endloop
  endfacet
  facet normal 0 0 1
    outer loop
      vertex 15.9779 143.913 0
      vertex 8 135.999 0
      vertex 14.7921 8.00488 0
    endloop
  endfacet
  facet normal 0 0 1
    outer loop
      vertex 15.9779 143.913 0
      vertex 9.82843 142.083 0
      vertex 8 135.999 0
    endloop
  endfacet
  facet normal -0 0 1
    outer loop
      vertex 8 14.861 0
      vertex 14.7921 8.00488 0
      vertex 8 135.999 0
    endloop
  endfacet
  facet normal 0 0 1
    outer loop
      vertex 8 135.999 0
      vertex 9.82843 142.083 0
      vertex 8 141.325 0
    endloop
  endfacet
  facet normal -0 -0 1
    outer loop
      vertex 9.82843 9.83442 0
      vertex 14.7921 8.00488 0
      vertex 8 14.861 0
    endloop
  endfacet
  facet normal 0 0 1
    outer loop
      vertex 14.7921 8.00488 0
      vertex 9.82843 9.83442 0
      vertex 10.5858 8.00488 0
    endloop
  endfacet
  facet normal 0 0 1
    outer loop
      vertex 9.82843 9.83442 0
      vertex 8 14.861 0
      vertex 8 10.5922 0
    endloop
  endfacet
  facet normal 0 0 1
    outer loop
      vertex 196.185 142.083 0
      vertex 202.334 143.913 0
      vertex 196.942 143.913 0
    endloop
  endfacet
  facet normal 0 0 1
    outer loop
      vertex 193.356 140.911 0
      vertex 202.334 143.913 0
      vertex 196.185 142.083 0
    endloop
  endfacet
  facet normal 0 0 1
    outer loop
      vertex 202.334 143.913 0
      vertex 196.185 9.83442 0
      vertex 201.148 8.00488 0
    endloop
  endfacet
  facet normal 0 0 1
    outer loop
      vertex 201.148 8.00488 0
      vertex 196.185 9.83442 0
      vertex 196.942 8.00488 0
    endloop
  endfacet
  facet normal 0 0 1
    outer loop
      vertex 193.356 11.0067 0
      vertex 202.334 143.913 0
      vertex 193.356 140.911 0
    endloop
  endfacet
  facet normal 0 0 1
    outer loop
      vertex 202.334 143.913 0
      vertex 193.356 11.0067 0
      vertex 196.185 9.83442 0
    endloop
  endfacet
  facet normal 0 0 1
    outer loop
      vertex 184.378 143.913 0
      vertex 193.356 140.911 0
      vertex 190.528 142.083 0
    endloop
  endfacet
  facet normal 0 0 1
    outer loop
      vertex 193.356 140.911 0
      vertex 184.378 143.913 0
      vertex 193.356 11.0067 0
    endloop
  endfacet
  facet normal -0 0 1
    outer loop
      vertex 184.378 143.913 0
      vertex 190.528 142.083 0
      vertex 189.77 143.913 0
    endloop
  endfacet
  facet normal 0 0 1
    outer loop
      vertex 193.356 11.0067 0
      vertex 184.378 143.913 0
      vertex 190.528 9.83442 0
    endloop
  endfacet
  facet normal 0 0 1
    outer loop
      vertex 190.528 9.83442 0
      vertex 185.564 8.00488 0
      vertex 189.77 8.00488 0
    endloop
  endfacet
  facet normal 0 0 1
    outer loop
      vertex 190.528 9.83442 0
      vertex 184.378 143.913 0
      vertex 185.564 8.00488 0
    endloop
  endfacet
  facet normal 0 0 1
    outer loop
      vertex 202.334 143.913 0
      vertex 214.356 151.918 0
      vertex 202.352 145.914 0
    endloop
  endfacet
  facet normal -0 0 1
    outer loop
      vertex 196.185 147.743 0
      vertex 202.352 145.914 0
      vertex 214.356 151.918 0
    endloop
  endfacet
  facet normal 0 0 1
    outer loop
      vertex 202.352 145.914 0
      vertex 196.185 147.743 0
      vertex 196.942 145.914 0
    endloop
  endfacet
  facet normal 0 0 1
    outer loop
      vertex 214.356 151.918 0
      vertex 193.356 148.916 0
      vertex 196.185 147.743 0
    endloop
  endfacet
  facet normal 0 0 1
    outer loop
      vertex 190.528 147.743 0
      vertex 184.361 145.914 0
      vertex 189.77 145.914 0
    endloop
  endfacet
  facet normal 0 0 1
    outer loop
      vertex 193.356 148.916 0
      vertex 184.361 145.914 0
      vertex 190.528 147.743 0
    endloop
  endfacet
  facet normal 0 0 1
    outer loop
      vertex 5 151.918 0
      vertex 184.361 145.914 0
      vertex 193.356 148.916 0
    endloop
  endfacet
  facet normal -0 0 1
    outer loop
      vertex 5 151.918 0
      vertex 193.356 148.916 0
      vertex 214.356 151.918 0
    endloop
  endfacet
  facet normal 0 0 1
    outer loop
      vertex 184.361 145.914 0
      vertex 5 151.918 0
      vertex 15.9953 145.914 0
    endloop
  endfacet
  facet normal 0 0 1
    outer loop
      vertex 15.9953 145.914 0
      vertex 9.82843 147.743 0
      vertex 10.5858 145.914 0
    endloop
  endfacet
  facet normal 0 0 1
    outer loop
      vertex 15.9953 145.914 0
      vertex 5 151.918 0
      vertex 9.82843 147.743 0
    endloop
  endfacet
  facet normal 0 0 1
    outer loop
      vertex 9.82843 147.743 0
      vertex 5 151.918 0
      vertex 7 148.916 0
    endloop
  endfacet
  facet normal 0 0 1
    outer loop
      vertex 5 151.918 0
      vertex 4.17157 147.743 0
      vertex 7 148.916 0
    endloop
  endfacet
  facet normal -0 0 1
    outer loop
      vertex 2.54689 150.901 0
      vertex 4.17157 147.743 0
      vertex 5 151.918 0
    endloop
  endfacet
  facet normal 0 0 1
    outer loop
      vertex 0 146.914 0
      vertex 4.17157 147.743 0
      vertex 1.01725 149.372 0
    endloop
  endfacet
  facet normal -0 0 1
    outer loop
      vertex 1.01725 149.372 0
      vertex 4.17157 147.743 0
      vertex 2.54689 150.901 0
    endloop
  endfacet
  facet normal 0 0 1
    outer loop
      vertex 214.356 151.918 0
      vertex 202.334 143.913 0
      vertex 214.356 8.8961e-07 0
    endloop
  endfacet
  facet normal -0 0 1
    outer loop
      vertex 201.148 8.00488 0
      vertex 214.356 8.8961e-07 0
      vertex 202.334 143.913 0
    endloop
  endfacet
  facet normal -0 0 1
    outer loop
      vertex 201.131 6.00366 0
      vertex 214.356 8.8961e-07 0
      vertex 201.148 8.00488 0
    endloop
  endfacet
  facet normal 0 0 1
    outer loop
      vertex 196.185 4.17412 0
      vertex 201.131 6.00366 0
      vertex 196.942 6.00366 0
    endloop
  endfacet
  facet normal 0 0 1
    outer loop
      vertex 201.131 6.00366 0
      vertex 196.185 4.17412 0
      vertex 214.356 8.8961e-07 0
    endloop
  endfacet
  facet normal -0 0 1
    outer loop
      vertex 193.356 3.00183 0
      vertex 214.356 8.8961e-07 0
      vertex 196.185 4.17412 0
    endloop
  endfacet
  facet normal -0 0 1
    outer loop
      vertex 185.582 6.00366 0
      vertex 190.528 4.17412 0
      vertex 189.77 6.00366 0
    endloop
  endfacet
  facet normal 0 0 1
    outer loop
      vertex 185.582 6.00366 0
      vertex 193.356 3.00183 0
      vertex 190.528 4.17412 0
    endloop
  endfacet
  facet normal 0 0 1
    outer loop
      vertex 14.7921 8.00488 0
      vertex 185.564 8.00488 0
      vertex 184.378 143.913 0
    endloop
  endfacet
  facet normal 0 0 1
    outer loop
      vertex 15.9779 143.913 0
      vertex 184.378 143.913 0
      vertex 184.361 145.914 0
    endloop
  endfacet
  facet normal 0 0 1
    outer loop
      vertex 15.9779 143.913 0
      vertex 184.361 145.914 0
      vertex 15.9953 145.914 0
    endloop
  endfacet
  facet normal 0 0 1
    outer loop
      vertex 14.7921 8.00488 0
      vertex 184.378 143.913 0
      vertex 15.9779 143.913 0
    endloop
  endfacet
  facet normal 0 0 1
    outer loop
      vertex 185.564 8.00488 0
      vertex 14.7921 8.00488 0
      vertex 185.582 6.00366 0
    endloop
  endfacet
  facet normal 0 0 1
    outer loop
      vertex 14.7746 6.00366 0
      vertex 185.582 6.00366 0
      vertex 14.7921 8.00488 0
    endloop
  endfacet
  facet normal 0 0 1
    outer loop
      vertex 5 8.8961e-07 0
      vertex 185.582 6.00366 0
      vertex 14.7746 6.00366 0
    endloop
  endfacet
  facet normal 0 0 1
    outer loop
      vertex 185.582 6.00366 0
      vertex 5 8.8961e-07 0
      vertex 193.356 3.00183 0
    endloop
  endfacet
  facet normal 0 0 1
    outer loop
      vertex 9.82843 4.17412 0
      vertex 14.7746 6.00366 0
      vertex 10.5858 6.00366 0
    endloop
  endfacet
  facet normal 0 0 1
    outer loop
      vertex 5 8.8961e-07 0
      vertex 14.7746 6.00366 0
      vertex 9.82843 4.17412 0
    endloop
  endfacet
  facet normal 0 0 1
    outer loop
      vertex 5 8.8961e-07 0
      vertex 9.82843 4.17412 0
      vertex 7 3.00183 0
    endloop
  endfacet
  facet normal 0 0 1
    outer loop
      vertex 193.356 3.00183 0
      vertex 5 8.8961e-07 0
      vertex 214.356 8.8961e-07 0
    endloop
  endfacet
  facet normal 0 0 1
    outer loop
      vertex 4.17157 4.17412 0
      vertex 5 8.8961e-07 0
      vertex 7 3.00183 0
    endloop
  endfacet
  facet normal -0 0 1
    outer loop
      vertex 0 5.00305 0
      vertex 4.17157 4.17412 0
      vertex 3 7.00427 0
    endloop
  endfacet
  facet normal 0 0 1
    outer loop
      vertex 4.17157 4.17412 0
      vertex 2.27732 1.12846 0
      vertex 5 8.8961e-07 0
    endloop
  endfacet
  facet normal 0 0 1
    outer loop
      vertex 6 14.861 0
      vertex 0 5.00305 0
      vertex 4.17157 9.83442 0
    endloop
  endfacet
  facet normal 0 0 1
    outer loop
      vertex 1.01725 149.372 0
      vertex 2.54689 150.901 0
      vertex 1.46447 150.452 0
    endloop
  endfacet
  facet normal 0 0 1
    outer loop
      vertex 4.17157 147.743 0
      vertex 0 146.914 0
      vertex 3 144.913 0
    endloop
  endfacet
  facet normal 0 0 1
    outer loop
      vertex 4.17157 9.83442 0
      vertex 0 5.00305 0
      vertex 3 7.00427 0
    endloop
  endfacet
  facet normal 0 0 1
    outer loop
      vertex 4.17157 4.17412 0
      vertex 0 5.00305 0
      vertex 1.46447 1.46536 0
    endloop
  endfacet
  facet normal 0 0 1
    outer loop
      vertex 4.17157 4.17412 0
      vertex 1.46447 1.46536 0
      vertex 2.27732 1.12846 0
    endloop
  endfacet
  facet normal -0.92392 0.38235 0.0134031
    outer loop
      vertex 0 146.984 -2
      vertex 1.01725 149.372 0
      vertex 0.97458 149.339 -2
    endloop
  endfacet
  facet normal -0.923915 0.382365 0.0133828
    outer loop
      vertex 1.01725 149.372 0
      vertex 0 146.984 -2
      vertex 0 146.914 0
    endloop
  endfacet
  facet normal 0 0.999405 0.0344795
    outer loop
      vertex 214.356 151.987 -2
      vertex 5 151.918 0
      vertex 214.356 151.918 0
    endloop
  endfacet
  facet normal 0 0.999405 0.0344795
    outer loop
      vertex 5 151.918 0
      vertex 214.356 151.987 -2
      vertex 5 151.987 -2
    endloop
  endfacet
  facet normal -0.382399 0.923444 0.0319658
    outer loop
      vertex 1.46447 150.522 -2
      vertex 2.54689 150.901 0
      vertex 2.65017 151.013 -2
    endloop
  endfacet
  facet normal -0.382955 0.923202 0.0323121
    outer loop
      vertex 2.54689 150.901 0
      vertex 1.46447 150.522 -2
      vertex 1.46447 150.452 0
    endloop
  endfacet
  facet normal -0.382685 -0.923316 -0.0322422
    outer loop
      vertex 1.46447 1.5352 -2
      vertex 2.27732 1.12846 0
      vertex 1.46447 1.46536 0
    endloop
  endfacet
  facet normal -0.38269 -0.923314 -0.0322397
    outer loop
      vertex 2.27732 1.12846 0
      vertex 1.46447 1.5352 -2
      vertex 2.38045 1.15555 -2
    endloop
  endfacet
  facet normal -0.382713 0.923318 0.0318545
    outer loop
      vertex 2.65017 151.013 -2
      vertex 5 151.918 0
      vertex 5 151.987 -2
    endloop
  endfacet
  facet normal -0.382774 0.92329 0.0319378
    outer loop
      vertex 5 151.918 0
      vertex 2.65017 151.013 -2
      vertex 2.54689 150.901 0
    endloop
  endfacet
  facet normal -0.382684 -0.923317 -0.0322394
    outer loop
      vertex 2.38045 1.15555 -2
      vertex 5 8.8961e-07 0
      vertex 2.27732 1.12846 0
    endloop
  endfacet
  facet normal -0.382681 -0.923318 -0.0322429
    outer loop
      vertex 5 8.8961e-07 0
      vertex 2.38045 1.15555 -2
      vertex 5 0.0698424 -2
    endloop
  endfacet
  facet normal 0 -0.999391 -0.0348995
    outer loop
      vertex 5 0.0698424 -2
      vertex 214.356 8.8961e-07 0
      vertex 5 8.8961e-07 0
    endloop
  endfacet
  facet normal 0 -0.999391 -0.0348995
    outer loop
      vertex 214.356 8.8961e-07 0
      vertex 5 0.0698424 -2
      vertex 214.356 0.0698424 -2
    endloop
  endfacet
  facet normal -0.923831 0.382566 0.0133898
    outer loop
      vertex 0.97458 149.339 -2
      vertex 1.46447 150.452 0
      vertex 1.46447 150.522 -2
    endloop
  endfacet
  facet normal -0.923836 0.382554 0.0133979
    outer loop
      vertex 1.46447 150.452 0
      vertex 0.97458 149.339 -2
      vertex 1.01725 149.372 0
    endloop
  endfacet
  facet normal -0.923879 -0.382451 -0.0133552
    outer loop
      vertex 1.46447 1.5352 -2
      vertex 0 5.00305 0
      vertex 0 5.07289 -2
    endloop
  endfacet
  facet normal -0.923879 -0.382451 -0.0133552
    outer loop
      vertex 0 5.00305 0
      vertex 1.46447 1.5352 -2
      vertex 1.46447 1.46536 0
    endloop
  endfacet
  facet normal -1 0 0
    outer loop
      vertex 0 5.07289 -2
      vertex 0 146.914 0
      vertex 0 146.984 -2
    endloop
  endfacet
  facet normal -1 -0 0
    outer loop
      vertex 0 146.914 0
      vertex 0 5.07289 -2
      vertex 0 5.00305 0
    endloop
  endfacet
  facet normal 1 0 0
    outer loop
      vertex 214.356 151.918 0
      vertex 214.356 0.0698424 -2
      vertex 214.356 151.987 -2
    endloop
  endfacet
  facet normal 1 0 -0
    outer loop
      vertex 214.356 0.0698424 -2
      vertex 214.356 151.918 0
      vertex 214.356 8.8961e-07 0
    endloop
  endfacet
endsolid OpenSCAD_Model
