solid OpenSCAD_Model
  facet normal -0.92388 -0.38245 -0.0133555
    outer loop
      vertex 4.17157 4.17412 0
      vertex 3 6.47612 15.1242
      vertex 3 7.00427 0
    endloop
  endfacet
  facet normal -0.92388 -0.382449 -0.0133556
    outer loop
      vertex 3 6.47612 15.1242
      vertex 4.17157 4.17412 0
      vertex 4.17157 3.64941 15.0255
    endloop
  endfacet
  facet normal 0.382665 0.923324 0.0322435
    outer loop
      vertex 8 10.5922 0
      vertex 9.82843 9.30282 15.2229
      vertex 9.82843 9.83442 0
    endloop
  endfacet
  facet normal 0.382676 0.92332 0.0322418
    outer loop
      vertex 9.82843 9.30282 15.2229
      vertex 8 10.5922 0
      vertex 8 10.0597 15.2494
    endloop
  endfacet
  facet normal 0.923878 0.382455 0.0133557
    outer loop
      vertex 9.82843 9.30282 15.2229
      vertex 10.5858 8.00488 0
      vertex 9.82843 9.83442 0
    endloop
  endfacet
  facet normal 0.923877 0.382456 0.0133557
    outer loop
      vertex 10.5858 8.00488 0
      vertex 9.82843 9.30282 15.2229
      vertex 10.5858 7.47551 15.1591
    endloop
  endfacet
  facet normal 0.923878 -0.382455 -0.0133556
    outer loop
      vertex 10.5858 5.47673 15.0893
      vertex 9.82843 4.17412 0
      vertex 10.5858 6.00366 0
    endloop
  endfacet
  facet normal 0.923878 -0.382454 -0.0133558
    outer loop
      vertex 9.82843 4.17412 0
      vertex 10.5858 5.47673 15.0893
      vertex 9.82843 3.64941 15.0255
    endloop
  endfacet
  facet normal -0.382683 -0.923317 -0.0322434
    outer loop
      vertex 4.17157 4.17412 0
      vertex 7 2.47855 14.9846
      vertex 4.17157 3.64941 15.0255
    endloop
  endfacet
  facet normal -0.382684 -0.923317 -0.0322433
    outer loop
      vertex 7 2.47855 14.9846
      vertex 4.17157 4.17412 0
      vertex 7 3.00183 0
    endloop
  endfacet
  facet normal -0.382676 0.92332 0.0322418
    outer loop
      vertex 6 10.5922 0
      vertex 4.17157 9.30282 15.2229
      vertex 6 10.0597 15.2494
    endloop
  endfacet
  facet normal -0.382665 0.923324 0.0322435
    outer loop
      vertex 4.17157 9.30282 15.2229
      vertex 6 10.5922 0
      vertex 4.17157 9.83442 0
    endloop
  endfacet
  facet normal -0.92388 0.38245 0.0133556
    outer loop
      vertex 3 7.00427 0
      vertex 4.17157 9.30282 15.2229
      vertex 4.17157 9.83442 0
    endloop
  endfacet
  facet normal -0.92388 0.38245 0.0133555
    outer loop
      vertex 4.17157 9.30282 15.2229
      vertex 3 7.00427 0
      vertex 3 6.47612 15.1242
    endloop
  endfacet
  facet normal 0.382684 -0.923317 -0.0322433
    outer loop
      vertex 9.82843 4.17412 0
      vertex 7 2.47855 14.9846
      vertex 7 3.00183 0
    endloop
  endfacet
  facet normal 0.382683 -0.923317 -0.0322434
    outer loop
      vertex 7 2.47855 14.9846
      vertex 9.82843 4.17412 0
      vertex 9.82843 3.64941 15.0255
    endloop
  endfacet
  facet normal 0 -0.0347616 0.999396
    outer loop
      vertex 6 10.0597 15.2494
      vertex 8 10.0597 15.2494
      vertex 8 10.4737 15.2638
    endloop
  endfacet
  facet normal 0 -0.0347616 0.999396
    outer loop
      vertex 6 10.0597 15.2494
      vertex 8 10.4737 15.2638
      vertex 6 10.4737 15.2638
    endloop
  endfacet
  facet normal 0 -0.0349278 0.99939
    outer loop
      vertex 8 10.0597 15.2494
      vertex 6 10.0597 15.2494
      vertex 7 8.3 15.1879
    endloop
  endfacet
  facet normal 4.37802e-05 -0.034903 0.999391
    outer loop
      vertex 6 10.0597 15.2494
      vertex 5.70953 7.7658 15.1693
      vertex 7 8.3 15.1879
    endloop
  endfacet
  facet normal -4.08021e-05 -0.0348923 0.999391
    outer loop
      vertex 4.17157 9.30282 15.2229
      vertex 5.70953 7.7658 15.1693
      vertex 6 10.0597 15.2494
    endloop
  endfacet
  facet normal -6.86746e-05 -0.0349201 0.99939
    outer loop
      vertex 5.70953 7.7658 15.1693
      vertex 4.17157 9.30282 15.2229
      vertex 5.175 6.47612 15.1242
    endloop
  endfacet
  facet normal 0 -0.0349 0.999391
    outer loop
      vertex 10.5858 7.47551 15.1591
      vertex 11 5.47673 15.0893
      vertex 11 7.47551 15.1591
    endloop
  endfacet
  facet normal 0 -0.0349 0.999391
    outer loop
      vertex 10.5858 7.47551 15.1591
      vertex 10.5858 5.47673 15.0893
      vertex 11 5.47673 15.0893
    endloop
  endfacet
  facet normal 2.96869e-05 -0.0348812 0.999391
    outer loop
      vertex 8.29047 7.7658 15.1693
      vertex 10.5858 7.47551 15.1591
      vertex 9.82843 9.30282 15.2229
    endloop
  endfacet
  facet normal 0 -0.0349 0.999391
    outer loop
      vertex 10.5858 7.47551 15.1591
      vertex 8.825 6.47612 15.1242
      vertex 10.5858 5.47673 15.0893
    endloop
  endfacet
  facet normal 1.34071e-05 -0.0348764 0.999392
    outer loop
      vertex 8.29047 5.18643 15.0792
      vertex 10.5858 5.47673 15.0893
      vertex 8.825 6.47612 15.1242
    endloop
  endfacet
  facet normal 2.23234e-05 -0.0349393 0.999389
    outer loop
      vertex 10.5858 7.47551 15.1591
      vertex 8.29047 7.7658 15.1693
      vertex 8.825 6.47612 15.1242
    endloop
  endfacet
  facet normal 4.08021e-05 -0.0348923 0.999391
    outer loop
      vertex 8 10.0597 15.2494
      vertex 8.29047 7.7658 15.1693
      vertex 9.82843 9.30282 15.2229
    endloop
  endfacet
  facet normal -4.37802e-05 -0.034903 0.999391
    outer loop
      vertex 8.29047 7.7658 15.1693
      vertex 8 10.0597 15.2494
      vertex 7 8.3 15.1879
    endloop
  endfacet
  facet normal 1.63969e-05 -0.0349 0.999391
    outer loop
      vertex 10.5858 5.47673 15.0893
      vertex 8.29047 5.18643 15.0792
      vertex 9.82843 3.64941 15.0255
    endloop
  endfacet
  facet normal -1.9857e-05 -0.0349363 0.99939
    outer loop
      vertex 7 4.65223 15.0605
      vertex 9.82843 3.64941 15.0255
      vertex 8.29047 5.18643 15.0792
    endloop
  endfacet
  facet normal -5.72803e-06 -0.0348965 0.999391
    outer loop
      vertex 7 4.65223 15.0605
      vertex 7 2.47855 14.9846
      vertex 9.82843 3.64941 15.0255
    endloop
  endfacet
  facet normal 3.63534e-05 -0.0348965 0.999391
    outer loop
      vertex 5.70953 5.18643 15.0792
      vertex 7 2.47855 14.9846
      vertex 7 4.65223 15.0605
    endloop
  endfacet
  facet normal -1.79849e-06 -0.0349146 0.99939
    outer loop
      vertex 5.70953 5.18643 15.0792
      vertex 4.17157 3.64941 15.0255
      vertex 7 2.47855 14.9846
    endloop
  endfacet
  facet normal -3.22266e-05 -0.0348842 0.999391
    outer loop
      vertex 5.175 6.47612 15.1242
      vertex 4.17157 3.64941 15.0255
      vertex 5.70953 5.18643 15.0792
    endloop
  endfacet
  facet normal 0 -0.0348958 0.999391
    outer loop
      vertex 3 6.47612 15.1242
      vertex 5.175 6.47612 15.1242
      vertex 4.17157 9.30282 15.2229
    endloop
  endfacet
  facet normal 0 -0.0348957 0.999391
    outer loop
      vertex 5.175 6.47612 15.1242
      vertex 3 6.47612 15.1242
      vertex 4.17157 3.64941 15.0255
    endloop
  endfacet
  facet normal 0.970142 -0.00848357 0.242388
    outer loop
      vertex 11 7.47551 15.1591
      vertex 14.7746 6.00366 0
      vertex 14.7921 8.00488 0
    endloop
  endfacet
  facet normal 0.970143 -0.00846445 0.242386
    outer loop
      vertex 14.7746 6.00366 0
      vertex 11 7.47551 15.1591
      vertex 11 5.47673 15.0893
    endloop
  endfacet
  facet normal 0 -0.999391 -0.0348995
    outer loop
      vertex 10.5858 6.00366 0
      vertex 11 5.47673 15.0893
      vertex 10.5858 5.47673 15.0893
    endloop
  endfacet
  facet normal 0 -0.999391 -0.0348995
    outer loop
      vertex 11 5.47673 15.0893
      vertex 10.5858 6.00366 0
      vertex 14.7746 6.00366 0
    endloop
  endfacet
  facet normal -0 0.999391 0.0348997
    outer loop
      vertex 10.5858 8.00488 0
      vertex 11 7.47551 15.1591
      vertex 14.7921 8.00488 0
    endloop
  endfacet
  facet normal 0 0.999391 0.0348997
    outer loop
      vertex 11 7.47551 15.1591
      vertex 10.5858 8.00488 0
      vertex 10.5858 7.47551 15.1591
    endloop
  endfacet
  facet normal 1 0 0
    outer loop
      vertex 8 10.4737 15.2638
      vertex 8 10.5922 0
      vertex 8 14.861 0
    endloop
  endfacet
  facet normal 1 0 0
    outer loop
      vertex 8 10.5922 0
      vertex 8 10.4737 15.2638
      vertex 8 10.0597 15.2494
    endloop
  endfacet
  facet normal -1 0 0
    outer loop
      vertex 6 10.5922 0
      vertex 6 10.4737 15.2638
      vertex 6 14.861 0
    endloop
  endfacet
  facet normal -1 0 -0
    outer loop
      vertex 6 10.4737 15.2638
      vertex 6 10.5922 0
      vertex 6 10.0597 15.2494
    endloop
  endfacet
  facet normal 0 0.961087 0.276247
    outer loop
      vertex 8 14.861 0
      vertex 6 10.4737 15.2638
      vertex 8 10.4737 15.2638
    endloop
  endfacet
  facet normal 0 0.961087 0.276247
    outer loop
      vertex 6 10.4737 15.2638
      vertex 8 14.861 0
      vertex 6 14.861 0
    endloop
  endfacet
  facet normal -0.923873 -0.382467 -0.0133471
    outer loop
      vertex 4.17157 139.081 0
      vertex 3 141.219 19.8296
      vertex 3 141.911 0
    endloop
  endfacet
  facet normal -0.923894 -0.382415 -0.0133539
    outer loop
      vertex 3 141.219 19.8296
      vertex 4.17157 139.081 0
      vertex 4.17157 138.392 19.7308
    endloop
  endfacet
  facet normal 0.382603 0.92335 0.0322482
    outer loop
      vertex 7 145.914 0
      vertex 9.82843 144.046 19.9283
      vertex 9.82843 144.742 0
    endloop
  endfacet
  facet normal 0.382721 0.923302 0.0322268
    outer loop
      vertex 9.82843 144.046 19.9283
      vertex 7 145.914 0
      vertex 7 145.217 19.9691
    endloop
  endfacet
  facet normal 0.923911 0.382373 0.0133545
    outer loop
      vertex 9.82843 144.046 19.9283
      vertex 10.5858 142.912 0
      vertex 9.82843 144.742 0
    endloop
  endfacet
  facet normal 0.923928 0.382332 0.0133574
    outer loop
      vertex 10.5858 142.912 0
      vertex 9.82843 144.046 19.9283
      vertex 10.5858 142.218 19.8645
    endloop
  endfacet
  facet normal 0.923912 -0.382373 -0.013348
    outer loop
      vertex 10.5858 140.22 19.7947
      vertex 9.82843 139.081 0
      vertex 10.5858 140.911 0
    endloop
  endfacet
  facet normal 0.923929 -0.382332 -0.013351
    outer loop
      vertex 9.82843 139.081 0
      vertex 10.5858 140.22 19.7947
      vertex 9.82843 138.392 19.7308
    endloop
  endfacet
  facet normal -0.382726 -0.923299 -0.0322416
    outer loop
      vertex 4.17157 139.081 0
      vertex 6 137.635 19.7044
      vertex 4.17157 138.392 19.7308
    endloop
  endfacet
  facet normal -0.38276 -0.923285 -0.0322375
    outer loop
      vertex 6 137.635 19.7044
      vertex 4.17157 139.081 0
      vertex 6 138.323 0
    endloop
  endfacet
  facet normal -0.382721 0.923302 0.0322268
    outer loop
      vertex 7 145.914 0
      vertex 4.17157 144.046 19.9283
      vertex 7 145.217 19.9691
    endloop
  endfacet
  facet normal -0.382603 0.92335 0.0322482
    outer loop
      vertex 4.17157 144.046 19.9283
      vertex 7 145.914 0
      vertex 4.17157 144.742 0
    endloop
  endfacet
  facet normal -0.92392 0.382352 0.0133537
    outer loop
      vertex 3 141.911 0
      vertex 4.17157 144.046 19.9283
      vertex 4.17157 144.742 0
    endloop
  endfacet
  facet normal -0.923894 0.382416 0.0133453
    outer loop
      vertex 4.17157 144.046 19.9283
      vertex 3 141.911 0
      vertex 3 141.219 19.8296
    endloop
  endfacet
  facet normal 0.38276 -0.923285 -0.0322375
    outer loop
      vertex 9.82843 139.081 0
      vertex 8 137.635 19.7044
      vertex 8 138.323 0
    endloop
  endfacet
  facet normal 0.382726 -0.923299 -0.0322416
    outer loop
      vertex 8 137.635 19.7044
      vertex 9.82843 139.081 0
      vertex 9.82843 138.392 19.7308
    endloop
  endfacet
  facet normal -3.74073e-05 -0.0349006 0.999391
    outer loop
      vertex 5.70953 139.929 19.7845
      vertex 6 137.635 19.7044
      vertex 7 139.395 19.7659
    endloop
  endfacet
  facet normal 1.62793e-05 -0.0349332 0.99939
    outer loop
      vertex 4.17157 138.392 19.7308
      vertex 5.70953 139.929 19.7845
      vertex 5.175 141.219 19.8296
    endloop
  endfacet
  facet normal 0 -0.0348921 0.999391
    outer loop
      vertex 3 141.219 19.8296
      vertex 5.175 141.219 19.8296
      vertex 4.17157 144.046 19.9283
    endloop
  endfacet
  facet normal 0 -0.0349274 0.99939
    outer loop
      vertex 4.17157 138.392 19.7308
      vertex 5.175 141.219 19.8296
      vertex 3 141.219 19.8296
    endloop
  endfacet
  facet normal -1.86323e-05 -0.0348983 0.999391
    outer loop
      vertex 5.70953 139.929 19.7845
      vertex 4.17157 138.392 19.7308
      vertex 6 137.635 19.7044
    endloop
  endfacet
  facet normal 0 -0.0349136 0.99939
    outer loop
      vertex 10.5858 142.218 19.8645
      vertex 11 140.22 19.7947
      vertex 11 142.218 19.8645
    endloop
  endfacet
  facet normal 0 -0.0349136 0.99939
    outer loop
      vertex 10.5858 142.218 19.8645
      vertex 10.5858 140.22 19.7947
      vertex 11 140.22 19.7947
    endloop
  endfacet
  facet normal -2.58931e-05 -0.034891 0.999391
    outer loop
      vertex 8.29047 142.509 19.8746
      vertex 10.5858 142.218 19.8645
      vertex 9.82843 144.046 19.9283
    endloop
  endfacet
  facet normal 0 -0.0349136 0.99939
    outer loop
      vertex 10.5858 142.218 19.8645
      vertex 8.825 141.219 19.8296
      vertex 10.5858 140.22 19.7947
    endloop
  endfacet
  facet normal -1.20763e-05 -0.0349349 0.99939
    outer loop
      vertex 8.29047 139.929 19.7845
      vertex 10.5858 140.22 19.7947
      vertex 8.825 141.219 19.8296
    endloop
  endfacet
  facet normal -2.35115e-05 -0.0348722 0.999392
    outer loop
      vertex 10.5858 142.218 19.8645
      vertex 8.29047 142.509 19.8746
      vertex 8.825 141.219 19.8296
    endloop
  endfacet
  facet normal -2.81372e-05 -0.0348888 0.999391
    outer loop
      vertex 7 145.217 19.9691
      vertex 8.29047 142.509 19.8746
      vertex 9.82843 144.046 19.9283
    endloop
  endfacet
  facet normal -3.35567e-05 -0.0348913 0.999391
    outer loop
      vertex 7 145.217 19.9691
      vertex 7 143.043 19.8932
      vertex 8.29047 142.509 19.8746
    endloop
  endfacet
  facet normal 3.35567e-05 -0.0348913 0.999391
    outer loop
      vertex 7 145.217 19.9691
      vertex 5.70953 142.509 19.8746
      vertex 7 143.043 19.8932
    endloop
  endfacet
  facet normal 3.84718e-05 -0.0348784 0.999392
    outer loop
      vertex 5.70953 142.509 19.8746
      vertex 4.17157 144.046 19.9283
      vertex 5.175 141.219 19.8296
    endloop
  endfacet
  facet normal 2.81372e-05 -0.0348888 0.999391
    outer loop
      vertex 4.17157 144.046 19.9283
      vertex 5.70953 142.509 19.8746
      vertex 7 145.217 19.9691
    endloop
  endfacet
  facet normal -1.27454e-05 -0.0349296 0.99939
    outer loop
      vertex 10.5858 140.22 19.7947
      vertex 8.29047 139.929 19.7845
      vertex 9.82843 138.392 19.7308
    endloop
  endfacet
  facet normal 1.86323e-05 -0.0348983 0.999391
    outer loop
      vertex 8.29047 139.929 19.7845
      vertex 8 137.635 19.7044
      vertex 9.82843 138.392 19.7308
    endloop
  endfacet
  facet normal 3.74073e-05 -0.0349006 0.999391
    outer loop
      vertex 7 139.395 19.7659
      vertex 8 137.635 19.7044
      vertex 8.29047 139.929 19.7845
    endloop
  endfacet
  facet normal 0 -0.0349219 0.99939
    outer loop
      vertex 6 137.635 19.7044
      vertex 8 137.635 19.7044
      vertex 7 139.395 19.7659
    endloop
  endfacet
  facet normal 0 -0.0347616 0.999396
    outer loop
      vertex 8 137.635 19.7044
      vertex 6 137.635 19.7044
      vertex 8 137.221 19.69
    endloop
  endfacet
  facet normal 0 -0.0347616 0.999396
    outer loop
      vertex 8 137.221 19.69
      vertex 6 137.635 19.7044
      vertex 6 137.221 19.69
    endloop
  endfacet
  facet normal 0.970143 -0.00843603 0.242386
    outer loop
      vertex 11 142.218 19.8645
      vertex 15.9517 140.911 0
      vertex 15.9691 142.912 0
    endloop
  endfacet
  facet normal 0.970142 -0.00846782 0.242388
    outer loop
      vertex 15.9517 140.911 0
      vertex 11 142.218 19.8645
      vertex 11 140.22 19.7947
    endloop
  endfacet
  facet normal 0 -0.999391 -0.0348871
    outer loop
      vertex 10.5858 140.911 0
      vertex 11 140.22 19.7947
      vertex 10.5858 140.22 19.7947
    endloop
  endfacet
  facet normal 0 -0.999391 -0.0348871
    outer loop
      vertex 11 140.22 19.7947
      vertex 10.5858 140.911 0
      vertex 15.9517 140.911 0
    endloop
  endfacet
  facet normal -0 0.99939 0.0349154
    outer loop
      vertex 10.5858 142.912 0
      vertex 11 142.218 19.8645
      vertex 15.9691 142.912 0
    endloop
  endfacet
  facet normal 0 0.99939 0.0349154
    outer loop
      vertex 11 142.218 19.8645
      vertex 10.5858 142.912 0
      vertex 10.5858 142.218 19.8645
    endloop
  endfacet
  facet normal 1 -0 0
    outer loop
      vertex 8 137.221 19.69
      vertex 8 138.323 0
      vertex 8 137.635 19.7044
    endloop
  endfacet
  facet normal 1 0 0
    outer loop
      vertex 8 138.323 0
      vertex 8 137.221 19.69
      vertex 8 133.023 0
    endloop
  endfacet
  facet normal -1 0 0
    outer loop
      vertex 6 138.323 0
      vertex 6 137.221 19.69
      vertex 6 137.635 19.7044
    endloop
  endfacet
  facet normal -1 0 -0
    outer loop
      vertex 6 137.221 19.69
      vertex 6 138.323 0
      vertex 6 133.023 0
    endloop
  endfacet
  facet normal 0 -0.978019 0.208518
    outer loop
      vertex 6 133.023 0
      vertex 8 137.221 19.69
      vertex 6 137.221 19.69
    endloop
  endfacet
  facet normal 0 -0.978019 0.208518
    outer loop
      vertex 8 137.221 19.69
      vertex 6 133.023 0
      vertex 8 133.023 0
    endloop
  endfacet
  facet normal 0.92388 0.382449 0.0133554
    outer loop
      vertex 5.175 6.47612 15.1242
      vertex 5.70953 5.78285 -2
      vertex 5.175 7.07411 -2
    endloop
  endfacet
  facet normal 0.92388 0.382449 0.0133554
    outer loop
      vertex 5.70953 5.78285 -2
      vertex 5.175 6.47612 15.1242
      vertex 5.70953 5.18643 15.0792
    endloop
  endfacet
  facet normal -0.382679 -0.923318 -0.0322433
    outer loop
      vertex 7 8.90022 -2
      vertex 8.29047 7.7658 15.1693
      vertex 7 8.3 15.1879
    endloop
  endfacet
  facet normal -0.382686 -0.923316 -0.0322426
    outer loop
      vertex 8.29047 7.7658 15.1693
      vertex 7 8.90022 -2
      vertex 8.29047 8.36536 -2
    endloop
  endfacet
  facet normal -0.923879 -0.382452 -0.0133554
    outer loop
      vertex 8.825 7.07411 -2
      vertex 8.29047 7.7658 15.1693
      vertex 8.29047 8.36536 -2
    endloop
  endfacet
  facet normal -0.923879 -0.382451 -0.0133555
    outer loop
      vertex 8.29047 7.7658 15.1693
      vertex 8.825 7.07411 -2
      vertex 8.825 6.47612 15.1242
    endloop
  endfacet
  facet normal -0.92388 0.382449 0.0133554
    outer loop
      vertex 8.29047 5.78285 -2
      vertex 8.825 6.47612 15.1242
      vertex 8.825 7.07411 -2
    endloop
  endfacet
  facet normal -0.92388 0.382449 0.0133554
    outer loop
      vertex 8.825 6.47612 15.1242
      vertex 8.29047 5.78285 -2
      vertex 8.29047 5.18643 15.0792
    endloop
  endfacet
  facet normal 0.38268 0.923318 0.0322432
    outer loop
      vertex 5.70953 5.78285 -2
      vertex 7 4.65223 15.0605
      vertex 7 5.248 -2
    endloop
  endfacet
  facet normal 0.382682 0.923317 0.032243
    outer loop
      vertex 7 4.65223 15.0605
      vertex 5.70953 5.78285 -2
      vertex 5.70953 5.18643 15.0792
    endloop
  endfacet
  facet normal 0.382686 -0.923316 -0.0322426
    outer loop
      vertex 7 8.90022 -2
      vertex 5.70953 7.7658 15.1693
      vertex 5.70953 8.36536 -2
    endloop
  endfacet
  facet normal 0.382679 -0.923318 -0.0322433
    outer loop
      vertex 5.70953 7.7658 15.1693
      vertex 7 8.90022 -2
      vertex 7 8.3 15.1879
    endloop
  endfacet
  facet normal 0.923879 -0.382452 -0.0133554
    outer loop
      vertex 5.70953 7.7658 15.1693
      vertex 5.175 7.07411 -2
      vertex 5.70953 8.36536 -2
    endloop
  endfacet
  facet normal 0.923879 -0.382451 -0.0133555
    outer loop
      vertex 5.175 7.07411 -2
      vertex 5.70953 7.7658 15.1693
      vertex 5.175 6.47612 15.1242
    endloop
  endfacet
  facet normal -0.382682 0.923317 0.032243
    outer loop
      vertex 8.29047 5.78285 -2
      vertex 7 4.65223 15.0605
      vertex 8.29047 5.18643 15.0792
    endloop
  endfacet
  facet normal -0.38268 0.923318 0.0322432
    outer loop
      vertex 7 4.65223 15.0605
      vertex 8.29047 5.78285 -2
      vertex 7 5.248 -2
    endloop
  endfacet
  facet normal 0.382771 0.92328 0.0322382
    outer loop
      vertex 5.70953 140.69 -2
      vertex 7 139.395 19.7659
      vertex 7 140.155 -2
    endloop
  endfacet
  facet normal 0.382557 0.923369 0.0322561
    outer loop
      vertex 7 139.395 19.7659
      vertex 5.70953 140.69 -2
      vertex 5.70953 139.929 19.7845
    endloop
  endfacet
  facet normal -0.382557 -0.92337 -0.0322225
    outer loop
      vertex 7 143.807 -2
      vertex 8.29047 142.509 19.8746
      vertex 7 143.043 19.8932
    endloop
  endfacet
  facet normal -0.38216 -0.923533 -0.0322556
    outer loop
      vertex 8.29047 142.509 19.8746
      vertex 7 143.807 -2
      vertex 8.29047 143.273 -2
    endloop
  endfacet
  facet normal -0.923957 -0.382262 -0.013351
    outer loop
      vertex 8.825 141.981 -2
      vertex 8.29047 142.509 19.8746
      vertex 8.29047 143.273 -2
    endloop
  endfacet
  facet normal -0.923913 -0.382371 -0.0133473
    outer loop
      vertex 8.29047 142.509 19.8746
      vertex 8.825 141.981 -2
      vertex 8.825 141.219 19.8296
    endloop
  endfacet
  facet normal 0.38216 -0.923533 -0.0322556
    outer loop
      vertex 7 143.807 -2
      vertex 5.70953 142.509 19.8746
      vertex 5.70953 143.273 -2
    endloop
  endfacet
  facet normal 0.382557 -0.92337 -0.0322225
    outer loop
      vertex 5.70953 142.509 19.8746
      vertex 7 143.807 -2
      vertex 7 143.043 19.8932
    endloop
  endfacet
  facet normal -0.382557 0.923369 0.0322561
    outer loop
      vertex 8.29047 140.69 -2
      vertex 7 139.395 19.7659
      vertex 8.29047 139.929 19.7845
    endloop
  endfacet
  facet normal -0.382771 0.92328 0.0322382
    outer loop
      vertex 7 139.395 19.7659
      vertex 8.29047 140.69 -2
      vertex 7 140.155 -2
    endloop
  endfacet
  facet normal -0.923853 0.382515 0.0133524
    outer loop
      vertex 8.29047 140.69 -2
      vertex 8.825 141.219 19.8296
      vertex 8.825 141.981 -2
    endloop
  endfacet
  facet normal -0.923913 0.38237 0.0133574
    outer loop
      vertex 8.825 141.219 19.8296
      vertex 8.29047 140.69 -2
      vertex 8.29047 139.929 19.7845
    endloop
  endfacet
  facet normal 0.923853 0.382515 0.0133524
    outer loop
      vertex 5.175 141.219 19.8296
      vertex 5.70953 140.69 -2
      vertex 5.175 141.981 -2
    endloop
  endfacet
  facet normal 0.923913 0.38237 0.0133574
    outer loop
      vertex 5.70953 140.69 -2
      vertex 5.175 141.219 19.8296
      vertex 5.70953 139.929 19.7845
    endloop
  endfacet
  facet normal 0.923957 -0.382262 -0.013351
    outer loop
      vertex 5.70953 142.509 19.8746
      vertex 5.175 141.981 -2
      vertex 5.70953 143.273 -2
    endloop
  endfacet
  facet normal 0.923913 -0.382371 -0.0133473
    outer loop
      vertex 5.175 141.981 -2
      vertex 5.70953 142.509 19.8746
      vertex 5.175 141.219 19.8296
    endloop
  endfacet
  facet normal 0 0 -1
    outer loop
      vertex 8.29047 140.69 -2
      vertex 128.904 148.986 -2
      vertex 8.29047 8.36536 -2
    endloop
  endfacet
  facet normal 0 0 -1
    outer loop
      vertex 128.904 148.986 -2
      vertex 8.29047 140.69 -2
      vertex 8.825 141.981 -2
    endloop
  endfacet
  facet normal 0 0 -1
    outer loop
      vertex 7 8.90022 -2
      vertex 8.29047 140.69 -2
      vertex 8.29047 8.36536 -2
    endloop
  endfacet
  facet normal 0 0 -1
    outer loop
      vertex 7 8.90022 -2
      vertex 7 140.155 -2
      vertex 8.29047 140.69 -2
    endloop
  endfacet
  facet normal 0 0 -1
    outer loop
      vertex 5.70953 8.36536 -2
      vertex 7 140.155 -2
      vertex 7 8.90022 -2
    endloop
  endfacet
  facet normal 0 0 -1
    outer loop
      vertex 5.70953 8.36536 -2
      vertex 5.70953 140.69 -2
      vertex 7 140.155 -2
    endloop
  endfacet
  facet normal 0 0 -1
    outer loop
      vertex 0 5.07289 -2
      vertex 5.70953 8.36536 -2
      vertex 5.175 7.07411 -2
    endloop
  endfacet
  facet normal -0 0 -1
    outer loop
      vertex 5.70953 8.36536 -2
      vertex 0 5.07289 -2
      vertex 5.70953 140.69 -2
    endloop
  endfacet
  facet normal 0 0 -1
    outer loop
      vertex 8.29047 8.36536 -2
      vertex 128.904 0.0698424 -2
      vertex 8.825 7.07411 -2
    endloop
  endfacet
  facet normal 0 0 -1
    outer loop
      vertex 128.904 0.0698424 -2
      vertex 8.29047 5.78285 -2
      vertex 8.825 7.07411 -2
    endloop
  endfacet
  facet normal 0 0 -1
    outer loop
      vertex 5 0.0698424 -2
      vertex 8.29047 5.78285 -2
      vertex 128.904 0.0698424 -2
    endloop
  endfacet
  facet normal 0 0 -1
    outer loop
      vertex 1.46447 1.5352 -2
      vertex 5.70953 5.78285 -2
      vertex 2.38045 1.15555 -2
    endloop
  endfacet
  facet normal 0 0 -1
    outer loop
      vertex 2.38045 1.15555 -2
      vertex 5.70953 5.78285 -2
      vertex 5 0.0698424 -2
    endloop
  endfacet
  facet normal -0 0 -1
    outer loop
      vertex 7 5.248 -2
      vertex 5 0.0698424 -2
      vertex 5.70953 5.78285 -2
    endloop
  endfacet
  facet normal 0 0 -1
    outer loop
      vertex 8.29047 5.78285 -2
      vertex 5 0.0698424 -2
      vertex 7 5.248 -2
    endloop
  endfacet
  facet normal 0 0 -1
    outer loop
      vertex 128.904 0.0698424 -2
      vertex 8.29047 8.36536 -2
      vertex 128.904 148.986 -2
    endloop
  endfacet
  facet normal 0 0 -1
    outer loop
      vertex 8.29047 143.273 -2
      vertex 128.904 148.986 -2
      vertex 8.825 141.981 -2
    endloop
  endfacet
  facet normal 0 0 -1
    outer loop
      vertex 5 148.986 -2
      vertex 8.29047 143.273 -2
      vertex 7 143.807 -2
    endloop
  endfacet
  facet normal 0 0 -1
    outer loop
      vertex 8.29047 143.273 -2
      vertex 5 148.986 -2
      vertex 128.904 148.986 -2
    endloop
  endfacet
  facet normal 0 0 -1
    outer loop
      vertex 5.70953 143.273 -2
      vertex 5 148.986 -2
      vertex 7 143.807 -2
    endloop
  endfacet
  facet normal 0 0 -1
    outer loop
      vertex 0 143.983 -2
      vertex 5.70953 143.273 -2
      vertex 5.175 141.981 -2
    endloop
  endfacet
  facet normal 0 0 -1
    outer loop
      vertex 0 143.983 -2
      vertex 5.70953 140.69 -2
      vertex 0 5.07289 -2
    endloop
  endfacet
  facet normal -0 0 -1
    outer loop
      vertex 5.70953 5.78285 -2
      vertex 0 5.07289 -2
      vertex 5.175 7.07411 -2
    endloop
  endfacet
  facet normal 0 0 -1
    outer loop
      vertex 5.70953 5.78285 -2
      vertex 1.46447 1.5352 -2
      vertex 0 5.07289 -2
    endloop
  endfacet
  facet normal 0 0 -1
    outer loop
      vertex 5.70953 140.69 -2
      vertex 0 143.983 -2
      vertex 5.175 141.981 -2
    endloop
  endfacet
  facet normal 0 0 -1
    outer loop
      vertex 5.70953 143.273 -2
      vertex 0 143.983 -2
      vertex 1.46447 147.52 -2
    endloop
  endfacet
  facet normal 0 0 -1
    outer loop
      vertex 5.70953 143.273 -2
      vertex 1.46447 147.52 -2
      vertex 5 148.986 -2
    endloop
  endfacet
  facet normal 0 0 1
    outer loop
      vertex 4.17157 139.081 0
      vertex 6 133.023 0
      vertex 6 138.323 0
    endloop
  endfacet
  facet normal 0 0 1
    outer loop
      vertex 0 143.913 0
      vertex 6 133.023 0
      vertex 4.17157 139.081 0
    endloop
  endfacet
  facet normal 0 0 1
    outer loop
      vertex 0 5.00305 0
      vertex 6 133.023 0
      vertex 0 143.913 0
    endloop
  endfacet
  facet normal 0 0 1
    outer loop
      vertex 6 14.861 0
      vertex 4.17157 9.83442 0
      vertex 6 10.5922 0
    endloop
  endfacet
  facet normal 0 0 1
    outer loop
      vertex 0 143.913 0
      vertex 4.17157 139.081 0
      vertex 3 141.911 0
    endloop
  endfacet
  facet normal 0 0 1
    outer loop
      vertex 6 133.023 0
      vertex 0 5.00305 0
      vertex 6 14.861 0
    endloop
  endfacet
  facet normal -0 0 1
    outer loop
      vertex 6 133.023 0
      vertex 8 14.861 0
      vertex 8 133.023 0
    endloop
  endfacet
  facet normal 0 0 1
    outer loop
      vertex 8 14.861 0
      vertex 6 133.023 0
      vertex 6 14.861 0
    endloop
  endfacet
  facet normal 0 0 1
    outer loop
      vertex 9.82843 139.081 0
      vertex 15.9517 140.911 0
      vertex 10.5858 140.911 0
    endloop
  endfacet
  facet normal 0 0 1
    outer loop
      vertex 15.9517 140.911 0
      vertex 8 133.023 0
      vertex 14.7921 8.00488 0
    endloop
  endfacet
  facet normal 0 0 1
    outer loop
      vertex 15.9517 140.911 0
      vertex 9.82843 139.081 0
      vertex 8 133.023 0
    endloop
  endfacet
  facet normal -0 0 1
    outer loop
      vertex 8 14.861 0
      vertex 14.7921 8.00488 0
      vertex 8 133.023 0
    endloop
  endfacet
  facet normal 0 0 1
    outer loop
      vertex 8 133.023 0
      vertex 9.82843 139.081 0
      vertex 8 138.323 0
    endloop
  endfacet
  facet normal -0 -0 1
    outer loop
      vertex 9.82843 9.83442 0
      vertex 14.7921 8.00488 0
      vertex 8 14.861 0
    endloop
  endfacet
  facet normal 0 0 1
    outer loop
      vertex 14.7921 8.00488 0
      vertex 9.82843 9.83442 0
      vertex 10.5858 8.00488 0
    endloop
  endfacet
  facet normal 0 0 1
    outer loop
      vertex 9.82843 9.83442 0
      vertex 8 14.861 0
      vertex 8 10.5922 0
    endloop
  endfacet
  facet normal 0 0 1
    outer loop
      vertex 15.9517 140.911 0
      vertex 128.904 148.916 0
      vertex 15.9691 142.912 0
    endloop
  endfacet
  facet normal -0 0 1
    outer loop
      vertex 5 148.916 0
      vertex 15.9691 142.912 0
      vertex 128.904 148.916 0
    endloop
  endfacet
  facet normal 0 0 1
    outer loop
      vertex 15.9691 142.912 0
      vertex 9.82843 144.742 0
      vertex 10.5858 142.912 0
    endloop
  endfacet
  facet normal 0 0 1
    outer loop
      vertex 15.9691 142.912 0
      vertex 5 148.916 0
      vertex 9.82843 144.742 0
    endloop
  endfacet
  facet normal 0 0 1
    outer loop
      vertex 9.82843 144.742 0
      vertex 5 148.916 0
      vertex 7 145.914 0
    endloop
  endfacet
  facet normal 0 0 1
    outer loop
      vertex 5 148.916 0
      vertex 4.17157 144.742 0
      vertex 7 145.914 0
    endloop
  endfacet
  facet normal -0 0 1
    outer loop
      vertex 1.46447 147.45 0
      vertex 4.17157 144.742 0
      vertex 5 148.916 0
    endloop
  endfacet
  facet normal 0 0 1
    outer loop
      vertex 4.17157 9.83442 0
      vertex 0 5.00305 0
      vertex 3 7.00427 0
    endloop
  endfacet
  facet normal 0 0 1
    outer loop
      vertex 0 143.913 0
      vertex 4.17157 144.742 0
      vertex 1.46447 147.45 0
    endloop
  endfacet
  facet normal 0 0 1
    outer loop
      vertex 4.17157 144.742 0
      vertex 0 143.913 0
      vertex 3 141.911 0
    endloop
  endfacet
  facet normal 0 0 1
    outer loop
      vertex 6 14.861 0
      vertex 0 5.00305 0
      vertex 4.17157 9.83442 0
    endloop
  endfacet
  facet normal 0 -0 1
    outer loop
      vertex 1.46447 1.46536 0
      vertex 3 7.00427 0
      vertex 0 5.00305 0
    endloop
  endfacet
  facet normal 0 0 1
    outer loop
      vertex 3 7.00427 0
      vertex 1.46447 1.46536 0
      vertex 2.27732 1.12846 0
    endloop
  endfacet
  facet normal 0 0 1
    outer loop
      vertex 128.904 148.916 0
      vertex 15.9517 140.911 0
      vertex 128.904 8.8961e-07 0
    endloop
  endfacet
  facet normal -0 0 1
    outer loop
      vertex 14.7921 8.00488 0
      vertex 128.904 8.8961e-07 0
      vertex 15.9517 140.911 0
    endloop
  endfacet
  facet normal -0 0 1
    outer loop
      vertex 14.7746 6.00366 0
      vertex 128.904 8.8961e-07 0
      vertex 14.7921 8.00488 0
    endloop
  endfacet
  facet normal 0 0 1
    outer loop
      vertex 9.82843 4.17412 0
      vertex 14.7746 6.00366 0
      vertex 10.5858 6.00366 0
    endloop
  endfacet
  facet normal 0 0 1
    outer loop
      vertex 5 8.8961e-07 0
      vertex 14.7746 6.00366 0
      vertex 9.82843 4.17412 0
    endloop
  endfacet
  facet normal 0 0 1
    outer loop
      vertex 5 8.8961e-07 0
      vertex 9.82843 4.17412 0
      vertex 7 3.00183 0
    endloop
  endfacet
  facet normal 0 0 1
    outer loop
      vertex 14.7746 6.00366 0
      vertex 5 8.8961e-07 0
      vertex 128.904 8.8961e-07 0
    endloop
  endfacet
  facet normal 0 0 1
    outer loop
      vertex 4.17157 4.17412 0
      vertex 5 8.8961e-07 0
      vertex 7 3.00183 0
    endloop
  endfacet
  facet normal 0 0 1
    outer loop
      vertex 2.27732 1.12846 0
      vertex 4.17157 4.17412 0
      vertex 3 7.00427 0
    endloop
  endfacet
  facet normal 0 0 1
    outer loop
      vertex 4.17157 4.17412 0
      vertex 2.27732 1.12846 0
      vertex 5 8.8961e-07 0
    endloop
  endfacet
  facet normal -0.923879 -0.382451 -0.0133552
    outer loop
      vertex 1.46447 1.5352 -2
      vertex 0 5.00305 0
      vertex 0 5.07289 -2
    endloop
  endfacet
  facet normal -0.923879 -0.382451 -0.0133552
    outer loop
      vertex 0 5.00305 0
      vertex 1.46447 1.5352 -2
      vertex 1.46447 1.46536 0
    endloop
  endfacet
  facet normal 0 0.999388 0.0349786
    outer loop
      vertex 128.904 148.986 -2
      vertex 5 148.916 0
      vertex 128.904 148.916 0
    endloop
  endfacet
  facet normal 0 0.999388 0.0349786
    outer loop
      vertex 5 148.916 0
      vertex 128.904 148.986 -2
      vertex 5 148.986 -2
    endloop
  endfacet
  facet normal -1 0 0
    outer loop
      vertex 0 5.07289 -2
      vertex 0 143.913 0
      vertex 0 143.983 -2
    endloop
  endfacet
  facet normal -1 -0 0
    outer loop
      vertex 0 143.913 0
      vertex 0 5.07289 -2
      vertex 0 5.00305 0
    endloop
  endfacet
  facet normal -0.382684 -0.923317 -0.0322394
    outer loop
      vertex 2.38045 1.15555 -2
      vertex 5 8.8961e-07 0
      vertex 2.27732 1.12846 0
    endloop
  endfacet
  facet normal -0.382681 -0.923318 -0.0322429
    outer loop
      vertex 5 8.8961e-07 0
      vertex 2.38045 1.15555 -2
      vertex 5 0.0698424 -2
    endloop
  endfacet
  facet normal -0.382826 0.923255 0.0323139
    outer loop
      vertex 5 148.986 -2
      vertex 1.46447 147.45 0
      vertex 5 148.916 0
    endloop
  endfacet
  facet normal -0.382826 0.923255 0.0323139
    outer loop
      vertex 1.46447 147.45 0
      vertex 5 148.986 -2
      vertex 1.46447 147.52 -2
    endloop
  endfacet
  facet normal 0 -0.999391 -0.0348995
    outer loop
      vertex 5 0.0698424 -2
      vertex 128.904 8.8961e-07 0
      vertex 5 8.8961e-07 0
    endloop
  endfacet
  facet normal 0 -0.999391 -0.0348995
    outer loop
      vertex 128.904 8.8961e-07 0
      vertex 5 0.0698424 -2
      vertex 128.904 0.0698424 -2
    endloop
  endfacet
  facet normal -0.382685 -0.923316 -0.0322422
    outer loop
      vertex 1.46447 1.5352 -2
      vertex 2.27732 1.12846 0
      vertex 1.46447 1.46536 0
    endloop
  endfacet
  facet normal -0.38269 -0.923314 -0.0322397
    outer loop
      vertex 2.27732 1.12846 0
      vertex 1.46447 1.5352 -2
      vertex 2.38045 1.15555 -2
    endloop
  endfacet
  facet normal -0.923852 0.382515 0.013388
    outer loop
      vertex 0 143.983 -2
      vertex 1.46447 147.45 0
      vertex 1.46447 147.52 -2
    endloop
  endfacet
  facet normal -0.923852 0.382515 0.013388
    outer loop
      vertex 1.46447 147.45 0
      vertex 0 143.983 -2
      vertex 0 143.913 0
    endloop
  endfacet
  facet normal 1 0 0
    outer loop
      vertex 128.904 148.916 0
      vertex 128.904 0.0698424 -2
      vertex 128.904 148.986 -2
    endloop
  endfacet
  facet normal 1 0 -0
    outer loop
      vertex 128.904 0.0698424 -2
      vertex 128.904 148.916 0
      vertex 128.904 8.8961e-07 0
    endloop
  endfacet
endsolid OpenSCAD_Model
