solid OpenSCAD_Model
  facet normal -0.923799 -0.382645 -0.0133642
    outer loop
      vertex 190.528 142.083 0
      vertex 189.77 143.218 19.8993
      vertex 189.77 143.913 0
    endloop
  endfacet
  facet normal -0.923816 -0.382604 -0.0133672
    outer loop
      vertex 189.77 143.218 19.8993
      vertex 190.528 142.083 0
      vertex 190.528 141.39 19.8355
    endloop
  endfacet
  facet normal 0.382816 0.923263 0.0322149
    outer loop
      vertex 193.356 148.916 0
      vertex 196.185 147.044 20.033
      vertex 196.185 147.743 0
    endloop
  endfacet
  facet normal 0.382656 0.923328 0.0322437
    outer loop
      vertex 196.185 147.044 20.033
      vertex 193.356 148.916 0
      vertex 193.356 148.215 20.0738
    endloop
  endfacet
  facet normal 0.923904 0.382392 0.0133426
    outer loop
      vertex 196.185 147.044 20.033
      vertex 196.942 145.914 0
      vertex 196.185 147.743 0
    endloop
  endfacet
  facet normal 0.923921 0.382351 0.0133456
    outer loop
      vertex 196.942 145.914 0
      vertex 196.185 147.044 20.033
      vertex 196.942 145.217 19.9691
    endloop
  endfacet
  facet normal 0.923978 -0.382214 -0.0133491
    outer loop
      vertex 196.942 143.218 19.8993
      vertex 196.185 142.083 0
      vertex 196.942 143.913 0
    endloop
  endfacet
  facet normal 0.923994 -0.382173 -0.0133521
    outer loop
      vertex 196.185 142.083 0
      vertex 196.942 143.218 19.8993
      vertex 196.185 141.39 19.8355
    endloop
  endfacet
  facet normal -0.382492 -0.923395 -0.032261
    outer loop
      vertex 190.528 142.083 0
      vertex 193.356 140.22 19.7947
      vertex 190.528 141.39 19.8355
    endloop
  endfacet
  facet normal -0.382653 -0.92333 -0.0322319
    outer loop
      vertex 193.356 140.22 19.7947
      vertex 190.528 142.083 0
      vertex 193.356 140.911 0
    endloop
  endfacet
  facet normal -0.382771 0.92328 0.032242
    outer loop
      vertex 193.356 148.916 0
      vertex 190.528 147.044 20.033
      vertex 193.356 148.215 20.0738
    endloop
  endfacet
  facet normal -0.382932 0.923215 0.0322132
    outer loop
      vertex 190.528 147.044 20.033
      vertex 193.356 148.916 0
      vertex 190.528 147.743 0
    endloop
  endfacet
  facet normal -0.923725 0.382823 0.0133576
    outer loop
      vertex 189.77 145.914 0
      vertex 190.528 147.044 20.033
      vertex 190.528 147.743 0
    endloop
  endfacet
  facet normal -0.923742 0.382782 0.0133606
    outer loop
      vertex 190.528 147.044 20.033
      vertex 189.77 145.914 0
      vertex 189.77 145.217 19.9691
    endloop
  endfacet
  facet normal 0.382537 -0.923378 -0.0322336
    outer loop
      vertex 196.185 142.083 0
      vertex 193.356 140.22 19.7947
      vertex 193.356 140.911 0
    endloop
  endfacet
  facet normal 0.382377 -0.923443 -0.0322627
    outer loop
      vertex 193.356 140.22 19.7947
      vertex 196.185 142.083 0
      vertex 196.185 141.39 19.8355
    endloop
  endfacet
  facet normal 0 -0.0348962 0.999391
    outer loop
      vertex 196.942 145.217 19.9691
      vertex 197.356 143.218 19.8993
      vertex 197.356 145.217 19.9691
    endloop
  endfacet
  facet normal 0 -0.0348962 0.999391
    outer loop
      vertex 196.942 145.217 19.9691
      vertex 196.942 143.218 19.8993
      vertex 197.356 143.218 19.8993
    endloop
  endfacet
  facet normal 2.62584e-05 -0.0349431 0.999389
    outer loop
      vertex 194.647 145.507 19.9793
      vertex 196.942 145.217 19.9691
      vertex 196.185 147.044 20.033
    endloop
  endfacet
  facet normal 9.90806e-06 -0.0348962 0.999391
    outer loop
      vertex 196.942 145.217 19.9691
      vertex 195.181 144.217 19.9342
      vertex 196.942 143.218 19.8993
    endloop
  endfacet
  facet normal 2.35138e-05 -0.0348722 0.999392
    outer loop
      vertex 194.647 142.927 19.8892
      vertex 196.942 143.218 19.8993
      vertex 195.181 144.217 19.9342
    endloop
  endfacet
  facet normal 2.81399e-05 -0.0349283 0.99939
    outer loop
      vertex 196.942 145.217 19.9691
      vertex 194.647 145.507 19.9793
      vertex 195.181 144.217 19.9342
    endloop
  endfacet
  facet normal -2.8133e-05 -0.0348888 0.999391
    outer loop
      vertex 193.356 148.215 20.0738
      vertex 194.647 145.507 19.9793
      vertex 196.185 147.044 20.033
    endloop
  endfacet
  facet normal -3.35429e-05 -0.0348913 0.999391
    outer loop
      vertex 193.356 148.215 20.0738
      vertex 193.356 146.041 19.9979
      vertex 194.647 145.507 19.9793
    endloop
  endfacet
  facet normal 3.35689e-05 -0.0348913 0.999391
    outer loop
      vertex 193.356 148.215 20.0738
      vertex 192.066 145.507 19.9793
      vertex 193.356 146.041 19.9979
    endloop
  endfacet
  facet normal -2.62483e-05 -0.0349431 0.999389
    outer loop
      vertex 189.77 145.217 19.9691
      vertex 192.066 145.507 19.9793
      vertex 190.528 147.044 20.033
    endloop
  endfacet
  facet normal 2.814e-05 -0.0348888 0.999391
    outer loop
      vertex 190.528 147.044 20.033
      vertex 192.066 145.507 19.9793
      vertex 193.356 148.215 20.0738
    endloop
  endfacet
  facet normal 2.58963e-05 -0.034891 0.999391
    outer loop
      vertex 196.942 143.218 19.8993
      vertex 194.647 142.927 19.8892
      vertex 196.185 141.39 19.8355
    endloop
  endfacet
  facet normal 3.12047e-05 -0.0348857 0.999391
    outer loop
      vertex 193.356 142.393 19.8706
      vertex 196.185 141.39 19.8355
      vertex 194.647 142.927 19.8892
    endloop
  endfacet
  facet normal 2.35077e-05 -0.0349074 0.999391
    outer loop
      vertex 193.356 142.393 19.8706
      vertex 193.356 140.22 19.7947
      vertex 196.185 141.39 19.8355
    endloop
  endfacet
  facet normal -4.02156e-05 -0.0349074 0.999391
    outer loop
      vertex 192.066 142.927 19.8892
      vertex 193.356 140.22 19.7947
      vertex 193.356 142.393 19.8706
    endloop
  endfacet
  facet normal -1.94151e-05 -0.0348975 0.999391
    outer loop
      vertex 192.066 142.927 19.8892
      vertex 190.528 141.39 19.8355
      vertex 193.356 140.22 19.7947
    endloop
  endfacet
  facet normal -2.35054e-05 -0.0348723 0.999392
    outer loop
      vertex 189.77 143.218 19.8993
      vertex 192.066 142.927 19.8892
      vertex 191.531 144.217 19.9342
    endloop
  endfacet
  facet normal -2.81299e-05 -0.0349282 0.99939
    outer loop
      vertex 192.066 145.507 19.9793
      vertex 189.77 145.217 19.9691
      vertex 191.531 144.217 19.9342
    endloop
  endfacet
  facet normal -9.90806e-06 -0.0348962 0.999391
    outer loop
      vertex 189.77 143.218 19.8993
      vertex 191.531 144.217 19.9342
      vertex 189.77 145.217 19.9691
    endloop
  endfacet
  facet normal -2.58863e-05 -0.034891 0.999391
    outer loop
      vertex 192.066 142.927 19.8892
      vertex 189.77 143.218 19.8993
      vertex 190.528 141.39 19.8355
    endloop
  endfacet
  facet normal 0 -0.0348962 0.999391
    outer loop
      vertex 189.356 145.217 19.9691
      vertex 189.77 143.218 19.8993
      vertex 189.77 145.217 19.9691
    endloop
  endfacet
  facet normal 0 -0.0348962 0.999391
    outer loop
      vertex 189.77 143.218 19.8993
      vertex 189.356 145.217 19.9691
      vertex 189.356 143.218 19.8993
    endloop
  endfacet
  facet normal 0.970135 -0.00872685 0.24241
    outer loop
      vertex 197.356 145.217 19.9691
      vertex 202.334 143.913 0
      vertex 202.352 145.914 0
    endloop
  endfacet
  facet normal 0.970141 -0.0084638 0.242394
    outer loop
      vertex 202.334 143.913 0
      vertex 197.356 145.217 19.9691
      vertex 197.356 143.218 19.8993
    endloop
  endfacet
  facet normal 0 -0.999391 -0.0349046
    outer loop
      vertex 196.942 143.913 0
      vertex 197.356 143.218 19.8993
      vertex 196.942 143.218 19.8993
    endloop
  endfacet
  facet normal 0 -0.999391 -0.0349046
    outer loop
      vertex 197.356 143.218 19.8993
      vertex 196.942 143.913 0
      vertex 202.334 143.913 0
    endloop
  endfacet
  facet normal -0 -0.999391 -0.0349046
    outer loop
      vertex 189.77 143.913 0
      vertex 189.356 143.218 19.8993
      vertex 184.378 143.913 0
    endloop
  endfacet
  facet normal 0 -0.999391 -0.0349046
    outer loop
      vertex 189.356 143.218 19.8993
      vertex 189.77 143.913 0
      vertex 189.77 143.218 19.8993
    endloop
  endfacet
  facet normal -0 0.999391 0.0348827
    outer loop
      vertex 196.942 145.914 0
      vertex 197.356 145.217 19.9691
      vertex 202.352 145.914 0
    endloop
  endfacet
  facet normal 0 0.999391 0.0348827
    outer loop
      vertex 197.356 145.217 19.9691
      vertex 196.942 145.914 0
      vertex 196.942 145.217 19.9691
    endloop
  endfacet
  facet normal 0 0.999391 0.0348827
    outer loop
      vertex 189.77 145.914 0
      vertex 189.356 145.217 19.9691
      vertex 189.77 145.217 19.9691
    endloop
  endfacet
  facet normal 0 0.999391 0.0348827
    outer loop
      vertex 189.356 145.217 19.9691
      vertex 189.77 145.914 0
      vertex 184.361 145.914 0
    endloop
  endfacet
  facet normal -0.970146 -0.00824212 0.242381
    outer loop
      vertex 184.378 143.913 0
      vertex 189.356 145.217 19.9691
      vertex 184.361 145.914 0
    endloop
  endfacet
  facet normal -0.970141 -0.0084638 0.242394
    outer loop
      vertex 189.356 145.217 19.9691
      vertex 184.378 143.913 0
      vertex 189.356 143.218 19.8993
    endloop
  endfacet
  facet normal -0.923765 -0.382727 -0.0133651
    outer loop
      vertex 190.528 4.17412 0
      vertex 189.77 5.47673 15.0893
      vertex 189.77 6.00366 0
    endloop
  endfacet
  facet normal -0.923766 -0.382725 -0.0133653
    outer loop
      vertex 189.77 5.47673 15.0893
      vertex 190.528 4.17412 0
      vertex 190.528 3.64941 15.0255
    endloop
  endfacet
  facet normal 0.382615 0.923345 0.0322442
    outer loop
      vertex 193.356 11.0067 0
      vertex 196.185 9.30282 15.2229
      vertex 196.185 9.83442 0
    endloop
  endfacet
  facet normal 0.382623 0.923342 0.0322424
    outer loop
      vertex 196.185 9.30282 15.2229
      vertex 193.356 11.0067 0
      vertex 193.356 10.4737 15.2638
    endloop
  endfacet
  facet normal 0.923944 0.382296 0.0133502
    outer loop
      vertex 196.185 9.30282 15.2229
      vertex 196.942 8.00488 0
      vertex 196.185 9.83442 0
    endloop
  endfacet
  facet normal 0.923943 0.382296 0.0133501
    outer loop
      vertex 196.942 8.00488 0
      vertex 196.185 9.30282 15.2229
      vertex 196.942 7.47551 15.1591
    endloop
  endfacet
  facet normal 0.923944 -0.382296 -0.0133501
    outer loop
      vertex 196.942 5.47673 15.0893
      vertex 196.185 4.17412 0
      vertex 196.942 6.00366 0
    endloop
  endfacet
  facet normal 0.923944 -0.382294 -0.0133502
    outer loop
      vertex 196.185 4.17412 0
      vertex 196.942 5.47673 15.0893
      vertex 196.185 3.64941 15.0255
    endloop
  endfacet
  facet normal -0.382733 -0.923296 -0.0322427
    outer loop
      vertex 190.528 4.17412 0
      vertex 193.356 2.47855 14.9846
      vertex 190.528 3.64941 15.0255
    endloop
  endfacet
  facet normal -0.382734 -0.923296 -0.0322426
    outer loop
      vertex 193.356 2.47855 14.9846
      vertex 190.528 4.17412 0
      vertex 193.356 3.00183 0
    endloop
  endfacet
  facet normal -0.382739 0.923294 0.0322407
    outer loop
      vertex 193.356 11.0067 0
      vertex 190.528 9.30282 15.2229
      vertex 193.356 10.4737 15.2638
    endloop
  endfacet
  facet normal -0.382731 0.923297 0.0322425
    outer loop
      vertex 190.528 9.30282 15.2229
      vertex 193.356 11.0067 0
      vertex 190.528 9.83442 0
    endloop
  endfacet
  facet normal -0.923765 0.382727 0.0133652
    outer loop
      vertex 189.77 8.00488 0
      vertex 190.528 9.30282 15.2229
      vertex 190.528 9.83442 0
    endloop
  endfacet
  facet normal -0.923765 0.382727 0.0133652
    outer loop
      vertex 190.528 9.30282 15.2229
      vertex 189.77 8.00488 0
      vertex 189.77 7.47551 15.1591
    endloop
  endfacet
  facet normal 0.382618 -0.923344 -0.0322443
    outer loop
      vertex 196.185 4.17412 0
      vertex 193.356 2.47855 14.9846
      vertex 193.356 3.00183 0
    endloop
  endfacet
  facet normal 0.382618 -0.923344 -0.0322444
    outer loop
      vertex 193.356 2.47855 14.9846
      vertex 196.185 4.17412 0
      vertex 196.185 3.64941 15.0255
    endloop
  endfacet
  facet normal 0 -0.0349 0.999391
    outer loop
      vertex 196.942 7.47551 15.1591
      vertex 197.356 5.47673 15.0893
      vertex 197.356 7.47551 15.1591
    endloop
  endfacet
  facet normal 0 -0.0349 0.999391
    outer loop
      vertex 196.942 7.47551 15.1591
      vertex 196.942 5.47673 15.0893
      vertex 197.356 5.47673 15.0893
    endloop
  endfacet
  facet normal 2.96906e-05 -0.0348812 0.999391
    outer loop
      vertex 194.647 7.7658 15.1693
      vertex 196.942 7.47551 15.1591
      vertex 196.185 9.30282 15.2229
    endloop
  endfacet
  facet normal 0 -0.0349 0.999391
    outer loop
      vertex 196.942 7.47551 15.1591
      vertex 195.181 6.47612 15.1242
      vertex 196.942 5.47673 15.0893
    endloop
  endfacet
  facet normal 1.34084e-05 -0.0348764 0.999392
    outer loop
      vertex 194.647 5.18643 15.0792
      vertex 196.942 5.47673 15.0893
      vertex 195.181 6.47612 15.1242
    endloop
  endfacet
  facet normal 2.23256e-05 -0.0349393 0.999389
    outer loop
      vertex 196.942 7.47551 15.1591
      vertex 194.647 7.7658 15.1693
      vertex 195.181 6.47612 15.1242
    endloop
  endfacet
  facet normal 1.70573e-05 -0.0348685 0.999392
    outer loop
      vertex 193.356 10.4737 15.2638
      vertex 194.647 7.7658 15.1693
      vertex 196.185 9.30282 15.2229
    endloop
  endfacet
  facet normal -4.09408e-05 -0.0348962 0.999391
    outer loop
      vertex 193.356 10.4737 15.2638
      vertex 193.356 8.3 15.1879
      vertex 194.647 7.7658 15.1693
    endloop
  endfacet
  facet normal 4.09725e-05 -0.0348962 0.999391
    outer loop
      vertex 193.356 10.4737 15.2638
      vertex 192.066 7.7658 15.1693
      vertex 193.356 8.3 15.1879
    endloop
  endfacet
  facet normal -2.96791e-05 -0.0348812 0.999391
    outer loop
      vertex 189.77 7.47551 15.1591
      vertex 192.066 7.7658 15.1693
      vertex 190.528 9.30282 15.2229
    endloop
  endfacet
  facet normal -1.70616e-05 -0.0348685 0.999392
    outer loop
      vertex 190.528 9.30282 15.2229
      vertex 192.066 7.7658 15.1693
      vertex 193.356 10.4737 15.2638
    endloop
  endfacet
  facet normal 1.63989e-05 -0.0349 0.999391
    outer loop
      vertex 196.942 5.47673 15.0893
      vertex 194.647 5.18643 15.0792
      vertex 196.185 3.64941 15.0255
    endloop
  endfacet
  facet normal -1.98511e-05 -0.0349363 0.99939
    outer loop
      vertex 193.356 4.65223 15.0605
      vertex 196.185 3.64941 15.0255
      vertex 194.647 5.18643 15.0792
    endloop
  endfacet
  facet normal -5.72688e-06 -0.0348965 0.999391
    outer loop
      vertex 193.356 4.65223 15.0605
      vertex 193.356 2.47855 14.9846
      vertex 196.185 3.64941 15.0255
    endloop
  endfacet
  facet normal 3.63667e-05 -0.0348965 0.999391
    outer loop
      vertex 192.066 5.18643 15.0792
      vertex 193.356 2.47855 14.9846
      vertex 193.356 4.65223 15.0605
    endloop
  endfacet
  facet normal -1.79867e-06 -0.0349146 0.99939
    outer loop
      vertex 192.066 5.18643 15.0792
      vertex 190.528 3.64941 15.0255
      vertex 193.356 2.47855 14.9846
    endloop
  endfacet
  facet normal -1.34036e-05 -0.0348764 0.999392
    outer loop
      vertex 189.77 5.47673 15.0893
      vertex 192.066 5.18643 15.0792
      vertex 191.531 6.47612 15.1242
    endloop
  endfacet
  facet normal -2.23176e-05 -0.0349393 0.999389
    outer loop
      vertex 192.066 7.7658 15.1693
      vertex 189.77 7.47551 15.1591
      vertex 191.531 6.47612 15.1242
    endloop
  endfacet
  facet normal 0 -0.0349 0.999391
    outer loop
      vertex 189.77 5.47673 15.0893
      vertex 191.531 6.47612 15.1242
      vertex 189.77 7.47551 15.1591
    endloop
  endfacet
  facet normal -1.63926e-05 -0.0349 0.999391
    outer loop
      vertex 192.066 5.18643 15.0792
      vertex 189.77 5.47673 15.0893
      vertex 190.528 3.64941 15.0255
    endloop
  endfacet
  facet normal 0 -0.0349 0.999391
    outer loop
      vertex 189.356 7.47551 15.1591
      vertex 189.77 5.47673 15.0893
      vertex 189.77 7.47551 15.1591
    endloop
  endfacet
  facet normal 0 -0.0349 0.999391
    outer loop
      vertex 189.77 5.47673 15.0893
      vertex 189.356 7.47551 15.1591
      vertex 189.356 5.47673 15.0893
    endloop
  endfacet
  facet normal 0.970144 -0.00824119 0.242391
    outer loop
      vertex 197.356 7.47551 15.1591
      vertex 201.131 6.00366 0
      vertex 201.148 8.00488 0
    endloop
  endfacet
  facet normal 0.970137 -0.00846529 0.242411
    outer loop
      vertex 201.131 6.00366 0
      vertex 197.356 7.47551 15.1591
      vertex 197.356 5.47673 15.0893
    endloop
  endfacet
  facet normal 0 -0.999391 -0.0348995
    outer loop
      vertex 196.942 6.00366 0
      vertex 197.356 5.47673 15.0893
      vertex 196.942 5.47673 15.0893
    endloop
  endfacet
  facet normal 0 -0.999391 -0.0348995
    outer loop
      vertex 197.356 5.47673 15.0893
      vertex 196.942 6.00366 0
      vertex 201.131 6.00366 0
    endloop
  endfacet
  facet normal -0 -0.999391 -0.0348995
    outer loop
      vertex 189.77 6.00366 0
      vertex 189.356 5.47673 15.0893
      vertex 185.582 6.00366 0
    endloop
  endfacet
  facet normal 0 -0.999391 -0.0348995
    outer loop
      vertex 189.356 5.47673 15.0893
      vertex 189.77 6.00366 0
      vertex 189.77 5.47673 15.0893
    endloop
  endfacet
  facet normal -0 0.999391 0.0348997
    outer loop
      vertex 196.942 8.00488 0
      vertex 197.356 7.47551 15.1591
      vertex 201.148 8.00488 0
    endloop
  endfacet
  facet normal 0 0.999391 0.0348997
    outer loop
      vertex 197.356 7.47551 15.1591
      vertex 196.942 8.00488 0
      vertex 196.942 7.47551 15.1591
    endloop
  endfacet
  facet normal 0 0.999391 0.0348997
    outer loop
      vertex 189.77 8.00488 0
      vertex 189.356 7.47551 15.1591
      vertex 189.77 7.47551 15.1591
    endloop
  endfacet
  facet normal 0 0.999391 0.0348997
    outer loop
      vertex 189.356 7.47551 15.1591
      vertex 189.77 8.00488 0
      vertex 185.564 8.00488 0
    endloop
  endfacet
  facet normal -0.970144 -0.00872597 0.242374
    outer loop
      vertex 185.582 6.00366 0
      vertex 189.356 7.47551 15.1591
      vertex 185.564 8.00488 0
    endloop
  endfacet
  facet normal -0.970152 -0.00846318 0.24235
    outer loop
      vertex 189.356 7.47551 15.1591
      vertex 185.582 6.00366 0
      vertex 189.356 5.47673 15.0893
    endloop
  endfacet
  facet normal 0.38289 0.923231 0.032251
    outer loop
      vertex 192.066 143.692 -2
      vertex 193.356 142.393 19.8706
      vertex 193.356 143.157 -2
    endloop
  endfacet
  facet normal 0.382676 0.923319 0.0322688
    outer loop
      vertex 193.356 142.393 19.8706
      vertex 192.066 143.692 -2
      vertex 192.066 142.927 19.8892
    endloop
  endfacet
  facet normal -0.382423 -0.923425 -0.032239
    outer loop
      vertex 193.356 146.809 -2
      vertex 194.647 145.507 19.9793
      vertex 193.356 146.041 19.9979
    endloop
  endfacet
  facet normal -0.382638 -0.923337 -0.0322212
    outer loop
      vertex 194.647 145.507 19.9793
      vertex 193.356 146.809 -2
      vertex 194.647 146.274 -2
    endloop
  endfacet
  facet normal -0.923987 -0.382191 -0.0133371
    outer loop
      vertex 195.181 144.983 -2
      vertex 194.647 145.507 19.9793
      vertex 194.647 146.274 -2
    endloop
  endfacet
  facet normal -0.924047 -0.382046 -0.0133421
    outer loop
      vertex 194.647 145.507 19.9793
      vertex 195.181 144.983 -2
      vertex 195.181 144.217 19.9342
    endloop
  endfacet
  facet normal 0.382891 -0.923232 -0.0322175
    outer loop
      vertex 193.356 146.809 -2
      vertex 192.066 145.507 19.9793
      vertex 192.066 146.274 -2
    endloop
  endfacet
  facet normal 0.382676 -0.92332 -0.0322353
    outer loop
      vertex 192.066 145.507 19.9793
      vertex 193.356 146.809 -2
      vertex 193.356 146.041 19.9979
    endloop
  endfacet
  facet normal -0.382423 0.923423 0.0322725
    outer loop
      vertex 194.647 143.692 -2
      vertex 193.356 142.393 19.8706
      vertex 194.647 142.927 19.8892
    endloop
  endfacet
  facet normal -0.382637 0.923336 0.0322546
    outer loop
      vertex 193.356 142.393 19.8706
      vertex 194.647 143.692 -2
      vertex 193.356 143.157 -2
    endloop
  endfacet
  facet normal -0.923987 0.382191 0.0133471
    outer loop
      vertex 194.647 143.692 -2
      vertex 195.181 144.217 19.9342
      vertex 195.181 144.983 -2
    endloop
  endfacet
  facet normal -0.924047 0.382047 0.013352
    outer loop
      vertex 195.181 144.217 19.9342
      vertex 194.647 143.692 -2
      vertex 194.647 142.927 19.8892
    endloop
  endfacet
  facet normal 0.923734 0.382802 0.0133685
    outer loop
      vertex 191.531 144.217 19.9342
      vertex 192.066 143.692 -2
      vertex 191.531 144.983 -2
    endloop
  endfacet
  facet normal 0.923794 0.382657 0.0133734
    outer loop
      vertex 192.066 143.692 -2
      vertex 191.531 144.217 19.9342
      vertex 192.066 142.927 19.8892
    endloop
  endfacet
  facet normal 0.923734 -0.382802 -0.0133584
    outer loop
      vertex 192.066 145.507 19.9793
      vertex 191.531 144.983 -2
      vertex 192.066 146.274 -2
    endloop
  endfacet
  facet normal 0.923794 -0.382657 -0.0133634
    outer loop
      vertex 191.531 144.983 -2
      vertex 192.066 145.507 19.9793
      vertex 191.531 144.217 19.9342
    endloop
  endfacet
  facet normal -0.382545 -0.923374 -0.0322452
    outer loop
      vertex 193.356 8.90022 -2
      vertex 194.647 7.7658 15.1693
      vertex 193.356 8.3 15.1879
    endloop
  endfacet
  facet normal -0.382552 -0.923371 -0.0322446
    outer loop
      vertex 194.647 7.7658 15.1693
      vertex 193.356 8.90022 -2
      vertex 194.647 8.36536 -2
    endloop
  endfacet
  facet normal -0.924013 -0.382128 -0.0133441
    outer loop
      vertex 195.181 7.07411 -2
      vertex 194.647 7.7658 15.1693
      vertex 194.647 8.36536 -2
    endloop
  endfacet
  facet normal -0.924014 -0.382127 -0.0133442
    outer loop
      vertex 194.647 7.7658 15.1693
      vertex 195.181 7.07411 -2
      vertex 195.181 6.47612 15.1242
    endloop
  endfacet
  facet normal 0.382805 -0.923266 -0.0322409
    outer loop
      vertex 193.356 8.90022 -2
      vertex 192.066 7.7658 15.1693
      vertex 192.066 8.36536 -2
    endloop
  endfacet
  facet normal 0.382798 -0.923269 -0.0322416
    outer loop
      vertex 192.066 7.7658 15.1693
      vertex 193.356 8.90022 -2
      vertex 193.356 8.3 15.1879
    endloop
  endfacet
  facet normal -0.924014 0.382126 0.0133441
    outer loop
      vertex 194.647 5.78285 -2
      vertex 195.181 6.47612 15.1242
      vertex 195.181 7.07411 -2
    endloop
  endfacet
  facet normal -0.924014 0.382125 0.0133441
    outer loop
      vertex 195.181 6.47612 15.1242
      vertex 194.647 5.78285 -2
      vertex 194.647 5.18643 15.0792
    endloop
  endfacet
  facet normal 0.92376 -0.382739 -0.0133654
    outer loop
      vertex 192.066 7.7658 15.1693
      vertex 191.531 7.07411 -2
      vertex 192.066 8.36536 -2
    endloop
  endfacet
  facet normal 0.92376 -0.382738 -0.0133655
    outer loop
      vertex 191.531 7.07411 -2
      vertex 192.066 7.7658 15.1693
      vertex 191.531 6.47612 15.1242
    endloop
  endfacet
  facet normal 0.382799 0.923269 0.0322415
    outer loop
      vertex 192.066 5.78285 -2
      vertex 193.356 4.65223 15.0605
      vertex 193.356 5.248 -2
    endloop
  endfacet
  facet normal 0.382801 0.923268 0.0322413
    outer loop
      vertex 193.356 4.65223 15.0605
      vertex 192.066 5.78285 -2
      vertex 192.066 5.18643 15.0792
    endloop
  endfacet
  facet normal -0.382548 0.923373 0.032245
    outer loop
      vertex 194.647 5.78285 -2
      vertex 193.356 4.65223 15.0605
      vertex 194.647 5.18643 15.0792
    endloop
  endfacet
  facet normal -0.382546 0.923374 0.0322451
    outer loop
      vertex 193.356 4.65223 15.0605
      vertex 194.647 5.78285 -2
      vertex 193.356 5.248 -2
    endloop
  endfacet
  facet normal 0.923761 0.382736 0.0133654
    outer loop
      vertex 191.531 6.47612 15.1242
      vertex 192.066 5.78285 -2
      vertex 191.531 7.07411 -2
    endloop
  endfacet
  facet normal 0.923761 0.382736 0.0133655
    outer loop
      vertex 192.066 5.78285 -2
      vertex 191.531 6.47612 15.1242
      vertex 192.066 5.18643 15.0792
    endloop
  endfacet
  facet normal 0 0 -1
    outer loop
      vertex 194.647 143.692 -2
      vertex 257.808 151.987 -2
      vertex 194.647 8.36536 -2
    endloop
  endfacet
  facet normal 0 0 -1
    outer loop
      vertex 257.808 151.987 -2
      vertex 194.647 143.692 -2
      vertex 195.181 144.983 -2
    endloop
  endfacet
  facet normal 0 0 -1
    outer loop
      vertex 193.356 8.90022 -2
      vertex 194.647 143.692 -2
      vertex 194.647 8.36536 -2
    endloop
  endfacet
  facet normal 0 0 -1
    outer loop
      vertex 193.356 8.90022 -2
      vertex 193.356 143.157 -2
      vertex 194.647 143.692 -2
    endloop
  endfacet
  facet normal 0 0 -1
    outer loop
      vertex 192.066 8.36536 -2
      vertex 193.356 143.157 -2
      vertex 193.356 8.90022 -2
    endloop
  endfacet
  facet normal 0 0 -1
    outer loop
      vertex 192.066 8.36536 -2
      vertex 192.066 143.692 -2
      vertex 193.356 143.157 -2
    endloop
  endfacet
  facet normal 0 0 -1
    outer loop
      vertex 128.904 0.0698424 -2
      vertex 192.066 8.36536 -2
      vertex 191.531 7.07411 -2
    endloop
  endfacet
  facet normal -0 0 -1
    outer loop
      vertex 192.066 8.36536 -2
      vertex 128.904 0.0698424 -2
      vertex 192.066 143.692 -2
    endloop
  endfacet
  facet normal 0 0 -1
    outer loop
      vertex 194.647 8.36536 -2
      vertex 257.808 0.0698424 -2
      vertex 195.181 7.07411 -2
    endloop
  endfacet
  facet normal 0 0 -1
    outer loop
      vertex 257.808 0.0698424 -2
      vertex 194.647 5.78285 -2
      vertex 195.181 7.07411 -2
    endloop
  endfacet
  facet normal 0 0 -1
    outer loop
      vertex 257.808 0.0698424 -2
      vertex 193.356 5.248 -2
      vertex 194.647 5.78285 -2
    endloop
  endfacet
  facet normal 0 0 -1
    outer loop
      vertex 128.904 151.987 -2
      vertex 192.066 143.692 -2
      vertex 128.904 0.0698424 -2
    endloop
  endfacet
  facet normal -0 0 -1
    outer loop
      vertex 192.066 5.78285 -2
      vertex 128.904 0.0698424 -2
      vertex 191.531 7.07411 -2
    endloop
  endfacet
  facet normal -0 0 -1
    outer loop
      vertex 193.356 5.248 -2
      vertex 128.904 0.0698424 -2
      vertex 192.066 5.78285 -2
    endloop
  endfacet
  facet normal 0 0 -1
    outer loop
      vertex 128.904 0.0698424 -2
      vertex 193.356 5.248 -2
      vertex 257.808 0.0698424 -2
    endloop
  endfacet
  facet normal 0 0 -1
    outer loop
      vertex 257.808 0.0698424 -2
      vertex 194.647 8.36536 -2
      vertex 257.808 151.987 -2
    endloop
  endfacet
  facet normal 0 0 -1
    outer loop
      vertex 194.647 146.274 -2
      vertex 257.808 151.987 -2
      vertex 195.181 144.983 -2
    endloop
  endfacet
  facet normal 0 0 -1
    outer loop
      vertex 193.356 146.809 -2
      vertex 257.808 151.987 -2
      vertex 194.647 146.274 -2
    endloop
  endfacet
  facet normal 0 0 -1
    outer loop
      vertex 192.066 143.692 -2
      vertex 128.904 151.987 -2
      vertex 191.531 144.983 -2
    endloop
  endfacet
  facet normal 0 0 -1
    outer loop
      vertex 193.356 146.809 -2
      vertex 128.904 151.987 -2
      vertex 257.808 151.987 -2
    endloop
  endfacet
  facet normal 0 0 -1
    outer loop
      vertex 192.066 146.274 -2
      vertex 128.904 151.987 -2
      vertex 193.356 146.809 -2
    endloop
  endfacet
  facet normal 0 0 -1
    outer loop
      vertex 191.531 144.983 -2
      vertex 128.904 151.987 -2
      vertex 192.066 146.274 -2
    endloop
  endfacet
  facet normal 0 0 1
    outer loop
      vertex 196.185 142.083 0
      vertex 202.334 143.913 0
      vertex 196.942 143.913 0
    endloop
  endfacet
  facet normal 0 0 1
    outer loop
      vertex 193.356 140.911 0
      vertex 202.334 143.913 0
      vertex 196.185 142.083 0
    endloop
  endfacet
  facet normal 0 0 1
    outer loop
      vertex 202.334 143.913 0
      vertex 196.185 9.83442 0
      vertex 201.148 8.00488 0
    endloop
  endfacet
  facet normal 0 0 1
    outer loop
      vertex 201.148 8.00488 0
      vertex 196.185 9.83442 0
      vertex 196.942 8.00488 0
    endloop
  endfacet
  facet normal 0 0 1
    outer loop
      vertex 193.356 11.0067 0
      vertex 202.334 143.913 0
      vertex 193.356 140.911 0
    endloop
  endfacet
  facet normal 0 0 1
    outer loop
      vertex 202.334 143.913 0
      vertex 193.356 11.0067 0
      vertex 196.185 9.83442 0
    endloop
  endfacet
  facet normal 0 0 1
    outer loop
      vertex 184.378 143.913 0
      vertex 193.356 140.911 0
      vertex 190.528 142.083 0
    endloop
  endfacet
  facet normal 0 0 1
    outer loop
      vertex 193.356 140.911 0
      vertex 184.378 143.913 0
      vertex 193.356 11.0067 0
    endloop
  endfacet
  facet normal -0 0 1
    outer loop
      vertex 184.378 143.913 0
      vertex 190.528 142.083 0
      vertex 189.77 143.913 0
    endloop
  endfacet
  facet normal 0 0 1
    outer loop
      vertex 193.356 11.0067 0
      vertex 184.378 143.913 0
      vertex 190.528 9.83442 0
    endloop
  endfacet
  facet normal 0 0 1
    outer loop
      vertex 190.528 9.83442 0
      vertex 185.564 8.00488 0
      vertex 189.77 8.00488 0
    endloop
  endfacet
  facet normal 0 0 1
    outer loop
      vertex 190.528 9.83442 0
      vertex 184.378 143.913 0
      vertex 185.564 8.00488 0
    endloop
  endfacet
  facet normal 0 0 1
    outer loop
      vertex 202.334 143.913 0
      vertex 257.808 151.918 0
      vertex 202.352 145.914 0
    endloop
  endfacet
  facet normal -0 0 1
    outer loop
      vertex 193.356 148.916 0
      vertex 202.352 145.914 0
      vertex 257.808 151.918 0
    endloop
  endfacet
  facet normal 0 0 1
    outer loop
      vertex 202.352 145.914 0
      vertex 196.185 147.743 0
      vertex 196.942 145.914 0
    endloop
  endfacet
  facet normal 0 0 1
    outer loop
      vertex 202.352 145.914 0
      vertex 193.356 148.916 0
      vertex 196.185 147.743 0
    endloop
  endfacet
  facet normal 0 0 1
    outer loop
      vertex 190.528 147.743 0
      vertex 184.361 145.914 0
      vertex 189.77 145.914 0
    endloop
  endfacet
  facet normal 0 0 1
    outer loop
      vertex 193.356 148.916 0
      vertex 184.361 145.914 0
      vertex 190.528 147.743 0
    endloop
  endfacet
  facet normal 0 0 1
    outer loop
      vertex 193.356 148.916 0
      vertex 128.904 151.918 0
      vertex 184.361 145.914 0
    endloop
  endfacet
  facet normal -0 0 1
    outer loop
      vertex 128.904 151.918 0
      vertex 193.356 148.916 0
      vertex 257.808 151.918 0
    endloop
  endfacet
  facet normal 0 0 1
    outer loop
      vertex 257.808 151.918 0
      vertex 202.334 143.913 0
      vertex 257.808 8.8961e-07 0
    endloop
  endfacet
  facet normal -0 0 1
    outer loop
      vertex 201.148 8.00488 0
      vertex 257.808 8.8961e-07 0
      vertex 202.334 143.913 0
    endloop
  endfacet
  facet normal -0 0 1
    outer loop
      vertex 201.131 6.00366 0
      vertex 257.808 8.8961e-07 0
      vertex 201.148 8.00488 0
    endloop
  endfacet
  facet normal 0 0 1
    outer loop
      vertex 196.185 4.17412 0
      vertex 201.131 6.00366 0
      vertex 196.942 6.00366 0
    endloop
  endfacet
  facet normal 0 0 1
    outer loop
      vertex 201.131 6.00366 0
      vertex 196.185 4.17412 0
      vertex 257.808 8.8961e-07 0
    endloop
  endfacet
  facet normal -0 0 1
    outer loop
      vertex 193.356 3.00183 0
      vertex 257.808 8.8961e-07 0
      vertex 196.185 4.17412 0
    endloop
  endfacet
  facet normal -0 0 1
    outer loop
      vertex 185.582 6.00366 0
      vertex 190.528 4.17412 0
      vertex 189.77 6.00366 0
    endloop
  endfacet
  facet normal 0 0 1
    outer loop
      vertex 128.904 8.8961e-07 0
      vertex 190.528 4.17412 0
      vertex 185.582 6.00366 0
    endloop
  endfacet
  facet normal 0 0 1
    outer loop
      vertex 128.904 8.8961e-07 0
      vertex 185.564 8.00488 0
      vertex 184.378 143.913 0
    endloop
  endfacet
  facet normal 0 0 1
    outer loop
      vertex 128.904 151.918 0
      vertex 184.378 143.913 0
      vertex 184.361 145.914 0
    endloop
  endfacet
  facet normal 0 0 1
    outer loop
      vertex 184.378 143.913 0
      vertex 128.904 151.918 0
      vertex 128.904 8.8961e-07 0
    endloop
  endfacet
  facet normal 0 0 1
    outer loop
      vertex 193.356 3.00183 0
      vertex 128.904 8.8961e-07 0
      vertex 257.808 8.8961e-07 0
    endloop
  endfacet
  facet normal 0 0 1
    outer loop
      vertex 190.528 4.17412 0
      vertex 128.904 8.8961e-07 0
      vertex 193.356 3.00183 0
    endloop
  endfacet
  facet normal 0 0 1
    outer loop
      vertex 185.564 8.00488 0
      vertex 128.904 8.8961e-07 0
      vertex 185.582 6.00366 0
    endloop
  endfacet
  facet normal 0 -0.999391 -0.0348995
    outer loop
      vertex 128.904 0.0698424 -2
      vertex 257.808 8.8961e-07 0
      vertex 128.904 8.8961e-07 0
    endloop
  endfacet
  facet normal 0 -0.999391 -0.0348995
    outer loop
      vertex 257.808 8.8961e-07 0
      vertex 128.904 0.0698424 -2
      vertex 257.808 0.0698424 -2
    endloop
  endfacet
  facet normal 0 0.999405 0.0344795
    outer loop
      vertex 257.808 151.987 -2
      vertex 128.904 151.918 0
      vertex 257.808 151.918 0
    endloop
  endfacet
  facet normal 0 0.999405 0.0344795
    outer loop
      vertex 128.904 151.918 0
      vertex 257.808 151.987 -2
      vertex 128.904 151.987 -2
    endloop
  endfacet
  facet normal 1 0 0
    outer loop
      vertex 257.808 151.918 0
      vertex 257.808 0.0698424 -2
      vertex 257.808 151.987 -2
    endloop
  endfacet
  facet normal 1 0 -0
    outer loop
      vertex 257.808 0.0698424 -2
      vertex 257.808 151.918 0
      vertex 257.808 8.8961e-07 0
    endloop
  endfacet
  facet normal -1 0 0
    outer loop
      vertex 128.904 0.0698424 -2
      vertex 128.904 151.918 0
      vertex 128.904 151.987 -2
    endloop
  endfacet
  facet normal -1 -0 0
    outer loop
      vertex 128.904 151.918 0
      vertex 128.904 0.0698424 -2
      vertex 128.904 8.8961e-07 0
    endloop
  endfacet
endsolid OpenSCAD_Model
