%TF.GenerationSoftware,KiCad,Pcbnew,8.0.5*%
%TF.CreationDate,2024-11-10T22:51:29+11:00*%
%TF.ProjectId,keyboard,6b657962-6f61-4726-942e-6b696361645f,rev?*%
%TF.SameCoordinates,Original*%
%TF.FileFunction,Paste,Top*%
%TF.FilePolarity,Positive*%
%FSLAX46Y46*%
G04 Gerber Fmt 4.6, Leading zero omitted, Abs format (unit mm)*
G04 Created by KiCad (PCBNEW 8.0.5) date 2024-11-10 22:51:29*
%MOMM*%
%LPD*%
G01*
G04 APERTURE LIST*
G04 Aperture macros list*
%AMRoundRect*
0 Rectangle with rounded corners*
0 $1 Rounding radius*
0 $2 $3 $4 $5 $6 $7 $8 $9 X,Y pos of 4 corners*
0 Add a 4 corners polygon primitive as box body*
4,1,4,$2,$3,$4,$5,$6,$7,$8,$9,$2,$3,0*
0 Add four circle primitives for the rounded corners*
1,1,$1+$1,$2,$3*
1,1,$1+$1,$4,$5*
1,1,$1+$1,$6,$7*
1,1,$1+$1,$8,$9*
0 Add four rect primitives between the rounded corners*
20,1,$1+$1,$2,$3,$4,$5,0*
20,1,$1+$1,$4,$5,$6,$7,0*
20,1,$1+$1,$6,$7,$8,$9,0*
20,1,$1+$1,$8,$9,$2,$3,0*%
G04 Aperture macros list end*
%ADD10RoundRect,0.200000X-0.550000X-0.200000X0.550000X-0.200000X0.550000X0.200000X-0.550000X0.200000X0*%
G04 APERTURE END LIST*
D10*
%TO.C,D94*%
X377910000Y-32610000D03*
X377910000Y-34390000D03*
X381190000Y-34390000D03*
X381190000Y-32610000D03*
%TD*%
%TO.C,D93*%
X353915000Y-32610000D03*
X353915000Y-34390000D03*
X350635000Y-34390000D03*
X350635000Y-32610000D03*
%TD*%
%TO.C,D91*%
X359410000Y-147110000D03*
X359410000Y-148890000D03*
X362690000Y-148890000D03*
X362690000Y-147110000D03*
%TD*%
%TO.C,D90*%
X331410000Y-147110000D03*
X331410000Y-148890000D03*
X334690000Y-148890000D03*
X334690000Y-147110000D03*
%TD*%
%TO.C,D89*%
X295410000Y-147110000D03*
X295410000Y-148890000D03*
X298690000Y-148890000D03*
X298690000Y-147110000D03*
%TD*%
%TO.C,D88*%
X271410000Y-147110000D03*
X271410000Y-148890000D03*
X274690000Y-148890000D03*
X274690000Y-147110000D03*
%TD*%
%TO.C,D87*%
X247910000Y-147110000D03*
X247910000Y-148890000D03*
X251190000Y-148890000D03*
X251190000Y-147110000D03*
%TD*%
%TO.C,D86*%
X223910000Y-147110000D03*
X223910000Y-148890000D03*
X227190000Y-148890000D03*
X227190000Y-147110000D03*
%TD*%
%TO.C,D85*%
X152360000Y-147110000D03*
X152360000Y-148890000D03*
X155640000Y-148890000D03*
X155640000Y-147110000D03*
%TD*%
%TO.C,D84*%
X80910000Y-147110000D03*
X80910000Y-148890000D03*
X84190000Y-148890000D03*
X84190000Y-147110000D03*
%TD*%
%TO.C,D83*%
X56910000Y-147110000D03*
X56910000Y-148890000D03*
X60190000Y-148890000D03*
X60190000Y-147110000D03*
%TD*%
%TO.C,D82*%
X33410000Y-147110000D03*
X33410000Y-148890000D03*
X36690000Y-148890000D03*
X36690000Y-147110000D03*
%TD*%
%TO.C,D81*%
X378410000Y-137110000D03*
X378410000Y-138890000D03*
X381690000Y-138890000D03*
X381690000Y-137110000D03*
%TD*%
%TO.C,D80*%
X358860000Y-126610000D03*
X358860000Y-128390000D03*
X362140000Y-128390000D03*
X362140000Y-126610000D03*
%TD*%
%TO.C,D79*%
X339860000Y-126260000D03*
X339860000Y-128040000D03*
X343140000Y-128040000D03*
X343140000Y-126260000D03*
%TD*%
%TO.C,D78*%
X320860000Y-126110000D03*
X320860000Y-127890000D03*
X324140000Y-127890000D03*
X324140000Y-126110000D03*
%TD*%
%TO.C,D77*%
X280860000Y-126610000D03*
X280860000Y-128390000D03*
X284140000Y-128390000D03*
X284140000Y-126610000D03*
%TD*%
%TO.C,D76*%
X245360000Y-126610000D03*
X245360000Y-128390000D03*
X248640000Y-128390000D03*
X248640000Y-126610000D03*
%TD*%
%TO.C,D75*%
X224860000Y-126610000D03*
X224860000Y-128390000D03*
X228140000Y-128390000D03*
X228140000Y-126610000D03*
%TD*%
%TO.C,D74*%
X207360000Y-126610000D03*
X207360000Y-128390000D03*
X210640000Y-128390000D03*
X210640000Y-126610000D03*
%TD*%
%TO.C,D73*%
X187360000Y-126610000D03*
X187360000Y-128390000D03*
X190640000Y-128390000D03*
X190640000Y-126610000D03*
%TD*%
%TO.C,D72*%
X167360000Y-126610000D03*
X167360000Y-128390000D03*
X170640000Y-128390000D03*
X170640000Y-126610000D03*
%TD*%
%TO.C,D70*%
X129860000Y-126610000D03*
X129860000Y-128390000D03*
X133140000Y-128390000D03*
X133140000Y-126610000D03*
%TD*%
%TO.C,D69*%
X110860000Y-126610000D03*
X110860000Y-128390000D03*
X114140000Y-128390000D03*
X114140000Y-126610000D03*
%TD*%
%TO.C,D68*%
X91860000Y-126610000D03*
X91860000Y-128390000D03*
X95140000Y-128390000D03*
X95140000Y-126610000D03*
%TD*%
%TO.C,D66*%
X41860000Y-126610000D03*
X41860000Y-128390000D03*
X45140000Y-128390000D03*
X45140000Y-126610000D03*
%TD*%
%TO.C,D65*%
X358860000Y-107610000D03*
X358860000Y-109390000D03*
X362140000Y-109390000D03*
X362140000Y-107610000D03*
%TD*%
%TO.C,D64*%
X340360000Y-107610000D03*
X340360000Y-109390000D03*
X343640000Y-109390000D03*
X343640000Y-107610000D03*
%TD*%
%TO.C,D63*%
X320910000Y-107410000D03*
X320910000Y-109190000D03*
X324190000Y-109190000D03*
X324190000Y-107410000D03*
%TD*%
%TO.C,D61*%
X257640000Y-107610000D03*
X257640000Y-109390000D03*
X254360000Y-109390000D03*
X254360000Y-107610000D03*
%TD*%
%TO.C,D60*%
X238640000Y-107610000D03*
X238640000Y-109390000D03*
X235360000Y-109390000D03*
X235360000Y-107610000D03*
%TD*%
%TO.C,D59*%
X219640000Y-107610000D03*
X219640000Y-109390000D03*
X216360000Y-109390000D03*
X216360000Y-107610000D03*
%TD*%
%TO.C,D58*%
X200640000Y-107610000D03*
X200640000Y-109390000D03*
X197360000Y-109390000D03*
X197360000Y-107610000D03*
%TD*%
%TO.C,D57*%
X181640000Y-107610000D03*
X181640000Y-109390000D03*
X178360000Y-109390000D03*
X178360000Y-107610000D03*
%TD*%
%TO.C,D56*%
X162140000Y-107610000D03*
X162140000Y-109390000D03*
X158860000Y-109390000D03*
X158860000Y-107610000D03*
%TD*%
%TO.C,D55*%
X143140000Y-107610000D03*
X143140000Y-109390000D03*
X139860000Y-109390000D03*
X139860000Y-107610000D03*
%TD*%
%TO.C,D54*%
X124140000Y-107610000D03*
X124140000Y-109390000D03*
X120860000Y-109390000D03*
X120860000Y-107610000D03*
%TD*%
%TO.C,D53*%
X105140000Y-107610000D03*
X105140000Y-109390000D03*
X101860000Y-109390000D03*
X101860000Y-107610000D03*
%TD*%
%TO.C,D52*%
X86640000Y-107610000D03*
X86640000Y-109390000D03*
X83360000Y-109390000D03*
X83360000Y-107610000D03*
%TD*%
%TO.C,D51*%
X67640000Y-107610000D03*
X67640000Y-109390000D03*
X64360000Y-109390000D03*
X64360000Y-107610000D03*
%TD*%
%TO.C,D50*%
X41140000Y-107610000D03*
X41140000Y-109390000D03*
X37860000Y-109390000D03*
X37860000Y-107610000D03*
%TD*%
%TO.C,D49*%
X378860000Y-98760000D03*
X378860000Y-100540000D03*
X382140000Y-100540000D03*
X382140000Y-98760000D03*
%TD*%
%TO.C,D48*%
X359360000Y-88610000D03*
X359360000Y-90390000D03*
X362640000Y-90390000D03*
X362640000Y-88610000D03*
%TD*%
%TO.C,D47*%
X343690000Y-88610000D03*
X343690000Y-90390000D03*
X340410000Y-90390000D03*
X340410000Y-88610000D03*
%TD*%
%TO.C,D46*%
X321860000Y-88610000D03*
X321860000Y-90390000D03*
X325140000Y-90390000D03*
X325140000Y-88610000D03*
%TD*%
%TO.C,D45*%
X291860000Y-88610000D03*
X291860000Y-90390000D03*
X295140000Y-90390000D03*
X295140000Y-88610000D03*
%TD*%
%TO.C,D44*%
X268360000Y-88610000D03*
X268360000Y-90390000D03*
X271640000Y-90390000D03*
X271640000Y-88610000D03*
%TD*%
%TO.C,D43*%
X249860000Y-88610000D03*
X249860000Y-90390000D03*
X253140000Y-90390000D03*
X253140000Y-88610000D03*
%TD*%
%TO.C,D42*%
X230860000Y-88610000D03*
X230860000Y-90390000D03*
X234140000Y-90390000D03*
X234140000Y-88610000D03*
%TD*%
%TO.C,D41*%
X211860000Y-88610000D03*
X211860000Y-90390000D03*
X215140000Y-90390000D03*
X215140000Y-88610000D03*
%TD*%
%TO.C,D40*%
X192860000Y-88610000D03*
X192860000Y-90390000D03*
X196140000Y-90390000D03*
X196140000Y-88610000D03*
%TD*%
%TO.C,D39*%
X173860000Y-88610000D03*
X173860000Y-90390000D03*
X177140000Y-90390000D03*
X177140000Y-88610000D03*
%TD*%
%TO.C,D38*%
X154360000Y-88610000D03*
X154360000Y-90390000D03*
X157640000Y-90390000D03*
X157640000Y-88610000D03*
%TD*%
%TO.C,D37*%
X136360000Y-88610000D03*
X136360000Y-90390000D03*
X139640000Y-90390000D03*
X139640000Y-88610000D03*
%TD*%
%TO.C,D35*%
X97860000Y-88610000D03*
X97860000Y-90390000D03*
X101140000Y-90390000D03*
X101140000Y-88610000D03*
%TD*%
%TO.C,D34*%
X79360000Y-88610000D03*
X79360000Y-90390000D03*
X82640000Y-90390000D03*
X82640000Y-88610000D03*
%TD*%
%TO.C,D33*%
X59860000Y-88610000D03*
X59860000Y-90390000D03*
X63140000Y-90390000D03*
X63140000Y-88610000D03*
%TD*%
%TO.C,D32*%
X36360000Y-88610000D03*
X36360000Y-90390000D03*
X39640000Y-90390000D03*
X39640000Y-88610000D03*
%TD*%
%TO.C,D31*%
X378910000Y-70110000D03*
X378910000Y-71890000D03*
X382190000Y-71890000D03*
X382190000Y-70110000D03*
%TD*%
%TO.C,D30*%
X359860000Y-69610000D03*
X359860000Y-71390000D03*
X363140000Y-71390000D03*
X363140000Y-69610000D03*
%TD*%
%TO.C,D29*%
X337972500Y-69272500D03*
X337972500Y-71052500D03*
X341252500Y-71052500D03*
X341252500Y-69272500D03*
%TD*%
%TO.C,D28*%
X322360000Y-69610000D03*
X322360000Y-71390000D03*
X325640000Y-71390000D03*
X325640000Y-69610000D03*
%TD*%
%TO.C,D27*%
X286860000Y-69610000D03*
X286860000Y-71390000D03*
X290140000Y-71390000D03*
X290140000Y-69610000D03*
%TD*%
%TO.C,D26*%
X258910000Y-69610000D03*
X258910000Y-71390000D03*
X262190000Y-71390000D03*
X262190000Y-69610000D03*
%TD*%
%TO.C,D25*%
X240360000Y-69610000D03*
X240360000Y-71390000D03*
X243640000Y-71390000D03*
X243640000Y-69610000D03*
%TD*%
%TO.C,D24*%
X220910000Y-69110000D03*
X220910000Y-70890000D03*
X224190000Y-70890000D03*
X224190000Y-69110000D03*
%TD*%
%TO.C,D23*%
X201910000Y-69110000D03*
X201910000Y-70890000D03*
X205190000Y-70890000D03*
X205190000Y-69110000D03*
%TD*%
%TO.C,D22*%
X182910000Y-69610000D03*
X182910000Y-71390000D03*
X186190000Y-71390000D03*
X186190000Y-69610000D03*
%TD*%
%TO.C,D21*%
X164360000Y-69610000D03*
X164360000Y-71390000D03*
X167640000Y-71390000D03*
X167640000Y-69610000D03*
%TD*%
%TO.C,D20*%
X144860000Y-69610000D03*
X144860000Y-71390000D03*
X148140000Y-71390000D03*
X148140000Y-69610000D03*
%TD*%
%TO.C,D19*%
X125910000Y-70610000D03*
X125910000Y-72390000D03*
X129190000Y-72390000D03*
X129190000Y-70610000D03*
%TD*%
%TO.C,D18*%
X106910000Y-69610000D03*
X106910000Y-71390000D03*
X110190000Y-71390000D03*
X110190000Y-69610000D03*
%TD*%
%TO.C,D16*%
X68360000Y-69610000D03*
X68360000Y-71390000D03*
X71640000Y-71390000D03*
X71640000Y-69610000D03*
%TD*%
%TO.C,D15*%
X48860000Y-69610000D03*
X48860000Y-71390000D03*
X52140000Y-71390000D03*
X52140000Y-69610000D03*
%TD*%
%TO.C,D14*%
X30720000Y-69500000D03*
X30720000Y-71280000D03*
X34000000Y-71280000D03*
X34000000Y-69500000D03*
%TD*%
%TO.C,D13*%
X297910000Y-42110000D03*
X297910000Y-43890000D03*
X301190000Y-43890000D03*
X301190000Y-42110000D03*
%TD*%
%TO.C,D12*%
X278410000Y-42110000D03*
X278410000Y-43890000D03*
X281690000Y-43890000D03*
X281690000Y-42110000D03*
%TD*%
%TO.C,D11*%
X260410000Y-42110000D03*
X260410000Y-43890000D03*
X263690000Y-43890000D03*
X263690000Y-42110000D03*
%TD*%
%TO.C,D10*%
X241410000Y-42110000D03*
X241410000Y-43890000D03*
X244690000Y-43890000D03*
X244690000Y-42110000D03*
%TD*%
%TO.C,D9*%
X211910000Y-42110000D03*
X211910000Y-43890000D03*
X215190000Y-43890000D03*
X215190000Y-42110000D03*
%TD*%
%TO.C,D8*%
X193410000Y-42110000D03*
X193410000Y-43890000D03*
X196690000Y-43890000D03*
X196690000Y-42110000D03*
%TD*%
%TO.C,D7*%
X174360000Y-42110000D03*
X174360000Y-43890000D03*
X177640000Y-43890000D03*
X177640000Y-42110000D03*
%TD*%
%TO.C,D6*%
X155410000Y-42110000D03*
X155410000Y-43890000D03*
X158690000Y-43890000D03*
X158690000Y-42110000D03*
%TD*%
%TO.C,D5*%
X126360000Y-42110000D03*
X126360000Y-43890000D03*
X129640000Y-43890000D03*
X129640000Y-42110000D03*
%TD*%
%TO.C,D4*%
X107910000Y-42110000D03*
X107910000Y-43890000D03*
X111190000Y-43890000D03*
X111190000Y-42110000D03*
%TD*%
%TO.C,D3*%
X88860000Y-42110000D03*
X88860000Y-43890000D03*
X92140000Y-43890000D03*
X92140000Y-42110000D03*
%TD*%
%TO.C,D2*%
X69410000Y-42110000D03*
X69410000Y-43890000D03*
X72690000Y-43890000D03*
X72690000Y-42110000D03*
%TD*%
%TO.C,D1*%
X30860000Y-41610000D03*
X30860000Y-43390000D03*
X34140000Y-43390000D03*
X34140000Y-41610000D03*
%TD*%
%TO.C,D92*%
X323360000Y-32610000D03*
X323360000Y-34390000D03*
X326640000Y-34390000D03*
X326640000Y-32610000D03*
%TD*%
%TO.C,D36*%
X116860000Y-88610000D03*
X116860000Y-90390000D03*
X120140000Y-90390000D03*
X120140000Y-88610000D03*
%TD*%
%TO.C,D71*%
X149360000Y-126610000D03*
X149360000Y-128390000D03*
X152640000Y-128390000D03*
X152640000Y-126610000D03*
%TD*%
%TO.C,D17*%
X87860000Y-69610000D03*
X87860000Y-71390000D03*
X91140000Y-71390000D03*
X91140000Y-69610000D03*
%TD*%
%TO.C,D62*%
X290140000Y-107610000D03*
X290140000Y-109390000D03*
X286860000Y-109390000D03*
X286860000Y-107610000D03*
%TD*%
%TO.C,D67*%
X73360000Y-126610000D03*
X73360000Y-128390000D03*
X76640000Y-128390000D03*
X76640000Y-126610000D03*
%TD*%
M02*
