%TF.GenerationSoftware,KiCad,Pcbnew,8.0.5*%
%TF.CreationDate,2024-11-10T22:51:29+11:00*%
%TF.ProjectId,keyboard,6b657962-6f61-4726-942e-6b696361645f,rev?*%
%TF.SameCoordinates,Original*%
%TF.FileFunction,Paste,Bot*%
%TF.FilePolarity,Positive*%
%FSLAX46Y46*%
G04 Gerber Fmt 4.6, Leading zero omitted, Abs format (unit mm)*
G04 Created by KiCad (PCBNEW 8.0.5) date 2024-11-10 22:51:29*
%MOMM*%
%LPD*%
G01*
G04 APERTURE LIST*
G04 Aperture macros list*
%AMRoundRect*
0 Rectangle with rounded corners*
0 $1 Rounding radius*
0 $2 $3 $4 $5 $6 $7 $8 $9 X,Y pos of 4 corners*
0 Add a 4 corners polygon primitive as box body*
4,1,4,$2,$3,$4,$5,$6,$7,$8,$9,$2,$3,0*
0 Add four circle primitives for the rounded corners*
1,1,$1+$1,$2,$3*
1,1,$1+$1,$4,$5*
1,1,$1+$1,$6,$7*
1,1,$1+$1,$8,$9*
0 Add four rect primitives between the rounded corners*
20,1,$1+$1,$2,$3,$4,$5,0*
20,1,$1+$1,$4,$5,$6,$7,0*
20,1,$1+$1,$6,$7,$8,$9,0*
20,1,$1+$1,$8,$9,$2,$3,0*%
G04 Aperture macros list end*
%ADD10R,2.550000X2.500000*%
%ADD11RoundRect,0.225000X0.375000X-0.225000X0.375000X0.225000X-0.375000X0.225000X-0.375000X-0.225000X0*%
%ADD12R,1.500000X2.800000*%
%ADD13R,2.800000X1.500000*%
%ADD14RoundRect,0.237500X-0.237500X0.250000X-0.237500X-0.250000X0.237500X-0.250000X0.237500X0.250000X0*%
%ADD15R,0.600000X1.240000*%
%ADD16R,0.300000X1.240000*%
G04 APERTURE END LIST*
D10*
%TO.C,K_19*%
X139490000Y-58185000D03*
X152417000Y-55645000D03*
%TD*%
%TO.C,K_20*%
X158540000Y-58185000D03*
X171467000Y-55645000D03*
%TD*%
%TO.C,K_16*%
X82340000Y-58185000D03*
X95267000Y-55645000D03*
%TD*%
%TO.C,K_F11*%
X273176706Y-29584520D03*
X286103706Y-27044520D03*
%TD*%
%TO.C,K_45*%
X315702500Y-77235000D03*
X328629500Y-74695000D03*
%TD*%
%TO.C,K_13*%
X25190000Y-58185000D03*
X38117000Y-55645000D03*
%TD*%
%TO.C,K_75*%
X252429500Y-112795000D03*
X239502500Y-115335000D03*
%TD*%
%TO.C,K_56*%
X172827500Y-96285000D03*
X185754500Y-93745000D03*
%TD*%
%TO.C,K_46*%
X334752500Y-77235000D03*
X347679500Y-74695000D03*
%TD*%
%TO.C,K_78*%
X334752500Y-115335000D03*
X347679500Y-112795000D03*
%TD*%
%TO.C,K_74*%
X233379500Y-112795000D03*
X220452500Y-115335000D03*
%TD*%
%TO.C,K_35*%
X110915000Y-77235000D03*
X123842000Y-74695000D03*
%TD*%
%TO.C,K_15*%
X63290000Y-58185000D03*
X76217000Y-55645000D03*
%TD*%
%TO.C,K_ESC1*%
X25245000Y-29665000D03*
X38172000Y-27125000D03*
%TD*%
%TO.C,K_38*%
X168065000Y-77235000D03*
X180992000Y-74695000D03*
%TD*%
%TO.C,K_79*%
X353802500Y-115335000D03*
X366729500Y-112795000D03*
%TD*%
%TO.C,K_86*%
X241883750Y-134385000D03*
X254810750Y-131845000D03*
%TD*%
%TO.C,K_F9*%
X235165000Y-29585000D03*
X248092000Y-27045000D03*
%TD*%
%TO.C,K_88*%
X289508750Y-134385000D03*
X302435750Y-131845000D03*
%TD*%
%TO.C,K_81*%
X27571250Y-134385000D03*
X40498250Y-131845000D03*
%TD*%
%TO.C,K_23*%
X215690000Y-58185000D03*
X228617000Y-55645000D03*
%TD*%
%TO.C,K_63*%
X334752500Y-96285000D03*
X347679500Y-93745000D03*
%TD*%
%TO.C,K_67*%
X100029500Y-112795000D03*
X87102500Y-115335000D03*
%TD*%
%TO.C,K_53*%
X115677500Y-96285000D03*
X128604500Y-93745000D03*
%TD*%
%TO.C,K_72*%
X195279500Y-112795000D03*
X182352500Y-115335000D03*
%TD*%
%TO.C,K_47*%
X353802500Y-77235000D03*
X366729500Y-74695000D03*
%TD*%
%TO.C,K_60*%
X249027500Y-96285000D03*
X261954500Y-93745000D03*
%TD*%
%TO.C,K_F7*%
X187261209Y-29593694D03*
X200188209Y-27053694D03*
%TD*%
%TO.C,K_61*%
X292910750Y-93745000D03*
X279983750Y-96285000D03*
%TD*%
%TO.C,K_25*%
X253790000Y-58185000D03*
X266717000Y-55645000D03*
%TD*%
%TO.C,K_F8*%
X206261209Y-29593694D03*
X219188209Y-27053694D03*
%TD*%
%TO.C,K_F12*%
X292216706Y-29584520D03*
X305143706Y-27044520D03*
%TD*%
%TO.C,K_33*%
X72815000Y-77235000D03*
X85742000Y-74695000D03*
%TD*%
%TO.C,K_76*%
X288148250Y-112795000D03*
X275221250Y-115335000D03*
%TD*%
%TO.C,K_73*%
X214329500Y-112795000D03*
X201402500Y-115335000D03*
%TD*%
%TO.C,K_70*%
X157179500Y-112795000D03*
X144252500Y-115335000D03*
%TD*%
%TO.C,K_24*%
X234740000Y-58185000D03*
X247667000Y-55645000D03*
%TD*%
%TO.C,K_54*%
X134727500Y-96285000D03*
X147654500Y-93745000D03*
%TD*%
%TO.C,K_29*%
X353802500Y-58185000D03*
X366729500Y-55645000D03*
%TD*%
%TO.C,K_F10*%
X254176706Y-29584520D03*
X267103706Y-27044520D03*
%TD*%
%TO.C,K_32*%
X53765000Y-77235000D03*
X66692000Y-74695000D03*
%TD*%
%TO.C,K_34*%
X91865000Y-77235000D03*
X104792000Y-74695000D03*
%TD*%
%TO.C,K_68*%
X119079500Y-112795000D03*
X106152500Y-115335000D03*
%TD*%
%TO.C,K_42*%
X244265000Y-77235000D03*
X257192000Y-74695000D03*
%TD*%
%TO.C,K_14*%
X44240000Y-58185000D03*
X57167000Y-55645000D03*
%TD*%
%TO.C,K_84*%
X146633750Y-134385000D03*
X159560750Y-131845000D03*
%TD*%
%TO.C,K_39*%
X187115000Y-77235000D03*
X200042000Y-74695000D03*
%TD*%
%TO.C,K_89*%
X325227500Y-134385000D03*
X338154500Y-131845000D03*
%TD*%
%TO.C,K_59*%
X229977500Y-96285000D03*
X242904500Y-93745000D03*
%TD*%
%TO.C,K_62*%
X315702500Y-96285000D03*
X328629500Y-93745000D03*
%TD*%
%TO.C,K_49*%
X32333750Y-96285000D03*
X45260750Y-93745000D03*
%TD*%
%TO.C,K_18*%
X120440000Y-58185000D03*
X133367000Y-55645000D03*
%TD*%
%TO.C,K_17*%
X101390000Y-58185000D03*
X114317000Y-55645000D03*
%TD*%
%TO.C,K_F1*%
X63594475Y-29637388D03*
X76521475Y-27097388D03*
%TD*%
%TO.C,K_87*%
X265696250Y-134385000D03*
X278623250Y-131845000D03*
%TD*%
%TO.C,K_85*%
X218071250Y-134385000D03*
X230998250Y-131845000D03*
%TD*%
%TO.C,K_83*%
X75196250Y-134385000D03*
X88123250Y-131845000D03*
%TD*%
%TO.C,K_77*%
X315702500Y-115335000D03*
X328629500Y-112795000D03*
%TD*%
%TO.C,K_44*%
X287127500Y-77235000D03*
X300054500Y-74695000D03*
%TD*%
%TO.C,K_30*%
X372852500Y-58185000D03*
X385779500Y-55645000D03*
%TD*%
%TO.C,K_66*%
X80979500Y-112795000D03*
X68052500Y-115335000D03*
%TD*%
%TO.C,K_64*%
X353802500Y-96285000D03*
X366729500Y-93745000D03*
%TD*%
%TO.C,K_58*%
X210927500Y-96285000D03*
X223854500Y-93745000D03*
%TD*%
%TO.C,K_21*%
X177590000Y-58185000D03*
X190517000Y-55645000D03*
%TD*%
%TO.C,K_43*%
X263315000Y-77235000D03*
X276242000Y-74695000D03*
%TD*%
%TO.C,K_48*%
X372859143Y-86743423D03*
X385786143Y-84203423D03*
%TD*%
%TO.C,K_71*%
X176229500Y-112795000D03*
X163302500Y-115335000D03*
%TD*%
%TO.C,K_40*%
X206165000Y-77235000D03*
X219092000Y-74695000D03*
%TD*%
%TO.C,K_52*%
X96627500Y-96285000D03*
X109554500Y-93745000D03*
%TD*%
%TO.C,K_80*%
X372915000Y-124960000D03*
X385842000Y-122420000D03*
%TD*%
%TO.C,K_F5*%
X149165000Y-29585000D03*
X162092000Y-27045000D03*
%TD*%
%TO.C,K_F2*%
X82632347Y-29596106D03*
X95559347Y-27056106D03*
%TD*%
%TO.C,K_82*%
X51383750Y-134385000D03*
X64310750Y-131845000D03*
%TD*%
%TO.C,K_27*%
X315702500Y-58185000D03*
X328629500Y-55645000D03*
%TD*%
%TO.C,K_90*%
X353802500Y-134385000D03*
X366729500Y-131845000D03*
%TD*%
%TO.C,K_51*%
X77577500Y-96285000D03*
X90504500Y-93745000D03*
%TD*%
%TO.C,K_22*%
X196640000Y-58185000D03*
X209567000Y-55645000D03*
%TD*%
%TO.C,K_26*%
X282365000Y-58185000D03*
X295292000Y-55645000D03*
%TD*%
%TO.C,K_69*%
X138129500Y-112795000D03*
X125202500Y-115335000D03*
%TD*%
%TO.C,K_28*%
X334752500Y-58185000D03*
X347679500Y-55645000D03*
%TD*%
%TO.C,K_F4*%
X120665000Y-29585000D03*
X133592000Y-27045000D03*
%TD*%
%TO.C,K_31*%
X29952500Y-77235000D03*
X42879500Y-74695000D03*
%TD*%
%TO.C,K_57*%
X191877500Y-96285000D03*
X204804500Y-93745000D03*
%TD*%
%TO.C,K_50*%
X58527500Y-96285000D03*
X71454500Y-93745000D03*
%TD*%
%TO.C,K_37*%
X149015000Y-77235000D03*
X161942000Y-74695000D03*
%TD*%
%TO.C,K_36*%
X129965000Y-77235000D03*
X142892000Y-74695000D03*
%TD*%
%TO.C,K_F6*%
X168197485Y-29578486D03*
X181124485Y-27038486D03*
%TD*%
%TO.C,K_65*%
X50023250Y-112795000D03*
X37096250Y-115335000D03*
%TD*%
%TO.C,K_41*%
X225215000Y-77235000D03*
X238142000Y-74695000D03*
%TD*%
%TO.C,K_55*%
X153777500Y-96285000D03*
X166704500Y-93745000D03*
%TD*%
%TO.C,K_F3*%
X101665000Y-29585000D03*
X114592000Y-27045000D03*
%TD*%
D11*
%TO.C,D_13*%
X40800000Y-62875000D03*
X40800000Y-59575000D03*
%TD*%
%TO.C,D_34*%
X107475000Y-81925000D03*
X107475000Y-78625000D03*
%TD*%
%TO.C,D_60*%
X264637500Y-100975000D03*
X264637500Y-97675000D03*
%TD*%
%TO.C,D_85*%
X236062500Y-139075000D03*
X236062500Y-135775000D03*
%TD*%
%TO.C,D_15*%
X78900000Y-62875000D03*
X78900000Y-59575000D03*
%TD*%
%TO.C,D_24*%
X250350000Y-62875000D03*
X250350000Y-59575000D03*
%TD*%
%TO.C,D_4*%
X136050000Y-34300000D03*
X136050000Y-31000000D03*
%TD*%
%TO.C,D_88*%
X307500000Y-139075000D03*
X307500000Y-135775000D03*
%TD*%
%TO.C,D_57*%
X207487500Y-100975000D03*
X207487500Y-97675000D03*
%TD*%
%TO.C,D_20*%
X174150000Y-62875000D03*
X174150000Y-59575000D03*
%TD*%
%TO.C,D_87*%
X283687500Y-139075000D03*
X283687500Y-135775000D03*
%TD*%
%TO.C,D_33*%
X88425000Y-81925000D03*
X88425000Y-78625000D03*
%TD*%
%TO.C,D_10*%
X269400000Y-34300000D03*
X269400000Y-31000000D03*
%TD*%
%TO.C,D_58*%
X226537500Y-100975000D03*
X226537500Y-97675000D03*
%TD*%
%TO.C,D_65*%
X64612500Y-120025000D03*
X64612500Y-116725000D03*
%TD*%
D12*
%TO.C,U1*%
X363500000Y-49150000D03*
X361500000Y-49150000D03*
X359500000Y-49150000D03*
X357500000Y-49150000D03*
X355500000Y-49150000D03*
X353500000Y-49150000D03*
X351500000Y-49150000D03*
X349500000Y-49150000D03*
X347500000Y-49150000D03*
X345500000Y-49150000D03*
D13*
X342850000Y-46500000D03*
X342850000Y-44500000D03*
X342850000Y-42500000D03*
X342850000Y-40500000D03*
X342850000Y-38500000D03*
X342850000Y-36500000D03*
X342850000Y-34500000D03*
X342850000Y-32500000D03*
X342850000Y-30500000D03*
X342850000Y-28500000D03*
D12*
X345500000Y-25850000D03*
X347500000Y-25850000D03*
X349500000Y-25850000D03*
X351500000Y-25850000D03*
X353500000Y-25850000D03*
X355500000Y-25850000D03*
X357500000Y-25850000D03*
X359500000Y-25850000D03*
X361500000Y-25850000D03*
X363500000Y-25850000D03*
D13*
X366150000Y-28500000D03*
X366150000Y-30500000D03*
X366150000Y-32500000D03*
X366150000Y-34500000D03*
X366150000Y-36500000D03*
X366150000Y-38500000D03*
X366150000Y-40500000D03*
X366150000Y-42500000D03*
X366150000Y-44500000D03*
X366150000Y-46500000D03*
%TD*%
D11*
%TO.C,D_2*%
X97950000Y-34300000D03*
X97950000Y-31000000D03*
%TD*%
%TO.C,D_39*%
X202725000Y-81925000D03*
X202725000Y-78625000D03*
%TD*%
%TO.C,D_63*%
X350362500Y-100975000D03*
X350362500Y-97675000D03*
%TD*%
%TO.C,D_41*%
X240825000Y-81925000D03*
X240825000Y-78625000D03*
%TD*%
%TO.C,D_3*%
X117000000Y-34300000D03*
X117000000Y-31000000D03*
%TD*%
%TO.C,D_1*%
X78900000Y-34300000D03*
X78900000Y-31000000D03*
%TD*%
%TO.C,D_46*%
X350362500Y-81925000D03*
X350362500Y-78625000D03*
%TD*%
%TO.C,D_12*%
X307500000Y-34300000D03*
X307500000Y-31000000D03*
%TD*%
%TO.C,D_89*%
X350362500Y-139075000D03*
X350362500Y-135775000D03*
%TD*%
%TO.C,D_84*%
X212250000Y-139075000D03*
X212250000Y-135775000D03*
%TD*%
%TO.C,D_43*%
X278925000Y-81925000D03*
X278925000Y-78625000D03*
%TD*%
%TO.C,D_14*%
X59850000Y-62875000D03*
X59850000Y-59575000D03*
%TD*%
%TO.C,D_66*%
X83662500Y-120025000D03*
X83662500Y-116725000D03*
%TD*%
%TO.C,D_82*%
X69375000Y-139075000D03*
X69375000Y-135775000D03*
%TD*%
%TO.C,D_29*%
X369412500Y-62875000D03*
X369412500Y-59575000D03*
%TD*%
%TO.C,D_25*%
X269400000Y-62875000D03*
X269400000Y-59575000D03*
%TD*%
%TO.C,D_75*%
X255112500Y-120025000D03*
X255112500Y-116725000D03*
%TD*%
%TO.C,D_30*%
X388462500Y-62875000D03*
X388462500Y-59575000D03*
%TD*%
%TO.C,D_49*%
X55087500Y-100975000D03*
X55087500Y-97675000D03*
%TD*%
%TO.C,D_16*%
X97950000Y-62875000D03*
X97950000Y-59575000D03*
%TD*%
%TO.C,D_56*%
X188437500Y-100975000D03*
X188437500Y-97675000D03*
%TD*%
%TO.C,D_71*%
X178912500Y-120025000D03*
X178912500Y-116725000D03*
%TD*%
%TO.C,D_21*%
X193200000Y-62875000D03*
X193200000Y-59575000D03*
%TD*%
%TO.C,D_22*%
X212250000Y-62875000D03*
X212250000Y-59575000D03*
%TD*%
%TO.C,D_5*%
X164625000Y-34300000D03*
X164625000Y-31000000D03*
%TD*%
%TO.C,D_38*%
X183675000Y-81925000D03*
X183675000Y-78625000D03*
%TD*%
%TO.C,D_59*%
X245587500Y-100975000D03*
X245587500Y-97675000D03*
%TD*%
%TO.C,D_52*%
X112237500Y-100975000D03*
X112237500Y-97675000D03*
%TD*%
%TO.C,D_86*%
X259875000Y-139075000D03*
X259875000Y-135775000D03*
%TD*%
%TO.C,D_54*%
X150337500Y-100975000D03*
X150337500Y-97675000D03*
%TD*%
D14*
%TO.C,R1*%
X373500000Y-26587500D03*
X373500000Y-28412500D03*
%TD*%
D11*
%TO.C,D_70*%
X159862500Y-120025000D03*
X159862500Y-116725000D03*
%TD*%
%TO.C,D_80*%
X388462500Y-129500000D03*
X388462500Y-126200000D03*
%TD*%
%TO.C,D_7*%
X202725000Y-34300000D03*
X202725000Y-31000000D03*
%TD*%
%TO.C,D_17*%
X117000000Y-62875000D03*
X117000000Y-59575000D03*
%TD*%
%TO.C,D_42*%
X259875000Y-81925000D03*
X259875000Y-78625000D03*
%TD*%
%TO.C,D_61*%
X307500000Y-100975000D03*
X307500000Y-97675000D03*
%TD*%
%TO.C,D_90*%
X369412500Y-139075000D03*
X369412500Y-135775000D03*
%TD*%
%TO.C,D_47*%
X369412500Y-81925000D03*
X369412500Y-78625000D03*
%TD*%
%TO.C,D_6*%
X183675000Y-34300000D03*
X183675000Y-31000000D03*
%TD*%
%TO.C,D_48*%
X388462500Y-91500000D03*
X388462500Y-88200000D03*
%TD*%
D14*
%TO.C,R2*%
X386000000Y-26587500D03*
X386000000Y-28412500D03*
%TD*%
D11*
%TO.C,D_83*%
X93187500Y-139075000D03*
X93187500Y-135775000D03*
%TD*%
%TO.C,D_78*%
X350362500Y-120025000D03*
X350362500Y-116725000D03*
%TD*%
%TO.C,D_23*%
X231300000Y-62875000D03*
X231300000Y-59575000D03*
%TD*%
%TO.C,D_45*%
X331312500Y-81925000D03*
X331312500Y-78625000D03*
%TD*%
%TO.C,D_26*%
X307500000Y-62875000D03*
X307500000Y-59575000D03*
%TD*%
%TO.C,D_37*%
X164625000Y-81925000D03*
X164625000Y-78625000D03*
%TD*%
%TO.C,D_44*%
X307500000Y-81925000D03*
X307500000Y-78625000D03*
%TD*%
%TO.C,D_72*%
X197962500Y-120025000D03*
X197962500Y-116725000D03*
%TD*%
%TO.C,D_53*%
X131287500Y-100975000D03*
X131287500Y-97675000D03*
%TD*%
%TO.C,D_67*%
X102712500Y-120025000D03*
X102712500Y-116725000D03*
%TD*%
%TO.C,D_9*%
X250350000Y-34300000D03*
X250350000Y-31000000D03*
%TD*%
%TO.C,D_74*%
X236062500Y-120025000D03*
X236062500Y-116725000D03*
%TD*%
%TO.C,D_0*%
X40800000Y-34300000D03*
X40800000Y-31000000D03*
%TD*%
%TO.C,D_77*%
X331312500Y-120025000D03*
X331312500Y-116725000D03*
%TD*%
%TO.C,D_62*%
X331312500Y-100975000D03*
X331312500Y-97675000D03*
%TD*%
%TO.C,D_79*%
X369412500Y-120025000D03*
X369412500Y-116725000D03*
%TD*%
%TO.C,D_27*%
X331312500Y-62875000D03*
X331312500Y-59575000D03*
%TD*%
%TO.C,D_50*%
X74137500Y-100975000D03*
X74137500Y-97675000D03*
%TD*%
%TO.C,D_73*%
X217012500Y-120025000D03*
X217012500Y-116725000D03*
%TD*%
%TO.C,D_55*%
X169387500Y-100975000D03*
X169387500Y-97675000D03*
%TD*%
%TO.C,D_64*%
X369412500Y-100975000D03*
X369412500Y-97675000D03*
%TD*%
%TO.C,D_35*%
X126525000Y-81925000D03*
X126525000Y-78625000D03*
%TD*%
%TO.C,D_68*%
X121762500Y-120025000D03*
X121762500Y-116725000D03*
%TD*%
%TO.C,D_19*%
X155100000Y-62875000D03*
X155100000Y-59575000D03*
%TD*%
%TO.C,D_69*%
X140812500Y-120025000D03*
X140812500Y-116725000D03*
%TD*%
%TO.C,D_32*%
X69375000Y-81925000D03*
X69375000Y-78625000D03*
%TD*%
%TO.C,D_11*%
X288450000Y-34300000D03*
X288450000Y-31000000D03*
%TD*%
%TO.C,D_81*%
X45562500Y-139075000D03*
X45562500Y-135775000D03*
%TD*%
%TO.C,D_18*%
X136050000Y-62875000D03*
X136050000Y-59575000D03*
%TD*%
%TO.C,D_8*%
X221775000Y-34300000D03*
X221775000Y-31000000D03*
%TD*%
%TO.C,D_51*%
X93187500Y-100975000D03*
X93187500Y-97675000D03*
%TD*%
%TO.C,D_36*%
X145575000Y-81925000D03*
X145575000Y-78625000D03*
%TD*%
%TO.C,D_31*%
X50325000Y-81925000D03*
X50325000Y-78625000D03*
%TD*%
%TO.C,D_76*%
X307500000Y-120025000D03*
X307500000Y-116725000D03*
%TD*%
%TO.C,D_40*%
X221775000Y-81925000D03*
X221775000Y-78625000D03*
%TD*%
D15*
%TO.C,J1*%
X376620000Y-26300000D03*
X377420000Y-26300000D03*
D16*
X378570000Y-26300000D03*
X379570000Y-26300000D03*
X380070000Y-26300000D03*
X381070000Y-26300000D03*
D15*
X382220000Y-26300000D03*
X383020000Y-26300000D03*
X383020000Y-26300000D03*
X382220000Y-26300000D03*
D16*
X381570000Y-26300000D03*
X380570000Y-26300000D03*
X379070000Y-26300000D03*
X378070000Y-26300000D03*
D15*
X377420000Y-26300000D03*
X376620000Y-26300000D03*
%TD*%
D11*
%TO.C,D_28*%
X350362500Y-62875000D03*
X350362500Y-59575000D03*
%TD*%
M02*
