G04 #@! TF.GenerationSoftware,KiCad,Pcbnew,8.0.5*
G04 #@! TF.CreationDate,2024-10-27T22:32:11+11:00*
G04 #@! TF.ProjectId,keyboard,6b657962-6f61-4726-942e-6b696361645f,rev?*
G04 #@! TF.SameCoordinates,Original*
G04 #@! TF.FileFunction,Copper,L6,Bot*
G04 #@! TF.FilePolarity,Positive*
%FSLAX46Y46*%
G04 Gerber Fmt 4.6, Leading zero omitted, Abs format (unit mm)*
G04 Created by KiCad (PCBNEW 8.0.5) date 2024-10-27 22:32:11*
%MOMM*%
%LPD*%
G01*
G04 APERTURE LIST*
G04 #@! TA.AperFunction,SMDPad,CuDef*
%ADD10R,2.550000X2.500000*%
G04 #@! TD*
G04 #@! TA.AperFunction,SMDPad,CuDef*
%ADD11R,1.200000X0.900000*%
G04 #@! TD*
G04 #@! TA.AperFunction,Conductor*
%ADD12C,0.250000*%
G04 #@! TD*
G04 APERTURE END LIST*
D10*
X139490000Y-58185000D03*
X152417000Y-55645000D03*
X158540000Y-58185000D03*
X171467000Y-55645000D03*
X82340000Y-58185000D03*
X95267000Y-55645000D03*
X273176706Y-29584520D03*
X286103706Y-27044520D03*
X315702500Y-77235000D03*
X328629500Y-74695000D03*
X25190000Y-58185000D03*
X38117000Y-55645000D03*
X239502500Y-115335000D03*
X252429500Y-112795000D03*
X172827500Y-96285000D03*
X185754500Y-93745000D03*
X334752500Y-77235000D03*
X347679500Y-74695000D03*
X334752500Y-115335000D03*
X347679500Y-112795000D03*
X220452500Y-115335000D03*
X233379500Y-112795000D03*
X110915000Y-77235000D03*
X123842000Y-74695000D03*
X63290000Y-58185000D03*
X76217000Y-55645000D03*
X25245000Y-29665000D03*
X38172000Y-27125000D03*
X168065000Y-77235000D03*
X180992000Y-74695000D03*
X353802500Y-115335000D03*
X366729500Y-112795000D03*
X241883750Y-134385000D03*
X254810750Y-131845000D03*
X235165000Y-29585000D03*
X248092000Y-27045000D03*
X289508750Y-134385000D03*
X302435750Y-131845000D03*
X27571250Y-134385000D03*
X40498250Y-131845000D03*
X215690000Y-58185000D03*
X228617000Y-55645000D03*
X334752500Y-96285000D03*
X347679500Y-93745000D03*
X87102500Y-115335000D03*
X100029500Y-112795000D03*
X115677500Y-96285000D03*
X128604500Y-93745000D03*
X182352500Y-115335000D03*
X195279500Y-112795000D03*
X353802500Y-77235000D03*
X366729500Y-74695000D03*
X249027500Y-96285000D03*
X261954500Y-93745000D03*
X187261209Y-29593694D03*
X200188209Y-27053694D03*
X279983750Y-96285000D03*
X292910750Y-93745000D03*
X253790000Y-58185000D03*
X266717000Y-55645000D03*
X206261209Y-29593694D03*
X219188209Y-27053694D03*
X292216706Y-29584520D03*
X305143706Y-27044520D03*
X72815000Y-77235000D03*
X85742000Y-74695000D03*
X275221250Y-115335000D03*
X288148250Y-112795000D03*
X201402500Y-115335000D03*
X214329500Y-112795000D03*
X144252500Y-115335000D03*
X157179500Y-112795000D03*
X234740000Y-58185000D03*
X247667000Y-55645000D03*
X134727500Y-96285000D03*
X147654500Y-93745000D03*
X353802500Y-58185000D03*
X366729500Y-55645000D03*
X254176706Y-29584520D03*
X267103706Y-27044520D03*
X53765000Y-77235000D03*
X66692000Y-74695000D03*
X91865000Y-77235000D03*
X104792000Y-74695000D03*
X106152500Y-115335000D03*
X119079500Y-112795000D03*
X244265000Y-77235000D03*
X257192000Y-74695000D03*
X44240000Y-58185000D03*
X57167000Y-55645000D03*
X146633750Y-134385000D03*
X159560750Y-131845000D03*
X187115000Y-77235000D03*
X200042000Y-74695000D03*
X325227500Y-134385000D03*
X338154500Y-131845000D03*
X229977500Y-96285000D03*
X242904500Y-93745000D03*
X315702500Y-96285000D03*
X328629500Y-93745000D03*
X32333750Y-96285000D03*
X45260750Y-93745000D03*
X120440000Y-58185000D03*
X133367000Y-55645000D03*
X101390000Y-58185000D03*
X114317000Y-55645000D03*
X63594475Y-29637388D03*
X76521475Y-27097388D03*
X265696250Y-134385000D03*
X278623250Y-131845000D03*
X218071250Y-134385000D03*
X230998250Y-131845000D03*
X75196250Y-134385000D03*
X88123250Y-131845000D03*
X315702500Y-115335000D03*
X328629500Y-112795000D03*
X287127500Y-77235000D03*
X300054500Y-74695000D03*
X372852500Y-58185000D03*
X385779500Y-55645000D03*
X68052500Y-115335000D03*
X80979500Y-112795000D03*
X353802500Y-96285000D03*
X366729500Y-93745000D03*
X210927500Y-96285000D03*
X223854500Y-93745000D03*
X177590000Y-58185000D03*
X190517000Y-55645000D03*
X263315000Y-77235000D03*
X276242000Y-74695000D03*
X372859143Y-86743423D03*
X385786143Y-84203423D03*
X163302500Y-115335000D03*
X176229500Y-112795000D03*
X206165000Y-77235000D03*
X219092000Y-74695000D03*
X96627500Y-96285000D03*
X109554500Y-93745000D03*
X372915000Y-124960000D03*
X385842000Y-122420000D03*
X149165000Y-29585000D03*
X162092000Y-27045000D03*
X82632347Y-29596106D03*
X95559347Y-27056106D03*
X51383750Y-134385000D03*
X64310750Y-131845000D03*
X315702500Y-58185000D03*
X328629500Y-55645000D03*
X353802500Y-134385000D03*
X366729500Y-131845000D03*
X77577500Y-96285000D03*
X90504500Y-93745000D03*
X196640000Y-58185000D03*
X209567000Y-55645000D03*
X282365000Y-58185000D03*
X295292000Y-55645000D03*
X125202500Y-115335000D03*
X138129500Y-112795000D03*
X334752500Y-58185000D03*
X347679500Y-55645000D03*
X120665000Y-29585000D03*
X133592000Y-27045000D03*
X29952500Y-77235000D03*
X42879500Y-74695000D03*
X191877500Y-96285000D03*
X204804500Y-93745000D03*
X58527500Y-96285000D03*
X71454500Y-93745000D03*
X129965000Y-77235000D03*
X142892000Y-74695000D03*
X168197485Y-29578486D03*
X181124485Y-27038486D03*
X37096250Y-115335000D03*
X50023250Y-112795000D03*
X225215000Y-77235000D03*
X238142000Y-74695000D03*
X153777500Y-96285000D03*
X166704500Y-93745000D03*
X101665000Y-29585000D03*
X114592000Y-27045000D03*
D11*
X40800000Y-62875000D03*
X40800000Y-59575000D03*
X107475000Y-81925000D03*
X107475000Y-78625000D03*
X264637500Y-100975000D03*
X264637500Y-97675000D03*
X236062500Y-139075000D03*
X236062500Y-135775000D03*
X78900000Y-62875000D03*
X78900000Y-59575000D03*
X250350000Y-62875000D03*
X250350000Y-59575000D03*
X136050000Y-34300000D03*
X136050000Y-31000000D03*
X307500000Y-139075000D03*
X307500000Y-135775000D03*
X207487500Y-100975000D03*
X207487500Y-97675000D03*
X174150000Y-62875000D03*
X174150000Y-59575000D03*
X283687500Y-139075000D03*
X283687500Y-135775000D03*
X88425000Y-81925000D03*
X88425000Y-78625000D03*
X269400000Y-34300000D03*
X269400000Y-31000000D03*
X226537500Y-100975000D03*
X226537500Y-97675000D03*
X64612500Y-120025000D03*
X64612500Y-116725000D03*
X97950000Y-34300000D03*
X97950000Y-31000000D03*
X202725000Y-81925000D03*
X202725000Y-78625000D03*
X350362500Y-100975000D03*
X350362500Y-97675000D03*
X240825000Y-81925000D03*
X240825000Y-78625000D03*
X117000000Y-34300000D03*
X117000000Y-31000000D03*
X78900000Y-34300000D03*
X78900000Y-31000000D03*
X350362500Y-81925000D03*
X350362500Y-78625000D03*
X307500000Y-34300000D03*
X307500000Y-31000000D03*
X350362500Y-139075000D03*
X350362500Y-135775000D03*
X212250000Y-139075000D03*
X212250000Y-135775000D03*
X278925000Y-81925000D03*
X278925000Y-78625000D03*
X59850000Y-62875000D03*
X59850000Y-59575000D03*
X83662500Y-120025000D03*
X83662500Y-116725000D03*
X69375000Y-139075000D03*
X69375000Y-135775000D03*
X369412500Y-62875000D03*
X369412500Y-59575000D03*
X269400000Y-62875000D03*
X269400000Y-59575000D03*
X255112500Y-120025000D03*
X255112500Y-116725000D03*
X388462500Y-62875000D03*
X388462500Y-59575000D03*
X55087500Y-100975000D03*
X55087500Y-97675000D03*
X97950000Y-62875000D03*
X97950000Y-59575000D03*
X188437500Y-100975000D03*
X188437500Y-97675000D03*
X178912500Y-120025000D03*
X178912500Y-116725000D03*
X193200000Y-62875000D03*
X193200000Y-59575000D03*
X212250000Y-62875000D03*
X212250000Y-59575000D03*
X164625000Y-34300000D03*
X164625000Y-31000000D03*
X183675000Y-81925000D03*
X183675000Y-78625000D03*
X245587500Y-100975000D03*
X245587500Y-97675000D03*
X112237500Y-100975000D03*
X112237500Y-97675000D03*
X259875000Y-139075000D03*
X259875000Y-135775000D03*
X150337500Y-100975000D03*
X150337500Y-97675000D03*
X159862500Y-120025000D03*
X159862500Y-116725000D03*
X388462500Y-129500000D03*
X388462500Y-126200000D03*
X202725000Y-34300000D03*
X202725000Y-31000000D03*
X117000000Y-62875000D03*
X117000000Y-59575000D03*
X259875000Y-81925000D03*
X259875000Y-78625000D03*
X307500000Y-100975000D03*
X307500000Y-97675000D03*
X369412500Y-139075000D03*
X369412500Y-135775000D03*
X369412500Y-81925000D03*
X369412500Y-78625000D03*
X183675000Y-34300000D03*
X183675000Y-31000000D03*
X388462500Y-91500000D03*
X388462500Y-88200000D03*
X93187500Y-139075000D03*
X93187500Y-135775000D03*
X350362500Y-120025000D03*
X350362500Y-116725000D03*
X231300000Y-62875000D03*
X231300000Y-59575000D03*
X331312500Y-81925000D03*
X331312500Y-78625000D03*
X307500000Y-62875000D03*
X307500000Y-59575000D03*
X164625000Y-81925000D03*
X164625000Y-78625000D03*
X307500000Y-81925000D03*
X307500000Y-78625000D03*
X197962500Y-120025000D03*
X197962500Y-116725000D03*
X131287500Y-100975000D03*
X131287500Y-97675000D03*
X102712500Y-120025000D03*
X102712500Y-116725000D03*
X250350000Y-34300000D03*
X250350000Y-31000000D03*
X236062500Y-120025000D03*
X236062500Y-116725000D03*
X40800000Y-34300000D03*
X40800000Y-31000000D03*
X331312500Y-120025000D03*
X331312500Y-116725000D03*
X331312500Y-100975000D03*
X331312500Y-97675000D03*
X369412500Y-120025000D03*
X369412500Y-116725000D03*
X331312500Y-62875000D03*
X331312500Y-59575000D03*
X74137500Y-100975000D03*
X74137500Y-97675000D03*
X217012500Y-120025000D03*
X217012500Y-116725000D03*
X169387500Y-100975000D03*
X169387500Y-97675000D03*
X369412500Y-100975000D03*
X369412500Y-97675000D03*
X126525000Y-81925000D03*
X126525000Y-78625000D03*
X121762500Y-120025000D03*
X121762500Y-116725000D03*
X155100000Y-62875000D03*
X155100000Y-59575000D03*
X140812500Y-120025000D03*
X140812500Y-116725000D03*
X69375000Y-81925000D03*
X69375000Y-78625000D03*
X288450000Y-34300000D03*
X288450000Y-31000000D03*
X45562500Y-139075000D03*
X45562500Y-135775000D03*
X136050000Y-62875000D03*
X136050000Y-59575000D03*
X221775000Y-34300000D03*
X221775000Y-31000000D03*
X93187500Y-100975000D03*
X93187500Y-97675000D03*
X145575000Y-81925000D03*
X145575000Y-78625000D03*
X50325000Y-81925000D03*
X50325000Y-78625000D03*
X307500000Y-120025000D03*
X307500000Y-116725000D03*
X221775000Y-81925000D03*
X221775000Y-78625000D03*
X350362500Y-62875000D03*
X350362500Y-59575000D03*
D10*
X149015000Y-77235000D03*
X161942000Y-74695000D03*
D12*
X37096250Y-115335000D02*
X37096250Y-124860000D01*
X37096250Y-124860000D02*
X27571250Y-134385000D01*
X32333750Y-96285000D02*
X32333750Y-100952500D01*
X32333750Y-100952500D02*
X37096250Y-105715000D01*
X37096250Y-105715000D02*
X37096250Y-115335000D01*
X29952500Y-77235000D02*
X29952500Y-93903750D01*
X29952500Y-93903750D02*
X32333750Y-96285000D01*
X25190000Y-58185000D02*
X25190000Y-72472500D01*
X25190000Y-72472500D02*
X29952500Y-77235000D01*
X40800000Y-62875000D02*
X41018900Y-63093900D01*
X41018900Y-63093900D02*
X59631100Y-63093900D01*
X59631100Y-63093900D02*
X59850000Y-62875000D01*
X59850000Y-62875000D02*
X60068900Y-63093900D01*
X60068900Y-63093900D02*
X78681100Y-63093900D01*
X78681100Y-63093900D02*
X78900000Y-62875000D01*
X78900000Y-62875000D02*
X79118900Y-63093900D01*
X79118900Y-63093900D02*
X97731100Y-63093900D01*
X97731100Y-63093900D02*
X97950000Y-62875000D01*
X97950000Y-62875000D02*
X98168900Y-63093900D01*
X98168900Y-63093900D02*
X116781100Y-63093900D01*
X116781100Y-63093900D02*
X117000000Y-62875000D01*
X117000000Y-62875000D02*
X117218900Y-63093900D01*
X117218900Y-63093900D02*
X135831100Y-63093900D01*
X135831100Y-63093900D02*
X136050000Y-62875000D01*
X136050000Y-62875000D02*
X136268900Y-63093900D01*
X136268900Y-63093900D02*
X154881100Y-63093900D01*
X154881100Y-63093900D02*
X155100000Y-62875000D01*
X155100000Y-62875000D02*
X155318900Y-63093900D01*
X155318900Y-63093900D02*
X173931100Y-63093900D01*
X173931100Y-63093900D02*
X174150000Y-62875000D01*
X174150000Y-62875000D02*
X174368900Y-63093900D01*
X174368900Y-63093900D02*
X192981100Y-63093900D01*
X192981100Y-63093900D02*
X193200000Y-62875000D01*
X193200000Y-62875000D02*
X193418900Y-63093900D01*
X193418900Y-63093900D02*
X212031100Y-63093900D01*
X212031100Y-63093900D02*
X212250000Y-62875000D01*
X212250000Y-62875000D02*
X212468900Y-63093900D01*
X212468900Y-63093900D02*
X231081100Y-63093900D01*
X231081100Y-63093900D02*
X231300000Y-62875000D01*
X231300000Y-62875000D02*
X231518900Y-63093900D01*
X231518900Y-63093900D02*
X250131100Y-63093900D01*
X250131100Y-63093900D02*
X250350000Y-62875000D01*
X250350000Y-62875000D02*
X250568900Y-63093900D01*
X250568900Y-63093900D02*
X269181100Y-63093900D01*
X269181100Y-63093900D02*
X269400000Y-62875000D01*
X269400000Y-62875000D02*
X269618900Y-63093900D01*
X269618900Y-63093900D02*
X307281100Y-63093900D01*
X307281100Y-63093900D02*
X307500000Y-62875000D01*
X307500000Y-62875000D02*
X307718900Y-63093900D01*
X307718900Y-63093900D02*
X331093600Y-63093900D01*
X331093600Y-63093900D02*
X331312500Y-62875000D01*
X331312500Y-62875000D02*
X331531400Y-63093900D01*
X331531400Y-63093900D02*
X350143600Y-63093900D01*
X350143600Y-63093900D02*
X350362500Y-62875000D01*
X350362500Y-62875000D02*
X350581400Y-63093900D01*
X350581400Y-63093900D02*
X369193600Y-63093900D01*
X369193600Y-63093900D02*
X369412500Y-62875000D01*
X369412500Y-62875000D02*
X369631400Y-63093900D01*
X369631400Y-63093900D02*
X388243600Y-63093900D01*
X388243600Y-63093900D02*
X388462500Y-62875000D01*
X302435750Y-131845000D02*
X306365750Y-135775000D01*
X306365750Y-135775000D02*
X307500000Y-135775000D01*
X278623250Y-131845000D02*
X282553250Y-135775000D01*
X282553250Y-135775000D02*
X283687500Y-135775000D01*
X254810750Y-131845000D02*
X258740750Y-135775000D01*
X258740750Y-135775000D02*
X259875000Y-135775000D01*
X230998250Y-131845000D02*
X234928250Y-135775000D01*
X234928250Y-135775000D02*
X236062500Y-135775000D01*
X159560750Y-131845000D02*
X208320000Y-131845000D01*
X208320000Y-131845000D02*
X212250000Y-135775000D01*
X88123250Y-131845000D02*
X92053250Y-135775000D01*
X92053250Y-135775000D02*
X93187500Y-135775000D01*
X64310750Y-131845000D02*
X68240750Y-135775000D01*
X68240750Y-135775000D02*
X69375000Y-135775000D01*
X40498250Y-131845000D02*
X44428250Y-135775000D01*
X44428250Y-135775000D02*
X45562500Y-135775000D01*
X50023250Y-112795000D02*
X60682500Y-112795000D01*
X60682500Y-112795000D02*
X64612500Y-116725000D01*
X80979500Y-112795000D02*
X83662500Y-115478000D01*
X83662500Y-115478000D02*
X83662500Y-116725000D01*
X100029500Y-112795000D02*
X102712500Y-115478000D01*
X102712500Y-115478000D02*
X102712500Y-116725000D01*
X119079500Y-112795000D02*
X121762500Y-115478000D01*
X121762500Y-115478000D02*
X121762500Y-116725000D01*
X138129500Y-112795000D02*
X140812500Y-115478000D01*
X140812500Y-115478000D02*
X140812500Y-116725000D01*
X157179500Y-112795000D02*
X159862500Y-115478000D01*
X159862500Y-115478000D02*
X159862500Y-116725000D01*
X176229500Y-112795000D02*
X178912500Y-115478000D01*
X178912500Y-115478000D02*
X178912500Y-116725000D01*
X195279500Y-112795000D02*
X197962500Y-115478000D01*
X197962500Y-115478000D02*
X197962500Y-116725000D01*
X214329500Y-112795000D02*
X217012500Y-115478000D01*
X217012500Y-115478000D02*
X217012500Y-116725000D01*
X233379500Y-112795000D02*
X236062500Y-115478000D01*
X236062500Y-115478000D02*
X236062500Y-116725000D01*
X252429500Y-112795000D02*
X255112500Y-115478000D01*
X255112500Y-115478000D02*
X255112500Y-116725000D01*
X288148250Y-112795000D02*
X303570000Y-112795000D01*
X303570000Y-112795000D02*
X307500000Y-116725000D01*
X366729500Y-131845000D02*
X369412500Y-134528000D01*
X369412500Y-134528000D02*
X369412500Y-135775000D01*
X338154500Y-131845000D02*
X346432500Y-131845000D01*
X346432500Y-131845000D02*
X350362500Y-135775000D01*
X328629500Y-112795000D02*
X331312500Y-115478000D01*
X331312500Y-115478000D02*
X331312500Y-116725000D01*
X347679500Y-112795000D02*
X350362500Y-115478000D01*
X350362500Y-115478000D02*
X350362500Y-116725000D01*
X366729500Y-112795000D02*
X369412500Y-115478000D01*
X369412500Y-115478000D02*
X369412500Y-116725000D01*
X385842000Y-122420000D02*
X388462500Y-125040500D01*
X388462500Y-125040500D02*
X388462500Y-126200000D01*
X366729500Y-93745000D02*
X369412500Y-96428000D01*
X369412500Y-96428000D02*
X369412500Y-97675000D01*
X347679500Y-93745000D02*
X350362500Y-96428000D01*
X350362500Y-96428000D02*
X350362500Y-97675000D01*
X328629500Y-93745000D02*
X331312500Y-96428000D01*
X331312500Y-96428000D02*
X331312500Y-97675000D01*
X292910750Y-93745000D02*
X303570000Y-93745000D01*
X303570000Y-93745000D02*
X307500000Y-97675000D01*
X261954500Y-93745000D02*
X264637500Y-96428000D01*
X264637500Y-96428000D02*
X264637500Y-97675000D01*
X242904500Y-93745000D02*
X245587500Y-96428000D01*
X245587500Y-96428000D02*
X245587500Y-97675000D01*
X223854500Y-93745000D02*
X226537500Y-96428000D01*
X226537500Y-96428000D02*
X226537500Y-97675000D01*
X204804500Y-93745000D02*
X207487500Y-96428000D01*
X207487500Y-96428000D02*
X207487500Y-97675000D01*
X185754500Y-93745000D02*
X188437500Y-96428000D01*
X188437500Y-96428000D02*
X188437500Y-97675000D01*
X166704500Y-93745000D02*
X169387500Y-96428000D01*
X169387500Y-96428000D02*
X169387500Y-97675000D01*
X147654500Y-93745000D02*
X150337500Y-96428000D01*
X150337500Y-96428000D02*
X150337500Y-97675000D01*
X128604500Y-93745000D02*
X131287500Y-96428000D01*
X131287500Y-96428000D02*
X131287500Y-97675000D01*
X109554500Y-93745000D02*
X112237500Y-96428000D01*
X112237500Y-96428000D02*
X112237500Y-97675000D01*
X90504500Y-93745000D02*
X93187500Y-96428000D01*
X93187500Y-96428000D02*
X93187500Y-97675000D01*
X71454500Y-93745000D02*
X74137500Y-96428000D01*
X74137500Y-96428000D02*
X74137500Y-97675000D01*
X45260750Y-93745000D02*
X51157500Y-93745000D01*
X51157500Y-93745000D02*
X55087500Y-97675000D01*
X42879500Y-74695000D02*
X46395000Y-74695000D01*
X46395000Y-74695000D02*
X50325000Y-78625000D01*
X66692000Y-74695000D02*
X69375000Y-77378000D01*
X69375000Y-77378000D02*
X69375000Y-78625000D01*
X85742000Y-74695000D02*
X88425000Y-77378000D01*
X88425000Y-77378000D02*
X88425000Y-78625000D01*
X104792000Y-74695000D02*
X107475000Y-77378000D01*
X107475000Y-77378000D02*
X107475000Y-78625000D01*
X123842000Y-74695000D02*
X126525000Y-77378000D01*
X126525000Y-77378000D02*
X126525000Y-78625000D01*
X142892000Y-74695000D02*
X145575000Y-77378000D01*
X145575000Y-77378000D02*
X145575000Y-78625000D01*
X161942000Y-74695000D02*
X164625000Y-77378000D01*
X164625000Y-77378000D02*
X164625000Y-78625000D01*
X180992000Y-74695000D02*
X183675000Y-77378000D01*
X183675000Y-77378000D02*
X183675000Y-78625000D01*
X200042000Y-74695000D02*
X202725000Y-77378000D01*
X202725000Y-77378000D02*
X202725000Y-78625000D01*
X219092000Y-74695000D02*
X221775000Y-77378000D01*
X221775000Y-77378000D02*
X221775000Y-78625000D01*
X238142000Y-74695000D02*
X240825000Y-77378000D01*
X240825000Y-77378000D02*
X240825000Y-78625000D01*
X257192000Y-74695000D02*
X259875000Y-77378000D01*
X259875000Y-77378000D02*
X259875000Y-78625000D01*
X276242000Y-74695000D02*
X278925000Y-77378000D01*
X278925000Y-77378000D02*
X278925000Y-78625000D01*
X300054500Y-74695000D02*
X303570000Y-74695000D01*
X303570000Y-74695000D02*
X307500000Y-78625000D01*
X328629500Y-74695000D02*
X331312500Y-77378000D01*
X331312500Y-77378000D02*
X331312500Y-78625000D01*
X347679500Y-74695000D02*
X350362500Y-77378000D01*
X350362500Y-77378000D02*
X350362500Y-78625000D01*
X366729500Y-74695000D02*
X369412500Y-77378000D01*
X369412500Y-77378000D02*
X369412500Y-78625000D01*
X385786143Y-84203423D02*
X388462500Y-86879780D01*
X388462500Y-86879780D02*
X388462500Y-88200000D01*
X385779500Y-55645000D02*
X388462500Y-58328000D01*
X388462500Y-58328000D02*
X388462500Y-59575000D01*
X366729500Y-55645000D02*
X369412500Y-58328000D01*
X369412500Y-58328000D02*
X369412500Y-59575000D01*
X347679500Y-55645000D02*
X350362500Y-58328000D01*
X350362500Y-58328000D02*
X350362500Y-59575000D01*
X328629500Y-55645000D02*
X331312500Y-58328000D01*
X331312500Y-58328000D02*
X331312500Y-59575000D01*
X295292000Y-55645000D02*
X303570000Y-55645000D01*
X303570000Y-55645000D02*
X307500000Y-59575000D01*
X266717000Y-55645000D02*
X269400000Y-58328000D01*
X269400000Y-58328000D02*
X269400000Y-59575000D01*
X247667000Y-55645000D02*
X250350000Y-58328000D01*
X250350000Y-58328000D02*
X250350000Y-59575000D01*
X228617000Y-55645000D02*
X231300000Y-58328000D01*
X231300000Y-58328000D02*
X231300000Y-59575000D01*
X209567000Y-55645000D02*
X212250000Y-58328000D01*
X212250000Y-58328000D02*
X212250000Y-59575000D01*
X190517000Y-55645000D02*
X193200000Y-58328000D01*
X193200000Y-58328000D02*
X193200000Y-59575000D01*
X171467000Y-55645000D02*
X174150000Y-58328000D01*
X174150000Y-58328000D02*
X174150000Y-59575000D01*
X152417000Y-55645000D02*
X155100000Y-58328000D01*
X155100000Y-58328000D02*
X155100000Y-59575000D01*
X133367000Y-55645000D02*
X136050000Y-58328000D01*
X136050000Y-58328000D02*
X136050000Y-59575000D01*
X114317000Y-55645000D02*
X117000000Y-58328000D01*
X117000000Y-58328000D02*
X117000000Y-59575000D01*
X95267000Y-55645000D02*
X97950000Y-58328000D01*
X97950000Y-58328000D02*
X97950000Y-59575000D01*
X76217000Y-55645000D02*
X78900000Y-58328000D01*
X78900000Y-58328000D02*
X78900000Y-59575000D01*
X57167000Y-55645000D02*
X59850000Y-58328000D01*
X59850000Y-58328000D02*
X59850000Y-59575000D01*
X38117000Y-55645000D02*
X40800000Y-58328000D01*
X40800000Y-58328000D02*
X40800000Y-59575000D01*
X305143706Y-27044520D02*
X305143706Y-28643706D01*
X305143706Y-28643706D02*
X307500000Y-31000000D01*
X286103706Y-27044520D02*
X286103706Y-28653706D01*
X286103706Y-28653706D02*
X288450000Y-31000000D01*
X267103706Y-27044520D02*
X267103706Y-28703706D01*
X267103706Y-28703706D02*
X269400000Y-31000000D01*
X248092000Y-27045000D02*
X248092000Y-28742000D01*
X248092000Y-28742000D02*
X250350000Y-31000000D01*
X219188209Y-27053694D02*
X221775000Y-29640485D01*
X221775000Y-29640485D02*
X221775000Y-31000000D01*
X200188209Y-27053694D02*
X202725000Y-29590485D01*
X202725000Y-29590485D02*
X202725000Y-31000000D01*
X181124485Y-27038486D02*
X183675000Y-29589001D01*
X183675000Y-29589001D02*
X183675000Y-31000000D01*
X162092000Y-27045000D02*
X164625000Y-29578000D01*
X164625000Y-29578000D02*
X164625000Y-31000000D01*
X133592000Y-27045000D02*
X136050000Y-29503000D01*
X136050000Y-29503000D02*
X136050000Y-31000000D01*
X114592000Y-27045000D02*
X114592000Y-28592000D01*
X114592000Y-28592000D02*
X117000000Y-31000000D01*
X95559347Y-27056106D02*
X95559347Y-28609347D01*
X95559347Y-28609347D02*
X97950000Y-31000000D01*
X76521475Y-27097388D02*
X76521475Y-28621475D01*
X76521475Y-28621475D02*
X78900000Y-31000000D01*
X38172000Y-27125000D02*
X40800000Y-29753000D01*
X40800000Y-29753000D02*
X40800000Y-31000000D01*
M02*
