G04 #@! TF.GenerationSoftware,KiCad,Pcbnew,8.0.5*
G04 #@! TF.CreationDate,2024-10-27T22:32:10+11:00*
G04 #@! TF.ProjectId,keyboard,6b657962-6f61-4726-942e-6b696361645f,rev?*
G04 #@! TF.SameCoordinates,Original*
G04 #@! TF.FileFunction,Copper,L1,Top*
G04 #@! TF.FilePolarity,Positive*
%FSLAX46Y46*%
G04 Gerber Fmt 4.6, Leading zero omitted, Abs format (unit mm)*
G04 Created by KiCad (PCBNEW 8.0.5) date 2024-10-27 22:32:10*
%MOMM*%
%LPD*%
G01*
G04 APERTURE LIST*
G04 #@! TA.AperFunction,SMDPad,CuDef*
%ADD10R,1.500000X0.900000*%
G04 #@! TD*
G04 #@! TA.AperFunction,ViaPad*
%ADD11C,0.800000*%
G04 #@! TD*
G04 #@! TA.AperFunction,Conductor*
%ADD12C,0.250000*%
G04 #@! TD*
G04 APERTURE END LIST*
D10*
X97100000Y-86700000D03*
X97100000Y-90000000D03*
X102000000Y-90000000D03*
X102000000Y-86700000D03*
X41600000Y-124700000D03*
X41600000Y-128000000D03*
X46500000Y-128000000D03*
X46500000Y-124700000D03*
X163600000Y-67700000D03*
X163600000Y-71000000D03*
X168500000Y-71000000D03*
X168500000Y-67700000D03*
X339600000Y-86700000D03*
X339600000Y-90000000D03*
X344500000Y-90000000D03*
X344500000Y-86700000D03*
X223100000Y-144200000D03*
X223100000Y-147500000D03*
X228000000Y-147500000D03*
X228000000Y-144200000D03*
X207100000Y-124700000D03*
X207100000Y-128000000D03*
X212000000Y-128000000D03*
X212000000Y-124700000D03*
X101100000Y-106200000D03*
X101100000Y-109500000D03*
X106000000Y-109500000D03*
X106000000Y-106200000D03*
X196600000Y-106200000D03*
X196600000Y-109500000D03*
X201500000Y-109500000D03*
X201500000Y-106200000D03*
X280600000Y-124700000D03*
X280600000Y-128000000D03*
X285500000Y-128000000D03*
X285500000Y-124700000D03*
X291100000Y-86700000D03*
X291100000Y-90000000D03*
X296000000Y-90000000D03*
X296000000Y-86700000D03*
X56100000Y-144200000D03*
X56100000Y-147500000D03*
X61000000Y-147500000D03*
X61000000Y-144200000D03*
X321050000Y-86700000D03*
X321050000Y-90000000D03*
X325950000Y-90000000D03*
X325950000Y-86700000D03*
X201100000Y-67700000D03*
X201100000Y-71000000D03*
X206000000Y-71000000D03*
X206000000Y-67700000D03*
X220100000Y-67700000D03*
X220100000Y-71000000D03*
X225000000Y-71000000D03*
X225000000Y-67700000D03*
X30600000Y-67700000D03*
X30600000Y-71000000D03*
X35500000Y-71000000D03*
X35500000Y-67700000D03*
X358600000Y-124700000D03*
X358600000Y-128000000D03*
X363500000Y-128000000D03*
X363500000Y-124700000D03*
X144100000Y-67700000D03*
X144100000Y-71000000D03*
X149000000Y-71000000D03*
X149000000Y-67700000D03*
X253600000Y-106200000D03*
X253600000Y-109500000D03*
X258500000Y-109500000D03*
X258500000Y-106200000D03*
X321100000Y-106200000D03*
X321100000Y-109500000D03*
X326000000Y-109500000D03*
X326000000Y-106200000D03*
X35600000Y-86700000D03*
X35600000Y-90000000D03*
X40500000Y-90000000D03*
X40500000Y-86700000D03*
X125550000Y-39200000D03*
X125550000Y-42500000D03*
X130450000Y-42500000D03*
X130450000Y-39200000D03*
X358600000Y-86700000D03*
X358600000Y-90000000D03*
X363500000Y-90000000D03*
X363500000Y-86700000D03*
X377600000Y-134200000D03*
X377600000Y-137500000D03*
X382500000Y-137500000D03*
X382500000Y-134200000D03*
X78600000Y-86700000D03*
X78600000Y-90000000D03*
X83500000Y-90000000D03*
X83500000Y-86700000D03*
X340050000Y-106200000D03*
X340050000Y-109500000D03*
X344950000Y-109500000D03*
X344950000Y-106200000D03*
X107100000Y-39200000D03*
X107100000Y-42500000D03*
X112000000Y-42500000D03*
X112000000Y-39200000D03*
X267600000Y-86700000D03*
X267600000Y-90000000D03*
X272500000Y-90000000D03*
X272500000Y-86700000D03*
X240600000Y-39200000D03*
X240600000Y-42500000D03*
X245500000Y-42500000D03*
X245500000Y-39200000D03*
X330600000Y-144200000D03*
X330600000Y-147500000D03*
X335500000Y-147500000D03*
X335500000Y-144200000D03*
X182100000Y-67700000D03*
X182100000Y-71000000D03*
X187000000Y-71000000D03*
X187000000Y-67700000D03*
X154600000Y-39200000D03*
X154600000Y-42500000D03*
X159500000Y-42500000D03*
X159500000Y-39200000D03*
X286100000Y-106200000D03*
X286100000Y-109500000D03*
X291000000Y-109500000D03*
X291000000Y-106200000D03*
X353600000Y-29700000D03*
X353600000Y-33000000D03*
X358500000Y-33000000D03*
X358500000Y-29700000D03*
X173550000Y-39200000D03*
X173550000Y-42500000D03*
X178450000Y-42500000D03*
X178450000Y-39200000D03*
X277600000Y-39200000D03*
X277600000Y-42500000D03*
X282500000Y-42500000D03*
X282500000Y-39200000D03*
X234600000Y-106200000D03*
X234600000Y-109500000D03*
X239500000Y-109500000D03*
X239500000Y-106200000D03*
X129600000Y-124700000D03*
X129600000Y-128000000D03*
X134500000Y-128000000D03*
X134500000Y-124700000D03*
X270600000Y-144200000D03*
X270600000Y-147500000D03*
X275500000Y-147500000D03*
X275500000Y-144200000D03*
X37100000Y-106200000D03*
X37100000Y-109500000D03*
X42000000Y-109500000D03*
X42000000Y-106200000D03*
X297100000Y-39200000D03*
X297100000Y-42500000D03*
X302000000Y-42500000D03*
X302000000Y-39200000D03*
X73100000Y-124700000D03*
X73100000Y-128000000D03*
X78000000Y-128000000D03*
X78000000Y-124700000D03*
X68600000Y-39200000D03*
X68600000Y-42500000D03*
X73500000Y-42500000D03*
X73500000Y-39200000D03*
X245100000Y-124700000D03*
X245100000Y-128000000D03*
X250000000Y-128000000D03*
X250000000Y-124700000D03*
X59100000Y-86700000D03*
X59100000Y-90000000D03*
X64000000Y-90000000D03*
X64000000Y-86700000D03*
X187100000Y-124700000D03*
X187100000Y-128000000D03*
X192000000Y-128000000D03*
X192000000Y-124700000D03*
X106100000Y-67700000D03*
X106100000Y-71000000D03*
X111000000Y-71000000D03*
X111000000Y-67700000D03*
X247100000Y-144200000D03*
X247100000Y-147500000D03*
X252000000Y-147500000D03*
X252000000Y-144200000D03*
X68100000Y-67700000D03*
X68100000Y-71000000D03*
X73000000Y-71000000D03*
X73000000Y-67700000D03*
X32600000Y-144200000D03*
X32600000Y-147500000D03*
X37500000Y-147500000D03*
X37500000Y-144200000D03*
X249100000Y-86700000D03*
X249100000Y-90000000D03*
X254000000Y-90000000D03*
X254000000Y-86700000D03*
X224600000Y-124700000D03*
X224600000Y-128000000D03*
X229500000Y-128000000D03*
X229500000Y-124700000D03*
X91600000Y-124700000D03*
X91600000Y-128000000D03*
X96500000Y-128000000D03*
X96500000Y-124700000D03*
X358600000Y-106200000D03*
X358600000Y-109500000D03*
X363500000Y-109500000D03*
X363500000Y-106200000D03*
X294600000Y-144200000D03*
X294600000Y-147500000D03*
X299500000Y-147500000D03*
X299500000Y-144200000D03*
X342600000Y-29700000D03*
X342600000Y-33000000D03*
X347500000Y-33000000D03*
X347500000Y-29700000D03*
X116100000Y-86700000D03*
X116100000Y-90000000D03*
X121000000Y-90000000D03*
X121000000Y-86700000D03*
X365550000Y-29700000D03*
X365550000Y-33000000D03*
X370450000Y-33000000D03*
X370450000Y-29700000D03*
X30500000Y-39200000D03*
X30500000Y-42500000D03*
X35400000Y-42500000D03*
X35400000Y-39200000D03*
X110600000Y-124700000D03*
X110600000Y-128000000D03*
X115500000Y-128000000D03*
X115500000Y-124700000D03*
X378100000Y-67700000D03*
X378100000Y-71000000D03*
X383000000Y-71000000D03*
X383000000Y-67700000D03*
X378050000Y-95850000D03*
X378050000Y-99150000D03*
X382950000Y-99150000D03*
X382950000Y-95850000D03*
X211100000Y-39200000D03*
X211100000Y-42500000D03*
X216000000Y-42500000D03*
X216000000Y-39200000D03*
X49600000Y-67700000D03*
X49600000Y-71000000D03*
X54500000Y-71000000D03*
X54500000Y-67700000D03*
X321000000Y-67700000D03*
X321000000Y-71000000D03*
X325900000Y-71000000D03*
X325900000Y-67700000D03*
X149100000Y-124700000D03*
X149100000Y-128000000D03*
X154000000Y-128000000D03*
X154000000Y-124700000D03*
X173100000Y-86700000D03*
X173100000Y-90000000D03*
X178000000Y-90000000D03*
X178000000Y-86700000D03*
X259600000Y-39200000D03*
X259600000Y-42500000D03*
X264500000Y-42500000D03*
X264500000Y-39200000D03*
X230100000Y-86700000D03*
X230100000Y-90000000D03*
X235000000Y-90000000D03*
X235000000Y-86700000D03*
X151600000Y-144200000D03*
X151600000Y-147500000D03*
X156500000Y-147500000D03*
X156500000Y-144200000D03*
X135600000Y-86700000D03*
X135600000Y-90000000D03*
X140500000Y-90000000D03*
X140500000Y-86700000D03*
X258100000Y-67700000D03*
X258100000Y-71000000D03*
X263000000Y-71000000D03*
X263000000Y-67700000D03*
X211100000Y-86700000D03*
X211100000Y-90000000D03*
X216000000Y-90000000D03*
X216000000Y-86700000D03*
X177600000Y-106200000D03*
X177600000Y-109500000D03*
X182500000Y-109500000D03*
X182500000Y-106200000D03*
X87600000Y-67700000D03*
X87600000Y-71000000D03*
X92500000Y-71000000D03*
X92500000Y-67700000D03*
X339600000Y-124700000D03*
X339600000Y-128000000D03*
X344500000Y-128000000D03*
X344500000Y-124700000D03*
X358600000Y-144200000D03*
X358600000Y-147500000D03*
X363500000Y-147500000D03*
X363500000Y-144200000D03*
X359100000Y-67700000D03*
X359100000Y-71000000D03*
X364000000Y-71000000D03*
X364000000Y-67700000D03*
X88050000Y-39200000D03*
X88050000Y-42500000D03*
X92950000Y-42500000D03*
X92950000Y-39200000D03*
X340000000Y-67700000D03*
X340000000Y-71000000D03*
X344900000Y-71000000D03*
X344900000Y-67700000D03*
X158100000Y-106200000D03*
X158100000Y-109500000D03*
X163000000Y-109500000D03*
X163000000Y-106200000D03*
X240100000Y-67700000D03*
X240100000Y-71000000D03*
X245000000Y-71000000D03*
X245000000Y-67700000D03*
X80100000Y-144200000D03*
X80100000Y-147500000D03*
X85000000Y-147500000D03*
X85000000Y-144200000D03*
X192100000Y-86700000D03*
X192100000Y-90000000D03*
X197000000Y-90000000D03*
X197000000Y-86700000D03*
X215600000Y-106200000D03*
X215600000Y-109500000D03*
X220500000Y-109500000D03*
X220500000Y-106200000D03*
X139100000Y-106200000D03*
X139100000Y-109500000D03*
X144000000Y-109500000D03*
X144000000Y-106200000D03*
X287100000Y-67700000D03*
X287100000Y-71000000D03*
X292000000Y-71000000D03*
X292000000Y-67700000D03*
X192600000Y-39200000D03*
X192600000Y-42500000D03*
X197500000Y-42500000D03*
X197500000Y-39200000D03*
X167100000Y-124700000D03*
X167100000Y-128000000D03*
X172000000Y-128000000D03*
X172000000Y-124700000D03*
X120100000Y-106200000D03*
X120100000Y-109500000D03*
X125000000Y-109500000D03*
X125000000Y-106200000D03*
X63600000Y-106200000D03*
X63600000Y-109500000D03*
X68500000Y-109500000D03*
X68500000Y-106200000D03*
X82600000Y-106200000D03*
X82600000Y-109500000D03*
X87500000Y-109500000D03*
X87500000Y-106200000D03*
X153600000Y-86700000D03*
X153600000Y-90000000D03*
X158500000Y-90000000D03*
X158500000Y-86700000D03*
X320600000Y-124700000D03*
X320600000Y-128000000D03*
X325500000Y-128000000D03*
X325500000Y-124700000D03*
X125100000Y-67700000D03*
X125100000Y-71000000D03*
X130000000Y-71000000D03*
X130000000Y-67700000D03*
D11*
X88026175Y-38011867D03*
X68564676Y-38000000D03*
X30500000Y-38000000D03*
D12*
X30500000Y-38000000D02*
X30500000Y-39200000D01*
X68564676Y-38000000D02*
X68564676Y-39164676D01*
X68564676Y-39164676D02*
X68600000Y-39200000D01*
X88026175Y-38011867D02*
X88026175Y-39176175D01*
X88026175Y-39176175D02*
X88050000Y-39200000D01*
X83000000Y-39000000D02*
X86000000Y-39000000D01*
X70025000Y-39200000D02*
X73500000Y-39200000D01*
X78725000Y-43275000D02*
X83000000Y-39000000D01*
X69861396Y-42225000D02*
X70911396Y-43275000D01*
X70911396Y-43275000D02*
X78725000Y-43275000D01*
X68875000Y-42225000D02*
X69861396Y-42225000D01*
X86000000Y-39000000D02*
X86975000Y-39975000D01*
X68600000Y-42500000D02*
X68875000Y-42225000D01*
X69675000Y-39550000D02*
X70025000Y-39200000D01*
X30500000Y-42500000D02*
X33025000Y-39975000D01*
X86975000Y-39975000D02*
X92175000Y-39975000D01*
X33025000Y-39975000D02*
X69675000Y-39975000D01*
X69675000Y-39975000D02*
X69675000Y-39550000D01*
X92175000Y-39975000D02*
X92950000Y-39200000D01*
X54500000Y-71000000D02*
X54800000Y-71000000D01*
X187000000Y-71000000D02*
X187300000Y-71000000D01*
X364000000Y-71000000D02*
X364500000Y-71000000D01*
X378100000Y-71000000D02*
X367300000Y-71000000D01*
X367300000Y-71000000D02*
X364000000Y-67700000D01*
X297100000Y-42500000D02*
X297875000Y-41725000D01*
X297875000Y-41725000D02*
X364287631Y-41725000D01*
X364287631Y-41725000D02*
X383000000Y-60437369D01*
X383000000Y-60437369D02*
X383000000Y-67700000D01*
X277600000Y-42500000D02*
X280650000Y-42500000D01*
X301225000Y-39975000D02*
X302000000Y-39200000D01*
X280650000Y-42500000D02*
X283175000Y-39975000D01*
X283175000Y-39975000D02*
X301225000Y-39975000D01*
X259600000Y-42500000D02*
X260375000Y-41725000D01*
X260375000Y-41725000D02*
X279975000Y-41725000D01*
X279975000Y-41725000D02*
X282500000Y-39200000D01*
X240600000Y-42500000D02*
X243650000Y-42500000D01*
X243650000Y-42500000D02*
X246150000Y-40000000D01*
X246150000Y-40000000D02*
X263700000Y-40000000D01*
X263700000Y-40000000D02*
X264500000Y-39200000D01*
X211100000Y-42500000D02*
X214150000Y-42500000D01*
X214150000Y-42500000D02*
X216650000Y-40000000D01*
X216650000Y-40000000D02*
X244700000Y-40000000D01*
X244700000Y-40000000D02*
X245500000Y-39200000D01*
X192600000Y-42500000D02*
X195650000Y-42500000D01*
X195650000Y-42500000D02*
X198150000Y-40000000D01*
X198150000Y-40000000D02*
X215200000Y-40000000D01*
X215200000Y-40000000D02*
X216000000Y-39200000D01*
X173550000Y-42500000D02*
X176600000Y-42500000D01*
X176600000Y-42500000D02*
X179100000Y-40000000D01*
X179100000Y-40000000D02*
X196700000Y-40000000D01*
X196700000Y-40000000D02*
X197500000Y-39200000D01*
X154600000Y-42500000D02*
X157650000Y-42500000D01*
X160150000Y-40000000D02*
X177650000Y-40000000D01*
X157650000Y-42500000D02*
X160150000Y-40000000D01*
X177650000Y-40000000D02*
X178450000Y-39200000D01*
X125550000Y-42500000D02*
X128600000Y-42500000D01*
X128600000Y-42500000D02*
X131125000Y-39975000D01*
X131125000Y-39975000D02*
X158725000Y-39975000D01*
X158725000Y-39975000D02*
X159500000Y-39200000D01*
X107100000Y-42500000D02*
X107875000Y-41725000D01*
X107875000Y-41725000D02*
X127925000Y-41725000D01*
X127925000Y-41725000D02*
X130450000Y-39200000D01*
X88050000Y-42500000D02*
X91100000Y-42500000D01*
X91100000Y-42500000D02*
X93625000Y-39975000D01*
X111225000Y-39975000D02*
X112000000Y-39200000D01*
X93625000Y-39975000D02*
X111225000Y-39975000D01*
M02*
